%TF.GenerationSoftware,KiCad,Pcbnew,(5.1.6)-1*%
%TF.CreationDate,2021-03-31T23:30:28+02:00*%
%TF.ProjectId,DRIVER_8323_based,44524956-4552-45f3-9833-32335f626173,rev?*%
%TF.SameCoordinates,Original*%
%TF.FileFunction,Paste,Top*%
%TF.FilePolarity,Positive*%
%FSLAX46Y46*%
G04 Gerber Fmt 4.6, Leading zero omitted, Abs format (unit mm)*
G04 Created by KiCad (PCBNEW (5.1.6)-1) date 2021-03-31 23:30:28*
%MOMM*%
%LPD*%
G01*
G04 APERTURE LIST*
%ADD10R,0.750000X0.500000*%
%ADD11R,1.500000X1.500000*%
%ADD12R,0.750000X0.400000*%
%ADD13C,0.100000*%
%ADD14R,4.550000X5.250000*%
%ADD15R,4.600000X1.100000*%
%ADD16R,1.500000X2.000000*%
%ADD17R,3.800000X2.000000*%
%ADD18R,2.900000X5.400000*%
%ADD19R,2.500000X2.300000*%
%ADD20R,1.200000X1.400000*%
G04 APERTURE END LIST*
D10*
%TO.C,Q6*%
X154280000Y-48630000D03*
X154280000Y-47360000D03*
X154280000Y-46090000D03*
X154280000Y-44820000D03*
D11*
X151175000Y-47575000D03*
X151175000Y-45875000D03*
X152875000Y-47575000D03*
X152875000Y-45875000D03*
D12*
X148475000Y-48630000D03*
X148475000Y-47360000D03*
X148475000Y-46090000D03*
X148475000Y-44820000D03*
%TD*%
D10*
%TO.C,Q5*%
X154380000Y-67305000D03*
X154380000Y-66035000D03*
X154380000Y-64765000D03*
X154380000Y-63495000D03*
D11*
X151275000Y-66250000D03*
X151275000Y-64550000D03*
X152975000Y-66250000D03*
X152975000Y-64550000D03*
D12*
X148575000Y-67305000D03*
X148575000Y-66035000D03*
X148575000Y-64765000D03*
X148575000Y-63495000D03*
%TD*%
D10*
%TO.C,Q4*%
X154355000Y-74255000D03*
X154355000Y-72985000D03*
X154355000Y-71715000D03*
X154355000Y-70445000D03*
D11*
X151250000Y-73200000D03*
X151250000Y-71500000D03*
X152950000Y-73200000D03*
X152950000Y-71500000D03*
D12*
X148550000Y-74255000D03*
X148550000Y-72985000D03*
X148550000Y-71715000D03*
X148550000Y-70445000D03*
%TD*%
D10*
%TO.C,Q3*%
X148495000Y-51170000D03*
X148495000Y-52440000D03*
X148495000Y-53710000D03*
X148495000Y-54980000D03*
D11*
X151600000Y-52225000D03*
X151600000Y-53925000D03*
X149900000Y-52225000D03*
X149900000Y-53925000D03*
D12*
X154300000Y-51170000D03*
X154300000Y-52440000D03*
X154300000Y-53710000D03*
X154300000Y-54980000D03*
%TD*%
D10*
%TO.C,Q2*%
X148570000Y-57520000D03*
X148570000Y-58790000D03*
X148570000Y-60060000D03*
X148570000Y-61330000D03*
D11*
X151675000Y-58575000D03*
X151675000Y-60275000D03*
X149975000Y-58575000D03*
X149975000Y-60275000D03*
D12*
X154375000Y-57520000D03*
X154375000Y-58790000D03*
X154375000Y-60060000D03*
X154375000Y-61330000D03*
%TD*%
D10*
%TO.C,Q1*%
X148495000Y-76895000D03*
X148495000Y-78165000D03*
X148495000Y-79435000D03*
X148495000Y-80705000D03*
D11*
X151600000Y-77950000D03*
X151600000Y-79650000D03*
X149900000Y-77950000D03*
X149900000Y-79650000D03*
D12*
X154300000Y-76895000D03*
X154300000Y-78165000D03*
X154300000Y-79435000D03*
X154300000Y-80705000D03*
%TD*%
%TO.C,R9*%
G36*
G01*
X135350000Y-72556250D02*
X135350000Y-71643750D01*
G75*
G02*
X135593750Y-71400000I243750J0D01*
G01*
X136081250Y-71400000D01*
G75*
G02*
X136325000Y-71643750I0J-243750D01*
G01*
X136325000Y-72556250D01*
G75*
G02*
X136081250Y-72800000I-243750J0D01*
G01*
X135593750Y-72800000D01*
G75*
G02*
X135350000Y-72556250I0J243750D01*
G01*
G37*
G36*
G01*
X133475000Y-72556250D02*
X133475000Y-71643750D01*
G75*
G02*
X133718750Y-71400000I243750J0D01*
G01*
X134206250Y-71400000D01*
G75*
G02*
X134450000Y-71643750I0J-243750D01*
G01*
X134450000Y-72556250D01*
G75*
G02*
X134206250Y-72800000I-243750J0D01*
G01*
X133718750Y-72800000D01*
G75*
G02*
X133475000Y-72556250I0J243750D01*
G01*
G37*
%TD*%
D13*
%TO.C,U2*%
G36*
X130974126Y-65067981D02*
G01*
X130980107Y-65048266D01*
X130989819Y-65030096D01*
X131002889Y-65014170D01*
X131089954Y-64927105D01*
X131105880Y-64914035D01*
X131124050Y-64904323D01*
X131143765Y-64898342D01*
X131164268Y-64896323D01*
X131670732Y-64896323D01*
X131691235Y-64898342D01*
X131710950Y-64904323D01*
X131729120Y-64914035D01*
X131745046Y-64927105D01*
X131832111Y-65014170D01*
X131845181Y-65030096D01*
X131854893Y-65048266D01*
X131860874Y-65067981D01*
X131862893Y-65088484D01*
X131862893Y-65594948D01*
X131860874Y-65615451D01*
X131854893Y-65635166D01*
X131845181Y-65653336D01*
X131832111Y-65669262D01*
X131745046Y-65756327D01*
X131729120Y-65769397D01*
X131710950Y-65779109D01*
X131691235Y-65785090D01*
X131670732Y-65787109D01*
X131164268Y-65787109D01*
X131143765Y-65785090D01*
X131124050Y-65779109D01*
X131105880Y-65769397D01*
X131089954Y-65756327D01*
X131002889Y-65669262D01*
X130989819Y-65653336D01*
X130980107Y-65635166D01*
X130974126Y-65615451D01*
X130972107Y-65594948D01*
X130972107Y-65088484D01*
X130974126Y-65067981D01*
G37*
G36*
X129949126Y-65067981D02*
G01*
X129955107Y-65048266D01*
X129964819Y-65030096D01*
X129977889Y-65014170D01*
X130064954Y-64927105D01*
X130080880Y-64914035D01*
X130099050Y-64904323D01*
X130118765Y-64898342D01*
X130139268Y-64896323D01*
X130645732Y-64896323D01*
X130666235Y-64898342D01*
X130685950Y-64904323D01*
X130704120Y-64914035D01*
X130720046Y-64927105D01*
X130807111Y-65014170D01*
X130820181Y-65030096D01*
X130829893Y-65048266D01*
X130835874Y-65067981D01*
X130837893Y-65088484D01*
X130837893Y-65594948D01*
X130835874Y-65615451D01*
X130829893Y-65635166D01*
X130820181Y-65653336D01*
X130807111Y-65669262D01*
X130720046Y-65756327D01*
X130704120Y-65769397D01*
X130685950Y-65779109D01*
X130666235Y-65785090D01*
X130645732Y-65787109D01*
X130139268Y-65787109D01*
X130118765Y-65785090D01*
X130099050Y-65779109D01*
X130080880Y-65769397D01*
X130064954Y-65756327D01*
X129977889Y-65669262D01*
X129964819Y-65653336D01*
X129955107Y-65635166D01*
X129949126Y-65615451D01*
X129947107Y-65594948D01*
X129947107Y-65088484D01*
X129949126Y-65067981D01*
G37*
G36*
X128924126Y-65067981D02*
G01*
X128930107Y-65048266D01*
X128939819Y-65030096D01*
X128952889Y-65014170D01*
X129039954Y-64927105D01*
X129055880Y-64914035D01*
X129074050Y-64904323D01*
X129093765Y-64898342D01*
X129114268Y-64896323D01*
X129620732Y-64896323D01*
X129641235Y-64898342D01*
X129660950Y-64904323D01*
X129679120Y-64914035D01*
X129695046Y-64927105D01*
X129782111Y-65014170D01*
X129795181Y-65030096D01*
X129804893Y-65048266D01*
X129810874Y-65067981D01*
X129812893Y-65088484D01*
X129812893Y-65594948D01*
X129810874Y-65615451D01*
X129804893Y-65635166D01*
X129795181Y-65653336D01*
X129782111Y-65669262D01*
X129695046Y-65756327D01*
X129679120Y-65769397D01*
X129660950Y-65779109D01*
X129641235Y-65785090D01*
X129620732Y-65787109D01*
X129114268Y-65787109D01*
X129093765Y-65785090D01*
X129074050Y-65779109D01*
X129055880Y-65769397D01*
X129039954Y-65756327D01*
X128952889Y-65669262D01*
X128939819Y-65653336D01*
X128930107Y-65635166D01*
X128924126Y-65615451D01*
X128922107Y-65594948D01*
X128922107Y-65088484D01*
X128924126Y-65067981D01*
G37*
G36*
X127899126Y-65067981D02*
G01*
X127905107Y-65048266D01*
X127914819Y-65030096D01*
X127927889Y-65014170D01*
X128014954Y-64927105D01*
X128030880Y-64914035D01*
X128049050Y-64904323D01*
X128068765Y-64898342D01*
X128089268Y-64896323D01*
X128595732Y-64896323D01*
X128616235Y-64898342D01*
X128635950Y-64904323D01*
X128654120Y-64914035D01*
X128670046Y-64927105D01*
X128757111Y-65014170D01*
X128770181Y-65030096D01*
X128779893Y-65048266D01*
X128785874Y-65067981D01*
X128787893Y-65088484D01*
X128787893Y-65594948D01*
X128785874Y-65615451D01*
X128779893Y-65635166D01*
X128770181Y-65653336D01*
X128757111Y-65669262D01*
X128670046Y-65756327D01*
X128654120Y-65769397D01*
X128635950Y-65779109D01*
X128616235Y-65785090D01*
X128595732Y-65787109D01*
X128089268Y-65787109D01*
X128068765Y-65785090D01*
X128049050Y-65779109D01*
X128030880Y-65769397D01*
X128014954Y-65756327D01*
X127927889Y-65669262D01*
X127914819Y-65653336D01*
X127905107Y-65635166D01*
X127899126Y-65615451D01*
X127897107Y-65594948D01*
X127897107Y-65088484D01*
X127899126Y-65067981D01*
G37*
G36*
X130974126Y-66092981D02*
G01*
X130980107Y-66073266D01*
X130989819Y-66055096D01*
X131002889Y-66039170D01*
X131089954Y-65952105D01*
X131105880Y-65939035D01*
X131124050Y-65929323D01*
X131143765Y-65923342D01*
X131164268Y-65921323D01*
X131670732Y-65921323D01*
X131691235Y-65923342D01*
X131710950Y-65929323D01*
X131729120Y-65939035D01*
X131745046Y-65952105D01*
X131832111Y-66039170D01*
X131845181Y-66055096D01*
X131854893Y-66073266D01*
X131860874Y-66092981D01*
X131862893Y-66113484D01*
X131862893Y-66619948D01*
X131860874Y-66640451D01*
X131854893Y-66660166D01*
X131845181Y-66678336D01*
X131832111Y-66694262D01*
X131745046Y-66781327D01*
X131729120Y-66794397D01*
X131710950Y-66804109D01*
X131691235Y-66810090D01*
X131670732Y-66812109D01*
X131164268Y-66812109D01*
X131143765Y-66810090D01*
X131124050Y-66804109D01*
X131105880Y-66794397D01*
X131089954Y-66781327D01*
X131002889Y-66694262D01*
X130989819Y-66678336D01*
X130980107Y-66660166D01*
X130974126Y-66640451D01*
X130972107Y-66619948D01*
X130972107Y-66113484D01*
X130974126Y-66092981D01*
G37*
G36*
X129949126Y-66092981D02*
G01*
X129955107Y-66073266D01*
X129964819Y-66055096D01*
X129977889Y-66039170D01*
X130064954Y-65952105D01*
X130080880Y-65939035D01*
X130099050Y-65929323D01*
X130118765Y-65923342D01*
X130139268Y-65921323D01*
X130645732Y-65921323D01*
X130666235Y-65923342D01*
X130685950Y-65929323D01*
X130704120Y-65939035D01*
X130720046Y-65952105D01*
X130807111Y-66039170D01*
X130820181Y-66055096D01*
X130829893Y-66073266D01*
X130835874Y-66092981D01*
X130837893Y-66113484D01*
X130837893Y-66619948D01*
X130835874Y-66640451D01*
X130829893Y-66660166D01*
X130820181Y-66678336D01*
X130807111Y-66694262D01*
X130720046Y-66781327D01*
X130704120Y-66794397D01*
X130685950Y-66804109D01*
X130666235Y-66810090D01*
X130645732Y-66812109D01*
X130139268Y-66812109D01*
X130118765Y-66810090D01*
X130099050Y-66804109D01*
X130080880Y-66794397D01*
X130064954Y-66781327D01*
X129977889Y-66694262D01*
X129964819Y-66678336D01*
X129955107Y-66660166D01*
X129949126Y-66640451D01*
X129947107Y-66619948D01*
X129947107Y-66113484D01*
X129949126Y-66092981D01*
G37*
G36*
X128924126Y-66092981D02*
G01*
X128930107Y-66073266D01*
X128939819Y-66055096D01*
X128952889Y-66039170D01*
X129039954Y-65952105D01*
X129055880Y-65939035D01*
X129074050Y-65929323D01*
X129093765Y-65923342D01*
X129114268Y-65921323D01*
X129620732Y-65921323D01*
X129641235Y-65923342D01*
X129660950Y-65929323D01*
X129679120Y-65939035D01*
X129695046Y-65952105D01*
X129782111Y-66039170D01*
X129795181Y-66055096D01*
X129804893Y-66073266D01*
X129810874Y-66092981D01*
X129812893Y-66113484D01*
X129812893Y-66619948D01*
X129810874Y-66640451D01*
X129804893Y-66660166D01*
X129795181Y-66678336D01*
X129782111Y-66694262D01*
X129695046Y-66781327D01*
X129679120Y-66794397D01*
X129660950Y-66804109D01*
X129641235Y-66810090D01*
X129620732Y-66812109D01*
X129114268Y-66812109D01*
X129093765Y-66810090D01*
X129074050Y-66804109D01*
X129055880Y-66794397D01*
X129039954Y-66781327D01*
X128952889Y-66694262D01*
X128939819Y-66678336D01*
X128930107Y-66660166D01*
X128924126Y-66640451D01*
X128922107Y-66619948D01*
X128922107Y-66113484D01*
X128924126Y-66092981D01*
G37*
G36*
X127899126Y-66092981D02*
G01*
X127905107Y-66073266D01*
X127914819Y-66055096D01*
X127927889Y-66039170D01*
X128014954Y-65952105D01*
X128030880Y-65939035D01*
X128049050Y-65929323D01*
X128068765Y-65923342D01*
X128089268Y-65921323D01*
X128595732Y-65921323D01*
X128616235Y-65923342D01*
X128635950Y-65929323D01*
X128654120Y-65939035D01*
X128670046Y-65952105D01*
X128757111Y-66039170D01*
X128770181Y-66055096D01*
X128779893Y-66073266D01*
X128785874Y-66092981D01*
X128787893Y-66113484D01*
X128787893Y-66619948D01*
X128785874Y-66640451D01*
X128779893Y-66660166D01*
X128770181Y-66678336D01*
X128757111Y-66694262D01*
X128670046Y-66781327D01*
X128654120Y-66794397D01*
X128635950Y-66804109D01*
X128616235Y-66810090D01*
X128595732Y-66812109D01*
X128089268Y-66812109D01*
X128068765Y-66810090D01*
X128049050Y-66804109D01*
X128030880Y-66794397D01*
X128014954Y-66781327D01*
X127927889Y-66694262D01*
X127914819Y-66678336D01*
X127905107Y-66660166D01*
X127899126Y-66640451D01*
X127897107Y-66619948D01*
X127897107Y-66113484D01*
X127899126Y-66092981D01*
G37*
G36*
X130974126Y-67117981D02*
G01*
X130980107Y-67098266D01*
X130989819Y-67080096D01*
X131002889Y-67064170D01*
X131089954Y-66977105D01*
X131105880Y-66964035D01*
X131124050Y-66954323D01*
X131143765Y-66948342D01*
X131164268Y-66946323D01*
X131670732Y-66946323D01*
X131691235Y-66948342D01*
X131710950Y-66954323D01*
X131729120Y-66964035D01*
X131745046Y-66977105D01*
X131832111Y-67064170D01*
X131845181Y-67080096D01*
X131854893Y-67098266D01*
X131860874Y-67117981D01*
X131862893Y-67138484D01*
X131862893Y-67644948D01*
X131860874Y-67665451D01*
X131854893Y-67685166D01*
X131845181Y-67703336D01*
X131832111Y-67719262D01*
X131745046Y-67806327D01*
X131729120Y-67819397D01*
X131710950Y-67829109D01*
X131691235Y-67835090D01*
X131670732Y-67837109D01*
X131164268Y-67837109D01*
X131143765Y-67835090D01*
X131124050Y-67829109D01*
X131105880Y-67819397D01*
X131089954Y-67806327D01*
X131002889Y-67719262D01*
X130989819Y-67703336D01*
X130980107Y-67685166D01*
X130974126Y-67665451D01*
X130972107Y-67644948D01*
X130972107Y-67138484D01*
X130974126Y-67117981D01*
G37*
G36*
X129949126Y-67117981D02*
G01*
X129955107Y-67098266D01*
X129964819Y-67080096D01*
X129977889Y-67064170D01*
X130064954Y-66977105D01*
X130080880Y-66964035D01*
X130099050Y-66954323D01*
X130118765Y-66948342D01*
X130139268Y-66946323D01*
X130645732Y-66946323D01*
X130666235Y-66948342D01*
X130685950Y-66954323D01*
X130704120Y-66964035D01*
X130720046Y-66977105D01*
X130807111Y-67064170D01*
X130820181Y-67080096D01*
X130829893Y-67098266D01*
X130835874Y-67117981D01*
X130837893Y-67138484D01*
X130837893Y-67644948D01*
X130835874Y-67665451D01*
X130829893Y-67685166D01*
X130820181Y-67703336D01*
X130807111Y-67719262D01*
X130720046Y-67806327D01*
X130704120Y-67819397D01*
X130685950Y-67829109D01*
X130666235Y-67835090D01*
X130645732Y-67837109D01*
X130139268Y-67837109D01*
X130118765Y-67835090D01*
X130099050Y-67829109D01*
X130080880Y-67819397D01*
X130064954Y-67806327D01*
X129977889Y-67719262D01*
X129964819Y-67703336D01*
X129955107Y-67685166D01*
X129949126Y-67665451D01*
X129947107Y-67644948D01*
X129947107Y-67138484D01*
X129949126Y-67117981D01*
G37*
G36*
X128924126Y-67117981D02*
G01*
X128930107Y-67098266D01*
X128939819Y-67080096D01*
X128952889Y-67064170D01*
X129039954Y-66977105D01*
X129055880Y-66964035D01*
X129074050Y-66954323D01*
X129093765Y-66948342D01*
X129114268Y-66946323D01*
X129620732Y-66946323D01*
X129641235Y-66948342D01*
X129660950Y-66954323D01*
X129679120Y-66964035D01*
X129695046Y-66977105D01*
X129782111Y-67064170D01*
X129795181Y-67080096D01*
X129804893Y-67098266D01*
X129810874Y-67117981D01*
X129812893Y-67138484D01*
X129812893Y-67644948D01*
X129810874Y-67665451D01*
X129804893Y-67685166D01*
X129795181Y-67703336D01*
X129782111Y-67719262D01*
X129695046Y-67806327D01*
X129679120Y-67819397D01*
X129660950Y-67829109D01*
X129641235Y-67835090D01*
X129620732Y-67837109D01*
X129114268Y-67837109D01*
X129093765Y-67835090D01*
X129074050Y-67829109D01*
X129055880Y-67819397D01*
X129039954Y-67806327D01*
X128952889Y-67719262D01*
X128939819Y-67703336D01*
X128930107Y-67685166D01*
X128924126Y-67665451D01*
X128922107Y-67644948D01*
X128922107Y-67138484D01*
X128924126Y-67117981D01*
G37*
G36*
X127899126Y-67117981D02*
G01*
X127905107Y-67098266D01*
X127914819Y-67080096D01*
X127927889Y-67064170D01*
X128014954Y-66977105D01*
X128030880Y-66964035D01*
X128049050Y-66954323D01*
X128068765Y-66948342D01*
X128089268Y-66946323D01*
X128595732Y-66946323D01*
X128616235Y-66948342D01*
X128635950Y-66954323D01*
X128654120Y-66964035D01*
X128670046Y-66977105D01*
X128757111Y-67064170D01*
X128770181Y-67080096D01*
X128779893Y-67098266D01*
X128785874Y-67117981D01*
X128787893Y-67138484D01*
X128787893Y-67644948D01*
X128785874Y-67665451D01*
X128779893Y-67685166D01*
X128770181Y-67703336D01*
X128757111Y-67719262D01*
X128670046Y-67806327D01*
X128654120Y-67819397D01*
X128635950Y-67829109D01*
X128616235Y-67835090D01*
X128595732Y-67837109D01*
X128089268Y-67837109D01*
X128068765Y-67835090D01*
X128049050Y-67829109D01*
X128030880Y-67819397D01*
X128014954Y-67806327D01*
X127927889Y-67719262D01*
X127914819Y-67703336D01*
X127905107Y-67685166D01*
X127899126Y-67665451D01*
X127897107Y-67644948D01*
X127897107Y-67138484D01*
X127899126Y-67117981D01*
G37*
G36*
X130974126Y-68142981D02*
G01*
X130980107Y-68123266D01*
X130989819Y-68105096D01*
X131002889Y-68089170D01*
X131089954Y-68002105D01*
X131105880Y-67989035D01*
X131124050Y-67979323D01*
X131143765Y-67973342D01*
X131164268Y-67971323D01*
X131670732Y-67971323D01*
X131691235Y-67973342D01*
X131710950Y-67979323D01*
X131729120Y-67989035D01*
X131745046Y-68002105D01*
X131832111Y-68089170D01*
X131845181Y-68105096D01*
X131854893Y-68123266D01*
X131860874Y-68142981D01*
X131862893Y-68163484D01*
X131862893Y-68669948D01*
X131860874Y-68690451D01*
X131854893Y-68710166D01*
X131845181Y-68728336D01*
X131832111Y-68744262D01*
X131745046Y-68831327D01*
X131729120Y-68844397D01*
X131710950Y-68854109D01*
X131691235Y-68860090D01*
X131670732Y-68862109D01*
X131164268Y-68862109D01*
X131143765Y-68860090D01*
X131124050Y-68854109D01*
X131105880Y-68844397D01*
X131089954Y-68831327D01*
X131002889Y-68744262D01*
X130989819Y-68728336D01*
X130980107Y-68710166D01*
X130974126Y-68690451D01*
X130972107Y-68669948D01*
X130972107Y-68163484D01*
X130974126Y-68142981D01*
G37*
G36*
X129949126Y-68142981D02*
G01*
X129955107Y-68123266D01*
X129964819Y-68105096D01*
X129977889Y-68089170D01*
X130064954Y-68002105D01*
X130080880Y-67989035D01*
X130099050Y-67979323D01*
X130118765Y-67973342D01*
X130139268Y-67971323D01*
X130645732Y-67971323D01*
X130666235Y-67973342D01*
X130685950Y-67979323D01*
X130704120Y-67989035D01*
X130720046Y-68002105D01*
X130807111Y-68089170D01*
X130820181Y-68105096D01*
X130829893Y-68123266D01*
X130835874Y-68142981D01*
X130837893Y-68163484D01*
X130837893Y-68669948D01*
X130835874Y-68690451D01*
X130829893Y-68710166D01*
X130820181Y-68728336D01*
X130807111Y-68744262D01*
X130720046Y-68831327D01*
X130704120Y-68844397D01*
X130685950Y-68854109D01*
X130666235Y-68860090D01*
X130645732Y-68862109D01*
X130139268Y-68862109D01*
X130118765Y-68860090D01*
X130099050Y-68854109D01*
X130080880Y-68844397D01*
X130064954Y-68831327D01*
X129977889Y-68744262D01*
X129964819Y-68728336D01*
X129955107Y-68710166D01*
X129949126Y-68690451D01*
X129947107Y-68669948D01*
X129947107Y-68163484D01*
X129949126Y-68142981D01*
G37*
G36*
X128924126Y-68142981D02*
G01*
X128930107Y-68123266D01*
X128939819Y-68105096D01*
X128952889Y-68089170D01*
X129039954Y-68002105D01*
X129055880Y-67989035D01*
X129074050Y-67979323D01*
X129093765Y-67973342D01*
X129114268Y-67971323D01*
X129620732Y-67971323D01*
X129641235Y-67973342D01*
X129660950Y-67979323D01*
X129679120Y-67989035D01*
X129695046Y-68002105D01*
X129782111Y-68089170D01*
X129795181Y-68105096D01*
X129804893Y-68123266D01*
X129810874Y-68142981D01*
X129812893Y-68163484D01*
X129812893Y-68669948D01*
X129810874Y-68690451D01*
X129804893Y-68710166D01*
X129795181Y-68728336D01*
X129782111Y-68744262D01*
X129695046Y-68831327D01*
X129679120Y-68844397D01*
X129660950Y-68854109D01*
X129641235Y-68860090D01*
X129620732Y-68862109D01*
X129114268Y-68862109D01*
X129093765Y-68860090D01*
X129074050Y-68854109D01*
X129055880Y-68844397D01*
X129039954Y-68831327D01*
X128952889Y-68744262D01*
X128939819Y-68728336D01*
X128930107Y-68710166D01*
X128924126Y-68690451D01*
X128922107Y-68669948D01*
X128922107Y-68163484D01*
X128924126Y-68142981D01*
G37*
G36*
X127899126Y-68142981D02*
G01*
X127905107Y-68123266D01*
X127914819Y-68105096D01*
X127927889Y-68089170D01*
X128014954Y-68002105D01*
X128030880Y-67989035D01*
X128049050Y-67979323D01*
X128068765Y-67973342D01*
X128089268Y-67971323D01*
X128595732Y-67971323D01*
X128616235Y-67973342D01*
X128635950Y-67979323D01*
X128654120Y-67989035D01*
X128670046Y-68002105D01*
X128757111Y-68089170D01*
X128770181Y-68105096D01*
X128779893Y-68123266D01*
X128785874Y-68142981D01*
X128787893Y-68163484D01*
X128787893Y-68669948D01*
X128785874Y-68690451D01*
X128779893Y-68710166D01*
X128770181Y-68728336D01*
X128757111Y-68744262D01*
X128670046Y-68831327D01*
X128654120Y-68844397D01*
X128635950Y-68854109D01*
X128616235Y-68860090D01*
X128595732Y-68862109D01*
X128089268Y-68862109D01*
X128068765Y-68860090D01*
X128049050Y-68854109D01*
X128030880Y-68844397D01*
X128014954Y-68831327D01*
X127927889Y-68744262D01*
X127914819Y-68728336D01*
X127905107Y-68710166D01*
X127899126Y-68690451D01*
X127897107Y-68669948D01*
X127897107Y-68163484D01*
X127899126Y-68142981D01*
G37*
G36*
G01*
X127292500Y-69254216D02*
X126592500Y-69254216D01*
G75*
G02*
X126530000Y-69191716I0J62500D01*
G01*
X126530000Y-69066716D01*
G75*
G02*
X126592500Y-69004216I62500J0D01*
G01*
X127292500Y-69004216D01*
G75*
G02*
X127355000Y-69066716I0J-62500D01*
G01*
X127355000Y-69191716D01*
G75*
G02*
X127292500Y-69254216I-62500J0D01*
G01*
G37*
G36*
G01*
X127292500Y-68754216D02*
X126592500Y-68754216D01*
G75*
G02*
X126530000Y-68691716I0J62500D01*
G01*
X126530000Y-68566716D01*
G75*
G02*
X126592500Y-68504216I62500J0D01*
G01*
X127292500Y-68504216D01*
G75*
G02*
X127355000Y-68566716I0J-62500D01*
G01*
X127355000Y-68691716D01*
G75*
G02*
X127292500Y-68754216I-62500J0D01*
G01*
G37*
G36*
G01*
X127292500Y-68254216D02*
X126592500Y-68254216D01*
G75*
G02*
X126530000Y-68191716I0J62500D01*
G01*
X126530000Y-68066716D01*
G75*
G02*
X126592500Y-68004216I62500J0D01*
G01*
X127292500Y-68004216D01*
G75*
G02*
X127355000Y-68066716I0J-62500D01*
G01*
X127355000Y-68191716D01*
G75*
G02*
X127292500Y-68254216I-62500J0D01*
G01*
G37*
G36*
G01*
X127292500Y-67754216D02*
X126592500Y-67754216D01*
G75*
G02*
X126530000Y-67691716I0J62500D01*
G01*
X126530000Y-67566716D01*
G75*
G02*
X126592500Y-67504216I62500J0D01*
G01*
X127292500Y-67504216D01*
G75*
G02*
X127355000Y-67566716I0J-62500D01*
G01*
X127355000Y-67691716D01*
G75*
G02*
X127292500Y-67754216I-62500J0D01*
G01*
G37*
G36*
G01*
X127292500Y-67254216D02*
X126592500Y-67254216D01*
G75*
G02*
X126530000Y-67191716I0J62500D01*
G01*
X126530000Y-67066716D01*
G75*
G02*
X126592500Y-67004216I62500J0D01*
G01*
X127292500Y-67004216D01*
G75*
G02*
X127355000Y-67066716I0J-62500D01*
G01*
X127355000Y-67191716D01*
G75*
G02*
X127292500Y-67254216I-62500J0D01*
G01*
G37*
G36*
G01*
X127292500Y-66754216D02*
X126592500Y-66754216D01*
G75*
G02*
X126530000Y-66691716I0J62500D01*
G01*
X126530000Y-66566716D01*
G75*
G02*
X126592500Y-66504216I62500J0D01*
G01*
X127292500Y-66504216D01*
G75*
G02*
X127355000Y-66566716I0J-62500D01*
G01*
X127355000Y-66691716D01*
G75*
G02*
X127292500Y-66754216I-62500J0D01*
G01*
G37*
G36*
G01*
X127292500Y-66254216D02*
X126592500Y-66254216D01*
G75*
G02*
X126530000Y-66191716I0J62500D01*
G01*
X126530000Y-66066716D01*
G75*
G02*
X126592500Y-66004216I62500J0D01*
G01*
X127292500Y-66004216D01*
G75*
G02*
X127355000Y-66066716I0J-62500D01*
G01*
X127355000Y-66191716D01*
G75*
G02*
X127292500Y-66254216I-62500J0D01*
G01*
G37*
G36*
G01*
X127292500Y-65754216D02*
X126592500Y-65754216D01*
G75*
G02*
X126530000Y-65691716I0J62500D01*
G01*
X126530000Y-65566716D01*
G75*
G02*
X126592500Y-65504216I62500J0D01*
G01*
X127292500Y-65504216D01*
G75*
G02*
X127355000Y-65566716I0J-62500D01*
G01*
X127355000Y-65691716D01*
G75*
G02*
X127292500Y-65754216I-62500J0D01*
G01*
G37*
G36*
G01*
X127292500Y-65254216D02*
X126592500Y-65254216D01*
G75*
G02*
X126530000Y-65191716I0J62500D01*
G01*
X126530000Y-65066716D01*
G75*
G02*
X126592500Y-65004216I62500J0D01*
G01*
X127292500Y-65004216D01*
G75*
G02*
X127355000Y-65066716I0J-62500D01*
G01*
X127355000Y-65191716D01*
G75*
G02*
X127292500Y-65254216I-62500J0D01*
G01*
G37*
G36*
G01*
X127292500Y-64754216D02*
X126592500Y-64754216D01*
G75*
G02*
X126530000Y-64691716I0J62500D01*
G01*
X126530000Y-64566716D01*
G75*
G02*
X126592500Y-64504216I62500J0D01*
G01*
X127292500Y-64504216D01*
G75*
G02*
X127355000Y-64566716I0J-62500D01*
G01*
X127355000Y-64691716D01*
G75*
G02*
X127292500Y-64754216I-62500J0D01*
G01*
G37*
G36*
G01*
X127692500Y-64354216D02*
X127567500Y-64354216D01*
G75*
G02*
X127505000Y-64291716I0J62500D01*
G01*
X127505000Y-63591716D01*
G75*
G02*
X127567500Y-63529216I62500J0D01*
G01*
X127692500Y-63529216D01*
G75*
G02*
X127755000Y-63591716I0J-62500D01*
G01*
X127755000Y-64291716D01*
G75*
G02*
X127692500Y-64354216I-62500J0D01*
G01*
G37*
G36*
G01*
X128192500Y-64354216D02*
X128067500Y-64354216D01*
G75*
G02*
X128005000Y-64291716I0J62500D01*
G01*
X128005000Y-63591716D01*
G75*
G02*
X128067500Y-63529216I62500J0D01*
G01*
X128192500Y-63529216D01*
G75*
G02*
X128255000Y-63591716I0J-62500D01*
G01*
X128255000Y-64291716D01*
G75*
G02*
X128192500Y-64354216I-62500J0D01*
G01*
G37*
G36*
G01*
X128692500Y-64354216D02*
X128567500Y-64354216D01*
G75*
G02*
X128505000Y-64291716I0J62500D01*
G01*
X128505000Y-63591716D01*
G75*
G02*
X128567500Y-63529216I62500J0D01*
G01*
X128692500Y-63529216D01*
G75*
G02*
X128755000Y-63591716I0J-62500D01*
G01*
X128755000Y-64291716D01*
G75*
G02*
X128692500Y-64354216I-62500J0D01*
G01*
G37*
G36*
G01*
X129192500Y-64354216D02*
X129067500Y-64354216D01*
G75*
G02*
X129005000Y-64291716I0J62500D01*
G01*
X129005000Y-63591716D01*
G75*
G02*
X129067500Y-63529216I62500J0D01*
G01*
X129192500Y-63529216D01*
G75*
G02*
X129255000Y-63591716I0J-62500D01*
G01*
X129255000Y-64291716D01*
G75*
G02*
X129192500Y-64354216I-62500J0D01*
G01*
G37*
G36*
G01*
X129692500Y-64354216D02*
X129567500Y-64354216D01*
G75*
G02*
X129505000Y-64291716I0J62500D01*
G01*
X129505000Y-63591716D01*
G75*
G02*
X129567500Y-63529216I62500J0D01*
G01*
X129692500Y-63529216D01*
G75*
G02*
X129755000Y-63591716I0J-62500D01*
G01*
X129755000Y-64291716D01*
G75*
G02*
X129692500Y-64354216I-62500J0D01*
G01*
G37*
G36*
G01*
X130192500Y-64354216D02*
X130067500Y-64354216D01*
G75*
G02*
X130005000Y-64291716I0J62500D01*
G01*
X130005000Y-63591716D01*
G75*
G02*
X130067500Y-63529216I62500J0D01*
G01*
X130192500Y-63529216D01*
G75*
G02*
X130255000Y-63591716I0J-62500D01*
G01*
X130255000Y-64291716D01*
G75*
G02*
X130192500Y-64354216I-62500J0D01*
G01*
G37*
G36*
G01*
X130692500Y-64354216D02*
X130567500Y-64354216D01*
G75*
G02*
X130505000Y-64291716I0J62500D01*
G01*
X130505000Y-63591716D01*
G75*
G02*
X130567500Y-63529216I62500J0D01*
G01*
X130692500Y-63529216D01*
G75*
G02*
X130755000Y-63591716I0J-62500D01*
G01*
X130755000Y-64291716D01*
G75*
G02*
X130692500Y-64354216I-62500J0D01*
G01*
G37*
G36*
G01*
X131192500Y-64354216D02*
X131067500Y-64354216D01*
G75*
G02*
X131005000Y-64291716I0J62500D01*
G01*
X131005000Y-63591716D01*
G75*
G02*
X131067500Y-63529216I62500J0D01*
G01*
X131192500Y-63529216D01*
G75*
G02*
X131255000Y-63591716I0J-62500D01*
G01*
X131255000Y-64291716D01*
G75*
G02*
X131192500Y-64354216I-62500J0D01*
G01*
G37*
G36*
G01*
X131692500Y-64354216D02*
X131567500Y-64354216D01*
G75*
G02*
X131505000Y-64291716I0J62500D01*
G01*
X131505000Y-63591716D01*
G75*
G02*
X131567500Y-63529216I62500J0D01*
G01*
X131692500Y-63529216D01*
G75*
G02*
X131755000Y-63591716I0J-62500D01*
G01*
X131755000Y-64291716D01*
G75*
G02*
X131692500Y-64354216I-62500J0D01*
G01*
G37*
G36*
G01*
X132192500Y-64354216D02*
X132067500Y-64354216D01*
G75*
G02*
X132005000Y-64291716I0J62500D01*
G01*
X132005000Y-63591716D01*
G75*
G02*
X132067500Y-63529216I62500J0D01*
G01*
X132192500Y-63529216D01*
G75*
G02*
X132255000Y-63591716I0J-62500D01*
G01*
X132255000Y-64291716D01*
G75*
G02*
X132192500Y-64354216I-62500J0D01*
G01*
G37*
G36*
G01*
X133167500Y-64754216D02*
X132467500Y-64754216D01*
G75*
G02*
X132405000Y-64691716I0J62500D01*
G01*
X132405000Y-64566716D01*
G75*
G02*
X132467500Y-64504216I62500J0D01*
G01*
X133167500Y-64504216D01*
G75*
G02*
X133230000Y-64566716I0J-62500D01*
G01*
X133230000Y-64691716D01*
G75*
G02*
X133167500Y-64754216I-62500J0D01*
G01*
G37*
G36*
G01*
X133167500Y-65254216D02*
X132467500Y-65254216D01*
G75*
G02*
X132405000Y-65191716I0J62500D01*
G01*
X132405000Y-65066716D01*
G75*
G02*
X132467500Y-65004216I62500J0D01*
G01*
X133167500Y-65004216D01*
G75*
G02*
X133230000Y-65066716I0J-62500D01*
G01*
X133230000Y-65191716D01*
G75*
G02*
X133167500Y-65254216I-62500J0D01*
G01*
G37*
G36*
G01*
X133167500Y-65754216D02*
X132467500Y-65754216D01*
G75*
G02*
X132405000Y-65691716I0J62500D01*
G01*
X132405000Y-65566716D01*
G75*
G02*
X132467500Y-65504216I62500J0D01*
G01*
X133167500Y-65504216D01*
G75*
G02*
X133230000Y-65566716I0J-62500D01*
G01*
X133230000Y-65691716D01*
G75*
G02*
X133167500Y-65754216I-62500J0D01*
G01*
G37*
G36*
G01*
X133167500Y-66254216D02*
X132467500Y-66254216D01*
G75*
G02*
X132405000Y-66191716I0J62500D01*
G01*
X132405000Y-66066716D01*
G75*
G02*
X132467500Y-66004216I62500J0D01*
G01*
X133167500Y-66004216D01*
G75*
G02*
X133230000Y-66066716I0J-62500D01*
G01*
X133230000Y-66191716D01*
G75*
G02*
X133167500Y-66254216I-62500J0D01*
G01*
G37*
G36*
G01*
X133167500Y-66754216D02*
X132467500Y-66754216D01*
G75*
G02*
X132405000Y-66691716I0J62500D01*
G01*
X132405000Y-66566716D01*
G75*
G02*
X132467500Y-66504216I62500J0D01*
G01*
X133167500Y-66504216D01*
G75*
G02*
X133230000Y-66566716I0J-62500D01*
G01*
X133230000Y-66691716D01*
G75*
G02*
X133167500Y-66754216I-62500J0D01*
G01*
G37*
G36*
G01*
X133167500Y-67254216D02*
X132467500Y-67254216D01*
G75*
G02*
X132405000Y-67191716I0J62500D01*
G01*
X132405000Y-67066716D01*
G75*
G02*
X132467500Y-67004216I62500J0D01*
G01*
X133167500Y-67004216D01*
G75*
G02*
X133230000Y-67066716I0J-62500D01*
G01*
X133230000Y-67191716D01*
G75*
G02*
X133167500Y-67254216I-62500J0D01*
G01*
G37*
G36*
G01*
X133167500Y-67754216D02*
X132467500Y-67754216D01*
G75*
G02*
X132405000Y-67691716I0J62500D01*
G01*
X132405000Y-67566716D01*
G75*
G02*
X132467500Y-67504216I62500J0D01*
G01*
X133167500Y-67504216D01*
G75*
G02*
X133230000Y-67566716I0J-62500D01*
G01*
X133230000Y-67691716D01*
G75*
G02*
X133167500Y-67754216I-62500J0D01*
G01*
G37*
G36*
G01*
X133167500Y-68254216D02*
X132467500Y-68254216D01*
G75*
G02*
X132405000Y-68191716I0J62500D01*
G01*
X132405000Y-68066716D01*
G75*
G02*
X132467500Y-68004216I62500J0D01*
G01*
X133167500Y-68004216D01*
G75*
G02*
X133230000Y-68066716I0J-62500D01*
G01*
X133230000Y-68191716D01*
G75*
G02*
X133167500Y-68254216I-62500J0D01*
G01*
G37*
G36*
G01*
X133167500Y-68754216D02*
X132467500Y-68754216D01*
G75*
G02*
X132405000Y-68691716I0J62500D01*
G01*
X132405000Y-68566716D01*
G75*
G02*
X132467500Y-68504216I62500J0D01*
G01*
X133167500Y-68504216D01*
G75*
G02*
X133230000Y-68566716I0J-62500D01*
G01*
X133230000Y-68691716D01*
G75*
G02*
X133167500Y-68754216I-62500J0D01*
G01*
G37*
G36*
G01*
X133167500Y-69254216D02*
X132467500Y-69254216D01*
G75*
G02*
X132405000Y-69191716I0J62500D01*
G01*
X132405000Y-69066716D01*
G75*
G02*
X132467500Y-69004216I62500J0D01*
G01*
X133167500Y-69004216D01*
G75*
G02*
X133230000Y-69066716I0J-62500D01*
G01*
X133230000Y-69191716D01*
G75*
G02*
X133167500Y-69254216I-62500J0D01*
G01*
G37*
G36*
G01*
X132192500Y-70229216D02*
X132067500Y-70229216D01*
G75*
G02*
X132005000Y-70166716I0J62500D01*
G01*
X132005000Y-69466716D01*
G75*
G02*
X132067500Y-69404216I62500J0D01*
G01*
X132192500Y-69404216D01*
G75*
G02*
X132255000Y-69466716I0J-62500D01*
G01*
X132255000Y-70166716D01*
G75*
G02*
X132192500Y-70229216I-62500J0D01*
G01*
G37*
G36*
G01*
X131692500Y-70229216D02*
X131567500Y-70229216D01*
G75*
G02*
X131505000Y-70166716I0J62500D01*
G01*
X131505000Y-69466716D01*
G75*
G02*
X131567500Y-69404216I62500J0D01*
G01*
X131692500Y-69404216D01*
G75*
G02*
X131755000Y-69466716I0J-62500D01*
G01*
X131755000Y-70166716D01*
G75*
G02*
X131692500Y-70229216I-62500J0D01*
G01*
G37*
G36*
G01*
X131192500Y-70229216D02*
X131067500Y-70229216D01*
G75*
G02*
X131005000Y-70166716I0J62500D01*
G01*
X131005000Y-69466716D01*
G75*
G02*
X131067500Y-69404216I62500J0D01*
G01*
X131192500Y-69404216D01*
G75*
G02*
X131255000Y-69466716I0J-62500D01*
G01*
X131255000Y-70166716D01*
G75*
G02*
X131192500Y-70229216I-62500J0D01*
G01*
G37*
G36*
G01*
X130692500Y-70229216D02*
X130567500Y-70229216D01*
G75*
G02*
X130505000Y-70166716I0J62500D01*
G01*
X130505000Y-69466716D01*
G75*
G02*
X130567500Y-69404216I62500J0D01*
G01*
X130692500Y-69404216D01*
G75*
G02*
X130755000Y-69466716I0J-62500D01*
G01*
X130755000Y-70166716D01*
G75*
G02*
X130692500Y-70229216I-62500J0D01*
G01*
G37*
G36*
G01*
X130192500Y-70229216D02*
X130067500Y-70229216D01*
G75*
G02*
X130005000Y-70166716I0J62500D01*
G01*
X130005000Y-69466716D01*
G75*
G02*
X130067500Y-69404216I62500J0D01*
G01*
X130192500Y-69404216D01*
G75*
G02*
X130255000Y-69466716I0J-62500D01*
G01*
X130255000Y-70166716D01*
G75*
G02*
X130192500Y-70229216I-62500J0D01*
G01*
G37*
G36*
G01*
X129692500Y-70229216D02*
X129567500Y-70229216D01*
G75*
G02*
X129505000Y-70166716I0J62500D01*
G01*
X129505000Y-69466716D01*
G75*
G02*
X129567500Y-69404216I62500J0D01*
G01*
X129692500Y-69404216D01*
G75*
G02*
X129755000Y-69466716I0J-62500D01*
G01*
X129755000Y-70166716D01*
G75*
G02*
X129692500Y-70229216I-62500J0D01*
G01*
G37*
G36*
G01*
X129192500Y-70229216D02*
X129067500Y-70229216D01*
G75*
G02*
X129005000Y-70166716I0J62500D01*
G01*
X129005000Y-69466716D01*
G75*
G02*
X129067500Y-69404216I62500J0D01*
G01*
X129192500Y-69404216D01*
G75*
G02*
X129255000Y-69466716I0J-62500D01*
G01*
X129255000Y-70166716D01*
G75*
G02*
X129192500Y-70229216I-62500J0D01*
G01*
G37*
G36*
G01*
X128692500Y-70229216D02*
X128567500Y-70229216D01*
G75*
G02*
X128505000Y-70166716I0J62500D01*
G01*
X128505000Y-69466716D01*
G75*
G02*
X128567500Y-69404216I62500J0D01*
G01*
X128692500Y-69404216D01*
G75*
G02*
X128755000Y-69466716I0J-62500D01*
G01*
X128755000Y-70166716D01*
G75*
G02*
X128692500Y-70229216I-62500J0D01*
G01*
G37*
G36*
G01*
X128192500Y-70229216D02*
X128067500Y-70229216D01*
G75*
G02*
X128005000Y-70166716I0J62500D01*
G01*
X128005000Y-69466716D01*
G75*
G02*
X128067500Y-69404216I62500J0D01*
G01*
X128192500Y-69404216D01*
G75*
G02*
X128255000Y-69466716I0J-62500D01*
G01*
X128255000Y-70166716D01*
G75*
G02*
X128192500Y-70229216I-62500J0D01*
G01*
G37*
G36*
G01*
X127692500Y-70229216D02*
X127567500Y-70229216D01*
G75*
G02*
X127505000Y-70166716I0J62500D01*
G01*
X127505000Y-69466716D01*
G75*
G02*
X127567500Y-69404216I62500J0D01*
G01*
X127692500Y-69404216D01*
G75*
G02*
X127755000Y-69466716I0J-62500D01*
G01*
X127755000Y-70166716D01*
G75*
G02*
X127692500Y-70229216I-62500J0D01*
G01*
G37*
%TD*%
%TO.C,C23*%
G36*
G01*
X84910000Y-75527500D02*
X84910000Y-75872500D01*
G75*
G02*
X84762500Y-76020000I-147500J0D01*
G01*
X84467500Y-76020000D01*
G75*
G02*
X84320000Y-75872500I0J147500D01*
G01*
X84320000Y-75527500D01*
G75*
G02*
X84467500Y-75380000I147500J0D01*
G01*
X84762500Y-75380000D01*
G75*
G02*
X84910000Y-75527500I0J-147500D01*
G01*
G37*
G36*
G01*
X85880000Y-75527500D02*
X85880000Y-75872500D01*
G75*
G02*
X85732500Y-76020000I-147500J0D01*
G01*
X85437500Y-76020000D01*
G75*
G02*
X85290000Y-75872500I0J147500D01*
G01*
X85290000Y-75527500D01*
G75*
G02*
X85437500Y-75380000I147500J0D01*
G01*
X85732500Y-75380000D01*
G75*
G02*
X85880000Y-75527500I0J-147500D01*
G01*
G37*
%TD*%
%TO.C,C22*%
G36*
G01*
X101177500Y-73600000D02*
X101522500Y-73600000D01*
G75*
G02*
X101670000Y-73747500I0J-147500D01*
G01*
X101670000Y-74042500D01*
G75*
G02*
X101522500Y-74190000I-147500J0D01*
G01*
X101177500Y-74190000D01*
G75*
G02*
X101030000Y-74042500I0J147500D01*
G01*
X101030000Y-73747500D01*
G75*
G02*
X101177500Y-73600000I147500J0D01*
G01*
G37*
G36*
G01*
X101177500Y-72630000D02*
X101522500Y-72630000D01*
G75*
G02*
X101670000Y-72777500I0J-147500D01*
G01*
X101670000Y-73072500D01*
G75*
G02*
X101522500Y-73220000I-147500J0D01*
G01*
X101177500Y-73220000D01*
G75*
G02*
X101030000Y-73072500I0J147500D01*
G01*
X101030000Y-72777500D01*
G75*
G02*
X101177500Y-72630000I147500J0D01*
G01*
G37*
%TD*%
%TO.C,R17*%
G36*
G01*
X125306250Y-59800000D02*
X124793750Y-59800000D01*
G75*
G02*
X124575000Y-59581250I0J218750D01*
G01*
X124575000Y-59143750D01*
G75*
G02*
X124793750Y-58925000I218750J0D01*
G01*
X125306250Y-58925000D01*
G75*
G02*
X125525000Y-59143750I0J-218750D01*
G01*
X125525000Y-59581250D01*
G75*
G02*
X125306250Y-59800000I-218750J0D01*
G01*
G37*
G36*
G01*
X125306250Y-61375000D02*
X124793750Y-61375000D01*
G75*
G02*
X124575000Y-61156250I0J218750D01*
G01*
X124575000Y-60718750D01*
G75*
G02*
X124793750Y-60500000I218750J0D01*
G01*
X125306250Y-60500000D01*
G75*
G02*
X125525000Y-60718750I0J-218750D01*
G01*
X125525000Y-61156250D01*
G75*
G02*
X125306250Y-61375000I-218750J0D01*
G01*
G37*
%TD*%
%TO.C,R16*%
G36*
G01*
X126906250Y-59800000D02*
X126393750Y-59800000D01*
G75*
G02*
X126175000Y-59581250I0J218750D01*
G01*
X126175000Y-59143750D01*
G75*
G02*
X126393750Y-58925000I218750J0D01*
G01*
X126906250Y-58925000D01*
G75*
G02*
X127125000Y-59143750I0J-218750D01*
G01*
X127125000Y-59581250D01*
G75*
G02*
X126906250Y-59800000I-218750J0D01*
G01*
G37*
G36*
G01*
X126906250Y-61375000D02*
X126393750Y-61375000D01*
G75*
G02*
X126175000Y-61156250I0J218750D01*
G01*
X126175000Y-60718750D01*
G75*
G02*
X126393750Y-60500000I218750J0D01*
G01*
X126906250Y-60500000D01*
G75*
G02*
X127125000Y-60718750I0J-218750D01*
G01*
X127125000Y-61156250D01*
G75*
G02*
X126906250Y-61375000I-218750J0D01*
G01*
G37*
%TD*%
%TO.C,R15*%
G36*
G01*
X128656250Y-59800000D02*
X128143750Y-59800000D01*
G75*
G02*
X127925000Y-59581250I0J218750D01*
G01*
X127925000Y-59143750D01*
G75*
G02*
X128143750Y-58925000I218750J0D01*
G01*
X128656250Y-58925000D01*
G75*
G02*
X128875000Y-59143750I0J-218750D01*
G01*
X128875000Y-59581250D01*
G75*
G02*
X128656250Y-59800000I-218750J0D01*
G01*
G37*
G36*
G01*
X128656250Y-61375000D02*
X128143750Y-61375000D01*
G75*
G02*
X127925000Y-61156250I0J218750D01*
G01*
X127925000Y-60718750D01*
G75*
G02*
X128143750Y-60500000I218750J0D01*
G01*
X128656250Y-60500000D01*
G75*
G02*
X128875000Y-60718750I0J-218750D01*
G01*
X128875000Y-61156250D01*
G75*
G02*
X128656250Y-61375000I-218750J0D01*
G01*
G37*
%TD*%
D14*
%TO.C,U4*%
X120550000Y-53200000D03*
X125400000Y-47650000D03*
X120550000Y-47650000D03*
X125400000Y-53200000D03*
D15*
X113825000Y-53825000D03*
X113825000Y-52125000D03*
X113825000Y-50425000D03*
X113825000Y-48725000D03*
X113825000Y-47025000D03*
%TD*%
D16*
%TO.C,U1*%
X94150000Y-61700000D03*
X89550000Y-61700000D03*
X91850000Y-61700000D03*
D17*
X91850000Y-68000000D03*
%TD*%
%TO.C,C16*%
G36*
G01*
X124370250Y-73673500D02*
X123857750Y-73673500D01*
G75*
G02*
X123639000Y-73454750I0J218750D01*
G01*
X123639000Y-73017250D01*
G75*
G02*
X123857750Y-72798500I218750J0D01*
G01*
X124370250Y-72798500D01*
G75*
G02*
X124589000Y-73017250I0J-218750D01*
G01*
X124589000Y-73454750D01*
G75*
G02*
X124370250Y-73673500I-218750J0D01*
G01*
G37*
G36*
G01*
X124370250Y-75248500D02*
X123857750Y-75248500D01*
G75*
G02*
X123639000Y-75029750I0J218750D01*
G01*
X123639000Y-74592250D01*
G75*
G02*
X123857750Y-74373500I218750J0D01*
G01*
X124370250Y-74373500D01*
G75*
G02*
X124589000Y-74592250I0J-218750D01*
G01*
X124589000Y-75029750D01*
G75*
G02*
X124370250Y-75248500I-218750J0D01*
G01*
G37*
%TD*%
%TO.C,R5*%
G36*
G01*
X101906250Y-69387500D02*
X101393750Y-69387500D01*
G75*
G02*
X101175000Y-69168750I0J218750D01*
G01*
X101175000Y-68731250D01*
G75*
G02*
X101393750Y-68512500I218750J0D01*
G01*
X101906250Y-68512500D01*
G75*
G02*
X102125000Y-68731250I0J-218750D01*
G01*
X102125000Y-69168750D01*
G75*
G02*
X101906250Y-69387500I-218750J0D01*
G01*
G37*
G36*
G01*
X101906250Y-70962500D02*
X101393750Y-70962500D01*
G75*
G02*
X101175000Y-70743750I0J218750D01*
G01*
X101175000Y-70306250D01*
G75*
G02*
X101393750Y-70087500I218750J0D01*
G01*
X101906250Y-70087500D01*
G75*
G02*
X102125000Y-70306250I0J-218750D01*
G01*
X102125000Y-70743750D01*
G75*
G02*
X101906250Y-70962500I-218750J0D01*
G01*
G37*
%TD*%
D18*
%TO.C,L1*%
X95450000Y-51150000D03*
X105350000Y-51150000D03*
%TD*%
D19*
%TO.C,D1*%
X117060000Y-58500000D03*
X112760000Y-58500000D03*
%TD*%
%TO.C,C14*%
G36*
G01*
X86750000Y-54300000D02*
X88750000Y-54300000D01*
G75*
G02*
X89000000Y-54550000I0J-250000D01*
G01*
X89000000Y-58050000D01*
G75*
G02*
X88750000Y-58300000I-250000J0D01*
G01*
X86750000Y-58300000D01*
G75*
G02*
X86500000Y-58050000I0J250000D01*
G01*
X86500000Y-54550000D01*
G75*
G02*
X86750000Y-54300000I250000J0D01*
G01*
G37*
G36*
G01*
X86750000Y-46300000D02*
X88750000Y-46300000D01*
G75*
G02*
X89000000Y-46550000I0J-250000D01*
G01*
X89000000Y-50050000D01*
G75*
G02*
X88750000Y-50300000I-250000J0D01*
G01*
X86750000Y-50300000D01*
G75*
G02*
X86500000Y-50050000I0J250000D01*
G01*
X86500000Y-46550000D01*
G75*
G02*
X86750000Y-46300000I250000J0D01*
G01*
G37*
%TD*%
%TO.C,C13*%
G36*
G01*
X133500000Y-52300000D02*
X135500000Y-52300000D01*
G75*
G02*
X135750000Y-52550000I0J-250000D01*
G01*
X135750000Y-56050000D01*
G75*
G02*
X135500000Y-56300000I-250000J0D01*
G01*
X133500000Y-56300000D01*
G75*
G02*
X133250000Y-56050000I0J250000D01*
G01*
X133250000Y-52550000D01*
G75*
G02*
X133500000Y-52300000I250000J0D01*
G01*
G37*
G36*
G01*
X133500000Y-44300000D02*
X135500000Y-44300000D01*
G75*
G02*
X135750000Y-44550000I0J-250000D01*
G01*
X135750000Y-48050000D01*
G75*
G02*
X135500000Y-48300000I-250000J0D01*
G01*
X133500000Y-48300000D01*
G75*
G02*
X133250000Y-48050000I0J250000D01*
G01*
X133250000Y-44550000D01*
G75*
G02*
X133500000Y-44300000I250000J0D01*
G01*
G37*
%TD*%
%TO.C,U3*%
G36*
G01*
X106250000Y-65025000D02*
X106250000Y-63625000D01*
G75*
G02*
X106325000Y-63550000I75000J0D01*
G01*
X106475000Y-63550000D01*
G75*
G02*
X106550000Y-63625000I0J-75000D01*
G01*
X106550000Y-65025000D01*
G75*
G02*
X106475000Y-65100000I-75000J0D01*
G01*
X106325000Y-65100000D01*
G75*
G02*
X106250000Y-65025000I0J75000D01*
G01*
G37*
G36*
G01*
X106750000Y-65025000D02*
X106750000Y-63625000D01*
G75*
G02*
X106825000Y-63550000I75000J0D01*
G01*
X106975000Y-63550000D01*
G75*
G02*
X107050000Y-63625000I0J-75000D01*
G01*
X107050000Y-65025000D01*
G75*
G02*
X106975000Y-65100000I-75000J0D01*
G01*
X106825000Y-65100000D01*
G75*
G02*
X106750000Y-65025000I0J75000D01*
G01*
G37*
G36*
G01*
X107250000Y-65025000D02*
X107250000Y-63625000D01*
G75*
G02*
X107325000Y-63550000I75000J0D01*
G01*
X107475000Y-63550000D01*
G75*
G02*
X107550000Y-63625000I0J-75000D01*
G01*
X107550000Y-65025000D01*
G75*
G02*
X107475000Y-65100000I-75000J0D01*
G01*
X107325000Y-65100000D01*
G75*
G02*
X107250000Y-65025000I0J75000D01*
G01*
G37*
G36*
G01*
X107750000Y-65025000D02*
X107750000Y-63625000D01*
G75*
G02*
X107825000Y-63550000I75000J0D01*
G01*
X107975000Y-63550000D01*
G75*
G02*
X108050000Y-63625000I0J-75000D01*
G01*
X108050000Y-65025000D01*
G75*
G02*
X107975000Y-65100000I-75000J0D01*
G01*
X107825000Y-65100000D01*
G75*
G02*
X107750000Y-65025000I0J75000D01*
G01*
G37*
G36*
G01*
X108250000Y-65025000D02*
X108250000Y-63625000D01*
G75*
G02*
X108325000Y-63550000I75000J0D01*
G01*
X108475000Y-63550000D01*
G75*
G02*
X108550000Y-63625000I0J-75000D01*
G01*
X108550000Y-65025000D01*
G75*
G02*
X108475000Y-65100000I-75000J0D01*
G01*
X108325000Y-65100000D01*
G75*
G02*
X108250000Y-65025000I0J75000D01*
G01*
G37*
G36*
G01*
X108750000Y-65025000D02*
X108750000Y-63625000D01*
G75*
G02*
X108825000Y-63550000I75000J0D01*
G01*
X108975000Y-63550000D01*
G75*
G02*
X109050000Y-63625000I0J-75000D01*
G01*
X109050000Y-65025000D01*
G75*
G02*
X108975000Y-65100000I-75000J0D01*
G01*
X108825000Y-65100000D01*
G75*
G02*
X108750000Y-65025000I0J75000D01*
G01*
G37*
G36*
G01*
X109250000Y-65025000D02*
X109250000Y-63625000D01*
G75*
G02*
X109325000Y-63550000I75000J0D01*
G01*
X109475000Y-63550000D01*
G75*
G02*
X109550000Y-63625000I0J-75000D01*
G01*
X109550000Y-65025000D01*
G75*
G02*
X109475000Y-65100000I-75000J0D01*
G01*
X109325000Y-65100000D01*
G75*
G02*
X109250000Y-65025000I0J75000D01*
G01*
G37*
G36*
G01*
X109750000Y-65025000D02*
X109750000Y-63625000D01*
G75*
G02*
X109825000Y-63550000I75000J0D01*
G01*
X109975000Y-63550000D01*
G75*
G02*
X110050000Y-63625000I0J-75000D01*
G01*
X110050000Y-65025000D01*
G75*
G02*
X109975000Y-65100000I-75000J0D01*
G01*
X109825000Y-65100000D01*
G75*
G02*
X109750000Y-65025000I0J75000D01*
G01*
G37*
G36*
G01*
X110250000Y-65025000D02*
X110250000Y-63625000D01*
G75*
G02*
X110325000Y-63550000I75000J0D01*
G01*
X110475000Y-63550000D01*
G75*
G02*
X110550000Y-63625000I0J-75000D01*
G01*
X110550000Y-65025000D01*
G75*
G02*
X110475000Y-65100000I-75000J0D01*
G01*
X110325000Y-65100000D01*
G75*
G02*
X110250000Y-65025000I0J75000D01*
G01*
G37*
G36*
G01*
X110750000Y-65025000D02*
X110750000Y-63625000D01*
G75*
G02*
X110825000Y-63550000I75000J0D01*
G01*
X110975000Y-63550000D01*
G75*
G02*
X111050000Y-63625000I0J-75000D01*
G01*
X111050000Y-65025000D01*
G75*
G02*
X110975000Y-65100000I-75000J0D01*
G01*
X110825000Y-65100000D01*
G75*
G02*
X110750000Y-65025000I0J75000D01*
G01*
G37*
G36*
G01*
X111250000Y-65025000D02*
X111250000Y-63625000D01*
G75*
G02*
X111325000Y-63550000I75000J0D01*
G01*
X111475000Y-63550000D01*
G75*
G02*
X111550000Y-63625000I0J-75000D01*
G01*
X111550000Y-65025000D01*
G75*
G02*
X111475000Y-65100000I-75000J0D01*
G01*
X111325000Y-65100000D01*
G75*
G02*
X111250000Y-65025000I0J75000D01*
G01*
G37*
G36*
G01*
X111750000Y-65025000D02*
X111750000Y-63625000D01*
G75*
G02*
X111825000Y-63550000I75000J0D01*
G01*
X111975000Y-63550000D01*
G75*
G02*
X112050000Y-63625000I0J-75000D01*
G01*
X112050000Y-65025000D01*
G75*
G02*
X111975000Y-65100000I-75000J0D01*
G01*
X111825000Y-65100000D01*
G75*
G02*
X111750000Y-65025000I0J75000D01*
G01*
G37*
G36*
G01*
X112250000Y-65025000D02*
X112250000Y-63625000D01*
G75*
G02*
X112325000Y-63550000I75000J0D01*
G01*
X112475000Y-63550000D01*
G75*
G02*
X112550000Y-63625000I0J-75000D01*
G01*
X112550000Y-65025000D01*
G75*
G02*
X112475000Y-65100000I-75000J0D01*
G01*
X112325000Y-65100000D01*
G75*
G02*
X112250000Y-65025000I0J75000D01*
G01*
G37*
G36*
G01*
X112750000Y-65025000D02*
X112750000Y-63625000D01*
G75*
G02*
X112825000Y-63550000I75000J0D01*
G01*
X112975000Y-63550000D01*
G75*
G02*
X113050000Y-63625000I0J-75000D01*
G01*
X113050000Y-65025000D01*
G75*
G02*
X112975000Y-65100000I-75000J0D01*
G01*
X112825000Y-65100000D01*
G75*
G02*
X112750000Y-65025000I0J75000D01*
G01*
G37*
G36*
G01*
X113250000Y-65025000D02*
X113250000Y-63625000D01*
G75*
G02*
X113325000Y-63550000I75000J0D01*
G01*
X113475000Y-63550000D01*
G75*
G02*
X113550000Y-63625000I0J-75000D01*
G01*
X113550000Y-65025000D01*
G75*
G02*
X113475000Y-65100000I-75000J0D01*
G01*
X113325000Y-65100000D01*
G75*
G02*
X113250000Y-65025000I0J75000D01*
G01*
G37*
G36*
G01*
X113750000Y-65025000D02*
X113750000Y-63625000D01*
G75*
G02*
X113825000Y-63550000I75000J0D01*
G01*
X113975000Y-63550000D01*
G75*
G02*
X114050000Y-63625000I0J-75000D01*
G01*
X114050000Y-65025000D01*
G75*
G02*
X113975000Y-65100000I-75000J0D01*
G01*
X113825000Y-65100000D01*
G75*
G02*
X113750000Y-65025000I0J75000D01*
G01*
G37*
G36*
G01*
X115050000Y-66325000D02*
X115050000Y-66175000D01*
G75*
G02*
X115125000Y-66100000I75000J0D01*
G01*
X116525000Y-66100000D01*
G75*
G02*
X116600000Y-66175000I0J-75000D01*
G01*
X116600000Y-66325000D01*
G75*
G02*
X116525000Y-66400000I-75000J0D01*
G01*
X115125000Y-66400000D01*
G75*
G02*
X115050000Y-66325000I0J75000D01*
G01*
G37*
G36*
G01*
X115050000Y-66825000D02*
X115050000Y-66675000D01*
G75*
G02*
X115125000Y-66600000I75000J0D01*
G01*
X116525000Y-66600000D01*
G75*
G02*
X116600000Y-66675000I0J-75000D01*
G01*
X116600000Y-66825000D01*
G75*
G02*
X116525000Y-66900000I-75000J0D01*
G01*
X115125000Y-66900000D01*
G75*
G02*
X115050000Y-66825000I0J75000D01*
G01*
G37*
G36*
G01*
X115050000Y-67325000D02*
X115050000Y-67175000D01*
G75*
G02*
X115125000Y-67100000I75000J0D01*
G01*
X116525000Y-67100000D01*
G75*
G02*
X116600000Y-67175000I0J-75000D01*
G01*
X116600000Y-67325000D01*
G75*
G02*
X116525000Y-67400000I-75000J0D01*
G01*
X115125000Y-67400000D01*
G75*
G02*
X115050000Y-67325000I0J75000D01*
G01*
G37*
G36*
G01*
X115050000Y-67825000D02*
X115050000Y-67675000D01*
G75*
G02*
X115125000Y-67600000I75000J0D01*
G01*
X116525000Y-67600000D01*
G75*
G02*
X116600000Y-67675000I0J-75000D01*
G01*
X116600000Y-67825000D01*
G75*
G02*
X116525000Y-67900000I-75000J0D01*
G01*
X115125000Y-67900000D01*
G75*
G02*
X115050000Y-67825000I0J75000D01*
G01*
G37*
G36*
G01*
X115050000Y-68325000D02*
X115050000Y-68175000D01*
G75*
G02*
X115125000Y-68100000I75000J0D01*
G01*
X116525000Y-68100000D01*
G75*
G02*
X116600000Y-68175000I0J-75000D01*
G01*
X116600000Y-68325000D01*
G75*
G02*
X116525000Y-68400000I-75000J0D01*
G01*
X115125000Y-68400000D01*
G75*
G02*
X115050000Y-68325000I0J75000D01*
G01*
G37*
G36*
G01*
X115050000Y-68825000D02*
X115050000Y-68675000D01*
G75*
G02*
X115125000Y-68600000I75000J0D01*
G01*
X116525000Y-68600000D01*
G75*
G02*
X116600000Y-68675000I0J-75000D01*
G01*
X116600000Y-68825000D01*
G75*
G02*
X116525000Y-68900000I-75000J0D01*
G01*
X115125000Y-68900000D01*
G75*
G02*
X115050000Y-68825000I0J75000D01*
G01*
G37*
G36*
G01*
X115050000Y-69325000D02*
X115050000Y-69175000D01*
G75*
G02*
X115125000Y-69100000I75000J0D01*
G01*
X116525000Y-69100000D01*
G75*
G02*
X116600000Y-69175000I0J-75000D01*
G01*
X116600000Y-69325000D01*
G75*
G02*
X116525000Y-69400000I-75000J0D01*
G01*
X115125000Y-69400000D01*
G75*
G02*
X115050000Y-69325000I0J75000D01*
G01*
G37*
G36*
G01*
X115050000Y-69825000D02*
X115050000Y-69675000D01*
G75*
G02*
X115125000Y-69600000I75000J0D01*
G01*
X116525000Y-69600000D01*
G75*
G02*
X116600000Y-69675000I0J-75000D01*
G01*
X116600000Y-69825000D01*
G75*
G02*
X116525000Y-69900000I-75000J0D01*
G01*
X115125000Y-69900000D01*
G75*
G02*
X115050000Y-69825000I0J75000D01*
G01*
G37*
G36*
G01*
X115050000Y-70325000D02*
X115050000Y-70175000D01*
G75*
G02*
X115125000Y-70100000I75000J0D01*
G01*
X116525000Y-70100000D01*
G75*
G02*
X116600000Y-70175000I0J-75000D01*
G01*
X116600000Y-70325000D01*
G75*
G02*
X116525000Y-70400000I-75000J0D01*
G01*
X115125000Y-70400000D01*
G75*
G02*
X115050000Y-70325000I0J75000D01*
G01*
G37*
G36*
G01*
X115050000Y-70825000D02*
X115050000Y-70675000D01*
G75*
G02*
X115125000Y-70600000I75000J0D01*
G01*
X116525000Y-70600000D01*
G75*
G02*
X116600000Y-70675000I0J-75000D01*
G01*
X116600000Y-70825000D01*
G75*
G02*
X116525000Y-70900000I-75000J0D01*
G01*
X115125000Y-70900000D01*
G75*
G02*
X115050000Y-70825000I0J75000D01*
G01*
G37*
G36*
G01*
X115050000Y-71325000D02*
X115050000Y-71175000D01*
G75*
G02*
X115125000Y-71100000I75000J0D01*
G01*
X116525000Y-71100000D01*
G75*
G02*
X116600000Y-71175000I0J-75000D01*
G01*
X116600000Y-71325000D01*
G75*
G02*
X116525000Y-71400000I-75000J0D01*
G01*
X115125000Y-71400000D01*
G75*
G02*
X115050000Y-71325000I0J75000D01*
G01*
G37*
G36*
G01*
X115050000Y-71825000D02*
X115050000Y-71675000D01*
G75*
G02*
X115125000Y-71600000I75000J0D01*
G01*
X116525000Y-71600000D01*
G75*
G02*
X116600000Y-71675000I0J-75000D01*
G01*
X116600000Y-71825000D01*
G75*
G02*
X116525000Y-71900000I-75000J0D01*
G01*
X115125000Y-71900000D01*
G75*
G02*
X115050000Y-71825000I0J75000D01*
G01*
G37*
G36*
G01*
X115050000Y-72325000D02*
X115050000Y-72175000D01*
G75*
G02*
X115125000Y-72100000I75000J0D01*
G01*
X116525000Y-72100000D01*
G75*
G02*
X116600000Y-72175000I0J-75000D01*
G01*
X116600000Y-72325000D01*
G75*
G02*
X116525000Y-72400000I-75000J0D01*
G01*
X115125000Y-72400000D01*
G75*
G02*
X115050000Y-72325000I0J75000D01*
G01*
G37*
G36*
G01*
X115050000Y-72825000D02*
X115050000Y-72675000D01*
G75*
G02*
X115125000Y-72600000I75000J0D01*
G01*
X116525000Y-72600000D01*
G75*
G02*
X116600000Y-72675000I0J-75000D01*
G01*
X116600000Y-72825000D01*
G75*
G02*
X116525000Y-72900000I-75000J0D01*
G01*
X115125000Y-72900000D01*
G75*
G02*
X115050000Y-72825000I0J75000D01*
G01*
G37*
G36*
G01*
X115050000Y-73325000D02*
X115050000Y-73175000D01*
G75*
G02*
X115125000Y-73100000I75000J0D01*
G01*
X116525000Y-73100000D01*
G75*
G02*
X116600000Y-73175000I0J-75000D01*
G01*
X116600000Y-73325000D01*
G75*
G02*
X116525000Y-73400000I-75000J0D01*
G01*
X115125000Y-73400000D01*
G75*
G02*
X115050000Y-73325000I0J75000D01*
G01*
G37*
G36*
G01*
X115050000Y-73825000D02*
X115050000Y-73675000D01*
G75*
G02*
X115125000Y-73600000I75000J0D01*
G01*
X116525000Y-73600000D01*
G75*
G02*
X116600000Y-73675000I0J-75000D01*
G01*
X116600000Y-73825000D01*
G75*
G02*
X116525000Y-73900000I-75000J0D01*
G01*
X115125000Y-73900000D01*
G75*
G02*
X115050000Y-73825000I0J75000D01*
G01*
G37*
G36*
G01*
X113750000Y-76375000D02*
X113750000Y-74975000D01*
G75*
G02*
X113825000Y-74900000I75000J0D01*
G01*
X113975000Y-74900000D01*
G75*
G02*
X114050000Y-74975000I0J-75000D01*
G01*
X114050000Y-76375000D01*
G75*
G02*
X113975000Y-76450000I-75000J0D01*
G01*
X113825000Y-76450000D01*
G75*
G02*
X113750000Y-76375000I0J75000D01*
G01*
G37*
G36*
G01*
X113250000Y-76375000D02*
X113250000Y-74975000D01*
G75*
G02*
X113325000Y-74900000I75000J0D01*
G01*
X113475000Y-74900000D01*
G75*
G02*
X113550000Y-74975000I0J-75000D01*
G01*
X113550000Y-76375000D01*
G75*
G02*
X113475000Y-76450000I-75000J0D01*
G01*
X113325000Y-76450000D01*
G75*
G02*
X113250000Y-76375000I0J75000D01*
G01*
G37*
G36*
G01*
X112750000Y-76375000D02*
X112750000Y-74975000D01*
G75*
G02*
X112825000Y-74900000I75000J0D01*
G01*
X112975000Y-74900000D01*
G75*
G02*
X113050000Y-74975000I0J-75000D01*
G01*
X113050000Y-76375000D01*
G75*
G02*
X112975000Y-76450000I-75000J0D01*
G01*
X112825000Y-76450000D01*
G75*
G02*
X112750000Y-76375000I0J75000D01*
G01*
G37*
G36*
G01*
X112250000Y-76375000D02*
X112250000Y-74975000D01*
G75*
G02*
X112325000Y-74900000I75000J0D01*
G01*
X112475000Y-74900000D01*
G75*
G02*
X112550000Y-74975000I0J-75000D01*
G01*
X112550000Y-76375000D01*
G75*
G02*
X112475000Y-76450000I-75000J0D01*
G01*
X112325000Y-76450000D01*
G75*
G02*
X112250000Y-76375000I0J75000D01*
G01*
G37*
G36*
G01*
X111750000Y-76375000D02*
X111750000Y-74975000D01*
G75*
G02*
X111825000Y-74900000I75000J0D01*
G01*
X111975000Y-74900000D01*
G75*
G02*
X112050000Y-74975000I0J-75000D01*
G01*
X112050000Y-76375000D01*
G75*
G02*
X111975000Y-76450000I-75000J0D01*
G01*
X111825000Y-76450000D01*
G75*
G02*
X111750000Y-76375000I0J75000D01*
G01*
G37*
G36*
G01*
X111250000Y-76375000D02*
X111250000Y-74975000D01*
G75*
G02*
X111325000Y-74900000I75000J0D01*
G01*
X111475000Y-74900000D01*
G75*
G02*
X111550000Y-74975000I0J-75000D01*
G01*
X111550000Y-76375000D01*
G75*
G02*
X111475000Y-76450000I-75000J0D01*
G01*
X111325000Y-76450000D01*
G75*
G02*
X111250000Y-76375000I0J75000D01*
G01*
G37*
G36*
G01*
X110750000Y-76375000D02*
X110750000Y-74975000D01*
G75*
G02*
X110825000Y-74900000I75000J0D01*
G01*
X110975000Y-74900000D01*
G75*
G02*
X111050000Y-74975000I0J-75000D01*
G01*
X111050000Y-76375000D01*
G75*
G02*
X110975000Y-76450000I-75000J0D01*
G01*
X110825000Y-76450000D01*
G75*
G02*
X110750000Y-76375000I0J75000D01*
G01*
G37*
G36*
G01*
X110250000Y-76375000D02*
X110250000Y-74975000D01*
G75*
G02*
X110325000Y-74900000I75000J0D01*
G01*
X110475000Y-74900000D01*
G75*
G02*
X110550000Y-74975000I0J-75000D01*
G01*
X110550000Y-76375000D01*
G75*
G02*
X110475000Y-76450000I-75000J0D01*
G01*
X110325000Y-76450000D01*
G75*
G02*
X110250000Y-76375000I0J75000D01*
G01*
G37*
G36*
G01*
X109750000Y-76375000D02*
X109750000Y-74975000D01*
G75*
G02*
X109825000Y-74900000I75000J0D01*
G01*
X109975000Y-74900000D01*
G75*
G02*
X110050000Y-74975000I0J-75000D01*
G01*
X110050000Y-76375000D01*
G75*
G02*
X109975000Y-76450000I-75000J0D01*
G01*
X109825000Y-76450000D01*
G75*
G02*
X109750000Y-76375000I0J75000D01*
G01*
G37*
G36*
G01*
X109250000Y-76375000D02*
X109250000Y-74975000D01*
G75*
G02*
X109325000Y-74900000I75000J0D01*
G01*
X109475000Y-74900000D01*
G75*
G02*
X109550000Y-74975000I0J-75000D01*
G01*
X109550000Y-76375000D01*
G75*
G02*
X109475000Y-76450000I-75000J0D01*
G01*
X109325000Y-76450000D01*
G75*
G02*
X109250000Y-76375000I0J75000D01*
G01*
G37*
G36*
G01*
X108750000Y-76375000D02*
X108750000Y-74975000D01*
G75*
G02*
X108825000Y-74900000I75000J0D01*
G01*
X108975000Y-74900000D01*
G75*
G02*
X109050000Y-74975000I0J-75000D01*
G01*
X109050000Y-76375000D01*
G75*
G02*
X108975000Y-76450000I-75000J0D01*
G01*
X108825000Y-76450000D01*
G75*
G02*
X108750000Y-76375000I0J75000D01*
G01*
G37*
G36*
G01*
X108250000Y-76375000D02*
X108250000Y-74975000D01*
G75*
G02*
X108325000Y-74900000I75000J0D01*
G01*
X108475000Y-74900000D01*
G75*
G02*
X108550000Y-74975000I0J-75000D01*
G01*
X108550000Y-76375000D01*
G75*
G02*
X108475000Y-76450000I-75000J0D01*
G01*
X108325000Y-76450000D01*
G75*
G02*
X108250000Y-76375000I0J75000D01*
G01*
G37*
G36*
G01*
X107750000Y-76375000D02*
X107750000Y-74975000D01*
G75*
G02*
X107825000Y-74900000I75000J0D01*
G01*
X107975000Y-74900000D01*
G75*
G02*
X108050000Y-74975000I0J-75000D01*
G01*
X108050000Y-76375000D01*
G75*
G02*
X107975000Y-76450000I-75000J0D01*
G01*
X107825000Y-76450000D01*
G75*
G02*
X107750000Y-76375000I0J75000D01*
G01*
G37*
G36*
G01*
X107250000Y-76375000D02*
X107250000Y-74975000D01*
G75*
G02*
X107325000Y-74900000I75000J0D01*
G01*
X107475000Y-74900000D01*
G75*
G02*
X107550000Y-74975000I0J-75000D01*
G01*
X107550000Y-76375000D01*
G75*
G02*
X107475000Y-76450000I-75000J0D01*
G01*
X107325000Y-76450000D01*
G75*
G02*
X107250000Y-76375000I0J75000D01*
G01*
G37*
G36*
G01*
X106750000Y-76375000D02*
X106750000Y-74975000D01*
G75*
G02*
X106825000Y-74900000I75000J0D01*
G01*
X106975000Y-74900000D01*
G75*
G02*
X107050000Y-74975000I0J-75000D01*
G01*
X107050000Y-76375000D01*
G75*
G02*
X106975000Y-76450000I-75000J0D01*
G01*
X106825000Y-76450000D01*
G75*
G02*
X106750000Y-76375000I0J75000D01*
G01*
G37*
G36*
G01*
X106250000Y-76375000D02*
X106250000Y-74975000D01*
G75*
G02*
X106325000Y-74900000I75000J0D01*
G01*
X106475000Y-74900000D01*
G75*
G02*
X106550000Y-74975000I0J-75000D01*
G01*
X106550000Y-76375000D01*
G75*
G02*
X106475000Y-76450000I-75000J0D01*
G01*
X106325000Y-76450000D01*
G75*
G02*
X106250000Y-76375000I0J75000D01*
G01*
G37*
G36*
G01*
X103700000Y-73825000D02*
X103700000Y-73675000D01*
G75*
G02*
X103775000Y-73600000I75000J0D01*
G01*
X105175000Y-73600000D01*
G75*
G02*
X105250000Y-73675000I0J-75000D01*
G01*
X105250000Y-73825000D01*
G75*
G02*
X105175000Y-73900000I-75000J0D01*
G01*
X103775000Y-73900000D01*
G75*
G02*
X103700000Y-73825000I0J75000D01*
G01*
G37*
G36*
G01*
X103700000Y-73325000D02*
X103700000Y-73175000D01*
G75*
G02*
X103775000Y-73100000I75000J0D01*
G01*
X105175000Y-73100000D01*
G75*
G02*
X105250000Y-73175000I0J-75000D01*
G01*
X105250000Y-73325000D01*
G75*
G02*
X105175000Y-73400000I-75000J0D01*
G01*
X103775000Y-73400000D01*
G75*
G02*
X103700000Y-73325000I0J75000D01*
G01*
G37*
G36*
G01*
X103700000Y-72825000D02*
X103700000Y-72675000D01*
G75*
G02*
X103775000Y-72600000I75000J0D01*
G01*
X105175000Y-72600000D01*
G75*
G02*
X105250000Y-72675000I0J-75000D01*
G01*
X105250000Y-72825000D01*
G75*
G02*
X105175000Y-72900000I-75000J0D01*
G01*
X103775000Y-72900000D01*
G75*
G02*
X103700000Y-72825000I0J75000D01*
G01*
G37*
G36*
G01*
X103700000Y-72325000D02*
X103700000Y-72175000D01*
G75*
G02*
X103775000Y-72100000I75000J0D01*
G01*
X105175000Y-72100000D01*
G75*
G02*
X105250000Y-72175000I0J-75000D01*
G01*
X105250000Y-72325000D01*
G75*
G02*
X105175000Y-72400000I-75000J0D01*
G01*
X103775000Y-72400000D01*
G75*
G02*
X103700000Y-72325000I0J75000D01*
G01*
G37*
G36*
G01*
X103700000Y-71825000D02*
X103700000Y-71675000D01*
G75*
G02*
X103775000Y-71600000I75000J0D01*
G01*
X105175000Y-71600000D01*
G75*
G02*
X105250000Y-71675000I0J-75000D01*
G01*
X105250000Y-71825000D01*
G75*
G02*
X105175000Y-71900000I-75000J0D01*
G01*
X103775000Y-71900000D01*
G75*
G02*
X103700000Y-71825000I0J75000D01*
G01*
G37*
G36*
G01*
X103700000Y-71325000D02*
X103700000Y-71175000D01*
G75*
G02*
X103775000Y-71100000I75000J0D01*
G01*
X105175000Y-71100000D01*
G75*
G02*
X105250000Y-71175000I0J-75000D01*
G01*
X105250000Y-71325000D01*
G75*
G02*
X105175000Y-71400000I-75000J0D01*
G01*
X103775000Y-71400000D01*
G75*
G02*
X103700000Y-71325000I0J75000D01*
G01*
G37*
G36*
G01*
X103700000Y-70825000D02*
X103700000Y-70675000D01*
G75*
G02*
X103775000Y-70600000I75000J0D01*
G01*
X105175000Y-70600000D01*
G75*
G02*
X105250000Y-70675000I0J-75000D01*
G01*
X105250000Y-70825000D01*
G75*
G02*
X105175000Y-70900000I-75000J0D01*
G01*
X103775000Y-70900000D01*
G75*
G02*
X103700000Y-70825000I0J75000D01*
G01*
G37*
G36*
G01*
X103700000Y-70325000D02*
X103700000Y-70175000D01*
G75*
G02*
X103775000Y-70100000I75000J0D01*
G01*
X105175000Y-70100000D01*
G75*
G02*
X105250000Y-70175000I0J-75000D01*
G01*
X105250000Y-70325000D01*
G75*
G02*
X105175000Y-70400000I-75000J0D01*
G01*
X103775000Y-70400000D01*
G75*
G02*
X103700000Y-70325000I0J75000D01*
G01*
G37*
G36*
G01*
X103700000Y-69825000D02*
X103700000Y-69675000D01*
G75*
G02*
X103775000Y-69600000I75000J0D01*
G01*
X105175000Y-69600000D01*
G75*
G02*
X105250000Y-69675000I0J-75000D01*
G01*
X105250000Y-69825000D01*
G75*
G02*
X105175000Y-69900000I-75000J0D01*
G01*
X103775000Y-69900000D01*
G75*
G02*
X103700000Y-69825000I0J75000D01*
G01*
G37*
G36*
G01*
X103700000Y-69325000D02*
X103700000Y-69175000D01*
G75*
G02*
X103775000Y-69100000I75000J0D01*
G01*
X105175000Y-69100000D01*
G75*
G02*
X105250000Y-69175000I0J-75000D01*
G01*
X105250000Y-69325000D01*
G75*
G02*
X105175000Y-69400000I-75000J0D01*
G01*
X103775000Y-69400000D01*
G75*
G02*
X103700000Y-69325000I0J75000D01*
G01*
G37*
G36*
G01*
X103700000Y-68825000D02*
X103700000Y-68675000D01*
G75*
G02*
X103775000Y-68600000I75000J0D01*
G01*
X105175000Y-68600000D01*
G75*
G02*
X105250000Y-68675000I0J-75000D01*
G01*
X105250000Y-68825000D01*
G75*
G02*
X105175000Y-68900000I-75000J0D01*
G01*
X103775000Y-68900000D01*
G75*
G02*
X103700000Y-68825000I0J75000D01*
G01*
G37*
G36*
G01*
X103700000Y-68325000D02*
X103700000Y-68175000D01*
G75*
G02*
X103775000Y-68100000I75000J0D01*
G01*
X105175000Y-68100000D01*
G75*
G02*
X105250000Y-68175000I0J-75000D01*
G01*
X105250000Y-68325000D01*
G75*
G02*
X105175000Y-68400000I-75000J0D01*
G01*
X103775000Y-68400000D01*
G75*
G02*
X103700000Y-68325000I0J75000D01*
G01*
G37*
G36*
G01*
X103700000Y-67825000D02*
X103700000Y-67675000D01*
G75*
G02*
X103775000Y-67600000I75000J0D01*
G01*
X105175000Y-67600000D01*
G75*
G02*
X105250000Y-67675000I0J-75000D01*
G01*
X105250000Y-67825000D01*
G75*
G02*
X105175000Y-67900000I-75000J0D01*
G01*
X103775000Y-67900000D01*
G75*
G02*
X103700000Y-67825000I0J75000D01*
G01*
G37*
G36*
G01*
X103700000Y-67325000D02*
X103700000Y-67175000D01*
G75*
G02*
X103775000Y-67100000I75000J0D01*
G01*
X105175000Y-67100000D01*
G75*
G02*
X105250000Y-67175000I0J-75000D01*
G01*
X105250000Y-67325000D01*
G75*
G02*
X105175000Y-67400000I-75000J0D01*
G01*
X103775000Y-67400000D01*
G75*
G02*
X103700000Y-67325000I0J75000D01*
G01*
G37*
G36*
G01*
X103700000Y-66825000D02*
X103700000Y-66675000D01*
G75*
G02*
X103775000Y-66600000I75000J0D01*
G01*
X105175000Y-66600000D01*
G75*
G02*
X105250000Y-66675000I0J-75000D01*
G01*
X105250000Y-66825000D01*
G75*
G02*
X105175000Y-66900000I-75000J0D01*
G01*
X103775000Y-66900000D01*
G75*
G02*
X103700000Y-66825000I0J75000D01*
G01*
G37*
G36*
G01*
X103700000Y-66325000D02*
X103700000Y-66175000D01*
G75*
G02*
X103775000Y-66100000I75000J0D01*
G01*
X105175000Y-66100000D01*
G75*
G02*
X105250000Y-66175000I0J-75000D01*
G01*
X105250000Y-66325000D01*
G75*
G02*
X105175000Y-66400000I-75000J0D01*
G01*
X103775000Y-66400000D01*
G75*
G02*
X103700000Y-66325000I0J75000D01*
G01*
G37*
%TD*%
%TO.C,R3*%
G36*
G01*
X111049750Y-79444000D02*
X111962250Y-79444000D01*
G75*
G02*
X112206000Y-79687750I0J-243750D01*
G01*
X112206000Y-80175250D01*
G75*
G02*
X111962250Y-80419000I-243750J0D01*
G01*
X111049750Y-80419000D01*
G75*
G02*
X110806000Y-80175250I0J243750D01*
G01*
X110806000Y-79687750D01*
G75*
G02*
X111049750Y-79444000I243750J0D01*
G01*
G37*
G36*
G01*
X111049750Y-77569000D02*
X111962250Y-77569000D01*
G75*
G02*
X112206000Y-77812750I0J-243750D01*
G01*
X112206000Y-78300250D01*
G75*
G02*
X111962250Y-78544000I-243750J0D01*
G01*
X111049750Y-78544000D01*
G75*
G02*
X110806000Y-78300250I0J243750D01*
G01*
X110806000Y-77812750D01*
G75*
G02*
X111049750Y-77569000I243750J0D01*
G01*
G37*
%TD*%
%TO.C,R2*%
G36*
G01*
X98864000Y-62535750D02*
X98864000Y-63448250D01*
G75*
G02*
X98620250Y-63692000I-243750J0D01*
G01*
X98132750Y-63692000D01*
G75*
G02*
X97889000Y-63448250I0J243750D01*
G01*
X97889000Y-62535750D01*
G75*
G02*
X98132750Y-62292000I243750J0D01*
G01*
X98620250Y-62292000D01*
G75*
G02*
X98864000Y-62535750I0J-243750D01*
G01*
G37*
G36*
G01*
X100739000Y-62535750D02*
X100739000Y-63448250D01*
G75*
G02*
X100495250Y-63692000I-243750J0D01*
G01*
X100007750Y-63692000D01*
G75*
G02*
X99764000Y-63448250I0J243750D01*
G01*
X99764000Y-62535750D01*
G75*
G02*
X100007750Y-62292000I243750J0D01*
G01*
X100495250Y-62292000D01*
G75*
G02*
X100739000Y-62535750I0J-243750D01*
G01*
G37*
%TD*%
%TO.C,R1*%
G36*
G01*
X90840000Y-72493750D02*
X90840000Y-73006250D01*
G75*
G02*
X90621250Y-73225000I-218750J0D01*
G01*
X90183750Y-73225000D01*
G75*
G02*
X89965000Y-73006250I0J218750D01*
G01*
X89965000Y-72493750D01*
G75*
G02*
X90183750Y-72275000I218750J0D01*
G01*
X90621250Y-72275000D01*
G75*
G02*
X90840000Y-72493750I0J-218750D01*
G01*
G37*
G36*
G01*
X92415000Y-72493750D02*
X92415000Y-73006250D01*
G75*
G02*
X92196250Y-73225000I-218750J0D01*
G01*
X91758750Y-73225000D01*
G75*
G02*
X91540000Y-73006250I0J218750D01*
G01*
X91540000Y-72493750D01*
G75*
G02*
X91758750Y-72275000I218750J0D01*
G01*
X92196250Y-72275000D01*
G75*
G02*
X92415000Y-72493750I0J-218750D01*
G01*
G37*
%TD*%
D20*
%TO.C,HSE1*%
X99850000Y-66750000D03*
X99850000Y-68950000D03*
X98150000Y-68950000D03*
X98150000Y-66750000D03*
%TD*%
%TO.C,D2*%
G36*
G01*
X93806250Y-71150000D02*
X93293750Y-71150000D01*
G75*
G02*
X93075000Y-70931250I0J218750D01*
G01*
X93075000Y-70493750D01*
G75*
G02*
X93293750Y-70275000I218750J0D01*
G01*
X93806250Y-70275000D01*
G75*
G02*
X94025000Y-70493750I0J-218750D01*
G01*
X94025000Y-70931250D01*
G75*
G02*
X93806250Y-71150000I-218750J0D01*
G01*
G37*
G36*
G01*
X93806250Y-72725000D02*
X93293750Y-72725000D01*
G75*
G02*
X93075000Y-72506250I0J218750D01*
G01*
X93075000Y-72068750D01*
G75*
G02*
X93293750Y-71850000I218750J0D01*
G01*
X93806250Y-71850000D01*
G75*
G02*
X94025000Y-72068750I0J-218750D01*
G01*
X94025000Y-72506250D01*
G75*
G02*
X93806250Y-72725000I-218750J0D01*
G01*
G37*
%TD*%
%TO.C,C21*%
G36*
G01*
X99060000Y-70427500D02*
X99060000Y-70772500D01*
G75*
G02*
X98912500Y-70920000I-147500J0D01*
G01*
X98617500Y-70920000D01*
G75*
G02*
X98470000Y-70772500I0J147500D01*
G01*
X98470000Y-70427500D01*
G75*
G02*
X98617500Y-70280000I147500J0D01*
G01*
X98912500Y-70280000D01*
G75*
G02*
X99060000Y-70427500I0J-147500D01*
G01*
G37*
G36*
G01*
X100030000Y-70427500D02*
X100030000Y-70772500D01*
G75*
G02*
X99882500Y-70920000I-147500J0D01*
G01*
X99587500Y-70920000D01*
G75*
G02*
X99440000Y-70772500I0J147500D01*
G01*
X99440000Y-70427500D01*
G75*
G02*
X99587500Y-70280000I147500J0D01*
G01*
X99882500Y-70280000D01*
G75*
G02*
X100030000Y-70427500I0J-147500D01*
G01*
G37*
%TD*%
%TO.C,C20*%
G36*
G01*
X99190000Y-65272500D02*
X99190000Y-64927500D01*
G75*
G02*
X99337500Y-64780000I147500J0D01*
G01*
X99632500Y-64780000D01*
G75*
G02*
X99780000Y-64927500I0J-147500D01*
G01*
X99780000Y-65272500D01*
G75*
G02*
X99632500Y-65420000I-147500J0D01*
G01*
X99337500Y-65420000D01*
G75*
G02*
X99190000Y-65272500I0J147500D01*
G01*
G37*
G36*
G01*
X98220000Y-65272500D02*
X98220000Y-64927500D01*
G75*
G02*
X98367500Y-64780000I147500J0D01*
G01*
X98662500Y-64780000D01*
G75*
G02*
X98810000Y-64927500I0J-147500D01*
G01*
X98810000Y-65272500D01*
G75*
G02*
X98662500Y-65420000I-147500J0D01*
G01*
X98367500Y-65420000D01*
G75*
G02*
X98220000Y-65272500I0J147500D01*
G01*
G37*
%TD*%
%TO.C,C19*%
G36*
G01*
X113143750Y-79150000D02*
X113656250Y-79150000D01*
G75*
G02*
X113875000Y-79368750I0J-218750D01*
G01*
X113875000Y-79806250D01*
G75*
G02*
X113656250Y-80025000I-218750J0D01*
G01*
X113143750Y-80025000D01*
G75*
G02*
X112925000Y-79806250I0J218750D01*
G01*
X112925000Y-79368750D01*
G75*
G02*
X113143750Y-79150000I218750J0D01*
G01*
G37*
G36*
G01*
X113143750Y-77575000D02*
X113656250Y-77575000D01*
G75*
G02*
X113875000Y-77793750I0J-218750D01*
G01*
X113875000Y-78231250D01*
G75*
G02*
X113656250Y-78450000I-218750J0D01*
G01*
X113143750Y-78450000D01*
G75*
G02*
X112925000Y-78231250I0J218750D01*
G01*
X112925000Y-77793750D01*
G75*
G02*
X113143750Y-77575000I218750J0D01*
G01*
G37*
%TD*%
%TO.C,C12*%
G36*
G01*
X107077500Y-78655000D02*
X107422500Y-78655000D01*
G75*
G02*
X107570000Y-78802500I0J-147500D01*
G01*
X107570000Y-79097500D01*
G75*
G02*
X107422500Y-79245000I-147500J0D01*
G01*
X107077500Y-79245000D01*
G75*
G02*
X106930000Y-79097500I0J147500D01*
G01*
X106930000Y-78802500D01*
G75*
G02*
X107077500Y-78655000I147500J0D01*
G01*
G37*
G36*
G01*
X107077500Y-77685000D02*
X107422500Y-77685000D01*
G75*
G02*
X107570000Y-77832500I0J-147500D01*
G01*
X107570000Y-78127500D01*
G75*
G02*
X107422500Y-78275000I-147500J0D01*
G01*
X107077500Y-78275000D01*
G75*
G02*
X106930000Y-78127500I0J147500D01*
G01*
X106930000Y-77832500D01*
G75*
G02*
X107077500Y-77685000I147500J0D01*
G01*
G37*
%TD*%
%TO.C,C11*%
G36*
G01*
X105877500Y-78640000D02*
X106222500Y-78640000D01*
G75*
G02*
X106370000Y-78787500I0J-147500D01*
G01*
X106370000Y-79082500D01*
G75*
G02*
X106222500Y-79230000I-147500J0D01*
G01*
X105877500Y-79230000D01*
G75*
G02*
X105730000Y-79082500I0J147500D01*
G01*
X105730000Y-78787500D01*
G75*
G02*
X105877500Y-78640000I147500J0D01*
G01*
G37*
G36*
G01*
X105877500Y-77670000D02*
X106222500Y-77670000D01*
G75*
G02*
X106370000Y-77817500I0J-147500D01*
G01*
X106370000Y-78112500D01*
G75*
G02*
X106222500Y-78260000I-147500J0D01*
G01*
X105877500Y-78260000D01*
G75*
G02*
X105730000Y-78112500I0J147500D01*
G01*
X105730000Y-77817500D01*
G75*
G02*
X105877500Y-77670000I147500J0D01*
G01*
G37*
%TD*%
%TO.C,C10*%
G36*
G01*
X114877500Y-76540000D02*
X115222500Y-76540000D01*
G75*
G02*
X115370000Y-76687500I0J-147500D01*
G01*
X115370000Y-76982500D01*
G75*
G02*
X115222500Y-77130000I-147500J0D01*
G01*
X114877500Y-77130000D01*
G75*
G02*
X114730000Y-76982500I0J147500D01*
G01*
X114730000Y-76687500D01*
G75*
G02*
X114877500Y-76540000I147500J0D01*
G01*
G37*
G36*
G01*
X114877500Y-75570000D02*
X115222500Y-75570000D01*
G75*
G02*
X115370000Y-75717500I0J-147500D01*
G01*
X115370000Y-76012500D01*
G75*
G02*
X115222500Y-76160000I-147500J0D01*
G01*
X114877500Y-76160000D01*
G75*
G02*
X114730000Y-76012500I0J147500D01*
G01*
X114730000Y-75717500D01*
G75*
G02*
X114877500Y-75570000I147500J0D01*
G01*
G37*
%TD*%
%TO.C,C9*%
G36*
G01*
X116077500Y-76540000D02*
X116422500Y-76540000D01*
G75*
G02*
X116570000Y-76687500I0J-147500D01*
G01*
X116570000Y-76982500D01*
G75*
G02*
X116422500Y-77130000I-147500J0D01*
G01*
X116077500Y-77130000D01*
G75*
G02*
X115930000Y-76982500I0J147500D01*
G01*
X115930000Y-76687500D01*
G75*
G02*
X116077500Y-76540000I147500J0D01*
G01*
G37*
G36*
G01*
X116077500Y-75570000D02*
X116422500Y-75570000D01*
G75*
G02*
X116570000Y-75717500I0J-147500D01*
G01*
X116570000Y-76012500D01*
G75*
G02*
X116422500Y-76160000I-147500J0D01*
G01*
X116077500Y-76160000D01*
G75*
G02*
X115930000Y-76012500I0J147500D01*
G01*
X115930000Y-75717500D01*
G75*
G02*
X116077500Y-75570000I147500J0D01*
G01*
G37*
%TD*%
%TO.C,C8*%
G36*
G01*
X116840000Y-65322500D02*
X116840000Y-64977500D01*
G75*
G02*
X116987500Y-64830000I147500J0D01*
G01*
X117282500Y-64830000D01*
G75*
G02*
X117430000Y-64977500I0J-147500D01*
G01*
X117430000Y-65322500D01*
G75*
G02*
X117282500Y-65470000I-147500J0D01*
G01*
X116987500Y-65470000D01*
G75*
G02*
X116840000Y-65322500I0J147500D01*
G01*
G37*
G36*
G01*
X115870000Y-65322500D02*
X115870000Y-64977500D01*
G75*
G02*
X116017500Y-64830000I147500J0D01*
G01*
X116312500Y-64830000D01*
G75*
G02*
X116460000Y-64977500I0J-147500D01*
G01*
X116460000Y-65322500D01*
G75*
G02*
X116312500Y-65470000I-147500J0D01*
G01*
X116017500Y-65470000D01*
G75*
G02*
X115870000Y-65322500I0J147500D01*
G01*
G37*
%TD*%
%TO.C,C7*%
G36*
G01*
X116840000Y-64222500D02*
X116840000Y-63877500D01*
G75*
G02*
X116987500Y-63730000I147500J0D01*
G01*
X117282500Y-63730000D01*
G75*
G02*
X117430000Y-63877500I0J-147500D01*
G01*
X117430000Y-64222500D01*
G75*
G02*
X117282500Y-64370000I-147500J0D01*
G01*
X116987500Y-64370000D01*
G75*
G02*
X116840000Y-64222500I0J147500D01*
G01*
G37*
G36*
G01*
X115870000Y-64222500D02*
X115870000Y-63877500D01*
G75*
G02*
X116017500Y-63730000I147500J0D01*
G01*
X116312500Y-63730000D01*
G75*
G02*
X116460000Y-63877500I0J-147500D01*
G01*
X116460000Y-64222500D01*
G75*
G02*
X116312500Y-64370000I-147500J0D01*
G01*
X116017500Y-64370000D01*
G75*
G02*
X115870000Y-64222500I0J147500D01*
G01*
G37*
%TD*%
%TO.C,C6*%
G36*
G01*
X105522500Y-63460000D02*
X105177500Y-63460000D01*
G75*
G02*
X105030000Y-63312500I0J147500D01*
G01*
X105030000Y-63017500D01*
G75*
G02*
X105177500Y-62870000I147500J0D01*
G01*
X105522500Y-62870000D01*
G75*
G02*
X105670000Y-63017500I0J-147500D01*
G01*
X105670000Y-63312500D01*
G75*
G02*
X105522500Y-63460000I-147500J0D01*
G01*
G37*
G36*
G01*
X105522500Y-64430000D02*
X105177500Y-64430000D01*
G75*
G02*
X105030000Y-64282500I0J147500D01*
G01*
X105030000Y-63987500D01*
G75*
G02*
X105177500Y-63840000I147500J0D01*
G01*
X105522500Y-63840000D01*
G75*
G02*
X105670000Y-63987500I0J-147500D01*
G01*
X105670000Y-64282500D01*
G75*
G02*
X105522500Y-64430000I-147500J0D01*
G01*
G37*
%TD*%
%TO.C,C5*%
G36*
G01*
X104372500Y-63460000D02*
X104027500Y-63460000D01*
G75*
G02*
X103880000Y-63312500I0J147500D01*
G01*
X103880000Y-63017500D01*
G75*
G02*
X104027500Y-62870000I147500J0D01*
G01*
X104372500Y-62870000D01*
G75*
G02*
X104520000Y-63017500I0J-147500D01*
G01*
X104520000Y-63312500D01*
G75*
G02*
X104372500Y-63460000I-147500J0D01*
G01*
G37*
G36*
G01*
X104372500Y-64430000D02*
X104027500Y-64430000D01*
G75*
G02*
X103880000Y-64282500I0J147500D01*
G01*
X103880000Y-63987500D01*
G75*
G02*
X104027500Y-63840000I147500J0D01*
G01*
X104372500Y-63840000D01*
G75*
G02*
X104520000Y-63987500I0J-147500D01*
G01*
X104520000Y-64282500D01*
G75*
G02*
X104372500Y-64430000I-147500J0D01*
G01*
G37*
%TD*%
%TO.C,C4*%
G36*
G01*
X102227500Y-73590000D02*
X102572500Y-73590000D01*
G75*
G02*
X102720000Y-73737500I0J-147500D01*
G01*
X102720000Y-74032500D01*
G75*
G02*
X102572500Y-74180000I-147500J0D01*
G01*
X102227500Y-74180000D01*
G75*
G02*
X102080000Y-74032500I0J147500D01*
G01*
X102080000Y-73737500D01*
G75*
G02*
X102227500Y-73590000I147500J0D01*
G01*
G37*
G36*
G01*
X102227500Y-72620000D02*
X102572500Y-72620000D01*
G75*
G02*
X102720000Y-72767500I0J-147500D01*
G01*
X102720000Y-73062500D01*
G75*
G02*
X102572500Y-73210000I-147500J0D01*
G01*
X102227500Y-73210000D01*
G75*
G02*
X102080000Y-73062500I0J147500D01*
G01*
X102080000Y-72767500D01*
G75*
G02*
X102227500Y-72620000I147500J0D01*
G01*
G37*
%TD*%
%TO.C,C3*%
G36*
G01*
X117293750Y-77200000D02*
X117806250Y-77200000D01*
G75*
G02*
X118025000Y-77418750I0J-218750D01*
G01*
X118025000Y-77856250D01*
G75*
G02*
X117806250Y-78075000I-218750J0D01*
G01*
X117293750Y-78075000D01*
G75*
G02*
X117075000Y-77856250I0J218750D01*
G01*
X117075000Y-77418750D01*
G75*
G02*
X117293750Y-77200000I218750J0D01*
G01*
G37*
G36*
G01*
X117293750Y-75625000D02*
X117806250Y-75625000D01*
G75*
G02*
X118025000Y-75843750I0J-218750D01*
G01*
X118025000Y-76281250D01*
G75*
G02*
X117806250Y-76500000I-218750J0D01*
G01*
X117293750Y-76500000D01*
G75*
G02*
X117075000Y-76281250I0J218750D01*
G01*
X117075000Y-75843750D01*
G75*
G02*
X117293750Y-75625000I218750J0D01*
G01*
G37*
%TD*%
%TO.C,C2*%
G36*
G01*
X90550000Y-70393750D02*
X90550000Y-71306250D01*
G75*
G02*
X90306250Y-71550000I-243750J0D01*
G01*
X89818750Y-71550000D01*
G75*
G02*
X89575000Y-71306250I0J243750D01*
G01*
X89575000Y-70393750D01*
G75*
G02*
X89818750Y-70150000I243750J0D01*
G01*
X90306250Y-70150000D01*
G75*
G02*
X90550000Y-70393750I0J-243750D01*
G01*
G37*
G36*
G01*
X92425000Y-70393750D02*
X92425000Y-71306250D01*
G75*
G02*
X92181250Y-71550000I-243750J0D01*
G01*
X91693750Y-71550000D01*
G75*
G02*
X91450000Y-71306250I0J243750D01*
G01*
X91450000Y-70393750D01*
G75*
G02*
X91693750Y-70150000I243750J0D01*
G01*
X92181250Y-70150000D01*
G75*
G02*
X92425000Y-70393750I0J-243750D01*
G01*
G37*
%TD*%
%TO.C,C1*%
G36*
G01*
X86643750Y-63200000D02*
X87556250Y-63200000D01*
G75*
G02*
X87800000Y-63443750I0J-243750D01*
G01*
X87800000Y-63931250D01*
G75*
G02*
X87556250Y-64175000I-243750J0D01*
G01*
X86643750Y-64175000D01*
G75*
G02*
X86400000Y-63931250I0J243750D01*
G01*
X86400000Y-63443750D01*
G75*
G02*
X86643750Y-63200000I243750J0D01*
G01*
G37*
G36*
G01*
X86643750Y-61325000D02*
X87556250Y-61325000D01*
G75*
G02*
X87800000Y-61568750I0J-243750D01*
G01*
X87800000Y-62056250D01*
G75*
G02*
X87556250Y-62300000I-243750J0D01*
G01*
X86643750Y-62300000D01*
G75*
G02*
X86400000Y-62056250I0J243750D01*
G01*
X86400000Y-61568750D01*
G75*
G02*
X86643750Y-61325000I243750J0D01*
G01*
G37*
%TD*%
%TO.C,R14*%
G36*
G01*
X142774999Y-50025000D02*
X145625001Y-50025000D01*
G75*
G02*
X145875000Y-50274999I0J-249999D01*
G01*
X145875000Y-51125001D01*
G75*
G02*
X145625001Y-51375000I-249999J0D01*
G01*
X142774999Y-51375000D01*
G75*
G02*
X142525000Y-51125001I0J249999D01*
G01*
X142525000Y-50274999D01*
G75*
G02*
X142774999Y-50025000I249999J0D01*
G01*
G37*
G36*
G01*
X142774999Y-44225000D02*
X145625001Y-44225000D01*
G75*
G02*
X145875000Y-44474999I0J-249999D01*
G01*
X145875000Y-45325001D01*
G75*
G02*
X145625001Y-45575000I-249999J0D01*
G01*
X142774999Y-45575000D01*
G75*
G02*
X142525000Y-45325001I0J249999D01*
G01*
X142525000Y-44474999D01*
G75*
G02*
X142774999Y-44225000I249999J0D01*
G01*
G37*
%TD*%
%TO.C,R13*%
G36*
G01*
X145725001Y-60975000D02*
X142874999Y-60975000D01*
G75*
G02*
X142625000Y-60725001I0J249999D01*
G01*
X142625000Y-59874999D01*
G75*
G02*
X142874999Y-59625000I249999J0D01*
G01*
X145725001Y-59625000D01*
G75*
G02*
X145975000Y-59874999I0J-249999D01*
G01*
X145975000Y-60725001D01*
G75*
G02*
X145725001Y-60975000I-249999J0D01*
G01*
G37*
G36*
G01*
X145725001Y-66775000D02*
X142874999Y-66775000D01*
G75*
G02*
X142625000Y-66525001I0J249999D01*
G01*
X142625000Y-65674999D01*
G75*
G02*
X142874999Y-65425000I249999J0D01*
G01*
X145725001Y-65425000D01*
G75*
G02*
X145975000Y-65674999I0J-249999D01*
G01*
X145975000Y-66525001D01*
G75*
G02*
X145725001Y-66775000I-249999J0D01*
G01*
G37*
%TD*%
%TO.C,R11*%
G36*
G01*
X138900000Y-60356250D02*
X138900000Y-59443750D01*
G75*
G02*
X139143750Y-59200000I243750J0D01*
G01*
X139631250Y-59200000D01*
G75*
G02*
X139875000Y-59443750I0J-243750D01*
G01*
X139875000Y-60356250D01*
G75*
G02*
X139631250Y-60600000I-243750J0D01*
G01*
X139143750Y-60600000D01*
G75*
G02*
X138900000Y-60356250I0J243750D01*
G01*
G37*
G36*
G01*
X137025000Y-60356250D02*
X137025000Y-59443750D01*
G75*
G02*
X137268750Y-59200000I243750J0D01*
G01*
X137756250Y-59200000D01*
G75*
G02*
X138000000Y-59443750I0J-243750D01*
G01*
X138000000Y-60356250D01*
G75*
G02*
X137756250Y-60600000I-243750J0D01*
G01*
X137268750Y-60600000D01*
G75*
G02*
X137025000Y-60356250I0J243750D01*
G01*
G37*
%TD*%
%TO.C,R10*%
G36*
G01*
X138850000Y-67856250D02*
X138850000Y-66943750D01*
G75*
G02*
X139093750Y-66700000I243750J0D01*
G01*
X139581250Y-66700000D01*
G75*
G02*
X139825000Y-66943750I0J-243750D01*
G01*
X139825000Y-67856250D01*
G75*
G02*
X139581250Y-68100000I-243750J0D01*
G01*
X139093750Y-68100000D01*
G75*
G02*
X138850000Y-67856250I0J243750D01*
G01*
G37*
G36*
G01*
X136975000Y-67856250D02*
X136975000Y-66943750D01*
G75*
G02*
X137218750Y-66700000I243750J0D01*
G01*
X137706250Y-66700000D01*
G75*
G02*
X137950000Y-66943750I0J-243750D01*
G01*
X137950000Y-67856250D01*
G75*
G02*
X137706250Y-68100000I-243750J0D01*
G01*
X137218750Y-68100000D01*
G75*
G02*
X136975000Y-67856250I0J243750D01*
G01*
G37*
%TD*%
%TO.C,R8*%
G36*
G01*
X138850000Y-62956250D02*
X138850000Y-62043750D01*
G75*
G02*
X139093750Y-61800000I243750J0D01*
G01*
X139581250Y-61800000D01*
G75*
G02*
X139825000Y-62043750I0J-243750D01*
G01*
X139825000Y-62956250D01*
G75*
G02*
X139581250Y-63200000I-243750J0D01*
G01*
X139093750Y-63200000D01*
G75*
G02*
X138850000Y-62956250I0J243750D01*
G01*
G37*
G36*
G01*
X136975000Y-62956250D02*
X136975000Y-62043750D01*
G75*
G02*
X137218750Y-61800000I243750J0D01*
G01*
X137706250Y-61800000D01*
G75*
G02*
X137950000Y-62043750I0J-243750D01*
G01*
X137950000Y-62956250D01*
G75*
G02*
X137706250Y-63200000I-243750J0D01*
G01*
X137218750Y-63200000D01*
G75*
G02*
X136975000Y-62956250I0J243750D01*
G01*
G37*
%TD*%
%TO.C,R7*%
G36*
G01*
X138850000Y-65306250D02*
X138850000Y-64393750D01*
G75*
G02*
X139093750Y-64150000I243750J0D01*
G01*
X139581250Y-64150000D01*
G75*
G02*
X139825000Y-64393750I0J-243750D01*
G01*
X139825000Y-65306250D01*
G75*
G02*
X139581250Y-65550000I-243750J0D01*
G01*
X139093750Y-65550000D01*
G75*
G02*
X138850000Y-65306250I0J243750D01*
G01*
G37*
G36*
G01*
X136975000Y-65306250D02*
X136975000Y-64393750D01*
G75*
G02*
X137218750Y-64150000I243750J0D01*
G01*
X137706250Y-64150000D01*
G75*
G02*
X137950000Y-64393750I0J-243750D01*
G01*
X137950000Y-65306250D01*
G75*
G02*
X137706250Y-65550000I-243750J0D01*
G01*
X137218750Y-65550000D01*
G75*
G02*
X136975000Y-65306250I0J243750D01*
G01*
G37*
%TD*%
%TO.C,R4*%
G36*
G01*
X129793750Y-60500000D02*
X130306250Y-60500000D01*
G75*
G02*
X130525000Y-60718750I0J-218750D01*
G01*
X130525000Y-61156250D01*
G75*
G02*
X130306250Y-61375000I-218750J0D01*
G01*
X129793750Y-61375000D01*
G75*
G02*
X129575000Y-61156250I0J218750D01*
G01*
X129575000Y-60718750D01*
G75*
G02*
X129793750Y-60500000I218750J0D01*
G01*
G37*
G36*
G01*
X129793750Y-58925000D02*
X130306250Y-58925000D01*
G75*
G02*
X130525000Y-59143750I0J-218750D01*
G01*
X130525000Y-59581250D01*
G75*
G02*
X130306250Y-59800000I-218750J0D01*
G01*
X129793750Y-59800000D01*
G75*
G02*
X129575000Y-59581250I0J218750D01*
G01*
X129575000Y-59143750D01*
G75*
G02*
X129793750Y-58925000I218750J0D01*
G01*
G37*
%TD*%
%TO.C,R12*%
G36*
G01*
X142774999Y-76825000D02*
X145625001Y-76825000D01*
G75*
G02*
X145875000Y-77074999I0J-249999D01*
G01*
X145875000Y-77925001D01*
G75*
G02*
X145625001Y-78175000I-249999J0D01*
G01*
X142774999Y-78175000D01*
G75*
G02*
X142525000Y-77925001I0J249999D01*
G01*
X142525000Y-77074999D01*
G75*
G02*
X142774999Y-76825000I249999J0D01*
G01*
G37*
G36*
G01*
X142774999Y-71025000D02*
X145625001Y-71025000D01*
G75*
G02*
X145875000Y-71274999I0J-249999D01*
G01*
X145875000Y-72125001D01*
G75*
G02*
X145625001Y-72375000I-249999J0D01*
G01*
X142774999Y-72375000D01*
G75*
G02*
X142525000Y-72125001I0J249999D01*
G01*
X142525000Y-71274999D01*
G75*
G02*
X142774999Y-71025000I249999J0D01*
G01*
G37*
%TD*%
%TO.C,C18*%
G36*
G01*
X125650000Y-71043750D02*
X125650000Y-71556250D01*
G75*
G02*
X125431250Y-71775000I-218750J0D01*
G01*
X124993750Y-71775000D01*
G75*
G02*
X124775000Y-71556250I0J218750D01*
G01*
X124775000Y-71043750D01*
G75*
G02*
X124993750Y-70825000I218750J0D01*
G01*
X125431250Y-70825000D01*
G75*
G02*
X125650000Y-71043750I0J-218750D01*
G01*
G37*
G36*
G01*
X127225000Y-71043750D02*
X127225000Y-71556250D01*
G75*
G02*
X127006250Y-71775000I-218750J0D01*
G01*
X126568750Y-71775000D01*
G75*
G02*
X126350000Y-71556250I0J218750D01*
G01*
X126350000Y-71043750D01*
G75*
G02*
X126568750Y-70825000I218750J0D01*
G01*
X127006250Y-70825000D01*
G75*
G02*
X127225000Y-71043750I0J-218750D01*
G01*
G37*
%TD*%
%TO.C,C17*%
G36*
G01*
X128058500Y-72661750D02*
X128058500Y-73174250D01*
G75*
G02*
X127839750Y-73393000I-218750J0D01*
G01*
X127402250Y-73393000D01*
G75*
G02*
X127183500Y-73174250I0J218750D01*
G01*
X127183500Y-72661750D01*
G75*
G02*
X127402250Y-72443000I218750J0D01*
G01*
X127839750Y-72443000D01*
G75*
G02*
X128058500Y-72661750I0J-218750D01*
G01*
G37*
G36*
G01*
X129633500Y-72661750D02*
X129633500Y-73174250D01*
G75*
G02*
X129414750Y-73393000I-218750J0D01*
G01*
X128977250Y-73393000D01*
G75*
G02*
X128758500Y-73174250I0J218750D01*
G01*
X128758500Y-72661750D01*
G75*
G02*
X128977250Y-72443000I218750J0D01*
G01*
X129414750Y-72443000D01*
G75*
G02*
X129633500Y-72661750I0J-218750D01*
G01*
G37*
%TD*%
%TO.C,R6*%
G36*
G01*
X135350000Y-74756250D02*
X135350000Y-73843750D01*
G75*
G02*
X135593750Y-73600000I243750J0D01*
G01*
X136081250Y-73600000D01*
G75*
G02*
X136325000Y-73843750I0J-243750D01*
G01*
X136325000Y-74756250D01*
G75*
G02*
X136081250Y-75000000I-243750J0D01*
G01*
X135593750Y-75000000D01*
G75*
G02*
X135350000Y-74756250I0J243750D01*
G01*
G37*
G36*
G01*
X133475000Y-74756250D02*
X133475000Y-73843750D01*
G75*
G02*
X133718750Y-73600000I243750J0D01*
G01*
X134206250Y-73600000D01*
G75*
G02*
X134450000Y-73843750I0J-243750D01*
G01*
X134450000Y-74756250D01*
G75*
G02*
X134206250Y-75000000I-243750J0D01*
G01*
X133718750Y-75000000D01*
G75*
G02*
X133475000Y-74756250I0J243750D01*
G01*
G37*
%TD*%
%TO.C,C15*%
G36*
G01*
X126148250Y-73658500D02*
X125635750Y-73658500D01*
G75*
G02*
X125417000Y-73439750I0J218750D01*
G01*
X125417000Y-73002250D01*
G75*
G02*
X125635750Y-72783500I218750J0D01*
G01*
X126148250Y-72783500D01*
G75*
G02*
X126367000Y-73002250I0J-218750D01*
G01*
X126367000Y-73439750D01*
G75*
G02*
X126148250Y-73658500I-218750J0D01*
G01*
G37*
G36*
G01*
X126148250Y-75233500D02*
X125635750Y-75233500D01*
G75*
G02*
X125417000Y-75014750I0J218750D01*
G01*
X125417000Y-74577250D01*
G75*
G02*
X125635750Y-74358500I218750J0D01*
G01*
X126148250Y-74358500D01*
G75*
G02*
X126367000Y-74577250I0J-218750D01*
G01*
X126367000Y-75014750D01*
G75*
G02*
X126148250Y-75233500I-218750J0D01*
G01*
G37*
%TD*%
M02*
