%TF.GenerationSoftware,KiCad,Pcbnew,(5.1.6)-1*%
%TF.CreationDate,2021-03-31T23:30:28+02:00*%
%TF.ProjectId,DRIVER_8323_based,44524956-4552-45f3-9833-32335f626173,rev?*%
%TF.SameCoordinates,Original*%
%TF.FileFunction,Soldermask,Bot*%
%TF.FilePolarity,Negative*%
%FSLAX46Y46*%
G04 Gerber Fmt 4.6, Leading zero omitted, Abs format (unit mm)*
G04 Created by KiCad (PCBNEW (5.1.6)-1) date 2021-03-31 23:30:28*
%MOMM*%
%LPD*%
G01*
G04 APERTURE LIST*
%ADD10O,1.800000X1.800000*%
%ADD11R,1.800000X1.800000*%
%ADD12C,3.900000*%
%ADD13C,5.500000*%
G04 APERTURE END LIST*
%TO.C,C26*%
G36*
G01*
X146225000Y-51195000D02*
X146225000Y-52505000D01*
G75*
G02*
X145955000Y-52775000I-270000J0D01*
G01*
X145145000Y-52775000D01*
G75*
G02*
X144875000Y-52505000I0J270000D01*
G01*
X144875000Y-51195000D01*
G75*
G02*
X145145000Y-50925000I270000J0D01*
G01*
X145955000Y-50925000D01*
G75*
G02*
X146225000Y-51195000I0J-270000D01*
G01*
G37*
G36*
G01*
X149025000Y-51195000D02*
X149025000Y-52505000D01*
G75*
G02*
X148755000Y-52775000I-270000J0D01*
G01*
X147945000Y-52775000D01*
G75*
G02*
X147675000Y-52505000I0J270000D01*
G01*
X147675000Y-51195000D01*
G75*
G02*
X147945000Y-50925000I270000J0D01*
G01*
X148755000Y-50925000D01*
G75*
G02*
X149025000Y-51195000I0J-270000D01*
G01*
G37*
%TD*%
%TO.C,C25*%
G36*
G01*
X146175000Y-80445000D02*
X146175000Y-81755000D01*
G75*
G02*
X145905000Y-82025000I-270000J0D01*
G01*
X145095000Y-82025000D01*
G75*
G02*
X144825000Y-81755000I0J270000D01*
G01*
X144825000Y-80445000D01*
G75*
G02*
X145095000Y-80175000I270000J0D01*
G01*
X145905000Y-80175000D01*
G75*
G02*
X146175000Y-80445000I0J-270000D01*
G01*
G37*
G36*
G01*
X148975000Y-80445000D02*
X148975000Y-81755000D01*
G75*
G02*
X148705000Y-82025000I-270000J0D01*
G01*
X147895000Y-82025000D01*
G75*
G02*
X147625000Y-81755000I0J270000D01*
G01*
X147625000Y-80445000D01*
G75*
G02*
X147895000Y-80175000I270000J0D01*
G01*
X148705000Y-80175000D01*
G75*
G02*
X148975000Y-80445000I0J-270000D01*
G01*
G37*
%TD*%
%TO.C,C24*%
G36*
G01*
X146375000Y-57495000D02*
X146375000Y-58805000D01*
G75*
G02*
X146105000Y-59075000I-270000J0D01*
G01*
X145295000Y-59075000D01*
G75*
G02*
X145025000Y-58805000I0J270000D01*
G01*
X145025000Y-57495000D01*
G75*
G02*
X145295000Y-57225000I270000J0D01*
G01*
X146105000Y-57225000D01*
G75*
G02*
X146375000Y-57495000I0J-270000D01*
G01*
G37*
G36*
G01*
X149175000Y-57495000D02*
X149175000Y-58805000D01*
G75*
G02*
X148905000Y-59075000I-270000J0D01*
G01*
X148095000Y-59075000D01*
G75*
G02*
X147825000Y-58805000I0J270000D01*
G01*
X147825000Y-57495000D01*
G75*
G02*
X148095000Y-57225000I270000J0D01*
G01*
X148905000Y-57225000D01*
G75*
G02*
X149175000Y-57495000I0J-270000D01*
G01*
G37*
%TD*%
D10*
%TO.C,J6*%
X84000000Y-64260000D03*
D11*
X84000000Y-66800000D03*
%TD*%
D10*
%TO.C,J2*%
X84000000Y-70560000D03*
D11*
X84000000Y-73100000D03*
%TD*%
D10*
%TO.C,J5*%
X83990000Y-80640000D03*
X83990000Y-78100000D03*
X86530000Y-80640000D03*
X86530000Y-78100000D03*
X89070000Y-80640000D03*
X89070000Y-78100000D03*
X91610000Y-80640000D03*
X91610000Y-78100000D03*
X94150000Y-80640000D03*
D11*
X94150000Y-78100000D03*
%TD*%
D10*
%TO.C,J3*%
X98060000Y-80740000D03*
X98060000Y-78200000D03*
X100600000Y-80740000D03*
D11*
X100600000Y-78200000D03*
%TD*%
D10*
%TO.C,J1*%
X123410000Y-80800000D03*
X123410000Y-78260000D03*
X125950000Y-80800000D03*
D11*
X125950000Y-78260000D03*
%TD*%
D12*
%TO.C,H7*%
X101100000Y-44600000D03*
%TD*%
%TO.C,H6*%
X93700000Y-44600000D03*
%TD*%
D13*
%TO.C,H5*%
X159000000Y-50250000D03*
%TD*%
%TO.C,H4*%
X159000000Y-62500000D03*
%TD*%
%TO.C,H3*%
X159000000Y-75000000D03*
%TD*%
%TO.C,H2*%
X140700000Y-85200000D03*
%TD*%
%TO.C,H1*%
X150700000Y-85200000D03*
%TD*%
%TO.C,J14*%
G36*
G01*
X150550000Y-47825000D02*
X150550000Y-45775000D01*
G75*
G02*
X151575000Y-44750000I1025000J0D01*
G01*
X153625000Y-44750000D01*
G75*
G02*
X154650000Y-45775000I0J-1025000D01*
G01*
X154650000Y-47825000D01*
G75*
G02*
X153625000Y-48850000I-1025000J0D01*
G01*
X151575000Y-48850000D01*
G75*
G02*
X150550000Y-47825000I0J1025000D01*
G01*
G37*
%TD*%
%TO.C,J13*%
G36*
G01*
X150550000Y-66425000D02*
X150550000Y-64375000D01*
G75*
G02*
X151575000Y-63350000I1025000J0D01*
G01*
X153625000Y-63350000D01*
G75*
G02*
X154650000Y-64375000I0J-1025000D01*
G01*
X154650000Y-66425000D01*
G75*
G02*
X153625000Y-67450000I-1025000J0D01*
G01*
X151575000Y-67450000D01*
G75*
G02*
X150550000Y-66425000I0J1025000D01*
G01*
G37*
%TD*%
%TO.C,J12*%
G36*
G01*
X150150000Y-73025000D02*
X150150000Y-70975000D01*
G75*
G02*
X151175000Y-69950000I1025000J0D01*
G01*
X153225000Y-69950000D01*
G75*
G02*
X154250000Y-70975000I0J-1025000D01*
G01*
X154250000Y-73025000D01*
G75*
G02*
X153225000Y-74050000I-1025000J0D01*
G01*
X151175000Y-74050000D01*
G75*
G02*
X150150000Y-73025000I0J1025000D01*
G01*
G37*
%TD*%
%TO.C,J11*%
G36*
G01*
X147950000Y-54025000D02*
X147950000Y-51975000D01*
G75*
G02*
X148975000Y-50950000I1025000J0D01*
G01*
X151025000Y-50950000D01*
G75*
G02*
X152050000Y-51975000I0J-1025000D01*
G01*
X152050000Y-54025000D01*
G75*
G02*
X151025000Y-55050000I-1025000J0D01*
G01*
X148975000Y-55050000D01*
G75*
G02*
X147950000Y-54025000I0J1025000D01*
G01*
G37*
%TD*%
%TO.C,J10*%
G36*
G01*
X151125000Y-80850000D02*
X149075000Y-80850000D01*
G75*
G02*
X148050000Y-79825000I0J1025000D01*
G01*
X148050000Y-77775000D01*
G75*
G02*
X149075000Y-76750000I1025000J0D01*
G01*
X151125000Y-76750000D01*
G75*
G02*
X152150000Y-77775000I0J-1025000D01*
G01*
X152150000Y-79825000D01*
G75*
G02*
X151125000Y-80850000I-1025000J0D01*
G01*
G37*
%TD*%
%TO.C,J9*%
G36*
G01*
X148150000Y-60425000D02*
X148150000Y-58375000D01*
G75*
G02*
X149175000Y-57350000I1025000J0D01*
G01*
X151225000Y-57350000D01*
G75*
G02*
X152250000Y-58375000I0J-1025000D01*
G01*
X152250000Y-60425000D01*
G75*
G02*
X151225000Y-61450000I-1025000J0D01*
G01*
X149175000Y-61450000D01*
G75*
G02*
X148150000Y-60425000I0J1025000D01*
G01*
G37*
%TD*%
M02*
