%TF.GenerationSoftware,KiCad,Pcbnew,(5.1.6)-1*%
%TF.CreationDate,2021-03-31T23:30:28+02:00*%
%TF.ProjectId,DRIVER_8323_based,44524956-4552-45f3-9833-32335f626173,rev?*%
%TF.SameCoordinates,Original*%
%TF.FileFunction,Soldermask,Top*%
%TF.FilePolarity,Negative*%
%FSLAX46Y46*%
G04 Gerber Fmt 4.6, Leading zero omitted, Abs format (unit mm)*
G04 Created by KiCad (PCBNEW (5.1.6)-1) date 2021-03-31 23:30:28*
%MOMM*%
%LPD*%
G01*
G04 APERTURE LIST*
%ADD10C,0.100000*%
%ADD11R,0.950000X0.600000*%
%ADD12O,1.800000X1.800000*%
%ADD13R,1.800000X1.800000*%
%ADD14C,3.900000*%
%ADD15C,5.500000*%
%ADD16R,4.250000X4.250000*%
%ADD17R,9.500000X10.900000*%
%ADD18R,4.700000X1.200000*%
%ADD19R,1.600000X2.100000*%
%ADD20R,3.900000X2.100000*%
%ADD21R,3.000000X5.500000*%
%ADD22R,2.600000X2.400000*%
%ADD23R,1.300000X1.500000*%
G04 APERTURE END LIST*
D10*
%TO.C,Q6*%
G36*
X154700000Y-45120000D02*
G01*
X153900000Y-45120000D01*
X153900000Y-45790000D01*
X154700000Y-45790000D01*
X154700000Y-46390000D01*
X153900000Y-46390000D01*
X153900000Y-47060000D01*
X154700000Y-47060000D01*
X154700000Y-47660000D01*
X153900000Y-47660000D01*
X153900000Y-48330000D01*
X154700000Y-48330000D01*
X154700000Y-48930000D01*
X150150000Y-48930000D01*
X150150000Y-44520000D01*
X154700000Y-44520000D01*
X154700000Y-45120000D01*
G37*
D11*
X148475000Y-48630000D03*
X148475000Y-47360000D03*
X148475000Y-46090000D03*
X148475000Y-44820000D03*
%TD*%
D10*
%TO.C,Q5*%
G36*
X154800000Y-63795000D02*
G01*
X154000000Y-63795000D01*
X154000000Y-64465000D01*
X154800000Y-64465000D01*
X154800000Y-65065000D01*
X154000000Y-65065000D01*
X154000000Y-65735000D01*
X154800000Y-65735000D01*
X154800000Y-66335000D01*
X154000000Y-66335000D01*
X154000000Y-67005000D01*
X154800000Y-67005000D01*
X154800000Y-67605000D01*
X150250000Y-67605000D01*
X150250000Y-63195000D01*
X154800000Y-63195000D01*
X154800000Y-63795000D01*
G37*
D11*
X148575000Y-67305000D03*
X148575000Y-66035000D03*
X148575000Y-64765000D03*
X148575000Y-63495000D03*
%TD*%
D10*
%TO.C,Q4*%
G36*
X154775000Y-70745000D02*
G01*
X153975000Y-70745000D01*
X153975000Y-71415000D01*
X154775000Y-71415000D01*
X154775000Y-72015000D01*
X153975000Y-72015000D01*
X153975000Y-72685000D01*
X154775000Y-72685000D01*
X154775000Y-73285000D01*
X153975000Y-73285000D01*
X153975000Y-73955000D01*
X154775000Y-73955000D01*
X154775000Y-74555000D01*
X150225000Y-74555000D01*
X150225000Y-70145000D01*
X154775000Y-70145000D01*
X154775000Y-70745000D01*
G37*
D11*
X148550000Y-74255000D03*
X148550000Y-72985000D03*
X148550000Y-71715000D03*
X148550000Y-70445000D03*
%TD*%
D10*
%TO.C,Q3*%
G36*
X148075000Y-54680000D02*
G01*
X148875000Y-54680000D01*
X148875000Y-54010000D01*
X148075000Y-54010000D01*
X148075000Y-53410000D01*
X148875000Y-53410000D01*
X148875000Y-52740000D01*
X148075000Y-52740000D01*
X148075000Y-52140000D01*
X148875000Y-52140000D01*
X148875000Y-51470000D01*
X148075000Y-51470000D01*
X148075000Y-50870000D01*
X152625000Y-50870000D01*
X152625000Y-55280000D01*
X148075000Y-55280000D01*
X148075000Y-54680000D01*
G37*
D11*
X154300000Y-51170000D03*
X154300000Y-52440000D03*
X154300000Y-53710000D03*
X154300000Y-54980000D03*
%TD*%
D10*
%TO.C,Q2*%
G36*
X148150000Y-61030000D02*
G01*
X148950000Y-61030000D01*
X148950000Y-60360000D01*
X148150000Y-60360000D01*
X148150000Y-59760000D01*
X148950000Y-59760000D01*
X148950000Y-59090000D01*
X148150000Y-59090000D01*
X148150000Y-58490000D01*
X148950000Y-58490000D01*
X148950000Y-57820000D01*
X148150000Y-57820000D01*
X148150000Y-57220000D01*
X152700000Y-57220000D01*
X152700000Y-61630000D01*
X148150000Y-61630000D01*
X148150000Y-61030000D01*
G37*
D11*
X154375000Y-57520000D03*
X154375000Y-58790000D03*
X154375000Y-60060000D03*
X154375000Y-61330000D03*
%TD*%
D10*
%TO.C,Q1*%
G36*
X148075000Y-80405000D02*
G01*
X148875000Y-80405000D01*
X148875000Y-79735000D01*
X148075000Y-79735000D01*
X148075000Y-79135000D01*
X148875000Y-79135000D01*
X148875000Y-78465000D01*
X148075000Y-78465000D01*
X148075000Y-77865000D01*
X148875000Y-77865000D01*
X148875000Y-77195000D01*
X148075000Y-77195000D01*
X148075000Y-76595000D01*
X152625000Y-76595000D01*
X152625000Y-81005000D01*
X148075000Y-81005000D01*
X148075000Y-80405000D01*
G37*
D11*
X154300000Y-76895000D03*
X154300000Y-78165000D03*
X154300000Y-79435000D03*
X154300000Y-80705000D03*
%TD*%
D12*
%TO.C,J6*%
X84000000Y-64260000D03*
D13*
X84000000Y-66800000D03*
%TD*%
D12*
%TO.C,J2*%
X84000000Y-70560000D03*
D13*
X84000000Y-73100000D03*
%TD*%
D12*
%TO.C,J5*%
X83990000Y-80640000D03*
X83990000Y-78100000D03*
X86530000Y-80640000D03*
X86530000Y-78100000D03*
X89070000Y-80640000D03*
X89070000Y-78100000D03*
X91610000Y-80640000D03*
X91610000Y-78100000D03*
X94150000Y-80640000D03*
D13*
X94150000Y-78100000D03*
%TD*%
D12*
%TO.C,J3*%
X98060000Y-80740000D03*
X98060000Y-78200000D03*
X100600000Y-80740000D03*
D13*
X100600000Y-78200000D03*
%TD*%
D12*
%TO.C,J1*%
X123410000Y-80800000D03*
X123410000Y-78260000D03*
X125950000Y-80800000D03*
D13*
X125950000Y-78260000D03*
%TD*%
D14*
%TO.C,H7*%
X101100000Y-44600000D03*
%TD*%
%TO.C,H6*%
X93700000Y-44600000D03*
%TD*%
D15*
%TO.C,H5*%
X159000000Y-50250000D03*
%TD*%
%TO.C,H4*%
X159000000Y-62500000D03*
%TD*%
%TO.C,H3*%
X159000000Y-75000000D03*
%TD*%
%TO.C,H2*%
X140700000Y-85200000D03*
%TD*%
%TO.C,H1*%
X150700000Y-85200000D03*
%TD*%
%TO.C,R9*%
G36*
G01*
X135300000Y-72581250D02*
X135300000Y-71618750D01*
G75*
G02*
X135568750Y-71350000I268750J0D01*
G01*
X136106250Y-71350000D01*
G75*
G02*
X136375000Y-71618750I0J-268750D01*
G01*
X136375000Y-72581250D01*
G75*
G02*
X136106250Y-72850000I-268750J0D01*
G01*
X135568750Y-72850000D01*
G75*
G02*
X135300000Y-72581250I0J268750D01*
G01*
G37*
G36*
G01*
X133425000Y-72581250D02*
X133425000Y-71618750D01*
G75*
G02*
X133693750Y-71350000I268750J0D01*
G01*
X134231250Y-71350000D01*
G75*
G02*
X134500000Y-71618750I0J-268750D01*
G01*
X134500000Y-72581250D01*
G75*
G02*
X134231250Y-72850000I-268750J0D01*
G01*
X133693750Y-72850000D01*
G75*
G02*
X133425000Y-72581250I0J268750D01*
G01*
G37*
%TD*%
D16*
%TO.C,U2*%
X129880000Y-66879216D03*
G36*
G01*
X127317500Y-69304216D02*
X126567500Y-69304216D01*
G75*
G02*
X126480000Y-69216716I0J87500D01*
G01*
X126480000Y-69041716D01*
G75*
G02*
X126567500Y-68954216I87500J0D01*
G01*
X127317500Y-68954216D01*
G75*
G02*
X127405000Y-69041716I0J-87500D01*
G01*
X127405000Y-69216716D01*
G75*
G02*
X127317500Y-69304216I-87500J0D01*
G01*
G37*
G36*
G01*
X127317500Y-68804216D02*
X126567500Y-68804216D01*
G75*
G02*
X126480000Y-68716716I0J87500D01*
G01*
X126480000Y-68541716D01*
G75*
G02*
X126567500Y-68454216I87500J0D01*
G01*
X127317500Y-68454216D01*
G75*
G02*
X127405000Y-68541716I0J-87500D01*
G01*
X127405000Y-68716716D01*
G75*
G02*
X127317500Y-68804216I-87500J0D01*
G01*
G37*
G36*
G01*
X127317500Y-68304216D02*
X126567500Y-68304216D01*
G75*
G02*
X126480000Y-68216716I0J87500D01*
G01*
X126480000Y-68041716D01*
G75*
G02*
X126567500Y-67954216I87500J0D01*
G01*
X127317500Y-67954216D01*
G75*
G02*
X127405000Y-68041716I0J-87500D01*
G01*
X127405000Y-68216716D01*
G75*
G02*
X127317500Y-68304216I-87500J0D01*
G01*
G37*
G36*
G01*
X127317500Y-67804216D02*
X126567500Y-67804216D01*
G75*
G02*
X126480000Y-67716716I0J87500D01*
G01*
X126480000Y-67541716D01*
G75*
G02*
X126567500Y-67454216I87500J0D01*
G01*
X127317500Y-67454216D01*
G75*
G02*
X127405000Y-67541716I0J-87500D01*
G01*
X127405000Y-67716716D01*
G75*
G02*
X127317500Y-67804216I-87500J0D01*
G01*
G37*
G36*
G01*
X127317500Y-67304216D02*
X126567500Y-67304216D01*
G75*
G02*
X126480000Y-67216716I0J87500D01*
G01*
X126480000Y-67041716D01*
G75*
G02*
X126567500Y-66954216I87500J0D01*
G01*
X127317500Y-66954216D01*
G75*
G02*
X127405000Y-67041716I0J-87500D01*
G01*
X127405000Y-67216716D01*
G75*
G02*
X127317500Y-67304216I-87500J0D01*
G01*
G37*
G36*
G01*
X127317500Y-66804216D02*
X126567500Y-66804216D01*
G75*
G02*
X126480000Y-66716716I0J87500D01*
G01*
X126480000Y-66541716D01*
G75*
G02*
X126567500Y-66454216I87500J0D01*
G01*
X127317500Y-66454216D01*
G75*
G02*
X127405000Y-66541716I0J-87500D01*
G01*
X127405000Y-66716716D01*
G75*
G02*
X127317500Y-66804216I-87500J0D01*
G01*
G37*
G36*
G01*
X127317500Y-66304216D02*
X126567500Y-66304216D01*
G75*
G02*
X126480000Y-66216716I0J87500D01*
G01*
X126480000Y-66041716D01*
G75*
G02*
X126567500Y-65954216I87500J0D01*
G01*
X127317500Y-65954216D01*
G75*
G02*
X127405000Y-66041716I0J-87500D01*
G01*
X127405000Y-66216716D01*
G75*
G02*
X127317500Y-66304216I-87500J0D01*
G01*
G37*
G36*
G01*
X127317500Y-65804216D02*
X126567500Y-65804216D01*
G75*
G02*
X126480000Y-65716716I0J87500D01*
G01*
X126480000Y-65541716D01*
G75*
G02*
X126567500Y-65454216I87500J0D01*
G01*
X127317500Y-65454216D01*
G75*
G02*
X127405000Y-65541716I0J-87500D01*
G01*
X127405000Y-65716716D01*
G75*
G02*
X127317500Y-65804216I-87500J0D01*
G01*
G37*
G36*
G01*
X127317500Y-65304216D02*
X126567500Y-65304216D01*
G75*
G02*
X126480000Y-65216716I0J87500D01*
G01*
X126480000Y-65041716D01*
G75*
G02*
X126567500Y-64954216I87500J0D01*
G01*
X127317500Y-64954216D01*
G75*
G02*
X127405000Y-65041716I0J-87500D01*
G01*
X127405000Y-65216716D01*
G75*
G02*
X127317500Y-65304216I-87500J0D01*
G01*
G37*
G36*
G01*
X127317500Y-64804216D02*
X126567500Y-64804216D01*
G75*
G02*
X126480000Y-64716716I0J87500D01*
G01*
X126480000Y-64541716D01*
G75*
G02*
X126567500Y-64454216I87500J0D01*
G01*
X127317500Y-64454216D01*
G75*
G02*
X127405000Y-64541716I0J-87500D01*
G01*
X127405000Y-64716716D01*
G75*
G02*
X127317500Y-64804216I-87500J0D01*
G01*
G37*
G36*
G01*
X127717500Y-64404216D02*
X127542500Y-64404216D01*
G75*
G02*
X127455000Y-64316716I0J87500D01*
G01*
X127455000Y-63566716D01*
G75*
G02*
X127542500Y-63479216I87500J0D01*
G01*
X127717500Y-63479216D01*
G75*
G02*
X127805000Y-63566716I0J-87500D01*
G01*
X127805000Y-64316716D01*
G75*
G02*
X127717500Y-64404216I-87500J0D01*
G01*
G37*
G36*
G01*
X128217500Y-64404216D02*
X128042500Y-64404216D01*
G75*
G02*
X127955000Y-64316716I0J87500D01*
G01*
X127955000Y-63566716D01*
G75*
G02*
X128042500Y-63479216I87500J0D01*
G01*
X128217500Y-63479216D01*
G75*
G02*
X128305000Y-63566716I0J-87500D01*
G01*
X128305000Y-64316716D01*
G75*
G02*
X128217500Y-64404216I-87500J0D01*
G01*
G37*
G36*
G01*
X128717500Y-64404216D02*
X128542500Y-64404216D01*
G75*
G02*
X128455000Y-64316716I0J87500D01*
G01*
X128455000Y-63566716D01*
G75*
G02*
X128542500Y-63479216I87500J0D01*
G01*
X128717500Y-63479216D01*
G75*
G02*
X128805000Y-63566716I0J-87500D01*
G01*
X128805000Y-64316716D01*
G75*
G02*
X128717500Y-64404216I-87500J0D01*
G01*
G37*
G36*
G01*
X129217500Y-64404216D02*
X129042500Y-64404216D01*
G75*
G02*
X128955000Y-64316716I0J87500D01*
G01*
X128955000Y-63566716D01*
G75*
G02*
X129042500Y-63479216I87500J0D01*
G01*
X129217500Y-63479216D01*
G75*
G02*
X129305000Y-63566716I0J-87500D01*
G01*
X129305000Y-64316716D01*
G75*
G02*
X129217500Y-64404216I-87500J0D01*
G01*
G37*
G36*
G01*
X129717500Y-64404216D02*
X129542500Y-64404216D01*
G75*
G02*
X129455000Y-64316716I0J87500D01*
G01*
X129455000Y-63566716D01*
G75*
G02*
X129542500Y-63479216I87500J0D01*
G01*
X129717500Y-63479216D01*
G75*
G02*
X129805000Y-63566716I0J-87500D01*
G01*
X129805000Y-64316716D01*
G75*
G02*
X129717500Y-64404216I-87500J0D01*
G01*
G37*
G36*
G01*
X130217500Y-64404216D02*
X130042500Y-64404216D01*
G75*
G02*
X129955000Y-64316716I0J87500D01*
G01*
X129955000Y-63566716D01*
G75*
G02*
X130042500Y-63479216I87500J0D01*
G01*
X130217500Y-63479216D01*
G75*
G02*
X130305000Y-63566716I0J-87500D01*
G01*
X130305000Y-64316716D01*
G75*
G02*
X130217500Y-64404216I-87500J0D01*
G01*
G37*
G36*
G01*
X130717500Y-64404216D02*
X130542500Y-64404216D01*
G75*
G02*
X130455000Y-64316716I0J87500D01*
G01*
X130455000Y-63566716D01*
G75*
G02*
X130542500Y-63479216I87500J0D01*
G01*
X130717500Y-63479216D01*
G75*
G02*
X130805000Y-63566716I0J-87500D01*
G01*
X130805000Y-64316716D01*
G75*
G02*
X130717500Y-64404216I-87500J0D01*
G01*
G37*
G36*
G01*
X131217500Y-64404216D02*
X131042500Y-64404216D01*
G75*
G02*
X130955000Y-64316716I0J87500D01*
G01*
X130955000Y-63566716D01*
G75*
G02*
X131042500Y-63479216I87500J0D01*
G01*
X131217500Y-63479216D01*
G75*
G02*
X131305000Y-63566716I0J-87500D01*
G01*
X131305000Y-64316716D01*
G75*
G02*
X131217500Y-64404216I-87500J0D01*
G01*
G37*
G36*
G01*
X131717500Y-64404216D02*
X131542500Y-64404216D01*
G75*
G02*
X131455000Y-64316716I0J87500D01*
G01*
X131455000Y-63566716D01*
G75*
G02*
X131542500Y-63479216I87500J0D01*
G01*
X131717500Y-63479216D01*
G75*
G02*
X131805000Y-63566716I0J-87500D01*
G01*
X131805000Y-64316716D01*
G75*
G02*
X131717500Y-64404216I-87500J0D01*
G01*
G37*
G36*
G01*
X132217500Y-64404216D02*
X132042500Y-64404216D01*
G75*
G02*
X131955000Y-64316716I0J87500D01*
G01*
X131955000Y-63566716D01*
G75*
G02*
X132042500Y-63479216I87500J0D01*
G01*
X132217500Y-63479216D01*
G75*
G02*
X132305000Y-63566716I0J-87500D01*
G01*
X132305000Y-64316716D01*
G75*
G02*
X132217500Y-64404216I-87500J0D01*
G01*
G37*
G36*
G01*
X133192500Y-64804216D02*
X132442500Y-64804216D01*
G75*
G02*
X132355000Y-64716716I0J87500D01*
G01*
X132355000Y-64541716D01*
G75*
G02*
X132442500Y-64454216I87500J0D01*
G01*
X133192500Y-64454216D01*
G75*
G02*
X133280000Y-64541716I0J-87500D01*
G01*
X133280000Y-64716716D01*
G75*
G02*
X133192500Y-64804216I-87500J0D01*
G01*
G37*
G36*
G01*
X133192500Y-65304216D02*
X132442500Y-65304216D01*
G75*
G02*
X132355000Y-65216716I0J87500D01*
G01*
X132355000Y-65041716D01*
G75*
G02*
X132442500Y-64954216I87500J0D01*
G01*
X133192500Y-64954216D01*
G75*
G02*
X133280000Y-65041716I0J-87500D01*
G01*
X133280000Y-65216716D01*
G75*
G02*
X133192500Y-65304216I-87500J0D01*
G01*
G37*
G36*
G01*
X133192500Y-65804216D02*
X132442500Y-65804216D01*
G75*
G02*
X132355000Y-65716716I0J87500D01*
G01*
X132355000Y-65541716D01*
G75*
G02*
X132442500Y-65454216I87500J0D01*
G01*
X133192500Y-65454216D01*
G75*
G02*
X133280000Y-65541716I0J-87500D01*
G01*
X133280000Y-65716716D01*
G75*
G02*
X133192500Y-65804216I-87500J0D01*
G01*
G37*
G36*
G01*
X133192500Y-66304216D02*
X132442500Y-66304216D01*
G75*
G02*
X132355000Y-66216716I0J87500D01*
G01*
X132355000Y-66041716D01*
G75*
G02*
X132442500Y-65954216I87500J0D01*
G01*
X133192500Y-65954216D01*
G75*
G02*
X133280000Y-66041716I0J-87500D01*
G01*
X133280000Y-66216716D01*
G75*
G02*
X133192500Y-66304216I-87500J0D01*
G01*
G37*
G36*
G01*
X133192500Y-66804216D02*
X132442500Y-66804216D01*
G75*
G02*
X132355000Y-66716716I0J87500D01*
G01*
X132355000Y-66541716D01*
G75*
G02*
X132442500Y-66454216I87500J0D01*
G01*
X133192500Y-66454216D01*
G75*
G02*
X133280000Y-66541716I0J-87500D01*
G01*
X133280000Y-66716716D01*
G75*
G02*
X133192500Y-66804216I-87500J0D01*
G01*
G37*
G36*
G01*
X133192500Y-67304216D02*
X132442500Y-67304216D01*
G75*
G02*
X132355000Y-67216716I0J87500D01*
G01*
X132355000Y-67041716D01*
G75*
G02*
X132442500Y-66954216I87500J0D01*
G01*
X133192500Y-66954216D01*
G75*
G02*
X133280000Y-67041716I0J-87500D01*
G01*
X133280000Y-67216716D01*
G75*
G02*
X133192500Y-67304216I-87500J0D01*
G01*
G37*
G36*
G01*
X133192500Y-67804216D02*
X132442500Y-67804216D01*
G75*
G02*
X132355000Y-67716716I0J87500D01*
G01*
X132355000Y-67541716D01*
G75*
G02*
X132442500Y-67454216I87500J0D01*
G01*
X133192500Y-67454216D01*
G75*
G02*
X133280000Y-67541716I0J-87500D01*
G01*
X133280000Y-67716716D01*
G75*
G02*
X133192500Y-67804216I-87500J0D01*
G01*
G37*
G36*
G01*
X133192500Y-68304216D02*
X132442500Y-68304216D01*
G75*
G02*
X132355000Y-68216716I0J87500D01*
G01*
X132355000Y-68041716D01*
G75*
G02*
X132442500Y-67954216I87500J0D01*
G01*
X133192500Y-67954216D01*
G75*
G02*
X133280000Y-68041716I0J-87500D01*
G01*
X133280000Y-68216716D01*
G75*
G02*
X133192500Y-68304216I-87500J0D01*
G01*
G37*
G36*
G01*
X133192500Y-68804216D02*
X132442500Y-68804216D01*
G75*
G02*
X132355000Y-68716716I0J87500D01*
G01*
X132355000Y-68541716D01*
G75*
G02*
X132442500Y-68454216I87500J0D01*
G01*
X133192500Y-68454216D01*
G75*
G02*
X133280000Y-68541716I0J-87500D01*
G01*
X133280000Y-68716716D01*
G75*
G02*
X133192500Y-68804216I-87500J0D01*
G01*
G37*
G36*
G01*
X133192500Y-69304216D02*
X132442500Y-69304216D01*
G75*
G02*
X132355000Y-69216716I0J87500D01*
G01*
X132355000Y-69041716D01*
G75*
G02*
X132442500Y-68954216I87500J0D01*
G01*
X133192500Y-68954216D01*
G75*
G02*
X133280000Y-69041716I0J-87500D01*
G01*
X133280000Y-69216716D01*
G75*
G02*
X133192500Y-69304216I-87500J0D01*
G01*
G37*
G36*
G01*
X132217500Y-70279216D02*
X132042500Y-70279216D01*
G75*
G02*
X131955000Y-70191716I0J87500D01*
G01*
X131955000Y-69441716D01*
G75*
G02*
X132042500Y-69354216I87500J0D01*
G01*
X132217500Y-69354216D01*
G75*
G02*
X132305000Y-69441716I0J-87500D01*
G01*
X132305000Y-70191716D01*
G75*
G02*
X132217500Y-70279216I-87500J0D01*
G01*
G37*
G36*
G01*
X131717500Y-70279216D02*
X131542500Y-70279216D01*
G75*
G02*
X131455000Y-70191716I0J87500D01*
G01*
X131455000Y-69441716D01*
G75*
G02*
X131542500Y-69354216I87500J0D01*
G01*
X131717500Y-69354216D01*
G75*
G02*
X131805000Y-69441716I0J-87500D01*
G01*
X131805000Y-70191716D01*
G75*
G02*
X131717500Y-70279216I-87500J0D01*
G01*
G37*
G36*
G01*
X131217500Y-70279216D02*
X131042500Y-70279216D01*
G75*
G02*
X130955000Y-70191716I0J87500D01*
G01*
X130955000Y-69441716D01*
G75*
G02*
X131042500Y-69354216I87500J0D01*
G01*
X131217500Y-69354216D01*
G75*
G02*
X131305000Y-69441716I0J-87500D01*
G01*
X131305000Y-70191716D01*
G75*
G02*
X131217500Y-70279216I-87500J0D01*
G01*
G37*
G36*
G01*
X130717500Y-70279216D02*
X130542500Y-70279216D01*
G75*
G02*
X130455000Y-70191716I0J87500D01*
G01*
X130455000Y-69441716D01*
G75*
G02*
X130542500Y-69354216I87500J0D01*
G01*
X130717500Y-69354216D01*
G75*
G02*
X130805000Y-69441716I0J-87500D01*
G01*
X130805000Y-70191716D01*
G75*
G02*
X130717500Y-70279216I-87500J0D01*
G01*
G37*
G36*
G01*
X130217500Y-70279216D02*
X130042500Y-70279216D01*
G75*
G02*
X129955000Y-70191716I0J87500D01*
G01*
X129955000Y-69441716D01*
G75*
G02*
X130042500Y-69354216I87500J0D01*
G01*
X130217500Y-69354216D01*
G75*
G02*
X130305000Y-69441716I0J-87500D01*
G01*
X130305000Y-70191716D01*
G75*
G02*
X130217500Y-70279216I-87500J0D01*
G01*
G37*
G36*
G01*
X129717500Y-70279216D02*
X129542500Y-70279216D01*
G75*
G02*
X129455000Y-70191716I0J87500D01*
G01*
X129455000Y-69441716D01*
G75*
G02*
X129542500Y-69354216I87500J0D01*
G01*
X129717500Y-69354216D01*
G75*
G02*
X129805000Y-69441716I0J-87500D01*
G01*
X129805000Y-70191716D01*
G75*
G02*
X129717500Y-70279216I-87500J0D01*
G01*
G37*
G36*
G01*
X129217500Y-70279216D02*
X129042500Y-70279216D01*
G75*
G02*
X128955000Y-70191716I0J87500D01*
G01*
X128955000Y-69441716D01*
G75*
G02*
X129042500Y-69354216I87500J0D01*
G01*
X129217500Y-69354216D01*
G75*
G02*
X129305000Y-69441716I0J-87500D01*
G01*
X129305000Y-70191716D01*
G75*
G02*
X129217500Y-70279216I-87500J0D01*
G01*
G37*
G36*
G01*
X128717500Y-70279216D02*
X128542500Y-70279216D01*
G75*
G02*
X128455000Y-70191716I0J87500D01*
G01*
X128455000Y-69441716D01*
G75*
G02*
X128542500Y-69354216I87500J0D01*
G01*
X128717500Y-69354216D01*
G75*
G02*
X128805000Y-69441716I0J-87500D01*
G01*
X128805000Y-70191716D01*
G75*
G02*
X128717500Y-70279216I-87500J0D01*
G01*
G37*
G36*
G01*
X128217500Y-70279216D02*
X128042500Y-70279216D01*
G75*
G02*
X127955000Y-70191716I0J87500D01*
G01*
X127955000Y-69441716D01*
G75*
G02*
X128042500Y-69354216I87500J0D01*
G01*
X128217500Y-69354216D01*
G75*
G02*
X128305000Y-69441716I0J-87500D01*
G01*
X128305000Y-70191716D01*
G75*
G02*
X128217500Y-70279216I-87500J0D01*
G01*
G37*
G36*
G01*
X127717500Y-70279216D02*
X127542500Y-70279216D01*
G75*
G02*
X127455000Y-70191716I0J87500D01*
G01*
X127455000Y-69441716D01*
G75*
G02*
X127542500Y-69354216I87500J0D01*
G01*
X127717500Y-69354216D01*
G75*
G02*
X127805000Y-69441716I0J-87500D01*
G01*
X127805000Y-70191716D01*
G75*
G02*
X127717500Y-70279216I-87500J0D01*
G01*
G37*
%TD*%
%TO.C,C23*%
G36*
G01*
X84960000Y-75502500D02*
X84960000Y-75897500D01*
G75*
G02*
X84787500Y-76070000I-172500J0D01*
G01*
X84442500Y-76070000D01*
G75*
G02*
X84270000Y-75897500I0J172500D01*
G01*
X84270000Y-75502500D01*
G75*
G02*
X84442500Y-75330000I172500J0D01*
G01*
X84787500Y-75330000D01*
G75*
G02*
X84960000Y-75502500I0J-172500D01*
G01*
G37*
G36*
G01*
X85930000Y-75502500D02*
X85930000Y-75897500D01*
G75*
G02*
X85757500Y-76070000I-172500J0D01*
G01*
X85412500Y-76070000D01*
G75*
G02*
X85240000Y-75897500I0J172500D01*
G01*
X85240000Y-75502500D01*
G75*
G02*
X85412500Y-75330000I172500J0D01*
G01*
X85757500Y-75330000D01*
G75*
G02*
X85930000Y-75502500I0J-172500D01*
G01*
G37*
%TD*%
%TO.C,C22*%
G36*
G01*
X101152500Y-73550000D02*
X101547500Y-73550000D01*
G75*
G02*
X101720000Y-73722500I0J-172500D01*
G01*
X101720000Y-74067500D01*
G75*
G02*
X101547500Y-74240000I-172500J0D01*
G01*
X101152500Y-74240000D01*
G75*
G02*
X100980000Y-74067500I0J172500D01*
G01*
X100980000Y-73722500D01*
G75*
G02*
X101152500Y-73550000I172500J0D01*
G01*
G37*
G36*
G01*
X101152500Y-72580000D02*
X101547500Y-72580000D01*
G75*
G02*
X101720000Y-72752500I0J-172500D01*
G01*
X101720000Y-73097500D01*
G75*
G02*
X101547500Y-73270000I-172500J0D01*
G01*
X101152500Y-73270000D01*
G75*
G02*
X100980000Y-73097500I0J172500D01*
G01*
X100980000Y-72752500D01*
G75*
G02*
X101152500Y-72580000I172500J0D01*
G01*
G37*
%TD*%
%TO.C,R17*%
G36*
G01*
X125331250Y-59850000D02*
X124768750Y-59850000D01*
G75*
G02*
X124525000Y-59606250I0J243750D01*
G01*
X124525000Y-59118750D01*
G75*
G02*
X124768750Y-58875000I243750J0D01*
G01*
X125331250Y-58875000D01*
G75*
G02*
X125575000Y-59118750I0J-243750D01*
G01*
X125575000Y-59606250D01*
G75*
G02*
X125331250Y-59850000I-243750J0D01*
G01*
G37*
G36*
G01*
X125331250Y-61425000D02*
X124768750Y-61425000D01*
G75*
G02*
X124525000Y-61181250I0J243750D01*
G01*
X124525000Y-60693750D01*
G75*
G02*
X124768750Y-60450000I243750J0D01*
G01*
X125331250Y-60450000D01*
G75*
G02*
X125575000Y-60693750I0J-243750D01*
G01*
X125575000Y-61181250D01*
G75*
G02*
X125331250Y-61425000I-243750J0D01*
G01*
G37*
%TD*%
%TO.C,R16*%
G36*
G01*
X126931250Y-59850000D02*
X126368750Y-59850000D01*
G75*
G02*
X126125000Y-59606250I0J243750D01*
G01*
X126125000Y-59118750D01*
G75*
G02*
X126368750Y-58875000I243750J0D01*
G01*
X126931250Y-58875000D01*
G75*
G02*
X127175000Y-59118750I0J-243750D01*
G01*
X127175000Y-59606250D01*
G75*
G02*
X126931250Y-59850000I-243750J0D01*
G01*
G37*
G36*
G01*
X126931250Y-61425000D02*
X126368750Y-61425000D01*
G75*
G02*
X126125000Y-61181250I0J243750D01*
G01*
X126125000Y-60693750D01*
G75*
G02*
X126368750Y-60450000I243750J0D01*
G01*
X126931250Y-60450000D01*
G75*
G02*
X127175000Y-60693750I0J-243750D01*
G01*
X127175000Y-61181250D01*
G75*
G02*
X126931250Y-61425000I-243750J0D01*
G01*
G37*
%TD*%
%TO.C,R15*%
G36*
G01*
X128681250Y-59850000D02*
X128118750Y-59850000D01*
G75*
G02*
X127875000Y-59606250I0J243750D01*
G01*
X127875000Y-59118750D01*
G75*
G02*
X128118750Y-58875000I243750J0D01*
G01*
X128681250Y-58875000D01*
G75*
G02*
X128925000Y-59118750I0J-243750D01*
G01*
X128925000Y-59606250D01*
G75*
G02*
X128681250Y-59850000I-243750J0D01*
G01*
G37*
G36*
G01*
X128681250Y-61425000D02*
X128118750Y-61425000D01*
G75*
G02*
X127875000Y-61181250I0J243750D01*
G01*
X127875000Y-60693750D01*
G75*
G02*
X128118750Y-60450000I243750J0D01*
G01*
X128681250Y-60450000D01*
G75*
G02*
X128925000Y-60693750I0J-243750D01*
G01*
X128925000Y-61181250D01*
G75*
G02*
X128681250Y-61425000I-243750J0D01*
G01*
G37*
%TD*%
D17*
%TO.C,U4*%
X122975000Y-50425000D03*
D18*
X113825000Y-53825000D03*
X113825000Y-52125000D03*
X113825000Y-50425000D03*
X113825000Y-48725000D03*
X113825000Y-47025000D03*
%TD*%
D19*
%TO.C,U1*%
X94150000Y-61700000D03*
X89550000Y-61700000D03*
X91850000Y-61700000D03*
D20*
X91850000Y-68000000D03*
%TD*%
%TO.C,C16*%
G36*
G01*
X124395250Y-73723500D02*
X123832750Y-73723500D01*
G75*
G02*
X123589000Y-73479750I0J243750D01*
G01*
X123589000Y-72992250D01*
G75*
G02*
X123832750Y-72748500I243750J0D01*
G01*
X124395250Y-72748500D01*
G75*
G02*
X124639000Y-72992250I0J-243750D01*
G01*
X124639000Y-73479750D01*
G75*
G02*
X124395250Y-73723500I-243750J0D01*
G01*
G37*
G36*
G01*
X124395250Y-75298500D02*
X123832750Y-75298500D01*
G75*
G02*
X123589000Y-75054750I0J243750D01*
G01*
X123589000Y-74567250D01*
G75*
G02*
X123832750Y-74323500I243750J0D01*
G01*
X124395250Y-74323500D01*
G75*
G02*
X124639000Y-74567250I0J-243750D01*
G01*
X124639000Y-75054750D01*
G75*
G02*
X124395250Y-75298500I-243750J0D01*
G01*
G37*
%TD*%
%TO.C,R5*%
G36*
G01*
X101931250Y-69437500D02*
X101368750Y-69437500D01*
G75*
G02*
X101125000Y-69193750I0J243750D01*
G01*
X101125000Y-68706250D01*
G75*
G02*
X101368750Y-68462500I243750J0D01*
G01*
X101931250Y-68462500D01*
G75*
G02*
X102175000Y-68706250I0J-243750D01*
G01*
X102175000Y-69193750D01*
G75*
G02*
X101931250Y-69437500I-243750J0D01*
G01*
G37*
G36*
G01*
X101931250Y-71012500D02*
X101368750Y-71012500D01*
G75*
G02*
X101125000Y-70768750I0J243750D01*
G01*
X101125000Y-70281250D01*
G75*
G02*
X101368750Y-70037500I243750J0D01*
G01*
X101931250Y-70037500D01*
G75*
G02*
X102175000Y-70281250I0J-243750D01*
G01*
X102175000Y-70768750D01*
G75*
G02*
X101931250Y-71012500I-243750J0D01*
G01*
G37*
%TD*%
D21*
%TO.C,L1*%
X95450000Y-51150000D03*
X105350000Y-51150000D03*
%TD*%
D22*
%TO.C,D1*%
X117060000Y-58500000D03*
X112760000Y-58500000D03*
%TD*%
%TO.C,C14*%
G36*
G01*
X86710000Y-54250000D02*
X88790000Y-54250000D01*
G75*
G02*
X89050000Y-54510000I0J-260000D01*
G01*
X89050000Y-58090000D01*
G75*
G02*
X88790000Y-58350000I-260000J0D01*
G01*
X86710000Y-58350000D01*
G75*
G02*
X86450000Y-58090000I0J260000D01*
G01*
X86450000Y-54510000D01*
G75*
G02*
X86710000Y-54250000I260000J0D01*
G01*
G37*
G36*
G01*
X86710000Y-46250000D02*
X88790000Y-46250000D01*
G75*
G02*
X89050000Y-46510000I0J-260000D01*
G01*
X89050000Y-50090000D01*
G75*
G02*
X88790000Y-50350000I-260000J0D01*
G01*
X86710000Y-50350000D01*
G75*
G02*
X86450000Y-50090000I0J260000D01*
G01*
X86450000Y-46510000D01*
G75*
G02*
X86710000Y-46250000I260000J0D01*
G01*
G37*
%TD*%
%TO.C,C13*%
G36*
G01*
X133460000Y-52250000D02*
X135540000Y-52250000D01*
G75*
G02*
X135800000Y-52510000I0J-260000D01*
G01*
X135800000Y-56090000D01*
G75*
G02*
X135540000Y-56350000I-260000J0D01*
G01*
X133460000Y-56350000D01*
G75*
G02*
X133200000Y-56090000I0J260000D01*
G01*
X133200000Y-52510000D01*
G75*
G02*
X133460000Y-52250000I260000J0D01*
G01*
G37*
G36*
G01*
X133460000Y-44250000D02*
X135540000Y-44250000D01*
G75*
G02*
X135800000Y-44510000I0J-260000D01*
G01*
X135800000Y-48090000D01*
G75*
G02*
X135540000Y-48350000I-260000J0D01*
G01*
X133460000Y-48350000D01*
G75*
G02*
X133200000Y-48090000I0J260000D01*
G01*
X133200000Y-44510000D01*
G75*
G02*
X133460000Y-44250000I260000J0D01*
G01*
G37*
%TD*%
%TO.C,U3*%
G36*
G01*
X106200000Y-65050000D02*
X106200000Y-63600000D01*
G75*
G02*
X106300000Y-63500000I100000J0D01*
G01*
X106500000Y-63500000D01*
G75*
G02*
X106600000Y-63600000I0J-100000D01*
G01*
X106600000Y-65050000D01*
G75*
G02*
X106500000Y-65150000I-100000J0D01*
G01*
X106300000Y-65150000D01*
G75*
G02*
X106200000Y-65050000I0J100000D01*
G01*
G37*
G36*
G01*
X106700000Y-65050000D02*
X106700000Y-63600000D01*
G75*
G02*
X106800000Y-63500000I100000J0D01*
G01*
X107000000Y-63500000D01*
G75*
G02*
X107100000Y-63600000I0J-100000D01*
G01*
X107100000Y-65050000D01*
G75*
G02*
X107000000Y-65150000I-100000J0D01*
G01*
X106800000Y-65150000D01*
G75*
G02*
X106700000Y-65050000I0J100000D01*
G01*
G37*
G36*
G01*
X107200000Y-65050000D02*
X107200000Y-63600000D01*
G75*
G02*
X107300000Y-63500000I100000J0D01*
G01*
X107500000Y-63500000D01*
G75*
G02*
X107600000Y-63600000I0J-100000D01*
G01*
X107600000Y-65050000D01*
G75*
G02*
X107500000Y-65150000I-100000J0D01*
G01*
X107300000Y-65150000D01*
G75*
G02*
X107200000Y-65050000I0J100000D01*
G01*
G37*
G36*
G01*
X107700000Y-65050000D02*
X107700000Y-63600000D01*
G75*
G02*
X107800000Y-63500000I100000J0D01*
G01*
X108000000Y-63500000D01*
G75*
G02*
X108100000Y-63600000I0J-100000D01*
G01*
X108100000Y-65050000D01*
G75*
G02*
X108000000Y-65150000I-100000J0D01*
G01*
X107800000Y-65150000D01*
G75*
G02*
X107700000Y-65050000I0J100000D01*
G01*
G37*
G36*
G01*
X108200000Y-65050000D02*
X108200000Y-63600000D01*
G75*
G02*
X108300000Y-63500000I100000J0D01*
G01*
X108500000Y-63500000D01*
G75*
G02*
X108600000Y-63600000I0J-100000D01*
G01*
X108600000Y-65050000D01*
G75*
G02*
X108500000Y-65150000I-100000J0D01*
G01*
X108300000Y-65150000D01*
G75*
G02*
X108200000Y-65050000I0J100000D01*
G01*
G37*
G36*
G01*
X108700000Y-65050000D02*
X108700000Y-63600000D01*
G75*
G02*
X108800000Y-63500000I100000J0D01*
G01*
X109000000Y-63500000D01*
G75*
G02*
X109100000Y-63600000I0J-100000D01*
G01*
X109100000Y-65050000D01*
G75*
G02*
X109000000Y-65150000I-100000J0D01*
G01*
X108800000Y-65150000D01*
G75*
G02*
X108700000Y-65050000I0J100000D01*
G01*
G37*
G36*
G01*
X109200000Y-65050000D02*
X109200000Y-63600000D01*
G75*
G02*
X109300000Y-63500000I100000J0D01*
G01*
X109500000Y-63500000D01*
G75*
G02*
X109600000Y-63600000I0J-100000D01*
G01*
X109600000Y-65050000D01*
G75*
G02*
X109500000Y-65150000I-100000J0D01*
G01*
X109300000Y-65150000D01*
G75*
G02*
X109200000Y-65050000I0J100000D01*
G01*
G37*
G36*
G01*
X109700000Y-65050000D02*
X109700000Y-63600000D01*
G75*
G02*
X109800000Y-63500000I100000J0D01*
G01*
X110000000Y-63500000D01*
G75*
G02*
X110100000Y-63600000I0J-100000D01*
G01*
X110100000Y-65050000D01*
G75*
G02*
X110000000Y-65150000I-100000J0D01*
G01*
X109800000Y-65150000D01*
G75*
G02*
X109700000Y-65050000I0J100000D01*
G01*
G37*
G36*
G01*
X110200000Y-65050000D02*
X110200000Y-63600000D01*
G75*
G02*
X110300000Y-63500000I100000J0D01*
G01*
X110500000Y-63500000D01*
G75*
G02*
X110600000Y-63600000I0J-100000D01*
G01*
X110600000Y-65050000D01*
G75*
G02*
X110500000Y-65150000I-100000J0D01*
G01*
X110300000Y-65150000D01*
G75*
G02*
X110200000Y-65050000I0J100000D01*
G01*
G37*
G36*
G01*
X110700000Y-65050000D02*
X110700000Y-63600000D01*
G75*
G02*
X110800000Y-63500000I100000J0D01*
G01*
X111000000Y-63500000D01*
G75*
G02*
X111100000Y-63600000I0J-100000D01*
G01*
X111100000Y-65050000D01*
G75*
G02*
X111000000Y-65150000I-100000J0D01*
G01*
X110800000Y-65150000D01*
G75*
G02*
X110700000Y-65050000I0J100000D01*
G01*
G37*
G36*
G01*
X111200000Y-65050000D02*
X111200000Y-63600000D01*
G75*
G02*
X111300000Y-63500000I100000J0D01*
G01*
X111500000Y-63500000D01*
G75*
G02*
X111600000Y-63600000I0J-100000D01*
G01*
X111600000Y-65050000D01*
G75*
G02*
X111500000Y-65150000I-100000J0D01*
G01*
X111300000Y-65150000D01*
G75*
G02*
X111200000Y-65050000I0J100000D01*
G01*
G37*
G36*
G01*
X111700000Y-65050000D02*
X111700000Y-63600000D01*
G75*
G02*
X111800000Y-63500000I100000J0D01*
G01*
X112000000Y-63500000D01*
G75*
G02*
X112100000Y-63600000I0J-100000D01*
G01*
X112100000Y-65050000D01*
G75*
G02*
X112000000Y-65150000I-100000J0D01*
G01*
X111800000Y-65150000D01*
G75*
G02*
X111700000Y-65050000I0J100000D01*
G01*
G37*
G36*
G01*
X112200000Y-65050000D02*
X112200000Y-63600000D01*
G75*
G02*
X112300000Y-63500000I100000J0D01*
G01*
X112500000Y-63500000D01*
G75*
G02*
X112600000Y-63600000I0J-100000D01*
G01*
X112600000Y-65050000D01*
G75*
G02*
X112500000Y-65150000I-100000J0D01*
G01*
X112300000Y-65150000D01*
G75*
G02*
X112200000Y-65050000I0J100000D01*
G01*
G37*
G36*
G01*
X112700000Y-65050000D02*
X112700000Y-63600000D01*
G75*
G02*
X112800000Y-63500000I100000J0D01*
G01*
X113000000Y-63500000D01*
G75*
G02*
X113100000Y-63600000I0J-100000D01*
G01*
X113100000Y-65050000D01*
G75*
G02*
X113000000Y-65150000I-100000J0D01*
G01*
X112800000Y-65150000D01*
G75*
G02*
X112700000Y-65050000I0J100000D01*
G01*
G37*
G36*
G01*
X113200000Y-65050000D02*
X113200000Y-63600000D01*
G75*
G02*
X113300000Y-63500000I100000J0D01*
G01*
X113500000Y-63500000D01*
G75*
G02*
X113600000Y-63600000I0J-100000D01*
G01*
X113600000Y-65050000D01*
G75*
G02*
X113500000Y-65150000I-100000J0D01*
G01*
X113300000Y-65150000D01*
G75*
G02*
X113200000Y-65050000I0J100000D01*
G01*
G37*
G36*
G01*
X113700000Y-65050000D02*
X113700000Y-63600000D01*
G75*
G02*
X113800000Y-63500000I100000J0D01*
G01*
X114000000Y-63500000D01*
G75*
G02*
X114100000Y-63600000I0J-100000D01*
G01*
X114100000Y-65050000D01*
G75*
G02*
X114000000Y-65150000I-100000J0D01*
G01*
X113800000Y-65150000D01*
G75*
G02*
X113700000Y-65050000I0J100000D01*
G01*
G37*
G36*
G01*
X115000000Y-66350000D02*
X115000000Y-66150000D01*
G75*
G02*
X115100000Y-66050000I100000J0D01*
G01*
X116550000Y-66050000D01*
G75*
G02*
X116650000Y-66150000I0J-100000D01*
G01*
X116650000Y-66350000D01*
G75*
G02*
X116550000Y-66450000I-100000J0D01*
G01*
X115100000Y-66450000D01*
G75*
G02*
X115000000Y-66350000I0J100000D01*
G01*
G37*
G36*
G01*
X115000000Y-66850000D02*
X115000000Y-66650000D01*
G75*
G02*
X115100000Y-66550000I100000J0D01*
G01*
X116550000Y-66550000D01*
G75*
G02*
X116650000Y-66650000I0J-100000D01*
G01*
X116650000Y-66850000D01*
G75*
G02*
X116550000Y-66950000I-100000J0D01*
G01*
X115100000Y-66950000D01*
G75*
G02*
X115000000Y-66850000I0J100000D01*
G01*
G37*
G36*
G01*
X115000000Y-67350000D02*
X115000000Y-67150000D01*
G75*
G02*
X115100000Y-67050000I100000J0D01*
G01*
X116550000Y-67050000D01*
G75*
G02*
X116650000Y-67150000I0J-100000D01*
G01*
X116650000Y-67350000D01*
G75*
G02*
X116550000Y-67450000I-100000J0D01*
G01*
X115100000Y-67450000D01*
G75*
G02*
X115000000Y-67350000I0J100000D01*
G01*
G37*
G36*
G01*
X115000000Y-67850000D02*
X115000000Y-67650000D01*
G75*
G02*
X115100000Y-67550000I100000J0D01*
G01*
X116550000Y-67550000D01*
G75*
G02*
X116650000Y-67650000I0J-100000D01*
G01*
X116650000Y-67850000D01*
G75*
G02*
X116550000Y-67950000I-100000J0D01*
G01*
X115100000Y-67950000D01*
G75*
G02*
X115000000Y-67850000I0J100000D01*
G01*
G37*
G36*
G01*
X115000000Y-68350000D02*
X115000000Y-68150000D01*
G75*
G02*
X115100000Y-68050000I100000J0D01*
G01*
X116550000Y-68050000D01*
G75*
G02*
X116650000Y-68150000I0J-100000D01*
G01*
X116650000Y-68350000D01*
G75*
G02*
X116550000Y-68450000I-100000J0D01*
G01*
X115100000Y-68450000D01*
G75*
G02*
X115000000Y-68350000I0J100000D01*
G01*
G37*
G36*
G01*
X115000000Y-68850000D02*
X115000000Y-68650000D01*
G75*
G02*
X115100000Y-68550000I100000J0D01*
G01*
X116550000Y-68550000D01*
G75*
G02*
X116650000Y-68650000I0J-100000D01*
G01*
X116650000Y-68850000D01*
G75*
G02*
X116550000Y-68950000I-100000J0D01*
G01*
X115100000Y-68950000D01*
G75*
G02*
X115000000Y-68850000I0J100000D01*
G01*
G37*
G36*
G01*
X115000000Y-69350000D02*
X115000000Y-69150000D01*
G75*
G02*
X115100000Y-69050000I100000J0D01*
G01*
X116550000Y-69050000D01*
G75*
G02*
X116650000Y-69150000I0J-100000D01*
G01*
X116650000Y-69350000D01*
G75*
G02*
X116550000Y-69450000I-100000J0D01*
G01*
X115100000Y-69450000D01*
G75*
G02*
X115000000Y-69350000I0J100000D01*
G01*
G37*
G36*
G01*
X115000000Y-69850000D02*
X115000000Y-69650000D01*
G75*
G02*
X115100000Y-69550000I100000J0D01*
G01*
X116550000Y-69550000D01*
G75*
G02*
X116650000Y-69650000I0J-100000D01*
G01*
X116650000Y-69850000D01*
G75*
G02*
X116550000Y-69950000I-100000J0D01*
G01*
X115100000Y-69950000D01*
G75*
G02*
X115000000Y-69850000I0J100000D01*
G01*
G37*
G36*
G01*
X115000000Y-70350000D02*
X115000000Y-70150000D01*
G75*
G02*
X115100000Y-70050000I100000J0D01*
G01*
X116550000Y-70050000D01*
G75*
G02*
X116650000Y-70150000I0J-100000D01*
G01*
X116650000Y-70350000D01*
G75*
G02*
X116550000Y-70450000I-100000J0D01*
G01*
X115100000Y-70450000D01*
G75*
G02*
X115000000Y-70350000I0J100000D01*
G01*
G37*
G36*
G01*
X115000000Y-70850000D02*
X115000000Y-70650000D01*
G75*
G02*
X115100000Y-70550000I100000J0D01*
G01*
X116550000Y-70550000D01*
G75*
G02*
X116650000Y-70650000I0J-100000D01*
G01*
X116650000Y-70850000D01*
G75*
G02*
X116550000Y-70950000I-100000J0D01*
G01*
X115100000Y-70950000D01*
G75*
G02*
X115000000Y-70850000I0J100000D01*
G01*
G37*
G36*
G01*
X115000000Y-71350000D02*
X115000000Y-71150000D01*
G75*
G02*
X115100000Y-71050000I100000J0D01*
G01*
X116550000Y-71050000D01*
G75*
G02*
X116650000Y-71150000I0J-100000D01*
G01*
X116650000Y-71350000D01*
G75*
G02*
X116550000Y-71450000I-100000J0D01*
G01*
X115100000Y-71450000D01*
G75*
G02*
X115000000Y-71350000I0J100000D01*
G01*
G37*
G36*
G01*
X115000000Y-71850000D02*
X115000000Y-71650000D01*
G75*
G02*
X115100000Y-71550000I100000J0D01*
G01*
X116550000Y-71550000D01*
G75*
G02*
X116650000Y-71650000I0J-100000D01*
G01*
X116650000Y-71850000D01*
G75*
G02*
X116550000Y-71950000I-100000J0D01*
G01*
X115100000Y-71950000D01*
G75*
G02*
X115000000Y-71850000I0J100000D01*
G01*
G37*
G36*
G01*
X115000000Y-72350000D02*
X115000000Y-72150000D01*
G75*
G02*
X115100000Y-72050000I100000J0D01*
G01*
X116550000Y-72050000D01*
G75*
G02*
X116650000Y-72150000I0J-100000D01*
G01*
X116650000Y-72350000D01*
G75*
G02*
X116550000Y-72450000I-100000J0D01*
G01*
X115100000Y-72450000D01*
G75*
G02*
X115000000Y-72350000I0J100000D01*
G01*
G37*
G36*
G01*
X115000000Y-72850000D02*
X115000000Y-72650000D01*
G75*
G02*
X115100000Y-72550000I100000J0D01*
G01*
X116550000Y-72550000D01*
G75*
G02*
X116650000Y-72650000I0J-100000D01*
G01*
X116650000Y-72850000D01*
G75*
G02*
X116550000Y-72950000I-100000J0D01*
G01*
X115100000Y-72950000D01*
G75*
G02*
X115000000Y-72850000I0J100000D01*
G01*
G37*
G36*
G01*
X115000000Y-73350000D02*
X115000000Y-73150000D01*
G75*
G02*
X115100000Y-73050000I100000J0D01*
G01*
X116550000Y-73050000D01*
G75*
G02*
X116650000Y-73150000I0J-100000D01*
G01*
X116650000Y-73350000D01*
G75*
G02*
X116550000Y-73450000I-100000J0D01*
G01*
X115100000Y-73450000D01*
G75*
G02*
X115000000Y-73350000I0J100000D01*
G01*
G37*
G36*
G01*
X115000000Y-73850000D02*
X115000000Y-73650000D01*
G75*
G02*
X115100000Y-73550000I100000J0D01*
G01*
X116550000Y-73550000D01*
G75*
G02*
X116650000Y-73650000I0J-100000D01*
G01*
X116650000Y-73850000D01*
G75*
G02*
X116550000Y-73950000I-100000J0D01*
G01*
X115100000Y-73950000D01*
G75*
G02*
X115000000Y-73850000I0J100000D01*
G01*
G37*
G36*
G01*
X113700000Y-76400000D02*
X113700000Y-74950000D01*
G75*
G02*
X113800000Y-74850000I100000J0D01*
G01*
X114000000Y-74850000D01*
G75*
G02*
X114100000Y-74950000I0J-100000D01*
G01*
X114100000Y-76400000D01*
G75*
G02*
X114000000Y-76500000I-100000J0D01*
G01*
X113800000Y-76500000D01*
G75*
G02*
X113700000Y-76400000I0J100000D01*
G01*
G37*
G36*
G01*
X113200000Y-76400000D02*
X113200000Y-74950000D01*
G75*
G02*
X113300000Y-74850000I100000J0D01*
G01*
X113500000Y-74850000D01*
G75*
G02*
X113600000Y-74950000I0J-100000D01*
G01*
X113600000Y-76400000D01*
G75*
G02*
X113500000Y-76500000I-100000J0D01*
G01*
X113300000Y-76500000D01*
G75*
G02*
X113200000Y-76400000I0J100000D01*
G01*
G37*
G36*
G01*
X112700000Y-76400000D02*
X112700000Y-74950000D01*
G75*
G02*
X112800000Y-74850000I100000J0D01*
G01*
X113000000Y-74850000D01*
G75*
G02*
X113100000Y-74950000I0J-100000D01*
G01*
X113100000Y-76400000D01*
G75*
G02*
X113000000Y-76500000I-100000J0D01*
G01*
X112800000Y-76500000D01*
G75*
G02*
X112700000Y-76400000I0J100000D01*
G01*
G37*
G36*
G01*
X112200000Y-76400000D02*
X112200000Y-74950000D01*
G75*
G02*
X112300000Y-74850000I100000J0D01*
G01*
X112500000Y-74850000D01*
G75*
G02*
X112600000Y-74950000I0J-100000D01*
G01*
X112600000Y-76400000D01*
G75*
G02*
X112500000Y-76500000I-100000J0D01*
G01*
X112300000Y-76500000D01*
G75*
G02*
X112200000Y-76400000I0J100000D01*
G01*
G37*
G36*
G01*
X111700000Y-76400000D02*
X111700000Y-74950000D01*
G75*
G02*
X111800000Y-74850000I100000J0D01*
G01*
X112000000Y-74850000D01*
G75*
G02*
X112100000Y-74950000I0J-100000D01*
G01*
X112100000Y-76400000D01*
G75*
G02*
X112000000Y-76500000I-100000J0D01*
G01*
X111800000Y-76500000D01*
G75*
G02*
X111700000Y-76400000I0J100000D01*
G01*
G37*
G36*
G01*
X111200000Y-76400000D02*
X111200000Y-74950000D01*
G75*
G02*
X111300000Y-74850000I100000J0D01*
G01*
X111500000Y-74850000D01*
G75*
G02*
X111600000Y-74950000I0J-100000D01*
G01*
X111600000Y-76400000D01*
G75*
G02*
X111500000Y-76500000I-100000J0D01*
G01*
X111300000Y-76500000D01*
G75*
G02*
X111200000Y-76400000I0J100000D01*
G01*
G37*
G36*
G01*
X110700000Y-76400000D02*
X110700000Y-74950000D01*
G75*
G02*
X110800000Y-74850000I100000J0D01*
G01*
X111000000Y-74850000D01*
G75*
G02*
X111100000Y-74950000I0J-100000D01*
G01*
X111100000Y-76400000D01*
G75*
G02*
X111000000Y-76500000I-100000J0D01*
G01*
X110800000Y-76500000D01*
G75*
G02*
X110700000Y-76400000I0J100000D01*
G01*
G37*
G36*
G01*
X110200000Y-76400000D02*
X110200000Y-74950000D01*
G75*
G02*
X110300000Y-74850000I100000J0D01*
G01*
X110500000Y-74850000D01*
G75*
G02*
X110600000Y-74950000I0J-100000D01*
G01*
X110600000Y-76400000D01*
G75*
G02*
X110500000Y-76500000I-100000J0D01*
G01*
X110300000Y-76500000D01*
G75*
G02*
X110200000Y-76400000I0J100000D01*
G01*
G37*
G36*
G01*
X109700000Y-76400000D02*
X109700000Y-74950000D01*
G75*
G02*
X109800000Y-74850000I100000J0D01*
G01*
X110000000Y-74850000D01*
G75*
G02*
X110100000Y-74950000I0J-100000D01*
G01*
X110100000Y-76400000D01*
G75*
G02*
X110000000Y-76500000I-100000J0D01*
G01*
X109800000Y-76500000D01*
G75*
G02*
X109700000Y-76400000I0J100000D01*
G01*
G37*
G36*
G01*
X109200000Y-76400000D02*
X109200000Y-74950000D01*
G75*
G02*
X109300000Y-74850000I100000J0D01*
G01*
X109500000Y-74850000D01*
G75*
G02*
X109600000Y-74950000I0J-100000D01*
G01*
X109600000Y-76400000D01*
G75*
G02*
X109500000Y-76500000I-100000J0D01*
G01*
X109300000Y-76500000D01*
G75*
G02*
X109200000Y-76400000I0J100000D01*
G01*
G37*
G36*
G01*
X108700000Y-76400000D02*
X108700000Y-74950000D01*
G75*
G02*
X108800000Y-74850000I100000J0D01*
G01*
X109000000Y-74850000D01*
G75*
G02*
X109100000Y-74950000I0J-100000D01*
G01*
X109100000Y-76400000D01*
G75*
G02*
X109000000Y-76500000I-100000J0D01*
G01*
X108800000Y-76500000D01*
G75*
G02*
X108700000Y-76400000I0J100000D01*
G01*
G37*
G36*
G01*
X108200000Y-76400000D02*
X108200000Y-74950000D01*
G75*
G02*
X108300000Y-74850000I100000J0D01*
G01*
X108500000Y-74850000D01*
G75*
G02*
X108600000Y-74950000I0J-100000D01*
G01*
X108600000Y-76400000D01*
G75*
G02*
X108500000Y-76500000I-100000J0D01*
G01*
X108300000Y-76500000D01*
G75*
G02*
X108200000Y-76400000I0J100000D01*
G01*
G37*
G36*
G01*
X107700000Y-76400000D02*
X107700000Y-74950000D01*
G75*
G02*
X107800000Y-74850000I100000J0D01*
G01*
X108000000Y-74850000D01*
G75*
G02*
X108100000Y-74950000I0J-100000D01*
G01*
X108100000Y-76400000D01*
G75*
G02*
X108000000Y-76500000I-100000J0D01*
G01*
X107800000Y-76500000D01*
G75*
G02*
X107700000Y-76400000I0J100000D01*
G01*
G37*
G36*
G01*
X107200000Y-76400000D02*
X107200000Y-74950000D01*
G75*
G02*
X107300000Y-74850000I100000J0D01*
G01*
X107500000Y-74850000D01*
G75*
G02*
X107600000Y-74950000I0J-100000D01*
G01*
X107600000Y-76400000D01*
G75*
G02*
X107500000Y-76500000I-100000J0D01*
G01*
X107300000Y-76500000D01*
G75*
G02*
X107200000Y-76400000I0J100000D01*
G01*
G37*
G36*
G01*
X106700000Y-76400000D02*
X106700000Y-74950000D01*
G75*
G02*
X106800000Y-74850000I100000J0D01*
G01*
X107000000Y-74850000D01*
G75*
G02*
X107100000Y-74950000I0J-100000D01*
G01*
X107100000Y-76400000D01*
G75*
G02*
X107000000Y-76500000I-100000J0D01*
G01*
X106800000Y-76500000D01*
G75*
G02*
X106700000Y-76400000I0J100000D01*
G01*
G37*
G36*
G01*
X106200000Y-76400000D02*
X106200000Y-74950000D01*
G75*
G02*
X106300000Y-74850000I100000J0D01*
G01*
X106500000Y-74850000D01*
G75*
G02*
X106600000Y-74950000I0J-100000D01*
G01*
X106600000Y-76400000D01*
G75*
G02*
X106500000Y-76500000I-100000J0D01*
G01*
X106300000Y-76500000D01*
G75*
G02*
X106200000Y-76400000I0J100000D01*
G01*
G37*
G36*
G01*
X103650000Y-73850000D02*
X103650000Y-73650000D01*
G75*
G02*
X103750000Y-73550000I100000J0D01*
G01*
X105200000Y-73550000D01*
G75*
G02*
X105300000Y-73650000I0J-100000D01*
G01*
X105300000Y-73850000D01*
G75*
G02*
X105200000Y-73950000I-100000J0D01*
G01*
X103750000Y-73950000D01*
G75*
G02*
X103650000Y-73850000I0J100000D01*
G01*
G37*
G36*
G01*
X103650000Y-73350000D02*
X103650000Y-73150000D01*
G75*
G02*
X103750000Y-73050000I100000J0D01*
G01*
X105200000Y-73050000D01*
G75*
G02*
X105300000Y-73150000I0J-100000D01*
G01*
X105300000Y-73350000D01*
G75*
G02*
X105200000Y-73450000I-100000J0D01*
G01*
X103750000Y-73450000D01*
G75*
G02*
X103650000Y-73350000I0J100000D01*
G01*
G37*
G36*
G01*
X103650000Y-72850000D02*
X103650000Y-72650000D01*
G75*
G02*
X103750000Y-72550000I100000J0D01*
G01*
X105200000Y-72550000D01*
G75*
G02*
X105300000Y-72650000I0J-100000D01*
G01*
X105300000Y-72850000D01*
G75*
G02*
X105200000Y-72950000I-100000J0D01*
G01*
X103750000Y-72950000D01*
G75*
G02*
X103650000Y-72850000I0J100000D01*
G01*
G37*
G36*
G01*
X103650000Y-72350000D02*
X103650000Y-72150000D01*
G75*
G02*
X103750000Y-72050000I100000J0D01*
G01*
X105200000Y-72050000D01*
G75*
G02*
X105300000Y-72150000I0J-100000D01*
G01*
X105300000Y-72350000D01*
G75*
G02*
X105200000Y-72450000I-100000J0D01*
G01*
X103750000Y-72450000D01*
G75*
G02*
X103650000Y-72350000I0J100000D01*
G01*
G37*
G36*
G01*
X103650000Y-71850000D02*
X103650000Y-71650000D01*
G75*
G02*
X103750000Y-71550000I100000J0D01*
G01*
X105200000Y-71550000D01*
G75*
G02*
X105300000Y-71650000I0J-100000D01*
G01*
X105300000Y-71850000D01*
G75*
G02*
X105200000Y-71950000I-100000J0D01*
G01*
X103750000Y-71950000D01*
G75*
G02*
X103650000Y-71850000I0J100000D01*
G01*
G37*
G36*
G01*
X103650000Y-71350000D02*
X103650000Y-71150000D01*
G75*
G02*
X103750000Y-71050000I100000J0D01*
G01*
X105200000Y-71050000D01*
G75*
G02*
X105300000Y-71150000I0J-100000D01*
G01*
X105300000Y-71350000D01*
G75*
G02*
X105200000Y-71450000I-100000J0D01*
G01*
X103750000Y-71450000D01*
G75*
G02*
X103650000Y-71350000I0J100000D01*
G01*
G37*
G36*
G01*
X103650000Y-70850000D02*
X103650000Y-70650000D01*
G75*
G02*
X103750000Y-70550000I100000J0D01*
G01*
X105200000Y-70550000D01*
G75*
G02*
X105300000Y-70650000I0J-100000D01*
G01*
X105300000Y-70850000D01*
G75*
G02*
X105200000Y-70950000I-100000J0D01*
G01*
X103750000Y-70950000D01*
G75*
G02*
X103650000Y-70850000I0J100000D01*
G01*
G37*
G36*
G01*
X103650000Y-70350000D02*
X103650000Y-70150000D01*
G75*
G02*
X103750000Y-70050000I100000J0D01*
G01*
X105200000Y-70050000D01*
G75*
G02*
X105300000Y-70150000I0J-100000D01*
G01*
X105300000Y-70350000D01*
G75*
G02*
X105200000Y-70450000I-100000J0D01*
G01*
X103750000Y-70450000D01*
G75*
G02*
X103650000Y-70350000I0J100000D01*
G01*
G37*
G36*
G01*
X103650000Y-69850000D02*
X103650000Y-69650000D01*
G75*
G02*
X103750000Y-69550000I100000J0D01*
G01*
X105200000Y-69550000D01*
G75*
G02*
X105300000Y-69650000I0J-100000D01*
G01*
X105300000Y-69850000D01*
G75*
G02*
X105200000Y-69950000I-100000J0D01*
G01*
X103750000Y-69950000D01*
G75*
G02*
X103650000Y-69850000I0J100000D01*
G01*
G37*
G36*
G01*
X103650000Y-69350000D02*
X103650000Y-69150000D01*
G75*
G02*
X103750000Y-69050000I100000J0D01*
G01*
X105200000Y-69050000D01*
G75*
G02*
X105300000Y-69150000I0J-100000D01*
G01*
X105300000Y-69350000D01*
G75*
G02*
X105200000Y-69450000I-100000J0D01*
G01*
X103750000Y-69450000D01*
G75*
G02*
X103650000Y-69350000I0J100000D01*
G01*
G37*
G36*
G01*
X103650000Y-68850000D02*
X103650000Y-68650000D01*
G75*
G02*
X103750000Y-68550000I100000J0D01*
G01*
X105200000Y-68550000D01*
G75*
G02*
X105300000Y-68650000I0J-100000D01*
G01*
X105300000Y-68850000D01*
G75*
G02*
X105200000Y-68950000I-100000J0D01*
G01*
X103750000Y-68950000D01*
G75*
G02*
X103650000Y-68850000I0J100000D01*
G01*
G37*
G36*
G01*
X103650000Y-68350000D02*
X103650000Y-68150000D01*
G75*
G02*
X103750000Y-68050000I100000J0D01*
G01*
X105200000Y-68050000D01*
G75*
G02*
X105300000Y-68150000I0J-100000D01*
G01*
X105300000Y-68350000D01*
G75*
G02*
X105200000Y-68450000I-100000J0D01*
G01*
X103750000Y-68450000D01*
G75*
G02*
X103650000Y-68350000I0J100000D01*
G01*
G37*
G36*
G01*
X103650000Y-67850000D02*
X103650000Y-67650000D01*
G75*
G02*
X103750000Y-67550000I100000J0D01*
G01*
X105200000Y-67550000D01*
G75*
G02*
X105300000Y-67650000I0J-100000D01*
G01*
X105300000Y-67850000D01*
G75*
G02*
X105200000Y-67950000I-100000J0D01*
G01*
X103750000Y-67950000D01*
G75*
G02*
X103650000Y-67850000I0J100000D01*
G01*
G37*
G36*
G01*
X103650000Y-67350000D02*
X103650000Y-67150000D01*
G75*
G02*
X103750000Y-67050000I100000J0D01*
G01*
X105200000Y-67050000D01*
G75*
G02*
X105300000Y-67150000I0J-100000D01*
G01*
X105300000Y-67350000D01*
G75*
G02*
X105200000Y-67450000I-100000J0D01*
G01*
X103750000Y-67450000D01*
G75*
G02*
X103650000Y-67350000I0J100000D01*
G01*
G37*
G36*
G01*
X103650000Y-66850000D02*
X103650000Y-66650000D01*
G75*
G02*
X103750000Y-66550000I100000J0D01*
G01*
X105200000Y-66550000D01*
G75*
G02*
X105300000Y-66650000I0J-100000D01*
G01*
X105300000Y-66850000D01*
G75*
G02*
X105200000Y-66950000I-100000J0D01*
G01*
X103750000Y-66950000D01*
G75*
G02*
X103650000Y-66850000I0J100000D01*
G01*
G37*
G36*
G01*
X103650000Y-66350000D02*
X103650000Y-66150000D01*
G75*
G02*
X103750000Y-66050000I100000J0D01*
G01*
X105200000Y-66050000D01*
G75*
G02*
X105300000Y-66150000I0J-100000D01*
G01*
X105300000Y-66350000D01*
G75*
G02*
X105200000Y-66450000I-100000J0D01*
G01*
X103750000Y-66450000D01*
G75*
G02*
X103650000Y-66350000I0J100000D01*
G01*
G37*
%TD*%
%TO.C,R3*%
G36*
G01*
X111024750Y-79394000D02*
X111987250Y-79394000D01*
G75*
G02*
X112256000Y-79662750I0J-268750D01*
G01*
X112256000Y-80200250D01*
G75*
G02*
X111987250Y-80469000I-268750J0D01*
G01*
X111024750Y-80469000D01*
G75*
G02*
X110756000Y-80200250I0J268750D01*
G01*
X110756000Y-79662750D01*
G75*
G02*
X111024750Y-79394000I268750J0D01*
G01*
G37*
G36*
G01*
X111024750Y-77519000D02*
X111987250Y-77519000D01*
G75*
G02*
X112256000Y-77787750I0J-268750D01*
G01*
X112256000Y-78325250D01*
G75*
G02*
X111987250Y-78594000I-268750J0D01*
G01*
X111024750Y-78594000D01*
G75*
G02*
X110756000Y-78325250I0J268750D01*
G01*
X110756000Y-77787750D01*
G75*
G02*
X111024750Y-77519000I268750J0D01*
G01*
G37*
%TD*%
%TO.C,R2*%
G36*
G01*
X98914000Y-62510750D02*
X98914000Y-63473250D01*
G75*
G02*
X98645250Y-63742000I-268750J0D01*
G01*
X98107750Y-63742000D01*
G75*
G02*
X97839000Y-63473250I0J268750D01*
G01*
X97839000Y-62510750D01*
G75*
G02*
X98107750Y-62242000I268750J0D01*
G01*
X98645250Y-62242000D01*
G75*
G02*
X98914000Y-62510750I0J-268750D01*
G01*
G37*
G36*
G01*
X100789000Y-62510750D02*
X100789000Y-63473250D01*
G75*
G02*
X100520250Y-63742000I-268750J0D01*
G01*
X99982750Y-63742000D01*
G75*
G02*
X99714000Y-63473250I0J268750D01*
G01*
X99714000Y-62510750D01*
G75*
G02*
X99982750Y-62242000I268750J0D01*
G01*
X100520250Y-62242000D01*
G75*
G02*
X100789000Y-62510750I0J-268750D01*
G01*
G37*
%TD*%
%TO.C,R1*%
G36*
G01*
X90890000Y-72468750D02*
X90890000Y-73031250D01*
G75*
G02*
X90646250Y-73275000I-243750J0D01*
G01*
X90158750Y-73275000D01*
G75*
G02*
X89915000Y-73031250I0J243750D01*
G01*
X89915000Y-72468750D01*
G75*
G02*
X90158750Y-72225000I243750J0D01*
G01*
X90646250Y-72225000D01*
G75*
G02*
X90890000Y-72468750I0J-243750D01*
G01*
G37*
G36*
G01*
X92465000Y-72468750D02*
X92465000Y-73031250D01*
G75*
G02*
X92221250Y-73275000I-243750J0D01*
G01*
X91733750Y-73275000D01*
G75*
G02*
X91490000Y-73031250I0J243750D01*
G01*
X91490000Y-72468750D01*
G75*
G02*
X91733750Y-72225000I243750J0D01*
G01*
X92221250Y-72225000D01*
G75*
G02*
X92465000Y-72468750I0J-243750D01*
G01*
G37*
%TD*%
D23*
%TO.C,HSE1*%
X99850000Y-66750000D03*
X99850000Y-68950000D03*
X98150000Y-68950000D03*
X98150000Y-66750000D03*
%TD*%
%TO.C,D2*%
G36*
G01*
X93831250Y-71200000D02*
X93268750Y-71200000D01*
G75*
G02*
X93025000Y-70956250I0J243750D01*
G01*
X93025000Y-70468750D01*
G75*
G02*
X93268750Y-70225000I243750J0D01*
G01*
X93831250Y-70225000D01*
G75*
G02*
X94075000Y-70468750I0J-243750D01*
G01*
X94075000Y-70956250D01*
G75*
G02*
X93831250Y-71200000I-243750J0D01*
G01*
G37*
G36*
G01*
X93831250Y-72775000D02*
X93268750Y-72775000D01*
G75*
G02*
X93025000Y-72531250I0J243750D01*
G01*
X93025000Y-72043750D01*
G75*
G02*
X93268750Y-71800000I243750J0D01*
G01*
X93831250Y-71800000D01*
G75*
G02*
X94075000Y-72043750I0J-243750D01*
G01*
X94075000Y-72531250D01*
G75*
G02*
X93831250Y-72775000I-243750J0D01*
G01*
G37*
%TD*%
%TO.C,C21*%
G36*
G01*
X99110000Y-70402500D02*
X99110000Y-70797500D01*
G75*
G02*
X98937500Y-70970000I-172500J0D01*
G01*
X98592500Y-70970000D01*
G75*
G02*
X98420000Y-70797500I0J172500D01*
G01*
X98420000Y-70402500D01*
G75*
G02*
X98592500Y-70230000I172500J0D01*
G01*
X98937500Y-70230000D01*
G75*
G02*
X99110000Y-70402500I0J-172500D01*
G01*
G37*
G36*
G01*
X100080000Y-70402500D02*
X100080000Y-70797500D01*
G75*
G02*
X99907500Y-70970000I-172500J0D01*
G01*
X99562500Y-70970000D01*
G75*
G02*
X99390000Y-70797500I0J172500D01*
G01*
X99390000Y-70402500D01*
G75*
G02*
X99562500Y-70230000I172500J0D01*
G01*
X99907500Y-70230000D01*
G75*
G02*
X100080000Y-70402500I0J-172500D01*
G01*
G37*
%TD*%
%TO.C,C20*%
G36*
G01*
X99140000Y-65297500D02*
X99140000Y-64902500D01*
G75*
G02*
X99312500Y-64730000I172500J0D01*
G01*
X99657500Y-64730000D01*
G75*
G02*
X99830000Y-64902500I0J-172500D01*
G01*
X99830000Y-65297500D01*
G75*
G02*
X99657500Y-65470000I-172500J0D01*
G01*
X99312500Y-65470000D01*
G75*
G02*
X99140000Y-65297500I0J172500D01*
G01*
G37*
G36*
G01*
X98170000Y-65297500D02*
X98170000Y-64902500D01*
G75*
G02*
X98342500Y-64730000I172500J0D01*
G01*
X98687500Y-64730000D01*
G75*
G02*
X98860000Y-64902500I0J-172500D01*
G01*
X98860000Y-65297500D01*
G75*
G02*
X98687500Y-65470000I-172500J0D01*
G01*
X98342500Y-65470000D01*
G75*
G02*
X98170000Y-65297500I0J172500D01*
G01*
G37*
%TD*%
%TO.C,C19*%
G36*
G01*
X113118750Y-79100000D02*
X113681250Y-79100000D01*
G75*
G02*
X113925000Y-79343750I0J-243750D01*
G01*
X113925000Y-79831250D01*
G75*
G02*
X113681250Y-80075000I-243750J0D01*
G01*
X113118750Y-80075000D01*
G75*
G02*
X112875000Y-79831250I0J243750D01*
G01*
X112875000Y-79343750D01*
G75*
G02*
X113118750Y-79100000I243750J0D01*
G01*
G37*
G36*
G01*
X113118750Y-77525000D02*
X113681250Y-77525000D01*
G75*
G02*
X113925000Y-77768750I0J-243750D01*
G01*
X113925000Y-78256250D01*
G75*
G02*
X113681250Y-78500000I-243750J0D01*
G01*
X113118750Y-78500000D01*
G75*
G02*
X112875000Y-78256250I0J243750D01*
G01*
X112875000Y-77768750D01*
G75*
G02*
X113118750Y-77525000I243750J0D01*
G01*
G37*
%TD*%
%TO.C,C12*%
G36*
G01*
X107052500Y-78605000D02*
X107447500Y-78605000D01*
G75*
G02*
X107620000Y-78777500I0J-172500D01*
G01*
X107620000Y-79122500D01*
G75*
G02*
X107447500Y-79295000I-172500J0D01*
G01*
X107052500Y-79295000D01*
G75*
G02*
X106880000Y-79122500I0J172500D01*
G01*
X106880000Y-78777500D01*
G75*
G02*
X107052500Y-78605000I172500J0D01*
G01*
G37*
G36*
G01*
X107052500Y-77635000D02*
X107447500Y-77635000D01*
G75*
G02*
X107620000Y-77807500I0J-172500D01*
G01*
X107620000Y-78152500D01*
G75*
G02*
X107447500Y-78325000I-172500J0D01*
G01*
X107052500Y-78325000D01*
G75*
G02*
X106880000Y-78152500I0J172500D01*
G01*
X106880000Y-77807500D01*
G75*
G02*
X107052500Y-77635000I172500J0D01*
G01*
G37*
%TD*%
%TO.C,C11*%
G36*
G01*
X105852500Y-78590000D02*
X106247500Y-78590000D01*
G75*
G02*
X106420000Y-78762500I0J-172500D01*
G01*
X106420000Y-79107500D01*
G75*
G02*
X106247500Y-79280000I-172500J0D01*
G01*
X105852500Y-79280000D01*
G75*
G02*
X105680000Y-79107500I0J172500D01*
G01*
X105680000Y-78762500D01*
G75*
G02*
X105852500Y-78590000I172500J0D01*
G01*
G37*
G36*
G01*
X105852500Y-77620000D02*
X106247500Y-77620000D01*
G75*
G02*
X106420000Y-77792500I0J-172500D01*
G01*
X106420000Y-78137500D01*
G75*
G02*
X106247500Y-78310000I-172500J0D01*
G01*
X105852500Y-78310000D01*
G75*
G02*
X105680000Y-78137500I0J172500D01*
G01*
X105680000Y-77792500D01*
G75*
G02*
X105852500Y-77620000I172500J0D01*
G01*
G37*
%TD*%
%TO.C,C10*%
G36*
G01*
X114852500Y-76490000D02*
X115247500Y-76490000D01*
G75*
G02*
X115420000Y-76662500I0J-172500D01*
G01*
X115420000Y-77007500D01*
G75*
G02*
X115247500Y-77180000I-172500J0D01*
G01*
X114852500Y-77180000D01*
G75*
G02*
X114680000Y-77007500I0J172500D01*
G01*
X114680000Y-76662500D01*
G75*
G02*
X114852500Y-76490000I172500J0D01*
G01*
G37*
G36*
G01*
X114852500Y-75520000D02*
X115247500Y-75520000D01*
G75*
G02*
X115420000Y-75692500I0J-172500D01*
G01*
X115420000Y-76037500D01*
G75*
G02*
X115247500Y-76210000I-172500J0D01*
G01*
X114852500Y-76210000D01*
G75*
G02*
X114680000Y-76037500I0J172500D01*
G01*
X114680000Y-75692500D01*
G75*
G02*
X114852500Y-75520000I172500J0D01*
G01*
G37*
%TD*%
%TO.C,C9*%
G36*
G01*
X116052500Y-76490000D02*
X116447500Y-76490000D01*
G75*
G02*
X116620000Y-76662500I0J-172500D01*
G01*
X116620000Y-77007500D01*
G75*
G02*
X116447500Y-77180000I-172500J0D01*
G01*
X116052500Y-77180000D01*
G75*
G02*
X115880000Y-77007500I0J172500D01*
G01*
X115880000Y-76662500D01*
G75*
G02*
X116052500Y-76490000I172500J0D01*
G01*
G37*
G36*
G01*
X116052500Y-75520000D02*
X116447500Y-75520000D01*
G75*
G02*
X116620000Y-75692500I0J-172500D01*
G01*
X116620000Y-76037500D01*
G75*
G02*
X116447500Y-76210000I-172500J0D01*
G01*
X116052500Y-76210000D01*
G75*
G02*
X115880000Y-76037500I0J172500D01*
G01*
X115880000Y-75692500D01*
G75*
G02*
X116052500Y-75520000I172500J0D01*
G01*
G37*
%TD*%
%TO.C,C8*%
G36*
G01*
X116790000Y-65347500D02*
X116790000Y-64952500D01*
G75*
G02*
X116962500Y-64780000I172500J0D01*
G01*
X117307500Y-64780000D01*
G75*
G02*
X117480000Y-64952500I0J-172500D01*
G01*
X117480000Y-65347500D01*
G75*
G02*
X117307500Y-65520000I-172500J0D01*
G01*
X116962500Y-65520000D01*
G75*
G02*
X116790000Y-65347500I0J172500D01*
G01*
G37*
G36*
G01*
X115820000Y-65347500D02*
X115820000Y-64952500D01*
G75*
G02*
X115992500Y-64780000I172500J0D01*
G01*
X116337500Y-64780000D01*
G75*
G02*
X116510000Y-64952500I0J-172500D01*
G01*
X116510000Y-65347500D01*
G75*
G02*
X116337500Y-65520000I-172500J0D01*
G01*
X115992500Y-65520000D01*
G75*
G02*
X115820000Y-65347500I0J172500D01*
G01*
G37*
%TD*%
%TO.C,C7*%
G36*
G01*
X116790000Y-64247500D02*
X116790000Y-63852500D01*
G75*
G02*
X116962500Y-63680000I172500J0D01*
G01*
X117307500Y-63680000D01*
G75*
G02*
X117480000Y-63852500I0J-172500D01*
G01*
X117480000Y-64247500D01*
G75*
G02*
X117307500Y-64420000I-172500J0D01*
G01*
X116962500Y-64420000D01*
G75*
G02*
X116790000Y-64247500I0J172500D01*
G01*
G37*
G36*
G01*
X115820000Y-64247500D02*
X115820000Y-63852500D01*
G75*
G02*
X115992500Y-63680000I172500J0D01*
G01*
X116337500Y-63680000D01*
G75*
G02*
X116510000Y-63852500I0J-172500D01*
G01*
X116510000Y-64247500D01*
G75*
G02*
X116337500Y-64420000I-172500J0D01*
G01*
X115992500Y-64420000D01*
G75*
G02*
X115820000Y-64247500I0J172500D01*
G01*
G37*
%TD*%
%TO.C,C6*%
G36*
G01*
X105547500Y-63510000D02*
X105152500Y-63510000D01*
G75*
G02*
X104980000Y-63337500I0J172500D01*
G01*
X104980000Y-62992500D01*
G75*
G02*
X105152500Y-62820000I172500J0D01*
G01*
X105547500Y-62820000D01*
G75*
G02*
X105720000Y-62992500I0J-172500D01*
G01*
X105720000Y-63337500D01*
G75*
G02*
X105547500Y-63510000I-172500J0D01*
G01*
G37*
G36*
G01*
X105547500Y-64480000D02*
X105152500Y-64480000D01*
G75*
G02*
X104980000Y-64307500I0J172500D01*
G01*
X104980000Y-63962500D01*
G75*
G02*
X105152500Y-63790000I172500J0D01*
G01*
X105547500Y-63790000D01*
G75*
G02*
X105720000Y-63962500I0J-172500D01*
G01*
X105720000Y-64307500D01*
G75*
G02*
X105547500Y-64480000I-172500J0D01*
G01*
G37*
%TD*%
%TO.C,C5*%
G36*
G01*
X104397500Y-63510000D02*
X104002500Y-63510000D01*
G75*
G02*
X103830000Y-63337500I0J172500D01*
G01*
X103830000Y-62992500D01*
G75*
G02*
X104002500Y-62820000I172500J0D01*
G01*
X104397500Y-62820000D01*
G75*
G02*
X104570000Y-62992500I0J-172500D01*
G01*
X104570000Y-63337500D01*
G75*
G02*
X104397500Y-63510000I-172500J0D01*
G01*
G37*
G36*
G01*
X104397500Y-64480000D02*
X104002500Y-64480000D01*
G75*
G02*
X103830000Y-64307500I0J172500D01*
G01*
X103830000Y-63962500D01*
G75*
G02*
X104002500Y-63790000I172500J0D01*
G01*
X104397500Y-63790000D01*
G75*
G02*
X104570000Y-63962500I0J-172500D01*
G01*
X104570000Y-64307500D01*
G75*
G02*
X104397500Y-64480000I-172500J0D01*
G01*
G37*
%TD*%
%TO.C,C4*%
G36*
G01*
X102202500Y-73540000D02*
X102597500Y-73540000D01*
G75*
G02*
X102770000Y-73712500I0J-172500D01*
G01*
X102770000Y-74057500D01*
G75*
G02*
X102597500Y-74230000I-172500J0D01*
G01*
X102202500Y-74230000D01*
G75*
G02*
X102030000Y-74057500I0J172500D01*
G01*
X102030000Y-73712500D01*
G75*
G02*
X102202500Y-73540000I172500J0D01*
G01*
G37*
G36*
G01*
X102202500Y-72570000D02*
X102597500Y-72570000D01*
G75*
G02*
X102770000Y-72742500I0J-172500D01*
G01*
X102770000Y-73087500D01*
G75*
G02*
X102597500Y-73260000I-172500J0D01*
G01*
X102202500Y-73260000D01*
G75*
G02*
X102030000Y-73087500I0J172500D01*
G01*
X102030000Y-72742500D01*
G75*
G02*
X102202500Y-72570000I172500J0D01*
G01*
G37*
%TD*%
%TO.C,C3*%
G36*
G01*
X117268750Y-77150000D02*
X117831250Y-77150000D01*
G75*
G02*
X118075000Y-77393750I0J-243750D01*
G01*
X118075000Y-77881250D01*
G75*
G02*
X117831250Y-78125000I-243750J0D01*
G01*
X117268750Y-78125000D01*
G75*
G02*
X117025000Y-77881250I0J243750D01*
G01*
X117025000Y-77393750D01*
G75*
G02*
X117268750Y-77150000I243750J0D01*
G01*
G37*
G36*
G01*
X117268750Y-75575000D02*
X117831250Y-75575000D01*
G75*
G02*
X118075000Y-75818750I0J-243750D01*
G01*
X118075000Y-76306250D01*
G75*
G02*
X117831250Y-76550000I-243750J0D01*
G01*
X117268750Y-76550000D01*
G75*
G02*
X117025000Y-76306250I0J243750D01*
G01*
X117025000Y-75818750D01*
G75*
G02*
X117268750Y-75575000I243750J0D01*
G01*
G37*
%TD*%
%TO.C,C2*%
G36*
G01*
X90600000Y-70368750D02*
X90600000Y-71331250D01*
G75*
G02*
X90331250Y-71600000I-268750J0D01*
G01*
X89793750Y-71600000D01*
G75*
G02*
X89525000Y-71331250I0J268750D01*
G01*
X89525000Y-70368750D01*
G75*
G02*
X89793750Y-70100000I268750J0D01*
G01*
X90331250Y-70100000D01*
G75*
G02*
X90600000Y-70368750I0J-268750D01*
G01*
G37*
G36*
G01*
X92475000Y-70368750D02*
X92475000Y-71331250D01*
G75*
G02*
X92206250Y-71600000I-268750J0D01*
G01*
X91668750Y-71600000D01*
G75*
G02*
X91400000Y-71331250I0J268750D01*
G01*
X91400000Y-70368750D01*
G75*
G02*
X91668750Y-70100000I268750J0D01*
G01*
X92206250Y-70100000D01*
G75*
G02*
X92475000Y-70368750I0J-268750D01*
G01*
G37*
%TD*%
%TO.C,C1*%
G36*
G01*
X86618750Y-63150000D02*
X87581250Y-63150000D01*
G75*
G02*
X87850000Y-63418750I0J-268750D01*
G01*
X87850000Y-63956250D01*
G75*
G02*
X87581250Y-64225000I-268750J0D01*
G01*
X86618750Y-64225000D01*
G75*
G02*
X86350000Y-63956250I0J268750D01*
G01*
X86350000Y-63418750D01*
G75*
G02*
X86618750Y-63150000I268750J0D01*
G01*
G37*
G36*
G01*
X86618750Y-61275000D02*
X87581250Y-61275000D01*
G75*
G02*
X87850000Y-61543750I0J-268750D01*
G01*
X87850000Y-62081250D01*
G75*
G02*
X87581250Y-62350000I-268750J0D01*
G01*
X86618750Y-62350000D01*
G75*
G02*
X86350000Y-62081250I0J268750D01*
G01*
X86350000Y-61543750D01*
G75*
G02*
X86618750Y-61275000I268750J0D01*
G01*
G37*
%TD*%
%TO.C,R14*%
G36*
G01*
X142743518Y-49975000D02*
X145656482Y-49975000D01*
G75*
G02*
X145925000Y-50243518I0J-268518D01*
G01*
X145925000Y-51156482D01*
G75*
G02*
X145656482Y-51425000I-268518J0D01*
G01*
X142743518Y-51425000D01*
G75*
G02*
X142475000Y-51156482I0J268518D01*
G01*
X142475000Y-50243518D01*
G75*
G02*
X142743518Y-49975000I268518J0D01*
G01*
G37*
G36*
G01*
X142743518Y-44175000D02*
X145656482Y-44175000D01*
G75*
G02*
X145925000Y-44443518I0J-268518D01*
G01*
X145925000Y-45356482D01*
G75*
G02*
X145656482Y-45625000I-268518J0D01*
G01*
X142743518Y-45625000D01*
G75*
G02*
X142475000Y-45356482I0J268518D01*
G01*
X142475000Y-44443518D01*
G75*
G02*
X142743518Y-44175000I268518J0D01*
G01*
G37*
%TD*%
%TO.C,R13*%
G36*
G01*
X145756482Y-61025000D02*
X142843518Y-61025000D01*
G75*
G02*
X142575000Y-60756482I0J268518D01*
G01*
X142575000Y-59843518D01*
G75*
G02*
X142843518Y-59575000I268518J0D01*
G01*
X145756482Y-59575000D01*
G75*
G02*
X146025000Y-59843518I0J-268518D01*
G01*
X146025000Y-60756482D01*
G75*
G02*
X145756482Y-61025000I-268518J0D01*
G01*
G37*
G36*
G01*
X145756482Y-66825000D02*
X142843518Y-66825000D01*
G75*
G02*
X142575000Y-66556482I0J268518D01*
G01*
X142575000Y-65643518D01*
G75*
G02*
X142843518Y-65375000I268518J0D01*
G01*
X145756482Y-65375000D01*
G75*
G02*
X146025000Y-65643518I0J-268518D01*
G01*
X146025000Y-66556482D01*
G75*
G02*
X145756482Y-66825000I-268518J0D01*
G01*
G37*
%TD*%
%TO.C,R11*%
G36*
G01*
X138850000Y-60381250D02*
X138850000Y-59418750D01*
G75*
G02*
X139118750Y-59150000I268750J0D01*
G01*
X139656250Y-59150000D01*
G75*
G02*
X139925000Y-59418750I0J-268750D01*
G01*
X139925000Y-60381250D01*
G75*
G02*
X139656250Y-60650000I-268750J0D01*
G01*
X139118750Y-60650000D01*
G75*
G02*
X138850000Y-60381250I0J268750D01*
G01*
G37*
G36*
G01*
X136975000Y-60381250D02*
X136975000Y-59418750D01*
G75*
G02*
X137243750Y-59150000I268750J0D01*
G01*
X137781250Y-59150000D01*
G75*
G02*
X138050000Y-59418750I0J-268750D01*
G01*
X138050000Y-60381250D01*
G75*
G02*
X137781250Y-60650000I-268750J0D01*
G01*
X137243750Y-60650000D01*
G75*
G02*
X136975000Y-60381250I0J268750D01*
G01*
G37*
%TD*%
%TO.C,R10*%
G36*
G01*
X138800000Y-67881250D02*
X138800000Y-66918750D01*
G75*
G02*
X139068750Y-66650000I268750J0D01*
G01*
X139606250Y-66650000D01*
G75*
G02*
X139875000Y-66918750I0J-268750D01*
G01*
X139875000Y-67881250D01*
G75*
G02*
X139606250Y-68150000I-268750J0D01*
G01*
X139068750Y-68150000D01*
G75*
G02*
X138800000Y-67881250I0J268750D01*
G01*
G37*
G36*
G01*
X136925000Y-67881250D02*
X136925000Y-66918750D01*
G75*
G02*
X137193750Y-66650000I268750J0D01*
G01*
X137731250Y-66650000D01*
G75*
G02*
X138000000Y-66918750I0J-268750D01*
G01*
X138000000Y-67881250D01*
G75*
G02*
X137731250Y-68150000I-268750J0D01*
G01*
X137193750Y-68150000D01*
G75*
G02*
X136925000Y-67881250I0J268750D01*
G01*
G37*
%TD*%
%TO.C,R8*%
G36*
G01*
X138800000Y-62981250D02*
X138800000Y-62018750D01*
G75*
G02*
X139068750Y-61750000I268750J0D01*
G01*
X139606250Y-61750000D01*
G75*
G02*
X139875000Y-62018750I0J-268750D01*
G01*
X139875000Y-62981250D01*
G75*
G02*
X139606250Y-63250000I-268750J0D01*
G01*
X139068750Y-63250000D01*
G75*
G02*
X138800000Y-62981250I0J268750D01*
G01*
G37*
G36*
G01*
X136925000Y-62981250D02*
X136925000Y-62018750D01*
G75*
G02*
X137193750Y-61750000I268750J0D01*
G01*
X137731250Y-61750000D01*
G75*
G02*
X138000000Y-62018750I0J-268750D01*
G01*
X138000000Y-62981250D01*
G75*
G02*
X137731250Y-63250000I-268750J0D01*
G01*
X137193750Y-63250000D01*
G75*
G02*
X136925000Y-62981250I0J268750D01*
G01*
G37*
%TD*%
%TO.C,R7*%
G36*
G01*
X138800000Y-65331250D02*
X138800000Y-64368750D01*
G75*
G02*
X139068750Y-64100000I268750J0D01*
G01*
X139606250Y-64100000D01*
G75*
G02*
X139875000Y-64368750I0J-268750D01*
G01*
X139875000Y-65331250D01*
G75*
G02*
X139606250Y-65600000I-268750J0D01*
G01*
X139068750Y-65600000D01*
G75*
G02*
X138800000Y-65331250I0J268750D01*
G01*
G37*
G36*
G01*
X136925000Y-65331250D02*
X136925000Y-64368750D01*
G75*
G02*
X137193750Y-64100000I268750J0D01*
G01*
X137731250Y-64100000D01*
G75*
G02*
X138000000Y-64368750I0J-268750D01*
G01*
X138000000Y-65331250D01*
G75*
G02*
X137731250Y-65600000I-268750J0D01*
G01*
X137193750Y-65600000D01*
G75*
G02*
X136925000Y-65331250I0J268750D01*
G01*
G37*
%TD*%
%TO.C,R4*%
G36*
G01*
X129768750Y-60450000D02*
X130331250Y-60450000D01*
G75*
G02*
X130575000Y-60693750I0J-243750D01*
G01*
X130575000Y-61181250D01*
G75*
G02*
X130331250Y-61425000I-243750J0D01*
G01*
X129768750Y-61425000D01*
G75*
G02*
X129525000Y-61181250I0J243750D01*
G01*
X129525000Y-60693750D01*
G75*
G02*
X129768750Y-60450000I243750J0D01*
G01*
G37*
G36*
G01*
X129768750Y-58875000D02*
X130331250Y-58875000D01*
G75*
G02*
X130575000Y-59118750I0J-243750D01*
G01*
X130575000Y-59606250D01*
G75*
G02*
X130331250Y-59850000I-243750J0D01*
G01*
X129768750Y-59850000D01*
G75*
G02*
X129525000Y-59606250I0J243750D01*
G01*
X129525000Y-59118750D01*
G75*
G02*
X129768750Y-58875000I243750J0D01*
G01*
G37*
%TD*%
%TO.C,R12*%
G36*
G01*
X142743518Y-76775000D02*
X145656482Y-76775000D01*
G75*
G02*
X145925000Y-77043518I0J-268518D01*
G01*
X145925000Y-77956482D01*
G75*
G02*
X145656482Y-78225000I-268518J0D01*
G01*
X142743518Y-78225000D01*
G75*
G02*
X142475000Y-77956482I0J268518D01*
G01*
X142475000Y-77043518D01*
G75*
G02*
X142743518Y-76775000I268518J0D01*
G01*
G37*
G36*
G01*
X142743518Y-70975000D02*
X145656482Y-70975000D01*
G75*
G02*
X145925000Y-71243518I0J-268518D01*
G01*
X145925000Y-72156482D01*
G75*
G02*
X145656482Y-72425000I-268518J0D01*
G01*
X142743518Y-72425000D01*
G75*
G02*
X142475000Y-72156482I0J268518D01*
G01*
X142475000Y-71243518D01*
G75*
G02*
X142743518Y-70975000I268518J0D01*
G01*
G37*
%TD*%
%TO.C,C18*%
G36*
G01*
X125700000Y-71018750D02*
X125700000Y-71581250D01*
G75*
G02*
X125456250Y-71825000I-243750J0D01*
G01*
X124968750Y-71825000D01*
G75*
G02*
X124725000Y-71581250I0J243750D01*
G01*
X124725000Y-71018750D01*
G75*
G02*
X124968750Y-70775000I243750J0D01*
G01*
X125456250Y-70775000D01*
G75*
G02*
X125700000Y-71018750I0J-243750D01*
G01*
G37*
G36*
G01*
X127275000Y-71018750D02*
X127275000Y-71581250D01*
G75*
G02*
X127031250Y-71825000I-243750J0D01*
G01*
X126543750Y-71825000D01*
G75*
G02*
X126300000Y-71581250I0J243750D01*
G01*
X126300000Y-71018750D01*
G75*
G02*
X126543750Y-70775000I243750J0D01*
G01*
X127031250Y-70775000D01*
G75*
G02*
X127275000Y-71018750I0J-243750D01*
G01*
G37*
%TD*%
%TO.C,C17*%
G36*
G01*
X128108500Y-72636750D02*
X128108500Y-73199250D01*
G75*
G02*
X127864750Y-73443000I-243750J0D01*
G01*
X127377250Y-73443000D01*
G75*
G02*
X127133500Y-73199250I0J243750D01*
G01*
X127133500Y-72636750D01*
G75*
G02*
X127377250Y-72393000I243750J0D01*
G01*
X127864750Y-72393000D01*
G75*
G02*
X128108500Y-72636750I0J-243750D01*
G01*
G37*
G36*
G01*
X129683500Y-72636750D02*
X129683500Y-73199250D01*
G75*
G02*
X129439750Y-73443000I-243750J0D01*
G01*
X128952250Y-73443000D01*
G75*
G02*
X128708500Y-73199250I0J243750D01*
G01*
X128708500Y-72636750D01*
G75*
G02*
X128952250Y-72393000I243750J0D01*
G01*
X129439750Y-72393000D01*
G75*
G02*
X129683500Y-72636750I0J-243750D01*
G01*
G37*
%TD*%
%TO.C,R6*%
G36*
G01*
X135300000Y-74781250D02*
X135300000Y-73818750D01*
G75*
G02*
X135568750Y-73550000I268750J0D01*
G01*
X136106250Y-73550000D01*
G75*
G02*
X136375000Y-73818750I0J-268750D01*
G01*
X136375000Y-74781250D01*
G75*
G02*
X136106250Y-75050000I-268750J0D01*
G01*
X135568750Y-75050000D01*
G75*
G02*
X135300000Y-74781250I0J268750D01*
G01*
G37*
G36*
G01*
X133425000Y-74781250D02*
X133425000Y-73818750D01*
G75*
G02*
X133693750Y-73550000I268750J0D01*
G01*
X134231250Y-73550000D01*
G75*
G02*
X134500000Y-73818750I0J-268750D01*
G01*
X134500000Y-74781250D01*
G75*
G02*
X134231250Y-75050000I-268750J0D01*
G01*
X133693750Y-75050000D01*
G75*
G02*
X133425000Y-74781250I0J268750D01*
G01*
G37*
%TD*%
%TO.C,C15*%
G36*
G01*
X126173250Y-73708500D02*
X125610750Y-73708500D01*
G75*
G02*
X125367000Y-73464750I0J243750D01*
G01*
X125367000Y-72977250D01*
G75*
G02*
X125610750Y-72733500I243750J0D01*
G01*
X126173250Y-72733500D01*
G75*
G02*
X126417000Y-72977250I0J-243750D01*
G01*
X126417000Y-73464750D01*
G75*
G02*
X126173250Y-73708500I-243750J0D01*
G01*
G37*
G36*
G01*
X126173250Y-75283500D02*
X125610750Y-75283500D01*
G75*
G02*
X125367000Y-75039750I0J243750D01*
G01*
X125367000Y-74552250D01*
G75*
G02*
X125610750Y-74308500I243750J0D01*
G01*
X126173250Y-74308500D01*
G75*
G02*
X126417000Y-74552250I0J-243750D01*
G01*
X126417000Y-75039750D01*
G75*
G02*
X126173250Y-75283500I-243750J0D01*
G01*
G37*
%TD*%
M02*
