M48
; DRILL file {KiCad (5.1.6)-1} date 04/02/21 16:52:29
; FORMAT={-:-/ absolute / metric / decimal}
; #@! TF.CreationDate,2021-04-02T16:52:29+02:00
; #@! TF.GenerationSoftware,Kicad,Pcbnew,(5.1.6)-1
; #@! TF.FileFunction,Plated,1,4,PTH
FMAT,2
METRIC
T1C0.200
T2C0.400
T3C1.000
T4C1.300
T5C2.700
%
G90
G05
T1
X128.855Y-65.854
X128.855Y-66.879
X128.855Y-67.904
X129.88Y-65.854
X129.88Y-66.879
X129.88Y-67.904
X130.905Y-65.854
X130.905Y-66.879
X130.905Y-67.904
T2
X83.6Y-75.7
X83.7Y-45.9
X83.7Y-47.4
X83.7Y-48.9
X83.7Y-50.5
X84.0Y-57.4
X84.6Y-58.0
X85.3Y-48.9
X85.3Y-50.45
X85.3Y-58.7
X85.35Y-45.9
X85.35Y-47.4
X88.55Y-71.05
X89.3Y-66.956
X89.3Y-68.226
X89.4Y-64.5
X89.4Y-65.7
X90.1Y-47.35
X90.1Y-48.5
X90.1Y-49.65
X90.1Y-50.8
X91.0Y-64.5
X91.0Y-65.7
X92.6Y-64.5
X92.6Y-65.7
X93.1Y-47.95
X93.1Y-49.4
X93.15Y-50.75
X94.2Y-64.5
X94.2Y-65.7
X94.38Y-66.956
X94.38Y-68.226
X94.9Y-47.4
X95.2Y-45.6
X95.8Y-46.6
X96.2Y-45.6
X96.5Y-47.4
X97.4Y-64.0
X98.4Y-74.2
X98.65Y-71.95
X99.6Y-45.4
X100.1Y-74.18
X100.17Y-72.9
X100.2Y-46.4
X100.6Y-45.4
X100.95Y-64.95
X100.95Y-75.8
X101.213Y-61.013
X102.4Y-61.2
X102.45Y-71.85
X102.9Y-76.8
X102.95Y-75.15
X103.0Y-63.8
X104.0Y-62.2
X105.0Y-78.0
X105.2Y-62.2
X105.55Y-76.85
X105.6Y-80.5
X105.95Y-69.2
X106.4Y-68.0
X106.8Y-70.25
X106.9Y-80.55
X107.125Y-67.0
X107.798Y-70.188
X108.2Y-66.6
X108.3Y-79.85
X108.4Y-71.2
X109.9Y-50.5
X109.9Y-51.6
X109.9Y-52.7
X109.9Y-53.9
X109.9Y-55.0
X109.9Y-78.4
X110.0Y-80.35
X110.3Y-44.8
X110.3Y-45.8
X110.3Y-46.9
X111.0Y-68.6
X111.025Y-62.575
X111.3Y-44.8
X112.15Y-61.85
X112.2Y-55.0
X112.8Y-44.8
X113.0Y-68.2
X113.2Y-66.6
X113.7Y-55.0
X114.3Y-44.8
X114.5Y-61.125
X114.8Y-80.2
X115.2Y-55.0
X115.2Y-64.0
X115.2Y-78.0
X115.8Y-44.8
X116.4Y-78.0
X116.7Y-55.0
X116.7Y-56.5
X117.7Y-66.5
X118.2Y-56.5
X118.25Y-68.0
X118.25Y-69.975
X118.6Y-64.2
X118.6Y-65.4
X118.8Y-79.2
X119.0Y-57.8
X119.0Y-59.3
X119.2Y-75.8
X119.4Y-81.15
X119.6Y-68.0
X119.65Y-80.0
X120.02Y-63.82
X121.5Y-69.625
X121.8Y-49.3
X121.8Y-51.1
X121.8Y-52.5
X121.8Y-54.1
X121.8Y-68.15
X122.244Y-73.652
X122.351Y-70.15
X123.8Y-49.3
X123.8Y-51.0
X123.8Y-52.5
X123.8Y-54.1
X123.85Y-67.404
X125.35Y-66.404
X125.8Y-50.9
X125.8Y-52.5
X125.8Y-54.1
X125.9Y-49.3
X128.189Y-74.811
X128.5Y-52.5
X128.5Y-54.1
X129.75Y-44.9
X129.75Y-46.15
X129.8Y-52.5
X129.8Y-54.1
X131.0Y-52.5
X131.0Y-54.1
X131.3Y-44.9
X131.3Y-46.2
X132.2Y-52.5
X132.2Y-54.1
X132.6Y-44.9
X132.6Y-46.2
X132.6Y-47.8
X132.6Y-49.2
X134.3Y-49.2
X135.8Y-49.2
X137.5Y-79.4
X137.5Y-80.4
X138.6Y-79.4
X138.6Y-80.4
X139.9Y-77.45
X139.9Y-78.45
X139.9Y-79.5
X139.9Y-80.5
X140.025Y-50.9
X140.6Y-69.354
X141.0Y-77.45
X141.0Y-78.45
X141.0Y-79.5
X141.0Y-80.5
X141.1Y-65.7
X141.5Y-70.2
X142.0Y-79.15
X142.0Y-80.15
X142.2Y-68.08
X143.1Y-79.15
X143.1Y-80.15
X143.2Y-57.5
X143.2Y-58.6
X143.3Y-52.2
X143.3Y-53.2
X144.2Y-50.7
X144.2Y-77.5
X144.2Y-79.15
X144.2Y-80.15
X144.275Y-68.725
X144.3Y-57.5
X144.3Y-58.6
X144.3Y-66.1
X144.35Y-60.35
X144.4Y-52.2
X144.4Y-53.2
X145.3Y-79.15
X145.3Y-80.15
X145.4Y-57.5
X145.4Y-58.6
X145.5Y-52.2
X145.5Y-53.2
X148.2Y-77.2
X148.2Y-78.2
X148.2Y-79.2
X148.2Y-80.2
X148.6Y-51.6
X148.6Y-52.6
X148.6Y-53.6
X148.6Y-54.6
X148.6Y-57.8
X148.6Y-58.8
X148.6Y-59.8
X148.6Y-60.8
X149.4Y-77.2
X149.4Y-78.2
X149.4Y-79.2
X149.4Y-80.2
X149.6Y-51.6
X149.6Y-52.6
X149.6Y-53.6
X149.6Y-54.6
X149.6Y-57.8
X149.6Y-58.8
X149.6Y-59.8
X149.6Y-60.8
X150.6Y-51.6
X150.6Y-52.6
X150.6Y-53.6
X150.6Y-54.6
X150.6Y-57.8
X150.6Y-58.8
X150.6Y-59.8
X150.6Y-60.8
X150.6Y-77.2
X150.6Y-77.2
X150.6Y-78.2
X150.6Y-79.2
X150.6Y-80.2
X152.4Y-70.6
X152.4Y-71.6
X152.4Y-72.6
X152.4Y-73.6
X152.8Y-45.2
X152.8Y-46.2
X152.8Y-47.2
X152.8Y-48.2
X153.0Y-63.8
X153.0Y-64.8
X153.0Y-65.8
X153.0Y-66.8
X153.6Y-70.6
X153.6Y-71.6
X153.6Y-72.6
X153.6Y-73.6
X153.8Y-45.2
X153.8Y-46.2
X153.8Y-47.2
X153.8Y-48.2
X154.0Y-63.8
X154.0Y-64.8
X154.0Y-65.8
X154.0Y-66.8
X154.2Y-79.45
X155.3Y-79.4
X155.55Y-59.15
X155.55Y-60.45
X155.7Y-53.6
X155.7Y-70.7
X155.7Y-72.0
X155.7Y-73.2
X155.75Y-64.25
X155.75Y-65.5
X155.75Y-66.75
X155.75Y-68.0
X155.9Y-45.6
X155.9Y-46.7
X156.5Y-79.4
X156.9Y-53.6
X156.9Y-59.15
X156.9Y-70.7
X157.1Y-45.6
X157.1Y-46.7
X157.75Y-79.4
X158.1Y-53.6
X158.1Y-70.7
X158.3Y-45.6
X158.3Y-46.7
X158.3Y-59.1
T3
X83.46Y-61.86
X83.46Y-64.4
X83.46Y-66.94
X86.0Y-61.86
X86.0Y-64.4
X86.0Y-66.94
X84.0Y-70.56
X84.0Y-73.1
X98.06Y-78.2
X98.06Y-80.74
X100.6Y-78.2
X100.6Y-80.74
X123.41Y-78.26
X123.41Y-80.8
X125.95Y-78.26
X125.95Y-80.8
X83.99Y-78.1
X83.99Y-80.64
X86.53Y-78.1
X86.53Y-80.64
X89.07Y-78.1
X89.07Y-80.64
X91.61Y-78.1
X91.61Y-80.64
X94.15Y-78.1
X94.15Y-80.64
T4
X91.2Y-56.6
T5
X150.7Y-85.2
X159.0Y-62.5
X159.0Y-50.25
X140.7Y-85.2
X159.0Y-75.0
T0
M30
