%TF.GenerationSoftware,KiCad,Pcbnew,(5.1.6)-1*%
%TF.CreationDate,2021-03-31T23:30:28+02:00*%
%TF.ProjectId,DRIVER_8323_based,44524956-4552-45f3-9833-32335f626173,rev?*%
%TF.SameCoordinates,Original*%
%TF.FileFunction,Copper,L1,Top*%
%TF.FilePolarity,Positive*%
%FSLAX46Y46*%
G04 Gerber Fmt 4.6, Leading zero omitted, Abs format (unit mm)*
G04 Created by KiCad (PCBNEW (5.1.6)-1) date 2021-03-31 23:30:28*
%MOMM*%
%LPD*%
G01*
G04 APERTURE LIST*
%TA.AperFunction,Conductor*%
%ADD10R,4.550000X4.410000*%
%TD*%
%TA.AperFunction,SMDPad,CuDef*%
%ADD11R,0.850000X0.500000*%
%TD*%
%TA.AperFunction,ComponentPad*%
%ADD12O,1.700000X1.700000*%
%TD*%
%TA.AperFunction,ComponentPad*%
%ADD13R,1.700000X1.700000*%
%TD*%
%TA.AperFunction,ComponentPad*%
%ADD14C,3.800000*%
%TD*%
%TA.AperFunction,ComponentPad*%
%ADD15C,5.400000*%
%TD*%
%TA.AperFunction,ViaPad*%
%ADD16C,0.500000*%
%TD*%
%TA.AperFunction,SMDPad,CuDef*%
%ADD17R,4.150000X4.150000*%
%TD*%
%TA.AperFunction,SMDPad,CuDef*%
%ADD18R,9.400000X10.800000*%
%TD*%
%TA.AperFunction,SMDPad,CuDef*%
%ADD19R,4.600000X1.100000*%
%TD*%
%TA.AperFunction,SMDPad,CuDef*%
%ADD20R,1.500000X2.000000*%
%TD*%
%TA.AperFunction,SMDPad,CuDef*%
%ADD21R,3.800000X2.000000*%
%TD*%
%TA.AperFunction,SMDPad,CuDef*%
%ADD22R,2.900000X5.400000*%
%TD*%
%TA.AperFunction,SMDPad,CuDef*%
%ADD23R,2.500000X2.300000*%
%TD*%
%TA.AperFunction,SMDPad,CuDef*%
%ADD24R,1.200000X1.400000*%
%TD*%
%TA.AperFunction,ViaPad*%
%ADD25C,0.800000*%
%TD*%
%TA.AperFunction,ViaPad*%
%ADD26C,1.500000*%
%TD*%
%TA.AperFunction,Conductor*%
%ADD27C,0.250000*%
%TD*%
%TA.AperFunction,Conductor*%
%ADD28C,0.500000*%
%TD*%
%TA.AperFunction,Conductor*%
%ADD29C,2.000000*%
%TD*%
%TA.AperFunction,Conductor*%
%ADD30C,1.000000*%
%TD*%
%TA.AperFunction,Conductor*%
%ADD31C,0.254000*%
%TD*%
G04 APERTURE END LIST*
D10*
%TO.N,SHC*%
%TO.C,Q6*%
X152425000Y-46725000D03*
D11*
%TD*%
%TO.P,Q6,4*%
%TO.N,Net-(Q6-Pad4)*%
X148475000Y-48630000D03*
%TO.P,Q6,3*%
%TO.N,SPC*%
X148475000Y-47360000D03*
%TO.P,Q6,2*%
X148475000Y-46090000D03*
%TO.P,Q6,1*%
X148475000Y-44820000D03*
%TD*%
D10*
%TO.N,SHB*%
%TO.C,Q5*%
X152525000Y-65400000D03*
D11*
%TD*%
%TO.P,Q5,4*%
%TO.N,Net-(Q5-Pad4)*%
X148575000Y-67305000D03*
%TO.P,Q5,3*%
%TO.N,SPB*%
X148575000Y-66035000D03*
%TO.P,Q5,2*%
X148575000Y-64765000D03*
%TO.P,Q5,1*%
X148575000Y-63495000D03*
%TD*%
D10*
%TO.N,SHA*%
%TO.C,Q4*%
X152500000Y-72350000D03*
D11*
%TD*%
%TO.P,Q4,4*%
%TO.N,Net-(Q4-Pad4)*%
X148550000Y-74255000D03*
%TO.P,Q4,3*%
%TO.N,SPA*%
X148550000Y-72985000D03*
%TO.P,Q4,2*%
X148550000Y-71715000D03*
%TO.P,Q4,1*%
X148550000Y-70445000D03*
%TD*%
D10*
%TO.N,+48V*%
%TO.C,Q3*%
X150350000Y-53075000D03*
D11*
%TD*%
%TO.P,Q3,4*%
%TO.N,Net-(Q3-Pad4)*%
X154300000Y-51170000D03*
%TO.P,Q3,3*%
%TO.N,SHC*%
X154300000Y-52440000D03*
%TO.P,Q3,2*%
X154300000Y-53710000D03*
%TO.P,Q3,1*%
X154300000Y-54980000D03*
%TD*%
D10*
%TO.N,+48V*%
%TO.C,Q2*%
X150425000Y-59425000D03*
D11*
%TD*%
%TO.P,Q2,4*%
%TO.N,Net-(Q2-Pad4)*%
X154375000Y-57520000D03*
%TO.P,Q2,3*%
%TO.N,SHB*%
X154375000Y-58790000D03*
%TO.P,Q2,2*%
X154375000Y-60060000D03*
%TO.P,Q2,1*%
X154375000Y-61330000D03*
%TD*%
D10*
%TO.N,+48V*%
%TO.C,Q1*%
X150350000Y-78800000D03*
D11*
%TD*%
%TO.P,Q1,4*%
%TO.N,Net-(Q1-Pad4)*%
X154300000Y-76895000D03*
%TO.P,Q1,3*%
%TO.N,SHA*%
X154300000Y-78165000D03*
%TO.P,Q1,2*%
X154300000Y-79435000D03*
%TO.P,Q1,1*%
X154300000Y-80705000D03*
%TD*%
D12*
%TO.P,J6,2*%
%TO.N,GND*%
X84000000Y-64260000D03*
D13*
%TO.P,J6,1*%
%TO.N,+3V3*%
X84000000Y-66800000D03*
%TD*%
D12*
%TO.P,J2,2*%
%TO.N,USART1_TX*%
X84000000Y-70560000D03*
D13*
%TO.P,J2,1*%
%TO.N,USART1_RX*%
X84000000Y-73100000D03*
%TD*%
D12*
%TO.P,J5,10*%
%TO.N,NRST*%
X83990000Y-80640000D03*
%TO.P,J5,9*%
%TO.N,GND*%
X83990000Y-78100000D03*
%TO.P,J5,8*%
%TO.N,Net-(J5-Pad8)*%
X86530000Y-80640000D03*
%TO.P,J5,7*%
%TO.N,Net-(J5-Pad7)*%
X86530000Y-78100000D03*
%TO.P,J5,6*%
%TO.N,SWO*%
X89070000Y-80640000D03*
%TO.P,J5,5*%
%TO.N,GND*%
X89070000Y-78100000D03*
%TO.P,J5,4*%
%TO.N,SWCLK*%
X91610000Y-80640000D03*
%TO.P,J5,3*%
%TO.N,GND*%
X91610000Y-78100000D03*
%TO.P,J5,2*%
%TO.N,SWDIO*%
X94150000Y-80640000D03*
D13*
%TO.P,J5,1*%
%TO.N,+3V3*%
X94150000Y-78100000D03*
%TD*%
D12*
%TO.P,J3,4*%
%TO.N,GND*%
X98060000Y-80740000D03*
%TO.P,J3,3*%
%TO.N,i2c1_SCL*%
X98060000Y-78200000D03*
%TO.P,J3,2*%
%TO.N,+3V3*%
X100600000Y-80740000D03*
D13*
%TO.P,J3,1*%
%TO.N,i2c1_SDA*%
X100600000Y-78200000D03*
%TD*%
D12*
%TO.P,J1,4*%
%TO.N,GND*%
X123410000Y-80800000D03*
%TO.P,J1,3*%
%TO.N,encoder_1*%
X123410000Y-78260000D03*
%TO.P,J1,2*%
%TO.N,+12V*%
X125950000Y-80800000D03*
D13*
%TO.P,J1,1*%
%TO.N,encoder_2*%
X125950000Y-78260000D03*
%TD*%
D14*
%TO.P,H7,1*%
%TO.N,GND*%
X101100000Y-44600000D03*
%TD*%
%TO.P,H6,1*%
%TO.N,+12V*%
X93700000Y-44600000D03*
%TD*%
D15*
%TO.P,H5,1*%
%TO.N,SHC*%
X159000000Y-50250000D03*
%TD*%
%TO.P,H4,1*%
%TO.N,SHB*%
X159000000Y-62500000D03*
%TD*%
%TO.P,H3,1*%
%TO.N,SHA*%
X159000000Y-75000000D03*
%TD*%
%TO.P,H2,1*%
%TO.N,GND*%
X140700000Y-85200000D03*
%TD*%
%TO.P,H1,1*%
%TO.N,+48V*%
X150700000Y-85200000D03*
%TD*%
%TO.P,R9,2*%
%TO.N,Net-(Q4-Pad4)*%
%TA.AperFunction,SMDPad,CuDef*%
G36*
G01*
X135350000Y-72556250D02*
X135350000Y-71643750D01*
G75*
G02*
X135593750Y-71400000I243750J0D01*
G01*
X136081250Y-71400000D01*
G75*
G02*
X136325000Y-71643750I0J-243750D01*
G01*
X136325000Y-72556250D01*
G75*
G02*
X136081250Y-72800000I-243750J0D01*
G01*
X135593750Y-72800000D01*
G75*
G02*
X135350000Y-72556250I0J243750D01*
G01*
G37*
%TD.AperFunction*%
%TO.P,R9,1*%
%TO.N,GLA*%
%TA.AperFunction,SMDPad,CuDef*%
G36*
G01*
X133475000Y-72556250D02*
X133475000Y-71643750D01*
G75*
G02*
X133718750Y-71400000I243750J0D01*
G01*
X134206250Y-71400000D01*
G75*
G02*
X134450000Y-71643750I0J-243750D01*
G01*
X134450000Y-72556250D01*
G75*
G02*
X134206250Y-72800000I-243750J0D01*
G01*
X133718750Y-72800000D01*
G75*
G02*
X133475000Y-72556250I0J243750D01*
G01*
G37*
%TD.AperFunction*%
%TD*%
D16*
%TO.N,GND*%
%TO.C,U2*%
X130905000Y-65854216D03*
X130905000Y-66879216D03*
X130905000Y-67904216D03*
X129880000Y-65854216D03*
X129880000Y-66879216D03*
X129880000Y-67904216D03*
X128855000Y-65854216D03*
X128855000Y-66879216D03*
X128855000Y-67904216D03*
D17*
%TD*%
%TO.P,U2,41*%
%TO.N,GND*%
X129880000Y-66879216D03*
%TO.P,U2,40*%
%TO.N,Net-(U2-Pad40)*%
%TA.AperFunction,SMDPad,CuDef*%
G36*
G01*
X127292500Y-69254216D02*
X126592500Y-69254216D01*
G75*
G02*
X126530000Y-69191716I0J62500D01*
G01*
X126530000Y-69066716D01*
G75*
G02*
X126592500Y-69004216I62500J0D01*
G01*
X127292500Y-69004216D01*
G75*
G02*
X127355000Y-69066716I0J-62500D01*
G01*
X127355000Y-69191716D01*
G75*
G02*
X127292500Y-69254216I-62500J0D01*
G01*
G37*
%TD.AperFunction*%
%TO.P,U2,39*%
%TO.N,TIM1_CH3N*%
%TA.AperFunction,SMDPad,CuDef*%
G36*
G01*
X127292500Y-68754216D02*
X126592500Y-68754216D01*
G75*
G02*
X126530000Y-68691716I0J62500D01*
G01*
X126530000Y-68566716D01*
G75*
G02*
X126592500Y-68504216I62500J0D01*
G01*
X127292500Y-68504216D01*
G75*
G02*
X127355000Y-68566716I0J-62500D01*
G01*
X127355000Y-68691716D01*
G75*
G02*
X127292500Y-68754216I-62500J0D01*
G01*
G37*
%TD.AperFunction*%
%TO.P,U2,38*%
%TO.N,TIM1_CH3*%
%TA.AperFunction,SMDPad,CuDef*%
G36*
G01*
X127292500Y-68254216D02*
X126592500Y-68254216D01*
G75*
G02*
X126530000Y-68191716I0J62500D01*
G01*
X126530000Y-68066716D01*
G75*
G02*
X126592500Y-68004216I62500J0D01*
G01*
X127292500Y-68004216D01*
G75*
G02*
X127355000Y-68066716I0J-62500D01*
G01*
X127355000Y-68191716D01*
G75*
G02*
X127292500Y-68254216I-62500J0D01*
G01*
G37*
%TD.AperFunction*%
%TO.P,U2,37*%
%TO.N,TIM1_CH2N*%
%TA.AperFunction,SMDPad,CuDef*%
G36*
G01*
X127292500Y-67754216D02*
X126592500Y-67754216D01*
G75*
G02*
X126530000Y-67691716I0J62500D01*
G01*
X126530000Y-67566716D01*
G75*
G02*
X126592500Y-67504216I62500J0D01*
G01*
X127292500Y-67504216D01*
G75*
G02*
X127355000Y-67566716I0J-62500D01*
G01*
X127355000Y-67691716D01*
G75*
G02*
X127292500Y-67754216I-62500J0D01*
G01*
G37*
%TD.AperFunction*%
%TO.P,U2,36*%
%TO.N,TIM1_CH2*%
%TA.AperFunction,SMDPad,CuDef*%
G36*
G01*
X127292500Y-67254216D02*
X126592500Y-67254216D01*
G75*
G02*
X126530000Y-67191716I0J62500D01*
G01*
X126530000Y-67066716D01*
G75*
G02*
X126592500Y-67004216I62500J0D01*
G01*
X127292500Y-67004216D01*
G75*
G02*
X127355000Y-67066716I0J-62500D01*
G01*
X127355000Y-67191716D01*
G75*
G02*
X127292500Y-67254216I-62500J0D01*
G01*
G37*
%TD.AperFunction*%
%TO.P,U2,35*%
%TO.N,TIM1_CH1N*%
%TA.AperFunction,SMDPad,CuDef*%
G36*
G01*
X127292500Y-66754216D02*
X126592500Y-66754216D01*
G75*
G02*
X126530000Y-66691716I0J62500D01*
G01*
X126530000Y-66566716D01*
G75*
G02*
X126592500Y-66504216I62500J0D01*
G01*
X127292500Y-66504216D01*
G75*
G02*
X127355000Y-66566716I0J-62500D01*
G01*
X127355000Y-66691716D01*
G75*
G02*
X127292500Y-66754216I-62500J0D01*
G01*
G37*
%TD.AperFunction*%
%TO.P,U2,34*%
%TO.N,TIM1_CH1*%
%TA.AperFunction,SMDPad,CuDef*%
G36*
G01*
X127292500Y-66254216D02*
X126592500Y-66254216D01*
G75*
G02*
X126530000Y-66191716I0J62500D01*
G01*
X126530000Y-66066716D01*
G75*
G02*
X126592500Y-66004216I62500J0D01*
G01*
X127292500Y-66004216D01*
G75*
G02*
X127355000Y-66066716I0J-62500D01*
G01*
X127355000Y-66191716D01*
G75*
G02*
X127292500Y-66254216I-62500J0D01*
G01*
G37*
%TD.AperFunction*%
%TO.P,U2,33*%
%TO.N,DVDD*%
%TA.AperFunction,SMDPad,CuDef*%
G36*
G01*
X127292500Y-65754216D02*
X126592500Y-65754216D01*
G75*
G02*
X126530000Y-65691716I0J62500D01*
G01*
X126530000Y-65566716D01*
G75*
G02*
X126592500Y-65504216I62500J0D01*
G01*
X127292500Y-65504216D01*
G75*
G02*
X127355000Y-65566716I0J-62500D01*
G01*
X127355000Y-65691716D01*
G75*
G02*
X127292500Y-65754216I-62500J0D01*
G01*
G37*
%TD.AperFunction*%
%TO.P,U2,32*%
%TO.N,Net-(U2-Pad32)*%
%TA.AperFunction,SMDPad,CuDef*%
G36*
G01*
X127292500Y-65254216D02*
X126592500Y-65254216D01*
G75*
G02*
X126530000Y-65191716I0J62500D01*
G01*
X126530000Y-65066716D01*
G75*
G02*
X126592500Y-65004216I62500J0D01*
G01*
X127292500Y-65004216D01*
G75*
G02*
X127355000Y-65066716I0J-62500D01*
G01*
X127355000Y-65191716D01*
G75*
G02*
X127292500Y-65254216I-62500J0D01*
G01*
G37*
%TD.AperFunction*%
%TO.P,U2,31*%
%TO.N,CAL*%
%TA.AperFunction,SMDPad,CuDef*%
G36*
G01*
X127292500Y-64754216D02*
X126592500Y-64754216D01*
G75*
G02*
X126530000Y-64691716I0J62500D01*
G01*
X126530000Y-64566716D01*
G75*
G02*
X126592500Y-64504216I62500J0D01*
G01*
X127292500Y-64504216D01*
G75*
G02*
X127355000Y-64566716I0J-62500D01*
G01*
X127355000Y-64691716D01*
G75*
G02*
X127292500Y-64754216I-62500J0D01*
G01*
G37*
%TD.AperFunction*%
%TO.P,U2,30*%
%TO.N,Net-(U2-Pad30)*%
%TA.AperFunction,SMDPad,CuDef*%
G36*
G01*
X127692500Y-64354216D02*
X127567500Y-64354216D01*
G75*
G02*
X127505000Y-64291716I0J62500D01*
G01*
X127505000Y-63591716D01*
G75*
G02*
X127567500Y-63529216I62500J0D01*
G01*
X127692500Y-63529216D01*
G75*
G02*
X127755000Y-63591716I0J-62500D01*
G01*
X127755000Y-64291716D01*
G75*
G02*
X127692500Y-64354216I-62500J0D01*
G01*
G37*
%TD.AperFunction*%
%TO.P,U2,29*%
%TO.N,Net-(R17-Pad1)*%
%TA.AperFunction,SMDPad,CuDef*%
G36*
G01*
X128192500Y-64354216D02*
X128067500Y-64354216D01*
G75*
G02*
X128005000Y-64291716I0J62500D01*
G01*
X128005000Y-63591716D01*
G75*
G02*
X128067500Y-63529216I62500J0D01*
G01*
X128192500Y-63529216D01*
G75*
G02*
X128255000Y-63591716I0J-62500D01*
G01*
X128255000Y-64291716D01*
G75*
G02*
X128192500Y-64354216I-62500J0D01*
G01*
G37*
%TD.AperFunction*%
%TO.P,U2,28*%
%TO.N,Net-(R16-Pad1)*%
%TA.AperFunction,SMDPad,CuDef*%
G36*
G01*
X128692500Y-64354216D02*
X128567500Y-64354216D01*
G75*
G02*
X128505000Y-64291716I0J62500D01*
G01*
X128505000Y-63591716D01*
G75*
G02*
X128567500Y-63529216I62500J0D01*
G01*
X128692500Y-63529216D01*
G75*
G02*
X128755000Y-63591716I0J-62500D01*
G01*
X128755000Y-64291716D01*
G75*
G02*
X128692500Y-64354216I-62500J0D01*
G01*
G37*
%TD.AperFunction*%
%TO.P,U2,27*%
%TO.N,DVDD*%
%TA.AperFunction,SMDPad,CuDef*%
G36*
G01*
X129192500Y-64354216D02*
X129067500Y-64354216D01*
G75*
G02*
X129005000Y-64291716I0J62500D01*
G01*
X129005000Y-63591716D01*
G75*
G02*
X129067500Y-63529216I62500J0D01*
G01*
X129192500Y-63529216D01*
G75*
G02*
X129255000Y-63591716I0J-62500D01*
G01*
X129255000Y-64291716D01*
G75*
G02*
X129192500Y-64354216I-62500J0D01*
G01*
G37*
%TD.AperFunction*%
%TO.P,U2,26*%
%TO.N,Net-(R15-Pad1)*%
%TA.AperFunction,SMDPad,CuDef*%
G36*
G01*
X129692500Y-64354216D02*
X129567500Y-64354216D01*
G75*
G02*
X129505000Y-64291716I0J62500D01*
G01*
X129505000Y-63591716D01*
G75*
G02*
X129567500Y-63529216I62500J0D01*
G01*
X129692500Y-63529216D01*
G75*
G02*
X129755000Y-63591716I0J-62500D01*
G01*
X129755000Y-64291716D01*
G75*
G02*
X129692500Y-64354216I-62500J0D01*
G01*
G37*
%TD.AperFunction*%
%TO.P,U2,25*%
%TO.N,Net-(R4-Pad2)*%
%TA.AperFunction,SMDPad,CuDef*%
G36*
G01*
X130192500Y-64354216D02*
X130067500Y-64354216D01*
G75*
G02*
X130005000Y-64291716I0J62500D01*
G01*
X130005000Y-63591716D01*
G75*
G02*
X130067500Y-63529216I62500J0D01*
G01*
X130192500Y-63529216D01*
G75*
G02*
X130255000Y-63591716I0J-62500D01*
G01*
X130255000Y-64291716D01*
G75*
G02*
X130192500Y-64354216I-62500J0D01*
G01*
G37*
%TD.AperFunction*%
%TO.P,U2,24*%
%TO.N,+3V3*%
%TA.AperFunction,SMDPad,CuDef*%
G36*
G01*
X130692500Y-64354216D02*
X130567500Y-64354216D01*
G75*
G02*
X130505000Y-64291716I0J62500D01*
G01*
X130505000Y-63591716D01*
G75*
G02*
X130567500Y-63529216I62500J0D01*
G01*
X130692500Y-63529216D01*
G75*
G02*
X130755000Y-63591716I0J-62500D01*
G01*
X130755000Y-64291716D01*
G75*
G02*
X130692500Y-64354216I-62500J0D01*
G01*
G37*
%TD.AperFunction*%
%TO.P,U2,23*%
%TO.N,SOA*%
%TA.AperFunction,SMDPad,CuDef*%
G36*
G01*
X131192500Y-64354216D02*
X131067500Y-64354216D01*
G75*
G02*
X131005000Y-64291716I0J62500D01*
G01*
X131005000Y-63591716D01*
G75*
G02*
X131067500Y-63529216I62500J0D01*
G01*
X131192500Y-63529216D01*
G75*
G02*
X131255000Y-63591716I0J-62500D01*
G01*
X131255000Y-64291716D01*
G75*
G02*
X131192500Y-64354216I-62500J0D01*
G01*
G37*
%TD.AperFunction*%
%TO.P,U2,22*%
%TO.N,SOB*%
%TA.AperFunction,SMDPad,CuDef*%
G36*
G01*
X131692500Y-64354216D02*
X131567500Y-64354216D01*
G75*
G02*
X131505000Y-64291716I0J62500D01*
G01*
X131505000Y-63591716D01*
G75*
G02*
X131567500Y-63529216I62500J0D01*
G01*
X131692500Y-63529216D01*
G75*
G02*
X131755000Y-63591716I0J-62500D01*
G01*
X131755000Y-64291716D01*
G75*
G02*
X131692500Y-64354216I-62500J0D01*
G01*
G37*
%TD.AperFunction*%
%TO.P,U2,21*%
%TO.N,SOC*%
%TA.AperFunction,SMDPad,CuDef*%
G36*
G01*
X132192500Y-64354216D02*
X132067500Y-64354216D01*
G75*
G02*
X132005000Y-64291716I0J62500D01*
G01*
X132005000Y-63591716D01*
G75*
G02*
X132067500Y-63529216I62500J0D01*
G01*
X132192500Y-63529216D01*
G75*
G02*
X132255000Y-63591716I0J-62500D01*
G01*
X132255000Y-64291716D01*
G75*
G02*
X132192500Y-64354216I-62500J0D01*
G01*
G37*
%TD.AperFunction*%
%TO.P,U2,20*%
%TO.N,GND*%
%TA.AperFunction,SMDPad,CuDef*%
G36*
G01*
X133167500Y-64754216D02*
X132467500Y-64754216D01*
G75*
G02*
X132405000Y-64691716I0J62500D01*
G01*
X132405000Y-64566716D01*
G75*
G02*
X132467500Y-64504216I62500J0D01*
G01*
X133167500Y-64504216D01*
G75*
G02*
X133230000Y-64566716I0J-62500D01*
G01*
X133230000Y-64691716D01*
G75*
G02*
X133167500Y-64754216I-62500J0D01*
G01*
G37*
%TD.AperFunction*%
%TO.P,U2,19*%
%TO.N,SPC*%
%TA.AperFunction,SMDPad,CuDef*%
G36*
G01*
X133167500Y-65254216D02*
X132467500Y-65254216D01*
G75*
G02*
X132405000Y-65191716I0J62500D01*
G01*
X132405000Y-65066716D01*
G75*
G02*
X132467500Y-65004216I62500J0D01*
G01*
X133167500Y-65004216D01*
G75*
G02*
X133230000Y-65066716I0J-62500D01*
G01*
X133230000Y-65191716D01*
G75*
G02*
X133167500Y-65254216I-62500J0D01*
G01*
G37*
%TD.AperFunction*%
%TO.P,U2,18*%
%TO.N,GLC*%
%TA.AperFunction,SMDPad,CuDef*%
G36*
G01*
X133167500Y-65754216D02*
X132467500Y-65754216D01*
G75*
G02*
X132405000Y-65691716I0J62500D01*
G01*
X132405000Y-65566716D01*
G75*
G02*
X132467500Y-65504216I62500J0D01*
G01*
X133167500Y-65504216D01*
G75*
G02*
X133230000Y-65566716I0J-62500D01*
G01*
X133230000Y-65691716D01*
G75*
G02*
X133167500Y-65754216I-62500J0D01*
G01*
G37*
%TD.AperFunction*%
%TO.P,U2,17*%
%TO.N,SHC*%
%TA.AperFunction,SMDPad,CuDef*%
G36*
G01*
X133167500Y-66254216D02*
X132467500Y-66254216D01*
G75*
G02*
X132405000Y-66191716I0J62500D01*
G01*
X132405000Y-66066716D01*
G75*
G02*
X132467500Y-66004216I62500J0D01*
G01*
X133167500Y-66004216D01*
G75*
G02*
X133230000Y-66066716I0J-62500D01*
G01*
X133230000Y-66191716D01*
G75*
G02*
X133167500Y-66254216I-62500J0D01*
G01*
G37*
%TD.AperFunction*%
%TO.P,U2,16*%
%TO.N,GHC*%
%TA.AperFunction,SMDPad,CuDef*%
G36*
G01*
X133167500Y-66754216D02*
X132467500Y-66754216D01*
G75*
G02*
X132405000Y-66691716I0J62500D01*
G01*
X132405000Y-66566716D01*
G75*
G02*
X132467500Y-66504216I62500J0D01*
G01*
X133167500Y-66504216D01*
G75*
G02*
X133230000Y-66566716I0J-62500D01*
G01*
X133230000Y-66691716D01*
G75*
G02*
X133167500Y-66754216I-62500J0D01*
G01*
G37*
%TD.AperFunction*%
%TO.P,U2,15*%
%TO.N,GHB*%
%TA.AperFunction,SMDPad,CuDef*%
G36*
G01*
X133167500Y-67254216D02*
X132467500Y-67254216D01*
G75*
G02*
X132405000Y-67191716I0J62500D01*
G01*
X132405000Y-67066716D01*
G75*
G02*
X132467500Y-67004216I62500J0D01*
G01*
X133167500Y-67004216D01*
G75*
G02*
X133230000Y-67066716I0J-62500D01*
G01*
X133230000Y-67191716D01*
G75*
G02*
X133167500Y-67254216I-62500J0D01*
G01*
G37*
%TD.AperFunction*%
%TO.P,U2,14*%
%TO.N,SHB*%
%TA.AperFunction,SMDPad,CuDef*%
G36*
G01*
X133167500Y-67754216D02*
X132467500Y-67754216D01*
G75*
G02*
X132405000Y-67691716I0J62500D01*
G01*
X132405000Y-67566716D01*
G75*
G02*
X132467500Y-67504216I62500J0D01*
G01*
X133167500Y-67504216D01*
G75*
G02*
X133230000Y-67566716I0J-62500D01*
G01*
X133230000Y-67691716D01*
G75*
G02*
X133167500Y-67754216I-62500J0D01*
G01*
G37*
%TD.AperFunction*%
%TO.P,U2,13*%
%TO.N,GLB*%
%TA.AperFunction,SMDPad,CuDef*%
G36*
G01*
X133167500Y-68254216D02*
X132467500Y-68254216D01*
G75*
G02*
X132405000Y-68191716I0J62500D01*
G01*
X132405000Y-68066716D01*
G75*
G02*
X132467500Y-68004216I62500J0D01*
G01*
X133167500Y-68004216D01*
G75*
G02*
X133230000Y-68066716I0J-62500D01*
G01*
X133230000Y-68191716D01*
G75*
G02*
X133167500Y-68254216I-62500J0D01*
G01*
G37*
%TD.AperFunction*%
%TO.P,U2,12*%
%TO.N,SPB*%
%TA.AperFunction,SMDPad,CuDef*%
G36*
G01*
X133167500Y-68754216D02*
X132467500Y-68754216D01*
G75*
G02*
X132405000Y-68691716I0J62500D01*
G01*
X132405000Y-68566716D01*
G75*
G02*
X132467500Y-68504216I62500J0D01*
G01*
X133167500Y-68504216D01*
G75*
G02*
X133230000Y-68566716I0J-62500D01*
G01*
X133230000Y-68691716D01*
G75*
G02*
X133167500Y-68754216I-62500J0D01*
G01*
G37*
%TD.AperFunction*%
%TO.P,U2,11*%
%TO.N,GND*%
%TA.AperFunction,SMDPad,CuDef*%
G36*
G01*
X133167500Y-69254216D02*
X132467500Y-69254216D01*
G75*
G02*
X132405000Y-69191716I0J62500D01*
G01*
X132405000Y-69066716D01*
G75*
G02*
X132467500Y-69004216I62500J0D01*
G01*
X133167500Y-69004216D01*
G75*
G02*
X133230000Y-69066716I0J-62500D01*
G01*
X133230000Y-69191716D01*
G75*
G02*
X133167500Y-69254216I-62500J0D01*
G01*
G37*
%TD.AperFunction*%
%TO.P,U2,10*%
%TA.AperFunction,SMDPad,CuDef*%
G36*
G01*
X132192500Y-70229216D02*
X132067500Y-70229216D01*
G75*
G02*
X132005000Y-70166716I0J62500D01*
G01*
X132005000Y-69466716D01*
G75*
G02*
X132067500Y-69404216I62500J0D01*
G01*
X132192500Y-69404216D01*
G75*
G02*
X132255000Y-69466716I0J-62500D01*
G01*
X132255000Y-70166716D01*
G75*
G02*
X132192500Y-70229216I-62500J0D01*
G01*
G37*
%TD.AperFunction*%
%TO.P,U2,9*%
%TO.N,SPA*%
%TA.AperFunction,SMDPad,CuDef*%
G36*
G01*
X131692500Y-70229216D02*
X131567500Y-70229216D01*
G75*
G02*
X131505000Y-70166716I0J62500D01*
G01*
X131505000Y-69466716D01*
G75*
G02*
X131567500Y-69404216I62500J0D01*
G01*
X131692500Y-69404216D01*
G75*
G02*
X131755000Y-69466716I0J-62500D01*
G01*
X131755000Y-70166716D01*
G75*
G02*
X131692500Y-70229216I-62500J0D01*
G01*
G37*
%TD.AperFunction*%
%TO.P,U2,8*%
%TO.N,GLA*%
%TA.AperFunction,SMDPad,CuDef*%
G36*
G01*
X131192500Y-70229216D02*
X131067500Y-70229216D01*
G75*
G02*
X131005000Y-70166716I0J62500D01*
G01*
X131005000Y-69466716D01*
G75*
G02*
X131067500Y-69404216I62500J0D01*
G01*
X131192500Y-69404216D01*
G75*
G02*
X131255000Y-69466716I0J-62500D01*
G01*
X131255000Y-70166716D01*
G75*
G02*
X131192500Y-70229216I-62500J0D01*
G01*
G37*
%TD.AperFunction*%
%TO.P,U2,7*%
%TO.N,SHA*%
%TA.AperFunction,SMDPad,CuDef*%
G36*
G01*
X130692500Y-70229216D02*
X130567500Y-70229216D01*
G75*
G02*
X130505000Y-70166716I0J62500D01*
G01*
X130505000Y-69466716D01*
G75*
G02*
X130567500Y-69404216I62500J0D01*
G01*
X130692500Y-69404216D01*
G75*
G02*
X130755000Y-69466716I0J-62500D01*
G01*
X130755000Y-70166716D01*
G75*
G02*
X130692500Y-70229216I-62500J0D01*
G01*
G37*
%TD.AperFunction*%
%TO.P,U2,6*%
%TO.N,GHA*%
%TA.AperFunction,SMDPad,CuDef*%
G36*
G01*
X130192500Y-70229216D02*
X130067500Y-70229216D01*
G75*
G02*
X130005000Y-70166716I0J62500D01*
G01*
X130005000Y-69466716D01*
G75*
G02*
X130067500Y-69404216I62500J0D01*
G01*
X130192500Y-69404216D01*
G75*
G02*
X130255000Y-69466716I0J-62500D01*
G01*
X130255000Y-70166716D01*
G75*
G02*
X130192500Y-70229216I-62500J0D01*
G01*
G37*
%TD.AperFunction*%
%TO.P,U2,5*%
%TO.N,+48V*%
%TA.AperFunction,SMDPad,CuDef*%
G36*
G01*
X129692500Y-70229216D02*
X129567500Y-70229216D01*
G75*
G02*
X129505000Y-70166716I0J62500D01*
G01*
X129505000Y-69466716D01*
G75*
G02*
X129567500Y-69404216I62500J0D01*
G01*
X129692500Y-69404216D01*
G75*
G02*
X129755000Y-69466716I0J-62500D01*
G01*
X129755000Y-70166716D01*
G75*
G02*
X129692500Y-70229216I-62500J0D01*
G01*
G37*
%TD.AperFunction*%
%TO.P,U2,4*%
%TA.AperFunction,SMDPad,CuDef*%
G36*
G01*
X129192500Y-70229216D02*
X129067500Y-70229216D01*
G75*
G02*
X129005000Y-70166716I0J62500D01*
G01*
X129005000Y-69466716D01*
G75*
G02*
X129067500Y-69404216I62500J0D01*
G01*
X129192500Y-69404216D01*
G75*
G02*
X129255000Y-69466716I0J-62500D01*
G01*
X129255000Y-70166716D01*
G75*
G02*
X129192500Y-70229216I-62500J0D01*
G01*
G37*
%TD.AperFunction*%
%TO.P,U2,3*%
%TO.N,Net-(C17-Pad2)*%
%TA.AperFunction,SMDPad,CuDef*%
G36*
G01*
X128692500Y-70229216D02*
X128567500Y-70229216D01*
G75*
G02*
X128505000Y-70166716I0J62500D01*
G01*
X128505000Y-69466716D01*
G75*
G02*
X128567500Y-69404216I62500J0D01*
G01*
X128692500Y-69404216D01*
G75*
G02*
X128755000Y-69466716I0J-62500D01*
G01*
X128755000Y-70166716D01*
G75*
G02*
X128692500Y-70229216I-62500J0D01*
G01*
G37*
%TD.AperFunction*%
%TO.P,U2,2*%
%TO.N,CPH*%
%TA.AperFunction,SMDPad,CuDef*%
G36*
G01*
X128192500Y-70229216D02*
X128067500Y-70229216D01*
G75*
G02*
X128005000Y-70166716I0J62500D01*
G01*
X128005000Y-69466716D01*
G75*
G02*
X128067500Y-69404216I62500J0D01*
G01*
X128192500Y-69404216D01*
G75*
G02*
X128255000Y-69466716I0J-62500D01*
G01*
X128255000Y-70166716D01*
G75*
G02*
X128192500Y-70229216I-62500J0D01*
G01*
G37*
%TD.AperFunction*%
%TO.P,U2,1*%
%TO.N,CPL*%
%TA.AperFunction,SMDPad,CuDef*%
G36*
G01*
X127692500Y-70229216D02*
X127567500Y-70229216D01*
G75*
G02*
X127505000Y-70166716I0J62500D01*
G01*
X127505000Y-69466716D01*
G75*
G02*
X127567500Y-69404216I62500J0D01*
G01*
X127692500Y-69404216D01*
G75*
G02*
X127755000Y-69466716I0J-62500D01*
G01*
X127755000Y-70166716D01*
G75*
G02*
X127692500Y-70229216I-62500J0D01*
G01*
G37*
%TD.AperFunction*%
%TD*%
%TO.P,C23,2*%
%TO.N,GND*%
%TA.AperFunction,SMDPad,CuDef*%
G36*
G01*
X84910000Y-75527500D02*
X84910000Y-75872500D01*
G75*
G02*
X84762500Y-76020000I-147500J0D01*
G01*
X84467500Y-76020000D01*
G75*
G02*
X84320000Y-75872500I0J147500D01*
G01*
X84320000Y-75527500D01*
G75*
G02*
X84467500Y-75380000I147500J0D01*
G01*
X84762500Y-75380000D01*
G75*
G02*
X84910000Y-75527500I0J-147500D01*
G01*
G37*
%TD.AperFunction*%
%TO.P,C23,1*%
%TO.N,NRST*%
%TA.AperFunction,SMDPad,CuDef*%
G36*
G01*
X85880000Y-75527500D02*
X85880000Y-75872500D01*
G75*
G02*
X85732500Y-76020000I-147500J0D01*
G01*
X85437500Y-76020000D01*
G75*
G02*
X85290000Y-75872500I0J147500D01*
G01*
X85290000Y-75527500D01*
G75*
G02*
X85437500Y-75380000I147500J0D01*
G01*
X85732500Y-75380000D01*
G75*
G02*
X85880000Y-75527500I0J-147500D01*
G01*
G37*
%TD.AperFunction*%
%TD*%
%TO.P,C22,2*%
%TO.N,GND*%
%TA.AperFunction,SMDPad,CuDef*%
G36*
G01*
X101177500Y-73600000D02*
X101522500Y-73600000D01*
G75*
G02*
X101670000Y-73747500I0J-147500D01*
G01*
X101670000Y-74042500D01*
G75*
G02*
X101522500Y-74190000I-147500J0D01*
G01*
X101177500Y-74190000D01*
G75*
G02*
X101030000Y-74042500I0J147500D01*
G01*
X101030000Y-73747500D01*
G75*
G02*
X101177500Y-73600000I147500J0D01*
G01*
G37*
%TD.AperFunction*%
%TO.P,C22,1*%
%TO.N,+3V3*%
%TA.AperFunction,SMDPad,CuDef*%
G36*
G01*
X101177500Y-72630000D02*
X101522500Y-72630000D01*
G75*
G02*
X101670000Y-72777500I0J-147500D01*
G01*
X101670000Y-73072500D01*
G75*
G02*
X101522500Y-73220000I-147500J0D01*
G01*
X101177500Y-73220000D01*
G75*
G02*
X101030000Y-73072500I0J147500D01*
G01*
X101030000Y-72777500D01*
G75*
G02*
X101177500Y-72630000I147500J0D01*
G01*
G37*
%TD.AperFunction*%
%TD*%
%TO.P,R17,2*%
%TO.N,DVDD*%
%TA.AperFunction,SMDPad,CuDef*%
G36*
G01*
X125306250Y-59800000D02*
X124793750Y-59800000D01*
G75*
G02*
X124575000Y-59581250I0J218750D01*
G01*
X124575000Y-59143750D01*
G75*
G02*
X124793750Y-58925000I218750J0D01*
G01*
X125306250Y-58925000D01*
G75*
G02*
X125525000Y-59143750I0J-218750D01*
G01*
X125525000Y-59581250D01*
G75*
G02*
X125306250Y-59800000I-218750J0D01*
G01*
G37*
%TD.AperFunction*%
%TO.P,R17,1*%
%TO.N,Net-(R17-Pad1)*%
%TA.AperFunction,SMDPad,CuDef*%
G36*
G01*
X125306250Y-61375000D02*
X124793750Y-61375000D01*
G75*
G02*
X124575000Y-61156250I0J218750D01*
G01*
X124575000Y-60718750D01*
G75*
G02*
X124793750Y-60500000I218750J0D01*
G01*
X125306250Y-60500000D01*
G75*
G02*
X125525000Y-60718750I0J-218750D01*
G01*
X125525000Y-61156250D01*
G75*
G02*
X125306250Y-61375000I-218750J0D01*
G01*
G37*
%TD.AperFunction*%
%TD*%
%TO.P,R16,2*%
%TO.N,DVDD*%
%TA.AperFunction,SMDPad,CuDef*%
G36*
G01*
X126906250Y-59800000D02*
X126393750Y-59800000D01*
G75*
G02*
X126175000Y-59581250I0J218750D01*
G01*
X126175000Y-59143750D01*
G75*
G02*
X126393750Y-58925000I218750J0D01*
G01*
X126906250Y-58925000D01*
G75*
G02*
X127125000Y-59143750I0J-218750D01*
G01*
X127125000Y-59581250D01*
G75*
G02*
X126906250Y-59800000I-218750J0D01*
G01*
G37*
%TD.AperFunction*%
%TO.P,R16,1*%
%TO.N,Net-(R16-Pad1)*%
%TA.AperFunction,SMDPad,CuDef*%
G36*
G01*
X126906250Y-61375000D02*
X126393750Y-61375000D01*
G75*
G02*
X126175000Y-61156250I0J218750D01*
G01*
X126175000Y-60718750D01*
G75*
G02*
X126393750Y-60500000I218750J0D01*
G01*
X126906250Y-60500000D01*
G75*
G02*
X127125000Y-60718750I0J-218750D01*
G01*
X127125000Y-61156250D01*
G75*
G02*
X126906250Y-61375000I-218750J0D01*
G01*
G37*
%TD.AperFunction*%
%TD*%
%TO.P,R15,2*%
%TO.N,DVDD*%
%TA.AperFunction,SMDPad,CuDef*%
G36*
G01*
X128656250Y-59800000D02*
X128143750Y-59800000D01*
G75*
G02*
X127925000Y-59581250I0J218750D01*
G01*
X127925000Y-59143750D01*
G75*
G02*
X128143750Y-58925000I218750J0D01*
G01*
X128656250Y-58925000D01*
G75*
G02*
X128875000Y-59143750I0J-218750D01*
G01*
X128875000Y-59581250D01*
G75*
G02*
X128656250Y-59800000I-218750J0D01*
G01*
G37*
%TD.AperFunction*%
%TO.P,R15,1*%
%TO.N,Net-(R15-Pad1)*%
%TA.AperFunction,SMDPad,CuDef*%
G36*
G01*
X128656250Y-61375000D02*
X128143750Y-61375000D01*
G75*
G02*
X127925000Y-61156250I0J218750D01*
G01*
X127925000Y-60718750D01*
G75*
G02*
X128143750Y-60500000I218750J0D01*
G01*
X128656250Y-60500000D01*
G75*
G02*
X128875000Y-60718750I0J-218750D01*
G01*
X128875000Y-61156250D01*
G75*
G02*
X128656250Y-61375000I-218750J0D01*
G01*
G37*
%TD.AperFunction*%
%TD*%
D18*
%TO.P,U4,3*%
%TO.N,GND*%
X122975000Y-50425000D03*
D19*
%TO.P,U4,5*%
X113825000Y-53825000D03*
%TO.P,U4,4*%
%TO.N,+12V*%
X113825000Y-52125000D03*
%TO.P,U4,3*%
%TO.N,GND*%
X113825000Y-50425000D03*
%TO.P,U4,2*%
%TO.N,Net-(D1-Pad1)*%
X113825000Y-48725000D03*
%TO.P,U4,1*%
%TO.N,+48V*%
X113825000Y-47025000D03*
%TD*%
D20*
%TO.P,U1,1*%
%TO.N,GND*%
X94150000Y-61700000D03*
%TO.P,U1,3*%
%TO.N,+12V*%
X89550000Y-61700000D03*
%TO.P,U1,2*%
%TO.N,+3V3*%
X91850000Y-61700000D03*
D21*
X91850000Y-68000000D03*
%TD*%
%TO.P,C16,2*%
%TO.N,GND*%
%TA.AperFunction,SMDPad,CuDef*%
G36*
G01*
X124370250Y-73673500D02*
X123857750Y-73673500D01*
G75*
G02*
X123639000Y-73454750I0J218750D01*
G01*
X123639000Y-73017250D01*
G75*
G02*
X123857750Y-72798500I218750J0D01*
G01*
X124370250Y-72798500D01*
G75*
G02*
X124589000Y-73017250I0J-218750D01*
G01*
X124589000Y-73454750D01*
G75*
G02*
X124370250Y-73673500I-218750J0D01*
G01*
G37*
%TD.AperFunction*%
%TO.P,C16,1*%
%TO.N,+48V*%
%TA.AperFunction,SMDPad,CuDef*%
G36*
G01*
X124370250Y-75248500D02*
X123857750Y-75248500D01*
G75*
G02*
X123639000Y-75029750I0J218750D01*
G01*
X123639000Y-74592250D01*
G75*
G02*
X123857750Y-74373500I218750J0D01*
G01*
X124370250Y-74373500D01*
G75*
G02*
X124589000Y-74592250I0J-218750D01*
G01*
X124589000Y-75029750D01*
G75*
G02*
X124370250Y-75248500I-218750J0D01*
G01*
G37*
%TD.AperFunction*%
%TD*%
%TO.P,R5,2*%
%TO.N,Net-(C21-Pad1)*%
%TA.AperFunction,SMDPad,CuDef*%
G36*
G01*
X101906250Y-69387500D02*
X101393750Y-69387500D01*
G75*
G02*
X101175000Y-69168750I0J218750D01*
G01*
X101175000Y-68731250D01*
G75*
G02*
X101393750Y-68512500I218750J0D01*
G01*
X101906250Y-68512500D01*
G75*
G02*
X102125000Y-68731250I0J-218750D01*
G01*
X102125000Y-69168750D01*
G75*
G02*
X101906250Y-69387500I-218750J0D01*
G01*
G37*
%TD.AperFunction*%
%TO.P,R5,1*%
%TO.N,HSE_OUT*%
%TA.AperFunction,SMDPad,CuDef*%
G36*
G01*
X101906250Y-70962500D02*
X101393750Y-70962500D01*
G75*
G02*
X101175000Y-70743750I0J218750D01*
G01*
X101175000Y-70306250D01*
G75*
G02*
X101393750Y-70087500I218750J0D01*
G01*
X101906250Y-70087500D01*
G75*
G02*
X102125000Y-70306250I0J-218750D01*
G01*
X102125000Y-70743750D01*
G75*
G02*
X101906250Y-70962500I-218750J0D01*
G01*
G37*
%TD.AperFunction*%
%TD*%
D22*
%TO.P,L1,2*%
%TO.N,+12V*%
X95450000Y-51150000D03*
%TO.P,L1,1*%
%TO.N,Net-(D1-Pad1)*%
X105350000Y-51150000D03*
%TD*%
D23*
%TO.P,D1,2*%
%TO.N,GND*%
X117060000Y-58500000D03*
%TO.P,D1,1*%
%TO.N,Net-(D1-Pad1)*%
X112760000Y-58500000D03*
%TD*%
%TO.P,C14,2*%
%TO.N,GND*%
%TA.AperFunction,SMDPad,CuDef*%
G36*
G01*
X86750000Y-54300000D02*
X88750000Y-54300000D01*
G75*
G02*
X89000000Y-54550000I0J-250000D01*
G01*
X89000000Y-58050000D01*
G75*
G02*
X88750000Y-58300000I-250000J0D01*
G01*
X86750000Y-58300000D01*
G75*
G02*
X86500000Y-58050000I0J250000D01*
G01*
X86500000Y-54550000D01*
G75*
G02*
X86750000Y-54300000I250000J0D01*
G01*
G37*
%TD.AperFunction*%
%TO.P,C14,1*%
%TO.N,+12V*%
%TA.AperFunction,SMDPad,CuDef*%
G36*
G01*
X86750000Y-46300000D02*
X88750000Y-46300000D01*
G75*
G02*
X89000000Y-46550000I0J-250000D01*
G01*
X89000000Y-50050000D01*
G75*
G02*
X88750000Y-50300000I-250000J0D01*
G01*
X86750000Y-50300000D01*
G75*
G02*
X86500000Y-50050000I0J250000D01*
G01*
X86500000Y-46550000D01*
G75*
G02*
X86750000Y-46300000I250000J0D01*
G01*
G37*
%TD.AperFunction*%
%TD*%
%TO.P,C13,2*%
%TO.N,GND*%
%TA.AperFunction,SMDPad,CuDef*%
G36*
G01*
X133500000Y-52300000D02*
X135500000Y-52300000D01*
G75*
G02*
X135750000Y-52550000I0J-250000D01*
G01*
X135750000Y-56050000D01*
G75*
G02*
X135500000Y-56300000I-250000J0D01*
G01*
X133500000Y-56300000D01*
G75*
G02*
X133250000Y-56050000I0J250000D01*
G01*
X133250000Y-52550000D01*
G75*
G02*
X133500000Y-52300000I250000J0D01*
G01*
G37*
%TD.AperFunction*%
%TO.P,C13,1*%
%TO.N,+48V*%
%TA.AperFunction,SMDPad,CuDef*%
G36*
G01*
X133500000Y-44300000D02*
X135500000Y-44300000D01*
G75*
G02*
X135750000Y-44550000I0J-250000D01*
G01*
X135750000Y-48050000D01*
G75*
G02*
X135500000Y-48300000I-250000J0D01*
G01*
X133500000Y-48300000D01*
G75*
G02*
X133250000Y-48050000I0J250000D01*
G01*
X133250000Y-44550000D01*
G75*
G02*
X133500000Y-44300000I250000J0D01*
G01*
G37*
%TD.AperFunction*%
%TD*%
%TO.P,U3,64*%
%TO.N,+3V3*%
%TA.AperFunction,SMDPad,CuDef*%
G36*
G01*
X106250000Y-65025000D02*
X106250000Y-63625000D01*
G75*
G02*
X106325000Y-63550000I75000J0D01*
G01*
X106475000Y-63550000D01*
G75*
G02*
X106550000Y-63625000I0J-75000D01*
G01*
X106550000Y-65025000D01*
G75*
G02*
X106475000Y-65100000I-75000J0D01*
G01*
X106325000Y-65100000D01*
G75*
G02*
X106250000Y-65025000I0J75000D01*
G01*
G37*
%TD.AperFunction*%
%TO.P,U3,63*%
%TO.N,GND*%
%TA.AperFunction,SMDPad,CuDef*%
G36*
G01*
X106750000Y-65025000D02*
X106750000Y-63625000D01*
G75*
G02*
X106825000Y-63550000I75000J0D01*
G01*
X106975000Y-63550000D01*
G75*
G02*
X107050000Y-63625000I0J-75000D01*
G01*
X107050000Y-65025000D01*
G75*
G02*
X106975000Y-65100000I-75000J0D01*
G01*
X106825000Y-65100000D01*
G75*
G02*
X106750000Y-65025000I0J75000D01*
G01*
G37*
%TD.AperFunction*%
%TO.P,U3,62*%
%TO.N,i2c1_SDA*%
%TA.AperFunction,SMDPad,CuDef*%
G36*
G01*
X107250000Y-65025000D02*
X107250000Y-63625000D01*
G75*
G02*
X107325000Y-63550000I75000J0D01*
G01*
X107475000Y-63550000D01*
G75*
G02*
X107550000Y-63625000I0J-75000D01*
G01*
X107550000Y-65025000D01*
G75*
G02*
X107475000Y-65100000I-75000J0D01*
G01*
X107325000Y-65100000D01*
G75*
G02*
X107250000Y-65025000I0J75000D01*
G01*
G37*
%TD.AperFunction*%
%TO.P,U3,61*%
%TO.N,i2c1_SCL*%
%TA.AperFunction,SMDPad,CuDef*%
G36*
G01*
X107750000Y-65025000D02*
X107750000Y-63625000D01*
G75*
G02*
X107825000Y-63550000I75000J0D01*
G01*
X107975000Y-63550000D01*
G75*
G02*
X108050000Y-63625000I0J-75000D01*
G01*
X108050000Y-65025000D01*
G75*
G02*
X107975000Y-65100000I-75000J0D01*
G01*
X107825000Y-65100000D01*
G75*
G02*
X107750000Y-65025000I0J75000D01*
G01*
G37*
%TD.AperFunction*%
%TO.P,U3,60*%
%TO.N,BOOT0*%
%TA.AperFunction,SMDPad,CuDef*%
G36*
G01*
X108250000Y-65025000D02*
X108250000Y-63625000D01*
G75*
G02*
X108325000Y-63550000I75000J0D01*
G01*
X108475000Y-63550000D01*
G75*
G02*
X108550000Y-63625000I0J-75000D01*
G01*
X108550000Y-65025000D01*
G75*
G02*
X108475000Y-65100000I-75000J0D01*
G01*
X108325000Y-65100000D01*
G75*
G02*
X108250000Y-65025000I0J75000D01*
G01*
G37*
%TD.AperFunction*%
%TO.P,U3,59*%
%TO.N,USART1_RX*%
%TA.AperFunction,SMDPad,CuDef*%
G36*
G01*
X108750000Y-65025000D02*
X108750000Y-63625000D01*
G75*
G02*
X108825000Y-63550000I75000J0D01*
G01*
X108975000Y-63550000D01*
G75*
G02*
X109050000Y-63625000I0J-75000D01*
G01*
X109050000Y-65025000D01*
G75*
G02*
X108975000Y-65100000I-75000J0D01*
G01*
X108825000Y-65100000D01*
G75*
G02*
X108750000Y-65025000I0J75000D01*
G01*
G37*
%TD.AperFunction*%
%TO.P,U3,58*%
%TO.N,USART1_TX*%
%TA.AperFunction,SMDPad,CuDef*%
G36*
G01*
X109250000Y-65025000D02*
X109250000Y-63625000D01*
G75*
G02*
X109325000Y-63550000I75000J0D01*
G01*
X109475000Y-63550000D01*
G75*
G02*
X109550000Y-63625000I0J-75000D01*
G01*
X109550000Y-65025000D01*
G75*
G02*
X109475000Y-65100000I-75000J0D01*
G01*
X109325000Y-65100000D01*
G75*
G02*
X109250000Y-65025000I0J75000D01*
G01*
G37*
%TD.AperFunction*%
%TO.P,U3,57*%
%TO.N,Net-(U3-Pad57)*%
%TA.AperFunction,SMDPad,CuDef*%
G36*
G01*
X109750000Y-65025000D02*
X109750000Y-63625000D01*
G75*
G02*
X109825000Y-63550000I75000J0D01*
G01*
X109975000Y-63550000D01*
G75*
G02*
X110050000Y-63625000I0J-75000D01*
G01*
X110050000Y-65025000D01*
G75*
G02*
X109975000Y-65100000I-75000J0D01*
G01*
X109825000Y-65100000D01*
G75*
G02*
X109750000Y-65025000I0J75000D01*
G01*
G37*
%TD.AperFunction*%
%TO.P,U3,56*%
%TO.N,Net-(U3-Pad56)*%
%TA.AperFunction,SMDPad,CuDef*%
G36*
G01*
X110250000Y-65025000D02*
X110250000Y-63625000D01*
G75*
G02*
X110325000Y-63550000I75000J0D01*
G01*
X110475000Y-63550000D01*
G75*
G02*
X110550000Y-63625000I0J-75000D01*
G01*
X110550000Y-65025000D01*
G75*
G02*
X110475000Y-65100000I-75000J0D01*
G01*
X110325000Y-65100000D01*
G75*
G02*
X110250000Y-65025000I0J75000D01*
G01*
G37*
%TD.AperFunction*%
%TO.P,U3,55*%
%TO.N,SWO*%
%TA.AperFunction,SMDPad,CuDef*%
G36*
G01*
X110750000Y-65025000D02*
X110750000Y-63625000D01*
G75*
G02*
X110825000Y-63550000I75000J0D01*
G01*
X110975000Y-63550000D01*
G75*
G02*
X111050000Y-63625000I0J-75000D01*
G01*
X111050000Y-65025000D01*
G75*
G02*
X110975000Y-65100000I-75000J0D01*
G01*
X110825000Y-65100000D01*
G75*
G02*
X110750000Y-65025000I0J75000D01*
G01*
G37*
%TD.AperFunction*%
%TO.P,U3,54*%
%TO.N,Net-(U3-Pad54)*%
%TA.AperFunction,SMDPad,CuDef*%
G36*
G01*
X111250000Y-65025000D02*
X111250000Y-63625000D01*
G75*
G02*
X111325000Y-63550000I75000J0D01*
G01*
X111475000Y-63550000D01*
G75*
G02*
X111550000Y-63625000I0J-75000D01*
G01*
X111550000Y-65025000D01*
G75*
G02*
X111475000Y-65100000I-75000J0D01*
G01*
X111325000Y-65100000D01*
G75*
G02*
X111250000Y-65025000I0J75000D01*
G01*
G37*
%TD.AperFunction*%
%TO.P,U3,53*%
%TO.N,Net-(U3-Pad53)*%
%TA.AperFunction,SMDPad,CuDef*%
G36*
G01*
X111750000Y-65025000D02*
X111750000Y-63625000D01*
G75*
G02*
X111825000Y-63550000I75000J0D01*
G01*
X111975000Y-63550000D01*
G75*
G02*
X112050000Y-63625000I0J-75000D01*
G01*
X112050000Y-65025000D01*
G75*
G02*
X111975000Y-65100000I-75000J0D01*
G01*
X111825000Y-65100000D01*
G75*
G02*
X111750000Y-65025000I0J75000D01*
G01*
G37*
%TD.AperFunction*%
%TO.P,U3,52*%
%TO.N,Net-(U3-Pad52)*%
%TA.AperFunction,SMDPad,CuDef*%
G36*
G01*
X112250000Y-65025000D02*
X112250000Y-63625000D01*
G75*
G02*
X112325000Y-63550000I75000J0D01*
G01*
X112475000Y-63550000D01*
G75*
G02*
X112550000Y-63625000I0J-75000D01*
G01*
X112550000Y-65025000D01*
G75*
G02*
X112475000Y-65100000I-75000J0D01*
G01*
X112325000Y-65100000D01*
G75*
G02*
X112250000Y-65025000I0J75000D01*
G01*
G37*
%TD.AperFunction*%
%TO.P,U3,51*%
%TO.N,Net-(U3-Pad51)*%
%TA.AperFunction,SMDPad,CuDef*%
G36*
G01*
X112750000Y-65025000D02*
X112750000Y-63625000D01*
G75*
G02*
X112825000Y-63550000I75000J0D01*
G01*
X112975000Y-63550000D01*
G75*
G02*
X113050000Y-63625000I0J-75000D01*
G01*
X113050000Y-65025000D01*
G75*
G02*
X112975000Y-65100000I-75000J0D01*
G01*
X112825000Y-65100000D01*
G75*
G02*
X112750000Y-65025000I0J75000D01*
G01*
G37*
%TD.AperFunction*%
%TO.P,U3,50*%
%TO.N,Net-(U3-Pad50)*%
%TA.AperFunction,SMDPad,CuDef*%
G36*
G01*
X113250000Y-65025000D02*
X113250000Y-63625000D01*
G75*
G02*
X113325000Y-63550000I75000J0D01*
G01*
X113475000Y-63550000D01*
G75*
G02*
X113550000Y-63625000I0J-75000D01*
G01*
X113550000Y-65025000D01*
G75*
G02*
X113475000Y-65100000I-75000J0D01*
G01*
X113325000Y-65100000D01*
G75*
G02*
X113250000Y-65025000I0J75000D01*
G01*
G37*
%TD.AperFunction*%
%TO.P,U3,49*%
%TO.N,SWCLK*%
%TA.AperFunction,SMDPad,CuDef*%
G36*
G01*
X113750000Y-65025000D02*
X113750000Y-63625000D01*
G75*
G02*
X113825000Y-63550000I75000J0D01*
G01*
X113975000Y-63550000D01*
G75*
G02*
X114050000Y-63625000I0J-75000D01*
G01*
X114050000Y-65025000D01*
G75*
G02*
X113975000Y-65100000I-75000J0D01*
G01*
X113825000Y-65100000D01*
G75*
G02*
X113750000Y-65025000I0J75000D01*
G01*
G37*
%TD.AperFunction*%
%TO.P,U3,48*%
%TO.N,+3V3*%
%TA.AperFunction,SMDPad,CuDef*%
G36*
G01*
X115050000Y-66325000D02*
X115050000Y-66175000D01*
G75*
G02*
X115125000Y-66100000I75000J0D01*
G01*
X116525000Y-66100000D01*
G75*
G02*
X116600000Y-66175000I0J-75000D01*
G01*
X116600000Y-66325000D01*
G75*
G02*
X116525000Y-66400000I-75000J0D01*
G01*
X115125000Y-66400000D01*
G75*
G02*
X115050000Y-66325000I0J75000D01*
G01*
G37*
%TD.AperFunction*%
%TO.P,U3,47*%
%TO.N,GND*%
%TA.AperFunction,SMDPad,CuDef*%
G36*
G01*
X115050000Y-66825000D02*
X115050000Y-66675000D01*
G75*
G02*
X115125000Y-66600000I75000J0D01*
G01*
X116525000Y-66600000D01*
G75*
G02*
X116600000Y-66675000I0J-75000D01*
G01*
X116600000Y-66825000D01*
G75*
G02*
X116525000Y-66900000I-75000J0D01*
G01*
X115125000Y-66900000D01*
G75*
G02*
X115050000Y-66825000I0J75000D01*
G01*
G37*
%TD.AperFunction*%
%TO.P,U3,46*%
%TO.N,SWDIO*%
%TA.AperFunction,SMDPad,CuDef*%
G36*
G01*
X115050000Y-67325000D02*
X115050000Y-67175000D01*
G75*
G02*
X115125000Y-67100000I75000J0D01*
G01*
X116525000Y-67100000D01*
G75*
G02*
X116600000Y-67175000I0J-75000D01*
G01*
X116600000Y-67325000D01*
G75*
G02*
X116525000Y-67400000I-75000J0D01*
G01*
X115125000Y-67400000D01*
G75*
G02*
X115050000Y-67325000I0J75000D01*
G01*
G37*
%TD.AperFunction*%
%TO.P,U3,45*%
%TO.N,Net-(U3-Pad45)*%
%TA.AperFunction,SMDPad,CuDef*%
G36*
G01*
X115050000Y-67825000D02*
X115050000Y-67675000D01*
G75*
G02*
X115125000Y-67600000I75000J0D01*
G01*
X116525000Y-67600000D01*
G75*
G02*
X116600000Y-67675000I0J-75000D01*
G01*
X116600000Y-67825000D01*
G75*
G02*
X116525000Y-67900000I-75000J0D01*
G01*
X115125000Y-67900000D01*
G75*
G02*
X115050000Y-67825000I0J75000D01*
G01*
G37*
%TD.AperFunction*%
%TO.P,U3,44*%
%TO.N,Net-(U3-Pad44)*%
%TA.AperFunction,SMDPad,CuDef*%
G36*
G01*
X115050000Y-68325000D02*
X115050000Y-68175000D01*
G75*
G02*
X115125000Y-68100000I75000J0D01*
G01*
X116525000Y-68100000D01*
G75*
G02*
X116600000Y-68175000I0J-75000D01*
G01*
X116600000Y-68325000D01*
G75*
G02*
X116525000Y-68400000I-75000J0D01*
G01*
X115125000Y-68400000D01*
G75*
G02*
X115050000Y-68325000I0J75000D01*
G01*
G37*
%TD.AperFunction*%
%TO.P,U3,43*%
%TO.N,TIM1_CH3*%
%TA.AperFunction,SMDPad,CuDef*%
G36*
G01*
X115050000Y-68825000D02*
X115050000Y-68675000D01*
G75*
G02*
X115125000Y-68600000I75000J0D01*
G01*
X116525000Y-68600000D01*
G75*
G02*
X116600000Y-68675000I0J-75000D01*
G01*
X116600000Y-68825000D01*
G75*
G02*
X116525000Y-68900000I-75000J0D01*
G01*
X115125000Y-68900000D01*
G75*
G02*
X115050000Y-68825000I0J75000D01*
G01*
G37*
%TD.AperFunction*%
%TO.P,U3,42*%
%TO.N,TIM1_CH2*%
%TA.AperFunction,SMDPad,CuDef*%
G36*
G01*
X115050000Y-69325000D02*
X115050000Y-69175000D01*
G75*
G02*
X115125000Y-69100000I75000J0D01*
G01*
X116525000Y-69100000D01*
G75*
G02*
X116600000Y-69175000I0J-75000D01*
G01*
X116600000Y-69325000D01*
G75*
G02*
X116525000Y-69400000I-75000J0D01*
G01*
X115125000Y-69400000D01*
G75*
G02*
X115050000Y-69325000I0J75000D01*
G01*
G37*
%TD.AperFunction*%
%TO.P,U3,41*%
%TO.N,TIM1_CH1*%
%TA.AperFunction,SMDPad,CuDef*%
G36*
G01*
X115050000Y-69825000D02*
X115050000Y-69675000D01*
G75*
G02*
X115125000Y-69600000I75000J0D01*
G01*
X116525000Y-69600000D01*
G75*
G02*
X116600000Y-69675000I0J-75000D01*
G01*
X116600000Y-69825000D01*
G75*
G02*
X116525000Y-69900000I-75000J0D01*
G01*
X115125000Y-69900000D01*
G75*
G02*
X115050000Y-69825000I0J75000D01*
G01*
G37*
%TD.AperFunction*%
%TO.P,U3,40*%
%TO.N,Net-(U3-Pad40)*%
%TA.AperFunction,SMDPad,CuDef*%
G36*
G01*
X115050000Y-70325000D02*
X115050000Y-70175000D01*
G75*
G02*
X115125000Y-70100000I75000J0D01*
G01*
X116525000Y-70100000D01*
G75*
G02*
X116600000Y-70175000I0J-75000D01*
G01*
X116600000Y-70325000D01*
G75*
G02*
X116525000Y-70400000I-75000J0D01*
G01*
X115125000Y-70400000D01*
G75*
G02*
X115050000Y-70325000I0J75000D01*
G01*
G37*
%TD.AperFunction*%
%TO.P,U3,39*%
%TO.N,Net-(U3-Pad39)*%
%TA.AperFunction,SMDPad,CuDef*%
G36*
G01*
X115050000Y-70825000D02*
X115050000Y-70675000D01*
G75*
G02*
X115125000Y-70600000I75000J0D01*
G01*
X116525000Y-70600000D01*
G75*
G02*
X116600000Y-70675000I0J-75000D01*
G01*
X116600000Y-70825000D01*
G75*
G02*
X116525000Y-70900000I-75000J0D01*
G01*
X115125000Y-70900000D01*
G75*
G02*
X115050000Y-70825000I0J75000D01*
G01*
G37*
%TD.AperFunction*%
%TO.P,U3,38*%
%TO.N,Net-(U3-Pad38)*%
%TA.AperFunction,SMDPad,CuDef*%
G36*
G01*
X115050000Y-71325000D02*
X115050000Y-71175000D01*
G75*
G02*
X115125000Y-71100000I75000J0D01*
G01*
X116525000Y-71100000D01*
G75*
G02*
X116600000Y-71175000I0J-75000D01*
G01*
X116600000Y-71325000D01*
G75*
G02*
X116525000Y-71400000I-75000J0D01*
G01*
X115125000Y-71400000D01*
G75*
G02*
X115050000Y-71325000I0J75000D01*
G01*
G37*
%TD.AperFunction*%
%TO.P,U3,37*%
%TO.N,Net-(U3-Pad37)*%
%TA.AperFunction,SMDPad,CuDef*%
G36*
G01*
X115050000Y-71825000D02*
X115050000Y-71675000D01*
G75*
G02*
X115125000Y-71600000I75000J0D01*
G01*
X116525000Y-71600000D01*
G75*
G02*
X116600000Y-71675000I0J-75000D01*
G01*
X116600000Y-71825000D01*
G75*
G02*
X116525000Y-71900000I-75000J0D01*
G01*
X115125000Y-71900000D01*
G75*
G02*
X115050000Y-71825000I0J75000D01*
G01*
G37*
%TD.AperFunction*%
%TO.P,U3,36*%
%TO.N,TIM1_CH3N*%
%TA.AperFunction,SMDPad,CuDef*%
G36*
G01*
X115050000Y-72325000D02*
X115050000Y-72175000D01*
G75*
G02*
X115125000Y-72100000I75000J0D01*
G01*
X116525000Y-72100000D01*
G75*
G02*
X116600000Y-72175000I0J-75000D01*
G01*
X116600000Y-72325000D01*
G75*
G02*
X116525000Y-72400000I-75000J0D01*
G01*
X115125000Y-72400000D01*
G75*
G02*
X115050000Y-72325000I0J75000D01*
G01*
G37*
%TD.AperFunction*%
%TO.P,U3,35*%
%TO.N,TIM1_CH2N*%
%TA.AperFunction,SMDPad,CuDef*%
G36*
G01*
X115050000Y-72825000D02*
X115050000Y-72675000D01*
G75*
G02*
X115125000Y-72600000I75000J0D01*
G01*
X116525000Y-72600000D01*
G75*
G02*
X116600000Y-72675000I0J-75000D01*
G01*
X116600000Y-72825000D01*
G75*
G02*
X116525000Y-72900000I-75000J0D01*
G01*
X115125000Y-72900000D01*
G75*
G02*
X115050000Y-72825000I0J75000D01*
G01*
G37*
%TD.AperFunction*%
%TO.P,U3,34*%
%TO.N,TIM1_CH1N*%
%TA.AperFunction,SMDPad,CuDef*%
G36*
G01*
X115050000Y-73325000D02*
X115050000Y-73175000D01*
G75*
G02*
X115125000Y-73100000I75000J0D01*
G01*
X116525000Y-73100000D01*
G75*
G02*
X116600000Y-73175000I0J-75000D01*
G01*
X116600000Y-73325000D01*
G75*
G02*
X116525000Y-73400000I-75000J0D01*
G01*
X115125000Y-73400000D01*
G75*
G02*
X115050000Y-73325000I0J75000D01*
G01*
G37*
%TD.AperFunction*%
%TO.P,U3,33*%
%TO.N,Net-(U3-Pad33)*%
%TA.AperFunction,SMDPad,CuDef*%
G36*
G01*
X115050000Y-73825000D02*
X115050000Y-73675000D01*
G75*
G02*
X115125000Y-73600000I75000J0D01*
G01*
X116525000Y-73600000D01*
G75*
G02*
X116600000Y-73675000I0J-75000D01*
G01*
X116600000Y-73825000D01*
G75*
G02*
X116525000Y-73900000I-75000J0D01*
G01*
X115125000Y-73900000D01*
G75*
G02*
X115050000Y-73825000I0J75000D01*
G01*
G37*
%TD.AperFunction*%
%TO.P,U3,32*%
%TO.N,+3V3*%
%TA.AperFunction,SMDPad,CuDef*%
G36*
G01*
X113750000Y-76375000D02*
X113750000Y-74975000D01*
G75*
G02*
X113825000Y-74900000I75000J0D01*
G01*
X113975000Y-74900000D01*
G75*
G02*
X114050000Y-74975000I0J-75000D01*
G01*
X114050000Y-76375000D01*
G75*
G02*
X113975000Y-76450000I-75000J0D01*
G01*
X113825000Y-76450000D01*
G75*
G02*
X113750000Y-76375000I0J75000D01*
G01*
G37*
%TD.AperFunction*%
%TO.P,U3,31*%
%TO.N,GND*%
%TA.AperFunction,SMDPad,CuDef*%
G36*
G01*
X113250000Y-76375000D02*
X113250000Y-74975000D01*
G75*
G02*
X113325000Y-74900000I75000J0D01*
G01*
X113475000Y-74900000D01*
G75*
G02*
X113550000Y-74975000I0J-75000D01*
G01*
X113550000Y-76375000D01*
G75*
G02*
X113475000Y-76450000I-75000J0D01*
G01*
X113325000Y-76450000D01*
G75*
G02*
X113250000Y-76375000I0J75000D01*
G01*
G37*
%TD.AperFunction*%
%TO.P,U3,30*%
%TO.N,Net-(C19-Pad1)*%
%TA.AperFunction,SMDPad,CuDef*%
G36*
G01*
X112750000Y-76375000D02*
X112750000Y-74975000D01*
G75*
G02*
X112825000Y-74900000I75000J0D01*
G01*
X112975000Y-74900000D01*
G75*
G02*
X113050000Y-74975000I0J-75000D01*
G01*
X113050000Y-76375000D01*
G75*
G02*
X112975000Y-76450000I-75000J0D01*
G01*
X112825000Y-76450000D01*
G75*
G02*
X112750000Y-76375000I0J75000D01*
G01*
G37*
%TD.AperFunction*%
%TO.P,U3,29*%
%TO.N,Net-(U3-Pad29)*%
%TA.AperFunction,SMDPad,CuDef*%
G36*
G01*
X112250000Y-76375000D02*
X112250000Y-74975000D01*
G75*
G02*
X112325000Y-74900000I75000J0D01*
G01*
X112475000Y-74900000D01*
G75*
G02*
X112550000Y-74975000I0J-75000D01*
G01*
X112550000Y-76375000D01*
G75*
G02*
X112475000Y-76450000I-75000J0D01*
G01*
X112325000Y-76450000D01*
G75*
G02*
X112250000Y-76375000I0J75000D01*
G01*
G37*
%TD.AperFunction*%
%TO.P,U3,28*%
%TO.N,BOOT1*%
%TA.AperFunction,SMDPad,CuDef*%
G36*
G01*
X111750000Y-76375000D02*
X111750000Y-74975000D01*
G75*
G02*
X111825000Y-74900000I75000J0D01*
G01*
X111975000Y-74900000D01*
G75*
G02*
X112050000Y-74975000I0J-75000D01*
G01*
X112050000Y-76375000D01*
G75*
G02*
X111975000Y-76450000I-75000J0D01*
G01*
X111825000Y-76450000D01*
G75*
G02*
X111750000Y-76375000I0J75000D01*
G01*
G37*
%TD.AperFunction*%
%TO.P,U3,27*%
%TO.N,Net-(U3-Pad27)*%
%TA.AperFunction,SMDPad,CuDef*%
G36*
G01*
X111250000Y-76375000D02*
X111250000Y-74975000D01*
G75*
G02*
X111325000Y-74900000I75000J0D01*
G01*
X111475000Y-74900000D01*
G75*
G02*
X111550000Y-74975000I0J-75000D01*
G01*
X111550000Y-76375000D01*
G75*
G02*
X111475000Y-76450000I-75000J0D01*
G01*
X111325000Y-76450000D01*
G75*
G02*
X111250000Y-76375000I0J75000D01*
G01*
G37*
%TD.AperFunction*%
%TO.P,U3,26*%
%TO.N,Net-(U3-Pad26)*%
%TA.AperFunction,SMDPad,CuDef*%
G36*
G01*
X110750000Y-76375000D02*
X110750000Y-74975000D01*
G75*
G02*
X110825000Y-74900000I75000J0D01*
G01*
X110975000Y-74900000D01*
G75*
G02*
X111050000Y-74975000I0J-75000D01*
G01*
X111050000Y-76375000D01*
G75*
G02*
X110975000Y-76450000I-75000J0D01*
G01*
X110825000Y-76450000D01*
G75*
G02*
X110750000Y-76375000I0J75000D01*
G01*
G37*
%TD.AperFunction*%
%TO.P,U3,25*%
%TO.N,Net-(U3-Pad25)*%
%TA.AperFunction,SMDPad,CuDef*%
G36*
G01*
X110250000Y-76375000D02*
X110250000Y-74975000D01*
G75*
G02*
X110325000Y-74900000I75000J0D01*
G01*
X110475000Y-74900000D01*
G75*
G02*
X110550000Y-74975000I0J-75000D01*
G01*
X110550000Y-76375000D01*
G75*
G02*
X110475000Y-76450000I-75000J0D01*
G01*
X110325000Y-76450000D01*
G75*
G02*
X110250000Y-76375000I0J75000D01*
G01*
G37*
%TD.AperFunction*%
%TO.P,U3,24*%
%TO.N,Net-(U3-Pad24)*%
%TA.AperFunction,SMDPad,CuDef*%
G36*
G01*
X109750000Y-76375000D02*
X109750000Y-74975000D01*
G75*
G02*
X109825000Y-74900000I75000J0D01*
G01*
X109975000Y-74900000D01*
G75*
G02*
X110050000Y-74975000I0J-75000D01*
G01*
X110050000Y-76375000D01*
G75*
G02*
X109975000Y-76450000I-75000J0D01*
G01*
X109825000Y-76450000D01*
G75*
G02*
X109750000Y-76375000I0J75000D01*
G01*
G37*
%TD.AperFunction*%
%TO.P,U3,23*%
%TO.N,Net-(U3-Pad23)*%
%TA.AperFunction,SMDPad,CuDef*%
G36*
G01*
X109250000Y-76375000D02*
X109250000Y-74975000D01*
G75*
G02*
X109325000Y-74900000I75000J0D01*
G01*
X109475000Y-74900000D01*
G75*
G02*
X109550000Y-74975000I0J-75000D01*
G01*
X109550000Y-76375000D01*
G75*
G02*
X109475000Y-76450000I-75000J0D01*
G01*
X109325000Y-76450000D01*
G75*
G02*
X109250000Y-76375000I0J75000D01*
G01*
G37*
%TD.AperFunction*%
%TO.P,U3,22*%
%TO.N,encoder_2*%
%TA.AperFunction,SMDPad,CuDef*%
G36*
G01*
X108750000Y-76375000D02*
X108750000Y-74975000D01*
G75*
G02*
X108825000Y-74900000I75000J0D01*
G01*
X108975000Y-74900000D01*
G75*
G02*
X109050000Y-74975000I0J-75000D01*
G01*
X109050000Y-76375000D01*
G75*
G02*
X108975000Y-76450000I-75000J0D01*
G01*
X108825000Y-76450000D01*
G75*
G02*
X108750000Y-76375000I0J75000D01*
G01*
G37*
%TD.AperFunction*%
%TO.P,U3,21*%
%TO.N,encoder_1*%
%TA.AperFunction,SMDPad,CuDef*%
G36*
G01*
X108250000Y-76375000D02*
X108250000Y-74975000D01*
G75*
G02*
X108325000Y-74900000I75000J0D01*
G01*
X108475000Y-74900000D01*
G75*
G02*
X108550000Y-74975000I0J-75000D01*
G01*
X108550000Y-76375000D01*
G75*
G02*
X108475000Y-76450000I-75000J0D01*
G01*
X108325000Y-76450000D01*
G75*
G02*
X108250000Y-76375000I0J75000D01*
G01*
G37*
%TD.AperFunction*%
%TO.P,U3,20*%
%TO.N,Net-(U3-Pad20)*%
%TA.AperFunction,SMDPad,CuDef*%
G36*
G01*
X107750000Y-76375000D02*
X107750000Y-74975000D01*
G75*
G02*
X107825000Y-74900000I75000J0D01*
G01*
X107975000Y-74900000D01*
G75*
G02*
X108050000Y-74975000I0J-75000D01*
G01*
X108050000Y-76375000D01*
G75*
G02*
X107975000Y-76450000I-75000J0D01*
G01*
X107825000Y-76450000D01*
G75*
G02*
X107750000Y-76375000I0J75000D01*
G01*
G37*
%TD.AperFunction*%
%TO.P,U3,19*%
%TO.N,+3V3*%
%TA.AperFunction,SMDPad,CuDef*%
G36*
G01*
X107250000Y-76375000D02*
X107250000Y-74975000D01*
G75*
G02*
X107325000Y-74900000I75000J0D01*
G01*
X107475000Y-74900000D01*
G75*
G02*
X107550000Y-74975000I0J-75000D01*
G01*
X107550000Y-76375000D01*
G75*
G02*
X107475000Y-76450000I-75000J0D01*
G01*
X107325000Y-76450000D01*
G75*
G02*
X107250000Y-76375000I0J75000D01*
G01*
G37*
%TD.AperFunction*%
%TO.P,U3,18*%
%TO.N,GND*%
%TA.AperFunction,SMDPad,CuDef*%
G36*
G01*
X106750000Y-76375000D02*
X106750000Y-74975000D01*
G75*
G02*
X106825000Y-74900000I75000J0D01*
G01*
X106975000Y-74900000D01*
G75*
G02*
X107050000Y-74975000I0J-75000D01*
G01*
X107050000Y-76375000D01*
G75*
G02*
X106975000Y-76450000I-75000J0D01*
G01*
X106825000Y-76450000D01*
G75*
G02*
X106750000Y-76375000I0J75000D01*
G01*
G37*
%TD.AperFunction*%
%TO.P,U3,17*%
%TO.N,Net-(U3-Pad17)*%
%TA.AperFunction,SMDPad,CuDef*%
G36*
G01*
X106250000Y-76375000D02*
X106250000Y-74975000D01*
G75*
G02*
X106325000Y-74900000I75000J0D01*
G01*
X106475000Y-74900000D01*
G75*
G02*
X106550000Y-74975000I0J-75000D01*
G01*
X106550000Y-76375000D01*
G75*
G02*
X106475000Y-76450000I-75000J0D01*
G01*
X106325000Y-76450000D01*
G75*
G02*
X106250000Y-76375000I0J75000D01*
G01*
G37*
%TD.AperFunction*%
%TO.P,U3,16*%
%TO.N,SOC*%
%TA.AperFunction,SMDPad,CuDef*%
G36*
G01*
X103700000Y-73825000D02*
X103700000Y-73675000D01*
G75*
G02*
X103775000Y-73600000I75000J0D01*
G01*
X105175000Y-73600000D01*
G75*
G02*
X105250000Y-73675000I0J-75000D01*
G01*
X105250000Y-73825000D01*
G75*
G02*
X105175000Y-73900000I-75000J0D01*
G01*
X103775000Y-73900000D01*
G75*
G02*
X103700000Y-73825000I0J75000D01*
G01*
G37*
%TD.AperFunction*%
%TO.P,U3,15*%
%TO.N,SOB*%
%TA.AperFunction,SMDPad,CuDef*%
G36*
G01*
X103700000Y-73325000D02*
X103700000Y-73175000D01*
G75*
G02*
X103775000Y-73100000I75000J0D01*
G01*
X105175000Y-73100000D01*
G75*
G02*
X105250000Y-73175000I0J-75000D01*
G01*
X105250000Y-73325000D01*
G75*
G02*
X105175000Y-73400000I-75000J0D01*
G01*
X103775000Y-73400000D01*
G75*
G02*
X103700000Y-73325000I0J75000D01*
G01*
G37*
%TD.AperFunction*%
%TO.P,U3,14*%
%TO.N,SOA*%
%TA.AperFunction,SMDPad,CuDef*%
G36*
G01*
X103700000Y-72825000D02*
X103700000Y-72675000D01*
G75*
G02*
X103775000Y-72600000I75000J0D01*
G01*
X105175000Y-72600000D01*
G75*
G02*
X105250000Y-72675000I0J-75000D01*
G01*
X105250000Y-72825000D01*
G75*
G02*
X105175000Y-72900000I-75000J0D01*
G01*
X103775000Y-72900000D01*
G75*
G02*
X103700000Y-72825000I0J75000D01*
G01*
G37*
%TD.AperFunction*%
%TO.P,U3,13*%
%TO.N,+3V3*%
%TA.AperFunction,SMDPad,CuDef*%
G36*
G01*
X103700000Y-72325000D02*
X103700000Y-72175000D01*
G75*
G02*
X103775000Y-72100000I75000J0D01*
G01*
X105175000Y-72100000D01*
G75*
G02*
X105250000Y-72175000I0J-75000D01*
G01*
X105250000Y-72325000D01*
G75*
G02*
X105175000Y-72400000I-75000J0D01*
G01*
X103775000Y-72400000D01*
G75*
G02*
X103700000Y-72325000I0J75000D01*
G01*
G37*
%TD.AperFunction*%
%TO.P,U3,12*%
%TO.N,GND*%
%TA.AperFunction,SMDPad,CuDef*%
G36*
G01*
X103700000Y-71825000D02*
X103700000Y-71675000D01*
G75*
G02*
X103775000Y-71600000I75000J0D01*
G01*
X105175000Y-71600000D01*
G75*
G02*
X105250000Y-71675000I0J-75000D01*
G01*
X105250000Y-71825000D01*
G75*
G02*
X105175000Y-71900000I-75000J0D01*
G01*
X103775000Y-71900000D01*
G75*
G02*
X103700000Y-71825000I0J75000D01*
G01*
G37*
%TD.AperFunction*%
%TO.P,U3,11*%
%TO.N,SC*%
%TA.AperFunction,SMDPad,CuDef*%
G36*
G01*
X103700000Y-71325000D02*
X103700000Y-71175000D01*
G75*
G02*
X103775000Y-71100000I75000J0D01*
G01*
X105175000Y-71100000D01*
G75*
G02*
X105250000Y-71175000I0J-75000D01*
G01*
X105250000Y-71325000D01*
G75*
G02*
X105175000Y-71400000I-75000J0D01*
G01*
X103775000Y-71400000D01*
G75*
G02*
X103700000Y-71325000I0J75000D01*
G01*
G37*
%TD.AperFunction*%
%TO.P,U3,10*%
%TO.N,SPI2_MISO*%
%TA.AperFunction,SMDPad,CuDef*%
G36*
G01*
X103700000Y-70825000D02*
X103700000Y-70675000D01*
G75*
G02*
X103775000Y-70600000I75000J0D01*
G01*
X105175000Y-70600000D01*
G75*
G02*
X105250000Y-70675000I0J-75000D01*
G01*
X105250000Y-70825000D01*
G75*
G02*
X105175000Y-70900000I-75000J0D01*
G01*
X103775000Y-70900000D01*
G75*
G02*
X103700000Y-70825000I0J75000D01*
G01*
G37*
%TD.AperFunction*%
%TO.P,U3,9*%
%TO.N,SPI2_MOSI*%
%TA.AperFunction,SMDPad,CuDef*%
G36*
G01*
X103700000Y-70325000D02*
X103700000Y-70175000D01*
G75*
G02*
X103775000Y-70100000I75000J0D01*
G01*
X105175000Y-70100000D01*
G75*
G02*
X105250000Y-70175000I0J-75000D01*
G01*
X105250000Y-70325000D01*
G75*
G02*
X105175000Y-70400000I-75000J0D01*
G01*
X103775000Y-70400000D01*
G75*
G02*
X103700000Y-70325000I0J75000D01*
G01*
G37*
%TD.AperFunction*%
%TO.P,U3,8*%
%TO.N,Net-(U3-Pad8)*%
%TA.AperFunction,SMDPad,CuDef*%
G36*
G01*
X103700000Y-69825000D02*
X103700000Y-69675000D01*
G75*
G02*
X103775000Y-69600000I75000J0D01*
G01*
X105175000Y-69600000D01*
G75*
G02*
X105250000Y-69675000I0J-75000D01*
G01*
X105250000Y-69825000D01*
G75*
G02*
X105175000Y-69900000I-75000J0D01*
G01*
X103775000Y-69900000D01*
G75*
G02*
X103700000Y-69825000I0J75000D01*
G01*
G37*
%TD.AperFunction*%
%TO.P,U3,7*%
%TO.N,NRST*%
%TA.AperFunction,SMDPad,CuDef*%
G36*
G01*
X103700000Y-69325000D02*
X103700000Y-69175000D01*
G75*
G02*
X103775000Y-69100000I75000J0D01*
G01*
X105175000Y-69100000D01*
G75*
G02*
X105250000Y-69175000I0J-75000D01*
G01*
X105250000Y-69325000D01*
G75*
G02*
X105175000Y-69400000I-75000J0D01*
G01*
X103775000Y-69400000D01*
G75*
G02*
X103700000Y-69325000I0J75000D01*
G01*
G37*
%TD.AperFunction*%
%TO.P,U3,6*%
%TO.N,HSE_OUT*%
%TA.AperFunction,SMDPad,CuDef*%
G36*
G01*
X103700000Y-68825000D02*
X103700000Y-68675000D01*
G75*
G02*
X103775000Y-68600000I75000J0D01*
G01*
X105175000Y-68600000D01*
G75*
G02*
X105250000Y-68675000I0J-75000D01*
G01*
X105250000Y-68825000D01*
G75*
G02*
X105175000Y-68900000I-75000J0D01*
G01*
X103775000Y-68900000D01*
G75*
G02*
X103700000Y-68825000I0J75000D01*
G01*
G37*
%TD.AperFunction*%
%TO.P,U3,5*%
%TO.N,HSE_IN*%
%TA.AperFunction,SMDPad,CuDef*%
G36*
G01*
X103700000Y-68325000D02*
X103700000Y-68175000D01*
G75*
G02*
X103775000Y-68100000I75000J0D01*
G01*
X105175000Y-68100000D01*
G75*
G02*
X105250000Y-68175000I0J-75000D01*
G01*
X105250000Y-68325000D01*
G75*
G02*
X105175000Y-68400000I-75000J0D01*
G01*
X103775000Y-68400000D01*
G75*
G02*
X103700000Y-68325000I0J75000D01*
G01*
G37*
%TD.AperFunction*%
%TO.P,U3,4*%
%TO.N,Net-(U3-Pad4)*%
%TA.AperFunction,SMDPad,CuDef*%
G36*
G01*
X103700000Y-67825000D02*
X103700000Y-67675000D01*
G75*
G02*
X103775000Y-67600000I75000J0D01*
G01*
X105175000Y-67600000D01*
G75*
G02*
X105250000Y-67675000I0J-75000D01*
G01*
X105250000Y-67825000D01*
G75*
G02*
X105175000Y-67900000I-75000J0D01*
G01*
X103775000Y-67900000D01*
G75*
G02*
X103700000Y-67825000I0J75000D01*
G01*
G37*
%TD.AperFunction*%
%TO.P,U3,3*%
%TO.N,Net-(U3-Pad3)*%
%TA.AperFunction,SMDPad,CuDef*%
G36*
G01*
X103700000Y-67325000D02*
X103700000Y-67175000D01*
G75*
G02*
X103775000Y-67100000I75000J0D01*
G01*
X105175000Y-67100000D01*
G75*
G02*
X105250000Y-67175000I0J-75000D01*
G01*
X105250000Y-67325000D01*
G75*
G02*
X105175000Y-67400000I-75000J0D01*
G01*
X103775000Y-67400000D01*
G75*
G02*
X103700000Y-67325000I0J75000D01*
G01*
G37*
%TD.AperFunction*%
%TO.P,U3,2*%
%TO.N,Net-(U3-Pad2)*%
%TA.AperFunction,SMDPad,CuDef*%
G36*
G01*
X103700000Y-66825000D02*
X103700000Y-66675000D01*
G75*
G02*
X103775000Y-66600000I75000J0D01*
G01*
X105175000Y-66600000D01*
G75*
G02*
X105250000Y-66675000I0J-75000D01*
G01*
X105250000Y-66825000D01*
G75*
G02*
X105175000Y-66900000I-75000J0D01*
G01*
X103775000Y-66900000D01*
G75*
G02*
X103700000Y-66825000I0J75000D01*
G01*
G37*
%TD.AperFunction*%
%TO.P,U3,1*%
%TO.N,+3V3*%
%TA.AperFunction,SMDPad,CuDef*%
G36*
G01*
X103700000Y-66325000D02*
X103700000Y-66175000D01*
G75*
G02*
X103775000Y-66100000I75000J0D01*
G01*
X105175000Y-66100000D01*
G75*
G02*
X105250000Y-66175000I0J-75000D01*
G01*
X105250000Y-66325000D01*
G75*
G02*
X105175000Y-66400000I-75000J0D01*
G01*
X103775000Y-66400000D01*
G75*
G02*
X103700000Y-66325000I0J75000D01*
G01*
G37*
%TD.AperFunction*%
%TD*%
%TO.P,R3,2*%
%TO.N,GND*%
%TA.AperFunction,SMDPad,CuDef*%
G36*
G01*
X111049750Y-79444000D02*
X111962250Y-79444000D01*
G75*
G02*
X112206000Y-79687750I0J-243750D01*
G01*
X112206000Y-80175250D01*
G75*
G02*
X111962250Y-80419000I-243750J0D01*
G01*
X111049750Y-80419000D01*
G75*
G02*
X110806000Y-80175250I0J243750D01*
G01*
X110806000Y-79687750D01*
G75*
G02*
X111049750Y-79444000I243750J0D01*
G01*
G37*
%TD.AperFunction*%
%TO.P,R3,1*%
%TO.N,BOOT1*%
%TA.AperFunction,SMDPad,CuDef*%
G36*
G01*
X111049750Y-77569000D02*
X111962250Y-77569000D01*
G75*
G02*
X112206000Y-77812750I0J-243750D01*
G01*
X112206000Y-78300250D01*
G75*
G02*
X111962250Y-78544000I-243750J0D01*
G01*
X111049750Y-78544000D01*
G75*
G02*
X110806000Y-78300250I0J243750D01*
G01*
X110806000Y-77812750D01*
G75*
G02*
X111049750Y-77569000I243750J0D01*
G01*
G37*
%TD.AperFunction*%
%TD*%
%TO.P,R2,2*%
%TO.N,GND*%
%TA.AperFunction,SMDPad,CuDef*%
G36*
G01*
X98864000Y-62535750D02*
X98864000Y-63448250D01*
G75*
G02*
X98620250Y-63692000I-243750J0D01*
G01*
X98132750Y-63692000D01*
G75*
G02*
X97889000Y-63448250I0J243750D01*
G01*
X97889000Y-62535750D01*
G75*
G02*
X98132750Y-62292000I243750J0D01*
G01*
X98620250Y-62292000D01*
G75*
G02*
X98864000Y-62535750I0J-243750D01*
G01*
G37*
%TD.AperFunction*%
%TO.P,R2,1*%
%TO.N,BOOT0*%
%TA.AperFunction,SMDPad,CuDef*%
G36*
G01*
X100739000Y-62535750D02*
X100739000Y-63448250D01*
G75*
G02*
X100495250Y-63692000I-243750J0D01*
G01*
X100007750Y-63692000D01*
G75*
G02*
X99764000Y-63448250I0J243750D01*
G01*
X99764000Y-62535750D01*
G75*
G02*
X100007750Y-62292000I243750J0D01*
G01*
X100495250Y-62292000D01*
G75*
G02*
X100739000Y-62535750I0J-243750D01*
G01*
G37*
%TD.AperFunction*%
%TD*%
%TO.P,R1,2*%
%TO.N,GND*%
%TA.AperFunction,SMDPad,CuDef*%
G36*
G01*
X90840000Y-72493750D02*
X90840000Y-73006250D01*
G75*
G02*
X90621250Y-73225000I-218750J0D01*
G01*
X90183750Y-73225000D01*
G75*
G02*
X89965000Y-73006250I0J218750D01*
G01*
X89965000Y-72493750D01*
G75*
G02*
X90183750Y-72275000I218750J0D01*
G01*
X90621250Y-72275000D01*
G75*
G02*
X90840000Y-72493750I0J-218750D01*
G01*
G37*
%TD.AperFunction*%
%TO.P,R1,1*%
%TO.N,Net-(D2-Pad1)*%
%TA.AperFunction,SMDPad,CuDef*%
G36*
G01*
X92415000Y-72493750D02*
X92415000Y-73006250D01*
G75*
G02*
X92196250Y-73225000I-218750J0D01*
G01*
X91758750Y-73225000D01*
G75*
G02*
X91540000Y-73006250I0J218750D01*
G01*
X91540000Y-72493750D01*
G75*
G02*
X91758750Y-72275000I218750J0D01*
G01*
X92196250Y-72275000D01*
G75*
G02*
X92415000Y-72493750I0J-218750D01*
G01*
G37*
%TD.AperFunction*%
%TD*%
D24*
%TO.P,HSE1,4*%
%TO.N,GND*%
X99850000Y-66750000D03*
%TO.P,HSE1,3*%
%TO.N,Net-(C21-Pad1)*%
X99850000Y-68950000D03*
%TO.P,HSE1,2*%
%TO.N,GND*%
X98150000Y-68950000D03*
%TO.P,HSE1,1*%
%TO.N,HSE_IN*%
X98150000Y-66750000D03*
%TD*%
%TO.P,D2,2*%
%TO.N,+3V3*%
%TA.AperFunction,SMDPad,CuDef*%
G36*
G01*
X93806250Y-71150000D02*
X93293750Y-71150000D01*
G75*
G02*
X93075000Y-70931250I0J218750D01*
G01*
X93075000Y-70493750D01*
G75*
G02*
X93293750Y-70275000I218750J0D01*
G01*
X93806250Y-70275000D01*
G75*
G02*
X94025000Y-70493750I0J-218750D01*
G01*
X94025000Y-70931250D01*
G75*
G02*
X93806250Y-71150000I-218750J0D01*
G01*
G37*
%TD.AperFunction*%
%TO.P,D2,1*%
%TO.N,Net-(D2-Pad1)*%
%TA.AperFunction,SMDPad,CuDef*%
G36*
G01*
X93806250Y-72725000D02*
X93293750Y-72725000D01*
G75*
G02*
X93075000Y-72506250I0J218750D01*
G01*
X93075000Y-72068750D01*
G75*
G02*
X93293750Y-71850000I218750J0D01*
G01*
X93806250Y-71850000D01*
G75*
G02*
X94025000Y-72068750I0J-218750D01*
G01*
X94025000Y-72506250D01*
G75*
G02*
X93806250Y-72725000I-218750J0D01*
G01*
G37*
%TD.AperFunction*%
%TD*%
%TO.P,C21,2*%
%TO.N,GND*%
%TA.AperFunction,SMDPad,CuDef*%
G36*
G01*
X99060000Y-70427500D02*
X99060000Y-70772500D01*
G75*
G02*
X98912500Y-70920000I-147500J0D01*
G01*
X98617500Y-70920000D01*
G75*
G02*
X98470000Y-70772500I0J147500D01*
G01*
X98470000Y-70427500D01*
G75*
G02*
X98617500Y-70280000I147500J0D01*
G01*
X98912500Y-70280000D01*
G75*
G02*
X99060000Y-70427500I0J-147500D01*
G01*
G37*
%TD.AperFunction*%
%TO.P,C21,1*%
%TO.N,Net-(C21-Pad1)*%
%TA.AperFunction,SMDPad,CuDef*%
G36*
G01*
X100030000Y-70427500D02*
X100030000Y-70772500D01*
G75*
G02*
X99882500Y-70920000I-147500J0D01*
G01*
X99587500Y-70920000D01*
G75*
G02*
X99440000Y-70772500I0J147500D01*
G01*
X99440000Y-70427500D01*
G75*
G02*
X99587500Y-70280000I147500J0D01*
G01*
X99882500Y-70280000D01*
G75*
G02*
X100030000Y-70427500I0J-147500D01*
G01*
G37*
%TD.AperFunction*%
%TD*%
%TO.P,C20,2*%
%TO.N,GND*%
%TA.AperFunction,SMDPad,CuDef*%
G36*
G01*
X99190000Y-65272500D02*
X99190000Y-64927500D01*
G75*
G02*
X99337500Y-64780000I147500J0D01*
G01*
X99632500Y-64780000D01*
G75*
G02*
X99780000Y-64927500I0J-147500D01*
G01*
X99780000Y-65272500D01*
G75*
G02*
X99632500Y-65420000I-147500J0D01*
G01*
X99337500Y-65420000D01*
G75*
G02*
X99190000Y-65272500I0J147500D01*
G01*
G37*
%TD.AperFunction*%
%TO.P,C20,1*%
%TO.N,HSE_IN*%
%TA.AperFunction,SMDPad,CuDef*%
G36*
G01*
X98220000Y-65272500D02*
X98220000Y-64927500D01*
G75*
G02*
X98367500Y-64780000I147500J0D01*
G01*
X98662500Y-64780000D01*
G75*
G02*
X98810000Y-64927500I0J-147500D01*
G01*
X98810000Y-65272500D01*
G75*
G02*
X98662500Y-65420000I-147500J0D01*
G01*
X98367500Y-65420000D01*
G75*
G02*
X98220000Y-65272500I0J147500D01*
G01*
G37*
%TD.AperFunction*%
%TD*%
%TO.P,C19,2*%
%TO.N,GND*%
%TA.AperFunction,SMDPad,CuDef*%
G36*
G01*
X113143750Y-79150000D02*
X113656250Y-79150000D01*
G75*
G02*
X113875000Y-79368750I0J-218750D01*
G01*
X113875000Y-79806250D01*
G75*
G02*
X113656250Y-80025000I-218750J0D01*
G01*
X113143750Y-80025000D01*
G75*
G02*
X112925000Y-79806250I0J218750D01*
G01*
X112925000Y-79368750D01*
G75*
G02*
X113143750Y-79150000I218750J0D01*
G01*
G37*
%TD.AperFunction*%
%TO.P,C19,1*%
%TO.N,Net-(C19-Pad1)*%
%TA.AperFunction,SMDPad,CuDef*%
G36*
G01*
X113143750Y-77575000D02*
X113656250Y-77575000D01*
G75*
G02*
X113875000Y-77793750I0J-218750D01*
G01*
X113875000Y-78231250D01*
G75*
G02*
X113656250Y-78450000I-218750J0D01*
G01*
X113143750Y-78450000D01*
G75*
G02*
X112925000Y-78231250I0J218750D01*
G01*
X112925000Y-77793750D01*
G75*
G02*
X113143750Y-77575000I218750J0D01*
G01*
G37*
%TD.AperFunction*%
%TD*%
%TO.P,C12,2*%
%TO.N,GND*%
%TA.AperFunction,SMDPad,CuDef*%
G36*
G01*
X107077500Y-78655000D02*
X107422500Y-78655000D01*
G75*
G02*
X107570000Y-78802500I0J-147500D01*
G01*
X107570000Y-79097500D01*
G75*
G02*
X107422500Y-79245000I-147500J0D01*
G01*
X107077500Y-79245000D01*
G75*
G02*
X106930000Y-79097500I0J147500D01*
G01*
X106930000Y-78802500D01*
G75*
G02*
X107077500Y-78655000I147500J0D01*
G01*
G37*
%TD.AperFunction*%
%TO.P,C12,1*%
%TO.N,+3V3*%
%TA.AperFunction,SMDPad,CuDef*%
G36*
G01*
X107077500Y-77685000D02*
X107422500Y-77685000D01*
G75*
G02*
X107570000Y-77832500I0J-147500D01*
G01*
X107570000Y-78127500D01*
G75*
G02*
X107422500Y-78275000I-147500J0D01*
G01*
X107077500Y-78275000D01*
G75*
G02*
X106930000Y-78127500I0J147500D01*
G01*
X106930000Y-77832500D01*
G75*
G02*
X107077500Y-77685000I147500J0D01*
G01*
G37*
%TD.AperFunction*%
%TD*%
%TO.P,C11,2*%
%TO.N,GND*%
%TA.AperFunction,SMDPad,CuDef*%
G36*
G01*
X105877500Y-78640000D02*
X106222500Y-78640000D01*
G75*
G02*
X106370000Y-78787500I0J-147500D01*
G01*
X106370000Y-79082500D01*
G75*
G02*
X106222500Y-79230000I-147500J0D01*
G01*
X105877500Y-79230000D01*
G75*
G02*
X105730000Y-79082500I0J147500D01*
G01*
X105730000Y-78787500D01*
G75*
G02*
X105877500Y-78640000I147500J0D01*
G01*
G37*
%TD.AperFunction*%
%TO.P,C11,1*%
%TO.N,+3V3*%
%TA.AperFunction,SMDPad,CuDef*%
G36*
G01*
X105877500Y-77670000D02*
X106222500Y-77670000D01*
G75*
G02*
X106370000Y-77817500I0J-147500D01*
G01*
X106370000Y-78112500D01*
G75*
G02*
X106222500Y-78260000I-147500J0D01*
G01*
X105877500Y-78260000D01*
G75*
G02*
X105730000Y-78112500I0J147500D01*
G01*
X105730000Y-77817500D01*
G75*
G02*
X105877500Y-77670000I147500J0D01*
G01*
G37*
%TD.AperFunction*%
%TD*%
%TO.P,C10,2*%
%TO.N,GND*%
%TA.AperFunction,SMDPad,CuDef*%
G36*
G01*
X114877500Y-76540000D02*
X115222500Y-76540000D01*
G75*
G02*
X115370000Y-76687500I0J-147500D01*
G01*
X115370000Y-76982500D01*
G75*
G02*
X115222500Y-77130000I-147500J0D01*
G01*
X114877500Y-77130000D01*
G75*
G02*
X114730000Y-76982500I0J147500D01*
G01*
X114730000Y-76687500D01*
G75*
G02*
X114877500Y-76540000I147500J0D01*
G01*
G37*
%TD.AperFunction*%
%TO.P,C10,1*%
%TO.N,+3V3*%
%TA.AperFunction,SMDPad,CuDef*%
G36*
G01*
X114877500Y-75570000D02*
X115222500Y-75570000D01*
G75*
G02*
X115370000Y-75717500I0J-147500D01*
G01*
X115370000Y-76012500D01*
G75*
G02*
X115222500Y-76160000I-147500J0D01*
G01*
X114877500Y-76160000D01*
G75*
G02*
X114730000Y-76012500I0J147500D01*
G01*
X114730000Y-75717500D01*
G75*
G02*
X114877500Y-75570000I147500J0D01*
G01*
G37*
%TD.AperFunction*%
%TD*%
%TO.P,C9,2*%
%TO.N,GND*%
%TA.AperFunction,SMDPad,CuDef*%
G36*
G01*
X116077500Y-76540000D02*
X116422500Y-76540000D01*
G75*
G02*
X116570000Y-76687500I0J-147500D01*
G01*
X116570000Y-76982500D01*
G75*
G02*
X116422500Y-77130000I-147500J0D01*
G01*
X116077500Y-77130000D01*
G75*
G02*
X115930000Y-76982500I0J147500D01*
G01*
X115930000Y-76687500D01*
G75*
G02*
X116077500Y-76540000I147500J0D01*
G01*
G37*
%TD.AperFunction*%
%TO.P,C9,1*%
%TO.N,+3V3*%
%TA.AperFunction,SMDPad,CuDef*%
G36*
G01*
X116077500Y-75570000D02*
X116422500Y-75570000D01*
G75*
G02*
X116570000Y-75717500I0J-147500D01*
G01*
X116570000Y-76012500D01*
G75*
G02*
X116422500Y-76160000I-147500J0D01*
G01*
X116077500Y-76160000D01*
G75*
G02*
X115930000Y-76012500I0J147500D01*
G01*
X115930000Y-75717500D01*
G75*
G02*
X116077500Y-75570000I147500J0D01*
G01*
G37*
%TD.AperFunction*%
%TD*%
%TO.P,C8,2*%
%TO.N,GND*%
%TA.AperFunction,SMDPad,CuDef*%
G36*
G01*
X116840000Y-65322500D02*
X116840000Y-64977500D01*
G75*
G02*
X116987500Y-64830000I147500J0D01*
G01*
X117282500Y-64830000D01*
G75*
G02*
X117430000Y-64977500I0J-147500D01*
G01*
X117430000Y-65322500D01*
G75*
G02*
X117282500Y-65470000I-147500J0D01*
G01*
X116987500Y-65470000D01*
G75*
G02*
X116840000Y-65322500I0J147500D01*
G01*
G37*
%TD.AperFunction*%
%TO.P,C8,1*%
%TO.N,+3V3*%
%TA.AperFunction,SMDPad,CuDef*%
G36*
G01*
X115870000Y-65322500D02*
X115870000Y-64977500D01*
G75*
G02*
X116017500Y-64830000I147500J0D01*
G01*
X116312500Y-64830000D01*
G75*
G02*
X116460000Y-64977500I0J-147500D01*
G01*
X116460000Y-65322500D01*
G75*
G02*
X116312500Y-65470000I-147500J0D01*
G01*
X116017500Y-65470000D01*
G75*
G02*
X115870000Y-65322500I0J147500D01*
G01*
G37*
%TD.AperFunction*%
%TD*%
%TO.P,C7,2*%
%TO.N,GND*%
%TA.AperFunction,SMDPad,CuDef*%
G36*
G01*
X116840000Y-64222500D02*
X116840000Y-63877500D01*
G75*
G02*
X116987500Y-63730000I147500J0D01*
G01*
X117282500Y-63730000D01*
G75*
G02*
X117430000Y-63877500I0J-147500D01*
G01*
X117430000Y-64222500D01*
G75*
G02*
X117282500Y-64370000I-147500J0D01*
G01*
X116987500Y-64370000D01*
G75*
G02*
X116840000Y-64222500I0J147500D01*
G01*
G37*
%TD.AperFunction*%
%TO.P,C7,1*%
%TO.N,+3V3*%
%TA.AperFunction,SMDPad,CuDef*%
G36*
G01*
X115870000Y-64222500D02*
X115870000Y-63877500D01*
G75*
G02*
X116017500Y-63730000I147500J0D01*
G01*
X116312500Y-63730000D01*
G75*
G02*
X116460000Y-63877500I0J-147500D01*
G01*
X116460000Y-64222500D01*
G75*
G02*
X116312500Y-64370000I-147500J0D01*
G01*
X116017500Y-64370000D01*
G75*
G02*
X115870000Y-64222500I0J147500D01*
G01*
G37*
%TD.AperFunction*%
%TD*%
%TO.P,C6,2*%
%TO.N,GND*%
%TA.AperFunction,SMDPad,CuDef*%
G36*
G01*
X105522500Y-63460000D02*
X105177500Y-63460000D01*
G75*
G02*
X105030000Y-63312500I0J147500D01*
G01*
X105030000Y-63017500D01*
G75*
G02*
X105177500Y-62870000I147500J0D01*
G01*
X105522500Y-62870000D01*
G75*
G02*
X105670000Y-63017500I0J-147500D01*
G01*
X105670000Y-63312500D01*
G75*
G02*
X105522500Y-63460000I-147500J0D01*
G01*
G37*
%TD.AperFunction*%
%TO.P,C6,1*%
%TO.N,+3V3*%
%TA.AperFunction,SMDPad,CuDef*%
G36*
G01*
X105522500Y-64430000D02*
X105177500Y-64430000D01*
G75*
G02*
X105030000Y-64282500I0J147500D01*
G01*
X105030000Y-63987500D01*
G75*
G02*
X105177500Y-63840000I147500J0D01*
G01*
X105522500Y-63840000D01*
G75*
G02*
X105670000Y-63987500I0J-147500D01*
G01*
X105670000Y-64282500D01*
G75*
G02*
X105522500Y-64430000I-147500J0D01*
G01*
G37*
%TD.AperFunction*%
%TD*%
%TO.P,C5,2*%
%TO.N,GND*%
%TA.AperFunction,SMDPad,CuDef*%
G36*
G01*
X104372500Y-63460000D02*
X104027500Y-63460000D01*
G75*
G02*
X103880000Y-63312500I0J147500D01*
G01*
X103880000Y-63017500D01*
G75*
G02*
X104027500Y-62870000I147500J0D01*
G01*
X104372500Y-62870000D01*
G75*
G02*
X104520000Y-63017500I0J-147500D01*
G01*
X104520000Y-63312500D01*
G75*
G02*
X104372500Y-63460000I-147500J0D01*
G01*
G37*
%TD.AperFunction*%
%TO.P,C5,1*%
%TO.N,+3V3*%
%TA.AperFunction,SMDPad,CuDef*%
G36*
G01*
X104372500Y-64430000D02*
X104027500Y-64430000D01*
G75*
G02*
X103880000Y-64282500I0J147500D01*
G01*
X103880000Y-63987500D01*
G75*
G02*
X104027500Y-63840000I147500J0D01*
G01*
X104372500Y-63840000D01*
G75*
G02*
X104520000Y-63987500I0J-147500D01*
G01*
X104520000Y-64282500D01*
G75*
G02*
X104372500Y-64430000I-147500J0D01*
G01*
G37*
%TD.AperFunction*%
%TD*%
%TO.P,C4,2*%
%TO.N,GND*%
%TA.AperFunction,SMDPad,CuDef*%
G36*
G01*
X102227500Y-73590000D02*
X102572500Y-73590000D01*
G75*
G02*
X102720000Y-73737500I0J-147500D01*
G01*
X102720000Y-74032500D01*
G75*
G02*
X102572500Y-74180000I-147500J0D01*
G01*
X102227500Y-74180000D01*
G75*
G02*
X102080000Y-74032500I0J147500D01*
G01*
X102080000Y-73737500D01*
G75*
G02*
X102227500Y-73590000I147500J0D01*
G01*
G37*
%TD.AperFunction*%
%TO.P,C4,1*%
%TO.N,+3V3*%
%TA.AperFunction,SMDPad,CuDef*%
G36*
G01*
X102227500Y-72620000D02*
X102572500Y-72620000D01*
G75*
G02*
X102720000Y-72767500I0J-147500D01*
G01*
X102720000Y-73062500D01*
G75*
G02*
X102572500Y-73210000I-147500J0D01*
G01*
X102227500Y-73210000D01*
G75*
G02*
X102080000Y-73062500I0J147500D01*
G01*
X102080000Y-72767500D01*
G75*
G02*
X102227500Y-72620000I147500J0D01*
G01*
G37*
%TD.AperFunction*%
%TD*%
%TO.P,C3,2*%
%TO.N,GND*%
%TA.AperFunction,SMDPad,CuDef*%
G36*
G01*
X117293750Y-77200000D02*
X117806250Y-77200000D01*
G75*
G02*
X118025000Y-77418750I0J-218750D01*
G01*
X118025000Y-77856250D01*
G75*
G02*
X117806250Y-78075000I-218750J0D01*
G01*
X117293750Y-78075000D01*
G75*
G02*
X117075000Y-77856250I0J218750D01*
G01*
X117075000Y-77418750D01*
G75*
G02*
X117293750Y-77200000I218750J0D01*
G01*
G37*
%TD.AperFunction*%
%TO.P,C3,1*%
%TO.N,+3V3*%
%TA.AperFunction,SMDPad,CuDef*%
G36*
G01*
X117293750Y-75625000D02*
X117806250Y-75625000D01*
G75*
G02*
X118025000Y-75843750I0J-218750D01*
G01*
X118025000Y-76281250D01*
G75*
G02*
X117806250Y-76500000I-218750J0D01*
G01*
X117293750Y-76500000D01*
G75*
G02*
X117075000Y-76281250I0J218750D01*
G01*
X117075000Y-75843750D01*
G75*
G02*
X117293750Y-75625000I218750J0D01*
G01*
G37*
%TD.AperFunction*%
%TD*%
%TO.P,C2,2*%
%TO.N,GND*%
%TA.AperFunction,SMDPad,CuDef*%
G36*
G01*
X90550000Y-70393750D02*
X90550000Y-71306250D01*
G75*
G02*
X90306250Y-71550000I-243750J0D01*
G01*
X89818750Y-71550000D01*
G75*
G02*
X89575000Y-71306250I0J243750D01*
G01*
X89575000Y-70393750D01*
G75*
G02*
X89818750Y-70150000I243750J0D01*
G01*
X90306250Y-70150000D01*
G75*
G02*
X90550000Y-70393750I0J-243750D01*
G01*
G37*
%TD.AperFunction*%
%TO.P,C2,1*%
%TO.N,+3V3*%
%TA.AperFunction,SMDPad,CuDef*%
G36*
G01*
X92425000Y-70393750D02*
X92425000Y-71306250D01*
G75*
G02*
X92181250Y-71550000I-243750J0D01*
G01*
X91693750Y-71550000D01*
G75*
G02*
X91450000Y-71306250I0J243750D01*
G01*
X91450000Y-70393750D01*
G75*
G02*
X91693750Y-70150000I243750J0D01*
G01*
X92181250Y-70150000D01*
G75*
G02*
X92425000Y-70393750I0J-243750D01*
G01*
G37*
%TD.AperFunction*%
%TD*%
%TO.P,C1,2*%
%TO.N,GND*%
%TA.AperFunction,SMDPad,CuDef*%
G36*
G01*
X86643750Y-63200000D02*
X87556250Y-63200000D01*
G75*
G02*
X87800000Y-63443750I0J-243750D01*
G01*
X87800000Y-63931250D01*
G75*
G02*
X87556250Y-64175000I-243750J0D01*
G01*
X86643750Y-64175000D01*
G75*
G02*
X86400000Y-63931250I0J243750D01*
G01*
X86400000Y-63443750D01*
G75*
G02*
X86643750Y-63200000I243750J0D01*
G01*
G37*
%TD.AperFunction*%
%TO.P,C1,1*%
%TO.N,+12V*%
%TA.AperFunction,SMDPad,CuDef*%
G36*
G01*
X86643750Y-61325000D02*
X87556250Y-61325000D01*
G75*
G02*
X87800000Y-61568750I0J-243750D01*
G01*
X87800000Y-62056250D01*
G75*
G02*
X87556250Y-62300000I-243750J0D01*
G01*
X86643750Y-62300000D01*
G75*
G02*
X86400000Y-62056250I0J243750D01*
G01*
X86400000Y-61568750D01*
G75*
G02*
X86643750Y-61325000I243750J0D01*
G01*
G37*
%TD.AperFunction*%
%TD*%
%TO.P,R14,2*%
%TO.N,GND*%
%TA.AperFunction,SMDPad,CuDef*%
G36*
G01*
X142774999Y-50025000D02*
X145625001Y-50025000D01*
G75*
G02*
X145875000Y-50274999I0J-249999D01*
G01*
X145875000Y-51125001D01*
G75*
G02*
X145625001Y-51375000I-249999J0D01*
G01*
X142774999Y-51375000D01*
G75*
G02*
X142525000Y-51125001I0J249999D01*
G01*
X142525000Y-50274999D01*
G75*
G02*
X142774999Y-50025000I249999J0D01*
G01*
G37*
%TD.AperFunction*%
%TO.P,R14,1*%
%TO.N,SPC*%
%TA.AperFunction,SMDPad,CuDef*%
G36*
G01*
X142774999Y-44225000D02*
X145625001Y-44225000D01*
G75*
G02*
X145875000Y-44474999I0J-249999D01*
G01*
X145875000Y-45325001D01*
G75*
G02*
X145625001Y-45575000I-249999J0D01*
G01*
X142774999Y-45575000D01*
G75*
G02*
X142525000Y-45325001I0J249999D01*
G01*
X142525000Y-44474999D01*
G75*
G02*
X142774999Y-44225000I249999J0D01*
G01*
G37*
%TD.AperFunction*%
%TD*%
%TO.P,R13,2*%
%TO.N,GND*%
%TA.AperFunction,SMDPad,CuDef*%
G36*
G01*
X145725001Y-60975000D02*
X142874999Y-60975000D01*
G75*
G02*
X142625000Y-60725001I0J249999D01*
G01*
X142625000Y-59874999D01*
G75*
G02*
X142874999Y-59625000I249999J0D01*
G01*
X145725001Y-59625000D01*
G75*
G02*
X145975000Y-59874999I0J-249999D01*
G01*
X145975000Y-60725001D01*
G75*
G02*
X145725001Y-60975000I-249999J0D01*
G01*
G37*
%TD.AperFunction*%
%TO.P,R13,1*%
%TO.N,SPB*%
%TA.AperFunction,SMDPad,CuDef*%
G36*
G01*
X145725001Y-66775000D02*
X142874999Y-66775000D01*
G75*
G02*
X142625000Y-66525001I0J249999D01*
G01*
X142625000Y-65674999D01*
G75*
G02*
X142874999Y-65425000I249999J0D01*
G01*
X145725001Y-65425000D01*
G75*
G02*
X145975000Y-65674999I0J-249999D01*
G01*
X145975000Y-66525001D01*
G75*
G02*
X145725001Y-66775000I-249999J0D01*
G01*
G37*
%TD.AperFunction*%
%TD*%
%TO.P,R11,2*%
%TO.N,Net-(Q6-Pad4)*%
%TA.AperFunction,SMDPad,CuDef*%
G36*
G01*
X138900000Y-60356250D02*
X138900000Y-59443750D01*
G75*
G02*
X139143750Y-59200000I243750J0D01*
G01*
X139631250Y-59200000D01*
G75*
G02*
X139875000Y-59443750I0J-243750D01*
G01*
X139875000Y-60356250D01*
G75*
G02*
X139631250Y-60600000I-243750J0D01*
G01*
X139143750Y-60600000D01*
G75*
G02*
X138900000Y-60356250I0J243750D01*
G01*
G37*
%TD.AperFunction*%
%TO.P,R11,1*%
%TO.N,GLC*%
%TA.AperFunction,SMDPad,CuDef*%
G36*
G01*
X137025000Y-60356250D02*
X137025000Y-59443750D01*
G75*
G02*
X137268750Y-59200000I243750J0D01*
G01*
X137756250Y-59200000D01*
G75*
G02*
X138000000Y-59443750I0J-243750D01*
G01*
X138000000Y-60356250D01*
G75*
G02*
X137756250Y-60600000I-243750J0D01*
G01*
X137268750Y-60600000D01*
G75*
G02*
X137025000Y-60356250I0J243750D01*
G01*
G37*
%TD.AperFunction*%
%TD*%
%TO.P,R10,2*%
%TO.N,Net-(Q5-Pad4)*%
%TA.AperFunction,SMDPad,CuDef*%
G36*
G01*
X138850000Y-67856250D02*
X138850000Y-66943750D01*
G75*
G02*
X139093750Y-66700000I243750J0D01*
G01*
X139581250Y-66700000D01*
G75*
G02*
X139825000Y-66943750I0J-243750D01*
G01*
X139825000Y-67856250D01*
G75*
G02*
X139581250Y-68100000I-243750J0D01*
G01*
X139093750Y-68100000D01*
G75*
G02*
X138850000Y-67856250I0J243750D01*
G01*
G37*
%TD.AperFunction*%
%TO.P,R10,1*%
%TO.N,GLB*%
%TA.AperFunction,SMDPad,CuDef*%
G36*
G01*
X136975000Y-67856250D02*
X136975000Y-66943750D01*
G75*
G02*
X137218750Y-66700000I243750J0D01*
G01*
X137706250Y-66700000D01*
G75*
G02*
X137950000Y-66943750I0J-243750D01*
G01*
X137950000Y-67856250D01*
G75*
G02*
X137706250Y-68100000I-243750J0D01*
G01*
X137218750Y-68100000D01*
G75*
G02*
X136975000Y-67856250I0J243750D01*
G01*
G37*
%TD.AperFunction*%
%TD*%
%TO.P,R8,2*%
%TO.N,Net-(Q3-Pad4)*%
%TA.AperFunction,SMDPad,CuDef*%
G36*
G01*
X138850000Y-62956250D02*
X138850000Y-62043750D01*
G75*
G02*
X139093750Y-61800000I243750J0D01*
G01*
X139581250Y-61800000D01*
G75*
G02*
X139825000Y-62043750I0J-243750D01*
G01*
X139825000Y-62956250D01*
G75*
G02*
X139581250Y-63200000I-243750J0D01*
G01*
X139093750Y-63200000D01*
G75*
G02*
X138850000Y-62956250I0J243750D01*
G01*
G37*
%TD.AperFunction*%
%TO.P,R8,1*%
%TO.N,GHC*%
%TA.AperFunction,SMDPad,CuDef*%
G36*
G01*
X136975000Y-62956250D02*
X136975000Y-62043750D01*
G75*
G02*
X137218750Y-61800000I243750J0D01*
G01*
X137706250Y-61800000D01*
G75*
G02*
X137950000Y-62043750I0J-243750D01*
G01*
X137950000Y-62956250D01*
G75*
G02*
X137706250Y-63200000I-243750J0D01*
G01*
X137218750Y-63200000D01*
G75*
G02*
X136975000Y-62956250I0J243750D01*
G01*
G37*
%TD.AperFunction*%
%TD*%
%TO.P,R7,2*%
%TO.N,Net-(Q2-Pad4)*%
%TA.AperFunction,SMDPad,CuDef*%
G36*
G01*
X138850000Y-65306250D02*
X138850000Y-64393750D01*
G75*
G02*
X139093750Y-64150000I243750J0D01*
G01*
X139581250Y-64150000D01*
G75*
G02*
X139825000Y-64393750I0J-243750D01*
G01*
X139825000Y-65306250D01*
G75*
G02*
X139581250Y-65550000I-243750J0D01*
G01*
X139093750Y-65550000D01*
G75*
G02*
X138850000Y-65306250I0J243750D01*
G01*
G37*
%TD.AperFunction*%
%TO.P,R7,1*%
%TO.N,GHB*%
%TA.AperFunction,SMDPad,CuDef*%
G36*
G01*
X136975000Y-65306250D02*
X136975000Y-64393750D01*
G75*
G02*
X137218750Y-64150000I243750J0D01*
G01*
X137706250Y-64150000D01*
G75*
G02*
X137950000Y-64393750I0J-243750D01*
G01*
X137950000Y-65306250D01*
G75*
G02*
X137706250Y-65550000I-243750J0D01*
G01*
X137218750Y-65550000D01*
G75*
G02*
X136975000Y-65306250I0J243750D01*
G01*
G37*
%TD.AperFunction*%
%TD*%
%TO.P,R4,2*%
%TO.N,Net-(R4-Pad2)*%
%TA.AperFunction,SMDPad,CuDef*%
G36*
G01*
X129793750Y-60500000D02*
X130306250Y-60500000D01*
G75*
G02*
X130525000Y-60718750I0J-218750D01*
G01*
X130525000Y-61156250D01*
G75*
G02*
X130306250Y-61375000I-218750J0D01*
G01*
X129793750Y-61375000D01*
G75*
G02*
X129575000Y-61156250I0J218750D01*
G01*
X129575000Y-60718750D01*
G75*
G02*
X129793750Y-60500000I218750J0D01*
G01*
G37*
%TD.AperFunction*%
%TO.P,R4,1*%
%TO.N,+3V3*%
%TA.AperFunction,SMDPad,CuDef*%
G36*
G01*
X129793750Y-58925000D02*
X130306250Y-58925000D01*
G75*
G02*
X130525000Y-59143750I0J-218750D01*
G01*
X130525000Y-59581250D01*
G75*
G02*
X130306250Y-59800000I-218750J0D01*
G01*
X129793750Y-59800000D01*
G75*
G02*
X129575000Y-59581250I0J218750D01*
G01*
X129575000Y-59143750D01*
G75*
G02*
X129793750Y-58925000I218750J0D01*
G01*
G37*
%TD.AperFunction*%
%TD*%
%TO.P,R12,2*%
%TO.N,GND*%
%TA.AperFunction,SMDPad,CuDef*%
G36*
G01*
X142774999Y-76825000D02*
X145625001Y-76825000D01*
G75*
G02*
X145875000Y-77074999I0J-249999D01*
G01*
X145875000Y-77925001D01*
G75*
G02*
X145625001Y-78175000I-249999J0D01*
G01*
X142774999Y-78175000D01*
G75*
G02*
X142525000Y-77925001I0J249999D01*
G01*
X142525000Y-77074999D01*
G75*
G02*
X142774999Y-76825000I249999J0D01*
G01*
G37*
%TD.AperFunction*%
%TO.P,R12,1*%
%TO.N,SPA*%
%TA.AperFunction,SMDPad,CuDef*%
G36*
G01*
X142774999Y-71025000D02*
X145625001Y-71025000D01*
G75*
G02*
X145875000Y-71274999I0J-249999D01*
G01*
X145875000Y-72125001D01*
G75*
G02*
X145625001Y-72375000I-249999J0D01*
G01*
X142774999Y-72375000D01*
G75*
G02*
X142525000Y-72125001I0J249999D01*
G01*
X142525000Y-71274999D01*
G75*
G02*
X142774999Y-71025000I249999J0D01*
G01*
G37*
%TD.AperFunction*%
%TD*%
%TO.P,C18,2*%
%TO.N,CPL*%
%TA.AperFunction,SMDPad,CuDef*%
G36*
G01*
X125650000Y-71043750D02*
X125650000Y-71556250D01*
G75*
G02*
X125431250Y-71775000I-218750J0D01*
G01*
X124993750Y-71775000D01*
G75*
G02*
X124775000Y-71556250I0J218750D01*
G01*
X124775000Y-71043750D01*
G75*
G02*
X124993750Y-70825000I218750J0D01*
G01*
X125431250Y-70825000D01*
G75*
G02*
X125650000Y-71043750I0J-218750D01*
G01*
G37*
%TD.AperFunction*%
%TO.P,C18,1*%
%TO.N,CPH*%
%TA.AperFunction,SMDPad,CuDef*%
G36*
G01*
X127225000Y-71043750D02*
X127225000Y-71556250D01*
G75*
G02*
X127006250Y-71775000I-218750J0D01*
G01*
X126568750Y-71775000D01*
G75*
G02*
X126350000Y-71556250I0J218750D01*
G01*
X126350000Y-71043750D01*
G75*
G02*
X126568750Y-70825000I218750J0D01*
G01*
X127006250Y-70825000D01*
G75*
G02*
X127225000Y-71043750I0J-218750D01*
G01*
G37*
%TD.AperFunction*%
%TD*%
%TO.P,C17,2*%
%TO.N,Net-(C17-Pad2)*%
%TA.AperFunction,SMDPad,CuDef*%
G36*
G01*
X128058500Y-72661750D02*
X128058500Y-73174250D01*
G75*
G02*
X127839750Y-73393000I-218750J0D01*
G01*
X127402250Y-73393000D01*
G75*
G02*
X127183500Y-73174250I0J218750D01*
G01*
X127183500Y-72661750D01*
G75*
G02*
X127402250Y-72443000I218750J0D01*
G01*
X127839750Y-72443000D01*
G75*
G02*
X128058500Y-72661750I0J-218750D01*
G01*
G37*
%TD.AperFunction*%
%TO.P,C17,1*%
%TO.N,+48V*%
%TA.AperFunction,SMDPad,CuDef*%
G36*
G01*
X129633500Y-72661750D02*
X129633500Y-73174250D01*
G75*
G02*
X129414750Y-73393000I-218750J0D01*
G01*
X128977250Y-73393000D01*
G75*
G02*
X128758500Y-73174250I0J218750D01*
G01*
X128758500Y-72661750D01*
G75*
G02*
X128977250Y-72443000I218750J0D01*
G01*
X129414750Y-72443000D01*
G75*
G02*
X129633500Y-72661750I0J-218750D01*
G01*
G37*
%TD.AperFunction*%
%TD*%
%TO.P,R6,2*%
%TO.N,Net-(Q1-Pad4)*%
%TA.AperFunction,SMDPad,CuDef*%
G36*
G01*
X135350000Y-74756250D02*
X135350000Y-73843750D01*
G75*
G02*
X135593750Y-73600000I243750J0D01*
G01*
X136081250Y-73600000D01*
G75*
G02*
X136325000Y-73843750I0J-243750D01*
G01*
X136325000Y-74756250D01*
G75*
G02*
X136081250Y-75000000I-243750J0D01*
G01*
X135593750Y-75000000D01*
G75*
G02*
X135350000Y-74756250I0J243750D01*
G01*
G37*
%TD.AperFunction*%
%TO.P,R6,1*%
%TO.N,GHA*%
%TA.AperFunction,SMDPad,CuDef*%
G36*
G01*
X133475000Y-74756250D02*
X133475000Y-73843750D01*
G75*
G02*
X133718750Y-73600000I243750J0D01*
G01*
X134206250Y-73600000D01*
G75*
G02*
X134450000Y-73843750I0J-243750D01*
G01*
X134450000Y-74756250D01*
G75*
G02*
X134206250Y-75000000I-243750J0D01*
G01*
X133718750Y-75000000D01*
G75*
G02*
X133475000Y-74756250I0J243750D01*
G01*
G37*
%TD.AperFunction*%
%TD*%
%TO.P,C15,2*%
%TO.N,GND*%
%TA.AperFunction,SMDPad,CuDef*%
G36*
G01*
X126148250Y-73658500D02*
X125635750Y-73658500D01*
G75*
G02*
X125417000Y-73439750I0J218750D01*
G01*
X125417000Y-73002250D01*
G75*
G02*
X125635750Y-72783500I218750J0D01*
G01*
X126148250Y-72783500D01*
G75*
G02*
X126367000Y-73002250I0J-218750D01*
G01*
X126367000Y-73439750D01*
G75*
G02*
X126148250Y-73658500I-218750J0D01*
G01*
G37*
%TD.AperFunction*%
%TO.P,C15,1*%
%TO.N,+48V*%
%TA.AperFunction,SMDPad,CuDef*%
G36*
G01*
X126148250Y-75233500D02*
X125635750Y-75233500D01*
G75*
G02*
X125417000Y-75014750I0J218750D01*
G01*
X125417000Y-74577250D01*
G75*
G02*
X125635750Y-74358500I218750J0D01*
G01*
X126148250Y-74358500D01*
G75*
G02*
X126367000Y-74577250I0J-218750D01*
G01*
X126367000Y-75014750D01*
G75*
G02*
X126148250Y-75233500I-218750J0D01*
G01*
G37*
%TD.AperFunction*%
%TD*%
D25*
%TO.N,SHA*%
X153600000Y-72600000D03*
X153600000Y-71600000D03*
X153600000Y-70600000D03*
X153600000Y-73600000D03*
X152400000Y-70600000D03*
X152400000Y-71600000D03*
X152400000Y-72600000D03*
X152400000Y-73600000D03*
X158100000Y-70700000D03*
X156900000Y-70700000D03*
X155700000Y-70700000D03*
X155700000Y-72000000D03*
X155700000Y-73200000D03*
X156500000Y-78100000D03*
X155300000Y-78100000D03*
X155300000Y-79400000D03*
X156500000Y-79400000D03*
%TO.N,GND*%
X123800000Y-51000000D03*
X121800000Y-51100000D03*
X121800000Y-52500000D03*
X121800000Y-54100000D03*
X121800000Y-49300000D03*
X123800000Y-49300000D03*
X123800000Y-52500000D03*
X123800000Y-54100000D03*
X125800000Y-54100000D03*
X125800000Y-52500000D03*
X125800000Y-50900000D03*
X125900000Y-49300000D03*
X144400000Y-53200000D03*
X122244000Y-73652000D03*
X145500000Y-52200000D03*
X144400000Y-52200000D03*
X143300000Y-52200000D03*
X143300000Y-53200000D03*
X145500000Y-53200000D03*
X145400000Y-58600000D03*
X144300000Y-58600000D03*
X143200000Y-58600000D03*
X143200000Y-57500000D03*
X144300000Y-57500000D03*
X145400000Y-57500000D03*
X143100000Y-79150000D03*
X143100000Y-80150000D03*
X142000000Y-80150000D03*
X142000000Y-79150000D03*
X141000000Y-77450000D03*
X141000000Y-78450000D03*
X139900000Y-78450000D03*
X139900000Y-77450000D03*
X140024990Y-50900000D03*
X144200000Y-50700000D03*
X118800000Y-79200000D03*
X116400000Y-78000000D03*
X115200000Y-78000000D03*
X113200000Y-74000000D03*
X115000000Y-80200000D03*
X118600000Y-65400000D03*
X118600000Y-64200000D03*
X100950000Y-64950000D03*
X98650000Y-71950000D03*
X88550000Y-71050000D03*
X87250000Y-65350000D03*
X95000000Y-58450000D03*
D26*
X91200000Y-56600000D03*
D25*
X117700000Y-66500000D03*
X102450000Y-71850000D03*
X105550000Y-76850000D03*
X100100000Y-74180000D03*
X103020000Y-63300000D03*
X106650000Y-66070000D03*
X113030000Y-81280000D03*
X112200000Y-55000000D03*
X113700000Y-55000000D03*
X115200000Y-55000000D03*
X116700000Y-55000000D03*
X116700000Y-56500000D03*
X118200000Y-56500000D03*
X119000000Y-59300000D03*
X119000000Y-57800000D03*
X132200000Y-52500000D03*
X132200000Y-54100000D03*
X131000000Y-54100000D03*
X131000000Y-52500000D03*
X129800000Y-52500000D03*
X129800000Y-54100000D03*
X128500000Y-54100000D03*
X128500000Y-52500000D03*
X83600000Y-75700000D03*
X141500000Y-70200000D03*
X144200000Y-77500000D03*
X144200000Y-80150000D03*
X145300000Y-79150000D03*
X144200000Y-79150000D03*
X145300000Y-80150000D03*
X105600000Y-80500000D03*
X106900000Y-80550000D03*
X97400000Y-64000000D03*
X144350000Y-60350000D03*
X140600000Y-69354216D03*
X139900000Y-79500000D03*
X139900000Y-80500000D03*
X141000000Y-80500000D03*
X141000000Y-79500000D03*
X138600000Y-79400000D03*
X137500000Y-80400000D03*
X137500000Y-79400000D03*
X138600000Y-80400000D03*
%TO.N,+3V3*%
X105000000Y-78000000D03*
X94200000Y-64500000D03*
X92600000Y-64500000D03*
X91000000Y-64500000D03*
X89400000Y-64500000D03*
X94200000Y-65700000D03*
X92600000Y-65700000D03*
X91000000Y-65700000D03*
X89400000Y-65700000D03*
X89300000Y-68226000D03*
X94380000Y-68226000D03*
X119200000Y-75800000D03*
X115200000Y-64000000D03*
X100170000Y-72900000D03*
X102860000Y-65010000D03*
X94380000Y-66956000D03*
X89300000Y-66956000D03*
X120020000Y-63820000D03*
X108300000Y-79850000D03*
%TO.N,+48V*%
X129750000Y-44900000D03*
X129750000Y-46150000D03*
X150600000Y-77200000D03*
X150600000Y-77200000D03*
X150600000Y-78200000D03*
X150600000Y-79200000D03*
X150600000Y-80200000D03*
X149400000Y-80200000D03*
X148200000Y-80200000D03*
X148200000Y-79200000D03*
X148200000Y-78200000D03*
X148200000Y-77200000D03*
X149400000Y-78200000D03*
X149400000Y-79200000D03*
X148600000Y-57800000D03*
X149600000Y-57800000D03*
X150600000Y-57800000D03*
X150600000Y-58800000D03*
X149600000Y-58800000D03*
X148600000Y-58800000D03*
X148600000Y-59800000D03*
X149600000Y-59800000D03*
X150600000Y-59800000D03*
X150600000Y-51600000D03*
X149600000Y-51600000D03*
X148600000Y-51600000D03*
X148600000Y-52600000D03*
X149600000Y-52600000D03*
X150600000Y-52600000D03*
X150600000Y-53600000D03*
X149600000Y-53600000D03*
X148600000Y-53600000D03*
X148600000Y-60800000D03*
X150600000Y-60800000D03*
X150600000Y-54600000D03*
X149600000Y-54600000D03*
X148600000Y-54600000D03*
X115800000Y-44800000D03*
X114300000Y-44800000D03*
X112800000Y-44800000D03*
X111300000Y-44800000D03*
X110300000Y-46900000D03*
X110300000Y-45800000D03*
X110300000Y-44800000D03*
X132600000Y-44900000D03*
X131300000Y-44900000D03*
X131300000Y-46200000D03*
X132600000Y-46200000D03*
X132600000Y-47800000D03*
X132600000Y-49200000D03*
X134300000Y-49200000D03*
X135800000Y-49200000D03*
X149400000Y-77200000D03*
X149600000Y-60800000D03*
X128189000Y-74811000D03*
%TO.N,SHB*%
X154000000Y-64800000D03*
X154000000Y-63800000D03*
X153000000Y-63800000D03*
X153000000Y-66800000D03*
X154000000Y-66800000D03*
X154000000Y-65800000D03*
X153000000Y-65800000D03*
X141100000Y-65700000D03*
X153000000Y-64800000D03*
X142200000Y-68080000D03*
X155550000Y-59150000D03*
X156900000Y-59150000D03*
X155750000Y-65500000D03*
X155750000Y-66750000D03*
X155750000Y-68000000D03*
X158300000Y-59100000D03*
X155550000Y-60450000D03*
X155750000Y-64250000D03*
%TO.N,SPB*%
X144300000Y-66100000D03*
X144275000Y-68725000D03*
%TO.N,SHC*%
X153800000Y-46200000D03*
X152800000Y-45200000D03*
X152800000Y-46200000D03*
X153800000Y-45200000D03*
X153800000Y-48200000D03*
X152800000Y-47200000D03*
X152800000Y-48200000D03*
X153800000Y-47200000D03*
X155900000Y-45600000D03*
X157100000Y-45600000D03*
X158300000Y-45600000D03*
X155900000Y-46700000D03*
X158300000Y-46700000D03*
X157100000Y-46700000D03*
X155700000Y-53600000D03*
X156900000Y-53600000D03*
X158100000Y-53600000D03*
%TO.N,NRST*%
X105950000Y-69200000D03*
X98400000Y-74200000D03*
%TO.N,SWO*%
X109094309Y-72045068D03*
X102950000Y-75150000D03*
%TO.N,SWCLK*%
X109850000Y-72700000D03*
X100950000Y-75800000D03*
%TO.N,SWDIO*%
X110500000Y-73600000D03*
X102900000Y-76800000D03*
%TO.N,TIM1_CH3*%
X119600000Y-68000000D03*
X121800000Y-68150000D03*
%TO.N,TIM1_CH1*%
X118250000Y-69975000D03*
X118250000Y-68000000D03*
%TO.N,TIM1_CH2N*%
X121500000Y-69625000D03*
X123850000Y-67404216D03*
%TO.N,TIM1_CH1N*%
X125350000Y-66404216D03*
X122350799Y-70150493D03*
%TO.N,SOC*%
X114500000Y-61125000D03*
X109100000Y-70150000D03*
%TO.N,SOB*%
X107798055Y-70187622D03*
X112150000Y-61850000D03*
%TO.N,SOA*%
X106800000Y-70250000D03*
X110075000Y-62575000D03*
%TO.N,+12V*%
X84150000Y-57100000D03*
X109900000Y-50500000D03*
X109900000Y-51600000D03*
X109900000Y-52700000D03*
X109900000Y-53900000D03*
X109900000Y-55000000D03*
X96500000Y-47400000D03*
X94900000Y-47400000D03*
X93100000Y-47950000D03*
X90100000Y-47350000D03*
X90100000Y-49650000D03*
X83700000Y-45900000D03*
X83700000Y-47400000D03*
X83700000Y-48900000D03*
X83700000Y-50500000D03*
X93150000Y-50750000D03*
X90100000Y-50800000D03*
X93100000Y-49400000D03*
X90100000Y-48500000D03*
X85350000Y-45900000D03*
X85350000Y-47400000D03*
X85300000Y-48900000D03*
X85300000Y-50450000D03*
X110000000Y-57500000D03*
%TO.N,encoder_1*%
X119400000Y-81150000D03*
X110000000Y-80350000D03*
%TO.N,encoder_2*%
X119650000Y-80000000D03*
X109900000Y-78400000D03*
%TO.N,i2c1_SDA*%
X102400000Y-61200000D03*
%TO.N,i2c1_SCL*%
X101212653Y-61012653D03*
%TD*%
D27*
%TO.N,SHA*%
X130630000Y-69816716D02*
X130630000Y-69930000D01*
X150800000Y-75100000D02*
X151900000Y-74000000D01*
X151900000Y-74000000D02*
X151900000Y-72200000D01*
X130630000Y-70802820D02*
X132952190Y-73125010D01*
X140225010Y-73125010D02*
X142200000Y-75100000D01*
X130630000Y-69816716D02*
X130630000Y-70802820D01*
X142200000Y-75100000D02*
X150800000Y-75100000D01*
X132952190Y-73125010D02*
X140225010Y-73125010D01*
%TO.N,GHA*%
X133962500Y-74300000D02*
X133200000Y-74300000D01*
X130130000Y-71230000D02*
X130130000Y-69816716D01*
X133200000Y-74300000D02*
X130130000Y-71230000D01*
%TO.N,SPA*%
X131630000Y-69816716D02*
X131630000Y-70530000D01*
X131630000Y-70530000D02*
X132100000Y-71000000D01*
X143500000Y-71000000D02*
X144200000Y-71700000D01*
X132100000Y-71000000D02*
X143500000Y-71000000D01*
%TO.N,GLA*%
X131130000Y-70666410D02*
X131130000Y-69816716D01*
X132563590Y-72100000D02*
X131130000Y-70666410D01*
X133962500Y-72100000D02*
X132563590Y-72100000D01*
%TO.N,GND*%
X124129000Y-73221000D02*
X124114000Y-73236000D01*
D28*
X122675000Y-73221000D02*
X122244000Y-73652000D01*
D27*
X99850000Y-65465000D02*
X99485000Y-65100000D01*
X99850000Y-66750000D02*
X99850000Y-65465000D01*
X98765000Y-69565000D02*
X98150000Y-68950000D01*
X98765000Y-70600000D02*
X98765000Y-69565000D01*
X132817500Y-69129216D02*
X139075000Y-69129216D01*
X139075000Y-69129216D02*
X139175000Y-69129216D01*
X132817500Y-64629216D02*
X134334374Y-64629216D01*
X134399961Y-64563629D02*
X134399962Y-62927218D01*
X134334374Y-64629216D02*
X134399961Y-64563629D01*
X135049970Y-62277210D02*
X135049970Y-61013620D01*
X134399962Y-62927218D02*
X135049970Y-62277210D01*
X135049970Y-61013620D02*
X135749990Y-60313600D01*
X135749991Y-58913599D02*
X136513600Y-58149990D01*
X135749990Y-60313600D02*
X135749991Y-58913599D01*
X139563580Y-57600010D02*
X139563581Y-56863599D01*
X136513600Y-58149990D02*
X139013600Y-58149990D01*
X139013600Y-58149990D02*
X139563580Y-57600010D01*
X139563581Y-56863599D02*
X140024990Y-56402190D01*
X140024990Y-56402190D02*
X140024990Y-50900000D01*
X117550000Y-77637500D02*
X117550000Y-77950000D01*
X117550000Y-77950000D02*
X118800000Y-79200000D01*
X116250000Y-76835000D02*
X116250000Y-77850000D01*
X116250000Y-77850000D02*
X116400000Y-78000000D01*
X115050000Y-76835000D02*
X115050000Y-77850000D01*
X115050000Y-77850000D02*
X115200000Y-78000000D01*
X113400000Y-75675000D02*
X113400000Y-74200000D01*
X113400000Y-74200000D02*
X113200000Y-74000000D01*
X113400000Y-79587500D02*
X114387500Y-79587500D01*
X114387500Y-79587500D02*
X115000000Y-80200000D01*
X117135000Y-65150000D02*
X118350000Y-65150000D01*
X118350000Y-65150000D02*
X118600000Y-65400000D01*
X117135000Y-64050000D02*
X118450000Y-64050000D01*
X118450000Y-64050000D02*
X118600000Y-64200000D01*
D28*
X122675000Y-73221000D02*
X125892000Y-73221000D01*
X99485000Y-65100000D02*
X100800000Y-65100000D01*
X100800000Y-65100000D02*
X100950000Y-64950000D01*
X98765000Y-70600000D02*
X98765000Y-71835000D01*
X98765000Y-71835000D02*
X98650000Y-71950000D01*
X90062500Y-70850000D02*
X88850000Y-70850000D01*
X88750000Y-70850000D02*
X88550000Y-71050000D01*
X87100000Y-63687500D02*
X87100000Y-65200000D01*
X87100000Y-65200000D02*
X87250000Y-65350000D01*
D29*
X87750000Y-56300000D02*
X90900000Y-56300000D01*
X90900000Y-56300000D02*
X91200000Y-56600000D01*
D30*
X113825000Y-53825000D02*
X114225000Y-53825000D01*
X119575000Y-53825000D02*
X122975000Y-50425000D01*
X123225000Y-50425000D02*
X123800000Y-51000000D01*
X113825000Y-50425000D02*
X123225000Y-50425000D01*
D27*
X115825000Y-66750000D02*
X117450000Y-66750000D01*
X117450000Y-66750000D02*
X117700000Y-66500000D01*
X104475000Y-71750000D02*
X102550000Y-71750000D01*
X102550000Y-71750000D02*
X102450000Y-71850000D01*
X106050000Y-78935000D02*
X106050000Y-79500000D01*
X106900000Y-75675000D02*
X106900000Y-76900000D01*
X106900000Y-76900000D02*
X106750000Y-77050000D01*
X105750000Y-77050000D02*
X105550000Y-76850000D01*
X106750000Y-77050000D02*
X105750000Y-77050000D01*
D28*
X102400000Y-73885000D02*
X100395000Y-73885000D01*
X100395000Y-73885000D02*
X100100000Y-74180000D01*
X105350000Y-63165000D02*
X103155000Y-63165000D01*
X103155000Y-63165000D02*
X103020000Y-63300000D01*
X90402500Y-71190000D02*
X90062500Y-70850000D01*
X90402500Y-72750000D02*
X90402500Y-71190000D01*
D27*
X106900000Y-64325000D02*
X106900000Y-65820000D01*
X106900000Y-65820000D02*
X106650000Y-66070000D01*
X98376500Y-62992000D02*
X98298000Y-62992000D01*
X111506000Y-79931500D02*
X111681500Y-79931500D01*
X111681500Y-79931500D02*
X113030000Y-81280000D01*
X84615000Y-75700000D02*
X83600000Y-75700000D01*
D30*
X95000000Y-60850000D02*
X94150000Y-61700000D01*
X95000000Y-58450000D02*
X95000000Y-60850000D01*
D27*
X132130000Y-69816716D02*
X132130000Y-70393590D01*
X132130000Y-70393590D02*
X132286400Y-70549990D01*
X132286400Y-70549990D02*
X141150010Y-70549990D01*
X141150010Y-70549990D02*
X141500000Y-70200000D01*
X106050000Y-79500000D02*
X106050000Y-80050000D01*
X106050000Y-80050000D02*
X105600000Y-80500000D01*
X107250000Y-78950000D02*
X107250000Y-80200000D01*
X107250000Y-80200000D02*
X106900000Y-80550000D01*
X98376500Y-62992000D02*
X98376500Y-63023500D01*
X98376500Y-63023500D02*
X97400000Y-64000000D01*
X144300000Y-60300000D02*
X144350000Y-60350000D01*
X140375000Y-69129216D02*
X140600000Y-69354216D01*
X139075000Y-69129216D02*
X140375000Y-69129216D01*
%TO.N,+3V3*%
X130624314Y-63936030D02*
X130630000Y-63941716D01*
D30*
X91987500Y-70900000D02*
X91937500Y-70850000D01*
D27*
X107400000Y-77830000D02*
X107400000Y-75675000D01*
X107250000Y-77980000D02*
X107400000Y-77830000D01*
X106050000Y-77965000D02*
X105035000Y-77965000D01*
X105035000Y-77965000D02*
X105000000Y-78000000D01*
D28*
X117550000Y-76062500D02*
X117262500Y-76062500D01*
X117065000Y-75865000D02*
X115050000Y-75865000D01*
X117262500Y-76062500D02*
X117065000Y-75865000D01*
X114190010Y-75865000D02*
X114000010Y-75675000D01*
X115050000Y-75865000D02*
X114190010Y-75865000D01*
D27*
X116165000Y-65910000D02*
X115825000Y-66250000D01*
X116165000Y-64050000D02*
X116165000Y-65910000D01*
X116165000Y-64050000D02*
X116165000Y-63965000D01*
X105540000Y-64325000D02*
X105350000Y-64135000D01*
X106400000Y-64325000D02*
X105540000Y-64325000D01*
X104475000Y-64410000D02*
X104200000Y-64135000D01*
X104475000Y-66250000D02*
X104475000Y-64410000D01*
D30*
X91950000Y-70837500D02*
X91937500Y-70850000D01*
X92350000Y-68000000D02*
X92350000Y-70737500D01*
X92075000Y-70712500D02*
X91937500Y-70850000D01*
X93550000Y-70712500D02*
X92075000Y-70712500D01*
X117550000Y-76062500D02*
X118937500Y-76062500D01*
X118937500Y-76062500D02*
X119200000Y-75800000D01*
D28*
X116165000Y-64050000D02*
X115250000Y-64050000D01*
X115250000Y-64050000D02*
X115200000Y-64000000D01*
X105350000Y-64135000D02*
X104200000Y-64135000D01*
D27*
X102458002Y-72915000D02*
X102400000Y-72915000D01*
X103123002Y-72250000D02*
X102458002Y-72915000D01*
X104475000Y-72250000D02*
X103123002Y-72250000D01*
D28*
X102400000Y-72915000D02*
X100185000Y-72915000D01*
X100185000Y-72915000D02*
X100170000Y-72900000D01*
X104200000Y-64135000D02*
X103735000Y-64135000D01*
X103735000Y-64135000D02*
X102860000Y-65010000D01*
D27*
X130630000Y-62783590D02*
X131100000Y-62313590D01*
X130630000Y-63941716D02*
X130630000Y-62783590D01*
X131100000Y-62313590D02*
X131100000Y-59690000D01*
X130772500Y-59362500D02*
X130050000Y-59362500D01*
X131100000Y-59690000D02*
X130772500Y-59362500D01*
D28*
X130050000Y-58790000D02*
X130050000Y-59362500D01*
X122650000Y-61190000D02*
X122650000Y-58440000D01*
X120020000Y-63820000D02*
X122650000Y-61190000D01*
X129380000Y-58120000D02*
X130050000Y-58790000D01*
X122650000Y-58440000D02*
X122970000Y-58120000D01*
X122970000Y-58120000D02*
X129380000Y-58120000D01*
D27*
X107250000Y-77980000D02*
X107630000Y-77980000D01*
X107630000Y-77980000D02*
X108300000Y-78650000D01*
X108300000Y-78650000D02*
X108300000Y-79850000D01*
D28*
X107250000Y-77980000D02*
X106065000Y-77980000D01*
D30*
%TO.N,+48V*%
X124114000Y-74811000D02*
X128189000Y-74811000D01*
X129196000Y-73804000D02*
X129196000Y-72918000D01*
X128189000Y-74811000D02*
X129196000Y-73804000D01*
D28*
X129196000Y-72918000D02*
X129196000Y-71804000D01*
X129196000Y-71804000D02*
X129379755Y-71620245D01*
X129379755Y-71620245D02*
X129379755Y-69718454D01*
D27*
X129478017Y-69816716D02*
X129379755Y-69718454D01*
X129630000Y-69816716D02*
X129478017Y-69816716D01*
X129281493Y-69816716D02*
X129379755Y-69718454D01*
X129130000Y-69816716D02*
X129281493Y-69816716D01*
%TO.N,CPL*%
X127383284Y-69816716D02*
X126183284Y-69816716D01*
X127630000Y-69816716D02*
X127383284Y-69816716D01*
X125212500Y-70787500D02*
X125212500Y-71300000D01*
X126183284Y-69816716D02*
X125212500Y-70787500D01*
%TO.N,CPH*%
X128130000Y-69816716D02*
X128130000Y-70970000D01*
X127800000Y-71300000D02*
X126787500Y-71300000D01*
X128130000Y-70970000D02*
X127800000Y-71300000D01*
%TO.N,SHB*%
X141050000Y-65750000D02*
X141100000Y-65700000D01*
X135320784Y-67629216D02*
X132817500Y-67629216D01*
X140350000Y-66100000D02*
X136850000Y-66100000D01*
X141100000Y-65700000D02*
X140750000Y-65700000D01*
X136850000Y-66100000D02*
X135320784Y-67629216D01*
X140750000Y-65700000D02*
X140350000Y-66100000D01*
X152350000Y-65450000D02*
X152350000Y-66450000D01*
X152350000Y-66450000D02*
X150800000Y-68000000D01*
X150800000Y-68000000D02*
X142280000Y-68000000D01*
X142280000Y-68000000D02*
X142200000Y-68080000D01*
%TO.N,SPB*%
X132817500Y-68629216D02*
X141329216Y-68629216D01*
X144194999Y-68805001D02*
X144275000Y-68725000D01*
X141851999Y-68805001D02*
X144194999Y-68805001D01*
X141329216Y-68629216D02*
X141676214Y-68629216D01*
X141676214Y-68629216D02*
X141851999Y-68805001D01*
%TO.N,GHB*%
X132817500Y-67129216D02*
X135184374Y-67129216D01*
X135184374Y-67128126D02*
X135184374Y-67129216D01*
X137462500Y-64850000D02*
X135184374Y-67128126D01*
%TO.N,GLB*%
X132817500Y-68129216D02*
X132970784Y-68129216D01*
X136583284Y-68129216D02*
X137312500Y-67400000D01*
X132817500Y-68129216D02*
X136583284Y-68129216D01*
%TO.N,SHC*%
X141750000Y-50050000D02*
X142300000Y-49500000D01*
X149700000Y-49500000D02*
X152400000Y-46800000D01*
X142300000Y-49500000D02*
X149700000Y-49500000D01*
X141750000Y-56586410D02*
X141750000Y-56450000D01*
X141750000Y-56586410D02*
X141750000Y-50050000D01*
X141036401Y-57300009D02*
X141750000Y-56586410D01*
X135750000Y-63948910D02*
X135749991Y-63948901D01*
X135749991Y-63948901D02*
X135749991Y-63500009D01*
X135750000Y-65289680D02*
X135750000Y-63948910D01*
X136400000Y-62850000D02*
X136400000Y-61650000D01*
X132817500Y-66129216D02*
X134910464Y-66129216D01*
X141036401Y-60164689D02*
X141036401Y-57300009D01*
X135749991Y-63500009D02*
X136400000Y-62850000D01*
X134910464Y-66129216D02*
X135750000Y-65289680D01*
X136400000Y-61650000D02*
X136850000Y-61200000D01*
X136850000Y-61200000D02*
X140001090Y-61200000D01*
X140001090Y-61200000D02*
X141036401Y-60164689D01*
%TO.N,SPC*%
X140749990Y-56313600D02*
X140749990Y-48350010D01*
X139200000Y-58600000D02*
X140013590Y-57786410D01*
X135499980Y-62463610D02*
X135499980Y-61276110D01*
X135500000Y-61276090D02*
X135500000Y-61200000D01*
X140749990Y-48350010D02*
X144200000Y-44900000D01*
X134849971Y-63113619D02*
X135499980Y-62463610D01*
X135499980Y-61276110D02*
X135500000Y-61276090D01*
X136200000Y-59100000D02*
X136700000Y-58600000D01*
X134849971Y-64750029D02*
X134849971Y-63113619D01*
X140013590Y-57050000D02*
X140749990Y-56313600D01*
X132817500Y-65129216D02*
X134470784Y-65129216D01*
X134470784Y-65129216D02*
X134849971Y-64750029D01*
X140013590Y-57786410D02*
X140013590Y-57050000D01*
X135500000Y-61200000D02*
X136200000Y-60500000D01*
X136200000Y-60500000D02*
X136200000Y-59100000D01*
X136700000Y-58600000D02*
X139200000Y-58600000D01*
%TO.N,GHC*%
X133970784Y-66629216D02*
X134370784Y-66629216D01*
X133970784Y-66629216D02*
X134133284Y-66629216D01*
X132817500Y-66629216D02*
X133970784Y-66629216D01*
X134370784Y-66629216D02*
X135046874Y-66629216D01*
X135046874Y-66629216D02*
X136200000Y-65476090D01*
X136200000Y-63762500D02*
X137462500Y-62500000D01*
X136200000Y-65476090D02*
X136200000Y-63762500D01*
%TO.N,GLC*%
X132817500Y-65629216D02*
X133860464Y-65629216D01*
X133860464Y-65629216D02*
X134720784Y-65629216D01*
X135299981Y-65050019D02*
X135299981Y-63300019D01*
X134720784Y-65629216D02*
X135299981Y-65050019D01*
X135949990Y-61462510D02*
X137512500Y-59900000D01*
X135949990Y-62650010D02*
X135949990Y-61462510D01*
X135299981Y-63300019D02*
X135949990Y-62650010D01*
%TO.N,Net-(Q1-Pad4)*%
X152805000Y-75950000D02*
X153750000Y-76895000D01*
X140500000Y-74300000D02*
X142150000Y-75950000D01*
X135837500Y-74300000D02*
X140500000Y-74300000D01*
X142150000Y-75950000D02*
X152805000Y-75950000D01*
X154300000Y-76895000D02*
X153750000Y-76895000D01*
%TO.N,Net-(Q2-Pad4)*%
X142100000Y-62450000D02*
X139700000Y-64850000D01*
X146200000Y-62450000D02*
X142100000Y-62450000D01*
X139700000Y-64850000D02*
X139337500Y-64850000D01*
X153355000Y-56700000D02*
X147100000Y-56700000D01*
X147100000Y-56700000D02*
X146700000Y-57100000D01*
X154150000Y-57495000D02*
X153355000Y-56700000D01*
X146700000Y-57100000D02*
X146700000Y-61950000D01*
X146700000Y-61950000D02*
X146200000Y-62450000D01*
%TO.N,Net-(Q3-Pad4)*%
X153255000Y-50200000D02*
X154150000Y-51095000D01*
X146600000Y-50600000D02*
X147000000Y-50200000D01*
X146600000Y-53800000D02*
X146600000Y-50600000D01*
X139337500Y-62500000D02*
X141550000Y-60287500D01*
X144327180Y-56072820D02*
X146600000Y-53800000D01*
X141550000Y-60287500D02*
X141550000Y-57422820D01*
X147000000Y-50200000D02*
X153255000Y-50200000D01*
X141550000Y-57422820D02*
X142900000Y-56072820D01*
X142900000Y-56072820D02*
X144327180Y-56072820D01*
%TO.N,Net-(Q4-Pad4)*%
X148050000Y-74105000D02*
X142095000Y-74105000D01*
X140090000Y-72100000D02*
X141045000Y-73055000D01*
X135837500Y-72100000D02*
X140090000Y-72100000D01*
X140790000Y-72800000D02*
X141045000Y-73055000D01*
X141045000Y-73055000D02*
X142095000Y-74105000D01*
X148200000Y-74255000D02*
X148050000Y-74105000D01*
X148550000Y-74255000D02*
X148200000Y-74255000D01*
%TO.N,Net-(Q5-Pad4)*%
X139232500Y-67355000D02*
X139187500Y-67400000D01*
X148400000Y-67355000D02*
X139232500Y-67355000D01*
%TO.N,Net-(Q6-Pad4)*%
X142458590Y-48705000D02*
X148450000Y-48705000D01*
X141200000Y-49963590D02*
X142458590Y-48705000D01*
X140250000Y-59900000D02*
X140586391Y-59563609D01*
X140586391Y-59563609D02*
X140586391Y-57113609D01*
X139387500Y-59900000D02*
X140250000Y-59900000D01*
X140586391Y-57113609D02*
X141200000Y-56500000D01*
X141200000Y-56500000D02*
X141200000Y-49963590D01*
%TO.N,Net-(C17-Pad2)*%
X127621000Y-72337000D02*
X127621000Y-72918000D01*
X128630000Y-69816716D02*
X128630000Y-71328000D01*
X128630000Y-71328000D02*
X127621000Y-72337000D01*
%TO.N,Net-(C19-Pad1)*%
X113400000Y-78012500D02*
X113400000Y-77600000D01*
X113400000Y-77600000D02*
X112887091Y-77087091D01*
X112887091Y-75687909D02*
X112900000Y-75675000D01*
X112887091Y-77087091D02*
X112887091Y-75687909D01*
%TO.N,HSE_IN*%
X98150000Y-65465000D02*
X98515000Y-65100000D01*
X98150000Y-66750000D02*
X98150000Y-65465000D01*
X104470647Y-68245647D02*
X104475000Y-68250000D01*
X103072635Y-68245647D02*
X104470647Y-68245647D01*
X102662356Y-67835368D02*
X103072635Y-68245647D01*
X98335368Y-67835368D02*
X102662356Y-67835368D01*
X98150000Y-66750000D02*
X98150000Y-67650000D01*
X98150000Y-67650000D02*
X98335368Y-67835368D01*
%TO.N,Net-(C21-Pad1)*%
X99735000Y-69065000D02*
X99850000Y-68950000D01*
X99735000Y-70600000D02*
X99735000Y-69065000D01*
X101650000Y-68950000D02*
X99850000Y-68950000D01*
D28*
%TO.N,Net-(D2-Pad1)*%
X93550000Y-72287500D02*
X93550000Y-72520000D01*
X93320000Y-72750000D02*
X91977500Y-72750000D01*
X93550000Y-72520000D02*
X93320000Y-72750000D01*
D27*
%TO.N,USART1_TX*%
X109400000Y-64325000D02*
X109400000Y-62973002D01*
X109349999Y-62923001D02*
X109349999Y-61739999D01*
X109400000Y-62973002D02*
X109349999Y-62923001D01*
X109349999Y-61739999D02*
X108670000Y-61060000D01*
X89110000Y-73900000D02*
X86759991Y-71549991D01*
X86759991Y-71549991D02*
X86759991Y-71539991D01*
X96060000Y-62500000D02*
X96060000Y-72660000D01*
X96060000Y-72660000D02*
X94820000Y-73900000D01*
X94820000Y-73900000D02*
X89110000Y-73900000D01*
X85770000Y-70560000D02*
X86759991Y-71549991D01*
X84000000Y-70560000D02*
X85770000Y-70560000D01*
X108670000Y-61060000D02*
X108660000Y-61060000D01*
X108660000Y-61060000D02*
X106600000Y-59000000D01*
X106600000Y-59000000D02*
X97600000Y-59000000D01*
X96060000Y-60540000D02*
X96060000Y-62500000D01*
X97600000Y-59000000D02*
X96060000Y-60540000D01*
%TO.N,USART1_RX*%
X88923600Y-74350010D02*
X95006401Y-74350009D01*
X95006401Y-74350009D02*
X96483205Y-72873205D01*
X108900000Y-63109412D02*
X108899989Y-63109401D01*
X108900000Y-64325000D02*
X108900000Y-63109412D01*
X108899989Y-63109401D02*
X108899989Y-61926399D01*
X108899989Y-61926399D02*
X108483600Y-61510010D01*
X96510010Y-72846400D02*
X96483205Y-72873205D01*
X84000000Y-73100000D02*
X87000000Y-73100000D01*
X88250010Y-74350010D02*
X88923600Y-74350010D01*
X87000000Y-73100000D02*
X88250010Y-74350010D01*
X108483600Y-61510010D02*
X108473599Y-61510009D01*
X108473599Y-61510009D02*
X106413600Y-59450010D01*
X96510010Y-61289990D02*
X96510010Y-62313600D01*
X106413600Y-59450010D02*
X98349990Y-59450010D01*
X98349990Y-59450010D02*
X96510010Y-61289990D01*
X96510010Y-62313600D02*
X96510010Y-63110010D01*
X96510010Y-62686400D02*
X96510010Y-63110010D01*
X96510010Y-63110010D02*
X96510010Y-72846400D01*
%TO.N,NRST*%
X105900000Y-69250000D02*
X105950000Y-69200000D01*
X104475000Y-69250000D02*
X105900000Y-69250000D01*
X85735000Y-75550000D02*
X85585000Y-75700000D01*
X87650000Y-75550000D02*
X85735000Y-75550000D01*
X83990000Y-80640000D02*
X85250000Y-79380000D01*
X85250000Y-76035000D02*
X85585000Y-75700000D01*
X85250000Y-76650000D02*
X85250000Y-76035000D01*
X85250000Y-76650000D02*
X85250000Y-76400000D01*
X85250000Y-79380000D02*
X85250000Y-76650000D01*
X87650000Y-75550000D02*
X91050000Y-75550000D01*
X92413590Y-75550000D02*
X93063610Y-74899980D01*
X91050000Y-75550000D02*
X92413590Y-75550000D01*
X98363590Y-74200000D02*
X98400000Y-74200000D01*
X93063610Y-74899980D02*
X97663610Y-74899980D01*
X97663610Y-74899980D02*
X98363590Y-74200000D01*
%TO.N,SWO*%
X110900000Y-65200000D02*
X110900000Y-64325000D01*
X109431930Y-72045068D02*
X109926998Y-71550000D01*
X109094309Y-72045068D02*
X109431930Y-72045068D01*
X111250000Y-71550000D02*
X112499980Y-70300020D01*
X109926998Y-71550000D02*
X111250000Y-71550000D01*
X112499980Y-70300020D02*
X112499980Y-67699980D01*
X110900000Y-66100000D02*
X110900000Y-64325000D01*
X112499980Y-67699980D02*
X110900000Y-66100000D01*
X90460499Y-78689501D02*
X90434999Y-78664001D01*
X90434999Y-78715001D02*
X90460499Y-78689501D01*
X89070000Y-80640000D02*
X90434999Y-79275001D01*
X90434999Y-79275001D02*
X90434999Y-78715001D01*
X102750000Y-74950000D02*
X102950000Y-75150000D01*
X90434999Y-78664001D02*
X90434999Y-77165001D01*
X101298001Y-75074999D02*
X98125001Y-75074999D01*
X97850010Y-75349990D02*
X93250010Y-75349990D01*
X98125001Y-75074999D02*
X97850010Y-75349990D01*
X92400000Y-76200000D02*
X91400000Y-76200000D01*
X93250010Y-75349990D02*
X92400000Y-76200000D01*
X91400000Y-76200000D02*
X90434999Y-77165001D01*
X101373002Y-75150000D02*
X101298001Y-75074999D01*
X102950000Y-75150000D02*
X101373002Y-75150000D01*
%TO.N,SWCLK*%
X113900000Y-64325000D02*
X113900000Y-67100000D01*
X91610000Y-80640000D02*
X92410998Y-80640000D01*
X109850000Y-72700000D02*
X110763590Y-72700000D01*
X110763590Y-72700000D02*
X112949990Y-70513600D01*
X112949990Y-68050010D02*
X113900000Y-67100000D01*
X112949990Y-70513600D02*
X112949990Y-68050010D01*
X91610000Y-79839002D02*
X92800000Y-78649002D01*
X91610000Y-80640000D02*
X91610000Y-79839002D01*
X94164998Y-75800000D02*
X100950000Y-75800000D01*
X92800000Y-78649002D02*
X92800000Y-77164998D01*
X92800000Y-77164998D02*
X94164998Y-75800000D01*
%TO.N,SWDIO*%
X110500000Y-73600000D02*
X113400000Y-70700000D01*
X113400000Y-70700000D02*
X113400000Y-68300000D01*
X114450000Y-67250000D02*
X115825000Y-67250000D01*
X113400000Y-68300000D02*
X114450000Y-67250000D01*
X94150000Y-80640000D02*
X94960000Y-80640000D01*
X94960000Y-80640000D02*
X96200000Y-79400000D01*
X96200000Y-79400000D02*
X96200000Y-77750000D01*
X96200000Y-77750000D02*
X97150000Y-76800000D01*
X97150000Y-76800000D02*
X102900000Y-76800000D01*
%TO.N,BOOT0*%
X101299980Y-59900020D02*
X100251500Y-60948500D01*
X106227200Y-59900020D02*
X101299980Y-59900020D01*
X108400000Y-64325000D02*
X108400000Y-62072820D01*
X100251500Y-60948500D02*
X100251500Y-62992000D01*
X108400000Y-62072820D02*
X106227200Y-59900020D01*
%TO.N,BOOT1*%
X111900000Y-77662500D02*
X111506000Y-78056500D01*
X111900000Y-75675000D02*
X111900000Y-77662500D01*
%TO.N,Net-(R4-Pad2)*%
X130130000Y-61017500D02*
X130050000Y-60937500D01*
X130130000Y-63941716D02*
X130130000Y-61017500D01*
%TO.N,HSE_OUT*%
X104475000Y-68750000D02*
X103050000Y-68750000D01*
X103050000Y-68750000D02*
X102650000Y-69150000D01*
X102650000Y-69150000D02*
X102650000Y-70150000D01*
X102275000Y-70525000D02*
X101650000Y-70525000D01*
X102650000Y-70150000D02*
X102275000Y-70525000D01*
%TO.N,TIM1_CH3*%
X115825000Y-68750000D02*
X118850000Y-68750000D01*
X118850000Y-68750000D02*
X119600000Y-68000000D01*
X123829216Y-68129216D02*
X126942500Y-68129216D01*
X123829216Y-68129216D02*
X121820784Y-68129216D01*
X121820784Y-68129216D02*
X121800000Y-68150000D01*
%TO.N,TIM1_CH2*%
X119500000Y-69250000D02*
X115825000Y-69250000D01*
X124198001Y-66679215D02*
X122070785Y-66679215D01*
X124648002Y-67129216D02*
X124198001Y-66679215D01*
X122070785Y-66679215D02*
X119500000Y-69250000D01*
X126942500Y-67129216D02*
X124648002Y-67129216D01*
%TO.N,TIM1_CH1*%
X115825000Y-69750000D02*
X118025000Y-69750000D01*
X118025000Y-69750000D02*
X118250000Y-69975000D01*
X126892510Y-66179206D02*
X126942500Y-66129216D01*
X120570785Y-65679215D02*
X118250000Y-68000000D01*
X125698001Y-65679215D02*
X120570785Y-65679215D01*
X126148002Y-66129216D02*
X125698001Y-65679215D01*
X126942500Y-66129216D02*
X126148002Y-66129216D01*
%TO.N,TIM1_CH3N*%
X122393786Y-68629216D02*
X122123002Y-68900000D01*
X126942500Y-68629216D02*
X122393786Y-68629216D01*
X122123002Y-68900000D02*
X121050000Y-68900000D01*
X116665702Y-72250000D02*
X115825000Y-72250000D01*
X116715702Y-72300000D02*
X116665702Y-72250000D01*
X117650000Y-72300000D02*
X116715702Y-72300000D01*
X121050000Y-68900000D02*
X117650000Y-72300000D01*
%TO.N,TIM1_CH2N*%
X115825000Y-72750000D02*
X118375000Y-72750000D01*
X118375000Y-72750000D02*
X121500000Y-69625000D01*
X124075000Y-67629216D02*
X123850000Y-67404216D01*
X126942500Y-67629216D02*
X124075000Y-67629216D01*
%TO.N,TIM1_CH1N*%
X126942500Y-66629216D02*
X125575000Y-66629216D01*
X125575000Y-66629216D02*
X125350000Y-66404216D01*
X119251292Y-73250000D02*
X122350799Y-70150493D01*
X115825000Y-73250000D02*
X119251292Y-73250000D01*
%TO.N,SOC*%
X109100000Y-70150000D02*
X109100000Y-70550000D01*
X109100000Y-70550000D02*
X108200245Y-71449755D01*
X108200245Y-71449755D02*
X108200245Y-72020140D01*
X106470385Y-73750000D02*
X104475000Y-73750000D01*
X108200245Y-72020140D02*
X106470385Y-73750000D01*
X132130000Y-63192820D02*
X132130000Y-63941716D01*
X131172820Y-56550000D02*
X132650018Y-58027198D01*
X122260000Y-56550000D02*
X131172820Y-56550000D01*
X132650018Y-58027198D02*
X132650019Y-62672799D01*
X119788590Y-61125000D02*
X120650000Y-60263590D01*
X121916019Y-56893981D02*
X122260000Y-56550000D01*
X121916019Y-56899981D02*
X121916019Y-56893981D01*
X132650019Y-62672799D02*
X132130000Y-63192820D01*
X114500000Y-61125000D02*
X119788590Y-61125000D01*
X120650000Y-60263590D02*
X120650000Y-58166000D01*
X120650000Y-58166000D02*
X121916019Y-56899981D01*
%TO.N,SOB*%
X105861420Y-73274990D02*
X104499990Y-73274990D01*
X107525001Y-71611409D02*
X105861420Y-73274990D01*
X107798055Y-70187622D02*
X107525001Y-70460676D01*
X104499990Y-73274990D02*
X104475000Y-73250000D01*
X107525001Y-70460676D02*
X107525001Y-71611409D01*
X132200010Y-62486400D02*
X132200009Y-58213599D01*
X132200009Y-58213599D02*
X131336400Y-57349990D01*
X131630000Y-63941716D02*
X131630000Y-63056410D01*
X131630000Y-63056410D02*
X132200010Y-62486400D01*
X119760000Y-61850000D02*
X121158000Y-60452000D01*
X112150000Y-61850000D02*
X119760000Y-61850000D01*
X121158000Y-60452000D02*
X121158000Y-58420000D01*
X131336400Y-57349990D02*
X130988205Y-57001795D01*
X130988205Y-57001795D02*
X130986420Y-57000010D01*
X130871795Y-57001795D02*
X130870010Y-57000010D01*
X130988205Y-57001795D02*
X130871795Y-57001795D01*
X130870010Y-57000010D02*
X122560000Y-57000010D01*
X122560000Y-57018000D02*
X122139000Y-57439000D01*
X122560000Y-57000010D02*
X122560000Y-57018000D01*
X121158000Y-58420000D02*
X122139000Y-57439000D01*
X122139000Y-57439000D02*
X122228010Y-57349990D01*
%TO.N,SOA*%
X106800000Y-70250000D02*
X106800000Y-71700000D01*
X106800000Y-71700000D02*
X105750000Y-72750000D01*
X105750000Y-72750000D02*
X104475000Y-72750000D01*
X119543000Y-62575000D02*
X110075000Y-62575000D01*
X119675000Y-62575000D02*
X119543000Y-62575000D01*
X130683610Y-57450020D02*
X122764390Y-57450020D01*
X122764390Y-57450020D02*
X121608010Y-58606400D01*
X130685395Y-57451805D02*
X130683610Y-57450020D01*
X131130000Y-62920000D02*
X131750000Y-62300000D01*
X121608010Y-58606400D02*
X121608009Y-60638401D01*
X130801805Y-57451805D02*
X130685395Y-57451805D01*
X121608009Y-60638401D02*
X119671410Y-62575000D01*
X131130000Y-63941716D02*
X131130000Y-62920000D01*
X131750000Y-62300000D02*
X131750000Y-58400000D01*
X119671410Y-62575000D02*
X119543000Y-62575000D01*
X131750000Y-58400000D02*
X130801805Y-57451805D01*
D30*
%TO.N,+12V*%
X89550000Y-61700000D02*
X87212500Y-61700000D01*
X84150000Y-60750000D02*
X84150000Y-57100000D01*
X85100000Y-61700000D02*
X84150000Y-60750000D01*
X87100000Y-61700000D02*
X85100000Y-61700000D01*
D27*
%TO.N,DVDD*%
X125062500Y-59350000D02*
X125050000Y-59362500D01*
X127500000Y-59350000D02*
X125062500Y-59350000D01*
X129130000Y-63941716D02*
X129130000Y-63030000D01*
X129130000Y-63030000D02*
X127500000Y-61400000D01*
X127500000Y-59375000D02*
X127512500Y-59362500D01*
X127500000Y-61400000D02*
X127500000Y-59375000D01*
X128387500Y-59375000D02*
X128400000Y-59362500D01*
X127500000Y-59375000D02*
X128387500Y-59375000D01*
X124137500Y-59362500D02*
X125050000Y-59362500D01*
X123700000Y-59800000D02*
X124137500Y-59362500D01*
X126284412Y-65629216D02*
X125884401Y-65229205D01*
X126942500Y-65629216D02*
X126284412Y-65629216D01*
X123829205Y-65229205D02*
X123700000Y-65100000D01*
X125884401Y-65229205D02*
X123829205Y-65229205D01*
X123700000Y-65100000D02*
X123700000Y-59800000D01*
%TO.N,Net-(R15-Pad1)*%
X128400000Y-61460410D02*
X128400000Y-60937500D01*
X129630000Y-62690410D02*
X128400000Y-61460410D01*
X129630000Y-63941716D02*
X129630000Y-62690410D01*
%TO.N,Net-(R16-Pad1)*%
X126650000Y-60937500D02*
X126650000Y-62249990D01*
X128630000Y-63193590D02*
X128630000Y-63941716D01*
X127786401Y-62349991D02*
X128630000Y-63193590D01*
X126750000Y-62349990D02*
X127786401Y-62349991D01*
X126650000Y-62249990D02*
X126750000Y-62349990D01*
%TO.N,Net-(R17-Pad1)*%
X128130000Y-63941716D02*
X128130000Y-63330000D01*
X128130000Y-63330000D02*
X127600000Y-62800000D01*
X127600000Y-62800000D02*
X125850000Y-62800000D01*
X125050000Y-62000000D02*
X125050000Y-60937500D01*
X125850000Y-62800000D02*
X125050000Y-62000000D01*
%TO.N,encoder_1*%
X123410000Y-78260000D02*
X120520000Y-81150000D01*
X120520000Y-81150000D02*
X119400000Y-81150000D01*
X110000000Y-80350000D02*
X109000000Y-79350000D01*
X109000000Y-79350000D02*
X109000000Y-78600000D01*
X108400000Y-78000000D02*
X108400000Y-75675000D01*
X109000000Y-78600000D02*
X108400000Y-78000000D01*
%TO.N,encoder_2*%
X125950000Y-78260000D02*
X125950000Y-77650000D01*
X125950000Y-77650000D02*
X124950000Y-76650000D01*
X124950000Y-76650000D02*
X123100000Y-76650000D01*
X123100000Y-76650000D02*
X119750000Y-80000000D01*
X119750000Y-80000000D02*
X119650000Y-80000000D01*
X108900000Y-75675000D02*
X108900000Y-75900000D01*
X108924990Y-75924990D02*
X108924990Y-77524990D01*
X108900000Y-75900000D02*
X108924990Y-75924990D01*
X109800000Y-78400000D02*
X109900000Y-78400000D01*
X108924990Y-77524990D02*
X109800000Y-78400000D01*
%TO.N,i2c1_SDA*%
X107400000Y-62345640D02*
X107400000Y-64325000D01*
X102400000Y-61200000D02*
X106254360Y-61200000D01*
X106254360Y-61200000D02*
X107400000Y-62345640D01*
%TO.N,i2c1_SCL*%
X107900000Y-64325000D02*
X107900000Y-62209230D01*
X107900000Y-62209230D02*
X106090770Y-60400000D01*
X106090770Y-60400000D02*
X101825306Y-60400000D01*
X101825306Y-60400000D02*
X101212653Y-61012653D01*
%TD*%
D31*
%TO.N,SHA*%
G36*
X158340000Y-71532418D02*
G01*
X158349550Y-71629382D01*
X158387290Y-71753792D01*
X158448575Y-71868449D01*
X158531052Y-71968948D01*
X158631550Y-72051425D01*
X158746207Y-72112710D01*
X158870617Y-72150450D01*
X158935552Y-72156845D01*
X158935595Y-72156850D01*
X158936237Y-72156913D01*
X159000000Y-72163193D01*
X159000143Y-72163179D01*
X159599568Y-72221953D01*
X160176303Y-72396079D01*
X160708227Y-72678909D01*
X161175088Y-73059672D01*
X161559103Y-73523866D01*
X161845639Y-74053803D01*
X162023788Y-74629309D01*
X162086760Y-75228446D01*
X162032158Y-75828417D01*
X161862064Y-76406347D01*
X161582954Y-76940237D01*
X161205458Y-77409747D01*
X160743958Y-77796991D01*
X160216036Y-78087218D01*
X159641789Y-78269380D01*
X159021651Y-78338939D01*
X159000000Y-78336807D01*
X158870618Y-78349550D01*
X158746208Y-78387290D01*
X158631551Y-78448575D01*
X158531053Y-78531052D01*
X158448576Y-78631550D01*
X158387291Y-78746207D01*
X158349551Y-78870617D01*
X158340001Y-78967581D01*
X158340001Y-78999996D01*
X158340000Y-79000006D01*
X158340001Y-79000016D01*
X158340001Y-81073000D01*
X153777000Y-81073000D01*
X153777000Y-77773420D01*
X153875000Y-77783072D01*
X154725000Y-77783072D01*
X154849482Y-77770812D01*
X154969180Y-77734502D01*
X155079494Y-77675537D01*
X155176185Y-77596185D01*
X155255537Y-77499494D01*
X155314502Y-77389180D01*
X155350812Y-77269482D01*
X155363072Y-77145000D01*
X155363072Y-76645000D01*
X155350812Y-76520518D01*
X155314502Y-76400820D01*
X155255537Y-76290506D01*
X155176185Y-76193815D01*
X155079494Y-76114463D01*
X154969180Y-76055498D01*
X154927000Y-76042703D01*
X154927000Y-74400000D01*
X154924560Y-74375224D01*
X154917333Y-74351399D01*
X154905597Y-74329443D01*
X154889803Y-74310197D01*
X154870557Y-74294403D01*
X154848601Y-74282667D01*
X154824776Y-74275440D01*
X154798704Y-74273007D01*
X150027000Y-74321698D01*
X150027000Y-69976505D01*
X158340000Y-69944032D01*
X158340000Y-71532418D01*
G37*
X158340000Y-71532418D02*
X158349550Y-71629382D01*
X158387290Y-71753792D01*
X158448575Y-71868449D01*
X158531052Y-71968948D01*
X158631550Y-72051425D01*
X158746207Y-72112710D01*
X158870617Y-72150450D01*
X158935552Y-72156845D01*
X158935595Y-72156850D01*
X158936237Y-72156913D01*
X159000000Y-72163193D01*
X159000143Y-72163179D01*
X159599568Y-72221953D01*
X160176303Y-72396079D01*
X160708227Y-72678909D01*
X161175088Y-73059672D01*
X161559103Y-73523866D01*
X161845639Y-74053803D01*
X162023788Y-74629309D01*
X162086760Y-75228446D01*
X162032158Y-75828417D01*
X161862064Y-76406347D01*
X161582954Y-76940237D01*
X161205458Y-77409747D01*
X160743958Y-77796991D01*
X160216036Y-78087218D01*
X159641789Y-78269380D01*
X159021651Y-78338939D01*
X159000000Y-78336807D01*
X158870618Y-78349550D01*
X158746208Y-78387290D01*
X158631551Y-78448575D01*
X158531053Y-78531052D01*
X158448576Y-78631550D01*
X158387291Y-78746207D01*
X158349551Y-78870617D01*
X158340001Y-78967581D01*
X158340001Y-78999996D01*
X158340000Y-79000006D01*
X158340001Y-79000016D01*
X158340001Y-81073000D01*
X153777000Y-81073000D01*
X153777000Y-77773420D01*
X153875000Y-77783072D01*
X154725000Y-77783072D01*
X154849482Y-77770812D01*
X154969180Y-77734502D01*
X155079494Y-77675537D01*
X155176185Y-77596185D01*
X155255537Y-77499494D01*
X155314502Y-77389180D01*
X155350812Y-77269482D01*
X155363072Y-77145000D01*
X155363072Y-76645000D01*
X155350812Y-76520518D01*
X155314502Y-76400820D01*
X155255537Y-76290506D01*
X155176185Y-76193815D01*
X155079494Y-76114463D01*
X154969180Y-76055498D01*
X154927000Y-76042703D01*
X154927000Y-74400000D01*
X154924560Y-74375224D01*
X154917333Y-74351399D01*
X154905597Y-74329443D01*
X154889803Y-74310197D01*
X154870557Y-74294403D01*
X154848601Y-74282667D01*
X154824776Y-74275440D01*
X154798704Y-74273007D01*
X150027000Y-74321698D01*
X150027000Y-69976505D01*
X158340000Y-69944032D01*
X158340000Y-71532418D01*
%TO.N,SHC*%
G36*
X158289106Y-44780113D02*
G01*
X158340001Y-45264353D01*
X158340000Y-46532418D01*
X158349550Y-46629382D01*
X158387290Y-46753792D01*
X158448575Y-46868449D01*
X158531052Y-46968948D01*
X158631550Y-47051425D01*
X158746207Y-47112710D01*
X158870617Y-47150450D01*
X158935552Y-47156845D01*
X158935595Y-47156850D01*
X158936237Y-47156913D01*
X159000000Y-47163193D01*
X159000143Y-47163179D01*
X159599568Y-47221953D01*
X160176303Y-47396079D01*
X160708227Y-47678909D01*
X161175088Y-48059672D01*
X161559103Y-48523866D01*
X161845639Y-49053803D01*
X162023788Y-49629309D01*
X162086760Y-50228446D01*
X162032158Y-50828417D01*
X161862064Y-51406347D01*
X161582954Y-51940237D01*
X161205458Y-52409747D01*
X160743958Y-52796991D01*
X160216036Y-53087218D01*
X159641789Y-53269380D01*
X159021651Y-53338939D01*
X159000000Y-53336807D01*
X158870618Y-53349550D01*
X158746208Y-53387290D01*
X158631551Y-53448575D01*
X158531053Y-53531052D01*
X158448576Y-53631550D01*
X158387291Y-53746207D01*
X158349551Y-53870617D01*
X158340001Y-53967581D01*
X158340001Y-53999996D01*
X158340000Y-54000006D01*
X158340001Y-54000016D01*
X158340001Y-55373000D01*
X153375249Y-55373000D01*
X153328776Y-52027000D01*
X153688503Y-52027000D01*
X153750518Y-52045812D01*
X153875000Y-52058072D01*
X154725000Y-52058072D01*
X154849482Y-52045812D01*
X154911497Y-52027000D01*
X155050000Y-52027000D01*
X155074776Y-52024560D01*
X155098601Y-52017333D01*
X155120557Y-52005597D01*
X155139803Y-51989803D01*
X155155597Y-51970557D01*
X155167333Y-51948601D01*
X155174560Y-51924776D01*
X155177000Y-51900000D01*
X155177000Y-51870192D01*
X155255537Y-51774494D01*
X155314502Y-51664180D01*
X155350812Y-51544482D01*
X155363072Y-51420000D01*
X155363072Y-50920000D01*
X155350812Y-50795518D01*
X155314502Y-50675820D01*
X155255537Y-50565506D01*
X155177000Y-50469808D01*
X155177000Y-49200000D01*
X155174560Y-49175224D01*
X155167333Y-49151399D01*
X155155597Y-49129443D01*
X155139803Y-49110197D01*
X155120557Y-49094403D01*
X155098601Y-49082667D01*
X155074776Y-49075440D01*
X155050000Y-49073000D01*
X150327000Y-49073000D01*
X150327000Y-44627000D01*
X158241709Y-44627000D01*
X158289106Y-44780113D01*
G37*
X158289106Y-44780113D02*
X158340001Y-45264353D01*
X158340000Y-46532418D01*
X158349550Y-46629382D01*
X158387290Y-46753792D01*
X158448575Y-46868449D01*
X158531052Y-46968948D01*
X158631550Y-47051425D01*
X158746207Y-47112710D01*
X158870617Y-47150450D01*
X158935552Y-47156845D01*
X158935595Y-47156850D01*
X158936237Y-47156913D01*
X159000000Y-47163193D01*
X159000143Y-47163179D01*
X159599568Y-47221953D01*
X160176303Y-47396079D01*
X160708227Y-47678909D01*
X161175088Y-48059672D01*
X161559103Y-48523866D01*
X161845639Y-49053803D01*
X162023788Y-49629309D01*
X162086760Y-50228446D01*
X162032158Y-50828417D01*
X161862064Y-51406347D01*
X161582954Y-51940237D01*
X161205458Y-52409747D01*
X160743958Y-52796991D01*
X160216036Y-53087218D01*
X159641789Y-53269380D01*
X159021651Y-53338939D01*
X159000000Y-53336807D01*
X158870618Y-53349550D01*
X158746208Y-53387290D01*
X158631551Y-53448575D01*
X158531053Y-53531052D01*
X158448576Y-53631550D01*
X158387291Y-53746207D01*
X158349551Y-53870617D01*
X158340001Y-53967581D01*
X158340001Y-53999996D01*
X158340000Y-54000006D01*
X158340001Y-54000016D01*
X158340001Y-55373000D01*
X153375249Y-55373000D01*
X153328776Y-52027000D01*
X153688503Y-52027000D01*
X153750518Y-52045812D01*
X153875000Y-52058072D01*
X154725000Y-52058072D01*
X154849482Y-52045812D01*
X154911497Y-52027000D01*
X155050000Y-52027000D01*
X155074776Y-52024560D01*
X155098601Y-52017333D01*
X155120557Y-52005597D01*
X155139803Y-51989803D01*
X155155597Y-51970557D01*
X155167333Y-51948601D01*
X155174560Y-51924776D01*
X155177000Y-51900000D01*
X155177000Y-51870192D01*
X155255537Y-51774494D01*
X155314502Y-51664180D01*
X155350812Y-51544482D01*
X155363072Y-51420000D01*
X155363072Y-50920000D01*
X155350812Y-50795518D01*
X155314502Y-50675820D01*
X155255537Y-50565506D01*
X155177000Y-50469808D01*
X155177000Y-49200000D01*
X155174560Y-49175224D01*
X155167333Y-49151399D01*
X155155597Y-49129443D01*
X155139803Y-49110197D01*
X155120557Y-49094403D01*
X155098601Y-49082667D01*
X155074776Y-49075440D01*
X155050000Y-49073000D01*
X150327000Y-49073000D01*
X150327000Y-44627000D01*
X158241709Y-44627000D01*
X158289106Y-44780113D01*
%TO.N,SPB*%
G36*
X149173000Y-66443906D02*
G01*
X149124482Y-66429188D01*
X149000000Y-66416928D01*
X148150000Y-66416928D01*
X148025518Y-66429188D01*
X147905820Y-66465498D01*
X147795506Y-66524463D01*
X147736363Y-66573000D01*
X146500000Y-66573000D01*
X146475224Y-66575440D01*
X146451399Y-66582667D01*
X146429443Y-66594403D01*
X146428716Y-66595000D01*
X142427000Y-66595000D01*
X142427000Y-63327000D01*
X149173000Y-63327000D01*
X149173000Y-66443906D01*
G37*
X149173000Y-66443906D02*
X149124482Y-66429188D01*
X149000000Y-66416928D01*
X148150000Y-66416928D01*
X148025518Y-66429188D01*
X147905820Y-66465498D01*
X147795506Y-66524463D01*
X147736363Y-66573000D01*
X146500000Y-66573000D01*
X146475224Y-66575440D01*
X146451399Y-66582667D01*
X146429443Y-66594403D01*
X146428716Y-66595000D01*
X142427000Y-66595000D01*
X142427000Y-63327000D01*
X149173000Y-63327000D01*
X149173000Y-66443906D01*
%TO.N,SPA*%
G36*
X149073000Y-73273000D02*
G01*
X142427000Y-73273000D01*
X142427000Y-70666609D01*
X142495226Y-70501898D01*
X142535000Y-70301939D01*
X142535000Y-70098061D01*
X142495226Y-69898102D01*
X142465774Y-69827000D01*
X149073000Y-69827000D01*
X149073000Y-73273000D01*
G37*
X149073000Y-73273000D02*
X142427000Y-73273000D01*
X142427000Y-70666609D01*
X142495226Y-70501898D01*
X142535000Y-70301939D01*
X142535000Y-70098061D01*
X142495226Y-69898102D01*
X142465774Y-69827000D01*
X149073000Y-69827000D01*
X149073000Y-73273000D01*
%TO.N,SPC*%
G36*
X148916177Y-47743521D02*
G01*
X148900000Y-47741928D01*
X148050000Y-47741928D01*
X147925518Y-47754188D01*
X147805820Y-47790498D01*
X147695506Y-47849463D01*
X147666826Y-47873000D01*
X142400187Y-47873000D01*
X142453839Y-44127000D01*
X148922768Y-44127000D01*
X148916177Y-47743521D01*
G37*
X148916177Y-47743521D02*
X148900000Y-47741928D01*
X148050000Y-47741928D01*
X147925518Y-47754188D01*
X147805820Y-47790498D01*
X147695506Y-47849463D01*
X147666826Y-47873000D01*
X142400187Y-47873000D01*
X142453839Y-44127000D01*
X148922768Y-44127000D01*
X148916177Y-47743521D01*
%TO.N,GND*%
G36*
X145894454Y-50307754D02*
G01*
X145850998Y-50451015D01*
X145836324Y-50600000D01*
X145840001Y-50637332D01*
X145840000Y-53485198D01*
X145052198Y-54273000D01*
X142510000Y-54273000D01*
X142510000Y-50364802D01*
X142614802Y-50260000D01*
X145919979Y-50260000D01*
X145894454Y-50307754D01*
G37*
X145894454Y-50307754D02*
X145850998Y-50451015D01*
X145836324Y-50600000D01*
X145840001Y-50637332D01*
X145840000Y-53485198D01*
X145052198Y-54273000D01*
X142510000Y-54273000D01*
X142510000Y-50364802D01*
X142614802Y-50260000D01*
X145919979Y-50260000D01*
X145894454Y-50307754D01*
G36*
X146033130Y-56735397D02*
G01*
X145994454Y-56807754D01*
X145950997Y-56951015D01*
X145940000Y-57062668D01*
X145940000Y-57062678D01*
X145936324Y-57100000D01*
X145940000Y-57137323D01*
X145940001Y-61073000D01*
X142227000Y-61073000D01*
X142227000Y-60633152D01*
X142255546Y-60579747D01*
X142299003Y-60436486D01*
X142310000Y-60324833D01*
X142310000Y-60324832D01*
X142313677Y-60287500D01*
X142310000Y-60250167D01*
X142310000Y-57737621D01*
X143214802Y-56832820D01*
X144289858Y-56832820D01*
X144327180Y-56836496D01*
X144364502Y-56832820D01*
X144364513Y-56832820D01*
X144476166Y-56821823D01*
X144619427Y-56778366D01*
X144715525Y-56727000D01*
X146037618Y-56727000D01*
X146033130Y-56735397D01*
G37*
X146033130Y-56735397D02*
X145994454Y-56807754D01*
X145950997Y-56951015D01*
X145940000Y-57062668D01*
X145940000Y-57062678D01*
X145936324Y-57100000D01*
X145940000Y-57137323D01*
X145940001Y-61073000D01*
X142227000Y-61073000D01*
X142227000Y-60633152D01*
X142255546Y-60579747D01*
X142299003Y-60436486D01*
X142310000Y-60324833D01*
X142310000Y-60324832D01*
X142313677Y-60287500D01*
X142310000Y-60250167D01*
X142310000Y-57737621D01*
X143214802Y-56832820D01*
X144289858Y-56832820D01*
X144327180Y-56836496D01*
X144364502Y-56832820D01*
X144364513Y-56832820D01*
X144476166Y-56821823D01*
X144619427Y-56778366D01*
X144715525Y-56727000D01*
X146037618Y-56727000D01*
X146033130Y-56735397D01*
%TO.N,+3V3*%
G36*
X92761928Y-60700000D02*
G01*
X92761928Y-62700000D01*
X92774188Y-62824482D01*
X92810498Y-62944180D01*
X92869463Y-63054494D01*
X92873000Y-63058804D01*
X92873000Y-63700000D01*
X92875440Y-63724776D01*
X92882667Y-63748601D01*
X92894403Y-63770557D01*
X92910197Y-63789803D01*
X92929443Y-63805597D01*
X92951399Y-63817333D01*
X92975224Y-63824560D01*
X93000000Y-63827000D01*
X95073000Y-63827000D01*
X95073000Y-68973000D01*
X88727000Y-68973000D01*
X88727000Y-63827000D01*
X90800000Y-63827000D01*
X90824776Y-63824560D01*
X90848601Y-63817333D01*
X90870557Y-63805597D01*
X90889803Y-63789803D01*
X90905597Y-63770557D01*
X90917333Y-63748601D01*
X90924560Y-63724776D01*
X90927000Y-63700000D01*
X90927000Y-62812420D01*
X90938072Y-62700000D01*
X90938072Y-60700000D01*
X90930882Y-60627000D01*
X92769118Y-60627000D01*
X92761928Y-60700000D01*
G37*
X92761928Y-60700000D02*
X92761928Y-62700000D01*
X92774188Y-62824482D01*
X92810498Y-62944180D01*
X92869463Y-63054494D01*
X92873000Y-63058804D01*
X92873000Y-63700000D01*
X92875440Y-63724776D01*
X92882667Y-63748601D01*
X92894403Y-63770557D01*
X92910197Y-63789803D01*
X92929443Y-63805597D01*
X92951399Y-63817333D01*
X92975224Y-63824560D01*
X93000000Y-63827000D01*
X95073000Y-63827000D01*
X95073000Y-68973000D01*
X88727000Y-68973000D01*
X88727000Y-63827000D01*
X90800000Y-63827000D01*
X90824776Y-63824560D01*
X90848601Y-63817333D01*
X90870557Y-63805597D01*
X90889803Y-63789803D01*
X90905597Y-63770557D01*
X90917333Y-63748601D01*
X90924560Y-63724776D01*
X90927000Y-63700000D01*
X90927000Y-62812420D01*
X90938072Y-62700000D01*
X90938072Y-60700000D01*
X90930882Y-60627000D01*
X92769118Y-60627000D01*
X92761928Y-60700000D01*
%TO.N,Net-(D1-Pad1)*%
G36*
X111280820Y-48164502D02*
G01*
X111400518Y-48200812D01*
X111525000Y-48213072D01*
X116125000Y-48213072D01*
X116173000Y-48208345D01*
X116173000Y-49241655D01*
X116125000Y-49236928D01*
X111525000Y-49236928D01*
X111400518Y-49249188D01*
X111280820Y-49285498D01*
X111170506Y-49344463D01*
X111135733Y-49373000D01*
X108500000Y-49373000D01*
X108475224Y-49375440D01*
X108451399Y-49382667D01*
X108429443Y-49394403D01*
X108410197Y-49410197D01*
X108394403Y-49429443D01*
X108382667Y-49451399D01*
X108375440Y-49475224D01*
X108373000Y-49500000D01*
X108373000Y-56400000D01*
X108375440Y-56424776D01*
X108382667Y-56448601D01*
X108394403Y-56470557D01*
X108410197Y-56489803D01*
X108429443Y-56505597D01*
X108451399Y-56517333D01*
X108475224Y-56524560D01*
X108500000Y-56527000D01*
X109644444Y-56527000D01*
X109509744Y-56582795D01*
X109340226Y-56696063D01*
X109196063Y-56840226D01*
X109082795Y-57009744D01*
X109004774Y-57198102D01*
X108965000Y-57398061D01*
X108965000Y-57601939D01*
X109004774Y-57801898D01*
X109082795Y-57990256D01*
X109196063Y-58159774D01*
X109340226Y-58303937D01*
X109509744Y-58417205D01*
X109698102Y-58495226D01*
X109898061Y-58535000D01*
X110101939Y-58535000D01*
X110301898Y-58495226D01*
X110490256Y-58417205D01*
X110659774Y-58303937D01*
X110803937Y-58159774D01*
X110917205Y-57990256D01*
X110995226Y-57801898D01*
X111035000Y-57601939D01*
X111035000Y-57398061D01*
X110995226Y-57198102D01*
X110917205Y-57009744D01*
X110803937Y-56840226D01*
X110659774Y-56696063D01*
X110490256Y-56582795D01*
X110355556Y-56527000D01*
X114173000Y-56527000D01*
X114173000Y-59673000D01*
X108347802Y-59673000D01*
X107163804Y-58489003D01*
X107140001Y-58459999D01*
X107024276Y-58365026D01*
X106892247Y-58294454D01*
X106748986Y-58250997D01*
X106637333Y-58240000D01*
X106637322Y-58240000D01*
X106600000Y-58236324D01*
X106562678Y-58240000D01*
X102327000Y-58240000D01*
X102327000Y-48127000D01*
X111210660Y-48127000D01*
X111280820Y-48164502D01*
G37*
X111280820Y-48164502D02*
X111400518Y-48200812D01*
X111525000Y-48213072D01*
X116125000Y-48213072D01*
X116173000Y-48208345D01*
X116173000Y-49241655D01*
X116125000Y-49236928D01*
X111525000Y-49236928D01*
X111400518Y-49249188D01*
X111280820Y-49285498D01*
X111170506Y-49344463D01*
X111135733Y-49373000D01*
X108500000Y-49373000D01*
X108475224Y-49375440D01*
X108451399Y-49382667D01*
X108429443Y-49394403D01*
X108410197Y-49410197D01*
X108394403Y-49429443D01*
X108382667Y-49451399D01*
X108375440Y-49475224D01*
X108373000Y-49500000D01*
X108373000Y-56400000D01*
X108375440Y-56424776D01*
X108382667Y-56448601D01*
X108394403Y-56470557D01*
X108410197Y-56489803D01*
X108429443Y-56505597D01*
X108451399Y-56517333D01*
X108475224Y-56524560D01*
X108500000Y-56527000D01*
X109644444Y-56527000D01*
X109509744Y-56582795D01*
X109340226Y-56696063D01*
X109196063Y-56840226D01*
X109082795Y-57009744D01*
X109004774Y-57198102D01*
X108965000Y-57398061D01*
X108965000Y-57601939D01*
X109004774Y-57801898D01*
X109082795Y-57990256D01*
X109196063Y-58159774D01*
X109340226Y-58303937D01*
X109509744Y-58417205D01*
X109698102Y-58495226D01*
X109898061Y-58535000D01*
X110101939Y-58535000D01*
X110301898Y-58495226D01*
X110490256Y-58417205D01*
X110659774Y-58303937D01*
X110803937Y-58159774D01*
X110917205Y-57990256D01*
X110995226Y-57801898D01*
X111035000Y-57601939D01*
X111035000Y-57398061D01*
X110995226Y-57198102D01*
X110917205Y-57009744D01*
X110803937Y-56840226D01*
X110659774Y-56696063D01*
X110490256Y-56582795D01*
X110355556Y-56527000D01*
X114173000Y-56527000D01*
X114173000Y-59673000D01*
X108347802Y-59673000D01*
X107163804Y-58489003D01*
X107140001Y-58459999D01*
X107024276Y-58365026D01*
X106892247Y-58294454D01*
X106748986Y-58250997D01*
X106637333Y-58240000D01*
X106637322Y-58240000D01*
X106600000Y-58236324D01*
X106562678Y-58240000D01*
X102327000Y-58240000D01*
X102327000Y-48127000D01*
X111210660Y-48127000D01*
X111280820Y-48164502D01*
%TO.N,+48V*%
G36*
X116473000Y-47273000D02*
G01*
X109727000Y-47273000D01*
X109727000Y-44127000D01*
X116473000Y-44127000D01*
X116473000Y-47273000D01*
G37*
X116473000Y-47273000D02*
X109727000Y-47273000D01*
X109727000Y-44127000D01*
X116473000Y-44127000D01*
X116473000Y-47273000D01*
G36*
X136673000Y-49823000D02*
G01*
X132027000Y-49823000D01*
X132027000Y-47350000D01*
X132024560Y-47325224D01*
X132017333Y-47301399D01*
X132005597Y-47279443D01*
X131989803Y-47260197D01*
X131970557Y-47244403D01*
X131948601Y-47232667D01*
X131924776Y-47225440D01*
X131900000Y-47223000D01*
X130827000Y-47223000D01*
X130827000Y-44127000D01*
X136673000Y-44127000D01*
X136673000Y-49823000D01*
G37*
X136673000Y-49823000D02*
X132027000Y-49823000D01*
X132027000Y-47350000D01*
X132024560Y-47325224D01*
X132017333Y-47301399D01*
X132005597Y-47279443D01*
X131989803Y-47260197D01*
X131970557Y-47244403D01*
X131948601Y-47232667D01*
X131924776Y-47225440D01*
X131900000Y-47223000D01*
X130827000Y-47223000D01*
X130827000Y-44127000D01*
X136673000Y-44127000D01*
X136673000Y-49823000D01*
%TO.N,+12V*%
G36*
X110573000Y-51525000D02*
G01*
X110575440Y-51549776D01*
X110582667Y-51573601D01*
X110594403Y-51595557D01*
X110610197Y-51614803D01*
X110629443Y-51630597D01*
X110651399Y-51642333D01*
X110675224Y-51649560D01*
X110701134Y-51651995D01*
X115060505Y-51613072D01*
X116125000Y-51613072D01*
X116173000Y-51608345D01*
X116173000Y-52641655D01*
X116125000Y-52636928D01*
X111525000Y-52636928D01*
X111400518Y-52649188D01*
X111322020Y-52673000D01*
X110700000Y-52673000D01*
X110675224Y-52675440D01*
X110651399Y-52682667D01*
X110629443Y-52694403D01*
X110610197Y-52710197D01*
X110594403Y-52729443D01*
X110582667Y-52751399D01*
X110575440Y-52775224D01*
X110573000Y-52800000D01*
X110573000Y-55373000D01*
X109227000Y-55373000D01*
X109227000Y-50227000D01*
X110573000Y-50227000D01*
X110573000Y-51525000D01*
G37*
X110573000Y-51525000D02*
X110575440Y-51549776D01*
X110582667Y-51573601D01*
X110594403Y-51595557D01*
X110610197Y-51614803D01*
X110629443Y-51630597D01*
X110651399Y-51642333D01*
X110675224Y-51649560D01*
X110701134Y-51651995D01*
X115060505Y-51613072D01*
X116125000Y-51613072D01*
X116173000Y-51608345D01*
X116173000Y-52641655D01*
X116125000Y-52636928D01*
X111525000Y-52636928D01*
X111400518Y-52649188D01*
X111322020Y-52673000D01*
X110700000Y-52673000D01*
X110675224Y-52675440D01*
X110651399Y-52682667D01*
X110629443Y-52694403D01*
X110610197Y-52710197D01*
X110594403Y-52729443D01*
X110582667Y-52751399D01*
X110575440Y-52775224D01*
X110573000Y-52800000D01*
X110573000Y-55373000D01*
X109227000Y-55373000D01*
X109227000Y-50227000D01*
X110573000Y-50227000D01*
X110573000Y-51525000D01*
%TO.N,GND*%
G36*
X119373000Y-59873000D02*
G01*
X115527000Y-59873000D01*
X115527000Y-55600000D01*
X115524560Y-55575224D01*
X115517333Y-55551399D01*
X115505597Y-55529443D01*
X115489803Y-55510197D01*
X115470557Y-55494403D01*
X115448601Y-55482667D01*
X115424776Y-55475440D01*
X115400000Y-55473000D01*
X111627000Y-55473000D01*
X111627000Y-53627000D01*
X119373000Y-53627000D01*
X119373000Y-59873000D01*
G37*
X119373000Y-59873000D02*
X115527000Y-59873000D01*
X115527000Y-55600000D01*
X115524560Y-55575224D01*
X115517333Y-55551399D01*
X115505597Y-55529443D01*
X115489803Y-55510197D01*
X115470557Y-55494403D01*
X115448601Y-55482667D01*
X115424776Y-55475440D01*
X115400000Y-55473000D01*
X111627000Y-55473000D01*
X111627000Y-53627000D01*
X119373000Y-53627000D01*
X119373000Y-59873000D01*
%TO.N,+12V*%
G36*
X97373000Y-53873000D02*
G01*
X92527000Y-53873000D01*
X92527000Y-51400000D01*
X92524560Y-51375224D01*
X92517333Y-51351399D01*
X92505597Y-51329443D01*
X92489803Y-51310197D01*
X92470557Y-51294403D01*
X92448601Y-51282667D01*
X92424776Y-51275440D01*
X92400000Y-51273000D01*
X82427000Y-51273000D01*
X82427000Y-45227000D01*
X97373000Y-45227000D01*
X97373000Y-53873000D01*
G37*
X97373000Y-53873000D02*
X92527000Y-53873000D01*
X92527000Y-51400000D01*
X92524560Y-51375224D01*
X92517333Y-51351399D01*
X92505597Y-51329443D01*
X92489803Y-51310197D01*
X92470557Y-51294403D01*
X92448601Y-51282667D01*
X92424776Y-51275440D01*
X92400000Y-51273000D01*
X82427000Y-51273000D01*
X82427000Y-45227000D01*
X97373000Y-45227000D01*
X97373000Y-53873000D01*
%TO.N,GND*%
G36*
X136773000Y-56473000D02*
G01*
X132627000Y-56473000D01*
X132627000Y-55600000D01*
X132624560Y-55575224D01*
X132617333Y-55551399D01*
X132605597Y-55529443D01*
X132589803Y-55510197D01*
X132570557Y-55494403D01*
X132548601Y-55482667D01*
X132524776Y-55475440D01*
X132500000Y-55473000D01*
X126727000Y-55473000D01*
X126727000Y-51527000D01*
X136773000Y-51527000D01*
X136773000Y-56473000D01*
G37*
X136773000Y-56473000D02*
X132627000Y-56473000D01*
X132627000Y-55600000D01*
X132624560Y-55575224D01*
X132617333Y-55551399D01*
X132605597Y-55529443D01*
X132589803Y-55510197D01*
X132570557Y-55494403D01*
X132548601Y-55482667D01*
X132524776Y-55475440D01*
X132500000Y-55473000D01*
X126727000Y-55473000D01*
X126727000Y-51527000D01*
X136773000Y-51527000D01*
X136773000Y-56473000D01*
G36*
X146273000Y-84590000D02*
G01*
X144717581Y-84590000D01*
X144620617Y-84599550D01*
X144496207Y-84637290D01*
X144381550Y-84698575D01*
X144281052Y-84781052D01*
X144198575Y-84881550D01*
X144137290Y-84996207D01*
X144099550Y-85120617D01*
X144086807Y-85250000D01*
X144086821Y-85250143D01*
X144023286Y-85898126D01*
X143835057Y-86521570D01*
X143529323Y-87096573D01*
X143117721Y-87601248D01*
X142615933Y-88016362D01*
X142043077Y-88326104D01*
X141420961Y-88518682D01*
X140761656Y-88587978D01*
X140101874Y-88523286D01*
X139478430Y-88335057D01*
X138903427Y-88029323D01*
X138398752Y-87617721D01*
X137983638Y-87115933D01*
X137673896Y-86543077D01*
X137481318Y-85920961D01*
X137410000Y-85242417D01*
X137410000Y-83217581D01*
X137407251Y-83189671D01*
X137407272Y-83186693D01*
X137406373Y-83177522D01*
X137401311Y-83129360D01*
X137400450Y-83120617D01*
X137400362Y-83120325D01*
X137396173Y-83080473D01*
X137384140Y-83021854D01*
X137372936Y-82963116D01*
X137370272Y-82954294D01*
X137341416Y-82861075D01*
X137318238Y-82805937D01*
X137295825Y-82750463D01*
X137291498Y-82742327D01*
X137245085Y-82656489D01*
X137211645Y-82606913D01*
X137178881Y-82556844D01*
X137173057Y-82549703D01*
X137110855Y-82474514D01*
X137068406Y-82432361D01*
X137026561Y-82389629D01*
X137019460Y-82383755D01*
X136943839Y-82322079D01*
X136894034Y-82288988D01*
X136844650Y-82255174D01*
X136836544Y-82250792D01*
X136750383Y-82204980D01*
X136727000Y-82195343D01*
X136727000Y-76727000D01*
X146273000Y-76727000D01*
X146273000Y-84590000D01*
G37*
X146273000Y-84590000D02*
X144717581Y-84590000D01*
X144620617Y-84599550D01*
X144496207Y-84637290D01*
X144381550Y-84698575D01*
X144281052Y-84781052D01*
X144198575Y-84881550D01*
X144137290Y-84996207D01*
X144099550Y-85120617D01*
X144086807Y-85250000D01*
X144086821Y-85250143D01*
X144023286Y-85898126D01*
X143835057Y-86521570D01*
X143529323Y-87096573D01*
X143117721Y-87601248D01*
X142615933Y-88016362D01*
X142043077Y-88326104D01*
X141420961Y-88518682D01*
X140761656Y-88587978D01*
X140101874Y-88523286D01*
X139478430Y-88335057D01*
X138903427Y-88029323D01*
X138398752Y-87617721D01*
X137983638Y-87115933D01*
X137673896Y-86543077D01*
X137481318Y-85920961D01*
X137410000Y-85242417D01*
X137410000Y-83217581D01*
X137407251Y-83189671D01*
X137407272Y-83186693D01*
X137406373Y-83177522D01*
X137401311Y-83129360D01*
X137400450Y-83120617D01*
X137400362Y-83120325D01*
X137396173Y-83080473D01*
X137384140Y-83021854D01*
X137372936Y-82963116D01*
X137370272Y-82954294D01*
X137341416Y-82861075D01*
X137318238Y-82805937D01*
X137295825Y-82750463D01*
X137291498Y-82742327D01*
X137245085Y-82656489D01*
X137211645Y-82606913D01*
X137178881Y-82556844D01*
X137173057Y-82549703D01*
X137110855Y-82474514D01*
X137068406Y-82432361D01*
X137026561Y-82389629D01*
X137019460Y-82383755D01*
X136943839Y-82322079D01*
X136894034Y-82288988D01*
X136844650Y-82255174D01*
X136836544Y-82250792D01*
X136750383Y-82204980D01*
X136727000Y-82195343D01*
X136727000Y-76727000D01*
X146273000Y-76727000D01*
X146273000Y-84590000D01*
%TO.N,SHB*%
G36*
X158340000Y-58782418D02*
G01*
X158349550Y-58879382D01*
X158387290Y-59003792D01*
X158448575Y-59118449D01*
X158531052Y-59218948D01*
X158631550Y-59301425D01*
X158746207Y-59362710D01*
X158870617Y-59400450D01*
X158935552Y-59406845D01*
X158935595Y-59406850D01*
X158936237Y-59406913D01*
X159000000Y-59413193D01*
X159000143Y-59413179D01*
X159599568Y-59471953D01*
X160176303Y-59646079D01*
X160708227Y-59928909D01*
X161175088Y-60309672D01*
X161559103Y-60773866D01*
X161845639Y-61303803D01*
X162023788Y-61879309D01*
X162086760Y-62478446D01*
X162032158Y-63078417D01*
X161862064Y-63656347D01*
X161582954Y-64190237D01*
X161205458Y-64659747D01*
X160743958Y-65046991D01*
X160216036Y-65337218D01*
X159641789Y-65519380D01*
X159021651Y-65588939D01*
X159000000Y-65586807D01*
X158870618Y-65599550D01*
X158746208Y-65637290D01*
X158631551Y-65698575D01*
X158531053Y-65781052D01*
X158448576Y-65881550D01*
X158387291Y-65996207D01*
X158349551Y-66120617D01*
X158340001Y-66217581D01*
X158340001Y-66249996D01*
X158340000Y-66250006D01*
X158340001Y-66250016D01*
X158340001Y-68673000D01*
X152527000Y-68673000D01*
X152527000Y-62727000D01*
X153200000Y-62727000D01*
X153224776Y-62724560D01*
X153248601Y-62717333D01*
X153270557Y-62705597D01*
X153289803Y-62689803D01*
X153305597Y-62670557D01*
X153317333Y-62648601D01*
X153324560Y-62624776D01*
X153327000Y-62600000D01*
X153327000Y-61742420D01*
X153338072Y-61630000D01*
X153338072Y-58527000D01*
X158340000Y-58527000D01*
X158340000Y-58782418D01*
G37*
X158340000Y-58782418D02*
X158349550Y-58879382D01*
X158387290Y-59003792D01*
X158448575Y-59118449D01*
X158531052Y-59218948D01*
X158631550Y-59301425D01*
X158746207Y-59362710D01*
X158870617Y-59400450D01*
X158935552Y-59406845D01*
X158935595Y-59406850D01*
X158936237Y-59406913D01*
X159000000Y-59413193D01*
X159000143Y-59413179D01*
X159599568Y-59471953D01*
X160176303Y-59646079D01*
X160708227Y-59928909D01*
X161175088Y-60309672D01*
X161559103Y-60773866D01*
X161845639Y-61303803D01*
X162023788Y-61879309D01*
X162086760Y-62478446D01*
X162032158Y-63078417D01*
X161862064Y-63656347D01*
X161582954Y-64190237D01*
X161205458Y-64659747D01*
X160743958Y-65046991D01*
X160216036Y-65337218D01*
X159641789Y-65519380D01*
X159021651Y-65588939D01*
X159000000Y-65586807D01*
X158870618Y-65599550D01*
X158746208Y-65637290D01*
X158631551Y-65698575D01*
X158531053Y-65781052D01*
X158448576Y-65881550D01*
X158387291Y-65996207D01*
X158349551Y-66120617D01*
X158340001Y-66217581D01*
X158340001Y-66249996D01*
X158340000Y-66250006D01*
X158340001Y-66250016D01*
X158340001Y-68673000D01*
X152527000Y-68673000D01*
X152527000Y-62727000D01*
X153200000Y-62727000D01*
X153224776Y-62724560D01*
X153248601Y-62717333D01*
X153270557Y-62705597D01*
X153289803Y-62689803D01*
X153305597Y-62670557D01*
X153317333Y-62648601D01*
X153324560Y-62624776D01*
X153327000Y-62600000D01*
X153327000Y-61742420D01*
X153338072Y-61630000D01*
X153338072Y-58527000D01*
X158340000Y-58527000D01*
X158340000Y-58782418D01*
%TD*%
M02*
