%TF.GenerationSoftware,KiCad,Pcbnew,(5.1.6)-1*%
%TF.CreationDate,2021-03-31T23:30:28+02:00*%
%TF.ProjectId,DRIVER_8323_based,44524956-4552-45f3-9833-32335f626173,rev?*%
%TF.SameCoordinates,Original*%
%TF.FileFunction,Paste,Bot*%
%TF.FilePolarity,Positive*%
%FSLAX46Y46*%
G04 Gerber Fmt 4.6, Leading zero omitted, Abs format (unit mm)*
G04 Created by KiCad (PCBNEW (5.1.6)-1) date 2021-03-31 23:30:28*
%MOMM*%
%LPD*%
G01*
G04 APERTURE LIST*
G04 APERTURE END LIST*
%TO.C,C26*%
G36*
G01*
X146175000Y-51225000D02*
X146175000Y-52475000D01*
G75*
G02*
X145925000Y-52725000I-250000J0D01*
G01*
X145175000Y-52725000D01*
G75*
G02*
X144925000Y-52475000I0J250000D01*
G01*
X144925000Y-51225000D01*
G75*
G02*
X145175000Y-50975000I250000J0D01*
G01*
X145925000Y-50975000D01*
G75*
G02*
X146175000Y-51225000I0J-250000D01*
G01*
G37*
G36*
G01*
X148975000Y-51225000D02*
X148975000Y-52475000D01*
G75*
G02*
X148725000Y-52725000I-250000J0D01*
G01*
X147975000Y-52725000D01*
G75*
G02*
X147725000Y-52475000I0J250000D01*
G01*
X147725000Y-51225000D01*
G75*
G02*
X147975000Y-50975000I250000J0D01*
G01*
X148725000Y-50975000D01*
G75*
G02*
X148975000Y-51225000I0J-250000D01*
G01*
G37*
%TD*%
%TO.C,C25*%
G36*
G01*
X146125000Y-80475000D02*
X146125000Y-81725000D01*
G75*
G02*
X145875000Y-81975000I-250000J0D01*
G01*
X145125000Y-81975000D01*
G75*
G02*
X144875000Y-81725000I0J250000D01*
G01*
X144875000Y-80475000D01*
G75*
G02*
X145125000Y-80225000I250000J0D01*
G01*
X145875000Y-80225000D01*
G75*
G02*
X146125000Y-80475000I0J-250000D01*
G01*
G37*
G36*
G01*
X148925000Y-80475000D02*
X148925000Y-81725000D01*
G75*
G02*
X148675000Y-81975000I-250000J0D01*
G01*
X147925000Y-81975000D01*
G75*
G02*
X147675000Y-81725000I0J250000D01*
G01*
X147675000Y-80475000D01*
G75*
G02*
X147925000Y-80225000I250000J0D01*
G01*
X148675000Y-80225000D01*
G75*
G02*
X148925000Y-80475000I0J-250000D01*
G01*
G37*
%TD*%
%TO.C,C24*%
G36*
G01*
X146325000Y-57525000D02*
X146325000Y-58775000D01*
G75*
G02*
X146075000Y-59025000I-250000J0D01*
G01*
X145325000Y-59025000D01*
G75*
G02*
X145075000Y-58775000I0J250000D01*
G01*
X145075000Y-57525000D01*
G75*
G02*
X145325000Y-57275000I250000J0D01*
G01*
X146075000Y-57275000D01*
G75*
G02*
X146325000Y-57525000I0J-250000D01*
G01*
G37*
G36*
G01*
X149125000Y-57525000D02*
X149125000Y-58775000D01*
G75*
G02*
X148875000Y-59025000I-250000J0D01*
G01*
X148125000Y-59025000D01*
G75*
G02*
X147875000Y-58775000I0J250000D01*
G01*
X147875000Y-57525000D01*
G75*
G02*
X148125000Y-57275000I250000J0D01*
G01*
X148875000Y-57275000D01*
G75*
G02*
X149125000Y-57525000I0J-250000D01*
G01*
G37*
%TD*%
%TO.C,J14*%
G36*
G01*
X150600000Y-47800000D02*
X150600000Y-45800000D01*
G75*
G02*
X151600000Y-44800000I1000000J0D01*
G01*
X153600000Y-44800000D01*
G75*
G02*
X154600000Y-45800000I0J-1000000D01*
G01*
X154600000Y-47800000D01*
G75*
G02*
X153600000Y-48800000I-1000000J0D01*
G01*
X151600000Y-48800000D01*
G75*
G02*
X150600000Y-47800000I0J1000000D01*
G01*
G37*
%TD*%
%TO.C,J13*%
G36*
G01*
X150600000Y-66400000D02*
X150600000Y-64400000D01*
G75*
G02*
X151600000Y-63400000I1000000J0D01*
G01*
X153600000Y-63400000D01*
G75*
G02*
X154600000Y-64400000I0J-1000000D01*
G01*
X154600000Y-66400000D01*
G75*
G02*
X153600000Y-67400000I-1000000J0D01*
G01*
X151600000Y-67400000D01*
G75*
G02*
X150600000Y-66400000I0J1000000D01*
G01*
G37*
%TD*%
%TO.C,J12*%
G36*
G01*
X150200000Y-73000000D02*
X150200000Y-71000000D01*
G75*
G02*
X151200000Y-70000000I1000000J0D01*
G01*
X153200000Y-70000000D01*
G75*
G02*
X154200000Y-71000000I0J-1000000D01*
G01*
X154200000Y-73000000D01*
G75*
G02*
X153200000Y-74000000I-1000000J0D01*
G01*
X151200000Y-74000000D01*
G75*
G02*
X150200000Y-73000000I0J1000000D01*
G01*
G37*
%TD*%
%TO.C,J11*%
G36*
G01*
X148000000Y-54000000D02*
X148000000Y-52000000D01*
G75*
G02*
X149000000Y-51000000I1000000J0D01*
G01*
X151000000Y-51000000D01*
G75*
G02*
X152000000Y-52000000I0J-1000000D01*
G01*
X152000000Y-54000000D01*
G75*
G02*
X151000000Y-55000000I-1000000J0D01*
G01*
X149000000Y-55000000D01*
G75*
G02*
X148000000Y-54000000I0J1000000D01*
G01*
G37*
%TD*%
%TO.C,J10*%
G36*
G01*
X151100000Y-80800000D02*
X149100000Y-80800000D01*
G75*
G02*
X148100000Y-79800000I0J1000000D01*
G01*
X148100000Y-77800000D01*
G75*
G02*
X149100000Y-76800000I1000000J0D01*
G01*
X151100000Y-76800000D01*
G75*
G02*
X152100000Y-77800000I0J-1000000D01*
G01*
X152100000Y-79800000D01*
G75*
G02*
X151100000Y-80800000I-1000000J0D01*
G01*
G37*
%TD*%
%TO.C,J9*%
G36*
G01*
X148200000Y-60400000D02*
X148200000Y-58400000D01*
G75*
G02*
X149200000Y-57400000I1000000J0D01*
G01*
X151200000Y-57400000D01*
G75*
G02*
X152200000Y-58400000I0J-1000000D01*
G01*
X152200000Y-60400000D01*
G75*
G02*
X151200000Y-61400000I-1000000J0D01*
G01*
X149200000Y-61400000D01*
G75*
G02*
X148200000Y-60400000I0J1000000D01*
G01*
G37*
%TD*%
M02*
