%TF.GenerationSoftware,KiCad,Pcbnew,(5.1.6)-1*%
%TF.CreationDate,2021-03-31T23:30:28+02:00*%
%TF.ProjectId,DRIVER_8323_based,44524956-4552-45f3-9833-32335f626173,rev?*%
%TF.SameCoordinates,Original*%
%TF.FileFunction,Copper,L2,Inr*%
%TF.FilePolarity,Positive*%
%FSLAX46Y46*%
G04 Gerber Fmt 4.6, Leading zero omitted, Abs format (unit mm)*
G04 Created by KiCad (PCBNEW (5.1.6)-1) date 2021-03-31 23:30:28*
%MOMM*%
%LPD*%
G01*
G04 APERTURE LIST*
%TA.AperFunction,ViaPad*%
%ADD10O,1.700000X1.700000*%
%TD*%
%TA.AperFunction,ViaPad*%
%ADD11R,1.700000X1.700000*%
%TD*%
%TA.AperFunction,ViaPad*%
%ADD12C,3.800000*%
%TD*%
%TA.AperFunction,ViaPad*%
%ADD13C,5.400000*%
%TD*%
%TA.AperFunction,ViaPad*%
%ADD14C,0.500000*%
%TD*%
%TA.AperFunction,ViaPad*%
%ADD15C,0.800000*%
%TD*%
%TA.AperFunction,ViaPad*%
%ADD16C,1.500000*%
%TD*%
%TA.AperFunction,Conductor*%
%ADD17C,0.254000*%
%TD*%
G04 APERTURE END LIST*
D10*
%TO.N,GND*%
%TO.C,J6*%
X84000000Y-64260000D03*
D11*
%TO.N,+3V3*%
X84000000Y-66800000D03*
%TD*%
D10*
%TO.N,USART1_TX*%
%TO.C,J2*%
X84000000Y-70560000D03*
D11*
%TO.N,USART1_RX*%
X84000000Y-73100000D03*
%TD*%
D10*
%TO.N,NRST*%
%TO.C,J5*%
X83990000Y-80640000D03*
%TO.N,GND*%
X83990000Y-78100000D03*
%TO.N,Net-(J5-Pad8)*%
X86530000Y-80640000D03*
%TO.N,Net-(J5-Pad7)*%
X86530000Y-78100000D03*
%TO.N,SWO*%
X89070000Y-80640000D03*
%TO.N,GND*%
X89070000Y-78100000D03*
%TO.N,SWCLK*%
X91610000Y-80640000D03*
%TO.N,GND*%
X91610000Y-78100000D03*
%TO.N,SWDIO*%
X94150000Y-80640000D03*
D11*
%TO.N,+3V3*%
X94150000Y-78100000D03*
%TD*%
D10*
%TO.N,GND*%
%TO.C,J3*%
X98060000Y-80740000D03*
%TO.N,i2c1_SCL*%
X98060000Y-78200000D03*
%TO.N,+3V3*%
X100600000Y-80740000D03*
D11*
%TO.N,i2c1_SDA*%
X100600000Y-78200000D03*
%TD*%
D10*
%TO.N,GND*%
%TO.C,J1*%
X123410000Y-80800000D03*
%TO.N,encoder_1*%
X123410000Y-78260000D03*
%TO.N,+12V*%
X125950000Y-80800000D03*
D11*
%TO.N,encoder_2*%
X125950000Y-78260000D03*
%TD*%
D12*
%TO.N,GND*%
%TO.C,H7*%
X101100000Y-44600000D03*
%TD*%
%TO.N,+12V*%
%TO.C,H6*%
X93700000Y-44600000D03*
%TD*%
D13*
%TO.N,SHC*%
%TO.C,H5*%
X159000000Y-50250000D03*
%TD*%
%TO.N,SHB*%
%TO.C,H4*%
X159000000Y-62500000D03*
%TD*%
%TO.N,SHA*%
%TO.C,H3*%
X159000000Y-75000000D03*
%TD*%
%TO.N,GND*%
%TO.C,H2*%
X140700000Y-85200000D03*
%TD*%
%TO.N,+48V*%
%TO.C,H1*%
X150700000Y-85200000D03*
%TD*%
D14*
%TO.N,GND*%
%TO.C,U2*%
X130905000Y-65854216D03*
X130905000Y-66879216D03*
X130905000Y-67904216D03*
X129880000Y-65854216D03*
X129880000Y-66879216D03*
X129880000Y-67904216D03*
X128855000Y-65854216D03*
X128855000Y-66879216D03*
X128855000Y-67904216D03*
%TD*%
D15*
%TO.N,SHA*%
X153600000Y-72600000D03*
X153600000Y-71600000D03*
X153600000Y-70600000D03*
X153600000Y-73600000D03*
X152400000Y-70600000D03*
X152400000Y-71600000D03*
X152400000Y-72600000D03*
X152400000Y-73600000D03*
X158100000Y-70700000D03*
X156900000Y-70700000D03*
X155700000Y-70700000D03*
X155700000Y-72000000D03*
X155700000Y-73200000D03*
X156500000Y-78100000D03*
X155300000Y-78100000D03*
X155300000Y-79400000D03*
X156500000Y-79400000D03*
%TO.N,GND*%
X123800000Y-51000000D03*
X121800000Y-51100000D03*
X121800000Y-52500000D03*
X121800000Y-54100000D03*
X121800000Y-49300000D03*
X123800000Y-49300000D03*
X123800000Y-52500000D03*
X123800000Y-54100000D03*
X125800000Y-54100000D03*
X125800000Y-52500000D03*
X125800000Y-50900000D03*
X125900000Y-49300000D03*
X144400000Y-53200000D03*
X122244000Y-73652000D03*
X145500000Y-52200000D03*
X144400000Y-52200000D03*
X143300000Y-52200000D03*
X143300000Y-53200000D03*
X145500000Y-53200000D03*
X145400000Y-58600000D03*
X144300000Y-58600000D03*
X143200000Y-58600000D03*
X143200000Y-57500000D03*
X144300000Y-57500000D03*
X145400000Y-57500000D03*
X143100000Y-79150000D03*
X143100000Y-80150000D03*
X142000000Y-80150000D03*
X142000000Y-79150000D03*
X141000000Y-77450000D03*
X141000000Y-78450000D03*
X139900000Y-78450000D03*
X139900000Y-77450000D03*
X140024990Y-50900000D03*
X144200000Y-50700000D03*
X118800000Y-79200000D03*
X116400000Y-78000000D03*
X115200000Y-78000000D03*
X113200000Y-74000000D03*
X115000000Y-80200000D03*
X118600000Y-65400000D03*
X118600000Y-64200000D03*
X100950000Y-64950000D03*
X98650000Y-71950000D03*
X88550000Y-71050000D03*
X87250000Y-65350000D03*
X95000000Y-58450000D03*
D16*
X91200000Y-56600000D03*
D15*
X117700000Y-66500000D03*
X102450000Y-71850000D03*
X105550000Y-76850000D03*
X100100000Y-74180000D03*
X103020000Y-63300000D03*
X106650000Y-66070000D03*
X113030000Y-81280000D03*
X112200000Y-55000000D03*
X113700000Y-55000000D03*
X115200000Y-55000000D03*
X116700000Y-55000000D03*
X116700000Y-56500000D03*
X118200000Y-56500000D03*
X119000000Y-59300000D03*
X119000000Y-57800000D03*
X132200000Y-52500000D03*
X132200000Y-54100000D03*
X131000000Y-54100000D03*
X131000000Y-52500000D03*
X129800000Y-52500000D03*
X129800000Y-54100000D03*
X128500000Y-54100000D03*
X128500000Y-52500000D03*
X83600000Y-75700000D03*
X141500000Y-70200000D03*
X144200000Y-77500000D03*
X144200000Y-80150000D03*
X145300000Y-79150000D03*
X144200000Y-79150000D03*
X145300000Y-80150000D03*
X105600000Y-80500000D03*
X106900000Y-80550000D03*
X97400000Y-64000000D03*
X144350000Y-60350000D03*
X140600000Y-69354216D03*
X139900000Y-79500000D03*
X139900000Y-80500000D03*
X141000000Y-80500000D03*
X141000000Y-79500000D03*
X138600000Y-79400000D03*
X137500000Y-80400000D03*
X137500000Y-79400000D03*
X138600000Y-80400000D03*
%TO.N,+3V3*%
X105000000Y-78000000D03*
X94200000Y-64500000D03*
X92600000Y-64500000D03*
X91000000Y-64500000D03*
X89400000Y-64500000D03*
X94200000Y-65700000D03*
X92600000Y-65700000D03*
X91000000Y-65700000D03*
X89400000Y-65700000D03*
X89300000Y-68226000D03*
X94380000Y-68226000D03*
X119200000Y-75800000D03*
X115200000Y-64000000D03*
X100170000Y-72900000D03*
X102860000Y-65010000D03*
X94380000Y-66956000D03*
X89300000Y-66956000D03*
X120020000Y-63820000D03*
X108300000Y-79850000D03*
%TO.N,+48V*%
X129750000Y-44900000D03*
X129750000Y-46150000D03*
X150600000Y-77200000D03*
X150600000Y-77200000D03*
X150600000Y-78200000D03*
X150600000Y-79200000D03*
X150600000Y-80200000D03*
X149400000Y-80200000D03*
X148200000Y-80200000D03*
X148200000Y-79200000D03*
X148200000Y-78200000D03*
X148200000Y-77200000D03*
X149400000Y-78200000D03*
X149400000Y-79200000D03*
X148600000Y-57800000D03*
X149600000Y-57800000D03*
X150600000Y-57800000D03*
X150600000Y-58800000D03*
X149600000Y-58800000D03*
X148600000Y-58800000D03*
X148600000Y-59800000D03*
X149600000Y-59800000D03*
X150600000Y-59800000D03*
X150600000Y-51600000D03*
X149600000Y-51600000D03*
X148600000Y-51600000D03*
X148600000Y-52600000D03*
X149600000Y-52600000D03*
X150600000Y-52600000D03*
X150600000Y-53600000D03*
X149600000Y-53600000D03*
X148600000Y-53600000D03*
X148600000Y-60800000D03*
X150600000Y-60800000D03*
X150600000Y-54600000D03*
X149600000Y-54600000D03*
X148600000Y-54600000D03*
X115800000Y-44800000D03*
X114300000Y-44800000D03*
X112800000Y-44800000D03*
X111300000Y-44800000D03*
X110300000Y-46900000D03*
X110300000Y-45800000D03*
X110300000Y-44800000D03*
X132600000Y-44900000D03*
X131300000Y-44900000D03*
X131300000Y-46200000D03*
X132600000Y-46200000D03*
X132600000Y-47800000D03*
X132600000Y-49200000D03*
X134300000Y-49200000D03*
X135800000Y-49200000D03*
X149400000Y-77200000D03*
X149600000Y-60800000D03*
X128189000Y-74811000D03*
%TO.N,SHB*%
X154000000Y-64800000D03*
X154000000Y-63800000D03*
X153000000Y-63800000D03*
X153000000Y-66800000D03*
X154000000Y-66800000D03*
X154000000Y-65800000D03*
X153000000Y-65800000D03*
X141100000Y-65700000D03*
X153000000Y-64800000D03*
X142200000Y-68080000D03*
X155550000Y-59150000D03*
X156900000Y-59150000D03*
X155750000Y-65500000D03*
X155750000Y-66750000D03*
X155750000Y-68000000D03*
X158300000Y-59100000D03*
X155550000Y-60450000D03*
X155750000Y-64250000D03*
%TO.N,SPB*%
X144300000Y-66100000D03*
X144275000Y-68725000D03*
%TO.N,SHC*%
X153800000Y-46200000D03*
X152800000Y-45200000D03*
X152800000Y-46200000D03*
X153800000Y-45200000D03*
X153800000Y-48200000D03*
X152800000Y-47200000D03*
X152800000Y-48200000D03*
X153800000Y-47200000D03*
X155900000Y-45600000D03*
X157100000Y-45600000D03*
X158300000Y-45600000D03*
X155900000Y-46700000D03*
X158300000Y-46700000D03*
X157100000Y-46700000D03*
X155700000Y-53600000D03*
X156900000Y-53600000D03*
X158100000Y-53600000D03*
%TO.N,NRST*%
X105950000Y-69200000D03*
X98400000Y-74200000D03*
%TO.N,SWO*%
X109094309Y-72045068D03*
X102950000Y-75150000D03*
%TO.N,SWCLK*%
X109850000Y-72700000D03*
X100950000Y-75800000D03*
%TO.N,SWDIO*%
X110500000Y-73600000D03*
X102900000Y-76800000D03*
%TO.N,TIM1_CH3*%
X119600000Y-68000000D03*
X121800000Y-68150000D03*
%TO.N,TIM1_CH1*%
X118250000Y-69975000D03*
X118250000Y-68000000D03*
%TO.N,TIM1_CH2N*%
X121500000Y-69625000D03*
X123850000Y-67404216D03*
%TO.N,TIM1_CH1N*%
X125350000Y-66404216D03*
X122350799Y-70150493D03*
%TO.N,SOC*%
X114500000Y-61125000D03*
X109100000Y-70150000D03*
%TO.N,SOB*%
X107798055Y-70187622D03*
X112150000Y-61850000D03*
%TO.N,SOA*%
X106800000Y-70250000D03*
X110075000Y-62575000D03*
%TO.N,+12V*%
X84150000Y-57100000D03*
X109900000Y-50500000D03*
X109900000Y-51600000D03*
X109900000Y-52700000D03*
X109900000Y-53900000D03*
X109900000Y-55000000D03*
X96500000Y-47400000D03*
X94900000Y-47400000D03*
X93100000Y-47950000D03*
X90100000Y-47350000D03*
X90100000Y-49650000D03*
X83700000Y-45900000D03*
X83700000Y-47400000D03*
X83700000Y-48900000D03*
X83700000Y-50500000D03*
X93150000Y-50750000D03*
X90100000Y-50800000D03*
X93100000Y-49400000D03*
X90100000Y-48500000D03*
X85350000Y-45900000D03*
X85350000Y-47400000D03*
X85300000Y-48900000D03*
X85300000Y-50450000D03*
X110000000Y-57500000D03*
%TO.N,encoder_1*%
X119400000Y-81150000D03*
X110000000Y-80350000D03*
%TO.N,encoder_2*%
X119650000Y-80000000D03*
X109900000Y-78400000D03*
%TO.N,i2c1_SDA*%
X102400000Y-61200000D03*
%TO.N,i2c1_SCL*%
X101212653Y-61012653D03*
%TD*%
D17*
%TO.N,GND*%
G36*
X146294440Y-84590000D02*
G01*
X144717581Y-84590000D01*
X144620617Y-84599550D01*
X144496207Y-84637290D01*
X144381550Y-84698575D01*
X144281052Y-84781052D01*
X144198575Y-84881550D01*
X144137290Y-84996207D01*
X144099550Y-85120617D01*
X144086807Y-85250000D01*
X144086821Y-85250143D01*
X144023286Y-85898126D01*
X143835057Y-86521570D01*
X143529323Y-87096573D01*
X143117721Y-87601248D01*
X142615933Y-88016362D01*
X142043077Y-88326104D01*
X141420961Y-88518682D01*
X140761656Y-88587978D01*
X140101874Y-88523286D01*
X139478430Y-88335057D01*
X138903427Y-88029323D01*
X138398752Y-87617721D01*
X137983638Y-87115933D01*
X137673896Y-86543077D01*
X137481318Y-85920961D01*
X137410000Y-85242417D01*
X137410000Y-83217581D01*
X137407251Y-83189671D01*
X137407272Y-83186693D01*
X137406373Y-83177522D01*
X137401311Y-83129360D01*
X137400450Y-83120617D01*
X137400362Y-83120325D01*
X137396173Y-83080473D01*
X137384140Y-83021854D01*
X137372936Y-82963116D01*
X137370272Y-82954294D01*
X137341416Y-82861075D01*
X137318238Y-82805937D01*
X137295825Y-82750463D01*
X137291498Y-82742327D01*
X137245085Y-82656489D01*
X137211645Y-82606913D01*
X137178881Y-82556844D01*
X137173057Y-82549703D01*
X137110855Y-82474514D01*
X137068406Y-82432361D01*
X137026561Y-82389629D01*
X137019460Y-82383755D01*
X136943839Y-82322079D01*
X136894034Y-82288988D01*
X136844650Y-82255174D01*
X136836544Y-82250792D01*
X136750383Y-82204980D01*
X136695091Y-82182191D01*
X136640102Y-82158622D01*
X136631299Y-82155897D01*
X136537881Y-82127692D01*
X136479174Y-82116067D01*
X136420684Y-82103635D01*
X136411530Y-82102673D01*
X136411524Y-82102672D01*
X136411519Y-82102672D01*
X136314402Y-82093150D01*
X136282419Y-82090000D01*
X126692308Y-82090000D01*
X126896632Y-81953475D01*
X127103475Y-81746632D01*
X127265990Y-81503411D01*
X127377932Y-81233158D01*
X127435000Y-80946260D01*
X127435000Y-80653740D01*
X127377932Y-80366842D01*
X127265990Y-80096589D01*
X127103475Y-79853368D01*
X126971620Y-79721513D01*
X127044180Y-79699502D01*
X127154494Y-79640537D01*
X127251185Y-79561185D01*
X127330537Y-79464494D01*
X127389502Y-79354180D01*
X127425812Y-79234482D01*
X127438072Y-79110000D01*
X127438072Y-77410000D01*
X127425812Y-77285518D01*
X127389502Y-77165820D01*
X127330537Y-77055506D01*
X127251185Y-76958815D01*
X127154494Y-76879463D01*
X127044180Y-76820498D01*
X126924482Y-76784188D01*
X126800000Y-76771928D01*
X125100000Y-76771928D01*
X124975518Y-76784188D01*
X124855820Y-76820498D01*
X124745506Y-76879463D01*
X124648815Y-76958815D01*
X124569463Y-77055506D01*
X124510498Y-77165820D01*
X124488487Y-77238380D01*
X124356632Y-77106525D01*
X124113411Y-76944010D01*
X123843158Y-76832068D01*
X123556260Y-76775000D01*
X123263740Y-76775000D01*
X122976842Y-76832068D01*
X122706589Y-76944010D01*
X122463368Y-77106525D01*
X122256525Y-77313368D01*
X122094010Y-77556589D01*
X121982068Y-77826842D01*
X121925000Y-78113740D01*
X121925000Y-78406260D01*
X121982068Y-78693158D01*
X122094010Y-78963411D01*
X122256525Y-79206632D01*
X122463368Y-79413475D01*
X122706589Y-79575990D01*
X122976842Y-79687932D01*
X123263740Y-79745000D01*
X123556260Y-79745000D01*
X123843158Y-79687932D01*
X124113411Y-79575990D01*
X124356632Y-79413475D01*
X124488487Y-79281620D01*
X124510498Y-79354180D01*
X124569463Y-79464494D01*
X124648815Y-79561185D01*
X124745506Y-79640537D01*
X124855820Y-79699502D01*
X124928380Y-79721513D01*
X124796525Y-79853368D01*
X124634010Y-80096589D01*
X124522068Y-80366842D01*
X124465000Y-80653740D01*
X124465000Y-80946260D01*
X124522068Y-81233158D01*
X124634010Y-81503411D01*
X124796525Y-81746632D01*
X125003368Y-81953475D01*
X125207692Y-82090000D01*
X119835224Y-82090000D01*
X119890256Y-82067205D01*
X120059774Y-81953937D01*
X120203937Y-81809774D01*
X120317205Y-81640256D01*
X120395226Y-81451898D01*
X120435000Y-81251939D01*
X120435000Y-81048061D01*
X120395226Y-80848102D01*
X120357262Y-80756449D01*
X120453937Y-80659774D01*
X120567205Y-80490256D01*
X120645226Y-80301898D01*
X120685000Y-80101939D01*
X120685000Y-79898061D01*
X120645226Y-79698102D01*
X120567205Y-79509744D01*
X120453937Y-79340226D01*
X120309774Y-79196063D01*
X120140256Y-79082795D01*
X119951898Y-79004774D01*
X119751939Y-78965000D01*
X119548061Y-78965000D01*
X119348102Y-79004774D01*
X119159744Y-79082795D01*
X118990226Y-79196063D01*
X118846063Y-79340226D01*
X118732795Y-79509744D01*
X118654774Y-79698102D01*
X118615000Y-79898061D01*
X118615000Y-80101939D01*
X118654774Y-80301898D01*
X118692738Y-80393551D01*
X118596063Y-80490226D01*
X118482795Y-80659744D01*
X118404774Y-80848102D01*
X118365000Y-81048061D01*
X118365000Y-81251939D01*
X118404774Y-81451898D01*
X118482795Y-81640256D01*
X118596063Y-81809774D01*
X118740226Y-81953937D01*
X118909744Y-82067205D01*
X118964776Y-82090000D01*
X101221303Y-82090000D01*
X101303411Y-82055990D01*
X101546632Y-81893475D01*
X101753475Y-81686632D01*
X101915990Y-81443411D01*
X102027932Y-81173158D01*
X102085000Y-80886260D01*
X102085000Y-80593740D01*
X102027932Y-80306842D01*
X101915990Y-80036589D01*
X101753475Y-79793368D01*
X101708168Y-79748061D01*
X107265000Y-79748061D01*
X107265000Y-79951939D01*
X107304774Y-80151898D01*
X107382795Y-80340256D01*
X107496063Y-80509774D01*
X107640226Y-80653937D01*
X107809744Y-80767205D01*
X107998102Y-80845226D01*
X108198061Y-80885000D01*
X108401939Y-80885000D01*
X108601898Y-80845226D01*
X108790256Y-80767205D01*
X108959774Y-80653937D01*
X108997646Y-80616065D01*
X109004774Y-80651898D01*
X109082795Y-80840256D01*
X109196063Y-81009774D01*
X109340226Y-81153937D01*
X109509744Y-81267205D01*
X109698102Y-81345226D01*
X109898061Y-81385000D01*
X110101939Y-81385000D01*
X110301898Y-81345226D01*
X110490256Y-81267205D01*
X110659774Y-81153937D01*
X110803937Y-81009774D01*
X110917205Y-80840256D01*
X110995226Y-80651898D01*
X111035000Y-80451939D01*
X111035000Y-80248061D01*
X110995226Y-80048102D01*
X110917205Y-79859744D01*
X110803937Y-79690226D01*
X110659774Y-79546063D01*
X110490256Y-79432795D01*
X110301898Y-79354774D01*
X110300317Y-79354459D01*
X110390256Y-79317205D01*
X110559774Y-79203937D01*
X110703937Y-79059774D01*
X110817205Y-78890256D01*
X110895226Y-78701898D01*
X110935000Y-78501939D01*
X110935000Y-78298061D01*
X110895226Y-78098102D01*
X110817205Y-77909744D01*
X110703937Y-77740226D01*
X110559774Y-77596063D01*
X110390256Y-77482795D01*
X110201898Y-77404774D01*
X110001939Y-77365000D01*
X109798061Y-77365000D01*
X109598102Y-77404774D01*
X109409744Y-77482795D01*
X109240226Y-77596063D01*
X109096063Y-77740226D01*
X108982795Y-77909744D01*
X108904774Y-78098102D01*
X108865000Y-78298061D01*
X108865000Y-78501939D01*
X108904774Y-78701898D01*
X108982795Y-78890256D01*
X109096063Y-79059774D01*
X109240226Y-79203937D01*
X109409744Y-79317205D01*
X109598102Y-79395226D01*
X109599683Y-79395541D01*
X109509744Y-79432795D01*
X109340226Y-79546063D01*
X109302354Y-79583935D01*
X109295226Y-79548102D01*
X109217205Y-79359744D01*
X109103937Y-79190226D01*
X108959774Y-79046063D01*
X108790256Y-78932795D01*
X108601898Y-78854774D01*
X108401939Y-78815000D01*
X108198061Y-78815000D01*
X107998102Y-78854774D01*
X107809744Y-78932795D01*
X107640226Y-79046063D01*
X107496063Y-79190226D01*
X107382795Y-79359744D01*
X107304774Y-79548102D01*
X107265000Y-79748061D01*
X101708168Y-79748061D01*
X101621620Y-79661513D01*
X101694180Y-79639502D01*
X101804494Y-79580537D01*
X101901185Y-79501185D01*
X101980537Y-79404494D01*
X102039502Y-79294180D01*
X102075812Y-79174482D01*
X102088072Y-79050000D01*
X102088072Y-77898061D01*
X103965000Y-77898061D01*
X103965000Y-78101939D01*
X104004774Y-78301898D01*
X104082795Y-78490256D01*
X104196063Y-78659774D01*
X104340226Y-78803937D01*
X104509744Y-78917205D01*
X104698102Y-78995226D01*
X104898061Y-79035000D01*
X105101939Y-79035000D01*
X105301898Y-78995226D01*
X105490256Y-78917205D01*
X105659774Y-78803937D01*
X105803937Y-78659774D01*
X105917205Y-78490256D01*
X105995226Y-78301898D01*
X106035000Y-78101939D01*
X106035000Y-77898061D01*
X105995226Y-77698102D01*
X105917205Y-77509744D01*
X105803937Y-77340226D01*
X105659774Y-77196063D01*
X105490256Y-77082795D01*
X105301898Y-77004774D01*
X105101939Y-76965000D01*
X104898061Y-76965000D01*
X104698102Y-77004774D01*
X104509744Y-77082795D01*
X104340226Y-77196063D01*
X104196063Y-77340226D01*
X104082795Y-77509744D01*
X104004774Y-77698102D01*
X103965000Y-77898061D01*
X102088072Y-77898061D01*
X102088072Y-77447815D01*
X102096063Y-77459774D01*
X102240226Y-77603937D01*
X102409744Y-77717205D01*
X102598102Y-77795226D01*
X102798061Y-77835000D01*
X103001939Y-77835000D01*
X103201898Y-77795226D01*
X103390256Y-77717205D01*
X103559774Y-77603937D01*
X103703937Y-77459774D01*
X103817205Y-77290256D01*
X103895226Y-77101898D01*
X103935000Y-76901939D01*
X103935000Y-76698061D01*
X103895226Y-76498102D01*
X103817205Y-76309744D01*
X103703937Y-76140226D01*
X103559774Y-75996063D01*
X103553251Y-75991704D01*
X103609774Y-75953937D01*
X103753937Y-75809774D01*
X103828581Y-75698061D01*
X118165000Y-75698061D01*
X118165000Y-75901939D01*
X118204774Y-76101898D01*
X118282795Y-76290256D01*
X118396063Y-76459774D01*
X118540226Y-76603937D01*
X118709744Y-76717205D01*
X118898102Y-76795226D01*
X119098061Y-76835000D01*
X119301939Y-76835000D01*
X119501898Y-76795226D01*
X119690256Y-76717205D01*
X119859774Y-76603937D01*
X120003937Y-76459774D01*
X120117205Y-76290256D01*
X120195226Y-76101898D01*
X120235000Y-75901939D01*
X120235000Y-75698061D01*
X120195226Y-75498102D01*
X120117205Y-75309744D01*
X120003937Y-75140226D01*
X119859774Y-74996063D01*
X119690256Y-74882795D01*
X119501898Y-74804774D01*
X119301939Y-74765000D01*
X119098061Y-74765000D01*
X118898102Y-74804774D01*
X118709744Y-74882795D01*
X118540226Y-74996063D01*
X118396063Y-75140226D01*
X118282795Y-75309744D01*
X118204774Y-75498102D01*
X118165000Y-75698061D01*
X103828581Y-75698061D01*
X103867205Y-75640256D01*
X103945226Y-75451898D01*
X103985000Y-75251939D01*
X103985000Y-75048061D01*
X103945226Y-74848102D01*
X103887633Y-74709061D01*
X127154000Y-74709061D01*
X127154000Y-74912939D01*
X127193774Y-75112898D01*
X127271795Y-75301256D01*
X127385063Y-75470774D01*
X127529226Y-75614937D01*
X127698744Y-75728205D01*
X127887102Y-75806226D01*
X128087061Y-75846000D01*
X128290939Y-75846000D01*
X128490898Y-75806226D01*
X128679256Y-75728205D01*
X128848774Y-75614937D01*
X128992937Y-75470774D01*
X129106205Y-75301256D01*
X129184226Y-75112898D01*
X129224000Y-74912939D01*
X129224000Y-74709061D01*
X129184226Y-74509102D01*
X129106205Y-74320744D01*
X128992937Y-74151226D01*
X128848774Y-74007063D01*
X128679256Y-73893795D01*
X128490898Y-73815774D01*
X128290939Y-73776000D01*
X128087061Y-73776000D01*
X127887102Y-73815774D01*
X127698744Y-73893795D01*
X127529226Y-74007063D01*
X127385063Y-74151226D01*
X127271795Y-74320744D01*
X127193774Y-74509102D01*
X127154000Y-74709061D01*
X103887633Y-74709061D01*
X103867205Y-74659744D01*
X103753937Y-74490226D01*
X103609774Y-74346063D01*
X103440256Y-74232795D01*
X103251898Y-74154774D01*
X103051939Y-74115000D01*
X102848061Y-74115000D01*
X102648102Y-74154774D01*
X102459744Y-74232795D01*
X102290226Y-74346063D01*
X102146063Y-74490226D01*
X102032795Y-74659744D01*
X101954774Y-74848102D01*
X101915000Y-75048061D01*
X101915000Y-75251939D01*
X101954774Y-75451898D01*
X102032795Y-75640256D01*
X102146063Y-75809774D01*
X102290226Y-75953937D01*
X102296749Y-75958296D01*
X102240226Y-75996063D01*
X102096063Y-76140226D01*
X101982795Y-76309744D01*
X101904774Y-76498102D01*
X101865000Y-76698061D01*
X101865000Y-76869119D01*
X101804494Y-76819463D01*
X101694180Y-76760498D01*
X101574482Y-76724188D01*
X101450000Y-76711928D01*
X101448154Y-76711928D01*
X101609774Y-76603937D01*
X101753937Y-76459774D01*
X101867205Y-76290256D01*
X101945226Y-76101898D01*
X101985000Y-75901939D01*
X101985000Y-75698061D01*
X101945226Y-75498102D01*
X101867205Y-75309744D01*
X101753937Y-75140226D01*
X101609774Y-74996063D01*
X101440256Y-74882795D01*
X101251898Y-74804774D01*
X101051939Y-74765000D01*
X100848061Y-74765000D01*
X100648102Y-74804774D01*
X100459744Y-74882795D01*
X100290226Y-74996063D01*
X100146063Y-75140226D01*
X100032795Y-75309744D01*
X99954774Y-75498102D01*
X99915000Y-75698061D01*
X99915000Y-75901939D01*
X99954774Y-76101898D01*
X100032795Y-76290256D01*
X100146063Y-76459774D01*
X100290226Y-76603937D01*
X100451846Y-76711928D01*
X99750000Y-76711928D01*
X99625518Y-76724188D01*
X99505820Y-76760498D01*
X99395506Y-76819463D01*
X99298815Y-76898815D01*
X99219463Y-76995506D01*
X99160498Y-77105820D01*
X99138487Y-77178380D01*
X99006632Y-77046525D01*
X98763411Y-76884010D01*
X98493158Y-76772068D01*
X98206260Y-76715000D01*
X97913740Y-76715000D01*
X97626842Y-76772068D01*
X97356589Y-76884010D01*
X97113368Y-77046525D01*
X96906525Y-77253368D01*
X96744010Y-77496589D01*
X96632068Y-77766842D01*
X96575000Y-78053740D01*
X96575000Y-78346260D01*
X96632068Y-78633158D01*
X96744010Y-78903411D01*
X96906525Y-79146632D01*
X97113368Y-79353475D01*
X97356589Y-79515990D01*
X97626842Y-79627932D01*
X97913740Y-79685000D01*
X98206260Y-79685000D01*
X98493158Y-79627932D01*
X98763411Y-79515990D01*
X99006632Y-79353475D01*
X99138487Y-79221620D01*
X99160498Y-79294180D01*
X99219463Y-79404494D01*
X99298815Y-79501185D01*
X99395506Y-79580537D01*
X99505820Y-79639502D01*
X99578380Y-79661513D01*
X99446525Y-79793368D01*
X99284010Y-80036589D01*
X99172068Y-80306842D01*
X99115000Y-80593740D01*
X99115000Y-80886260D01*
X99172068Y-81173158D01*
X99284010Y-81443411D01*
X99446525Y-81686632D01*
X99653368Y-81893475D01*
X99896589Y-82055990D01*
X99978697Y-82090000D01*
X94472216Y-82090000D01*
X94583158Y-82067932D01*
X94853411Y-81955990D01*
X95096632Y-81793475D01*
X95303475Y-81586632D01*
X95465990Y-81343411D01*
X95577932Y-81073158D01*
X95635000Y-80786260D01*
X95635000Y-80493740D01*
X95577932Y-80206842D01*
X95465990Y-79936589D01*
X95303475Y-79693368D01*
X95171620Y-79561513D01*
X95244180Y-79539502D01*
X95354494Y-79480537D01*
X95451185Y-79401185D01*
X95530537Y-79304494D01*
X95589502Y-79194180D01*
X95625812Y-79074482D01*
X95638072Y-78950000D01*
X95638072Y-77250000D01*
X95625812Y-77125518D01*
X95589502Y-77005820D01*
X95530537Y-76895506D01*
X95451185Y-76798815D01*
X95354494Y-76719463D01*
X95244180Y-76660498D01*
X95124482Y-76624188D01*
X95000000Y-76611928D01*
X93300000Y-76611928D01*
X93175518Y-76624188D01*
X93055820Y-76660498D01*
X92945506Y-76719463D01*
X92848815Y-76798815D01*
X92769463Y-76895506D01*
X92710498Y-77005820D01*
X92674188Y-77125518D01*
X92661928Y-77250000D01*
X92661928Y-78950000D01*
X92674188Y-79074482D01*
X92710498Y-79194180D01*
X92769463Y-79304494D01*
X92848815Y-79401185D01*
X92945506Y-79480537D01*
X93055820Y-79539502D01*
X93128380Y-79561513D01*
X92996525Y-79693368D01*
X92880000Y-79867760D01*
X92763475Y-79693368D01*
X92556632Y-79486525D01*
X92313411Y-79324010D01*
X92043158Y-79212068D01*
X91756260Y-79155000D01*
X91463740Y-79155000D01*
X91176842Y-79212068D01*
X90906589Y-79324010D01*
X90663368Y-79486525D01*
X90456525Y-79693368D01*
X90340000Y-79867760D01*
X90223475Y-79693368D01*
X90016632Y-79486525D01*
X89773411Y-79324010D01*
X89503158Y-79212068D01*
X89216260Y-79155000D01*
X88923740Y-79155000D01*
X88636842Y-79212068D01*
X88366589Y-79324010D01*
X88123368Y-79486525D01*
X87916525Y-79693368D01*
X87800000Y-79867760D01*
X87683475Y-79693368D01*
X87476632Y-79486525D01*
X87302240Y-79370000D01*
X87476632Y-79253475D01*
X87683475Y-79046632D01*
X87845990Y-78803411D01*
X87957932Y-78533158D01*
X88015000Y-78246260D01*
X88015000Y-77953740D01*
X87957932Y-77666842D01*
X87845990Y-77396589D01*
X87683475Y-77153368D01*
X87476632Y-76946525D01*
X87233411Y-76784010D01*
X86963158Y-76672068D01*
X86676260Y-76615000D01*
X86383740Y-76615000D01*
X86096842Y-76672068D01*
X85826589Y-76784010D01*
X85583368Y-76946525D01*
X85376525Y-77153368D01*
X85214010Y-77396589D01*
X85102068Y-77666842D01*
X85045000Y-77953740D01*
X85045000Y-78246260D01*
X85102068Y-78533158D01*
X85214010Y-78803411D01*
X85376525Y-79046632D01*
X85583368Y-79253475D01*
X85757760Y-79370000D01*
X85583368Y-79486525D01*
X85376525Y-79693368D01*
X85260000Y-79867760D01*
X85143475Y-79693368D01*
X84936632Y-79486525D01*
X84693411Y-79324010D01*
X84423158Y-79212068D01*
X84136260Y-79155000D01*
X83843740Y-79155000D01*
X83556842Y-79212068D01*
X83286589Y-79324010D01*
X83043368Y-79486525D01*
X82836525Y-79693368D01*
X82674010Y-79936589D01*
X82562068Y-80206842D01*
X82505000Y-80493740D01*
X82505000Y-80786260D01*
X82562068Y-81073158D01*
X82674010Y-81343411D01*
X82836525Y-81586632D01*
X83043368Y-81793475D01*
X83286589Y-81955990D01*
X83556842Y-82067932D01*
X83667784Y-82090000D01*
X82322891Y-82090000D01*
X82349610Y-72250000D01*
X82511928Y-72250000D01*
X82511928Y-73950000D01*
X82524188Y-74074482D01*
X82560498Y-74194180D01*
X82619463Y-74304494D01*
X82698815Y-74401185D01*
X82795506Y-74480537D01*
X82905820Y-74539502D01*
X83025518Y-74575812D01*
X83150000Y-74588072D01*
X84850000Y-74588072D01*
X84974482Y-74575812D01*
X85094180Y-74539502D01*
X85204494Y-74480537D01*
X85301185Y-74401185D01*
X85380537Y-74304494D01*
X85439502Y-74194180D01*
X85468659Y-74098061D01*
X97365000Y-74098061D01*
X97365000Y-74301939D01*
X97404774Y-74501898D01*
X97482795Y-74690256D01*
X97596063Y-74859774D01*
X97740226Y-75003937D01*
X97909744Y-75117205D01*
X98098102Y-75195226D01*
X98298061Y-75235000D01*
X98501939Y-75235000D01*
X98701898Y-75195226D01*
X98890256Y-75117205D01*
X99059774Y-75003937D01*
X99203937Y-74859774D01*
X99317205Y-74690256D01*
X99395226Y-74501898D01*
X99435000Y-74301939D01*
X99435000Y-74098061D01*
X99395226Y-73898102D01*
X99317205Y-73709744D01*
X99203937Y-73540226D01*
X99059774Y-73396063D01*
X98890256Y-73282795D01*
X98701898Y-73204774D01*
X98501939Y-73165000D01*
X98298061Y-73165000D01*
X98098102Y-73204774D01*
X97909744Y-73282795D01*
X97740226Y-73396063D01*
X97596063Y-73540226D01*
X97482795Y-73709744D01*
X97404774Y-73898102D01*
X97365000Y-74098061D01*
X85468659Y-74098061D01*
X85475812Y-74074482D01*
X85488072Y-73950000D01*
X85488072Y-72798061D01*
X99135000Y-72798061D01*
X99135000Y-73001939D01*
X99174774Y-73201898D01*
X99252795Y-73390256D01*
X99366063Y-73559774D01*
X99510226Y-73703937D01*
X99679744Y-73817205D01*
X99868102Y-73895226D01*
X100068061Y-73935000D01*
X100271939Y-73935000D01*
X100471898Y-73895226D01*
X100660256Y-73817205D01*
X100829774Y-73703937D01*
X100973937Y-73559774D01*
X101087205Y-73390256D01*
X101165226Y-73201898D01*
X101205000Y-73001939D01*
X101205000Y-72798061D01*
X101165226Y-72598102D01*
X101087205Y-72409744D01*
X100973937Y-72240226D01*
X100829774Y-72096063D01*
X100660256Y-71982795D01*
X100471898Y-71904774D01*
X100271939Y-71865000D01*
X100068061Y-71865000D01*
X99868102Y-71904774D01*
X99679744Y-71982795D01*
X99510226Y-72096063D01*
X99366063Y-72240226D01*
X99252795Y-72409744D01*
X99174774Y-72598102D01*
X99135000Y-72798061D01*
X85488072Y-72798061D01*
X85488072Y-72250000D01*
X85475812Y-72125518D01*
X85439502Y-72005820D01*
X85380537Y-71895506D01*
X85301185Y-71798815D01*
X85204494Y-71719463D01*
X85094180Y-71660498D01*
X85021620Y-71638487D01*
X85153475Y-71506632D01*
X85315990Y-71263411D01*
X85427932Y-70993158D01*
X85485000Y-70706260D01*
X85485000Y-70413740D01*
X85427932Y-70126842D01*
X85315990Y-69856589D01*
X85153475Y-69613368D01*
X84946632Y-69406525D01*
X84703411Y-69244010D01*
X84433158Y-69132068D01*
X84146260Y-69075000D01*
X83853740Y-69075000D01*
X83566842Y-69132068D01*
X83296589Y-69244010D01*
X83053368Y-69406525D01*
X82846525Y-69613368D01*
X82684010Y-69856589D01*
X82572068Y-70126842D01*
X82515000Y-70413740D01*
X82515000Y-70706260D01*
X82572068Y-70993158D01*
X82684010Y-71263411D01*
X82846525Y-71506632D01*
X82978380Y-71638487D01*
X82905820Y-71660498D01*
X82795506Y-71719463D01*
X82698815Y-71798815D01*
X82619463Y-71895506D01*
X82560498Y-72005820D01*
X82524188Y-72125518D01*
X82511928Y-72250000D01*
X82349610Y-72250000D01*
X82366717Y-65950000D01*
X82511928Y-65950000D01*
X82511928Y-67650000D01*
X82524188Y-67774482D01*
X82560498Y-67894180D01*
X82619463Y-68004494D01*
X82698815Y-68101185D01*
X82795506Y-68180537D01*
X82905820Y-68239502D01*
X83025518Y-68275812D01*
X83150000Y-68288072D01*
X84850000Y-68288072D01*
X84974482Y-68275812D01*
X85094180Y-68239502D01*
X85204494Y-68180537D01*
X85301185Y-68101185D01*
X85380537Y-68004494D01*
X85439502Y-67894180D01*
X85475812Y-67774482D01*
X85488072Y-67650000D01*
X85488072Y-66854061D01*
X88265000Y-66854061D01*
X88265000Y-67057939D01*
X88304774Y-67257898D01*
X88382795Y-67446256D01*
X88479510Y-67591000D01*
X88382795Y-67735744D01*
X88304774Y-67924102D01*
X88265000Y-68124061D01*
X88265000Y-68327939D01*
X88304774Y-68527898D01*
X88382795Y-68716256D01*
X88496063Y-68885774D01*
X88640226Y-69029937D01*
X88809744Y-69143205D01*
X88998102Y-69221226D01*
X89198061Y-69261000D01*
X89401939Y-69261000D01*
X89601898Y-69221226D01*
X89790256Y-69143205D01*
X89959774Y-69029937D01*
X90103937Y-68885774D01*
X90217205Y-68716256D01*
X90295226Y-68527898D01*
X90335000Y-68327939D01*
X90335000Y-68124061D01*
X90295226Y-67924102D01*
X90217205Y-67735744D01*
X90120490Y-67591000D01*
X90217205Y-67446256D01*
X90295226Y-67257898D01*
X90335000Y-67057939D01*
X90335000Y-66854061D01*
X90295226Y-66654102D01*
X90217205Y-66465744D01*
X90169445Y-66394266D01*
X90200000Y-66363711D01*
X90340226Y-66503937D01*
X90509744Y-66617205D01*
X90698102Y-66695226D01*
X90898061Y-66735000D01*
X91101939Y-66735000D01*
X91301898Y-66695226D01*
X91490256Y-66617205D01*
X91659774Y-66503937D01*
X91800000Y-66363711D01*
X91940226Y-66503937D01*
X92109744Y-66617205D01*
X92298102Y-66695226D01*
X92498061Y-66735000D01*
X92701939Y-66735000D01*
X92901898Y-66695226D01*
X93090256Y-66617205D01*
X93259774Y-66503937D01*
X93400000Y-66363711D01*
X93478512Y-66442223D01*
X93462795Y-66465744D01*
X93384774Y-66654102D01*
X93345000Y-66854061D01*
X93345000Y-67057939D01*
X93384774Y-67257898D01*
X93462795Y-67446256D01*
X93559510Y-67591000D01*
X93462795Y-67735744D01*
X93384774Y-67924102D01*
X93345000Y-68124061D01*
X93345000Y-68327939D01*
X93384774Y-68527898D01*
X93462795Y-68716256D01*
X93576063Y-68885774D01*
X93720226Y-69029937D01*
X93889744Y-69143205D01*
X94078102Y-69221226D01*
X94278061Y-69261000D01*
X94481939Y-69261000D01*
X94681898Y-69221226D01*
X94870256Y-69143205D01*
X94937818Y-69098061D01*
X104915000Y-69098061D01*
X104915000Y-69301939D01*
X104954774Y-69501898D01*
X105032795Y-69690256D01*
X105146063Y-69859774D01*
X105290226Y-70003937D01*
X105459744Y-70117205D01*
X105648102Y-70195226D01*
X105765000Y-70218478D01*
X105765000Y-70351939D01*
X105804774Y-70551898D01*
X105882795Y-70740256D01*
X105996063Y-70909774D01*
X106140226Y-71053937D01*
X106309744Y-71167205D01*
X106498102Y-71245226D01*
X106698061Y-71285000D01*
X106901939Y-71285000D01*
X107101898Y-71245226D01*
X107290256Y-71167205D01*
X107354599Y-71124212D01*
X107496157Y-71182848D01*
X107696116Y-71222622D01*
X107899994Y-71222622D01*
X108099953Y-71182848D01*
X108288311Y-71104827D01*
X108457829Y-70991559D01*
X108473331Y-70976057D01*
X108609744Y-71067205D01*
X108680119Y-71096355D01*
X108604053Y-71127863D01*
X108434535Y-71241131D01*
X108290372Y-71385294D01*
X108177104Y-71554812D01*
X108099083Y-71743170D01*
X108059309Y-71943129D01*
X108059309Y-72147007D01*
X108099083Y-72346966D01*
X108177104Y-72535324D01*
X108290372Y-72704842D01*
X108434535Y-72849005D01*
X108604053Y-72962273D01*
X108792411Y-73040294D01*
X108877706Y-73057260D01*
X108932795Y-73190256D01*
X109046063Y-73359774D01*
X109190226Y-73503937D01*
X109359744Y-73617205D01*
X109465000Y-73660804D01*
X109465000Y-73701939D01*
X109504774Y-73901898D01*
X109582795Y-74090256D01*
X109696063Y-74259774D01*
X109840226Y-74403937D01*
X110009744Y-74517205D01*
X110198102Y-74595226D01*
X110398061Y-74635000D01*
X110601939Y-74635000D01*
X110801898Y-74595226D01*
X110990256Y-74517205D01*
X111159774Y-74403937D01*
X111303937Y-74259774D01*
X111417205Y-74090256D01*
X111495226Y-73901898D01*
X111535000Y-73701939D01*
X111535000Y-73498061D01*
X111495226Y-73298102D01*
X111417205Y-73109744D01*
X111303937Y-72940226D01*
X111159774Y-72796063D01*
X110990256Y-72682795D01*
X110885000Y-72639196D01*
X110885000Y-72598061D01*
X110845226Y-72398102D01*
X110767205Y-72209744D01*
X110653937Y-72040226D01*
X110509774Y-71896063D01*
X110340256Y-71782795D01*
X110151898Y-71704774D01*
X110066603Y-71687808D01*
X110011514Y-71554812D01*
X109898246Y-71385294D01*
X109754083Y-71241131D01*
X109584565Y-71127863D01*
X109514190Y-71098713D01*
X109590256Y-71067205D01*
X109759774Y-70953937D01*
X109903937Y-70809774D01*
X110017205Y-70640256D01*
X110095226Y-70451898D01*
X110135000Y-70251939D01*
X110135000Y-70048061D01*
X110095226Y-69848102D01*
X110017205Y-69659744D01*
X109903937Y-69490226D01*
X109759774Y-69346063D01*
X109590256Y-69232795D01*
X109401898Y-69154774D01*
X109201939Y-69115000D01*
X108998061Y-69115000D01*
X108798102Y-69154774D01*
X108609744Y-69232795D01*
X108440226Y-69346063D01*
X108424724Y-69361565D01*
X108288311Y-69270417D01*
X108099953Y-69192396D01*
X107899994Y-69152622D01*
X107696116Y-69152622D01*
X107496157Y-69192396D01*
X107307799Y-69270417D01*
X107243456Y-69313410D01*
X107101898Y-69254774D01*
X106985000Y-69231522D01*
X106985000Y-69098061D01*
X106945226Y-68898102D01*
X106867205Y-68709744D01*
X106753937Y-68540226D01*
X106609774Y-68396063D01*
X106440256Y-68282795D01*
X106251898Y-68204774D01*
X106051939Y-68165000D01*
X105848061Y-68165000D01*
X105648102Y-68204774D01*
X105459744Y-68282795D01*
X105290226Y-68396063D01*
X105146063Y-68540226D01*
X105032795Y-68709744D01*
X104954774Y-68898102D01*
X104915000Y-69098061D01*
X94937818Y-69098061D01*
X95039774Y-69029937D01*
X95183937Y-68885774D01*
X95297205Y-68716256D01*
X95375226Y-68527898D01*
X95415000Y-68327939D01*
X95415000Y-68124061D01*
X95375226Y-67924102D01*
X95364440Y-67898061D01*
X117215000Y-67898061D01*
X117215000Y-68101939D01*
X117254774Y-68301898D01*
X117332795Y-68490256D01*
X117446063Y-68659774D01*
X117590226Y-68803937D01*
X117759744Y-68917205D01*
X117929450Y-68987500D01*
X117759744Y-69057795D01*
X117590226Y-69171063D01*
X117446063Y-69315226D01*
X117332795Y-69484744D01*
X117254774Y-69673102D01*
X117215000Y-69873061D01*
X117215000Y-70076939D01*
X117254774Y-70276898D01*
X117332795Y-70465256D01*
X117446063Y-70634774D01*
X117590226Y-70778937D01*
X117759744Y-70892205D01*
X117948102Y-70970226D01*
X118148061Y-71010000D01*
X118351939Y-71010000D01*
X118551898Y-70970226D01*
X118740256Y-70892205D01*
X118909774Y-70778937D01*
X119053937Y-70634774D01*
X119167205Y-70465256D01*
X119245226Y-70276898D01*
X119285000Y-70076939D01*
X119285000Y-69873061D01*
X119245226Y-69673102D01*
X119183077Y-69523061D01*
X120465000Y-69523061D01*
X120465000Y-69726939D01*
X120504774Y-69926898D01*
X120582795Y-70115256D01*
X120696063Y-70284774D01*
X120840226Y-70428937D01*
X121009744Y-70542205D01*
X121198102Y-70620226D01*
X121398061Y-70660000D01*
X121446457Y-70660000D01*
X121546862Y-70810267D01*
X121691025Y-70954430D01*
X121860543Y-71067698D01*
X122048901Y-71145719D01*
X122248860Y-71185493D01*
X122452738Y-71185493D01*
X122652697Y-71145719D01*
X122841055Y-71067698D01*
X123010573Y-70954430D01*
X123154736Y-70810267D01*
X123268004Y-70640749D01*
X123346025Y-70452391D01*
X123385799Y-70252432D01*
X123385799Y-70048554D01*
X123346025Y-69848595D01*
X123268004Y-69660237D01*
X123154736Y-69490719D01*
X123010573Y-69346556D01*
X122841055Y-69233288D01*
X122652697Y-69155267D01*
X122452738Y-69115493D01*
X122404342Y-69115493D01*
X122346822Y-69029409D01*
X122459774Y-68953937D01*
X122603937Y-68809774D01*
X122717205Y-68640256D01*
X122795226Y-68451898D01*
X122835000Y-68251939D01*
X122835000Y-68048061D01*
X122795226Y-67848102D01*
X122717205Y-67659744D01*
X122603937Y-67490226D01*
X122459774Y-67346063D01*
X122394244Y-67302277D01*
X122815000Y-67302277D01*
X122815000Y-67506155D01*
X122854774Y-67706114D01*
X122932795Y-67894472D01*
X123046063Y-68063990D01*
X123190226Y-68208153D01*
X123359744Y-68321421D01*
X123548102Y-68399442D01*
X123748061Y-68439216D01*
X123951939Y-68439216D01*
X124151898Y-68399442D01*
X124340256Y-68321421D01*
X124509774Y-68208153D01*
X124653937Y-68063990D01*
X124711352Y-67978061D01*
X141165000Y-67978061D01*
X141165000Y-68181939D01*
X141204774Y-68381898D01*
X141282795Y-68570256D01*
X141396063Y-68739774D01*
X141540226Y-68883937D01*
X141709744Y-68997205D01*
X141898102Y-69075226D01*
X142098061Y-69115000D01*
X142301939Y-69115000D01*
X142501898Y-69075226D01*
X142690256Y-68997205D01*
X142859774Y-68883937D01*
X143003937Y-68739774D01*
X143081921Y-68623061D01*
X143240000Y-68623061D01*
X143240000Y-68826939D01*
X143279774Y-69026898D01*
X143357795Y-69215256D01*
X143471063Y-69384774D01*
X143615226Y-69528937D01*
X143784744Y-69642205D01*
X143973102Y-69720226D01*
X144173061Y-69760000D01*
X144376939Y-69760000D01*
X144576898Y-69720226D01*
X144765256Y-69642205D01*
X144934774Y-69528937D01*
X145078937Y-69384774D01*
X145192205Y-69215256D01*
X145270226Y-69026898D01*
X145310000Y-68826939D01*
X145310000Y-68623061D01*
X145270226Y-68423102D01*
X145192205Y-68234744D01*
X145078937Y-68065226D01*
X144934774Y-67921063D01*
X144765256Y-67807795D01*
X144576898Y-67729774D01*
X144376939Y-67690000D01*
X144173061Y-67690000D01*
X143973102Y-67729774D01*
X143784744Y-67807795D01*
X143615226Y-67921063D01*
X143471063Y-68065226D01*
X143357795Y-68234744D01*
X143279774Y-68423102D01*
X143240000Y-68623061D01*
X143081921Y-68623061D01*
X143117205Y-68570256D01*
X143195226Y-68381898D01*
X143235000Y-68181939D01*
X143235000Y-67978061D01*
X143195226Y-67778102D01*
X143117205Y-67589744D01*
X143003937Y-67420226D01*
X142859774Y-67276063D01*
X142690256Y-67162795D01*
X142501898Y-67084774D01*
X142301939Y-67045000D01*
X142098061Y-67045000D01*
X141898102Y-67084774D01*
X141709744Y-67162795D01*
X141540226Y-67276063D01*
X141396063Y-67420226D01*
X141282795Y-67589744D01*
X141204774Y-67778102D01*
X141165000Y-67978061D01*
X124711352Y-67978061D01*
X124767205Y-67894472D01*
X124845226Y-67706114D01*
X124885000Y-67506155D01*
X124885000Y-67331882D01*
X125048102Y-67399442D01*
X125248061Y-67439216D01*
X125451939Y-67439216D01*
X125651898Y-67399442D01*
X125840256Y-67321421D01*
X126009774Y-67208153D01*
X126153937Y-67063990D01*
X126267205Y-66894472D01*
X126345226Y-66706114D01*
X126385000Y-66506155D01*
X126385000Y-66302277D01*
X126345226Y-66102318D01*
X126267205Y-65913960D01*
X126153937Y-65744442D01*
X126009774Y-65600279D01*
X126006455Y-65598061D01*
X140065000Y-65598061D01*
X140065000Y-65801939D01*
X140104774Y-66001898D01*
X140182795Y-66190256D01*
X140296063Y-66359774D01*
X140440226Y-66503937D01*
X140609744Y-66617205D01*
X140798102Y-66695226D01*
X140998061Y-66735000D01*
X141201939Y-66735000D01*
X141401898Y-66695226D01*
X141590256Y-66617205D01*
X141759774Y-66503937D01*
X141903937Y-66359774D01*
X142017205Y-66190256D01*
X142095226Y-66001898D01*
X142095989Y-65998061D01*
X143265000Y-65998061D01*
X143265000Y-66201939D01*
X143304774Y-66401898D01*
X143382795Y-66590256D01*
X143496063Y-66759774D01*
X143640226Y-66903937D01*
X143809744Y-67017205D01*
X143998102Y-67095226D01*
X144198061Y-67135000D01*
X144401939Y-67135000D01*
X144601898Y-67095226D01*
X144790256Y-67017205D01*
X144959774Y-66903937D01*
X145103937Y-66759774D01*
X145217205Y-66590256D01*
X145295226Y-66401898D01*
X145335000Y-66201939D01*
X145335000Y-65998061D01*
X145295226Y-65798102D01*
X145217205Y-65609744D01*
X145103937Y-65440226D01*
X144959774Y-65296063D01*
X144790256Y-65182795D01*
X144601898Y-65104774D01*
X144401939Y-65065000D01*
X144198061Y-65065000D01*
X143998102Y-65104774D01*
X143809744Y-65182795D01*
X143640226Y-65296063D01*
X143496063Y-65440226D01*
X143382795Y-65609744D01*
X143304774Y-65798102D01*
X143265000Y-65998061D01*
X142095989Y-65998061D01*
X142135000Y-65801939D01*
X142135000Y-65598061D01*
X142095226Y-65398102D01*
X142017205Y-65209744D01*
X141903937Y-65040226D01*
X141759774Y-64896063D01*
X141590256Y-64782795D01*
X141401898Y-64704774D01*
X141201939Y-64665000D01*
X140998061Y-64665000D01*
X140798102Y-64704774D01*
X140609744Y-64782795D01*
X140440226Y-64896063D01*
X140296063Y-65040226D01*
X140182795Y-65209744D01*
X140104774Y-65398102D01*
X140065000Y-65598061D01*
X126006455Y-65598061D01*
X125840256Y-65487011D01*
X125651898Y-65408990D01*
X125451939Y-65369216D01*
X125248061Y-65369216D01*
X125048102Y-65408990D01*
X124859744Y-65487011D01*
X124690226Y-65600279D01*
X124546063Y-65744442D01*
X124432795Y-65913960D01*
X124354774Y-66102318D01*
X124315000Y-66302277D01*
X124315000Y-66476550D01*
X124151898Y-66408990D01*
X123951939Y-66369216D01*
X123748061Y-66369216D01*
X123548102Y-66408990D01*
X123359744Y-66487011D01*
X123190226Y-66600279D01*
X123046063Y-66744442D01*
X122932795Y-66913960D01*
X122854774Y-67102318D01*
X122815000Y-67302277D01*
X122394244Y-67302277D01*
X122290256Y-67232795D01*
X122101898Y-67154774D01*
X121901939Y-67115000D01*
X121698061Y-67115000D01*
X121498102Y-67154774D01*
X121309744Y-67232795D01*
X121140226Y-67346063D01*
X120996063Y-67490226D01*
X120882795Y-67659744D01*
X120804774Y-67848102D01*
X120765000Y-68048061D01*
X120765000Y-68251939D01*
X120804774Y-68451898D01*
X120882795Y-68640256D01*
X120953178Y-68745591D01*
X120840226Y-68821063D01*
X120696063Y-68965226D01*
X120582795Y-69134744D01*
X120504774Y-69323102D01*
X120465000Y-69523061D01*
X119183077Y-69523061D01*
X119167205Y-69484744D01*
X119053937Y-69315226D01*
X118909774Y-69171063D01*
X118740256Y-69057795D01*
X118570550Y-68987500D01*
X118740256Y-68917205D01*
X118909774Y-68803937D01*
X118925000Y-68788711D01*
X118940226Y-68803937D01*
X119109744Y-68917205D01*
X119298102Y-68995226D01*
X119498061Y-69035000D01*
X119701939Y-69035000D01*
X119901898Y-68995226D01*
X120090256Y-68917205D01*
X120259774Y-68803937D01*
X120403937Y-68659774D01*
X120517205Y-68490256D01*
X120595226Y-68301898D01*
X120635000Y-68101939D01*
X120635000Y-67898061D01*
X120595226Y-67698102D01*
X120517205Y-67509744D01*
X120403937Y-67340226D01*
X120259774Y-67196063D01*
X120090256Y-67082795D01*
X119901898Y-67004774D01*
X119701939Y-66965000D01*
X119498061Y-66965000D01*
X119298102Y-67004774D01*
X119109744Y-67082795D01*
X118940226Y-67196063D01*
X118925000Y-67211289D01*
X118909774Y-67196063D01*
X118740256Y-67082795D01*
X118551898Y-67004774D01*
X118351939Y-66965000D01*
X118148061Y-66965000D01*
X117948102Y-67004774D01*
X117759744Y-67082795D01*
X117590226Y-67196063D01*
X117446063Y-67340226D01*
X117332795Y-67509744D01*
X117254774Y-67698102D01*
X117215000Y-67898061D01*
X95364440Y-67898061D01*
X95297205Y-67735744D01*
X95200490Y-67591000D01*
X95297205Y-67446256D01*
X95375226Y-67257898D01*
X95415000Y-67057939D01*
X95415000Y-66854061D01*
X95375226Y-66654102D01*
X95297205Y-66465744D01*
X95183937Y-66296226D01*
X95101488Y-66213777D01*
X95117205Y-66190256D01*
X95195226Y-66001898D01*
X95235000Y-65801939D01*
X95235000Y-65598061D01*
X95195226Y-65398102D01*
X95117205Y-65209744D01*
X95043877Y-65100000D01*
X95117205Y-64990256D01*
X95151251Y-64908061D01*
X101825000Y-64908061D01*
X101825000Y-65111939D01*
X101864774Y-65311898D01*
X101942795Y-65500256D01*
X102056063Y-65669774D01*
X102200226Y-65813937D01*
X102369744Y-65927205D01*
X102558102Y-66005226D01*
X102758061Y-66045000D01*
X102961939Y-66045000D01*
X103161898Y-66005226D01*
X103350256Y-65927205D01*
X103519774Y-65813937D01*
X103663937Y-65669774D01*
X103777205Y-65500256D01*
X103855226Y-65311898D01*
X103895000Y-65111939D01*
X103895000Y-64908061D01*
X103855226Y-64708102D01*
X103777205Y-64519744D01*
X103663937Y-64350226D01*
X103519774Y-64206063D01*
X103350256Y-64092795D01*
X103161898Y-64014774D01*
X102961939Y-63975000D01*
X102758061Y-63975000D01*
X102558102Y-64014774D01*
X102369744Y-64092795D01*
X102200226Y-64206063D01*
X102056063Y-64350226D01*
X101942795Y-64519744D01*
X101864774Y-64708102D01*
X101825000Y-64908061D01*
X95151251Y-64908061D01*
X95195226Y-64801898D01*
X95235000Y-64601939D01*
X95235000Y-64398061D01*
X95195226Y-64198102D01*
X95117205Y-64009744D01*
X95042582Y-63898061D01*
X114165000Y-63898061D01*
X114165000Y-64101939D01*
X114204774Y-64301898D01*
X114282795Y-64490256D01*
X114396063Y-64659774D01*
X114540226Y-64803937D01*
X114709744Y-64917205D01*
X114898102Y-64995226D01*
X115098061Y-65035000D01*
X115301939Y-65035000D01*
X115501898Y-64995226D01*
X115690256Y-64917205D01*
X115859774Y-64803937D01*
X116003937Y-64659774D01*
X116117205Y-64490256D01*
X116195226Y-64301898D01*
X116235000Y-64101939D01*
X116235000Y-63898061D01*
X116199197Y-63718061D01*
X118985000Y-63718061D01*
X118985000Y-63921939D01*
X119024774Y-64121898D01*
X119102795Y-64310256D01*
X119216063Y-64479774D01*
X119360226Y-64623937D01*
X119529744Y-64737205D01*
X119718102Y-64815226D01*
X119918061Y-64855000D01*
X120121939Y-64855000D01*
X120321898Y-64815226D01*
X120510256Y-64737205D01*
X120679774Y-64623937D01*
X120823937Y-64479774D01*
X120937205Y-64310256D01*
X121015226Y-64121898D01*
X121055000Y-63921939D01*
X121055000Y-63718061D01*
X121015226Y-63518102D01*
X120937205Y-63329744D01*
X120823937Y-63160226D01*
X120679774Y-63016063D01*
X120510256Y-62902795D01*
X120321898Y-62824774D01*
X120121939Y-62785000D01*
X119918061Y-62785000D01*
X119718102Y-62824774D01*
X119529744Y-62902795D01*
X119360226Y-63016063D01*
X119216063Y-63160226D01*
X119102795Y-63329744D01*
X119024774Y-63518102D01*
X118985000Y-63718061D01*
X116199197Y-63718061D01*
X116195226Y-63698102D01*
X116117205Y-63509744D01*
X116003937Y-63340226D01*
X115859774Y-63196063D01*
X115690256Y-63082795D01*
X115501898Y-63004774D01*
X115301939Y-62965000D01*
X115098061Y-62965000D01*
X114898102Y-63004774D01*
X114709744Y-63082795D01*
X114540226Y-63196063D01*
X114396063Y-63340226D01*
X114282795Y-63509744D01*
X114204774Y-63698102D01*
X114165000Y-63898061D01*
X95042582Y-63898061D01*
X95003937Y-63840226D01*
X94859774Y-63696063D01*
X94690256Y-63582795D01*
X94501898Y-63504774D01*
X94301939Y-63465000D01*
X94098061Y-63465000D01*
X93898102Y-63504774D01*
X93709744Y-63582795D01*
X93540226Y-63696063D01*
X93400000Y-63836289D01*
X93259774Y-63696063D01*
X93090256Y-63582795D01*
X92901898Y-63504774D01*
X92701939Y-63465000D01*
X92498061Y-63465000D01*
X92298102Y-63504774D01*
X92109744Y-63582795D01*
X91940226Y-63696063D01*
X91800000Y-63836289D01*
X91659774Y-63696063D01*
X91490256Y-63582795D01*
X91301898Y-63504774D01*
X91101939Y-63465000D01*
X90898061Y-63465000D01*
X90698102Y-63504774D01*
X90509744Y-63582795D01*
X90340226Y-63696063D01*
X90200000Y-63836289D01*
X90059774Y-63696063D01*
X89890256Y-63582795D01*
X89701898Y-63504774D01*
X89501939Y-63465000D01*
X89298061Y-63465000D01*
X89098102Y-63504774D01*
X88909744Y-63582795D01*
X88740226Y-63696063D01*
X88596063Y-63840226D01*
X88482795Y-64009744D01*
X88404774Y-64198102D01*
X88365000Y-64398061D01*
X88365000Y-64601939D01*
X88404774Y-64801898D01*
X88482795Y-64990256D01*
X88556123Y-65100000D01*
X88482795Y-65209744D01*
X88404774Y-65398102D01*
X88365000Y-65598061D01*
X88365000Y-65801939D01*
X88404774Y-66001898D01*
X88482795Y-66190256D01*
X88530555Y-66261734D01*
X88496063Y-66296226D01*
X88382795Y-66465744D01*
X88304774Y-66654102D01*
X88265000Y-66854061D01*
X85488072Y-66854061D01*
X85488072Y-65950000D01*
X85475812Y-65825518D01*
X85439502Y-65705820D01*
X85380537Y-65595506D01*
X85301185Y-65498815D01*
X85204494Y-65419463D01*
X85094180Y-65360498D01*
X84974482Y-65324188D01*
X84850000Y-65311928D01*
X83150000Y-65311928D01*
X83025518Y-65324188D01*
X82905820Y-65360498D01*
X82795506Y-65419463D01*
X82698815Y-65498815D01*
X82619463Y-65595506D01*
X82560498Y-65705820D01*
X82524188Y-65825518D01*
X82511928Y-65950000D01*
X82366717Y-65950000D01*
X82376157Y-62473061D01*
X109040000Y-62473061D01*
X109040000Y-62676939D01*
X109079774Y-62876898D01*
X109157795Y-63065256D01*
X109271063Y-63234774D01*
X109415226Y-63378937D01*
X109584744Y-63492205D01*
X109773102Y-63570226D01*
X109973061Y-63610000D01*
X110176939Y-63610000D01*
X110376898Y-63570226D01*
X110565256Y-63492205D01*
X110734774Y-63378937D01*
X110878937Y-63234774D01*
X110992205Y-63065256D01*
X111070226Y-62876898D01*
X111110000Y-62676939D01*
X111110000Y-62473061D01*
X111070226Y-62273102D01*
X110992205Y-62084744D01*
X110878937Y-61915226D01*
X110734774Y-61771063D01*
X110700349Y-61748061D01*
X111115000Y-61748061D01*
X111115000Y-61951939D01*
X111154774Y-62151898D01*
X111232795Y-62340256D01*
X111346063Y-62509774D01*
X111490226Y-62653937D01*
X111659744Y-62767205D01*
X111848102Y-62845226D01*
X112048061Y-62885000D01*
X112251939Y-62885000D01*
X112451898Y-62845226D01*
X112640256Y-62767205D01*
X112809774Y-62653937D01*
X112953937Y-62509774D01*
X113067205Y-62340256D01*
X113145226Y-62151898D01*
X113185000Y-61951939D01*
X113185000Y-61748061D01*
X113145226Y-61548102D01*
X113067205Y-61359744D01*
X112953937Y-61190226D01*
X112809774Y-61046063D01*
X112775349Y-61023061D01*
X113465000Y-61023061D01*
X113465000Y-61226939D01*
X113504774Y-61426898D01*
X113582795Y-61615256D01*
X113696063Y-61784774D01*
X113840226Y-61928937D01*
X114009744Y-62042205D01*
X114198102Y-62120226D01*
X114398061Y-62160000D01*
X114601939Y-62160000D01*
X114801898Y-62120226D01*
X114990256Y-62042205D01*
X115159774Y-61928937D01*
X115303937Y-61784774D01*
X115417205Y-61615256D01*
X115495226Y-61426898D01*
X115535000Y-61226939D01*
X115535000Y-61023061D01*
X115495226Y-60823102D01*
X115417205Y-60634744D01*
X115303937Y-60465226D01*
X115159774Y-60321063D01*
X114990256Y-60207795D01*
X114801898Y-60129774D01*
X114601939Y-60090000D01*
X114398061Y-60090000D01*
X114198102Y-60129774D01*
X114009744Y-60207795D01*
X113840226Y-60321063D01*
X113696063Y-60465226D01*
X113582795Y-60634744D01*
X113504774Y-60823102D01*
X113465000Y-61023061D01*
X112775349Y-61023061D01*
X112640256Y-60932795D01*
X112451898Y-60854774D01*
X112251939Y-60815000D01*
X112048061Y-60815000D01*
X111848102Y-60854774D01*
X111659744Y-60932795D01*
X111490226Y-61046063D01*
X111346063Y-61190226D01*
X111232795Y-61359744D01*
X111154774Y-61548102D01*
X111115000Y-61748061D01*
X110700349Y-61748061D01*
X110565256Y-61657795D01*
X110376898Y-61579774D01*
X110176939Y-61540000D01*
X109973061Y-61540000D01*
X109773102Y-61579774D01*
X109584744Y-61657795D01*
X109415226Y-61771063D01*
X109271063Y-61915226D01*
X109157795Y-62084744D01*
X109079774Y-62273102D01*
X109040000Y-62473061D01*
X82376157Y-62473061D01*
X82380400Y-60910714D01*
X100177653Y-60910714D01*
X100177653Y-61114592D01*
X100217427Y-61314551D01*
X100295448Y-61502909D01*
X100408716Y-61672427D01*
X100552879Y-61816590D01*
X100722397Y-61929858D01*
X100910755Y-62007879D01*
X101110714Y-62047653D01*
X101314592Y-62047653D01*
X101514551Y-62007879D01*
X101676914Y-61940625D01*
X101740226Y-62003937D01*
X101909744Y-62117205D01*
X102098102Y-62195226D01*
X102298061Y-62235000D01*
X102501939Y-62235000D01*
X102701898Y-62195226D01*
X102890256Y-62117205D01*
X103059774Y-62003937D01*
X103203937Y-61859774D01*
X103317205Y-61690256D01*
X103395226Y-61501898D01*
X103435000Y-61301939D01*
X103435000Y-61098061D01*
X103395226Y-60898102D01*
X103317205Y-60709744D01*
X103203937Y-60540226D01*
X103059774Y-60396063D01*
X102890256Y-60282795D01*
X102701898Y-60204774D01*
X102501939Y-60165000D01*
X102298061Y-60165000D01*
X102098102Y-60204774D01*
X101935739Y-60272028D01*
X101872427Y-60208716D01*
X101702909Y-60095448D01*
X101514551Y-60017427D01*
X101314592Y-59977653D01*
X101110714Y-59977653D01*
X100910755Y-60017427D01*
X100722397Y-60095448D01*
X100552879Y-60208716D01*
X100408716Y-60352879D01*
X100295448Y-60522397D01*
X100217427Y-60710755D01*
X100177653Y-60910714D01*
X82380400Y-60910714D01*
X82391025Y-56998061D01*
X83115000Y-56998061D01*
X83115000Y-57201939D01*
X83154774Y-57401898D01*
X83232795Y-57590256D01*
X83346063Y-57759774D01*
X83490226Y-57903937D01*
X83659744Y-58017205D01*
X83848102Y-58095226D01*
X84048061Y-58135000D01*
X84251939Y-58135000D01*
X84451898Y-58095226D01*
X84640256Y-58017205D01*
X84809774Y-57903937D01*
X84953937Y-57759774D01*
X85067205Y-57590256D01*
X85145226Y-57401898D01*
X85145989Y-57398061D01*
X108965000Y-57398061D01*
X108965000Y-57601939D01*
X109004774Y-57801898D01*
X109082795Y-57990256D01*
X109196063Y-58159774D01*
X109340226Y-58303937D01*
X109509744Y-58417205D01*
X109698102Y-58495226D01*
X109898061Y-58535000D01*
X110101939Y-58535000D01*
X110301898Y-58495226D01*
X110490256Y-58417205D01*
X110659774Y-58303937D01*
X110803937Y-58159774D01*
X110917205Y-57990256D01*
X110995226Y-57801898D01*
X111035000Y-57601939D01*
X111035000Y-57398061D01*
X110995226Y-57198102D01*
X110917205Y-57009744D01*
X110803937Y-56840226D01*
X110659774Y-56696063D01*
X110490256Y-56582795D01*
X110301898Y-56504774D01*
X110101939Y-56465000D01*
X109898061Y-56465000D01*
X109698102Y-56504774D01*
X109509744Y-56582795D01*
X109340226Y-56696063D01*
X109196063Y-56840226D01*
X109082795Y-57009744D01*
X109004774Y-57198102D01*
X108965000Y-57398061D01*
X85145989Y-57398061D01*
X85185000Y-57201939D01*
X85185000Y-56998061D01*
X85145226Y-56798102D01*
X85067205Y-56609744D01*
X84953937Y-56440226D01*
X84809774Y-56296063D01*
X84640256Y-56182795D01*
X84451898Y-56104774D01*
X84251939Y-56065000D01*
X84048061Y-56065000D01*
X83848102Y-56104774D01*
X83659744Y-56182795D01*
X83490226Y-56296063D01*
X83346063Y-56440226D01*
X83232795Y-56609744D01*
X83154774Y-56798102D01*
X83115000Y-56998061D01*
X82391025Y-56998061D01*
X82421439Y-45798061D01*
X82665000Y-45798061D01*
X82665000Y-46001939D01*
X82704774Y-46201898D01*
X82782795Y-46390256D01*
X82896063Y-46559774D01*
X82986289Y-46650000D01*
X82896063Y-46740226D01*
X82782795Y-46909744D01*
X82704774Y-47098102D01*
X82665000Y-47298061D01*
X82665000Y-47501939D01*
X82704774Y-47701898D01*
X82782795Y-47890256D01*
X82896063Y-48059774D01*
X82986289Y-48150000D01*
X82896063Y-48240226D01*
X82782795Y-48409744D01*
X82704774Y-48598102D01*
X82665000Y-48798061D01*
X82665000Y-49001939D01*
X82704774Y-49201898D01*
X82782795Y-49390256D01*
X82896063Y-49559774D01*
X83036289Y-49700000D01*
X82896063Y-49840226D01*
X82782795Y-50009744D01*
X82704774Y-50198102D01*
X82665000Y-50398061D01*
X82665000Y-50601939D01*
X82704774Y-50801898D01*
X82782795Y-50990256D01*
X82896063Y-51159774D01*
X83040226Y-51303937D01*
X83209744Y-51417205D01*
X83398102Y-51495226D01*
X83598061Y-51535000D01*
X83801939Y-51535000D01*
X84001898Y-51495226D01*
X84190256Y-51417205D01*
X84359774Y-51303937D01*
X84503937Y-51159774D01*
X84520810Y-51134521D01*
X84640226Y-51253937D01*
X84809744Y-51367205D01*
X84998102Y-51445226D01*
X85198061Y-51485000D01*
X85401939Y-51485000D01*
X85601898Y-51445226D01*
X85790256Y-51367205D01*
X85959774Y-51253937D01*
X86103937Y-51109774D01*
X86217205Y-50940256D01*
X86295226Y-50751898D01*
X86335000Y-50551939D01*
X86335000Y-50348061D01*
X86295226Y-50148102D01*
X86217205Y-49959744D01*
X86103937Y-49790226D01*
X85988711Y-49675000D01*
X86103937Y-49559774D01*
X86217205Y-49390256D01*
X86295226Y-49201898D01*
X86335000Y-49001939D01*
X86335000Y-48798061D01*
X86295226Y-48598102D01*
X86217205Y-48409744D01*
X86103937Y-48240226D01*
X86038711Y-48175000D01*
X86153937Y-48059774D01*
X86267205Y-47890256D01*
X86345226Y-47701898D01*
X86385000Y-47501939D01*
X86385000Y-47298061D01*
X86375055Y-47248061D01*
X89065000Y-47248061D01*
X89065000Y-47451939D01*
X89104774Y-47651898D01*
X89182795Y-47840256D01*
X89239419Y-47925000D01*
X89182795Y-48009744D01*
X89104774Y-48198102D01*
X89065000Y-48398061D01*
X89065000Y-48601939D01*
X89104774Y-48801898D01*
X89182795Y-48990256D01*
X89239419Y-49075000D01*
X89182795Y-49159744D01*
X89104774Y-49348102D01*
X89065000Y-49548061D01*
X89065000Y-49751939D01*
X89104774Y-49951898D01*
X89182795Y-50140256D01*
X89239419Y-50225000D01*
X89182795Y-50309744D01*
X89104774Y-50498102D01*
X89065000Y-50698061D01*
X89065000Y-50901939D01*
X89104774Y-51101898D01*
X89182795Y-51290256D01*
X89296063Y-51459774D01*
X89440226Y-51603937D01*
X89609744Y-51717205D01*
X89798102Y-51795226D01*
X89998061Y-51835000D01*
X90201939Y-51835000D01*
X90401898Y-51795226D01*
X90590256Y-51717205D01*
X90759774Y-51603937D01*
X90903937Y-51459774D01*
X91017205Y-51290256D01*
X91095226Y-51101898D01*
X91135000Y-50901939D01*
X91135000Y-50698061D01*
X91095226Y-50498102D01*
X91017205Y-50309744D01*
X90960581Y-50225000D01*
X91017205Y-50140256D01*
X91095226Y-49951898D01*
X91135000Y-49751939D01*
X91135000Y-49548061D01*
X91095226Y-49348102D01*
X91017205Y-49159744D01*
X90960581Y-49075000D01*
X91017205Y-48990256D01*
X91095226Y-48801898D01*
X91135000Y-48601939D01*
X91135000Y-48398061D01*
X91095226Y-48198102D01*
X91017205Y-48009744D01*
X90960581Y-47925000D01*
X91017205Y-47840256D01*
X91095226Y-47651898D01*
X91135000Y-47451939D01*
X91135000Y-47248061D01*
X91095226Y-47048102D01*
X91017205Y-46859744D01*
X90903937Y-46690226D01*
X90759774Y-46546063D01*
X90590256Y-46432795D01*
X90401898Y-46354774D01*
X90201939Y-46315000D01*
X89998061Y-46315000D01*
X89798102Y-46354774D01*
X89609744Y-46432795D01*
X89440226Y-46546063D01*
X89296063Y-46690226D01*
X89182795Y-46859744D01*
X89104774Y-47048102D01*
X89065000Y-47248061D01*
X86375055Y-47248061D01*
X86345226Y-47098102D01*
X86267205Y-46909744D01*
X86153937Y-46740226D01*
X86063711Y-46650000D01*
X86153937Y-46559774D01*
X86267205Y-46390256D01*
X86345226Y-46201898D01*
X86385000Y-46001939D01*
X86385000Y-45798061D01*
X86345226Y-45598102D01*
X86267205Y-45409744D01*
X86153937Y-45240226D01*
X86009774Y-45096063D01*
X85840256Y-44982795D01*
X85651898Y-44904774D01*
X85451939Y-44865000D01*
X85248061Y-44865000D01*
X85048102Y-44904774D01*
X84859744Y-44982795D01*
X84690226Y-45096063D01*
X84546063Y-45240226D01*
X84525000Y-45271749D01*
X84503937Y-45240226D01*
X84359774Y-45096063D01*
X84190256Y-44982795D01*
X84001898Y-44904774D01*
X83801939Y-44865000D01*
X83598061Y-44865000D01*
X83398102Y-44904774D01*
X83209744Y-44982795D01*
X83040226Y-45096063D01*
X82896063Y-45240226D01*
X82782795Y-45409744D01*
X82704774Y-45598102D01*
X82665000Y-45798061D01*
X82421439Y-45798061D01*
X82426656Y-43876902D01*
X91260535Y-43870033D01*
X91165000Y-44350324D01*
X91165000Y-44849676D01*
X91262418Y-45339432D01*
X91453512Y-45800773D01*
X91730937Y-46215968D01*
X92084032Y-46569063D01*
X92499227Y-46846488D01*
X92779377Y-46962530D01*
X92609744Y-47032795D01*
X92440226Y-47146063D01*
X92296063Y-47290226D01*
X92182795Y-47459744D01*
X92104774Y-47648102D01*
X92065000Y-47848061D01*
X92065000Y-48051939D01*
X92104774Y-48251898D01*
X92182795Y-48440256D01*
X92296063Y-48609774D01*
X92361289Y-48675000D01*
X92296063Y-48740226D01*
X92182795Y-48909744D01*
X92104774Y-49098102D01*
X92065000Y-49298061D01*
X92065000Y-49501939D01*
X92104774Y-49701898D01*
X92182795Y-49890256D01*
X92296063Y-50059774D01*
X92338233Y-50101944D01*
X92232795Y-50259744D01*
X92154774Y-50448102D01*
X92115000Y-50648061D01*
X92115000Y-50851939D01*
X92154774Y-51051898D01*
X92232795Y-51240256D01*
X92346063Y-51409774D01*
X92490226Y-51553937D01*
X92659744Y-51667205D01*
X92848102Y-51745226D01*
X93048061Y-51785000D01*
X93251939Y-51785000D01*
X93451898Y-51745226D01*
X93640256Y-51667205D01*
X93809774Y-51553937D01*
X93953937Y-51409774D01*
X94067205Y-51240256D01*
X94145226Y-51051898D01*
X94185000Y-50851939D01*
X94185000Y-50648061D01*
X94145226Y-50448102D01*
X94124499Y-50398061D01*
X108865000Y-50398061D01*
X108865000Y-50601939D01*
X108904774Y-50801898D01*
X108982795Y-50990256D01*
X109022715Y-51050000D01*
X108982795Y-51109744D01*
X108904774Y-51298102D01*
X108865000Y-51498061D01*
X108865000Y-51701939D01*
X108904774Y-51901898D01*
X108982795Y-52090256D01*
X109022715Y-52150000D01*
X108982795Y-52209744D01*
X108904774Y-52398102D01*
X108865000Y-52598061D01*
X108865000Y-52801939D01*
X108904774Y-53001898D01*
X108982795Y-53190256D01*
X109056123Y-53300000D01*
X108982795Y-53409744D01*
X108904774Y-53598102D01*
X108865000Y-53798061D01*
X108865000Y-54001939D01*
X108904774Y-54201898D01*
X108982795Y-54390256D01*
X109022715Y-54450000D01*
X108982795Y-54509744D01*
X108904774Y-54698102D01*
X108865000Y-54898061D01*
X108865000Y-55101939D01*
X108904774Y-55301898D01*
X108982795Y-55490256D01*
X109096063Y-55659774D01*
X109240226Y-55803937D01*
X109409744Y-55917205D01*
X109598102Y-55995226D01*
X109798061Y-56035000D01*
X110001939Y-56035000D01*
X110201898Y-55995226D01*
X110390256Y-55917205D01*
X110559774Y-55803937D01*
X110703937Y-55659774D01*
X110817205Y-55490256D01*
X110895226Y-55301898D01*
X110935000Y-55101939D01*
X110935000Y-54898061D01*
X110895226Y-54698102D01*
X110817205Y-54509744D01*
X110777285Y-54450000D01*
X110817205Y-54390256D01*
X110895226Y-54201898D01*
X110935000Y-54001939D01*
X110935000Y-53798061D01*
X110895226Y-53598102D01*
X110817205Y-53409744D01*
X110743877Y-53300000D01*
X110817205Y-53190256D01*
X110895226Y-53001898D01*
X110935000Y-52801939D01*
X110935000Y-52598061D01*
X110895226Y-52398102D01*
X110817205Y-52209744D01*
X110777285Y-52150000D01*
X110817205Y-52090256D01*
X110895226Y-51901898D01*
X110935000Y-51701939D01*
X110935000Y-51498061D01*
X110895226Y-51298102D01*
X110817205Y-51109744D01*
X110777285Y-51050000D01*
X110817205Y-50990256D01*
X110895226Y-50801898D01*
X110935000Y-50601939D01*
X110935000Y-50398061D01*
X110895226Y-50198102D01*
X110817205Y-50009744D01*
X110703937Y-49840226D01*
X110559774Y-49696063D01*
X110390256Y-49582795D01*
X110201898Y-49504774D01*
X110001939Y-49465000D01*
X109798061Y-49465000D01*
X109598102Y-49504774D01*
X109409744Y-49582795D01*
X109240226Y-49696063D01*
X109096063Y-49840226D01*
X108982795Y-50009744D01*
X108904774Y-50198102D01*
X108865000Y-50398061D01*
X94124499Y-50398061D01*
X94067205Y-50259744D01*
X93953937Y-50090226D01*
X93911767Y-50048056D01*
X94017205Y-49890256D01*
X94095226Y-49701898D01*
X94135000Y-49501939D01*
X94135000Y-49298061D01*
X94095226Y-49098102D01*
X94017205Y-48909744D01*
X93903937Y-48740226D01*
X93838711Y-48675000D01*
X93903937Y-48609774D01*
X94017205Y-48440256D01*
X94095226Y-48251898D01*
X94127240Y-48090951D01*
X94240226Y-48203937D01*
X94409744Y-48317205D01*
X94598102Y-48395226D01*
X94798061Y-48435000D01*
X95001939Y-48435000D01*
X95201898Y-48395226D01*
X95390256Y-48317205D01*
X95559774Y-48203937D01*
X95700000Y-48063711D01*
X95840226Y-48203937D01*
X96009744Y-48317205D01*
X96198102Y-48395226D01*
X96398061Y-48435000D01*
X96601939Y-48435000D01*
X96801898Y-48395226D01*
X96990256Y-48317205D01*
X97159774Y-48203937D01*
X97303937Y-48059774D01*
X97417205Y-47890256D01*
X97495226Y-47701898D01*
X97535000Y-47501939D01*
X97535000Y-47298061D01*
X97495226Y-47098102D01*
X97417205Y-46909744D01*
X97303937Y-46740226D01*
X97159774Y-46596063D01*
X96990256Y-46482795D01*
X96801898Y-46404774D01*
X96601939Y-46365000D01*
X96398061Y-46365000D01*
X96198102Y-46404774D01*
X96009744Y-46482795D01*
X95840226Y-46596063D01*
X95700000Y-46736289D01*
X95559774Y-46596063D01*
X95397437Y-46487594D01*
X95669063Y-46215968D01*
X95946488Y-45800773D01*
X96137582Y-45339432D01*
X96235000Y-44849676D01*
X96235000Y-44350324D01*
X96138710Y-43866239D01*
X109875501Y-43855557D01*
X109809744Y-43882795D01*
X109640226Y-43996063D01*
X109496063Y-44140226D01*
X109382795Y-44309744D01*
X109304774Y-44498102D01*
X109265000Y-44698061D01*
X109265000Y-44901939D01*
X109304774Y-45101898D01*
X109382795Y-45290256D01*
X109389306Y-45300000D01*
X109382795Y-45309744D01*
X109304774Y-45498102D01*
X109265000Y-45698061D01*
X109265000Y-45901939D01*
X109304774Y-46101898D01*
X109382795Y-46290256D01*
X109422715Y-46350000D01*
X109382795Y-46409744D01*
X109304774Y-46598102D01*
X109265000Y-46798061D01*
X109265000Y-47001939D01*
X109304774Y-47201898D01*
X109382795Y-47390256D01*
X109496063Y-47559774D01*
X109640226Y-47703937D01*
X109809744Y-47817205D01*
X109998102Y-47895226D01*
X110198061Y-47935000D01*
X110401939Y-47935000D01*
X110601898Y-47895226D01*
X110790256Y-47817205D01*
X110959774Y-47703937D01*
X111103937Y-47559774D01*
X111217205Y-47390256D01*
X111295226Y-47201898D01*
X111335000Y-47001939D01*
X111335000Y-46798061D01*
X111295226Y-46598102D01*
X111217205Y-46409744D01*
X111177285Y-46350000D01*
X111217205Y-46290256D01*
X111295226Y-46101898D01*
X111335000Y-45901939D01*
X111335000Y-45835000D01*
X111401939Y-45835000D01*
X111601898Y-45795226D01*
X111790256Y-45717205D01*
X111959774Y-45603937D01*
X112050000Y-45513711D01*
X112140226Y-45603937D01*
X112309744Y-45717205D01*
X112498102Y-45795226D01*
X112698061Y-45835000D01*
X112901939Y-45835000D01*
X113101898Y-45795226D01*
X113290256Y-45717205D01*
X113459774Y-45603937D01*
X113550000Y-45513711D01*
X113640226Y-45603937D01*
X113809744Y-45717205D01*
X113998102Y-45795226D01*
X114198061Y-45835000D01*
X114401939Y-45835000D01*
X114601898Y-45795226D01*
X114790256Y-45717205D01*
X114959774Y-45603937D01*
X115050000Y-45513711D01*
X115140226Y-45603937D01*
X115309744Y-45717205D01*
X115498102Y-45795226D01*
X115698061Y-45835000D01*
X115901939Y-45835000D01*
X116101898Y-45795226D01*
X116290256Y-45717205D01*
X116459774Y-45603937D01*
X116603937Y-45459774D01*
X116717205Y-45290256D01*
X116795226Y-45101898D01*
X116835000Y-44901939D01*
X116835000Y-44798061D01*
X128715000Y-44798061D01*
X128715000Y-45001939D01*
X128754774Y-45201898D01*
X128832795Y-45390256D01*
X128922828Y-45525000D01*
X128832795Y-45659744D01*
X128754774Y-45848102D01*
X128715000Y-46048061D01*
X128715000Y-46251939D01*
X128754774Y-46451898D01*
X128832795Y-46640256D01*
X128946063Y-46809774D01*
X129090226Y-46953937D01*
X129259744Y-47067205D01*
X129448102Y-47145226D01*
X129648061Y-47185000D01*
X129851939Y-47185000D01*
X130051898Y-47145226D01*
X130240256Y-47067205D01*
X130409774Y-46953937D01*
X130500000Y-46863711D01*
X130640226Y-47003937D01*
X130809744Y-47117205D01*
X130998102Y-47195226D01*
X131198061Y-47235000D01*
X131401939Y-47235000D01*
X131601898Y-47195226D01*
X131790256Y-47117205D01*
X131877134Y-47059155D01*
X131796063Y-47140226D01*
X131682795Y-47309744D01*
X131604774Y-47498102D01*
X131565000Y-47698061D01*
X131565000Y-47901939D01*
X131604774Y-48101898D01*
X131682795Y-48290256D01*
X131796063Y-48459774D01*
X131836289Y-48500000D01*
X131796063Y-48540226D01*
X131682795Y-48709744D01*
X131604774Y-48898102D01*
X131565000Y-49098061D01*
X131565000Y-49301939D01*
X131604774Y-49501898D01*
X131682795Y-49690256D01*
X131796063Y-49859774D01*
X131940226Y-50003937D01*
X132109744Y-50117205D01*
X132298102Y-50195226D01*
X132498061Y-50235000D01*
X132701939Y-50235000D01*
X132901898Y-50195226D01*
X133090256Y-50117205D01*
X133259774Y-50003937D01*
X133403937Y-49859774D01*
X133450000Y-49790836D01*
X133496063Y-49859774D01*
X133640226Y-50003937D01*
X133809744Y-50117205D01*
X133998102Y-50195226D01*
X134198061Y-50235000D01*
X134401939Y-50235000D01*
X134601898Y-50195226D01*
X134790256Y-50117205D01*
X134959774Y-50003937D01*
X135050000Y-49913711D01*
X135140226Y-50003937D01*
X135309744Y-50117205D01*
X135498102Y-50195226D01*
X135698061Y-50235000D01*
X135901939Y-50235000D01*
X136101898Y-50195226D01*
X136290256Y-50117205D01*
X136459774Y-50003937D01*
X136603937Y-49859774D01*
X136717205Y-49690256D01*
X136795226Y-49501898D01*
X136835000Y-49301939D01*
X136835000Y-49098061D01*
X136795226Y-48898102D01*
X136717205Y-48709744D01*
X136603937Y-48540226D01*
X136459774Y-48396063D01*
X136290256Y-48282795D01*
X136101898Y-48204774D01*
X135901939Y-48165000D01*
X135698061Y-48165000D01*
X135498102Y-48204774D01*
X135309744Y-48282795D01*
X135140226Y-48396063D01*
X135050000Y-48486289D01*
X134959774Y-48396063D01*
X134790256Y-48282795D01*
X134601898Y-48204774D01*
X134401939Y-48165000D01*
X134198061Y-48165000D01*
X133998102Y-48204774D01*
X133809744Y-48282795D01*
X133640226Y-48396063D01*
X133496063Y-48540226D01*
X133450000Y-48609164D01*
X133403937Y-48540226D01*
X133363711Y-48500000D01*
X133403937Y-48459774D01*
X133517205Y-48290256D01*
X133595226Y-48101898D01*
X133635000Y-47901939D01*
X133635000Y-47698061D01*
X133595226Y-47498102D01*
X133517205Y-47309744D01*
X133403937Y-47140226D01*
X133263711Y-47000000D01*
X133403937Y-46859774D01*
X133517205Y-46690256D01*
X133595226Y-46501898D01*
X133635000Y-46301939D01*
X133635000Y-46098061D01*
X133595226Y-45898102D01*
X133517205Y-45709744D01*
X133410468Y-45550000D01*
X133517205Y-45390256D01*
X133595226Y-45201898D01*
X133635000Y-45001939D01*
X133635000Y-44798061D01*
X133595226Y-44598102D01*
X133517205Y-44409744D01*
X133403937Y-44240226D01*
X133259774Y-44096063D01*
X133090256Y-43982795D01*
X132901898Y-43904774D01*
X132701939Y-43865000D01*
X132498061Y-43865000D01*
X132298102Y-43904774D01*
X132109744Y-43982795D01*
X131950000Y-44089532D01*
X131790256Y-43982795D01*
X131601898Y-43904774D01*
X131401939Y-43865000D01*
X131198061Y-43865000D01*
X130998102Y-43904774D01*
X130809744Y-43982795D01*
X130640226Y-44096063D01*
X130525000Y-44211289D01*
X130409774Y-44096063D01*
X130240256Y-43982795D01*
X130051898Y-43904774D01*
X129851939Y-43865000D01*
X129648061Y-43865000D01*
X129448102Y-43904774D01*
X129259744Y-43982795D01*
X129090226Y-44096063D01*
X128946063Y-44240226D01*
X128832795Y-44409744D01*
X128754774Y-44598102D01*
X128715000Y-44798061D01*
X116835000Y-44798061D01*
X116835000Y-44698061D01*
X116795226Y-44498102D01*
X116717205Y-44309744D01*
X116603937Y-44140226D01*
X116459774Y-43996063D01*
X116290256Y-43882795D01*
X116212602Y-43850630D01*
X146472444Y-43827099D01*
X146294440Y-84590000D01*
G37*
X146294440Y-84590000D02*
X144717581Y-84590000D01*
X144620617Y-84599550D01*
X144496207Y-84637290D01*
X144381550Y-84698575D01*
X144281052Y-84781052D01*
X144198575Y-84881550D01*
X144137290Y-84996207D01*
X144099550Y-85120617D01*
X144086807Y-85250000D01*
X144086821Y-85250143D01*
X144023286Y-85898126D01*
X143835057Y-86521570D01*
X143529323Y-87096573D01*
X143117721Y-87601248D01*
X142615933Y-88016362D01*
X142043077Y-88326104D01*
X141420961Y-88518682D01*
X140761656Y-88587978D01*
X140101874Y-88523286D01*
X139478430Y-88335057D01*
X138903427Y-88029323D01*
X138398752Y-87617721D01*
X137983638Y-87115933D01*
X137673896Y-86543077D01*
X137481318Y-85920961D01*
X137410000Y-85242417D01*
X137410000Y-83217581D01*
X137407251Y-83189671D01*
X137407272Y-83186693D01*
X137406373Y-83177522D01*
X137401311Y-83129360D01*
X137400450Y-83120617D01*
X137400362Y-83120325D01*
X137396173Y-83080473D01*
X137384140Y-83021854D01*
X137372936Y-82963116D01*
X137370272Y-82954294D01*
X137341416Y-82861075D01*
X137318238Y-82805937D01*
X137295825Y-82750463D01*
X137291498Y-82742327D01*
X137245085Y-82656489D01*
X137211645Y-82606913D01*
X137178881Y-82556844D01*
X137173057Y-82549703D01*
X137110855Y-82474514D01*
X137068406Y-82432361D01*
X137026561Y-82389629D01*
X137019460Y-82383755D01*
X136943839Y-82322079D01*
X136894034Y-82288988D01*
X136844650Y-82255174D01*
X136836544Y-82250792D01*
X136750383Y-82204980D01*
X136695091Y-82182191D01*
X136640102Y-82158622D01*
X136631299Y-82155897D01*
X136537881Y-82127692D01*
X136479174Y-82116067D01*
X136420684Y-82103635D01*
X136411530Y-82102673D01*
X136411524Y-82102672D01*
X136411519Y-82102672D01*
X136314402Y-82093150D01*
X136282419Y-82090000D01*
X126692308Y-82090000D01*
X126896632Y-81953475D01*
X127103475Y-81746632D01*
X127265990Y-81503411D01*
X127377932Y-81233158D01*
X127435000Y-80946260D01*
X127435000Y-80653740D01*
X127377932Y-80366842D01*
X127265990Y-80096589D01*
X127103475Y-79853368D01*
X126971620Y-79721513D01*
X127044180Y-79699502D01*
X127154494Y-79640537D01*
X127251185Y-79561185D01*
X127330537Y-79464494D01*
X127389502Y-79354180D01*
X127425812Y-79234482D01*
X127438072Y-79110000D01*
X127438072Y-77410000D01*
X127425812Y-77285518D01*
X127389502Y-77165820D01*
X127330537Y-77055506D01*
X127251185Y-76958815D01*
X127154494Y-76879463D01*
X127044180Y-76820498D01*
X126924482Y-76784188D01*
X126800000Y-76771928D01*
X125100000Y-76771928D01*
X124975518Y-76784188D01*
X124855820Y-76820498D01*
X124745506Y-76879463D01*
X124648815Y-76958815D01*
X124569463Y-77055506D01*
X124510498Y-77165820D01*
X124488487Y-77238380D01*
X124356632Y-77106525D01*
X124113411Y-76944010D01*
X123843158Y-76832068D01*
X123556260Y-76775000D01*
X123263740Y-76775000D01*
X122976842Y-76832068D01*
X122706589Y-76944010D01*
X122463368Y-77106525D01*
X122256525Y-77313368D01*
X122094010Y-77556589D01*
X121982068Y-77826842D01*
X121925000Y-78113740D01*
X121925000Y-78406260D01*
X121982068Y-78693158D01*
X122094010Y-78963411D01*
X122256525Y-79206632D01*
X122463368Y-79413475D01*
X122706589Y-79575990D01*
X122976842Y-79687932D01*
X123263740Y-79745000D01*
X123556260Y-79745000D01*
X123843158Y-79687932D01*
X124113411Y-79575990D01*
X124356632Y-79413475D01*
X124488487Y-79281620D01*
X124510498Y-79354180D01*
X124569463Y-79464494D01*
X124648815Y-79561185D01*
X124745506Y-79640537D01*
X124855820Y-79699502D01*
X124928380Y-79721513D01*
X124796525Y-79853368D01*
X124634010Y-80096589D01*
X124522068Y-80366842D01*
X124465000Y-80653740D01*
X124465000Y-80946260D01*
X124522068Y-81233158D01*
X124634010Y-81503411D01*
X124796525Y-81746632D01*
X125003368Y-81953475D01*
X125207692Y-82090000D01*
X119835224Y-82090000D01*
X119890256Y-82067205D01*
X120059774Y-81953937D01*
X120203937Y-81809774D01*
X120317205Y-81640256D01*
X120395226Y-81451898D01*
X120435000Y-81251939D01*
X120435000Y-81048061D01*
X120395226Y-80848102D01*
X120357262Y-80756449D01*
X120453937Y-80659774D01*
X120567205Y-80490256D01*
X120645226Y-80301898D01*
X120685000Y-80101939D01*
X120685000Y-79898061D01*
X120645226Y-79698102D01*
X120567205Y-79509744D01*
X120453937Y-79340226D01*
X120309774Y-79196063D01*
X120140256Y-79082795D01*
X119951898Y-79004774D01*
X119751939Y-78965000D01*
X119548061Y-78965000D01*
X119348102Y-79004774D01*
X119159744Y-79082795D01*
X118990226Y-79196063D01*
X118846063Y-79340226D01*
X118732795Y-79509744D01*
X118654774Y-79698102D01*
X118615000Y-79898061D01*
X118615000Y-80101939D01*
X118654774Y-80301898D01*
X118692738Y-80393551D01*
X118596063Y-80490226D01*
X118482795Y-80659744D01*
X118404774Y-80848102D01*
X118365000Y-81048061D01*
X118365000Y-81251939D01*
X118404774Y-81451898D01*
X118482795Y-81640256D01*
X118596063Y-81809774D01*
X118740226Y-81953937D01*
X118909744Y-82067205D01*
X118964776Y-82090000D01*
X101221303Y-82090000D01*
X101303411Y-82055990D01*
X101546632Y-81893475D01*
X101753475Y-81686632D01*
X101915990Y-81443411D01*
X102027932Y-81173158D01*
X102085000Y-80886260D01*
X102085000Y-80593740D01*
X102027932Y-80306842D01*
X101915990Y-80036589D01*
X101753475Y-79793368D01*
X101708168Y-79748061D01*
X107265000Y-79748061D01*
X107265000Y-79951939D01*
X107304774Y-80151898D01*
X107382795Y-80340256D01*
X107496063Y-80509774D01*
X107640226Y-80653937D01*
X107809744Y-80767205D01*
X107998102Y-80845226D01*
X108198061Y-80885000D01*
X108401939Y-80885000D01*
X108601898Y-80845226D01*
X108790256Y-80767205D01*
X108959774Y-80653937D01*
X108997646Y-80616065D01*
X109004774Y-80651898D01*
X109082795Y-80840256D01*
X109196063Y-81009774D01*
X109340226Y-81153937D01*
X109509744Y-81267205D01*
X109698102Y-81345226D01*
X109898061Y-81385000D01*
X110101939Y-81385000D01*
X110301898Y-81345226D01*
X110490256Y-81267205D01*
X110659774Y-81153937D01*
X110803937Y-81009774D01*
X110917205Y-80840256D01*
X110995226Y-80651898D01*
X111035000Y-80451939D01*
X111035000Y-80248061D01*
X110995226Y-80048102D01*
X110917205Y-79859744D01*
X110803937Y-79690226D01*
X110659774Y-79546063D01*
X110490256Y-79432795D01*
X110301898Y-79354774D01*
X110300317Y-79354459D01*
X110390256Y-79317205D01*
X110559774Y-79203937D01*
X110703937Y-79059774D01*
X110817205Y-78890256D01*
X110895226Y-78701898D01*
X110935000Y-78501939D01*
X110935000Y-78298061D01*
X110895226Y-78098102D01*
X110817205Y-77909744D01*
X110703937Y-77740226D01*
X110559774Y-77596063D01*
X110390256Y-77482795D01*
X110201898Y-77404774D01*
X110001939Y-77365000D01*
X109798061Y-77365000D01*
X109598102Y-77404774D01*
X109409744Y-77482795D01*
X109240226Y-77596063D01*
X109096063Y-77740226D01*
X108982795Y-77909744D01*
X108904774Y-78098102D01*
X108865000Y-78298061D01*
X108865000Y-78501939D01*
X108904774Y-78701898D01*
X108982795Y-78890256D01*
X109096063Y-79059774D01*
X109240226Y-79203937D01*
X109409744Y-79317205D01*
X109598102Y-79395226D01*
X109599683Y-79395541D01*
X109509744Y-79432795D01*
X109340226Y-79546063D01*
X109302354Y-79583935D01*
X109295226Y-79548102D01*
X109217205Y-79359744D01*
X109103937Y-79190226D01*
X108959774Y-79046063D01*
X108790256Y-78932795D01*
X108601898Y-78854774D01*
X108401939Y-78815000D01*
X108198061Y-78815000D01*
X107998102Y-78854774D01*
X107809744Y-78932795D01*
X107640226Y-79046063D01*
X107496063Y-79190226D01*
X107382795Y-79359744D01*
X107304774Y-79548102D01*
X107265000Y-79748061D01*
X101708168Y-79748061D01*
X101621620Y-79661513D01*
X101694180Y-79639502D01*
X101804494Y-79580537D01*
X101901185Y-79501185D01*
X101980537Y-79404494D01*
X102039502Y-79294180D01*
X102075812Y-79174482D01*
X102088072Y-79050000D01*
X102088072Y-77898061D01*
X103965000Y-77898061D01*
X103965000Y-78101939D01*
X104004774Y-78301898D01*
X104082795Y-78490256D01*
X104196063Y-78659774D01*
X104340226Y-78803937D01*
X104509744Y-78917205D01*
X104698102Y-78995226D01*
X104898061Y-79035000D01*
X105101939Y-79035000D01*
X105301898Y-78995226D01*
X105490256Y-78917205D01*
X105659774Y-78803937D01*
X105803937Y-78659774D01*
X105917205Y-78490256D01*
X105995226Y-78301898D01*
X106035000Y-78101939D01*
X106035000Y-77898061D01*
X105995226Y-77698102D01*
X105917205Y-77509744D01*
X105803937Y-77340226D01*
X105659774Y-77196063D01*
X105490256Y-77082795D01*
X105301898Y-77004774D01*
X105101939Y-76965000D01*
X104898061Y-76965000D01*
X104698102Y-77004774D01*
X104509744Y-77082795D01*
X104340226Y-77196063D01*
X104196063Y-77340226D01*
X104082795Y-77509744D01*
X104004774Y-77698102D01*
X103965000Y-77898061D01*
X102088072Y-77898061D01*
X102088072Y-77447815D01*
X102096063Y-77459774D01*
X102240226Y-77603937D01*
X102409744Y-77717205D01*
X102598102Y-77795226D01*
X102798061Y-77835000D01*
X103001939Y-77835000D01*
X103201898Y-77795226D01*
X103390256Y-77717205D01*
X103559774Y-77603937D01*
X103703937Y-77459774D01*
X103817205Y-77290256D01*
X103895226Y-77101898D01*
X103935000Y-76901939D01*
X103935000Y-76698061D01*
X103895226Y-76498102D01*
X103817205Y-76309744D01*
X103703937Y-76140226D01*
X103559774Y-75996063D01*
X103553251Y-75991704D01*
X103609774Y-75953937D01*
X103753937Y-75809774D01*
X103828581Y-75698061D01*
X118165000Y-75698061D01*
X118165000Y-75901939D01*
X118204774Y-76101898D01*
X118282795Y-76290256D01*
X118396063Y-76459774D01*
X118540226Y-76603937D01*
X118709744Y-76717205D01*
X118898102Y-76795226D01*
X119098061Y-76835000D01*
X119301939Y-76835000D01*
X119501898Y-76795226D01*
X119690256Y-76717205D01*
X119859774Y-76603937D01*
X120003937Y-76459774D01*
X120117205Y-76290256D01*
X120195226Y-76101898D01*
X120235000Y-75901939D01*
X120235000Y-75698061D01*
X120195226Y-75498102D01*
X120117205Y-75309744D01*
X120003937Y-75140226D01*
X119859774Y-74996063D01*
X119690256Y-74882795D01*
X119501898Y-74804774D01*
X119301939Y-74765000D01*
X119098061Y-74765000D01*
X118898102Y-74804774D01*
X118709744Y-74882795D01*
X118540226Y-74996063D01*
X118396063Y-75140226D01*
X118282795Y-75309744D01*
X118204774Y-75498102D01*
X118165000Y-75698061D01*
X103828581Y-75698061D01*
X103867205Y-75640256D01*
X103945226Y-75451898D01*
X103985000Y-75251939D01*
X103985000Y-75048061D01*
X103945226Y-74848102D01*
X103887633Y-74709061D01*
X127154000Y-74709061D01*
X127154000Y-74912939D01*
X127193774Y-75112898D01*
X127271795Y-75301256D01*
X127385063Y-75470774D01*
X127529226Y-75614937D01*
X127698744Y-75728205D01*
X127887102Y-75806226D01*
X128087061Y-75846000D01*
X128290939Y-75846000D01*
X128490898Y-75806226D01*
X128679256Y-75728205D01*
X128848774Y-75614937D01*
X128992937Y-75470774D01*
X129106205Y-75301256D01*
X129184226Y-75112898D01*
X129224000Y-74912939D01*
X129224000Y-74709061D01*
X129184226Y-74509102D01*
X129106205Y-74320744D01*
X128992937Y-74151226D01*
X128848774Y-74007063D01*
X128679256Y-73893795D01*
X128490898Y-73815774D01*
X128290939Y-73776000D01*
X128087061Y-73776000D01*
X127887102Y-73815774D01*
X127698744Y-73893795D01*
X127529226Y-74007063D01*
X127385063Y-74151226D01*
X127271795Y-74320744D01*
X127193774Y-74509102D01*
X127154000Y-74709061D01*
X103887633Y-74709061D01*
X103867205Y-74659744D01*
X103753937Y-74490226D01*
X103609774Y-74346063D01*
X103440256Y-74232795D01*
X103251898Y-74154774D01*
X103051939Y-74115000D01*
X102848061Y-74115000D01*
X102648102Y-74154774D01*
X102459744Y-74232795D01*
X102290226Y-74346063D01*
X102146063Y-74490226D01*
X102032795Y-74659744D01*
X101954774Y-74848102D01*
X101915000Y-75048061D01*
X101915000Y-75251939D01*
X101954774Y-75451898D01*
X102032795Y-75640256D01*
X102146063Y-75809774D01*
X102290226Y-75953937D01*
X102296749Y-75958296D01*
X102240226Y-75996063D01*
X102096063Y-76140226D01*
X101982795Y-76309744D01*
X101904774Y-76498102D01*
X101865000Y-76698061D01*
X101865000Y-76869119D01*
X101804494Y-76819463D01*
X101694180Y-76760498D01*
X101574482Y-76724188D01*
X101450000Y-76711928D01*
X101448154Y-76711928D01*
X101609774Y-76603937D01*
X101753937Y-76459774D01*
X101867205Y-76290256D01*
X101945226Y-76101898D01*
X101985000Y-75901939D01*
X101985000Y-75698061D01*
X101945226Y-75498102D01*
X101867205Y-75309744D01*
X101753937Y-75140226D01*
X101609774Y-74996063D01*
X101440256Y-74882795D01*
X101251898Y-74804774D01*
X101051939Y-74765000D01*
X100848061Y-74765000D01*
X100648102Y-74804774D01*
X100459744Y-74882795D01*
X100290226Y-74996063D01*
X100146063Y-75140226D01*
X100032795Y-75309744D01*
X99954774Y-75498102D01*
X99915000Y-75698061D01*
X99915000Y-75901939D01*
X99954774Y-76101898D01*
X100032795Y-76290256D01*
X100146063Y-76459774D01*
X100290226Y-76603937D01*
X100451846Y-76711928D01*
X99750000Y-76711928D01*
X99625518Y-76724188D01*
X99505820Y-76760498D01*
X99395506Y-76819463D01*
X99298815Y-76898815D01*
X99219463Y-76995506D01*
X99160498Y-77105820D01*
X99138487Y-77178380D01*
X99006632Y-77046525D01*
X98763411Y-76884010D01*
X98493158Y-76772068D01*
X98206260Y-76715000D01*
X97913740Y-76715000D01*
X97626842Y-76772068D01*
X97356589Y-76884010D01*
X97113368Y-77046525D01*
X96906525Y-77253368D01*
X96744010Y-77496589D01*
X96632068Y-77766842D01*
X96575000Y-78053740D01*
X96575000Y-78346260D01*
X96632068Y-78633158D01*
X96744010Y-78903411D01*
X96906525Y-79146632D01*
X97113368Y-79353475D01*
X97356589Y-79515990D01*
X97626842Y-79627932D01*
X97913740Y-79685000D01*
X98206260Y-79685000D01*
X98493158Y-79627932D01*
X98763411Y-79515990D01*
X99006632Y-79353475D01*
X99138487Y-79221620D01*
X99160498Y-79294180D01*
X99219463Y-79404494D01*
X99298815Y-79501185D01*
X99395506Y-79580537D01*
X99505820Y-79639502D01*
X99578380Y-79661513D01*
X99446525Y-79793368D01*
X99284010Y-80036589D01*
X99172068Y-80306842D01*
X99115000Y-80593740D01*
X99115000Y-80886260D01*
X99172068Y-81173158D01*
X99284010Y-81443411D01*
X99446525Y-81686632D01*
X99653368Y-81893475D01*
X99896589Y-82055990D01*
X99978697Y-82090000D01*
X94472216Y-82090000D01*
X94583158Y-82067932D01*
X94853411Y-81955990D01*
X95096632Y-81793475D01*
X95303475Y-81586632D01*
X95465990Y-81343411D01*
X95577932Y-81073158D01*
X95635000Y-80786260D01*
X95635000Y-80493740D01*
X95577932Y-80206842D01*
X95465990Y-79936589D01*
X95303475Y-79693368D01*
X95171620Y-79561513D01*
X95244180Y-79539502D01*
X95354494Y-79480537D01*
X95451185Y-79401185D01*
X95530537Y-79304494D01*
X95589502Y-79194180D01*
X95625812Y-79074482D01*
X95638072Y-78950000D01*
X95638072Y-77250000D01*
X95625812Y-77125518D01*
X95589502Y-77005820D01*
X95530537Y-76895506D01*
X95451185Y-76798815D01*
X95354494Y-76719463D01*
X95244180Y-76660498D01*
X95124482Y-76624188D01*
X95000000Y-76611928D01*
X93300000Y-76611928D01*
X93175518Y-76624188D01*
X93055820Y-76660498D01*
X92945506Y-76719463D01*
X92848815Y-76798815D01*
X92769463Y-76895506D01*
X92710498Y-77005820D01*
X92674188Y-77125518D01*
X92661928Y-77250000D01*
X92661928Y-78950000D01*
X92674188Y-79074482D01*
X92710498Y-79194180D01*
X92769463Y-79304494D01*
X92848815Y-79401185D01*
X92945506Y-79480537D01*
X93055820Y-79539502D01*
X93128380Y-79561513D01*
X92996525Y-79693368D01*
X92880000Y-79867760D01*
X92763475Y-79693368D01*
X92556632Y-79486525D01*
X92313411Y-79324010D01*
X92043158Y-79212068D01*
X91756260Y-79155000D01*
X91463740Y-79155000D01*
X91176842Y-79212068D01*
X90906589Y-79324010D01*
X90663368Y-79486525D01*
X90456525Y-79693368D01*
X90340000Y-79867760D01*
X90223475Y-79693368D01*
X90016632Y-79486525D01*
X89773411Y-79324010D01*
X89503158Y-79212068D01*
X89216260Y-79155000D01*
X88923740Y-79155000D01*
X88636842Y-79212068D01*
X88366589Y-79324010D01*
X88123368Y-79486525D01*
X87916525Y-79693368D01*
X87800000Y-79867760D01*
X87683475Y-79693368D01*
X87476632Y-79486525D01*
X87302240Y-79370000D01*
X87476632Y-79253475D01*
X87683475Y-79046632D01*
X87845990Y-78803411D01*
X87957932Y-78533158D01*
X88015000Y-78246260D01*
X88015000Y-77953740D01*
X87957932Y-77666842D01*
X87845990Y-77396589D01*
X87683475Y-77153368D01*
X87476632Y-76946525D01*
X87233411Y-76784010D01*
X86963158Y-76672068D01*
X86676260Y-76615000D01*
X86383740Y-76615000D01*
X86096842Y-76672068D01*
X85826589Y-76784010D01*
X85583368Y-76946525D01*
X85376525Y-77153368D01*
X85214010Y-77396589D01*
X85102068Y-77666842D01*
X85045000Y-77953740D01*
X85045000Y-78246260D01*
X85102068Y-78533158D01*
X85214010Y-78803411D01*
X85376525Y-79046632D01*
X85583368Y-79253475D01*
X85757760Y-79370000D01*
X85583368Y-79486525D01*
X85376525Y-79693368D01*
X85260000Y-79867760D01*
X85143475Y-79693368D01*
X84936632Y-79486525D01*
X84693411Y-79324010D01*
X84423158Y-79212068D01*
X84136260Y-79155000D01*
X83843740Y-79155000D01*
X83556842Y-79212068D01*
X83286589Y-79324010D01*
X83043368Y-79486525D01*
X82836525Y-79693368D01*
X82674010Y-79936589D01*
X82562068Y-80206842D01*
X82505000Y-80493740D01*
X82505000Y-80786260D01*
X82562068Y-81073158D01*
X82674010Y-81343411D01*
X82836525Y-81586632D01*
X83043368Y-81793475D01*
X83286589Y-81955990D01*
X83556842Y-82067932D01*
X83667784Y-82090000D01*
X82322891Y-82090000D01*
X82349610Y-72250000D01*
X82511928Y-72250000D01*
X82511928Y-73950000D01*
X82524188Y-74074482D01*
X82560498Y-74194180D01*
X82619463Y-74304494D01*
X82698815Y-74401185D01*
X82795506Y-74480537D01*
X82905820Y-74539502D01*
X83025518Y-74575812D01*
X83150000Y-74588072D01*
X84850000Y-74588072D01*
X84974482Y-74575812D01*
X85094180Y-74539502D01*
X85204494Y-74480537D01*
X85301185Y-74401185D01*
X85380537Y-74304494D01*
X85439502Y-74194180D01*
X85468659Y-74098061D01*
X97365000Y-74098061D01*
X97365000Y-74301939D01*
X97404774Y-74501898D01*
X97482795Y-74690256D01*
X97596063Y-74859774D01*
X97740226Y-75003937D01*
X97909744Y-75117205D01*
X98098102Y-75195226D01*
X98298061Y-75235000D01*
X98501939Y-75235000D01*
X98701898Y-75195226D01*
X98890256Y-75117205D01*
X99059774Y-75003937D01*
X99203937Y-74859774D01*
X99317205Y-74690256D01*
X99395226Y-74501898D01*
X99435000Y-74301939D01*
X99435000Y-74098061D01*
X99395226Y-73898102D01*
X99317205Y-73709744D01*
X99203937Y-73540226D01*
X99059774Y-73396063D01*
X98890256Y-73282795D01*
X98701898Y-73204774D01*
X98501939Y-73165000D01*
X98298061Y-73165000D01*
X98098102Y-73204774D01*
X97909744Y-73282795D01*
X97740226Y-73396063D01*
X97596063Y-73540226D01*
X97482795Y-73709744D01*
X97404774Y-73898102D01*
X97365000Y-74098061D01*
X85468659Y-74098061D01*
X85475812Y-74074482D01*
X85488072Y-73950000D01*
X85488072Y-72798061D01*
X99135000Y-72798061D01*
X99135000Y-73001939D01*
X99174774Y-73201898D01*
X99252795Y-73390256D01*
X99366063Y-73559774D01*
X99510226Y-73703937D01*
X99679744Y-73817205D01*
X99868102Y-73895226D01*
X100068061Y-73935000D01*
X100271939Y-73935000D01*
X100471898Y-73895226D01*
X100660256Y-73817205D01*
X100829774Y-73703937D01*
X100973937Y-73559774D01*
X101087205Y-73390256D01*
X101165226Y-73201898D01*
X101205000Y-73001939D01*
X101205000Y-72798061D01*
X101165226Y-72598102D01*
X101087205Y-72409744D01*
X100973937Y-72240226D01*
X100829774Y-72096063D01*
X100660256Y-71982795D01*
X100471898Y-71904774D01*
X100271939Y-71865000D01*
X100068061Y-71865000D01*
X99868102Y-71904774D01*
X99679744Y-71982795D01*
X99510226Y-72096063D01*
X99366063Y-72240226D01*
X99252795Y-72409744D01*
X99174774Y-72598102D01*
X99135000Y-72798061D01*
X85488072Y-72798061D01*
X85488072Y-72250000D01*
X85475812Y-72125518D01*
X85439502Y-72005820D01*
X85380537Y-71895506D01*
X85301185Y-71798815D01*
X85204494Y-71719463D01*
X85094180Y-71660498D01*
X85021620Y-71638487D01*
X85153475Y-71506632D01*
X85315990Y-71263411D01*
X85427932Y-70993158D01*
X85485000Y-70706260D01*
X85485000Y-70413740D01*
X85427932Y-70126842D01*
X85315990Y-69856589D01*
X85153475Y-69613368D01*
X84946632Y-69406525D01*
X84703411Y-69244010D01*
X84433158Y-69132068D01*
X84146260Y-69075000D01*
X83853740Y-69075000D01*
X83566842Y-69132068D01*
X83296589Y-69244010D01*
X83053368Y-69406525D01*
X82846525Y-69613368D01*
X82684010Y-69856589D01*
X82572068Y-70126842D01*
X82515000Y-70413740D01*
X82515000Y-70706260D01*
X82572068Y-70993158D01*
X82684010Y-71263411D01*
X82846525Y-71506632D01*
X82978380Y-71638487D01*
X82905820Y-71660498D01*
X82795506Y-71719463D01*
X82698815Y-71798815D01*
X82619463Y-71895506D01*
X82560498Y-72005820D01*
X82524188Y-72125518D01*
X82511928Y-72250000D01*
X82349610Y-72250000D01*
X82366717Y-65950000D01*
X82511928Y-65950000D01*
X82511928Y-67650000D01*
X82524188Y-67774482D01*
X82560498Y-67894180D01*
X82619463Y-68004494D01*
X82698815Y-68101185D01*
X82795506Y-68180537D01*
X82905820Y-68239502D01*
X83025518Y-68275812D01*
X83150000Y-68288072D01*
X84850000Y-68288072D01*
X84974482Y-68275812D01*
X85094180Y-68239502D01*
X85204494Y-68180537D01*
X85301185Y-68101185D01*
X85380537Y-68004494D01*
X85439502Y-67894180D01*
X85475812Y-67774482D01*
X85488072Y-67650000D01*
X85488072Y-66854061D01*
X88265000Y-66854061D01*
X88265000Y-67057939D01*
X88304774Y-67257898D01*
X88382795Y-67446256D01*
X88479510Y-67591000D01*
X88382795Y-67735744D01*
X88304774Y-67924102D01*
X88265000Y-68124061D01*
X88265000Y-68327939D01*
X88304774Y-68527898D01*
X88382795Y-68716256D01*
X88496063Y-68885774D01*
X88640226Y-69029937D01*
X88809744Y-69143205D01*
X88998102Y-69221226D01*
X89198061Y-69261000D01*
X89401939Y-69261000D01*
X89601898Y-69221226D01*
X89790256Y-69143205D01*
X89959774Y-69029937D01*
X90103937Y-68885774D01*
X90217205Y-68716256D01*
X90295226Y-68527898D01*
X90335000Y-68327939D01*
X90335000Y-68124061D01*
X90295226Y-67924102D01*
X90217205Y-67735744D01*
X90120490Y-67591000D01*
X90217205Y-67446256D01*
X90295226Y-67257898D01*
X90335000Y-67057939D01*
X90335000Y-66854061D01*
X90295226Y-66654102D01*
X90217205Y-66465744D01*
X90169445Y-66394266D01*
X90200000Y-66363711D01*
X90340226Y-66503937D01*
X90509744Y-66617205D01*
X90698102Y-66695226D01*
X90898061Y-66735000D01*
X91101939Y-66735000D01*
X91301898Y-66695226D01*
X91490256Y-66617205D01*
X91659774Y-66503937D01*
X91800000Y-66363711D01*
X91940226Y-66503937D01*
X92109744Y-66617205D01*
X92298102Y-66695226D01*
X92498061Y-66735000D01*
X92701939Y-66735000D01*
X92901898Y-66695226D01*
X93090256Y-66617205D01*
X93259774Y-66503937D01*
X93400000Y-66363711D01*
X93478512Y-66442223D01*
X93462795Y-66465744D01*
X93384774Y-66654102D01*
X93345000Y-66854061D01*
X93345000Y-67057939D01*
X93384774Y-67257898D01*
X93462795Y-67446256D01*
X93559510Y-67591000D01*
X93462795Y-67735744D01*
X93384774Y-67924102D01*
X93345000Y-68124061D01*
X93345000Y-68327939D01*
X93384774Y-68527898D01*
X93462795Y-68716256D01*
X93576063Y-68885774D01*
X93720226Y-69029937D01*
X93889744Y-69143205D01*
X94078102Y-69221226D01*
X94278061Y-69261000D01*
X94481939Y-69261000D01*
X94681898Y-69221226D01*
X94870256Y-69143205D01*
X94937818Y-69098061D01*
X104915000Y-69098061D01*
X104915000Y-69301939D01*
X104954774Y-69501898D01*
X105032795Y-69690256D01*
X105146063Y-69859774D01*
X105290226Y-70003937D01*
X105459744Y-70117205D01*
X105648102Y-70195226D01*
X105765000Y-70218478D01*
X105765000Y-70351939D01*
X105804774Y-70551898D01*
X105882795Y-70740256D01*
X105996063Y-70909774D01*
X106140226Y-71053937D01*
X106309744Y-71167205D01*
X106498102Y-71245226D01*
X106698061Y-71285000D01*
X106901939Y-71285000D01*
X107101898Y-71245226D01*
X107290256Y-71167205D01*
X107354599Y-71124212D01*
X107496157Y-71182848D01*
X107696116Y-71222622D01*
X107899994Y-71222622D01*
X108099953Y-71182848D01*
X108288311Y-71104827D01*
X108457829Y-70991559D01*
X108473331Y-70976057D01*
X108609744Y-71067205D01*
X108680119Y-71096355D01*
X108604053Y-71127863D01*
X108434535Y-71241131D01*
X108290372Y-71385294D01*
X108177104Y-71554812D01*
X108099083Y-71743170D01*
X108059309Y-71943129D01*
X108059309Y-72147007D01*
X108099083Y-72346966D01*
X108177104Y-72535324D01*
X108290372Y-72704842D01*
X108434535Y-72849005D01*
X108604053Y-72962273D01*
X108792411Y-73040294D01*
X108877706Y-73057260D01*
X108932795Y-73190256D01*
X109046063Y-73359774D01*
X109190226Y-73503937D01*
X109359744Y-73617205D01*
X109465000Y-73660804D01*
X109465000Y-73701939D01*
X109504774Y-73901898D01*
X109582795Y-74090256D01*
X109696063Y-74259774D01*
X109840226Y-74403937D01*
X110009744Y-74517205D01*
X110198102Y-74595226D01*
X110398061Y-74635000D01*
X110601939Y-74635000D01*
X110801898Y-74595226D01*
X110990256Y-74517205D01*
X111159774Y-74403937D01*
X111303937Y-74259774D01*
X111417205Y-74090256D01*
X111495226Y-73901898D01*
X111535000Y-73701939D01*
X111535000Y-73498061D01*
X111495226Y-73298102D01*
X111417205Y-73109744D01*
X111303937Y-72940226D01*
X111159774Y-72796063D01*
X110990256Y-72682795D01*
X110885000Y-72639196D01*
X110885000Y-72598061D01*
X110845226Y-72398102D01*
X110767205Y-72209744D01*
X110653937Y-72040226D01*
X110509774Y-71896063D01*
X110340256Y-71782795D01*
X110151898Y-71704774D01*
X110066603Y-71687808D01*
X110011514Y-71554812D01*
X109898246Y-71385294D01*
X109754083Y-71241131D01*
X109584565Y-71127863D01*
X109514190Y-71098713D01*
X109590256Y-71067205D01*
X109759774Y-70953937D01*
X109903937Y-70809774D01*
X110017205Y-70640256D01*
X110095226Y-70451898D01*
X110135000Y-70251939D01*
X110135000Y-70048061D01*
X110095226Y-69848102D01*
X110017205Y-69659744D01*
X109903937Y-69490226D01*
X109759774Y-69346063D01*
X109590256Y-69232795D01*
X109401898Y-69154774D01*
X109201939Y-69115000D01*
X108998061Y-69115000D01*
X108798102Y-69154774D01*
X108609744Y-69232795D01*
X108440226Y-69346063D01*
X108424724Y-69361565D01*
X108288311Y-69270417D01*
X108099953Y-69192396D01*
X107899994Y-69152622D01*
X107696116Y-69152622D01*
X107496157Y-69192396D01*
X107307799Y-69270417D01*
X107243456Y-69313410D01*
X107101898Y-69254774D01*
X106985000Y-69231522D01*
X106985000Y-69098061D01*
X106945226Y-68898102D01*
X106867205Y-68709744D01*
X106753937Y-68540226D01*
X106609774Y-68396063D01*
X106440256Y-68282795D01*
X106251898Y-68204774D01*
X106051939Y-68165000D01*
X105848061Y-68165000D01*
X105648102Y-68204774D01*
X105459744Y-68282795D01*
X105290226Y-68396063D01*
X105146063Y-68540226D01*
X105032795Y-68709744D01*
X104954774Y-68898102D01*
X104915000Y-69098061D01*
X94937818Y-69098061D01*
X95039774Y-69029937D01*
X95183937Y-68885774D01*
X95297205Y-68716256D01*
X95375226Y-68527898D01*
X95415000Y-68327939D01*
X95415000Y-68124061D01*
X95375226Y-67924102D01*
X95364440Y-67898061D01*
X117215000Y-67898061D01*
X117215000Y-68101939D01*
X117254774Y-68301898D01*
X117332795Y-68490256D01*
X117446063Y-68659774D01*
X117590226Y-68803937D01*
X117759744Y-68917205D01*
X117929450Y-68987500D01*
X117759744Y-69057795D01*
X117590226Y-69171063D01*
X117446063Y-69315226D01*
X117332795Y-69484744D01*
X117254774Y-69673102D01*
X117215000Y-69873061D01*
X117215000Y-70076939D01*
X117254774Y-70276898D01*
X117332795Y-70465256D01*
X117446063Y-70634774D01*
X117590226Y-70778937D01*
X117759744Y-70892205D01*
X117948102Y-70970226D01*
X118148061Y-71010000D01*
X118351939Y-71010000D01*
X118551898Y-70970226D01*
X118740256Y-70892205D01*
X118909774Y-70778937D01*
X119053937Y-70634774D01*
X119167205Y-70465256D01*
X119245226Y-70276898D01*
X119285000Y-70076939D01*
X119285000Y-69873061D01*
X119245226Y-69673102D01*
X119183077Y-69523061D01*
X120465000Y-69523061D01*
X120465000Y-69726939D01*
X120504774Y-69926898D01*
X120582795Y-70115256D01*
X120696063Y-70284774D01*
X120840226Y-70428937D01*
X121009744Y-70542205D01*
X121198102Y-70620226D01*
X121398061Y-70660000D01*
X121446457Y-70660000D01*
X121546862Y-70810267D01*
X121691025Y-70954430D01*
X121860543Y-71067698D01*
X122048901Y-71145719D01*
X122248860Y-71185493D01*
X122452738Y-71185493D01*
X122652697Y-71145719D01*
X122841055Y-71067698D01*
X123010573Y-70954430D01*
X123154736Y-70810267D01*
X123268004Y-70640749D01*
X123346025Y-70452391D01*
X123385799Y-70252432D01*
X123385799Y-70048554D01*
X123346025Y-69848595D01*
X123268004Y-69660237D01*
X123154736Y-69490719D01*
X123010573Y-69346556D01*
X122841055Y-69233288D01*
X122652697Y-69155267D01*
X122452738Y-69115493D01*
X122404342Y-69115493D01*
X122346822Y-69029409D01*
X122459774Y-68953937D01*
X122603937Y-68809774D01*
X122717205Y-68640256D01*
X122795226Y-68451898D01*
X122835000Y-68251939D01*
X122835000Y-68048061D01*
X122795226Y-67848102D01*
X122717205Y-67659744D01*
X122603937Y-67490226D01*
X122459774Y-67346063D01*
X122394244Y-67302277D01*
X122815000Y-67302277D01*
X122815000Y-67506155D01*
X122854774Y-67706114D01*
X122932795Y-67894472D01*
X123046063Y-68063990D01*
X123190226Y-68208153D01*
X123359744Y-68321421D01*
X123548102Y-68399442D01*
X123748061Y-68439216D01*
X123951939Y-68439216D01*
X124151898Y-68399442D01*
X124340256Y-68321421D01*
X124509774Y-68208153D01*
X124653937Y-68063990D01*
X124711352Y-67978061D01*
X141165000Y-67978061D01*
X141165000Y-68181939D01*
X141204774Y-68381898D01*
X141282795Y-68570256D01*
X141396063Y-68739774D01*
X141540226Y-68883937D01*
X141709744Y-68997205D01*
X141898102Y-69075226D01*
X142098061Y-69115000D01*
X142301939Y-69115000D01*
X142501898Y-69075226D01*
X142690256Y-68997205D01*
X142859774Y-68883937D01*
X143003937Y-68739774D01*
X143081921Y-68623061D01*
X143240000Y-68623061D01*
X143240000Y-68826939D01*
X143279774Y-69026898D01*
X143357795Y-69215256D01*
X143471063Y-69384774D01*
X143615226Y-69528937D01*
X143784744Y-69642205D01*
X143973102Y-69720226D01*
X144173061Y-69760000D01*
X144376939Y-69760000D01*
X144576898Y-69720226D01*
X144765256Y-69642205D01*
X144934774Y-69528937D01*
X145078937Y-69384774D01*
X145192205Y-69215256D01*
X145270226Y-69026898D01*
X145310000Y-68826939D01*
X145310000Y-68623061D01*
X145270226Y-68423102D01*
X145192205Y-68234744D01*
X145078937Y-68065226D01*
X144934774Y-67921063D01*
X144765256Y-67807795D01*
X144576898Y-67729774D01*
X144376939Y-67690000D01*
X144173061Y-67690000D01*
X143973102Y-67729774D01*
X143784744Y-67807795D01*
X143615226Y-67921063D01*
X143471063Y-68065226D01*
X143357795Y-68234744D01*
X143279774Y-68423102D01*
X143240000Y-68623061D01*
X143081921Y-68623061D01*
X143117205Y-68570256D01*
X143195226Y-68381898D01*
X143235000Y-68181939D01*
X143235000Y-67978061D01*
X143195226Y-67778102D01*
X143117205Y-67589744D01*
X143003937Y-67420226D01*
X142859774Y-67276063D01*
X142690256Y-67162795D01*
X142501898Y-67084774D01*
X142301939Y-67045000D01*
X142098061Y-67045000D01*
X141898102Y-67084774D01*
X141709744Y-67162795D01*
X141540226Y-67276063D01*
X141396063Y-67420226D01*
X141282795Y-67589744D01*
X141204774Y-67778102D01*
X141165000Y-67978061D01*
X124711352Y-67978061D01*
X124767205Y-67894472D01*
X124845226Y-67706114D01*
X124885000Y-67506155D01*
X124885000Y-67331882D01*
X125048102Y-67399442D01*
X125248061Y-67439216D01*
X125451939Y-67439216D01*
X125651898Y-67399442D01*
X125840256Y-67321421D01*
X126009774Y-67208153D01*
X126153937Y-67063990D01*
X126267205Y-66894472D01*
X126345226Y-66706114D01*
X126385000Y-66506155D01*
X126385000Y-66302277D01*
X126345226Y-66102318D01*
X126267205Y-65913960D01*
X126153937Y-65744442D01*
X126009774Y-65600279D01*
X126006455Y-65598061D01*
X140065000Y-65598061D01*
X140065000Y-65801939D01*
X140104774Y-66001898D01*
X140182795Y-66190256D01*
X140296063Y-66359774D01*
X140440226Y-66503937D01*
X140609744Y-66617205D01*
X140798102Y-66695226D01*
X140998061Y-66735000D01*
X141201939Y-66735000D01*
X141401898Y-66695226D01*
X141590256Y-66617205D01*
X141759774Y-66503937D01*
X141903937Y-66359774D01*
X142017205Y-66190256D01*
X142095226Y-66001898D01*
X142095989Y-65998061D01*
X143265000Y-65998061D01*
X143265000Y-66201939D01*
X143304774Y-66401898D01*
X143382795Y-66590256D01*
X143496063Y-66759774D01*
X143640226Y-66903937D01*
X143809744Y-67017205D01*
X143998102Y-67095226D01*
X144198061Y-67135000D01*
X144401939Y-67135000D01*
X144601898Y-67095226D01*
X144790256Y-67017205D01*
X144959774Y-66903937D01*
X145103937Y-66759774D01*
X145217205Y-66590256D01*
X145295226Y-66401898D01*
X145335000Y-66201939D01*
X145335000Y-65998061D01*
X145295226Y-65798102D01*
X145217205Y-65609744D01*
X145103937Y-65440226D01*
X144959774Y-65296063D01*
X144790256Y-65182795D01*
X144601898Y-65104774D01*
X144401939Y-65065000D01*
X144198061Y-65065000D01*
X143998102Y-65104774D01*
X143809744Y-65182795D01*
X143640226Y-65296063D01*
X143496063Y-65440226D01*
X143382795Y-65609744D01*
X143304774Y-65798102D01*
X143265000Y-65998061D01*
X142095989Y-65998061D01*
X142135000Y-65801939D01*
X142135000Y-65598061D01*
X142095226Y-65398102D01*
X142017205Y-65209744D01*
X141903937Y-65040226D01*
X141759774Y-64896063D01*
X141590256Y-64782795D01*
X141401898Y-64704774D01*
X141201939Y-64665000D01*
X140998061Y-64665000D01*
X140798102Y-64704774D01*
X140609744Y-64782795D01*
X140440226Y-64896063D01*
X140296063Y-65040226D01*
X140182795Y-65209744D01*
X140104774Y-65398102D01*
X140065000Y-65598061D01*
X126006455Y-65598061D01*
X125840256Y-65487011D01*
X125651898Y-65408990D01*
X125451939Y-65369216D01*
X125248061Y-65369216D01*
X125048102Y-65408990D01*
X124859744Y-65487011D01*
X124690226Y-65600279D01*
X124546063Y-65744442D01*
X124432795Y-65913960D01*
X124354774Y-66102318D01*
X124315000Y-66302277D01*
X124315000Y-66476550D01*
X124151898Y-66408990D01*
X123951939Y-66369216D01*
X123748061Y-66369216D01*
X123548102Y-66408990D01*
X123359744Y-66487011D01*
X123190226Y-66600279D01*
X123046063Y-66744442D01*
X122932795Y-66913960D01*
X122854774Y-67102318D01*
X122815000Y-67302277D01*
X122394244Y-67302277D01*
X122290256Y-67232795D01*
X122101898Y-67154774D01*
X121901939Y-67115000D01*
X121698061Y-67115000D01*
X121498102Y-67154774D01*
X121309744Y-67232795D01*
X121140226Y-67346063D01*
X120996063Y-67490226D01*
X120882795Y-67659744D01*
X120804774Y-67848102D01*
X120765000Y-68048061D01*
X120765000Y-68251939D01*
X120804774Y-68451898D01*
X120882795Y-68640256D01*
X120953178Y-68745591D01*
X120840226Y-68821063D01*
X120696063Y-68965226D01*
X120582795Y-69134744D01*
X120504774Y-69323102D01*
X120465000Y-69523061D01*
X119183077Y-69523061D01*
X119167205Y-69484744D01*
X119053937Y-69315226D01*
X118909774Y-69171063D01*
X118740256Y-69057795D01*
X118570550Y-68987500D01*
X118740256Y-68917205D01*
X118909774Y-68803937D01*
X118925000Y-68788711D01*
X118940226Y-68803937D01*
X119109744Y-68917205D01*
X119298102Y-68995226D01*
X119498061Y-69035000D01*
X119701939Y-69035000D01*
X119901898Y-68995226D01*
X120090256Y-68917205D01*
X120259774Y-68803937D01*
X120403937Y-68659774D01*
X120517205Y-68490256D01*
X120595226Y-68301898D01*
X120635000Y-68101939D01*
X120635000Y-67898061D01*
X120595226Y-67698102D01*
X120517205Y-67509744D01*
X120403937Y-67340226D01*
X120259774Y-67196063D01*
X120090256Y-67082795D01*
X119901898Y-67004774D01*
X119701939Y-66965000D01*
X119498061Y-66965000D01*
X119298102Y-67004774D01*
X119109744Y-67082795D01*
X118940226Y-67196063D01*
X118925000Y-67211289D01*
X118909774Y-67196063D01*
X118740256Y-67082795D01*
X118551898Y-67004774D01*
X118351939Y-66965000D01*
X118148061Y-66965000D01*
X117948102Y-67004774D01*
X117759744Y-67082795D01*
X117590226Y-67196063D01*
X117446063Y-67340226D01*
X117332795Y-67509744D01*
X117254774Y-67698102D01*
X117215000Y-67898061D01*
X95364440Y-67898061D01*
X95297205Y-67735744D01*
X95200490Y-67591000D01*
X95297205Y-67446256D01*
X95375226Y-67257898D01*
X95415000Y-67057939D01*
X95415000Y-66854061D01*
X95375226Y-66654102D01*
X95297205Y-66465744D01*
X95183937Y-66296226D01*
X95101488Y-66213777D01*
X95117205Y-66190256D01*
X95195226Y-66001898D01*
X95235000Y-65801939D01*
X95235000Y-65598061D01*
X95195226Y-65398102D01*
X95117205Y-65209744D01*
X95043877Y-65100000D01*
X95117205Y-64990256D01*
X95151251Y-64908061D01*
X101825000Y-64908061D01*
X101825000Y-65111939D01*
X101864774Y-65311898D01*
X101942795Y-65500256D01*
X102056063Y-65669774D01*
X102200226Y-65813937D01*
X102369744Y-65927205D01*
X102558102Y-66005226D01*
X102758061Y-66045000D01*
X102961939Y-66045000D01*
X103161898Y-66005226D01*
X103350256Y-65927205D01*
X103519774Y-65813937D01*
X103663937Y-65669774D01*
X103777205Y-65500256D01*
X103855226Y-65311898D01*
X103895000Y-65111939D01*
X103895000Y-64908061D01*
X103855226Y-64708102D01*
X103777205Y-64519744D01*
X103663937Y-64350226D01*
X103519774Y-64206063D01*
X103350256Y-64092795D01*
X103161898Y-64014774D01*
X102961939Y-63975000D01*
X102758061Y-63975000D01*
X102558102Y-64014774D01*
X102369744Y-64092795D01*
X102200226Y-64206063D01*
X102056063Y-64350226D01*
X101942795Y-64519744D01*
X101864774Y-64708102D01*
X101825000Y-64908061D01*
X95151251Y-64908061D01*
X95195226Y-64801898D01*
X95235000Y-64601939D01*
X95235000Y-64398061D01*
X95195226Y-64198102D01*
X95117205Y-64009744D01*
X95042582Y-63898061D01*
X114165000Y-63898061D01*
X114165000Y-64101939D01*
X114204774Y-64301898D01*
X114282795Y-64490256D01*
X114396063Y-64659774D01*
X114540226Y-64803937D01*
X114709744Y-64917205D01*
X114898102Y-64995226D01*
X115098061Y-65035000D01*
X115301939Y-65035000D01*
X115501898Y-64995226D01*
X115690256Y-64917205D01*
X115859774Y-64803937D01*
X116003937Y-64659774D01*
X116117205Y-64490256D01*
X116195226Y-64301898D01*
X116235000Y-64101939D01*
X116235000Y-63898061D01*
X116199197Y-63718061D01*
X118985000Y-63718061D01*
X118985000Y-63921939D01*
X119024774Y-64121898D01*
X119102795Y-64310256D01*
X119216063Y-64479774D01*
X119360226Y-64623937D01*
X119529744Y-64737205D01*
X119718102Y-64815226D01*
X119918061Y-64855000D01*
X120121939Y-64855000D01*
X120321898Y-64815226D01*
X120510256Y-64737205D01*
X120679774Y-64623937D01*
X120823937Y-64479774D01*
X120937205Y-64310256D01*
X121015226Y-64121898D01*
X121055000Y-63921939D01*
X121055000Y-63718061D01*
X121015226Y-63518102D01*
X120937205Y-63329744D01*
X120823937Y-63160226D01*
X120679774Y-63016063D01*
X120510256Y-62902795D01*
X120321898Y-62824774D01*
X120121939Y-62785000D01*
X119918061Y-62785000D01*
X119718102Y-62824774D01*
X119529744Y-62902795D01*
X119360226Y-63016063D01*
X119216063Y-63160226D01*
X119102795Y-63329744D01*
X119024774Y-63518102D01*
X118985000Y-63718061D01*
X116199197Y-63718061D01*
X116195226Y-63698102D01*
X116117205Y-63509744D01*
X116003937Y-63340226D01*
X115859774Y-63196063D01*
X115690256Y-63082795D01*
X115501898Y-63004774D01*
X115301939Y-62965000D01*
X115098061Y-62965000D01*
X114898102Y-63004774D01*
X114709744Y-63082795D01*
X114540226Y-63196063D01*
X114396063Y-63340226D01*
X114282795Y-63509744D01*
X114204774Y-63698102D01*
X114165000Y-63898061D01*
X95042582Y-63898061D01*
X95003937Y-63840226D01*
X94859774Y-63696063D01*
X94690256Y-63582795D01*
X94501898Y-63504774D01*
X94301939Y-63465000D01*
X94098061Y-63465000D01*
X93898102Y-63504774D01*
X93709744Y-63582795D01*
X93540226Y-63696063D01*
X93400000Y-63836289D01*
X93259774Y-63696063D01*
X93090256Y-63582795D01*
X92901898Y-63504774D01*
X92701939Y-63465000D01*
X92498061Y-63465000D01*
X92298102Y-63504774D01*
X92109744Y-63582795D01*
X91940226Y-63696063D01*
X91800000Y-63836289D01*
X91659774Y-63696063D01*
X91490256Y-63582795D01*
X91301898Y-63504774D01*
X91101939Y-63465000D01*
X90898061Y-63465000D01*
X90698102Y-63504774D01*
X90509744Y-63582795D01*
X90340226Y-63696063D01*
X90200000Y-63836289D01*
X90059774Y-63696063D01*
X89890256Y-63582795D01*
X89701898Y-63504774D01*
X89501939Y-63465000D01*
X89298061Y-63465000D01*
X89098102Y-63504774D01*
X88909744Y-63582795D01*
X88740226Y-63696063D01*
X88596063Y-63840226D01*
X88482795Y-64009744D01*
X88404774Y-64198102D01*
X88365000Y-64398061D01*
X88365000Y-64601939D01*
X88404774Y-64801898D01*
X88482795Y-64990256D01*
X88556123Y-65100000D01*
X88482795Y-65209744D01*
X88404774Y-65398102D01*
X88365000Y-65598061D01*
X88365000Y-65801939D01*
X88404774Y-66001898D01*
X88482795Y-66190256D01*
X88530555Y-66261734D01*
X88496063Y-66296226D01*
X88382795Y-66465744D01*
X88304774Y-66654102D01*
X88265000Y-66854061D01*
X85488072Y-66854061D01*
X85488072Y-65950000D01*
X85475812Y-65825518D01*
X85439502Y-65705820D01*
X85380537Y-65595506D01*
X85301185Y-65498815D01*
X85204494Y-65419463D01*
X85094180Y-65360498D01*
X84974482Y-65324188D01*
X84850000Y-65311928D01*
X83150000Y-65311928D01*
X83025518Y-65324188D01*
X82905820Y-65360498D01*
X82795506Y-65419463D01*
X82698815Y-65498815D01*
X82619463Y-65595506D01*
X82560498Y-65705820D01*
X82524188Y-65825518D01*
X82511928Y-65950000D01*
X82366717Y-65950000D01*
X82376157Y-62473061D01*
X109040000Y-62473061D01*
X109040000Y-62676939D01*
X109079774Y-62876898D01*
X109157795Y-63065256D01*
X109271063Y-63234774D01*
X109415226Y-63378937D01*
X109584744Y-63492205D01*
X109773102Y-63570226D01*
X109973061Y-63610000D01*
X110176939Y-63610000D01*
X110376898Y-63570226D01*
X110565256Y-63492205D01*
X110734774Y-63378937D01*
X110878937Y-63234774D01*
X110992205Y-63065256D01*
X111070226Y-62876898D01*
X111110000Y-62676939D01*
X111110000Y-62473061D01*
X111070226Y-62273102D01*
X110992205Y-62084744D01*
X110878937Y-61915226D01*
X110734774Y-61771063D01*
X110700349Y-61748061D01*
X111115000Y-61748061D01*
X111115000Y-61951939D01*
X111154774Y-62151898D01*
X111232795Y-62340256D01*
X111346063Y-62509774D01*
X111490226Y-62653937D01*
X111659744Y-62767205D01*
X111848102Y-62845226D01*
X112048061Y-62885000D01*
X112251939Y-62885000D01*
X112451898Y-62845226D01*
X112640256Y-62767205D01*
X112809774Y-62653937D01*
X112953937Y-62509774D01*
X113067205Y-62340256D01*
X113145226Y-62151898D01*
X113185000Y-61951939D01*
X113185000Y-61748061D01*
X113145226Y-61548102D01*
X113067205Y-61359744D01*
X112953937Y-61190226D01*
X112809774Y-61046063D01*
X112775349Y-61023061D01*
X113465000Y-61023061D01*
X113465000Y-61226939D01*
X113504774Y-61426898D01*
X113582795Y-61615256D01*
X113696063Y-61784774D01*
X113840226Y-61928937D01*
X114009744Y-62042205D01*
X114198102Y-62120226D01*
X114398061Y-62160000D01*
X114601939Y-62160000D01*
X114801898Y-62120226D01*
X114990256Y-62042205D01*
X115159774Y-61928937D01*
X115303937Y-61784774D01*
X115417205Y-61615256D01*
X115495226Y-61426898D01*
X115535000Y-61226939D01*
X115535000Y-61023061D01*
X115495226Y-60823102D01*
X115417205Y-60634744D01*
X115303937Y-60465226D01*
X115159774Y-60321063D01*
X114990256Y-60207795D01*
X114801898Y-60129774D01*
X114601939Y-60090000D01*
X114398061Y-60090000D01*
X114198102Y-60129774D01*
X114009744Y-60207795D01*
X113840226Y-60321063D01*
X113696063Y-60465226D01*
X113582795Y-60634744D01*
X113504774Y-60823102D01*
X113465000Y-61023061D01*
X112775349Y-61023061D01*
X112640256Y-60932795D01*
X112451898Y-60854774D01*
X112251939Y-60815000D01*
X112048061Y-60815000D01*
X111848102Y-60854774D01*
X111659744Y-60932795D01*
X111490226Y-61046063D01*
X111346063Y-61190226D01*
X111232795Y-61359744D01*
X111154774Y-61548102D01*
X111115000Y-61748061D01*
X110700349Y-61748061D01*
X110565256Y-61657795D01*
X110376898Y-61579774D01*
X110176939Y-61540000D01*
X109973061Y-61540000D01*
X109773102Y-61579774D01*
X109584744Y-61657795D01*
X109415226Y-61771063D01*
X109271063Y-61915226D01*
X109157795Y-62084744D01*
X109079774Y-62273102D01*
X109040000Y-62473061D01*
X82376157Y-62473061D01*
X82380400Y-60910714D01*
X100177653Y-60910714D01*
X100177653Y-61114592D01*
X100217427Y-61314551D01*
X100295448Y-61502909D01*
X100408716Y-61672427D01*
X100552879Y-61816590D01*
X100722397Y-61929858D01*
X100910755Y-62007879D01*
X101110714Y-62047653D01*
X101314592Y-62047653D01*
X101514551Y-62007879D01*
X101676914Y-61940625D01*
X101740226Y-62003937D01*
X101909744Y-62117205D01*
X102098102Y-62195226D01*
X102298061Y-62235000D01*
X102501939Y-62235000D01*
X102701898Y-62195226D01*
X102890256Y-62117205D01*
X103059774Y-62003937D01*
X103203937Y-61859774D01*
X103317205Y-61690256D01*
X103395226Y-61501898D01*
X103435000Y-61301939D01*
X103435000Y-61098061D01*
X103395226Y-60898102D01*
X103317205Y-60709744D01*
X103203937Y-60540226D01*
X103059774Y-60396063D01*
X102890256Y-60282795D01*
X102701898Y-60204774D01*
X102501939Y-60165000D01*
X102298061Y-60165000D01*
X102098102Y-60204774D01*
X101935739Y-60272028D01*
X101872427Y-60208716D01*
X101702909Y-60095448D01*
X101514551Y-60017427D01*
X101314592Y-59977653D01*
X101110714Y-59977653D01*
X100910755Y-60017427D01*
X100722397Y-60095448D01*
X100552879Y-60208716D01*
X100408716Y-60352879D01*
X100295448Y-60522397D01*
X100217427Y-60710755D01*
X100177653Y-60910714D01*
X82380400Y-60910714D01*
X82391025Y-56998061D01*
X83115000Y-56998061D01*
X83115000Y-57201939D01*
X83154774Y-57401898D01*
X83232795Y-57590256D01*
X83346063Y-57759774D01*
X83490226Y-57903937D01*
X83659744Y-58017205D01*
X83848102Y-58095226D01*
X84048061Y-58135000D01*
X84251939Y-58135000D01*
X84451898Y-58095226D01*
X84640256Y-58017205D01*
X84809774Y-57903937D01*
X84953937Y-57759774D01*
X85067205Y-57590256D01*
X85145226Y-57401898D01*
X85145989Y-57398061D01*
X108965000Y-57398061D01*
X108965000Y-57601939D01*
X109004774Y-57801898D01*
X109082795Y-57990256D01*
X109196063Y-58159774D01*
X109340226Y-58303937D01*
X109509744Y-58417205D01*
X109698102Y-58495226D01*
X109898061Y-58535000D01*
X110101939Y-58535000D01*
X110301898Y-58495226D01*
X110490256Y-58417205D01*
X110659774Y-58303937D01*
X110803937Y-58159774D01*
X110917205Y-57990256D01*
X110995226Y-57801898D01*
X111035000Y-57601939D01*
X111035000Y-57398061D01*
X110995226Y-57198102D01*
X110917205Y-57009744D01*
X110803937Y-56840226D01*
X110659774Y-56696063D01*
X110490256Y-56582795D01*
X110301898Y-56504774D01*
X110101939Y-56465000D01*
X109898061Y-56465000D01*
X109698102Y-56504774D01*
X109509744Y-56582795D01*
X109340226Y-56696063D01*
X109196063Y-56840226D01*
X109082795Y-57009744D01*
X109004774Y-57198102D01*
X108965000Y-57398061D01*
X85145989Y-57398061D01*
X85185000Y-57201939D01*
X85185000Y-56998061D01*
X85145226Y-56798102D01*
X85067205Y-56609744D01*
X84953937Y-56440226D01*
X84809774Y-56296063D01*
X84640256Y-56182795D01*
X84451898Y-56104774D01*
X84251939Y-56065000D01*
X84048061Y-56065000D01*
X83848102Y-56104774D01*
X83659744Y-56182795D01*
X83490226Y-56296063D01*
X83346063Y-56440226D01*
X83232795Y-56609744D01*
X83154774Y-56798102D01*
X83115000Y-56998061D01*
X82391025Y-56998061D01*
X82421439Y-45798061D01*
X82665000Y-45798061D01*
X82665000Y-46001939D01*
X82704774Y-46201898D01*
X82782795Y-46390256D01*
X82896063Y-46559774D01*
X82986289Y-46650000D01*
X82896063Y-46740226D01*
X82782795Y-46909744D01*
X82704774Y-47098102D01*
X82665000Y-47298061D01*
X82665000Y-47501939D01*
X82704774Y-47701898D01*
X82782795Y-47890256D01*
X82896063Y-48059774D01*
X82986289Y-48150000D01*
X82896063Y-48240226D01*
X82782795Y-48409744D01*
X82704774Y-48598102D01*
X82665000Y-48798061D01*
X82665000Y-49001939D01*
X82704774Y-49201898D01*
X82782795Y-49390256D01*
X82896063Y-49559774D01*
X83036289Y-49700000D01*
X82896063Y-49840226D01*
X82782795Y-50009744D01*
X82704774Y-50198102D01*
X82665000Y-50398061D01*
X82665000Y-50601939D01*
X82704774Y-50801898D01*
X82782795Y-50990256D01*
X82896063Y-51159774D01*
X83040226Y-51303937D01*
X83209744Y-51417205D01*
X83398102Y-51495226D01*
X83598061Y-51535000D01*
X83801939Y-51535000D01*
X84001898Y-51495226D01*
X84190256Y-51417205D01*
X84359774Y-51303937D01*
X84503937Y-51159774D01*
X84520810Y-51134521D01*
X84640226Y-51253937D01*
X84809744Y-51367205D01*
X84998102Y-51445226D01*
X85198061Y-51485000D01*
X85401939Y-51485000D01*
X85601898Y-51445226D01*
X85790256Y-51367205D01*
X85959774Y-51253937D01*
X86103937Y-51109774D01*
X86217205Y-50940256D01*
X86295226Y-50751898D01*
X86335000Y-50551939D01*
X86335000Y-50348061D01*
X86295226Y-50148102D01*
X86217205Y-49959744D01*
X86103937Y-49790226D01*
X85988711Y-49675000D01*
X86103937Y-49559774D01*
X86217205Y-49390256D01*
X86295226Y-49201898D01*
X86335000Y-49001939D01*
X86335000Y-48798061D01*
X86295226Y-48598102D01*
X86217205Y-48409744D01*
X86103937Y-48240226D01*
X86038711Y-48175000D01*
X86153937Y-48059774D01*
X86267205Y-47890256D01*
X86345226Y-47701898D01*
X86385000Y-47501939D01*
X86385000Y-47298061D01*
X86375055Y-47248061D01*
X89065000Y-47248061D01*
X89065000Y-47451939D01*
X89104774Y-47651898D01*
X89182795Y-47840256D01*
X89239419Y-47925000D01*
X89182795Y-48009744D01*
X89104774Y-48198102D01*
X89065000Y-48398061D01*
X89065000Y-48601939D01*
X89104774Y-48801898D01*
X89182795Y-48990256D01*
X89239419Y-49075000D01*
X89182795Y-49159744D01*
X89104774Y-49348102D01*
X89065000Y-49548061D01*
X89065000Y-49751939D01*
X89104774Y-49951898D01*
X89182795Y-50140256D01*
X89239419Y-50225000D01*
X89182795Y-50309744D01*
X89104774Y-50498102D01*
X89065000Y-50698061D01*
X89065000Y-50901939D01*
X89104774Y-51101898D01*
X89182795Y-51290256D01*
X89296063Y-51459774D01*
X89440226Y-51603937D01*
X89609744Y-51717205D01*
X89798102Y-51795226D01*
X89998061Y-51835000D01*
X90201939Y-51835000D01*
X90401898Y-51795226D01*
X90590256Y-51717205D01*
X90759774Y-51603937D01*
X90903937Y-51459774D01*
X91017205Y-51290256D01*
X91095226Y-51101898D01*
X91135000Y-50901939D01*
X91135000Y-50698061D01*
X91095226Y-50498102D01*
X91017205Y-50309744D01*
X90960581Y-50225000D01*
X91017205Y-50140256D01*
X91095226Y-49951898D01*
X91135000Y-49751939D01*
X91135000Y-49548061D01*
X91095226Y-49348102D01*
X91017205Y-49159744D01*
X90960581Y-49075000D01*
X91017205Y-48990256D01*
X91095226Y-48801898D01*
X91135000Y-48601939D01*
X91135000Y-48398061D01*
X91095226Y-48198102D01*
X91017205Y-48009744D01*
X90960581Y-47925000D01*
X91017205Y-47840256D01*
X91095226Y-47651898D01*
X91135000Y-47451939D01*
X91135000Y-47248061D01*
X91095226Y-47048102D01*
X91017205Y-46859744D01*
X90903937Y-46690226D01*
X90759774Y-46546063D01*
X90590256Y-46432795D01*
X90401898Y-46354774D01*
X90201939Y-46315000D01*
X89998061Y-46315000D01*
X89798102Y-46354774D01*
X89609744Y-46432795D01*
X89440226Y-46546063D01*
X89296063Y-46690226D01*
X89182795Y-46859744D01*
X89104774Y-47048102D01*
X89065000Y-47248061D01*
X86375055Y-47248061D01*
X86345226Y-47098102D01*
X86267205Y-46909744D01*
X86153937Y-46740226D01*
X86063711Y-46650000D01*
X86153937Y-46559774D01*
X86267205Y-46390256D01*
X86345226Y-46201898D01*
X86385000Y-46001939D01*
X86385000Y-45798061D01*
X86345226Y-45598102D01*
X86267205Y-45409744D01*
X86153937Y-45240226D01*
X86009774Y-45096063D01*
X85840256Y-44982795D01*
X85651898Y-44904774D01*
X85451939Y-44865000D01*
X85248061Y-44865000D01*
X85048102Y-44904774D01*
X84859744Y-44982795D01*
X84690226Y-45096063D01*
X84546063Y-45240226D01*
X84525000Y-45271749D01*
X84503937Y-45240226D01*
X84359774Y-45096063D01*
X84190256Y-44982795D01*
X84001898Y-44904774D01*
X83801939Y-44865000D01*
X83598061Y-44865000D01*
X83398102Y-44904774D01*
X83209744Y-44982795D01*
X83040226Y-45096063D01*
X82896063Y-45240226D01*
X82782795Y-45409744D01*
X82704774Y-45598102D01*
X82665000Y-45798061D01*
X82421439Y-45798061D01*
X82426656Y-43876902D01*
X91260535Y-43870033D01*
X91165000Y-44350324D01*
X91165000Y-44849676D01*
X91262418Y-45339432D01*
X91453512Y-45800773D01*
X91730937Y-46215968D01*
X92084032Y-46569063D01*
X92499227Y-46846488D01*
X92779377Y-46962530D01*
X92609744Y-47032795D01*
X92440226Y-47146063D01*
X92296063Y-47290226D01*
X92182795Y-47459744D01*
X92104774Y-47648102D01*
X92065000Y-47848061D01*
X92065000Y-48051939D01*
X92104774Y-48251898D01*
X92182795Y-48440256D01*
X92296063Y-48609774D01*
X92361289Y-48675000D01*
X92296063Y-48740226D01*
X92182795Y-48909744D01*
X92104774Y-49098102D01*
X92065000Y-49298061D01*
X92065000Y-49501939D01*
X92104774Y-49701898D01*
X92182795Y-49890256D01*
X92296063Y-50059774D01*
X92338233Y-50101944D01*
X92232795Y-50259744D01*
X92154774Y-50448102D01*
X92115000Y-50648061D01*
X92115000Y-50851939D01*
X92154774Y-51051898D01*
X92232795Y-51240256D01*
X92346063Y-51409774D01*
X92490226Y-51553937D01*
X92659744Y-51667205D01*
X92848102Y-51745226D01*
X93048061Y-51785000D01*
X93251939Y-51785000D01*
X93451898Y-51745226D01*
X93640256Y-51667205D01*
X93809774Y-51553937D01*
X93953937Y-51409774D01*
X94067205Y-51240256D01*
X94145226Y-51051898D01*
X94185000Y-50851939D01*
X94185000Y-50648061D01*
X94145226Y-50448102D01*
X94124499Y-50398061D01*
X108865000Y-50398061D01*
X108865000Y-50601939D01*
X108904774Y-50801898D01*
X108982795Y-50990256D01*
X109022715Y-51050000D01*
X108982795Y-51109744D01*
X108904774Y-51298102D01*
X108865000Y-51498061D01*
X108865000Y-51701939D01*
X108904774Y-51901898D01*
X108982795Y-52090256D01*
X109022715Y-52150000D01*
X108982795Y-52209744D01*
X108904774Y-52398102D01*
X108865000Y-52598061D01*
X108865000Y-52801939D01*
X108904774Y-53001898D01*
X108982795Y-53190256D01*
X109056123Y-53300000D01*
X108982795Y-53409744D01*
X108904774Y-53598102D01*
X108865000Y-53798061D01*
X108865000Y-54001939D01*
X108904774Y-54201898D01*
X108982795Y-54390256D01*
X109022715Y-54450000D01*
X108982795Y-54509744D01*
X108904774Y-54698102D01*
X108865000Y-54898061D01*
X108865000Y-55101939D01*
X108904774Y-55301898D01*
X108982795Y-55490256D01*
X109096063Y-55659774D01*
X109240226Y-55803937D01*
X109409744Y-55917205D01*
X109598102Y-55995226D01*
X109798061Y-56035000D01*
X110001939Y-56035000D01*
X110201898Y-55995226D01*
X110390256Y-55917205D01*
X110559774Y-55803937D01*
X110703937Y-55659774D01*
X110817205Y-55490256D01*
X110895226Y-55301898D01*
X110935000Y-55101939D01*
X110935000Y-54898061D01*
X110895226Y-54698102D01*
X110817205Y-54509744D01*
X110777285Y-54450000D01*
X110817205Y-54390256D01*
X110895226Y-54201898D01*
X110935000Y-54001939D01*
X110935000Y-53798061D01*
X110895226Y-53598102D01*
X110817205Y-53409744D01*
X110743877Y-53300000D01*
X110817205Y-53190256D01*
X110895226Y-53001898D01*
X110935000Y-52801939D01*
X110935000Y-52598061D01*
X110895226Y-52398102D01*
X110817205Y-52209744D01*
X110777285Y-52150000D01*
X110817205Y-52090256D01*
X110895226Y-51901898D01*
X110935000Y-51701939D01*
X110935000Y-51498061D01*
X110895226Y-51298102D01*
X110817205Y-51109744D01*
X110777285Y-51050000D01*
X110817205Y-50990256D01*
X110895226Y-50801898D01*
X110935000Y-50601939D01*
X110935000Y-50398061D01*
X110895226Y-50198102D01*
X110817205Y-50009744D01*
X110703937Y-49840226D01*
X110559774Y-49696063D01*
X110390256Y-49582795D01*
X110201898Y-49504774D01*
X110001939Y-49465000D01*
X109798061Y-49465000D01*
X109598102Y-49504774D01*
X109409744Y-49582795D01*
X109240226Y-49696063D01*
X109096063Y-49840226D01*
X108982795Y-50009744D01*
X108904774Y-50198102D01*
X108865000Y-50398061D01*
X94124499Y-50398061D01*
X94067205Y-50259744D01*
X93953937Y-50090226D01*
X93911767Y-50048056D01*
X94017205Y-49890256D01*
X94095226Y-49701898D01*
X94135000Y-49501939D01*
X94135000Y-49298061D01*
X94095226Y-49098102D01*
X94017205Y-48909744D01*
X93903937Y-48740226D01*
X93838711Y-48675000D01*
X93903937Y-48609774D01*
X94017205Y-48440256D01*
X94095226Y-48251898D01*
X94127240Y-48090951D01*
X94240226Y-48203937D01*
X94409744Y-48317205D01*
X94598102Y-48395226D01*
X94798061Y-48435000D01*
X95001939Y-48435000D01*
X95201898Y-48395226D01*
X95390256Y-48317205D01*
X95559774Y-48203937D01*
X95700000Y-48063711D01*
X95840226Y-48203937D01*
X96009744Y-48317205D01*
X96198102Y-48395226D01*
X96398061Y-48435000D01*
X96601939Y-48435000D01*
X96801898Y-48395226D01*
X96990256Y-48317205D01*
X97159774Y-48203937D01*
X97303937Y-48059774D01*
X97417205Y-47890256D01*
X97495226Y-47701898D01*
X97535000Y-47501939D01*
X97535000Y-47298061D01*
X97495226Y-47098102D01*
X97417205Y-46909744D01*
X97303937Y-46740226D01*
X97159774Y-46596063D01*
X96990256Y-46482795D01*
X96801898Y-46404774D01*
X96601939Y-46365000D01*
X96398061Y-46365000D01*
X96198102Y-46404774D01*
X96009744Y-46482795D01*
X95840226Y-46596063D01*
X95700000Y-46736289D01*
X95559774Y-46596063D01*
X95397437Y-46487594D01*
X95669063Y-46215968D01*
X95946488Y-45800773D01*
X96137582Y-45339432D01*
X96235000Y-44849676D01*
X96235000Y-44350324D01*
X96138710Y-43866239D01*
X109875501Y-43855557D01*
X109809744Y-43882795D01*
X109640226Y-43996063D01*
X109496063Y-44140226D01*
X109382795Y-44309744D01*
X109304774Y-44498102D01*
X109265000Y-44698061D01*
X109265000Y-44901939D01*
X109304774Y-45101898D01*
X109382795Y-45290256D01*
X109389306Y-45300000D01*
X109382795Y-45309744D01*
X109304774Y-45498102D01*
X109265000Y-45698061D01*
X109265000Y-45901939D01*
X109304774Y-46101898D01*
X109382795Y-46290256D01*
X109422715Y-46350000D01*
X109382795Y-46409744D01*
X109304774Y-46598102D01*
X109265000Y-46798061D01*
X109265000Y-47001939D01*
X109304774Y-47201898D01*
X109382795Y-47390256D01*
X109496063Y-47559774D01*
X109640226Y-47703937D01*
X109809744Y-47817205D01*
X109998102Y-47895226D01*
X110198061Y-47935000D01*
X110401939Y-47935000D01*
X110601898Y-47895226D01*
X110790256Y-47817205D01*
X110959774Y-47703937D01*
X111103937Y-47559774D01*
X111217205Y-47390256D01*
X111295226Y-47201898D01*
X111335000Y-47001939D01*
X111335000Y-46798061D01*
X111295226Y-46598102D01*
X111217205Y-46409744D01*
X111177285Y-46350000D01*
X111217205Y-46290256D01*
X111295226Y-46101898D01*
X111335000Y-45901939D01*
X111335000Y-45835000D01*
X111401939Y-45835000D01*
X111601898Y-45795226D01*
X111790256Y-45717205D01*
X111959774Y-45603937D01*
X112050000Y-45513711D01*
X112140226Y-45603937D01*
X112309744Y-45717205D01*
X112498102Y-45795226D01*
X112698061Y-45835000D01*
X112901939Y-45835000D01*
X113101898Y-45795226D01*
X113290256Y-45717205D01*
X113459774Y-45603937D01*
X113550000Y-45513711D01*
X113640226Y-45603937D01*
X113809744Y-45717205D01*
X113998102Y-45795226D01*
X114198061Y-45835000D01*
X114401939Y-45835000D01*
X114601898Y-45795226D01*
X114790256Y-45717205D01*
X114959774Y-45603937D01*
X115050000Y-45513711D01*
X115140226Y-45603937D01*
X115309744Y-45717205D01*
X115498102Y-45795226D01*
X115698061Y-45835000D01*
X115901939Y-45835000D01*
X116101898Y-45795226D01*
X116290256Y-45717205D01*
X116459774Y-45603937D01*
X116603937Y-45459774D01*
X116717205Y-45290256D01*
X116795226Y-45101898D01*
X116835000Y-44901939D01*
X116835000Y-44798061D01*
X128715000Y-44798061D01*
X128715000Y-45001939D01*
X128754774Y-45201898D01*
X128832795Y-45390256D01*
X128922828Y-45525000D01*
X128832795Y-45659744D01*
X128754774Y-45848102D01*
X128715000Y-46048061D01*
X128715000Y-46251939D01*
X128754774Y-46451898D01*
X128832795Y-46640256D01*
X128946063Y-46809774D01*
X129090226Y-46953937D01*
X129259744Y-47067205D01*
X129448102Y-47145226D01*
X129648061Y-47185000D01*
X129851939Y-47185000D01*
X130051898Y-47145226D01*
X130240256Y-47067205D01*
X130409774Y-46953937D01*
X130500000Y-46863711D01*
X130640226Y-47003937D01*
X130809744Y-47117205D01*
X130998102Y-47195226D01*
X131198061Y-47235000D01*
X131401939Y-47235000D01*
X131601898Y-47195226D01*
X131790256Y-47117205D01*
X131877134Y-47059155D01*
X131796063Y-47140226D01*
X131682795Y-47309744D01*
X131604774Y-47498102D01*
X131565000Y-47698061D01*
X131565000Y-47901939D01*
X131604774Y-48101898D01*
X131682795Y-48290256D01*
X131796063Y-48459774D01*
X131836289Y-48500000D01*
X131796063Y-48540226D01*
X131682795Y-48709744D01*
X131604774Y-48898102D01*
X131565000Y-49098061D01*
X131565000Y-49301939D01*
X131604774Y-49501898D01*
X131682795Y-49690256D01*
X131796063Y-49859774D01*
X131940226Y-50003937D01*
X132109744Y-50117205D01*
X132298102Y-50195226D01*
X132498061Y-50235000D01*
X132701939Y-50235000D01*
X132901898Y-50195226D01*
X133090256Y-50117205D01*
X133259774Y-50003937D01*
X133403937Y-49859774D01*
X133450000Y-49790836D01*
X133496063Y-49859774D01*
X133640226Y-50003937D01*
X133809744Y-50117205D01*
X133998102Y-50195226D01*
X134198061Y-50235000D01*
X134401939Y-50235000D01*
X134601898Y-50195226D01*
X134790256Y-50117205D01*
X134959774Y-50003937D01*
X135050000Y-49913711D01*
X135140226Y-50003937D01*
X135309744Y-50117205D01*
X135498102Y-50195226D01*
X135698061Y-50235000D01*
X135901939Y-50235000D01*
X136101898Y-50195226D01*
X136290256Y-50117205D01*
X136459774Y-50003937D01*
X136603937Y-49859774D01*
X136717205Y-49690256D01*
X136795226Y-49501898D01*
X136835000Y-49301939D01*
X136835000Y-49098061D01*
X136795226Y-48898102D01*
X136717205Y-48709744D01*
X136603937Y-48540226D01*
X136459774Y-48396063D01*
X136290256Y-48282795D01*
X136101898Y-48204774D01*
X135901939Y-48165000D01*
X135698061Y-48165000D01*
X135498102Y-48204774D01*
X135309744Y-48282795D01*
X135140226Y-48396063D01*
X135050000Y-48486289D01*
X134959774Y-48396063D01*
X134790256Y-48282795D01*
X134601898Y-48204774D01*
X134401939Y-48165000D01*
X134198061Y-48165000D01*
X133998102Y-48204774D01*
X133809744Y-48282795D01*
X133640226Y-48396063D01*
X133496063Y-48540226D01*
X133450000Y-48609164D01*
X133403937Y-48540226D01*
X133363711Y-48500000D01*
X133403937Y-48459774D01*
X133517205Y-48290256D01*
X133595226Y-48101898D01*
X133635000Y-47901939D01*
X133635000Y-47698061D01*
X133595226Y-47498102D01*
X133517205Y-47309744D01*
X133403937Y-47140226D01*
X133263711Y-47000000D01*
X133403937Y-46859774D01*
X133517205Y-46690256D01*
X133595226Y-46501898D01*
X133635000Y-46301939D01*
X133635000Y-46098061D01*
X133595226Y-45898102D01*
X133517205Y-45709744D01*
X133410468Y-45550000D01*
X133517205Y-45390256D01*
X133595226Y-45201898D01*
X133635000Y-45001939D01*
X133635000Y-44798061D01*
X133595226Y-44598102D01*
X133517205Y-44409744D01*
X133403937Y-44240226D01*
X133259774Y-44096063D01*
X133090256Y-43982795D01*
X132901898Y-43904774D01*
X132701939Y-43865000D01*
X132498061Y-43865000D01*
X132298102Y-43904774D01*
X132109744Y-43982795D01*
X131950000Y-44089532D01*
X131790256Y-43982795D01*
X131601898Y-43904774D01*
X131401939Y-43865000D01*
X131198061Y-43865000D01*
X130998102Y-43904774D01*
X130809744Y-43982795D01*
X130640226Y-44096063D01*
X130525000Y-44211289D01*
X130409774Y-44096063D01*
X130240256Y-43982795D01*
X130051898Y-43904774D01*
X129851939Y-43865000D01*
X129648061Y-43865000D01*
X129448102Y-43904774D01*
X129259744Y-43982795D01*
X129090226Y-44096063D01*
X128946063Y-44240226D01*
X128832795Y-44409744D01*
X128754774Y-44598102D01*
X128715000Y-44798061D01*
X116835000Y-44798061D01*
X116835000Y-44698061D01*
X116795226Y-44498102D01*
X116717205Y-44309744D01*
X116603937Y-44140226D01*
X116459774Y-43996063D01*
X116290256Y-43882795D01*
X116212602Y-43850630D01*
X146472444Y-43827099D01*
X146294440Y-84590000D01*
%TD*%
M02*
