%TF.GenerationSoftware,KiCad,Pcbnew,(5.1.6)-1*%
%TF.CreationDate,2021-03-31T23:30:28+02:00*%
%TF.ProjectId,DRIVER_8323_based,44524956-4552-45f3-9833-32335f626173,rev?*%
%TF.SameCoordinates,Original*%
%TF.FileFunction,Copper,L3,Inr*%
%TF.FilePolarity,Positive*%
%FSLAX46Y46*%
G04 Gerber Fmt 4.6, Leading zero omitted, Abs format (unit mm)*
G04 Created by KiCad (PCBNEW (5.1.6)-1) date 2021-03-31 23:30:28*
%MOMM*%
%LPD*%
G01*
G04 APERTURE LIST*
%TA.AperFunction,ViaPad*%
%ADD10O,1.700000X1.700000*%
%TD*%
%TA.AperFunction,ViaPad*%
%ADD11R,1.700000X1.700000*%
%TD*%
%TA.AperFunction,ViaPad*%
%ADD12C,3.800000*%
%TD*%
%TA.AperFunction,ViaPad*%
%ADD13C,5.400000*%
%TD*%
%TA.AperFunction,ViaPad*%
%ADD14C,0.500000*%
%TD*%
%TA.AperFunction,ViaPad*%
%ADD15C,0.800000*%
%TD*%
%TA.AperFunction,ViaPad*%
%ADD16C,1.500000*%
%TD*%
%TA.AperFunction,Conductor*%
%ADD17C,0.254000*%
%TD*%
G04 APERTURE END LIST*
D10*
%TO.N,GND*%
%TO.C,J6*%
X84000000Y-64260000D03*
D11*
%TO.N,+3V3*%
X84000000Y-66800000D03*
%TD*%
D10*
%TO.N,USART1_TX*%
%TO.C,J2*%
X84000000Y-70560000D03*
D11*
%TO.N,USART1_RX*%
X84000000Y-73100000D03*
%TD*%
D10*
%TO.N,NRST*%
%TO.C,J5*%
X83990000Y-80640000D03*
%TO.N,GND*%
X83990000Y-78100000D03*
%TO.N,Net-(J5-Pad8)*%
X86530000Y-80640000D03*
%TO.N,Net-(J5-Pad7)*%
X86530000Y-78100000D03*
%TO.N,SWO*%
X89070000Y-80640000D03*
%TO.N,GND*%
X89070000Y-78100000D03*
%TO.N,SWCLK*%
X91610000Y-80640000D03*
%TO.N,GND*%
X91610000Y-78100000D03*
%TO.N,SWDIO*%
X94150000Y-80640000D03*
D11*
%TO.N,+3V3*%
X94150000Y-78100000D03*
%TD*%
D10*
%TO.N,GND*%
%TO.C,J3*%
X98060000Y-80740000D03*
%TO.N,i2c1_SCL*%
X98060000Y-78200000D03*
%TO.N,+3V3*%
X100600000Y-80740000D03*
D11*
%TO.N,i2c1_SDA*%
X100600000Y-78200000D03*
%TD*%
D10*
%TO.N,GND*%
%TO.C,J1*%
X123410000Y-80800000D03*
%TO.N,encoder_1*%
X123410000Y-78260000D03*
%TO.N,+12V*%
X125950000Y-80800000D03*
D11*
%TO.N,encoder_2*%
X125950000Y-78260000D03*
%TD*%
D12*
%TO.N,GND*%
%TO.C,H7*%
X101100000Y-44600000D03*
%TD*%
%TO.N,+12V*%
%TO.C,H6*%
X93700000Y-44600000D03*
%TD*%
D13*
%TO.N,SHC*%
%TO.C,H5*%
X159000000Y-50250000D03*
%TD*%
%TO.N,SHB*%
%TO.C,H4*%
X159000000Y-62500000D03*
%TD*%
%TO.N,SHA*%
%TO.C,H3*%
X159000000Y-75000000D03*
%TD*%
%TO.N,GND*%
%TO.C,H2*%
X140700000Y-85200000D03*
%TD*%
%TO.N,+48V*%
%TO.C,H1*%
X150700000Y-85200000D03*
%TD*%
D14*
%TO.N,GND*%
%TO.C,U2*%
X130905000Y-65854216D03*
X130905000Y-66879216D03*
X130905000Y-67904216D03*
X129880000Y-65854216D03*
X129880000Y-66879216D03*
X129880000Y-67904216D03*
X128855000Y-65854216D03*
X128855000Y-66879216D03*
X128855000Y-67904216D03*
%TD*%
D15*
%TO.N,SHA*%
X153600000Y-72600000D03*
X153600000Y-71600000D03*
X153600000Y-70600000D03*
X153600000Y-73600000D03*
X152400000Y-70600000D03*
X152400000Y-71600000D03*
X152400000Y-72600000D03*
X152400000Y-73600000D03*
X158100000Y-70700000D03*
X156900000Y-70700000D03*
X155700000Y-70700000D03*
X155700000Y-72000000D03*
X155700000Y-73200000D03*
X156500000Y-78100000D03*
X155300000Y-78100000D03*
X155300000Y-79400000D03*
X156500000Y-79400000D03*
%TO.N,GND*%
X123800000Y-51000000D03*
X121800000Y-51100000D03*
X121800000Y-52500000D03*
X121800000Y-54100000D03*
X121800000Y-49300000D03*
X123800000Y-49300000D03*
X123800000Y-52500000D03*
X123800000Y-54100000D03*
X125800000Y-54100000D03*
X125800000Y-52500000D03*
X125800000Y-50900000D03*
X125900000Y-49300000D03*
X144400000Y-53200000D03*
X122244000Y-73652000D03*
X145500000Y-52200000D03*
X144400000Y-52200000D03*
X143300000Y-52200000D03*
X143300000Y-53200000D03*
X145500000Y-53200000D03*
X145400000Y-58600000D03*
X144300000Y-58600000D03*
X143200000Y-58600000D03*
X143200000Y-57500000D03*
X144300000Y-57500000D03*
X145400000Y-57500000D03*
X143100000Y-79150000D03*
X143100000Y-80150000D03*
X142000000Y-80150000D03*
X142000000Y-79150000D03*
X141000000Y-77450000D03*
X141000000Y-78450000D03*
X139900000Y-78450000D03*
X139900000Y-77450000D03*
X140024990Y-50900000D03*
X144200000Y-50700000D03*
X118800000Y-79200000D03*
X116400000Y-78000000D03*
X115200000Y-78000000D03*
X113200000Y-74000000D03*
X115000000Y-80200000D03*
X118600000Y-65400000D03*
X118600000Y-64200000D03*
X100950000Y-64950000D03*
X98650000Y-71950000D03*
X88550000Y-71050000D03*
X87250000Y-65350000D03*
X95000000Y-58450000D03*
D16*
X91200000Y-56600000D03*
D15*
X117700000Y-66500000D03*
X102450000Y-71850000D03*
X105550000Y-76850000D03*
X100100000Y-74180000D03*
X103020000Y-63300000D03*
X106650000Y-66070000D03*
X113030000Y-81280000D03*
X112200000Y-55000000D03*
X113700000Y-55000000D03*
X115200000Y-55000000D03*
X116700000Y-55000000D03*
X116700000Y-56500000D03*
X118200000Y-56500000D03*
X119000000Y-59300000D03*
X119000000Y-57800000D03*
X132200000Y-52500000D03*
X132200000Y-54100000D03*
X131000000Y-54100000D03*
X131000000Y-52500000D03*
X129800000Y-52500000D03*
X129800000Y-54100000D03*
X128500000Y-54100000D03*
X128500000Y-52500000D03*
X83600000Y-75700000D03*
X141500000Y-70200000D03*
X144200000Y-77500000D03*
X144200000Y-80150000D03*
X145300000Y-79150000D03*
X144200000Y-79150000D03*
X145300000Y-80150000D03*
X105600000Y-80500000D03*
X106900000Y-80550000D03*
X97400000Y-64000000D03*
X144350000Y-60350000D03*
X140600000Y-69354216D03*
X139900000Y-79500000D03*
X139900000Y-80500000D03*
X141000000Y-80500000D03*
X141000000Y-79500000D03*
X138600000Y-79400000D03*
X137500000Y-80400000D03*
X137500000Y-79400000D03*
X138600000Y-80400000D03*
%TO.N,+3V3*%
X105000000Y-78000000D03*
X94200000Y-64500000D03*
X92600000Y-64500000D03*
X91000000Y-64500000D03*
X89400000Y-64500000D03*
X94200000Y-65700000D03*
X92600000Y-65700000D03*
X91000000Y-65700000D03*
X89400000Y-65700000D03*
X89300000Y-68226000D03*
X94380000Y-68226000D03*
X119200000Y-75800000D03*
X115200000Y-64000000D03*
X100170000Y-72900000D03*
X102860000Y-65010000D03*
X94380000Y-66956000D03*
X89300000Y-66956000D03*
X120020000Y-63820000D03*
X108300000Y-79850000D03*
%TO.N,+48V*%
X129750000Y-44900000D03*
X129750000Y-46150000D03*
X150600000Y-77200000D03*
X150600000Y-77200000D03*
X150600000Y-78200000D03*
X150600000Y-79200000D03*
X150600000Y-80200000D03*
X149400000Y-80200000D03*
X148200000Y-80200000D03*
X148200000Y-79200000D03*
X148200000Y-78200000D03*
X148200000Y-77200000D03*
X149400000Y-78200000D03*
X149400000Y-79200000D03*
X148600000Y-57800000D03*
X149600000Y-57800000D03*
X150600000Y-57800000D03*
X150600000Y-58800000D03*
X149600000Y-58800000D03*
X148600000Y-58800000D03*
X148600000Y-59800000D03*
X149600000Y-59800000D03*
X150600000Y-59800000D03*
X150600000Y-51600000D03*
X149600000Y-51600000D03*
X148600000Y-51600000D03*
X148600000Y-52600000D03*
X149600000Y-52600000D03*
X150600000Y-52600000D03*
X150600000Y-53600000D03*
X149600000Y-53600000D03*
X148600000Y-53600000D03*
X148600000Y-60800000D03*
X150600000Y-60800000D03*
X150600000Y-54600000D03*
X149600000Y-54600000D03*
X148600000Y-54600000D03*
X115800000Y-44800000D03*
X114300000Y-44800000D03*
X112800000Y-44800000D03*
X111300000Y-44800000D03*
X110300000Y-46900000D03*
X110300000Y-45800000D03*
X110300000Y-44800000D03*
X132600000Y-44900000D03*
X131300000Y-44900000D03*
X131300000Y-46200000D03*
X132600000Y-46200000D03*
X132600000Y-47800000D03*
X132600000Y-49200000D03*
X134300000Y-49200000D03*
X135800000Y-49200000D03*
X149400000Y-77200000D03*
X149600000Y-60800000D03*
X128189000Y-74811000D03*
%TO.N,SHB*%
X154000000Y-64800000D03*
X154000000Y-63800000D03*
X153000000Y-63800000D03*
X153000000Y-66800000D03*
X154000000Y-66800000D03*
X154000000Y-65800000D03*
X153000000Y-65800000D03*
X141100000Y-65700000D03*
X153000000Y-64800000D03*
X142200000Y-68080000D03*
X155550000Y-59150000D03*
X156900000Y-59150000D03*
X155750000Y-65500000D03*
X155750000Y-66750000D03*
X155750000Y-68000000D03*
X158300000Y-59100000D03*
X155550000Y-60450000D03*
X155750000Y-64250000D03*
%TO.N,SPB*%
X144300000Y-66100000D03*
X144275000Y-68725000D03*
%TO.N,SHC*%
X153800000Y-46200000D03*
X152800000Y-45200000D03*
X152800000Y-46200000D03*
X153800000Y-45200000D03*
X153800000Y-48200000D03*
X152800000Y-47200000D03*
X152800000Y-48200000D03*
X153800000Y-47200000D03*
X155900000Y-45600000D03*
X157100000Y-45600000D03*
X158300000Y-45600000D03*
X155900000Y-46700000D03*
X158300000Y-46700000D03*
X157100000Y-46700000D03*
X155700000Y-53600000D03*
X156900000Y-53600000D03*
X158100000Y-53600000D03*
%TO.N,NRST*%
X105950000Y-69200000D03*
X98400000Y-74200000D03*
%TO.N,SWO*%
X109094309Y-72045068D03*
X102950000Y-75150000D03*
%TO.N,SWCLK*%
X109850000Y-72700000D03*
X100950000Y-75800000D03*
%TO.N,SWDIO*%
X110500000Y-73600000D03*
X102900000Y-76800000D03*
%TO.N,TIM1_CH3*%
X119600000Y-68000000D03*
X121800000Y-68150000D03*
%TO.N,TIM1_CH1*%
X118250000Y-69975000D03*
X118250000Y-68000000D03*
%TO.N,TIM1_CH2N*%
X121500000Y-69625000D03*
X123850000Y-67404216D03*
%TO.N,TIM1_CH1N*%
X125350000Y-66404216D03*
X122350799Y-70150493D03*
%TO.N,SOC*%
X114500000Y-61125000D03*
X109100000Y-70150000D03*
%TO.N,SOB*%
X107798055Y-70187622D03*
X112150000Y-61850000D03*
%TO.N,SOA*%
X106800000Y-70250000D03*
X110075000Y-62575000D03*
%TO.N,+12V*%
X84150000Y-57100000D03*
X109900000Y-50500000D03*
X109900000Y-51600000D03*
X109900000Y-52700000D03*
X109900000Y-53900000D03*
X109900000Y-55000000D03*
X96500000Y-47400000D03*
X94900000Y-47400000D03*
X93100000Y-47950000D03*
X90100000Y-47350000D03*
X90100000Y-49650000D03*
X83700000Y-45900000D03*
X83700000Y-47400000D03*
X83700000Y-48900000D03*
X83700000Y-50500000D03*
X93150000Y-50750000D03*
X90100000Y-50800000D03*
X93100000Y-49400000D03*
X90100000Y-48500000D03*
X85350000Y-45900000D03*
X85350000Y-47400000D03*
X85300000Y-48900000D03*
X85300000Y-50450000D03*
X110000000Y-57500000D03*
%TO.N,encoder_1*%
X119400000Y-81150000D03*
X110000000Y-80350000D03*
%TO.N,encoder_2*%
X119650000Y-80000000D03*
X109900000Y-78400000D03*
%TO.N,i2c1_SDA*%
X102400000Y-61200000D03*
%TO.N,i2c1_SCL*%
X101212653Y-61012653D03*
%TD*%
D17*
%TO.N,+12V*%
G36*
X98658486Y-43880337D02*
G01*
X98565000Y-44350324D01*
X98565000Y-44849676D01*
X98662418Y-45339432D01*
X98853512Y-45800773D01*
X99130937Y-46215968D01*
X99484032Y-46569063D01*
X99899227Y-46846488D01*
X100360568Y-47037582D01*
X100850324Y-47135000D01*
X101349676Y-47135000D01*
X101839432Y-47037582D01*
X102300773Y-46846488D01*
X102715968Y-46569063D01*
X103069063Y-46215968D01*
X103346488Y-45800773D01*
X103537582Y-45339432D01*
X103635000Y-44849676D01*
X103635000Y-44350324D01*
X103542566Y-43885623D01*
X108721565Y-43891228D01*
X108673004Y-48194833D01*
X108675165Y-48219635D01*
X108682122Y-48243540D01*
X108693610Y-48265627D01*
X108709186Y-48285050D01*
X108728252Y-48301060D01*
X108750074Y-48313043D01*
X108773816Y-48320538D01*
X108799917Y-48323266D01*
X120673005Y-48330655D01*
X120673000Y-61473000D01*
X115476130Y-61473000D01*
X115495226Y-61426898D01*
X115535000Y-61226939D01*
X115535000Y-61023061D01*
X115495226Y-60823102D01*
X115417205Y-60634744D01*
X115303937Y-60465226D01*
X115159774Y-60321063D01*
X114990256Y-60207795D01*
X114801898Y-60129774D01*
X114601939Y-60090000D01*
X114398061Y-60090000D01*
X114198102Y-60129774D01*
X114009744Y-60207795D01*
X113840226Y-60321063D01*
X113696063Y-60465226D01*
X113582795Y-60634744D01*
X113504774Y-60823102D01*
X113465000Y-61023061D01*
X113465000Y-61226939D01*
X113504774Y-61426898D01*
X113523870Y-61473000D01*
X113114118Y-61473000D01*
X113067205Y-61359744D01*
X112953937Y-61190226D01*
X112809774Y-61046063D01*
X112640256Y-60932795D01*
X112451898Y-60854774D01*
X112251939Y-60815000D01*
X112048061Y-60815000D01*
X111848102Y-60854774D01*
X111659744Y-60932795D01*
X111490226Y-61046063D01*
X111346063Y-61190226D01*
X111232795Y-61359744D01*
X111185882Y-61473000D01*
X110727000Y-61473000D01*
X110727000Y-59200000D01*
X110724560Y-59175224D01*
X110717333Y-59151399D01*
X110705597Y-59129443D01*
X110689803Y-59110197D01*
X110670557Y-59094403D01*
X110648601Y-59082667D01*
X110624776Y-59075440D01*
X110599776Y-59073000D01*
X95811050Y-59099128D01*
X95917205Y-58940256D01*
X95995226Y-58751898D01*
X96035000Y-58551939D01*
X96035000Y-58348061D01*
X95995226Y-58148102D01*
X95917205Y-57959744D01*
X95803937Y-57790226D01*
X95659774Y-57646063D01*
X95490256Y-57532795D01*
X95301898Y-57454774D01*
X95101939Y-57415000D01*
X94898061Y-57415000D01*
X94698102Y-57454774D01*
X94509744Y-57532795D01*
X94340226Y-57646063D01*
X94196063Y-57790226D01*
X94082795Y-57959744D01*
X94004774Y-58148102D01*
X93965000Y-58348061D01*
X93965000Y-58551939D01*
X94004774Y-58751898D01*
X94082795Y-58940256D01*
X94190863Y-59101991D01*
X82427000Y-59122775D01*
X82427000Y-56463589D01*
X89815000Y-56463589D01*
X89815000Y-56736411D01*
X89868225Y-57003989D01*
X89972629Y-57256043D01*
X90124201Y-57482886D01*
X90317114Y-57675799D01*
X90543957Y-57827371D01*
X90796011Y-57931775D01*
X91063589Y-57985000D01*
X91336411Y-57985000D01*
X91603989Y-57931775D01*
X91856043Y-57827371D01*
X92082886Y-57675799D01*
X92275799Y-57482886D01*
X92427371Y-57256043D01*
X92531775Y-57003989D01*
X92585000Y-56736411D01*
X92585000Y-56463589D01*
X92531775Y-56196011D01*
X92427371Y-55943957D01*
X92275799Y-55717114D01*
X92082886Y-55524201D01*
X91856043Y-55372629D01*
X91603989Y-55268225D01*
X91336411Y-55215000D01*
X91063589Y-55215000D01*
X90796011Y-55268225D01*
X90543957Y-55372629D01*
X90317114Y-55524201D01*
X90124201Y-55717114D01*
X89972629Y-55943957D01*
X89868225Y-56196011D01*
X89815000Y-56463589D01*
X82427000Y-56463589D01*
X82427000Y-54898061D01*
X111165000Y-54898061D01*
X111165000Y-55101939D01*
X111204774Y-55301898D01*
X111282795Y-55490256D01*
X111396063Y-55659774D01*
X111540226Y-55803937D01*
X111709744Y-55917205D01*
X111898102Y-55995226D01*
X112098061Y-56035000D01*
X112301939Y-56035000D01*
X112501898Y-55995226D01*
X112690256Y-55917205D01*
X112859774Y-55803937D01*
X112950000Y-55713711D01*
X113040226Y-55803937D01*
X113209744Y-55917205D01*
X113398102Y-55995226D01*
X113598061Y-56035000D01*
X113801939Y-56035000D01*
X114001898Y-55995226D01*
X114190256Y-55917205D01*
X114359774Y-55803937D01*
X114450000Y-55713711D01*
X114540226Y-55803937D01*
X114709744Y-55917205D01*
X114898102Y-55995226D01*
X115098061Y-56035000D01*
X115301939Y-56035000D01*
X115501898Y-55995226D01*
X115690256Y-55917205D01*
X115859774Y-55803937D01*
X115950000Y-55713711D01*
X115986289Y-55750000D01*
X115896063Y-55840226D01*
X115782795Y-56009744D01*
X115704774Y-56198102D01*
X115665000Y-56398061D01*
X115665000Y-56601939D01*
X115704774Y-56801898D01*
X115782795Y-56990256D01*
X115896063Y-57159774D01*
X116040226Y-57303937D01*
X116209744Y-57417205D01*
X116398102Y-57495226D01*
X116598061Y-57535000D01*
X116801939Y-57535000D01*
X117001898Y-57495226D01*
X117190256Y-57417205D01*
X117359774Y-57303937D01*
X117450000Y-57213711D01*
X117540226Y-57303937D01*
X117709744Y-57417205D01*
X117898102Y-57495226D01*
X118001264Y-57515746D01*
X117965000Y-57698061D01*
X117965000Y-57901939D01*
X118004774Y-58101898D01*
X118082795Y-58290256D01*
X118196063Y-58459774D01*
X118286289Y-58550000D01*
X118196063Y-58640226D01*
X118082795Y-58809744D01*
X118004774Y-58998102D01*
X117965000Y-59198061D01*
X117965000Y-59401939D01*
X118004774Y-59601898D01*
X118082795Y-59790256D01*
X118196063Y-59959774D01*
X118340226Y-60103937D01*
X118509744Y-60217205D01*
X118698102Y-60295226D01*
X118898061Y-60335000D01*
X119101939Y-60335000D01*
X119301898Y-60295226D01*
X119490256Y-60217205D01*
X119659774Y-60103937D01*
X119803937Y-59959774D01*
X119917205Y-59790256D01*
X119995226Y-59601898D01*
X120035000Y-59401939D01*
X120035000Y-59198061D01*
X119995226Y-58998102D01*
X119917205Y-58809744D01*
X119803937Y-58640226D01*
X119713711Y-58550000D01*
X119803937Y-58459774D01*
X119917205Y-58290256D01*
X119995226Y-58101898D01*
X120035000Y-57901939D01*
X120035000Y-57698061D01*
X119995226Y-57498102D01*
X119917205Y-57309744D01*
X119803937Y-57140226D01*
X119659774Y-56996063D01*
X119490256Y-56882795D01*
X119301898Y-56804774D01*
X119198736Y-56784254D01*
X119235000Y-56601939D01*
X119235000Y-56398061D01*
X119195226Y-56198102D01*
X119117205Y-56009744D01*
X119003937Y-55840226D01*
X118859774Y-55696063D01*
X118690256Y-55582795D01*
X118501898Y-55504774D01*
X118301939Y-55465000D01*
X118098061Y-55465000D01*
X117898102Y-55504774D01*
X117709744Y-55582795D01*
X117540226Y-55696063D01*
X117450000Y-55786289D01*
X117413711Y-55750000D01*
X117503937Y-55659774D01*
X117617205Y-55490256D01*
X117695226Y-55301898D01*
X117735000Y-55101939D01*
X117735000Y-54898061D01*
X117695226Y-54698102D01*
X117617205Y-54509744D01*
X117503937Y-54340226D01*
X117359774Y-54196063D01*
X117190256Y-54082795D01*
X117001898Y-54004774D01*
X116801939Y-53965000D01*
X116598061Y-53965000D01*
X116398102Y-54004774D01*
X116209744Y-54082795D01*
X116040226Y-54196063D01*
X115950000Y-54286289D01*
X115859774Y-54196063D01*
X115690256Y-54082795D01*
X115501898Y-54004774D01*
X115301939Y-53965000D01*
X115098061Y-53965000D01*
X114898102Y-54004774D01*
X114709744Y-54082795D01*
X114540226Y-54196063D01*
X114450000Y-54286289D01*
X114359774Y-54196063D01*
X114190256Y-54082795D01*
X114001898Y-54004774D01*
X113801939Y-53965000D01*
X113598061Y-53965000D01*
X113398102Y-54004774D01*
X113209744Y-54082795D01*
X113040226Y-54196063D01*
X112950000Y-54286289D01*
X112859774Y-54196063D01*
X112690256Y-54082795D01*
X112501898Y-54004774D01*
X112301939Y-53965000D01*
X112098061Y-53965000D01*
X111898102Y-54004774D01*
X111709744Y-54082795D01*
X111540226Y-54196063D01*
X111396063Y-54340226D01*
X111282795Y-54509744D01*
X111204774Y-54698102D01*
X111165000Y-54898061D01*
X82427000Y-54898061D01*
X82427000Y-43862771D01*
X98658486Y-43880337D01*
G37*
X98658486Y-43880337D02*
X98565000Y-44350324D01*
X98565000Y-44849676D01*
X98662418Y-45339432D01*
X98853512Y-45800773D01*
X99130937Y-46215968D01*
X99484032Y-46569063D01*
X99899227Y-46846488D01*
X100360568Y-47037582D01*
X100850324Y-47135000D01*
X101349676Y-47135000D01*
X101839432Y-47037582D01*
X102300773Y-46846488D01*
X102715968Y-46569063D01*
X103069063Y-46215968D01*
X103346488Y-45800773D01*
X103537582Y-45339432D01*
X103635000Y-44849676D01*
X103635000Y-44350324D01*
X103542566Y-43885623D01*
X108721565Y-43891228D01*
X108673004Y-48194833D01*
X108675165Y-48219635D01*
X108682122Y-48243540D01*
X108693610Y-48265627D01*
X108709186Y-48285050D01*
X108728252Y-48301060D01*
X108750074Y-48313043D01*
X108773816Y-48320538D01*
X108799917Y-48323266D01*
X120673005Y-48330655D01*
X120673000Y-61473000D01*
X115476130Y-61473000D01*
X115495226Y-61426898D01*
X115535000Y-61226939D01*
X115535000Y-61023061D01*
X115495226Y-60823102D01*
X115417205Y-60634744D01*
X115303937Y-60465226D01*
X115159774Y-60321063D01*
X114990256Y-60207795D01*
X114801898Y-60129774D01*
X114601939Y-60090000D01*
X114398061Y-60090000D01*
X114198102Y-60129774D01*
X114009744Y-60207795D01*
X113840226Y-60321063D01*
X113696063Y-60465226D01*
X113582795Y-60634744D01*
X113504774Y-60823102D01*
X113465000Y-61023061D01*
X113465000Y-61226939D01*
X113504774Y-61426898D01*
X113523870Y-61473000D01*
X113114118Y-61473000D01*
X113067205Y-61359744D01*
X112953937Y-61190226D01*
X112809774Y-61046063D01*
X112640256Y-60932795D01*
X112451898Y-60854774D01*
X112251939Y-60815000D01*
X112048061Y-60815000D01*
X111848102Y-60854774D01*
X111659744Y-60932795D01*
X111490226Y-61046063D01*
X111346063Y-61190226D01*
X111232795Y-61359744D01*
X111185882Y-61473000D01*
X110727000Y-61473000D01*
X110727000Y-59200000D01*
X110724560Y-59175224D01*
X110717333Y-59151399D01*
X110705597Y-59129443D01*
X110689803Y-59110197D01*
X110670557Y-59094403D01*
X110648601Y-59082667D01*
X110624776Y-59075440D01*
X110599776Y-59073000D01*
X95811050Y-59099128D01*
X95917205Y-58940256D01*
X95995226Y-58751898D01*
X96035000Y-58551939D01*
X96035000Y-58348061D01*
X95995226Y-58148102D01*
X95917205Y-57959744D01*
X95803937Y-57790226D01*
X95659774Y-57646063D01*
X95490256Y-57532795D01*
X95301898Y-57454774D01*
X95101939Y-57415000D01*
X94898061Y-57415000D01*
X94698102Y-57454774D01*
X94509744Y-57532795D01*
X94340226Y-57646063D01*
X94196063Y-57790226D01*
X94082795Y-57959744D01*
X94004774Y-58148102D01*
X93965000Y-58348061D01*
X93965000Y-58551939D01*
X94004774Y-58751898D01*
X94082795Y-58940256D01*
X94190863Y-59101991D01*
X82427000Y-59122775D01*
X82427000Y-56463589D01*
X89815000Y-56463589D01*
X89815000Y-56736411D01*
X89868225Y-57003989D01*
X89972629Y-57256043D01*
X90124201Y-57482886D01*
X90317114Y-57675799D01*
X90543957Y-57827371D01*
X90796011Y-57931775D01*
X91063589Y-57985000D01*
X91336411Y-57985000D01*
X91603989Y-57931775D01*
X91856043Y-57827371D01*
X92082886Y-57675799D01*
X92275799Y-57482886D01*
X92427371Y-57256043D01*
X92531775Y-57003989D01*
X92585000Y-56736411D01*
X92585000Y-56463589D01*
X92531775Y-56196011D01*
X92427371Y-55943957D01*
X92275799Y-55717114D01*
X92082886Y-55524201D01*
X91856043Y-55372629D01*
X91603989Y-55268225D01*
X91336411Y-55215000D01*
X91063589Y-55215000D01*
X90796011Y-55268225D01*
X90543957Y-55372629D01*
X90317114Y-55524201D01*
X90124201Y-55717114D01*
X89972629Y-55943957D01*
X89868225Y-56196011D01*
X89815000Y-56463589D01*
X82427000Y-56463589D01*
X82427000Y-54898061D01*
X111165000Y-54898061D01*
X111165000Y-55101939D01*
X111204774Y-55301898D01*
X111282795Y-55490256D01*
X111396063Y-55659774D01*
X111540226Y-55803937D01*
X111709744Y-55917205D01*
X111898102Y-55995226D01*
X112098061Y-56035000D01*
X112301939Y-56035000D01*
X112501898Y-55995226D01*
X112690256Y-55917205D01*
X112859774Y-55803937D01*
X112950000Y-55713711D01*
X113040226Y-55803937D01*
X113209744Y-55917205D01*
X113398102Y-55995226D01*
X113598061Y-56035000D01*
X113801939Y-56035000D01*
X114001898Y-55995226D01*
X114190256Y-55917205D01*
X114359774Y-55803937D01*
X114450000Y-55713711D01*
X114540226Y-55803937D01*
X114709744Y-55917205D01*
X114898102Y-55995226D01*
X115098061Y-56035000D01*
X115301939Y-56035000D01*
X115501898Y-55995226D01*
X115690256Y-55917205D01*
X115859774Y-55803937D01*
X115950000Y-55713711D01*
X115986289Y-55750000D01*
X115896063Y-55840226D01*
X115782795Y-56009744D01*
X115704774Y-56198102D01*
X115665000Y-56398061D01*
X115665000Y-56601939D01*
X115704774Y-56801898D01*
X115782795Y-56990256D01*
X115896063Y-57159774D01*
X116040226Y-57303937D01*
X116209744Y-57417205D01*
X116398102Y-57495226D01*
X116598061Y-57535000D01*
X116801939Y-57535000D01*
X117001898Y-57495226D01*
X117190256Y-57417205D01*
X117359774Y-57303937D01*
X117450000Y-57213711D01*
X117540226Y-57303937D01*
X117709744Y-57417205D01*
X117898102Y-57495226D01*
X118001264Y-57515746D01*
X117965000Y-57698061D01*
X117965000Y-57901939D01*
X118004774Y-58101898D01*
X118082795Y-58290256D01*
X118196063Y-58459774D01*
X118286289Y-58550000D01*
X118196063Y-58640226D01*
X118082795Y-58809744D01*
X118004774Y-58998102D01*
X117965000Y-59198061D01*
X117965000Y-59401939D01*
X118004774Y-59601898D01*
X118082795Y-59790256D01*
X118196063Y-59959774D01*
X118340226Y-60103937D01*
X118509744Y-60217205D01*
X118698102Y-60295226D01*
X118898061Y-60335000D01*
X119101939Y-60335000D01*
X119301898Y-60295226D01*
X119490256Y-60217205D01*
X119659774Y-60103937D01*
X119803937Y-59959774D01*
X119917205Y-59790256D01*
X119995226Y-59601898D01*
X120035000Y-59401939D01*
X120035000Y-59198061D01*
X119995226Y-58998102D01*
X119917205Y-58809744D01*
X119803937Y-58640226D01*
X119713711Y-58550000D01*
X119803937Y-58459774D01*
X119917205Y-58290256D01*
X119995226Y-58101898D01*
X120035000Y-57901939D01*
X120035000Y-57698061D01*
X119995226Y-57498102D01*
X119917205Y-57309744D01*
X119803937Y-57140226D01*
X119659774Y-56996063D01*
X119490256Y-56882795D01*
X119301898Y-56804774D01*
X119198736Y-56784254D01*
X119235000Y-56601939D01*
X119235000Y-56398061D01*
X119195226Y-56198102D01*
X119117205Y-56009744D01*
X119003937Y-55840226D01*
X118859774Y-55696063D01*
X118690256Y-55582795D01*
X118501898Y-55504774D01*
X118301939Y-55465000D01*
X118098061Y-55465000D01*
X117898102Y-55504774D01*
X117709744Y-55582795D01*
X117540226Y-55696063D01*
X117450000Y-55786289D01*
X117413711Y-55750000D01*
X117503937Y-55659774D01*
X117617205Y-55490256D01*
X117695226Y-55301898D01*
X117735000Y-55101939D01*
X117735000Y-54898061D01*
X117695226Y-54698102D01*
X117617205Y-54509744D01*
X117503937Y-54340226D01*
X117359774Y-54196063D01*
X117190256Y-54082795D01*
X117001898Y-54004774D01*
X116801939Y-53965000D01*
X116598061Y-53965000D01*
X116398102Y-54004774D01*
X116209744Y-54082795D01*
X116040226Y-54196063D01*
X115950000Y-54286289D01*
X115859774Y-54196063D01*
X115690256Y-54082795D01*
X115501898Y-54004774D01*
X115301939Y-53965000D01*
X115098061Y-53965000D01*
X114898102Y-54004774D01*
X114709744Y-54082795D01*
X114540226Y-54196063D01*
X114450000Y-54286289D01*
X114359774Y-54196063D01*
X114190256Y-54082795D01*
X114001898Y-54004774D01*
X113801939Y-53965000D01*
X113598061Y-53965000D01*
X113398102Y-54004774D01*
X113209744Y-54082795D01*
X113040226Y-54196063D01*
X112950000Y-54286289D01*
X112859774Y-54196063D01*
X112690256Y-54082795D01*
X112501898Y-54004774D01*
X112301939Y-53965000D01*
X112098061Y-53965000D01*
X111898102Y-54004774D01*
X111709744Y-54082795D01*
X111540226Y-54196063D01*
X111396063Y-54340226D01*
X111282795Y-54509744D01*
X111204774Y-54698102D01*
X111165000Y-54898061D01*
X82427000Y-54898061D01*
X82427000Y-43862771D01*
X98658486Y-43880337D01*
%TO.N,+3V3*%
G36*
X109873000Y-61559903D02*
G01*
X109773102Y-61579774D01*
X109584744Y-61657795D01*
X109415226Y-61771063D01*
X109271063Y-61915226D01*
X109157795Y-62084744D01*
X109079774Y-62273102D01*
X109040000Y-62473061D01*
X109040000Y-62676939D01*
X109079774Y-62876898D01*
X109157795Y-63065256D01*
X109271063Y-63234774D01*
X109415226Y-63378937D01*
X109584744Y-63492205D01*
X109773102Y-63570226D01*
X109973061Y-63610000D01*
X110176939Y-63610000D01*
X110376898Y-63570226D01*
X110565256Y-63492205D01*
X110734774Y-63378937D01*
X110878937Y-63234774D01*
X110992205Y-63065256D01*
X111070226Y-62876898D01*
X111110000Y-62676939D01*
X111110000Y-62527000D01*
X111363289Y-62527000D01*
X111490226Y-62653937D01*
X111659744Y-62767205D01*
X111848102Y-62845226D01*
X112048061Y-62885000D01*
X112251939Y-62885000D01*
X112451898Y-62845226D01*
X112640256Y-62767205D01*
X112809774Y-62653937D01*
X112936711Y-62527000D01*
X120673000Y-62527000D01*
X120673000Y-68999742D01*
X120582795Y-69134744D01*
X120504774Y-69323102D01*
X120465000Y-69523061D01*
X120465000Y-69726939D01*
X120504774Y-69926898D01*
X120582795Y-70115256D01*
X120673000Y-70250258D01*
X120673000Y-79837732D01*
X120645226Y-79698102D01*
X120567205Y-79509744D01*
X120453937Y-79340226D01*
X120309774Y-79196063D01*
X120140256Y-79082795D01*
X119951898Y-79004774D01*
X119810864Y-78976721D01*
X119795226Y-78898102D01*
X119717205Y-78709744D01*
X119603937Y-78540226D01*
X119459774Y-78396063D01*
X119290256Y-78282795D01*
X119101898Y-78204774D01*
X118901939Y-78165000D01*
X118698061Y-78165000D01*
X118498102Y-78204774D01*
X118309744Y-78282795D01*
X118140226Y-78396063D01*
X117996063Y-78540226D01*
X117882795Y-78709744D01*
X117804774Y-78898102D01*
X117765000Y-79098061D01*
X117765000Y-79301939D01*
X117804774Y-79501898D01*
X117882795Y-79690256D01*
X117996063Y-79859774D01*
X118140226Y-80003937D01*
X118309744Y-80117205D01*
X118498102Y-80195226D01*
X118639136Y-80223279D01*
X118654774Y-80301898D01*
X118692738Y-80393551D01*
X118596063Y-80490226D01*
X118482795Y-80659744D01*
X118404774Y-80848102D01*
X118365000Y-81048061D01*
X118365000Y-81251939D01*
X118404774Y-81451898D01*
X118482795Y-81640256D01*
X118596063Y-81809774D01*
X118740226Y-81953937D01*
X118909744Y-82067205D01*
X118923734Y-82073000D01*
X113700711Y-82073000D01*
X113833937Y-81939774D01*
X113947205Y-81770256D01*
X114025226Y-81581898D01*
X114065000Y-81381939D01*
X114065000Y-81178061D01*
X114025226Y-80978102D01*
X113947205Y-80789744D01*
X113833937Y-80620226D01*
X113689774Y-80476063D01*
X113520256Y-80362795D01*
X113331898Y-80284774D01*
X113131939Y-80245000D01*
X112928061Y-80245000D01*
X112728102Y-80284774D01*
X112539744Y-80362795D01*
X112370226Y-80476063D01*
X112226063Y-80620226D01*
X112112795Y-80789744D01*
X112034774Y-80978102D01*
X111995000Y-81178061D01*
X111995000Y-81381939D01*
X112034774Y-81581898D01*
X112112795Y-81770256D01*
X112226063Y-81939774D01*
X112359289Y-82073000D01*
X98722345Y-82073000D01*
X98763411Y-82055990D01*
X99006632Y-81893475D01*
X99213475Y-81686632D01*
X99375990Y-81443411D01*
X99487932Y-81173158D01*
X99545000Y-80886260D01*
X99545000Y-80593740D01*
X99506077Y-80398061D01*
X104565000Y-80398061D01*
X104565000Y-80601939D01*
X104604774Y-80801898D01*
X104682795Y-80990256D01*
X104796063Y-81159774D01*
X104940226Y-81303937D01*
X105109744Y-81417205D01*
X105298102Y-81495226D01*
X105498061Y-81535000D01*
X105701939Y-81535000D01*
X105901898Y-81495226D01*
X106090256Y-81417205D01*
X106218083Y-81331794D01*
X106240226Y-81353937D01*
X106409744Y-81467205D01*
X106598102Y-81545226D01*
X106798061Y-81585000D01*
X107001939Y-81585000D01*
X107201898Y-81545226D01*
X107390256Y-81467205D01*
X107559774Y-81353937D01*
X107703937Y-81209774D01*
X107817205Y-81040256D01*
X107895226Y-80851898D01*
X107935000Y-80651939D01*
X107935000Y-80448061D01*
X107895226Y-80248102D01*
X107817205Y-80059744D01*
X107703937Y-79890226D01*
X107559774Y-79746063D01*
X107390256Y-79632795D01*
X107201898Y-79554774D01*
X107001939Y-79515000D01*
X106798061Y-79515000D01*
X106598102Y-79554774D01*
X106409744Y-79632795D01*
X106281917Y-79718206D01*
X106259774Y-79696063D01*
X106090256Y-79582795D01*
X105901898Y-79504774D01*
X105701939Y-79465000D01*
X105498061Y-79465000D01*
X105298102Y-79504774D01*
X105109744Y-79582795D01*
X104940226Y-79696063D01*
X104796063Y-79840226D01*
X104682795Y-80009744D01*
X104604774Y-80198102D01*
X104565000Y-80398061D01*
X99506077Y-80398061D01*
X99487932Y-80306842D01*
X99375990Y-80036589D01*
X99213475Y-79793368D01*
X99006632Y-79586525D01*
X98832240Y-79470000D01*
X99006632Y-79353475D01*
X99138487Y-79221620D01*
X99160498Y-79294180D01*
X99219463Y-79404494D01*
X99298815Y-79501185D01*
X99395506Y-79580537D01*
X99505820Y-79639502D01*
X99625518Y-79675812D01*
X99750000Y-79688072D01*
X101450000Y-79688072D01*
X101574482Y-79675812D01*
X101694180Y-79639502D01*
X101804494Y-79580537D01*
X101901185Y-79501185D01*
X101980537Y-79404494D01*
X102039502Y-79294180D01*
X102075812Y-79174482D01*
X102088072Y-79050000D01*
X102088072Y-78298061D01*
X108865000Y-78298061D01*
X108865000Y-78501939D01*
X108904774Y-78701898D01*
X108982795Y-78890256D01*
X109096063Y-79059774D01*
X109240226Y-79203937D01*
X109409744Y-79317205D01*
X109598102Y-79395226D01*
X109599683Y-79395541D01*
X109509744Y-79432795D01*
X109340226Y-79546063D01*
X109196063Y-79690226D01*
X109082795Y-79859744D01*
X109004774Y-80048102D01*
X108965000Y-80248061D01*
X108965000Y-80451939D01*
X109004774Y-80651898D01*
X109082795Y-80840256D01*
X109196063Y-81009774D01*
X109340226Y-81153937D01*
X109509744Y-81267205D01*
X109698102Y-81345226D01*
X109898061Y-81385000D01*
X110101939Y-81385000D01*
X110301898Y-81345226D01*
X110490256Y-81267205D01*
X110659774Y-81153937D01*
X110803937Y-81009774D01*
X110917205Y-80840256D01*
X110995226Y-80651898D01*
X111035000Y-80451939D01*
X111035000Y-80248061D01*
X111005164Y-80098061D01*
X113965000Y-80098061D01*
X113965000Y-80301939D01*
X114004774Y-80501898D01*
X114082795Y-80690256D01*
X114196063Y-80859774D01*
X114340226Y-81003937D01*
X114509744Y-81117205D01*
X114698102Y-81195226D01*
X114898061Y-81235000D01*
X115101939Y-81235000D01*
X115301898Y-81195226D01*
X115490256Y-81117205D01*
X115659774Y-81003937D01*
X115803937Y-80859774D01*
X115917205Y-80690256D01*
X115995226Y-80501898D01*
X116035000Y-80301939D01*
X116035000Y-80098061D01*
X115995226Y-79898102D01*
X115917205Y-79709744D01*
X115803937Y-79540226D01*
X115659774Y-79396063D01*
X115490256Y-79282795D01*
X115301898Y-79204774D01*
X115101939Y-79165000D01*
X114898061Y-79165000D01*
X114698102Y-79204774D01*
X114509744Y-79282795D01*
X114340226Y-79396063D01*
X114196063Y-79540226D01*
X114082795Y-79709744D01*
X114004774Y-79898102D01*
X113965000Y-80098061D01*
X111005164Y-80098061D01*
X110995226Y-80048102D01*
X110917205Y-79859744D01*
X110803937Y-79690226D01*
X110659774Y-79546063D01*
X110490256Y-79432795D01*
X110301898Y-79354774D01*
X110300317Y-79354459D01*
X110390256Y-79317205D01*
X110559774Y-79203937D01*
X110703937Y-79059774D01*
X110817205Y-78890256D01*
X110895226Y-78701898D01*
X110935000Y-78501939D01*
X110935000Y-78298061D01*
X110895226Y-78098102D01*
X110817205Y-77909744D01*
X110809399Y-77898061D01*
X114165000Y-77898061D01*
X114165000Y-78101939D01*
X114204774Y-78301898D01*
X114282795Y-78490256D01*
X114396063Y-78659774D01*
X114540226Y-78803937D01*
X114709744Y-78917205D01*
X114898102Y-78995226D01*
X115098061Y-79035000D01*
X115301939Y-79035000D01*
X115501898Y-78995226D01*
X115690256Y-78917205D01*
X115800000Y-78843877D01*
X115909744Y-78917205D01*
X116098102Y-78995226D01*
X116298061Y-79035000D01*
X116501939Y-79035000D01*
X116701898Y-78995226D01*
X116890256Y-78917205D01*
X117059774Y-78803937D01*
X117203937Y-78659774D01*
X117317205Y-78490256D01*
X117395226Y-78301898D01*
X117435000Y-78101939D01*
X117435000Y-77898061D01*
X117395226Y-77698102D01*
X117317205Y-77509744D01*
X117203937Y-77340226D01*
X117059774Y-77196063D01*
X116890256Y-77082795D01*
X116701898Y-77004774D01*
X116501939Y-76965000D01*
X116298061Y-76965000D01*
X116098102Y-77004774D01*
X115909744Y-77082795D01*
X115800000Y-77156123D01*
X115690256Y-77082795D01*
X115501898Y-77004774D01*
X115301939Y-76965000D01*
X115098061Y-76965000D01*
X114898102Y-77004774D01*
X114709744Y-77082795D01*
X114540226Y-77196063D01*
X114396063Y-77340226D01*
X114282795Y-77509744D01*
X114204774Y-77698102D01*
X114165000Y-77898061D01*
X110809399Y-77898061D01*
X110703937Y-77740226D01*
X110559774Y-77596063D01*
X110390256Y-77482795D01*
X110201898Y-77404774D01*
X110001939Y-77365000D01*
X109798061Y-77365000D01*
X109598102Y-77404774D01*
X109409744Y-77482795D01*
X109240226Y-77596063D01*
X109096063Y-77740226D01*
X108982795Y-77909744D01*
X108904774Y-78098102D01*
X108865000Y-78298061D01*
X102088072Y-78298061D01*
X102088072Y-77447815D01*
X102096063Y-77459774D01*
X102240226Y-77603937D01*
X102409744Y-77717205D01*
X102598102Y-77795226D01*
X102798061Y-77835000D01*
X103001939Y-77835000D01*
X103201898Y-77795226D01*
X103390256Y-77717205D01*
X103559774Y-77603937D01*
X103703937Y-77459774D01*
X103817205Y-77290256D01*
X103895226Y-77101898D01*
X103935000Y-76901939D01*
X103935000Y-76748061D01*
X104515000Y-76748061D01*
X104515000Y-76951939D01*
X104554774Y-77151898D01*
X104632795Y-77340256D01*
X104746063Y-77509774D01*
X104890226Y-77653937D01*
X105059744Y-77767205D01*
X105248102Y-77845226D01*
X105448061Y-77885000D01*
X105651939Y-77885000D01*
X105851898Y-77845226D01*
X106040256Y-77767205D01*
X106209774Y-77653937D01*
X106353937Y-77509774D01*
X106467205Y-77340256D01*
X106545226Y-77151898D01*
X106585000Y-76951939D01*
X106585000Y-76748061D01*
X106545226Y-76548102D01*
X106467205Y-76359744D01*
X106353937Y-76190226D01*
X106209774Y-76046063D01*
X106040256Y-75932795D01*
X105851898Y-75854774D01*
X105651939Y-75815000D01*
X105448061Y-75815000D01*
X105248102Y-75854774D01*
X105059744Y-75932795D01*
X104890226Y-76046063D01*
X104746063Y-76190226D01*
X104632795Y-76359744D01*
X104554774Y-76548102D01*
X104515000Y-76748061D01*
X103935000Y-76748061D01*
X103935000Y-76698061D01*
X103895226Y-76498102D01*
X103817205Y-76309744D01*
X103703937Y-76140226D01*
X103559774Y-75996063D01*
X103553251Y-75991704D01*
X103609774Y-75953937D01*
X103753937Y-75809774D01*
X103867205Y-75640256D01*
X103945226Y-75451898D01*
X103985000Y-75251939D01*
X103985000Y-75048061D01*
X103945226Y-74848102D01*
X103867205Y-74659744D01*
X103753937Y-74490226D01*
X103609774Y-74346063D01*
X103440256Y-74232795D01*
X103251898Y-74154774D01*
X103051939Y-74115000D01*
X102848061Y-74115000D01*
X102648102Y-74154774D01*
X102459744Y-74232795D01*
X102290226Y-74346063D01*
X102146063Y-74490226D01*
X102032795Y-74659744D01*
X101954774Y-74848102D01*
X101915000Y-75048061D01*
X101915000Y-75251939D01*
X101954774Y-75451898D01*
X102032795Y-75640256D01*
X102146063Y-75809774D01*
X102290226Y-75953937D01*
X102296749Y-75958296D01*
X102240226Y-75996063D01*
X102096063Y-76140226D01*
X101982795Y-76309744D01*
X101904774Y-76498102D01*
X101865000Y-76698061D01*
X101865000Y-76869119D01*
X101804494Y-76819463D01*
X101694180Y-76760498D01*
X101574482Y-76724188D01*
X101450000Y-76711928D01*
X101448154Y-76711928D01*
X101609774Y-76603937D01*
X101753937Y-76459774D01*
X101867205Y-76290256D01*
X101945226Y-76101898D01*
X101985000Y-75901939D01*
X101985000Y-75698061D01*
X101945226Y-75498102D01*
X101867205Y-75309744D01*
X101753937Y-75140226D01*
X101609774Y-74996063D01*
X101440256Y-74882795D01*
X101251898Y-74804774D01*
X101051939Y-74765000D01*
X100953899Y-74765000D01*
X101017205Y-74670256D01*
X101095226Y-74481898D01*
X101135000Y-74281939D01*
X101135000Y-74078061D01*
X101095226Y-73878102D01*
X101017205Y-73689744D01*
X100903937Y-73520226D01*
X100759774Y-73376063D01*
X100590256Y-73262795D01*
X100401898Y-73184774D01*
X100201939Y-73145000D01*
X99998061Y-73145000D01*
X99798102Y-73184774D01*
X99609744Y-73262795D01*
X99440226Y-73376063D01*
X99296063Y-73520226D01*
X99243318Y-73599164D01*
X99203937Y-73540226D01*
X99059774Y-73396063D01*
X98890256Y-73282795D01*
X98701898Y-73204774D01*
X98501939Y-73165000D01*
X98298061Y-73165000D01*
X98098102Y-73204774D01*
X97909744Y-73282795D01*
X97740226Y-73396063D01*
X97596063Y-73540226D01*
X97482795Y-73709744D01*
X97404774Y-73898102D01*
X97365000Y-74098061D01*
X97365000Y-74301939D01*
X97404774Y-74501898D01*
X97482795Y-74690256D01*
X97596063Y-74859774D01*
X97740226Y-75003937D01*
X97909744Y-75117205D01*
X98098102Y-75195226D01*
X98298061Y-75235000D01*
X98501939Y-75235000D01*
X98701898Y-75195226D01*
X98890256Y-75117205D01*
X99059774Y-75003937D01*
X99203937Y-74859774D01*
X99256682Y-74780836D01*
X99296063Y-74839774D01*
X99440226Y-74983937D01*
X99609744Y-75097205D01*
X99798102Y-75175226D01*
X99998061Y-75215000D01*
X100096101Y-75215000D01*
X100032795Y-75309744D01*
X99954774Y-75498102D01*
X99915000Y-75698061D01*
X99915000Y-75901939D01*
X99954774Y-76101898D01*
X100032795Y-76290256D01*
X100146063Y-76459774D01*
X100290226Y-76603937D01*
X100451846Y-76711928D01*
X99750000Y-76711928D01*
X99625518Y-76724188D01*
X99505820Y-76760498D01*
X99395506Y-76819463D01*
X99298815Y-76898815D01*
X99219463Y-76995506D01*
X99160498Y-77105820D01*
X99138487Y-77178380D01*
X99006632Y-77046525D01*
X98763411Y-76884010D01*
X98493158Y-76772068D01*
X98206260Y-76715000D01*
X97913740Y-76715000D01*
X97626842Y-76772068D01*
X97356589Y-76884010D01*
X97113368Y-77046525D01*
X96906525Y-77253368D01*
X96744010Y-77496589D01*
X96632068Y-77766842D01*
X96575000Y-78053740D01*
X96575000Y-78346260D01*
X96632068Y-78633158D01*
X96744010Y-78903411D01*
X96906525Y-79146632D01*
X97113368Y-79353475D01*
X97287760Y-79470000D01*
X97113368Y-79586525D01*
X96906525Y-79793368D01*
X96744010Y-80036589D01*
X96632068Y-80306842D01*
X96575000Y-80593740D01*
X96575000Y-80886260D01*
X96632068Y-81173158D01*
X96744010Y-81443411D01*
X96906525Y-81686632D01*
X97113368Y-81893475D01*
X97356589Y-82055990D01*
X97397655Y-82073000D01*
X94557680Y-82073000D01*
X94583158Y-82067932D01*
X94853411Y-81955990D01*
X95096632Y-81793475D01*
X95303475Y-81586632D01*
X95465990Y-81343411D01*
X95577932Y-81073158D01*
X95635000Y-80786260D01*
X95635000Y-80493740D01*
X95577932Y-80206842D01*
X95465990Y-79936589D01*
X95303475Y-79693368D01*
X95096632Y-79486525D01*
X94853411Y-79324010D01*
X94583158Y-79212068D01*
X94296260Y-79155000D01*
X94003740Y-79155000D01*
X93716842Y-79212068D01*
X93446589Y-79324010D01*
X93203368Y-79486525D01*
X92996525Y-79693368D01*
X92880000Y-79867760D01*
X92763475Y-79693368D01*
X92556632Y-79486525D01*
X92382240Y-79370000D01*
X92556632Y-79253475D01*
X92763475Y-79046632D01*
X92925990Y-78803411D01*
X93037932Y-78533158D01*
X93095000Y-78246260D01*
X93095000Y-77953740D01*
X93037932Y-77666842D01*
X92925990Y-77396589D01*
X92763475Y-77153368D01*
X92556632Y-76946525D01*
X92313411Y-76784010D01*
X92043158Y-76672068D01*
X91756260Y-76615000D01*
X91463740Y-76615000D01*
X91176842Y-76672068D01*
X90906589Y-76784010D01*
X90663368Y-76946525D01*
X90456525Y-77153368D01*
X90340000Y-77327760D01*
X90223475Y-77153368D01*
X90016632Y-76946525D01*
X89773411Y-76784010D01*
X89503158Y-76672068D01*
X89216260Y-76615000D01*
X88923740Y-76615000D01*
X88636842Y-76672068D01*
X88366589Y-76784010D01*
X88123368Y-76946525D01*
X87916525Y-77153368D01*
X87800000Y-77327760D01*
X87683475Y-77153368D01*
X87476632Y-76946525D01*
X87233411Y-76784010D01*
X86963158Y-76672068D01*
X86676260Y-76615000D01*
X86383740Y-76615000D01*
X86096842Y-76672068D01*
X85826589Y-76784010D01*
X85583368Y-76946525D01*
X85376525Y-77153368D01*
X85260000Y-77327760D01*
X85143475Y-77153368D01*
X84936632Y-76946525D01*
X84693411Y-76784010D01*
X84423158Y-76672068D01*
X84136260Y-76615000D01*
X84093556Y-76615000D01*
X84259774Y-76503937D01*
X84403937Y-76359774D01*
X84517205Y-76190256D01*
X84595226Y-76001898D01*
X84635000Y-75801939D01*
X84635000Y-75598061D01*
X84595226Y-75398102D01*
X84517205Y-75209744D01*
X84403937Y-75040226D01*
X84259774Y-74896063D01*
X84090256Y-74782795D01*
X83901898Y-74704774D01*
X83701939Y-74665000D01*
X83498061Y-74665000D01*
X83298102Y-74704774D01*
X83109744Y-74782795D01*
X82940226Y-74896063D01*
X82796063Y-75040226D01*
X82682795Y-75209744D01*
X82604774Y-75398102D01*
X82565000Y-75598061D01*
X82565000Y-75801939D01*
X82604774Y-76001898D01*
X82682795Y-76190256D01*
X82796063Y-76359774D01*
X82940226Y-76503937D01*
X83109744Y-76617205D01*
X83298102Y-76695226D01*
X83435130Y-76722482D01*
X83286589Y-76784010D01*
X83043368Y-76946525D01*
X82836525Y-77153368D01*
X82674010Y-77396589D01*
X82562068Y-77666842D01*
X82505000Y-77953740D01*
X82505000Y-78246260D01*
X82562068Y-78533158D01*
X82674010Y-78803411D01*
X82836525Y-79046632D01*
X83043368Y-79253475D01*
X83217760Y-79370000D01*
X83043368Y-79486525D01*
X82836525Y-79693368D01*
X82674010Y-79936589D01*
X82562068Y-80206842D01*
X82505000Y-80493740D01*
X82505000Y-80786260D01*
X82562068Y-81073158D01*
X82674010Y-81343411D01*
X82836525Y-81586632D01*
X83043368Y-81793475D01*
X83286589Y-81955990D01*
X83556842Y-82067932D01*
X83582320Y-82073000D01*
X82327000Y-82073000D01*
X82327000Y-72250000D01*
X82511928Y-72250000D01*
X82511928Y-73950000D01*
X82524188Y-74074482D01*
X82560498Y-74194180D01*
X82619463Y-74304494D01*
X82698815Y-74401185D01*
X82795506Y-74480537D01*
X82905820Y-74539502D01*
X83025518Y-74575812D01*
X83150000Y-74588072D01*
X84850000Y-74588072D01*
X84974482Y-74575812D01*
X85094180Y-74539502D01*
X85204494Y-74480537D01*
X85301185Y-74401185D01*
X85380537Y-74304494D01*
X85439502Y-74194180D01*
X85475812Y-74074482D01*
X85488072Y-73950000D01*
X85488072Y-72250000D01*
X85475812Y-72125518D01*
X85439502Y-72005820D01*
X85380537Y-71895506D01*
X85301185Y-71798815D01*
X85204494Y-71719463D01*
X85094180Y-71660498D01*
X85021620Y-71638487D01*
X85153475Y-71506632D01*
X85315990Y-71263411D01*
X85427932Y-70993158D01*
X85436902Y-70948061D01*
X87515000Y-70948061D01*
X87515000Y-71151939D01*
X87554774Y-71351898D01*
X87632795Y-71540256D01*
X87746063Y-71709774D01*
X87890226Y-71853937D01*
X88059744Y-71967205D01*
X88248102Y-72045226D01*
X88448061Y-72085000D01*
X88651939Y-72085000D01*
X88851898Y-72045226D01*
X89040256Y-71967205D01*
X89209774Y-71853937D01*
X89215650Y-71848061D01*
X97615000Y-71848061D01*
X97615000Y-72051939D01*
X97654774Y-72251898D01*
X97732795Y-72440256D01*
X97846063Y-72609774D01*
X97990226Y-72753937D01*
X98159744Y-72867205D01*
X98348102Y-72945226D01*
X98548061Y-72985000D01*
X98751939Y-72985000D01*
X98951898Y-72945226D01*
X99140256Y-72867205D01*
X99309774Y-72753937D01*
X99453937Y-72609774D01*
X99567205Y-72440256D01*
X99645226Y-72251898D01*
X99685000Y-72051939D01*
X99685000Y-71848061D01*
X99665109Y-71748061D01*
X101415000Y-71748061D01*
X101415000Y-71951939D01*
X101454774Y-72151898D01*
X101532795Y-72340256D01*
X101646063Y-72509774D01*
X101790226Y-72653937D01*
X101959744Y-72767205D01*
X102148102Y-72845226D01*
X102348061Y-72885000D01*
X102551939Y-72885000D01*
X102751898Y-72845226D01*
X102940256Y-72767205D01*
X103109774Y-72653937D01*
X103253937Y-72509774D01*
X103367205Y-72340256D01*
X103445226Y-72151898D01*
X103485000Y-71951939D01*
X103485000Y-71748061D01*
X103445226Y-71548102D01*
X103367205Y-71359744D01*
X103253937Y-71190226D01*
X103109774Y-71046063D01*
X102940256Y-70932795D01*
X102751898Y-70854774D01*
X102551939Y-70815000D01*
X102348061Y-70815000D01*
X102148102Y-70854774D01*
X101959744Y-70932795D01*
X101790226Y-71046063D01*
X101646063Y-71190226D01*
X101532795Y-71359744D01*
X101454774Y-71548102D01*
X101415000Y-71748061D01*
X99665109Y-71748061D01*
X99645226Y-71648102D01*
X99567205Y-71459744D01*
X99453937Y-71290226D01*
X99309774Y-71146063D01*
X99140256Y-71032795D01*
X98951898Y-70954774D01*
X98751939Y-70915000D01*
X98548061Y-70915000D01*
X98348102Y-70954774D01*
X98159744Y-71032795D01*
X97990226Y-71146063D01*
X97846063Y-71290226D01*
X97732795Y-71459744D01*
X97654774Y-71648102D01*
X97615000Y-71848061D01*
X89215650Y-71848061D01*
X89353937Y-71709774D01*
X89467205Y-71540256D01*
X89545226Y-71351898D01*
X89585000Y-71151939D01*
X89585000Y-70948061D01*
X89545226Y-70748102D01*
X89467205Y-70559744D01*
X89353937Y-70390226D01*
X89209774Y-70246063D01*
X89040256Y-70132795D01*
X88851898Y-70054774D01*
X88651939Y-70015000D01*
X88448061Y-70015000D01*
X88248102Y-70054774D01*
X88059744Y-70132795D01*
X87890226Y-70246063D01*
X87746063Y-70390226D01*
X87632795Y-70559744D01*
X87554774Y-70748102D01*
X87515000Y-70948061D01*
X85436902Y-70948061D01*
X85485000Y-70706260D01*
X85485000Y-70413740D01*
X85427932Y-70126842D01*
X85315990Y-69856589D01*
X85153475Y-69613368D01*
X84946632Y-69406525D01*
X84703411Y-69244010D01*
X84433158Y-69132068D01*
X84262195Y-69098061D01*
X104915000Y-69098061D01*
X104915000Y-69301939D01*
X104954774Y-69501898D01*
X105032795Y-69690256D01*
X105146063Y-69859774D01*
X105290226Y-70003937D01*
X105459744Y-70117205D01*
X105648102Y-70195226D01*
X105765000Y-70218478D01*
X105765000Y-70351939D01*
X105804774Y-70551898D01*
X105882795Y-70740256D01*
X105996063Y-70909774D01*
X106140226Y-71053937D01*
X106309744Y-71167205D01*
X106498102Y-71245226D01*
X106698061Y-71285000D01*
X106901939Y-71285000D01*
X107101898Y-71245226D01*
X107290256Y-71167205D01*
X107354599Y-71124212D01*
X107496157Y-71182848D01*
X107696116Y-71222622D01*
X107899994Y-71222622D01*
X108099953Y-71182848D01*
X108288311Y-71104827D01*
X108457829Y-70991559D01*
X108473331Y-70976057D01*
X108609744Y-71067205D01*
X108680119Y-71096355D01*
X108604053Y-71127863D01*
X108434535Y-71241131D01*
X108290372Y-71385294D01*
X108177104Y-71554812D01*
X108099083Y-71743170D01*
X108059309Y-71943129D01*
X108059309Y-72147007D01*
X108099083Y-72346966D01*
X108177104Y-72535324D01*
X108290372Y-72704842D01*
X108434535Y-72849005D01*
X108604053Y-72962273D01*
X108792411Y-73040294D01*
X108877706Y-73057260D01*
X108932795Y-73190256D01*
X109046063Y-73359774D01*
X109190226Y-73503937D01*
X109359744Y-73617205D01*
X109465000Y-73660804D01*
X109465000Y-73701939D01*
X109504774Y-73901898D01*
X109582795Y-74090256D01*
X109696063Y-74259774D01*
X109840226Y-74403937D01*
X110009744Y-74517205D01*
X110198102Y-74595226D01*
X110398061Y-74635000D01*
X110601939Y-74635000D01*
X110801898Y-74595226D01*
X110990256Y-74517205D01*
X111159774Y-74403937D01*
X111303937Y-74259774D01*
X111417205Y-74090256D01*
X111495226Y-73901898D01*
X111495989Y-73898061D01*
X112165000Y-73898061D01*
X112165000Y-74101939D01*
X112204774Y-74301898D01*
X112282795Y-74490256D01*
X112396063Y-74659774D01*
X112540226Y-74803937D01*
X112709744Y-74917205D01*
X112898102Y-74995226D01*
X113098061Y-75035000D01*
X113301939Y-75035000D01*
X113501898Y-74995226D01*
X113690256Y-74917205D01*
X113859774Y-74803937D01*
X114003937Y-74659774D01*
X114117205Y-74490256D01*
X114195226Y-74301898D01*
X114235000Y-74101939D01*
X114235000Y-73898061D01*
X114195226Y-73698102D01*
X114117205Y-73509744D01*
X114003937Y-73340226D01*
X113859774Y-73196063D01*
X113690256Y-73082795D01*
X113501898Y-73004774D01*
X113301939Y-72965000D01*
X113098061Y-72965000D01*
X112898102Y-73004774D01*
X112709744Y-73082795D01*
X112540226Y-73196063D01*
X112396063Y-73340226D01*
X112282795Y-73509744D01*
X112204774Y-73698102D01*
X112165000Y-73898061D01*
X111495989Y-73898061D01*
X111535000Y-73701939D01*
X111535000Y-73498061D01*
X111495226Y-73298102D01*
X111417205Y-73109744D01*
X111303937Y-72940226D01*
X111159774Y-72796063D01*
X110990256Y-72682795D01*
X110885000Y-72639196D01*
X110885000Y-72598061D01*
X110845226Y-72398102D01*
X110767205Y-72209744D01*
X110653937Y-72040226D01*
X110509774Y-71896063D01*
X110340256Y-71782795D01*
X110151898Y-71704774D01*
X110066603Y-71687808D01*
X110011514Y-71554812D01*
X109898246Y-71385294D01*
X109754083Y-71241131D01*
X109584565Y-71127863D01*
X109514190Y-71098713D01*
X109590256Y-71067205D01*
X109759774Y-70953937D01*
X109903937Y-70809774D01*
X110017205Y-70640256D01*
X110095226Y-70451898D01*
X110135000Y-70251939D01*
X110135000Y-70048061D01*
X110095226Y-69848102D01*
X110017205Y-69659744D01*
X109903937Y-69490226D01*
X109759774Y-69346063D01*
X109590256Y-69232795D01*
X109401898Y-69154774D01*
X109201939Y-69115000D01*
X108998061Y-69115000D01*
X108798102Y-69154774D01*
X108609744Y-69232795D01*
X108440226Y-69346063D01*
X108424724Y-69361565D01*
X108288311Y-69270417D01*
X108099953Y-69192396D01*
X107899994Y-69152622D01*
X107696116Y-69152622D01*
X107496157Y-69192396D01*
X107307799Y-69270417D01*
X107243456Y-69313410D01*
X107101898Y-69254774D01*
X106985000Y-69231522D01*
X106985000Y-69098061D01*
X106945226Y-68898102D01*
X106867205Y-68709744D01*
X106753937Y-68540226D01*
X106609774Y-68396063D01*
X106440256Y-68282795D01*
X106251898Y-68204774D01*
X106051939Y-68165000D01*
X105848061Y-68165000D01*
X105648102Y-68204774D01*
X105459744Y-68282795D01*
X105290226Y-68396063D01*
X105146063Y-68540226D01*
X105032795Y-68709744D01*
X104954774Y-68898102D01*
X104915000Y-69098061D01*
X84262195Y-69098061D01*
X84146260Y-69075000D01*
X83853740Y-69075000D01*
X83566842Y-69132068D01*
X83296589Y-69244010D01*
X83053368Y-69406525D01*
X82846525Y-69613368D01*
X82684010Y-69856589D01*
X82572068Y-70126842D01*
X82515000Y-70413740D01*
X82515000Y-70706260D01*
X82572068Y-70993158D01*
X82684010Y-71263411D01*
X82846525Y-71506632D01*
X82978380Y-71638487D01*
X82905820Y-71660498D01*
X82795506Y-71719463D01*
X82698815Y-71798815D01*
X82619463Y-71895506D01*
X82560498Y-72005820D01*
X82524188Y-72125518D01*
X82511928Y-72250000D01*
X82327000Y-72250000D01*
X82327000Y-64113740D01*
X82515000Y-64113740D01*
X82515000Y-64406260D01*
X82572068Y-64693158D01*
X82684010Y-64963411D01*
X82846525Y-65206632D01*
X83053368Y-65413475D01*
X83296589Y-65575990D01*
X83566842Y-65687932D01*
X83853740Y-65745000D01*
X84146260Y-65745000D01*
X84433158Y-65687932D01*
X84703411Y-65575990D01*
X84946632Y-65413475D01*
X85112046Y-65248061D01*
X86215000Y-65248061D01*
X86215000Y-65451939D01*
X86254774Y-65651898D01*
X86332795Y-65840256D01*
X86446063Y-66009774D01*
X86590226Y-66153937D01*
X86759744Y-66267205D01*
X86948102Y-66345226D01*
X87148061Y-66385000D01*
X87351939Y-66385000D01*
X87551898Y-66345226D01*
X87740256Y-66267205D01*
X87909774Y-66153937D01*
X88053937Y-66009774D01*
X88167205Y-65840256D01*
X88245226Y-65651898D01*
X88285000Y-65451939D01*
X88285000Y-65248061D01*
X88245226Y-65048102D01*
X88167205Y-64859744D01*
X88053937Y-64690226D01*
X87909774Y-64546063D01*
X87740256Y-64432795D01*
X87551898Y-64354774D01*
X87351939Y-64315000D01*
X87148061Y-64315000D01*
X86948102Y-64354774D01*
X86759744Y-64432795D01*
X86590226Y-64546063D01*
X86446063Y-64690226D01*
X86332795Y-64859744D01*
X86254774Y-65048102D01*
X86215000Y-65248061D01*
X85112046Y-65248061D01*
X85153475Y-65206632D01*
X85315990Y-64963411D01*
X85427932Y-64693158D01*
X85485000Y-64406260D01*
X85485000Y-64113740D01*
X85442099Y-63898061D01*
X96365000Y-63898061D01*
X96365000Y-64101939D01*
X96404774Y-64301898D01*
X96482795Y-64490256D01*
X96596063Y-64659774D01*
X96740226Y-64803937D01*
X96909744Y-64917205D01*
X97098102Y-64995226D01*
X97298061Y-65035000D01*
X97501939Y-65035000D01*
X97701898Y-64995226D01*
X97890256Y-64917205D01*
X97993737Y-64848061D01*
X99915000Y-64848061D01*
X99915000Y-65051939D01*
X99954774Y-65251898D01*
X100032795Y-65440256D01*
X100146063Y-65609774D01*
X100290226Y-65753937D01*
X100459744Y-65867205D01*
X100648102Y-65945226D01*
X100848061Y-65985000D01*
X101051939Y-65985000D01*
X101137097Y-65968061D01*
X105615000Y-65968061D01*
X105615000Y-66171939D01*
X105654774Y-66371898D01*
X105732795Y-66560256D01*
X105846063Y-66729774D01*
X105990226Y-66873937D01*
X106159744Y-66987205D01*
X106348102Y-67065226D01*
X106548061Y-67105000D01*
X106751939Y-67105000D01*
X106951898Y-67065226D01*
X107140256Y-66987205D01*
X107309774Y-66873937D01*
X107453937Y-66729774D01*
X107567205Y-66560256D01*
X107634388Y-66398061D01*
X116665000Y-66398061D01*
X116665000Y-66601939D01*
X116704774Y-66801898D01*
X116782795Y-66990256D01*
X116896063Y-67159774D01*
X117040226Y-67303937D01*
X117209744Y-67417205D01*
X117354550Y-67477186D01*
X117332795Y-67509744D01*
X117254774Y-67698102D01*
X117215000Y-67898061D01*
X117215000Y-68101939D01*
X117254774Y-68301898D01*
X117332795Y-68490256D01*
X117446063Y-68659774D01*
X117590226Y-68803937D01*
X117759744Y-68917205D01*
X117929450Y-68987500D01*
X117759744Y-69057795D01*
X117590226Y-69171063D01*
X117446063Y-69315226D01*
X117332795Y-69484744D01*
X117254774Y-69673102D01*
X117215000Y-69873061D01*
X117215000Y-70076939D01*
X117254774Y-70276898D01*
X117332795Y-70465256D01*
X117446063Y-70634774D01*
X117590226Y-70778937D01*
X117759744Y-70892205D01*
X117948102Y-70970226D01*
X118148061Y-71010000D01*
X118351939Y-71010000D01*
X118551898Y-70970226D01*
X118740256Y-70892205D01*
X118909774Y-70778937D01*
X119053937Y-70634774D01*
X119167205Y-70465256D01*
X119245226Y-70276898D01*
X119285000Y-70076939D01*
X119285000Y-69873061D01*
X119245226Y-69673102D01*
X119167205Y-69484744D01*
X119053937Y-69315226D01*
X118909774Y-69171063D01*
X118740256Y-69057795D01*
X118570550Y-68987500D01*
X118740256Y-68917205D01*
X118909774Y-68803937D01*
X118925000Y-68788711D01*
X118940226Y-68803937D01*
X119109744Y-68917205D01*
X119298102Y-68995226D01*
X119498061Y-69035000D01*
X119701939Y-69035000D01*
X119901898Y-68995226D01*
X120090256Y-68917205D01*
X120259774Y-68803937D01*
X120403937Y-68659774D01*
X120517205Y-68490256D01*
X120595226Y-68301898D01*
X120635000Y-68101939D01*
X120635000Y-67898061D01*
X120595226Y-67698102D01*
X120517205Y-67509744D01*
X120403937Y-67340226D01*
X120259774Y-67196063D01*
X120090256Y-67082795D01*
X119901898Y-67004774D01*
X119701939Y-66965000D01*
X119498061Y-66965000D01*
X119298102Y-67004774D01*
X119109744Y-67082795D01*
X118940226Y-67196063D01*
X118925000Y-67211289D01*
X118909774Y-67196063D01*
X118740256Y-67082795D01*
X118595450Y-67022814D01*
X118617205Y-66990256D01*
X118695226Y-66801898D01*
X118735000Y-66601939D01*
X118735000Y-66428424D01*
X118901898Y-66395226D01*
X119090256Y-66317205D01*
X119259774Y-66203937D01*
X119403937Y-66059774D01*
X119517205Y-65890256D01*
X119595226Y-65701898D01*
X119635000Y-65501939D01*
X119635000Y-65298061D01*
X119595226Y-65098102D01*
X119517205Y-64909744D01*
X119443877Y-64800000D01*
X119517205Y-64690256D01*
X119595226Y-64501898D01*
X119635000Y-64301939D01*
X119635000Y-64098061D01*
X119595226Y-63898102D01*
X119517205Y-63709744D01*
X119403937Y-63540226D01*
X119259774Y-63396063D01*
X119090256Y-63282795D01*
X118901898Y-63204774D01*
X118701939Y-63165000D01*
X118498061Y-63165000D01*
X118298102Y-63204774D01*
X118109744Y-63282795D01*
X117940226Y-63396063D01*
X117796063Y-63540226D01*
X117682795Y-63709744D01*
X117604774Y-63898102D01*
X117565000Y-64098061D01*
X117565000Y-64301939D01*
X117604774Y-64501898D01*
X117682795Y-64690256D01*
X117756123Y-64800000D01*
X117682795Y-64909744D01*
X117604774Y-65098102D01*
X117565000Y-65298061D01*
X117565000Y-65471576D01*
X117398102Y-65504774D01*
X117209744Y-65582795D01*
X117040226Y-65696063D01*
X116896063Y-65840226D01*
X116782795Y-66009744D01*
X116704774Y-66198102D01*
X116665000Y-66398061D01*
X107634388Y-66398061D01*
X107645226Y-66371898D01*
X107685000Y-66171939D01*
X107685000Y-65968061D01*
X107645226Y-65768102D01*
X107567205Y-65579744D01*
X107453937Y-65410226D01*
X107309774Y-65266063D01*
X107140256Y-65152795D01*
X106951898Y-65074774D01*
X106751939Y-65035000D01*
X106548061Y-65035000D01*
X106348102Y-65074774D01*
X106159744Y-65152795D01*
X105990226Y-65266063D01*
X105846063Y-65410226D01*
X105732795Y-65579744D01*
X105654774Y-65768102D01*
X105615000Y-65968061D01*
X101137097Y-65968061D01*
X101251898Y-65945226D01*
X101440256Y-65867205D01*
X101609774Y-65753937D01*
X101753937Y-65609774D01*
X101867205Y-65440256D01*
X101945226Y-65251898D01*
X101985000Y-65051939D01*
X101985000Y-64848061D01*
X101945226Y-64648102D01*
X101867205Y-64459744D01*
X101753937Y-64290226D01*
X101609774Y-64146063D01*
X101440256Y-64032795D01*
X101251898Y-63954774D01*
X101051939Y-63915000D01*
X100848061Y-63915000D01*
X100648102Y-63954774D01*
X100459744Y-64032795D01*
X100290226Y-64146063D01*
X100146063Y-64290226D01*
X100032795Y-64459744D01*
X99954774Y-64648102D01*
X99915000Y-64848061D01*
X97993737Y-64848061D01*
X98059774Y-64803937D01*
X98203937Y-64659774D01*
X98317205Y-64490256D01*
X98395226Y-64301898D01*
X98435000Y-64101939D01*
X98435000Y-63898061D01*
X98395226Y-63698102D01*
X98317205Y-63509744D01*
X98203937Y-63340226D01*
X98061772Y-63198061D01*
X101985000Y-63198061D01*
X101985000Y-63401939D01*
X102024774Y-63601898D01*
X102102795Y-63790256D01*
X102216063Y-63959774D01*
X102360226Y-64103937D01*
X102529744Y-64217205D01*
X102718102Y-64295226D01*
X102918061Y-64335000D01*
X103121939Y-64335000D01*
X103321898Y-64295226D01*
X103510256Y-64217205D01*
X103679774Y-64103937D01*
X103823937Y-63959774D01*
X103937205Y-63790256D01*
X104015226Y-63601898D01*
X104055000Y-63401939D01*
X104055000Y-63198061D01*
X104015226Y-62998102D01*
X103937205Y-62809744D01*
X103823937Y-62640226D01*
X103679774Y-62496063D01*
X103510256Y-62382795D01*
X103321898Y-62304774D01*
X103121939Y-62265000D01*
X102918061Y-62265000D01*
X102718102Y-62304774D01*
X102529744Y-62382795D01*
X102360226Y-62496063D01*
X102216063Y-62640226D01*
X102102795Y-62809744D01*
X102024774Y-62998102D01*
X101985000Y-63198061D01*
X98061772Y-63198061D01*
X98059774Y-63196063D01*
X97890256Y-63082795D01*
X97701898Y-63004774D01*
X97501939Y-62965000D01*
X97298061Y-62965000D01*
X97098102Y-63004774D01*
X96909744Y-63082795D01*
X96740226Y-63196063D01*
X96596063Y-63340226D01*
X96482795Y-63509744D01*
X96404774Y-63698102D01*
X96365000Y-63898061D01*
X85442099Y-63898061D01*
X85427932Y-63826842D01*
X85315990Y-63556589D01*
X85153475Y-63313368D01*
X84946632Y-63106525D01*
X84703411Y-62944010D01*
X84433158Y-62832068D01*
X84146260Y-62775000D01*
X83853740Y-62775000D01*
X83566842Y-62832068D01*
X83296589Y-62944010D01*
X83053368Y-63106525D01*
X82846525Y-63313368D01*
X82684010Y-63556589D01*
X82572068Y-63826842D01*
X82515000Y-64113740D01*
X82327000Y-64113740D01*
X82327000Y-60910714D01*
X100177653Y-60910714D01*
X100177653Y-61114592D01*
X100217427Y-61314551D01*
X100295448Y-61502909D01*
X100408716Y-61672427D01*
X100552879Y-61816590D01*
X100722397Y-61929858D01*
X100910755Y-62007879D01*
X101110714Y-62047653D01*
X101314592Y-62047653D01*
X101514551Y-62007879D01*
X101676914Y-61940625D01*
X101740226Y-62003937D01*
X101909744Y-62117205D01*
X102098102Y-62195226D01*
X102298061Y-62235000D01*
X102501939Y-62235000D01*
X102701898Y-62195226D01*
X102890256Y-62117205D01*
X103059774Y-62003937D01*
X103203937Y-61859774D01*
X103317205Y-61690256D01*
X103395226Y-61501898D01*
X103435000Y-61301939D01*
X103435000Y-61098061D01*
X103395226Y-60898102D01*
X103317205Y-60709744D01*
X103203937Y-60540226D01*
X103059774Y-60396063D01*
X102890256Y-60282795D01*
X102701898Y-60204774D01*
X102501939Y-60165000D01*
X102298061Y-60165000D01*
X102098102Y-60204774D01*
X101935739Y-60272028D01*
X101872427Y-60208716D01*
X101702909Y-60095448D01*
X101514551Y-60017427D01*
X101314592Y-59977653D01*
X101110714Y-59977653D01*
X100910755Y-60017427D01*
X100722397Y-60095448D01*
X100552879Y-60208716D01*
X100408716Y-60352879D01*
X100295448Y-60522397D01*
X100217427Y-60710755D01*
X100177653Y-60910714D01*
X82327000Y-60910714D01*
X82327000Y-59927000D01*
X109873000Y-59927000D01*
X109873000Y-61559903D01*
G37*
X109873000Y-61559903D02*
X109773102Y-61579774D01*
X109584744Y-61657795D01*
X109415226Y-61771063D01*
X109271063Y-61915226D01*
X109157795Y-62084744D01*
X109079774Y-62273102D01*
X109040000Y-62473061D01*
X109040000Y-62676939D01*
X109079774Y-62876898D01*
X109157795Y-63065256D01*
X109271063Y-63234774D01*
X109415226Y-63378937D01*
X109584744Y-63492205D01*
X109773102Y-63570226D01*
X109973061Y-63610000D01*
X110176939Y-63610000D01*
X110376898Y-63570226D01*
X110565256Y-63492205D01*
X110734774Y-63378937D01*
X110878937Y-63234774D01*
X110992205Y-63065256D01*
X111070226Y-62876898D01*
X111110000Y-62676939D01*
X111110000Y-62527000D01*
X111363289Y-62527000D01*
X111490226Y-62653937D01*
X111659744Y-62767205D01*
X111848102Y-62845226D01*
X112048061Y-62885000D01*
X112251939Y-62885000D01*
X112451898Y-62845226D01*
X112640256Y-62767205D01*
X112809774Y-62653937D01*
X112936711Y-62527000D01*
X120673000Y-62527000D01*
X120673000Y-68999742D01*
X120582795Y-69134744D01*
X120504774Y-69323102D01*
X120465000Y-69523061D01*
X120465000Y-69726939D01*
X120504774Y-69926898D01*
X120582795Y-70115256D01*
X120673000Y-70250258D01*
X120673000Y-79837732D01*
X120645226Y-79698102D01*
X120567205Y-79509744D01*
X120453937Y-79340226D01*
X120309774Y-79196063D01*
X120140256Y-79082795D01*
X119951898Y-79004774D01*
X119810864Y-78976721D01*
X119795226Y-78898102D01*
X119717205Y-78709744D01*
X119603937Y-78540226D01*
X119459774Y-78396063D01*
X119290256Y-78282795D01*
X119101898Y-78204774D01*
X118901939Y-78165000D01*
X118698061Y-78165000D01*
X118498102Y-78204774D01*
X118309744Y-78282795D01*
X118140226Y-78396063D01*
X117996063Y-78540226D01*
X117882795Y-78709744D01*
X117804774Y-78898102D01*
X117765000Y-79098061D01*
X117765000Y-79301939D01*
X117804774Y-79501898D01*
X117882795Y-79690256D01*
X117996063Y-79859774D01*
X118140226Y-80003937D01*
X118309744Y-80117205D01*
X118498102Y-80195226D01*
X118639136Y-80223279D01*
X118654774Y-80301898D01*
X118692738Y-80393551D01*
X118596063Y-80490226D01*
X118482795Y-80659744D01*
X118404774Y-80848102D01*
X118365000Y-81048061D01*
X118365000Y-81251939D01*
X118404774Y-81451898D01*
X118482795Y-81640256D01*
X118596063Y-81809774D01*
X118740226Y-81953937D01*
X118909744Y-82067205D01*
X118923734Y-82073000D01*
X113700711Y-82073000D01*
X113833937Y-81939774D01*
X113947205Y-81770256D01*
X114025226Y-81581898D01*
X114065000Y-81381939D01*
X114065000Y-81178061D01*
X114025226Y-80978102D01*
X113947205Y-80789744D01*
X113833937Y-80620226D01*
X113689774Y-80476063D01*
X113520256Y-80362795D01*
X113331898Y-80284774D01*
X113131939Y-80245000D01*
X112928061Y-80245000D01*
X112728102Y-80284774D01*
X112539744Y-80362795D01*
X112370226Y-80476063D01*
X112226063Y-80620226D01*
X112112795Y-80789744D01*
X112034774Y-80978102D01*
X111995000Y-81178061D01*
X111995000Y-81381939D01*
X112034774Y-81581898D01*
X112112795Y-81770256D01*
X112226063Y-81939774D01*
X112359289Y-82073000D01*
X98722345Y-82073000D01*
X98763411Y-82055990D01*
X99006632Y-81893475D01*
X99213475Y-81686632D01*
X99375990Y-81443411D01*
X99487932Y-81173158D01*
X99545000Y-80886260D01*
X99545000Y-80593740D01*
X99506077Y-80398061D01*
X104565000Y-80398061D01*
X104565000Y-80601939D01*
X104604774Y-80801898D01*
X104682795Y-80990256D01*
X104796063Y-81159774D01*
X104940226Y-81303937D01*
X105109744Y-81417205D01*
X105298102Y-81495226D01*
X105498061Y-81535000D01*
X105701939Y-81535000D01*
X105901898Y-81495226D01*
X106090256Y-81417205D01*
X106218083Y-81331794D01*
X106240226Y-81353937D01*
X106409744Y-81467205D01*
X106598102Y-81545226D01*
X106798061Y-81585000D01*
X107001939Y-81585000D01*
X107201898Y-81545226D01*
X107390256Y-81467205D01*
X107559774Y-81353937D01*
X107703937Y-81209774D01*
X107817205Y-81040256D01*
X107895226Y-80851898D01*
X107935000Y-80651939D01*
X107935000Y-80448061D01*
X107895226Y-80248102D01*
X107817205Y-80059744D01*
X107703937Y-79890226D01*
X107559774Y-79746063D01*
X107390256Y-79632795D01*
X107201898Y-79554774D01*
X107001939Y-79515000D01*
X106798061Y-79515000D01*
X106598102Y-79554774D01*
X106409744Y-79632795D01*
X106281917Y-79718206D01*
X106259774Y-79696063D01*
X106090256Y-79582795D01*
X105901898Y-79504774D01*
X105701939Y-79465000D01*
X105498061Y-79465000D01*
X105298102Y-79504774D01*
X105109744Y-79582795D01*
X104940226Y-79696063D01*
X104796063Y-79840226D01*
X104682795Y-80009744D01*
X104604774Y-80198102D01*
X104565000Y-80398061D01*
X99506077Y-80398061D01*
X99487932Y-80306842D01*
X99375990Y-80036589D01*
X99213475Y-79793368D01*
X99006632Y-79586525D01*
X98832240Y-79470000D01*
X99006632Y-79353475D01*
X99138487Y-79221620D01*
X99160498Y-79294180D01*
X99219463Y-79404494D01*
X99298815Y-79501185D01*
X99395506Y-79580537D01*
X99505820Y-79639502D01*
X99625518Y-79675812D01*
X99750000Y-79688072D01*
X101450000Y-79688072D01*
X101574482Y-79675812D01*
X101694180Y-79639502D01*
X101804494Y-79580537D01*
X101901185Y-79501185D01*
X101980537Y-79404494D01*
X102039502Y-79294180D01*
X102075812Y-79174482D01*
X102088072Y-79050000D01*
X102088072Y-78298061D01*
X108865000Y-78298061D01*
X108865000Y-78501939D01*
X108904774Y-78701898D01*
X108982795Y-78890256D01*
X109096063Y-79059774D01*
X109240226Y-79203937D01*
X109409744Y-79317205D01*
X109598102Y-79395226D01*
X109599683Y-79395541D01*
X109509744Y-79432795D01*
X109340226Y-79546063D01*
X109196063Y-79690226D01*
X109082795Y-79859744D01*
X109004774Y-80048102D01*
X108965000Y-80248061D01*
X108965000Y-80451939D01*
X109004774Y-80651898D01*
X109082795Y-80840256D01*
X109196063Y-81009774D01*
X109340226Y-81153937D01*
X109509744Y-81267205D01*
X109698102Y-81345226D01*
X109898061Y-81385000D01*
X110101939Y-81385000D01*
X110301898Y-81345226D01*
X110490256Y-81267205D01*
X110659774Y-81153937D01*
X110803937Y-81009774D01*
X110917205Y-80840256D01*
X110995226Y-80651898D01*
X111035000Y-80451939D01*
X111035000Y-80248061D01*
X111005164Y-80098061D01*
X113965000Y-80098061D01*
X113965000Y-80301939D01*
X114004774Y-80501898D01*
X114082795Y-80690256D01*
X114196063Y-80859774D01*
X114340226Y-81003937D01*
X114509744Y-81117205D01*
X114698102Y-81195226D01*
X114898061Y-81235000D01*
X115101939Y-81235000D01*
X115301898Y-81195226D01*
X115490256Y-81117205D01*
X115659774Y-81003937D01*
X115803937Y-80859774D01*
X115917205Y-80690256D01*
X115995226Y-80501898D01*
X116035000Y-80301939D01*
X116035000Y-80098061D01*
X115995226Y-79898102D01*
X115917205Y-79709744D01*
X115803937Y-79540226D01*
X115659774Y-79396063D01*
X115490256Y-79282795D01*
X115301898Y-79204774D01*
X115101939Y-79165000D01*
X114898061Y-79165000D01*
X114698102Y-79204774D01*
X114509744Y-79282795D01*
X114340226Y-79396063D01*
X114196063Y-79540226D01*
X114082795Y-79709744D01*
X114004774Y-79898102D01*
X113965000Y-80098061D01*
X111005164Y-80098061D01*
X110995226Y-80048102D01*
X110917205Y-79859744D01*
X110803937Y-79690226D01*
X110659774Y-79546063D01*
X110490256Y-79432795D01*
X110301898Y-79354774D01*
X110300317Y-79354459D01*
X110390256Y-79317205D01*
X110559774Y-79203937D01*
X110703937Y-79059774D01*
X110817205Y-78890256D01*
X110895226Y-78701898D01*
X110935000Y-78501939D01*
X110935000Y-78298061D01*
X110895226Y-78098102D01*
X110817205Y-77909744D01*
X110809399Y-77898061D01*
X114165000Y-77898061D01*
X114165000Y-78101939D01*
X114204774Y-78301898D01*
X114282795Y-78490256D01*
X114396063Y-78659774D01*
X114540226Y-78803937D01*
X114709744Y-78917205D01*
X114898102Y-78995226D01*
X115098061Y-79035000D01*
X115301939Y-79035000D01*
X115501898Y-78995226D01*
X115690256Y-78917205D01*
X115800000Y-78843877D01*
X115909744Y-78917205D01*
X116098102Y-78995226D01*
X116298061Y-79035000D01*
X116501939Y-79035000D01*
X116701898Y-78995226D01*
X116890256Y-78917205D01*
X117059774Y-78803937D01*
X117203937Y-78659774D01*
X117317205Y-78490256D01*
X117395226Y-78301898D01*
X117435000Y-78101939D01*
X117435000Y-77898061D01*
X117395226Y-77698102D01*
X117317205Y-77509744D01*
X117203937Y-77340226D01*
X117059774Y-77196063D01*
X116890256Y-77082795D01*
X116701898Y-77004774D01*
X116501939Y-76965000D01*
X116298061Y-76965000D01*
X116098102Y-77004774D01*
X115909744Y-77082795D01*
X115800000Y-77156123D01*
X115690256Y-77082795D01*
X115501898Y-77004774D01*
X115301939Y-76965000D01*
X115098061Y-76965000D01*
X114898102Y-77004774D01*
X114709744Y-77082795D01*
X114540226Y-77196063D01*
X114396063Y-77340226D01*
X114282795Y-77509744D01*
X114204774Y-77698102D01*
X114165000Y-77898061D01*
X110809399Y-77898061D01*
X110703937Y-77740226D01*
X110559774Y-77596063D01*
X110390256Y-77482795D01*
X110201898Y-77404774D01*
X110001939Y-77365000D01*
X109798061Y-77365000D01*
X109598102Y-77404774D01*
X109409744Y-77482795D01*
X109240226Y-77596063D01*
X109096063Y-77740226D01*
X108982795Y-77909744D01*
X108904774Y-78098102D01*
X108865000Y-78298061D01*
X102088072Y-78298061D01*
X102088072Y-77447815D01*
X102096063Y-77459774D01*
X102240226Y-77603937D01*
X102409744Y-77717205D01*
X102598102Y-77795226D01*
X102798061Y-77835000D01*
X103001939Y-77835000D01*
X103201898Y-77795226D01*
X103390256Y-77717205D01*
X103559774Y-77603937D01*
X103703937Y-77459774D01*
X103817205Y-77290256D01*
X103895226Y-77101898D01*
X103935000Y-76901939D01*
X103935000Y-76748061D01*
X104515000Y-76748061D01*
X104515000Y-76951939D01*
X104554774Y-77151898D01*
X104632795Y-77340256D01*
X104746063Y-77509774D01*
X104890226Y-77653937D01*
X105059744Y-77767205D01*
X105248102Y-77845226D01*
X105448061Y-77885000D01*
X105651939Y-77885000D01*
X105851898Y-77845226D01*
X106040256Y-77767205D01*
X106209774Y-77653937D01*
X106353937Y-77509774D01*
X106467205Y-77340256D01*
X106545226Y-77151898D01*
X106585000Y-76951939D01*
X106585000Y-76748061D01*
X106545226Y-76548102D01*
X106467205Y-76359744D01*
X106353937Y-76190226D01*
X106209774Y-76046063D01*
X106040256Y-75932795D01*
X105851898Y-75854774D01*
X105651939Y-75815000D01*
X105448061Y-75815000D01*
X105248102Y-75854774D01*
X105059744Y-75932795D01*
X104890226Y-76046063D01*
X104746063Y-76190226D01*
X104632795Y-76359744D01*
X104554774Y-76548102D01*
X104515000Y-76748061D01*
X103935000Y-76748061D01*
X103935000Y-76698061D01*
X103895226Y-76498102D01*
X103817205Y-76309744D01*
X103703937Y-76140226D01*
X103559774Y-75996063D01*
X103553251Y-75991704D01*
X103609774Y-75953937D01*
X103753937Y-75809774D01*
X103867205Y-75640256D01*
X103945226Y-75451898D01*
X103985000Y-75251939D01*
X103985000Y-75048061D01*
X103945226Y-74848102D01*
X103867205Y-74659744D01*
X103753937Y-74490226D01*
X103609774Y-74346063D01*
X103440256Y-74232795D01*
X103251898Y-74154774D01*
X103051939Y-74115000D01*
X102848061Y-74115000D01*
X102648102Y-74154774D01*
X102459744Y-74232795D01*
X102290226Y-74346063D01*
X102146063Y-74490226D01*
X102032795Y-74659744D01*
X101954774Y-74848102D01*
X101915000Y-75048061D01*
X101915000Y-75251939D01*
X101954774Y-75451898D01*
X102032795Y-75640256D01*
X102146063Y-75809774D01*
X102290226Y-75953937D01*
X102296749Y-75958296D01*
X102240226Y-75996063D01*
X102096063Y-76140226D01*
X101982795Y-76309744D01*
X101904774Y-76498102D01*
X101865000Y-76698061D01*
X101865000Y-76869119D01*
X101804494Y-76819463D01*
X101694180Y-76760498D01*
X101574482Y-76724188D01*
X101450000Y-76711928D01*
X101448154Y-76711928D01*
X101609774Y-76603937D01*
X101753937Y-76459774D01*
X101867205Y-76290256D01*
X101945226Y-76101898D01*
X101985000Y-75901939D01*
X101985000Y-75698061D01*
X101945226Y-75498102D01*
X101867205Y-75309744D01*
X101753937Y-75140226D01*
X101609774Y-74996063D01*
X101440256Y-74882795D01*
X101251898Y-74804774D01*
X101051939Y-74765000D01*
X100953899Y-74765000D01*
X101017205Y-74670256D01*
X101095226Y-74481898D01*
X101135000Y-74281939D01*
X101135000Y-74078061D01*
X101095226Y-73878102D01*
X101017205Y-73689744D01*
X100903937Y-73520226D01*
X100759774Y-73376063D01*
X100590256Y-73262795D01*
X100401898Y-73184774D01*
X100201939Y-73145000D01*
X99998061Y-73145000D01*
X99798102Y-73184774D01*
X99609744Y-73262795D01*
X99440226Y-73376063D01*
X99296063Y-73520226D01*
X99243318Y-73599164D01*
X99203937Y-73540226D01*
X99059774Y-73396063D01*
X98890256Y-73282795D01*
X98701898Y-73204774D01*
X98501939Y-73165000D01*
X98298061Y-73165000D01*
X98098102Y-73204774D01*
X97909744Y-73282795D01*
X97740226Y-73396063D01*
X97596063Y-73540226D01*
X97482795Y-73709744D01*
X97404774Y-73898102D01*
X97365000Y-74098061D01*
X97365000Y-74301939D01*
X97404774Y-74501898D01*
X97482795Y-74690256D01*
X97596063Y-74859774D01*
X97740226Y-75003937D01*
X97909744Y-75117205D01*
X98098102Y-75195226D01*
X98298061Y-75235000D01*
X98501939Y-75235000D01*
X98701898Y-75195226D01*
X98890256Y-75117205D01*
X99059774Y-75003937D01*
X99203937Y-74859774D01*
X99256682Y-74780836D01*
X99296063Y-74839774D01*
X99440226Y-74983937D01*
X99609744Y-75097205D01*
X99798102Y-75175226D01*
X99998061Y-75215000D01*
X100096101Y-75215000D01*
X100032795Y-75309744D01*
X99954774Y-75498102D01*
X99915000Y-75698061D01*
X99915000Y-75901939D01*
X99954774Y-76101898D01*
X100032795Y-76290256D01*
X100146063Y-76459774D01*
X100290226Y-76603937D01*
X100451846Y-76711928D01*
X99750000Y-76711928D01*
X99625518Y-76724188D01*
X99505820Y-76760498D01*
X99395506Y-76819463D01*
X99298815Y-76898815D01*
X99219463Y-76995506D01*
X99160498Y-77105820D01*
X99138487Y-77178380D01*
X99006632Y-77046525D01*
X98763411Y-76884010D01*
X98493158Y-76772068D01*
X98206260Y-76715000D01*
X97913740Y-76715000D01*
X97626842Y-76772068D01*
X97356589Y-76884010D01*
X97113368Y-77046525D01*
X96906525Y-77253368D01*
X96744010Y-77496589D01*
X96632068Y-77766842D01*
X96575000Y-78053740D01*
X96575000Y-78346260D01*
X96632068Y-78633158D01*
X96744010Y-78903411D01*
X96906525Y-79146632D01*
X97113368Y-79353475D01*
X97287760Y-79470000D01*
X97113368Y-79586525D01*
X96906525Y-79793368D01*
X96744010Y-80036589D01*
X96632068Y-80306842D01*
X96575000Y-80593740D01*
X96575000Y-80886260D01*
X96632068Y-81173158D01*
X96744010Y-81443411D01*
X96906525Y-81686632D01*
X97113368Y-81893475D01*
X97356589Y-82055990D01*
X97397655Y-82073000D01*
X94557680Y-82073000D01*
X94583158Y-82067932D01*
X94853411Y-81955990D01*
X95096632Y-81793475D01*
X95303475Y-81586632D01*
X95465990Y-81343411D01*
X95577932Y-81073158D01*
X95635000Y-80786260D01*
X95635000Y-80493740D01*
X95577932Y-80206842D01*
X95465990Y-79936589D01*
X95303475Y-79693368D01*
X95096632Y-79486525D01*
X94853411Y-79324010D01*
X94583158Y-79212068D01*
X94296260Y-79155000D01*
X94003740Y-79155000D01*
X93716842Y-79212068D01*
X93446589Y-79324010D01*
X93203368Y-79486525D01*
X92996525Y-79693368D01*
X92880000Y-79867760D01*
X92763475Y-79693368D01*
X92556632Y-79486525D01*
X92382240Y-79370000D01*
X92556632Y-79253475D01*
X92763475Y-79046632D01*
X92925990Y-78803411D01*
X93037932Y-78533158D01*
X93095000Y-78246260D01*
X93095000Y-77953740D01*
X93037932Y-77666842D01*
X92925990Y-77396589D01*
X92763475Y-77153368D01*
X92556632Y-76946525D01*
X92313411Y-76784010D01*
X92043158Y-76672068D01*
X91756260Y-76615000D01*
X91463740Y-76615000D01*
X91176842Y-76672068D01*
X90906589Y-76784010D01*
X90663368Y-76946525D01*
X90456525Y-77153368D01*
X90340000Y-77327760D01*
X90223475Y-77153368D01*
X90016632Y-76946525D01*
X89773411Y-76784010D01*
X89503158Y-76672068D01*
X89216260Y-76615000D01*
X88923740Y-76615000D01*
X88636842Y-76672068D01*
X88366589Y-76784010D01*
X88123368Y-76946525D01*
X87916525Y-77153368D01*
X87800000Y-77327760D01*
X87683475Y-77153368D01*
X87476632Y-76946525D01*
X87233411Y-76784010D01*
X86963158Y-76672068D01*
X86676260Y-76615000D01*
X86383740Y-76615000D01*
X86096842Y-76672068D01*
X85826589Y-76784010D01*
X85583368Y-76946525D01*
X85376525Y-77153368D01*
X85260000Y-77327760D01*
X85143475Y-77153368D01*
X84936632Y-76946525D01*
X84693411Y-76784010D01*
X84423158Y-76672068D01*
X84136260Y-76615000D01*
X84093556Y-76615000D01*
X84259774Y-76503937D01*
X84403937Y-76359774D01*
X84517205Y-76190256D01*
X84595226Y-76001898D01*
X84635000Y-75801939D01*
X84635000Y-75598061D01*
X84595226Y-75398102D01*
X84517205Y-75209744D01*
X84403937Y-75040226D01*
X84259774Y-74896063D01*
X84090256Y-74782795D01*
X83901898Y-74704774D01*
X83701939Y-74665000D01*
X83498061Y-74665000D01*
X83298102Y-74704774D01*
X83109744Y-74782795D01*
X82940226Y-74896063D01*
X82796063Y-75040226D01*
X82682795Y-75209744D01*
X82604774Y-75398102D01*
X82565000Y-75598061D01*
X82565000Y-75801939D01*
X82604774Y-76001898D01*
X82682795Y-76190256D01*
X82796063Y-76359774D01*
X82940226Y-76503937D01*
X83109744Y-76617205D01*
X83298102Y-76695226D01*
X83435130Y-76722482D01*
X83286589Y-76784010D01*
X83043368Y-76946525D01*
X82836525Y-77153368D01*
X82674010Y-77396589D01*
X82562068Y-77666842D01*
X82505000Y-77953740D01*
X82505000Y-78246260D01*
X82562068Y-78533158D01*
X82674010Y-78803411D01*
X82836525Y-79046632D01*
X83043368Y-79253475D01*
X83217760Y-79370000D01*
X83043368Y-79486525D01*
X82836525Y-79693368D01*
X82674010Y-79936589D01*
X82562068Y-80206842D01*
X82505000Y-80493740D01*
X82505000Y-80786260D01*
X82562068Y-81073158D01*
X82674010Y-81343411D01*
X82836525Y-81586632D01*
X83043368Y-81793475D01*
X83286589Y-81955990D01*
X83556842Y-82067932D01*
X83582320Y-82073000D01*
X82327000Y-82073000D01*
X82327000Y-72250000D01*
X82511928Y-72250000D01*
X82511928Y-73950000D01*
X82524188Y-74074482D01*
X82560498Y-74194180D01*
X82619463Y-74304494D01*
X82698815Y-74401185D01*
X82795506Y-74480537D01*
X82905820Y-74539502D01*
X83025518Y-74575812D01*
X83150000Y-74588072D01*
X84850000Y-74588072D01*
X84974482Y-74575812D01*
X85094180Y-74539502D01*
X85204494Y-74480537D01*
X85301185Y-74401185D01*
X85380537Y-74304494D01*
X85439502Y-74194180D01*
X85475812Y-74074482D01*
X85488072Y-73950000D01*
X85488072Y-72250000D01*
X85475812Y-72125518D01*
X85439502Y-72005820D01*
X85380537Y-71895506D01*
X85301185Y-71798815D01*
X85204494Y-71719463D01*
X85094180Y-71660498D01*
X85021620Y-71638487D01*
X85153475Y-71506632D01*
X85315990Y-71263411D01*
X85427932Y-70993158D01*
X85436902Y-70948061D01*
X87515000Y-70948061D01*
X87515000Y-71151939D01*
X87554774Y-71351898D01*
X87632795Y-71540256D01*
X87746063Y-71709774D01*
X87890226Y-71853937D01*
X88059744Y-71967205D01*
X88248102Y-72045226D01*
X88448061Y-72085000D01*
X88651939Y-72085000D01*
X88851898Y-72045226D01*
X89040256Y-71967205D01*
X89209774Y-71853937D01*
X89215650Y-71848061D01*
X97615000Y-71848061D01*
X97615000Y-72051939D01*
X97654774Y-72251898D01*
X97732795Y-72440256D01*
X97846063Y-72609774D01*
X97990226Y-72753937D01*
X98159744Y-72867205D01*
X98348102Y-72945226D01*
X98548061Y-72985000D01*
X98751939Y-72985000D01*
X98951898Y-72945226D01*
X99140256Y-72867205D01*
X99309774Y-72753937D01*
X99453937Y-72609774D01*
X99567205Y-72440256D01*
X99645226Y-72251898D01*
X99685000Y-72051939D01*
X99685000Y-71848061D01*
X99665109Y-71748061D01*
X101415000Y-71748061D01*
X101415000Y-71951939D01*
X101454774Y-72151898D01*
X101532795Y-72340256D01*
X101646063Y-72509774D01*
X101790226Y-72653937D01*
X101959744Y-72767205D01*
X102148102Y-72845226D01*
X102348061Y-72885000D01*
X102551939Y-72885000D01*
X102751898Y-72845226D01*
X102940256Y-72767205D01*
X103109774Y-72653937D01*
X103253937Y-72509774D01*
X103367205Y-72340256D01*
X103445226Y-72151898D01*
X103485000Y-71951939D01*
X103485000Y-71748061D01*
X103445226Y-71548102D01*
X103367205Y-71359744D01*
X103253937Y-71190226D01*
X103109774Y-71046063D01*
X102940256Y-70932795D01*
X102751898Y-70854774D01*
X102551939Y-70815000D01*
X102348061Y-70815000D01*
X102148102Y-70854774D01*
X101959744Y-70932795D01*
X101790226Y-71046063D01*
X101646063Y-71190226D01*
X101532795Y-71359744D01*
X101454774Y-71548102D01*
X101415000Y-71748061D01*
X99665109Y-71748061D01*
X99645226Y-71648102D01*
X99567205Y-71459744D01*
X99453937Y-71290226D01*
X99309774Y-71146063D01*
X99140256Y-71032795D01*
X98951898Y-70954774D01*
X98751939Y-70915000D01*
X98548061Y-70915000D01*
X98348102Y-70954774D01*
X98159744Y-71032795D01*
X97990226Y-71146063D01*
X97846063Y-71290226D01*
X97732795Y-71459744D01*
X97654774Y-71648102D01*
X97615000Y-71848061D01*
X89215650Y-71848061D01*
X89353937Y-71709774D01*
X89467205Y-71540256D01*
X89545226Y-71351898D01*
X89585000Y-71151939D01*
X89585000Y-70948061D01*
X89545226Y-70748102D01*
X89467205Y-70559744D01*
X89353937Y-70390226D01*
X89209774Y-70246063D01*
X89040256Y-70132795D01*
X88851898Y-70054774D01*
X88651939Y-70015000D01*
X88448061Y-70015000D01*
X88248102Y-70054774D01*
X88059744Y-70132795D01*
X87890226Y-70246063D01*
X87746063Y-70390226D01*
X87632795Y-70559744D01*
X87554774Y-70748102D01*
X87515000Y-70948061D01*
X85436902Y-70948061D01*
X85485000Y-70706260D01*
X85485000Y-70413740D01*
X85427932Y-70126842D01*
X85315990Y-69856589D01*
X85153475Y-69613368D01*
X84946632Y-69406525D01*
X84703411Y-69244010D01*
X84433158Y-69132068D01*
X84262195Y-69098061D01*
X104915000Y-69098061D01*
X104915000Y-69301939D01*
X104954774Y-69501898D01*
X105032795Y-69690256D01*
X105146063Y-69859774D01*
X105290226Y-70003937D01*
X105459744Y-70117205D01*
X105648102Y-70195226D01*
X105765000Y-70218478D01*
X105765000Y-70351939D01*
X105804774Y-70551898D01*
X105882795Y-70740256D01*
X105996063Y-70909774D01*
X106140226Y-71053937D01*
X106309744Y-71167205D01*
X106498102Y-71245226D01*
X106698061Y-71285000D01*
X106901939Y-71285000D01*
X107101898Y-71245226D01*
X107290256Y-71167205D01*
X107354599Y-71124212D01*
X107496157Y-71182848D01*
X107696116Y-71222622D01*
X107899994Y-71222622D01*
X108099953Y-71182848D01*
X108288311Y-71104827D01*
X108457829Y-70991559D01*
X108473331Y-70976057D01*
X108609744Y-71067205D01*
X108680119Y-71096355D01*
X108604053Y-71127863D01*
X108434535Y-71241131D01*
X108290372Y-71385294D01*
X108177104Y-71554812D01*
X108099083Y-71743170D01*
X108059309Y-71943129D01*
X108059309Y-72147007D01*
X108099083Y-72346966D01*
X108177104Y-72535324D01*
X108290372Y-72704842D01*
X108434535Y-72849005D01*
X108604053Y-72962273D01*
X108792411Y-73040294D01*
X108877706Y-73057260D01*
X108932795Y-73190256D01*
X109046063Y-73359774D01*
X109190226Y-73503937D01*
X109359744Y-73617205D01*
X109465000Y-73660804D01*
X109465000Y-73701939D01*
X109504774Y-73901898D01*
X109582795Y-74090256D01*
X109696063Y-74259774D01*
X109840226Y-74403937D01*
X110009744Y-74517205D01*
X110198102Y-74595226D01*
X110398061Y-74635000D01*
X110601939Y-74635000D01*
X110801898Y-74595226D01*
X110990256Y-74517205D01*
X111159774Y-74403937D01*
X111303937Y-74259774D01*
X111417205Y-74090256D01*
X111495226Y-73901898D01*
X111495989Y-73898061D01*
X112165000Y-73898061D01*
X112165000Y-74101939D01*
X112204774Y-74301898D01*
X112282795Y-74490256D01*
X112396063Y-74659774D01*
X112540226Y-74803937D01*
X112709744Y-74917205D01*
X112898102Y-74995226D01*
X113098061Y-75035000D01*
X113301939Y-75035000D01*
X113501898Y-74995226D01*
X113690256Y-74917205D01*
X113859774Y-74803937D01*
X114003937Y-74659774D01*
X114117205Y-74490256D01*
X114195226Y-74301898D01*
X114235000Y-74101939D01*
X114235000Y-73898061D01*
X114195226Y-73698102D01*
X114117205Y-73509744D01*
X114003937Y-73340226D01*
X113859774Y-73196063D01*
X113690256Y-73082795D01*
X113501898Y-73004774D01*
X113301939Y-72965000D01*
X113098061Y-72965000D01*
X112898102Y-73004774D01*
X112709744Y-73082795D01*
X112540226Y-73196063D01*
X112396063Y-73340226D01*
X112282795Y-73509744D01*
X112204774Y-73698102D01*
X112165000Y-73898061D01*
X111495989Y-73898061D01*
X111535000Y-73701939D01*
X111535000Y-73498061D01*
X111495226Y-73298102D01*
X111417205Y-73109744D01*
X111303937Y-72940226D01*
X111159774Y-72796063D01*
X110990256Y-72682795D01*
X110885000Y-72639196D01*
X110885000Y-72598061D01*
X110845226Y-72398102D01*
X110767205Y-72209744D01*
X110653937Y-72040226D01*
X110509774Y-71896063D01*
X110340256Y-71782795D01*
X110151898Y-71704774D01*
X110066603Y-71687808D01*
X110011514Y-71554812D01*
X109898246Y-71385294D01*
X109754083Y-71241131D01*
X109584565Y-71127863D01*
X109514190Y-71098713D01*
X109590256Y-71067205D01*
X109759774Y-70953937D01*
X109903937Y-70809774D01*
X110017205Y-70640256D01*
X110095226Y-70451898D01*
X110135000Y-70251939D01*
X110135000Y-70048061D01*
X110095226Y-69848102D01*
X110017205Y-69659744D01*
X109903937Y-69490226D01*
X109759774Y-69346063D01*
X109590256Y-69232795D01*
X109401898Y-69154774D01*
X109201939Y-69115000D01*
X108998061Y-69115000D01*
X108798102Y-69154774D01*
X108609744Y-69232795D01*
X108440226Y-69346063D01*
X108424724Y-69361565D01*
X108288311Y-69270417D01*
X108099953Y-69192396D01*
X107899994Y-69152622D01*
X107696116Y-69152622D01*
X107496157Y-69192396D01*
X107307799Y-69270417D01*
X107243456Y-69313410D01*
X107101898Y-69254774D01*
X106985000Y-69231522D01*
X106985000Y-69098061D01*
X106945226Y-68898102D01*
X106867205Y-68709744D01*
X106753937Y-68540226D01*
X106609774Y-68396063D01*
X106440256Y-68282795D01*
X106251898Y-68204774D01*
X106051939Y-68165000D01*
X105848061Y-68165000D01*
X105648102Y-68204774D01*
X105459744Y-68282795D01*
X105290226Y-68396063D01*
X105146063Y-68540226D01*
X105032795Y-68709744D01*
X104954774Y-68898102D01*
X104915000Y-69098061D01*
X84262195Y-69098061D01*
X84146260Y-69075000D01*
X83853740Y-69075000D01*
X83566842Y-69132068D01*
X83296589Y-69244010D01*
X83053368Y-69406525D01*
X82846525Y-69613368D01*
X82684010Y-69856589D01*
X82572068Y-70126842D01*
X82515000Y-70413740D01*
X82515000Y-70706260D01*
X82572068Y-70993158D01*
X82684010Y-71263411D01*
X82846525Y-71506632D01*
X82978380Y-71638487D01*
X82905820Y-71660498D01*
X82795506Y-71719463D01*
X82698815Y-71798815D01*
X82619463Y-71895506D01*
X82560498Y-72005820D01*
X82524188Y-72125518D01*
X82511928Y-72250000D01*
X82327000Y-72250000D01*
X82327000Y-64113740D01*
X82515000Y-64113740D01*
X82515000Y-64406260D01*
X82572068Y-64693158D01*
X82684010Y-64963411D01*
X82846525Y-65206632D01*
X83053368Y-65413475D01*
X83296589Y-65575990D01*
X83566842Y-65687932D01*
X83853740Y-65745000D01*
X84146260Y-65745000D01*
X84433158Y-65687932D01*
X84703411Y-65575990D01*
X84946632Y-65413475D01*
X85112046Y-65248061D01*
X86215000Y-65248061D01*
X86215000Y-65451939D01*
X86254774Y-65651898D01*
X86332795Y-65840256D01*
X86446063Y-66009774D01*
X86590226Y-66153937D01*
X86759744Y-66267205D01*
X86948102Y-66345226D01*
X87148061Y-66385000D01*
X87351939Y-66385000D01*
X87551898Y-66345226D01*
X87740256Y-66267205D01*
X87909774Y-66153937D01*
X88053937Y-66009774D01*
X88167205Y-65840256D01*
X88245226Y-65651898D01*
X88285000Y-65451939D01*
X88285000Y-65248061D01*
X88245226Y-65048102D01*
X88167205Y-64859744D01*
X88053937Y-64690226D01*
X87909774Y-64546063D01*
X87740256Y-64432795D01*
X87551898Y-64354774D01*
X87351939Y-64315000D01*
X87148061Y-64315000D01*
X86948102Y-64354774D01*
X86759744Y-64432795D01*
X86590226Y-64546063D01*
X86446063Y-64690226D01*
X86332795Y-64859744D01*
X86254774Y-65048102D01*
X86215000Y-65248061D01*
X85112046Y-65248061D01*
X85153475Y-65206632D01*
X85315990Y-64963411D01*
X85427932Y-64693158D01*
X85485000Y-64406260D01*
X85485000Y-64113740D01*
X85442099Y-63898061D01*
X96365000Y-63898061D01*
X96365000Y-64101939D01*
X96404774Y-64301898D01*
X96482795Y-64490256D01*
X96596063Y-64659774D01*
X96740226Y-64803937D01*
X96909744Y-64917205D01*
X97098102Y-64995226D01*
X97298061Y-65035000D01*
X97501939Y-65035000D01*
X97701898Y-64995226D01*
X97890256Y-64917205D01*
X97993737Y-64848061D01*
X99915000Y-64848061D01*
X99915000Y-65051939D01*
X99954774Y-65251898D01*
X100032795Y-65440256D01*
X100146063Y-65609774D01*
X100290226Y-65753937D01*
X100459744Y-65867205D01*
X100648102Y-65945226D01*
X100848061Y-65985000D01*
X101051939Y-65985000D01*
X101137097Y-65968061D01*
X105615000Y-65968061D01*
X105615000Y-66171939D01*
X105654774Y-66371898D01*
X105732795Y-66560256D01*
X105846063Y-66729774D01*
X105990226Y-66873937D01*
X106159744Y-66987205D01*
X106348102Y-67065226D01*
X106548061Y-67105000D01*
X106751939Y-67105000D01*
X106951898Y-67065226D01*
X107140256Y-66987205D01*
X107309774Y-66873937D01*
X107453937Y-66729774D01*
X107567205Y-66560256D01*
X107634388Y-66398061D01*
X116665000Y-66398061D01*
X116665000Y-66601939D01*
X116704774Y-66801898D01*
X116782795Y-66990256D01*
X116896063Y-67159774D01*
X117040226Y-67303937D01*
X117209744Y-67417205D01*
X117354550Y-67477186D01*
X117332795Y-67509744D01*
X117254774Y-67698102D01*
X117215000Y-67898061D01*
X117215000Y-68101939D01*
X117254774Y-68301898D01*
X117332795Y-68490256D01*
X117446063Y-68659774D01*
X117590226Y-68803937D01*
X117759744Y-68917205D01*
X117929450Y-68987500D01*
X117759744Y-69057795D01*
X117590226Y-69171063D01*
X117446063Y-69315226D01*
X117332795Y-69484744D01*
X117254774Y-69673102D01*
X117215000Y-69873061D01*
X117215000Y-70076939D01*
X117254774Y-70276898D01*
X117332795Y-70465256D01*
X117446063Y-70634774D01*
X117590226Y-70778937D01*
X117759744Y-70892205D01*
X117948102Y-70970226D01*
X118148061Y-71010000D01*
X118351939Y-71010000D01*
X118551898Y-70970226D01*
X118740256Y-70892205D01*
X118909774Y-70778937D01*
X119053937Y-70634774D01*
X119167205Y-70465256D01*
X119245226Y-70276898D01*
X119285000Y-70076939D01*
X119285000Y-69873061D01*
X119245226Y-69673102D01*
X119167205Y-69484744D01*
X119053937Y-69315226D01*
X118909774Y-69171063D01*
X118740256Y-69057795D01*
X118570550Y-68987500D01*
X118740256Y-68917205D01*
X118909774Y-68803937D01*
X118925000Y-68788711D01*
X118940226Y-68803937D01*
X119109744Y-68917205D01*
X119298102Y-68995226D01*
X119498061Y-69035000D01*
X119701939Y-69035000D01*
X119901898Y-68995226D01*
X120090256Y-68917205D01*
X120259774Y-68803937D01*
X120403937Y-68659774D01*
X120517205Y-68490256D01*
X120595226Y-68301898D01*
X120635000Y-68101939D01*
X120635000Y-67898061D01*
X120595226Y-67698102D01*
X120517205Y-67509744D01*
X120403937Y-67340226D01*
X120259774Y-67196063D01*
X120090256Y-67082795D01*
X119901898Y-67004774D01*
X119701939Y-66965000D01*
X119498061Y-66965000D01*
X119298102Y-67004774D01*
X119109744Y-67082795D01*
X118940226Y-67196063D01*
X118925000Y-67211289D01*
X118909774Y-67196063D01*
X118740256Y-67082795D01*
X118595450Y-67022814D01*
X118617205Y-66990256D01*
X118695226Y-66801898D01*
X118735000Y-66601939D01*
X118735000Y-66428424D01*
X118901898Y-66395226D01*
X119090256Y-66317205D01*
X119259774Y-66203937D01*
X119403937Y-66059774D01*
X119517205Y-65890256D01*
X119595226Y-65701898D01*
X119635000Y-65501939D01*
X119635000Y-65298061D01*
X119595226Y-65098102D01*
X119517205Y-64909744D01*
X119443877Y-64800000D01*
X119517205Y-64690256D01*
X119595226Y-64501898D01*
X119635000Y-64301939D01*
X119635000Y-64098061D01*
X119595226Y-63898102D01*
X119517205Y-63709744D01*
X119403937Y-63540226D01*
X119259774Y-63396063D01*
X119090256Y-63282795D01*
X118901898Y-63204774D01*
X118701939Y-63165000D01*
X118498061Y-63165000D01*
X118298102Y-63204774D01*
X118109744Y-63282795D01*
X117940226Y-63396063D01*
X117796063Y-63540226D01*
X117682795Y-63709744D01*
X117604774Y-63898102D01*
X117565000Y-64098061D01*
X117565000Y-64301939D01*
X117604774Y-64501898D01*
X117682795Y-64690256D01*
X117756123Y-64800000D01*
X117682795Y-64909744D01*
X117604774Y-65098102D01*
X117565000Y-65298061D01*
X117565000Y-65471576D01*
X117398102Y-65504774D01*
X117209744Y-65582795D01*
X117040226Y-65696063D01*
X116896063Y-65840226D01*
X116782795Y-66009744D01*
X116704774Y-66198102D01*
X116665000Y-66398061D01*
X107634388Y-66398061D01*
X107645226Y-66371898D01*
X107685000Y-66171939D01*
X107685000Y-65968061D01*
X107645226Y-65768102D01*
X107567205Y-65579744D01*
X107453937Y-65410226D01*
X107309774Y-65266063D01*
X107140256Y-65152795D01*
X106951898Y-65074774D01*
X106751939Y-65035000D01*
X106548061Y-65035000D01*
X106348102Y-65074774D01*
X106159744Y-65152795D01*
X105990226Y-65266063D01*
X105846063Y-65410226D01*
X105732795Y-65579744D01*
X105654774Y-65768102D01*
X105615000Y-65968061D01*
X101137097Y-65968061D01*
X101251898Y-65945226D01*
X101440256Y-65867205D01*
X101609774Y-65753937D01*
X101753937Y-65609774D01*
X101867205Y-65440256D01*
X101945226Y-65251898D01*
X101985000Y-65051939D01*
X101985000Y-64848061D01*
X101945226Y-64648102D01*
X101867205Y-64459744D01*
X101753937Y-64290226D01*
X101609774Y-64146063D01*
X101440256Y-64032795D01*
X101251898Y-63954774D01*
X101051939Y-63915000D01*
X100848061Y-63915000D01*
X100648102Y-63954774D01*
X100459744Y-64032795D01*
X100290226Y-64146063D01*
X100146063Y-64290226D01*
X100032795Y-64459744D01*
X99954774Y-64648102D01*
X99915000Y-64848061D01*
X97993737Y-64848061D01*
X98059774Y-64803937D01*
X98203937Y-64659774D01*
X98317205Y-64490256D01*
X98395226Y-64301898D01*
X98435000Y-64101939D01*
X98435000Y-63898061D01*
X98395226Y-63698102D01*
X98317205Y-63509744D01*
X98203937Y-63340226D01*
X98061772Y-63198061D01*
X101985000Y-63198061D01*
X101985000Y-63401939D01*
X102024774Y-63601898D01*
X102102795Y-63790256D01*
X102216063Y-63959774D01*
X102360226Y-64103937D01*
X102529744Y-64217205D01*
X102718102Y-64295226D01*
X102918061Y-64335000D01*
X103121939Y-64335000D01*
X103321898Y-64295226D01*
X103510256Y-64217205D01*
X103679774Y-64103937D01*
X103823937Y-63959774D01*
X103937205Y-63790256D01*
X104015226Y-63601898D01*
X104055000Y-63401939D01*
X104055000Y-63198061D01*
X104015226Y-62998102D01*
X103937205Y-62809744D01*
X103823937Y-62640226D01*
X103679774Y-62496063D01*
X103510256Y-62382795D01*
X103321898Y-62304774D01*
X103121939Y-62265000D01*
X102918061Y-62265000D01*
X102718102Y-62304774D01*
X102529744Y-62382795D01*
X102360226Y-62496063D01*
X102216063Y-62640226D01*
X102102795Y-62809744D01*
X102024774Y-62998102D01*
X101985000Y-63198061D01*
X98061772Y-63198061D01*
X98059774Y-63196063D01*
X97890256Y-63082795D01*
X97701898Y-63004774D01*
X97501939Y-62965000D01*
X97298061Y-62965000D01*
X97098102Y-63004774D01*
X96909744Y-63082795D01*
X96740226Y-63196063D01*
X96596063Y-63340226D01*
X96482795Y-63509744D01*
X96404774Y-63698102D01*
X96365000Y-63898061D01*
X85442099Y-63898061D01*
X85427932Y-63826842D01*
X85315990Y-63556589D01*
X85153475Y-63313368D01*
X84946632Y-63106525D01*
X84703411Y-62944010D01*
X84433158Y-62832068D01*
X84146260Y-62775000D01*
X83853740Y-62775000D01*
X83566842Y-62832068D01*
X83296589Y-62944010D01*
X83053368Y-63106525D01*
X82846525Y-63313368D01*
X82684010Y-63556589D01*
X82572068Y-63826842D01*
X82515000Y-64113740D01*
X82327000Y-64113740D01*
X82327000Y-60910714D01*
X100177653Y-60910714D01*
X100177653Y-61114592D01*
X100217427Y-61314551D01*
X100295448Y-61502909D01*
X100408716Y-61672427D01*
X100552879Y-61816590D01*
X100722397Y-61929858D01*
X100910755Y-62007879D01*
X101110714Y-62047653D01*
X101314592Y-62047653D01*
X101514551Y-62007879D01*
X101676914Y-61940625D01*
X101740226Y-62003937D01*
X101909744Y-62117205D01*
X102098102Y-62195226D01*
X102298061Y-62235000D01*
X102501939Y-62235000D01*
X102701898Y-62195226D01*
X102890256Y-62117205D01*
X103059774Y-62003937D01*
X103203937Y-61859774D01*
X103317205Y-61690256D01*
X103395226Y-61501898D01*
X103435000Y-61301939D01*
X103435000Y-61098061D01*
X103395226Y-60898102D01*
X103317205Y-60709744D01*
X103203937Y-60540226D01*
X103059774Y-60396063D01*
X102890256Y-60282795D01*
X102701898Y-60204774D01*
X102501939Y-60165000D01*
X102298061Y-60165000D01*
X102098102Y-60204774D01*
X101935739Y-60272028D01*
X101872427Y-60208716D01*
X101702909Y-60095448D01*
X101514551Y-60017427D01*
X101314592Y-59977653D01*
X101110714Y-59977653D01*
X100910755Y-60017427D01*
X100722397Y-60095448D01*
X100552879Y-60208716D01*
X100408716Y-60352879D01*
X100295448Y-60522397D01*
X100217427Y-60710755D01*
X100177653Y-60910714D01*
X82327000Y-60910714D01*
X82327000Y-59927000D01*
X109873000Y-59927000D01*
X109873000Y-61559903D01*
%TO.N,+48V*%
G36*
X151207493Y-81854663D02*
G01*
X151209933Y-81879439D01*
X151213000Y-81889551D01*
X151213000Y-82154665D01*
X151215440Y-82179441D01*
X151222667Y-82203266D01*
X151234403Y-82225222D01*
X151250197Y-82244468D01*
X151269443Y-82260262D01*
X151291399Y-82271998D01*
X151315224Y-82279225D01*
X151340000Y-82281665D01*
X153907374Y-82281665D01*
X153907374Y-86282045D01*
X153835057Y-86521570D01*
X153529323Y-87096573D01*
X153117721Y-87601248D01*
X152615933Y-88016362D01*
X152043077Y-88326104D01*
X151420961Y-88518682D01*
X150761656Y-88587978D01*
X150101874Y-88523286D01*
X149478430Y-88335057D01*
X148903427Y-88029323D01*
X148398752Y-87617721D01*
X147983638Y-87115933D01*
X147673896Y-86543077D01*
X147481318Y-85920961D01*
X147412034Y-85261768D01*
X147413193Y-85250000D01*
X147400450Y-85120617D01*
X147362710Y-84996207D01*
X147301425Y-84881550D01*
X147218948Y-84781052D01*
X147118450Y-84698575D01*
X147003793Y-84637290D01*
X146879383Y-84599550D01*
X146782419Y-84590000D01*
X144717581Y-84590000D01*
X144620617Y-84599550D01*
X144496207Y-84637290D01*
X144381550Y-84698575D01*
X144281052Y-84781052D01*
X144198575Y-84881550D01*
X144137290Y-84996207D01*
X144099550Y-85120617D01*
X144086807Y-85250000D01*
X144086821Y-85250143D01*
X144023286Y-85898126D01*
X143835057Y-86521570D01*
X143529323Y-87096573D01*
X143117721Y-87601248D01*
X142615933Y-88016362D01*
X142595029Y-88027665D01*
X142470942Y-88027665D01*
X142825939Y-87790464D01*
X143290464Y-87325939D01*
X143655439Y-86779715D01*
X143906838Y-86172784D01*
X144035000Y-85528469D01*
X144035000Y-84871531D01*
X143906838Y-84227216D01*
X143655439Y-83620285D01*
X143290464Y-83074061D01*
X142825939Y-82609536D01*
X142279715Y-82244561D01*
X141919407Y-82095317D01*
X141918266Y-81185000D01*
X142101939Y-81185000D01*
X142301898Y-81145226D01*
X142490256Y-81067205D01*
X142550000Y-81027285D01*
X142609744Y-81067205D01*
X142798102Y-81145226D01*
X142998061Y-81185000D01*
X143201939Y-81185000D01*
X143401898Y-81145226D01*
X143590256Y-81067205D01*
X143650000Y-81027285D01*
X143709744Y-81067205D01*
X143898102Y-81145226D01*
X144098061Y-81185000D01*
X144301939Y-81185000D01*
X144501898Y-81145226D01*
X144690256Y-81067205D01*
X144750000Y-81027285D01*
X144809744Y-81067205D01*
X144998102Y-81145226D01*
X145198061Y-81185000D01*
X145401939Y-81185000D01*
X145601898Y-81145226D01*
X145790256Y-81067205D01*
X145959774Y-80953937D01*
X146103937Y-80809774D01*
X146217205Y-80640256D01*
X146295226Y-80451898D01*
X146335000Y-80251939D01*
X146335000Y-80048061D01*
X146295226Y-79848102D01*
X146217205Y-79659744D01*
X146210694Y-79650000D01*
X146217205Y-79640256D01*
X146295226Y-79451898D01*
X146335000Y-79251939D01*
X146335000Y-79048061D01*
X146295226Y-78848102D01*
X146217205Y-78659744D01*
X146103937Y-78490226D01*
X145959774Y-78346063D01*
X145790256Y-78232795D01*
X145601898Y-78154774D01*
X145401939Y-78115000D01*
X145198061Y-78115000D01*
X145008684Y-78152669D01*
X145117205Y-77990256D01*
X145195226Y-77801898D01*
X145235000Y-77601939D01*
X145235000Y-77398061D01*
X145195226Y-77198102D01*
X145117205Y-77009744D01*
X145003937Y-76840226D01*
X144859774Y-76696063D01*
X144690256Y-76582795D01*
X144501898Y-76504774D01*
X144301939Y-76465000D01*
X144098061Y-76465000D01*
X143898102Y-76504774D01*
X143709744Y-76582795D01*
X143540226Y-76696063D01*
X143396063Y-76840226D01*
X143282795Y-77009744D01*
X143204774Y-77198102D01*
X143165000Y-77398061D01*
X143165000Y-77601939D01*
X143204774Y-77801898D01*
X143282795Y-77990256D01*
X143391316Y-78152669D01*
X143201939Y-78115000D01*
X142998061Y-78115000D01*
X142798102Y-78154774D01*
X142609744Y-78232795D01*
X142550000Y-78272715D01*
X142490256Y-78232795D01*
X142301898Y-78154774D01*
X142101939Y-78115000D01*
X141981515Y-78115000D01*
X141917205Y-77959744D01*
X141914219Y-77955275D01*
X141914206Y-77944744D01*
X141917205Y-77940256D01*
X141995226Y-77751898D01*
X142035000Y-77551939D01*
X142035000Y-77348061D01*
X141995226Y-77148102D01*
X141917205Y-76959744D01*
X141912963Y-76953396D01*
X141905694Y-71152232D01*
X141990256Y-71117205D01*
X142159774Y-71003937D01*
X142303937Y-70859774D01*
X142417205Y-70690256D01*
X142495226Y-70501898D01*
X142535000Y-70301939D01*
X142535000Y-70098061D01*
X142495226Y-69898102D01*
X142417205Y-69709744D01*
X142303937Y-69540226D01*
X142159774Y-69396063D01*
X141990256Y-69282795D01*
X141903306Y-69246779D01*
X141903092Y-69076219D01*
X142098061Y-69115000D01*
X142301939Y-69115000D01*
X142501898Y-69075226D01*
X142690256Y-68997205D01*
X142859774Y-68883937D01*
X143003937Y-68739774D01*
X143081921Y-68623061D01*
X143240000Y-68623061D01*
X143240000Y-68826939D01*
X143279774Y-69026898D01*
X143357795Y-69215256D01*
X143471063Y-69384774D01*
X143615226Y-69528937D01*
X143784744Y-69642205D01*
X143973102Y-69720226D01*
X144173061Y-69760000D01*
X144376939Y-69760000D01*
X144576898Y-69720226D01*
X144765256Y-69642205D01*
X144934774Y-69528937D01*
X145078937Y-69384774D01*
X145192205Y-69215256D01*
X145270226Y-69026898D01*
X145310000Y-68826939D01*
X145310000Y-68623061D01*
X145270226Y-68423102D01*
X145192205Y-68234744D01*
X145078937Y-68065226D01*
X144934774Y-67921063D01*
X144765256Y-67807795D01*
X144576898Y-67729774D01*
X144376939Y-67690000D01*
X144173061Y-67690000D01*
X143973102Y-67729774D01*
X143784744Y-67807795D01*
X143615226Y-67921063D01*
X143471063Y-68065226D01*
X143357795Y-68234744D01*
X143279774Y-68423102D01*
X143240000Y-68623061D01*
X143081921Y-68623061D01*
X143117205Y-68570256D01*
X143195226Y-68381898D01*
X143235000Y-68181939D01*
X143235000Y-67978061D01*
X143195226Y-67778102D01*
X143117205Y-67589744D01*
X143003937Y-67420226D01*
X142859774Y-67276063D01*
X142690256Y-67162795D01*
X142501898Y-67084774D01*
X142301939Y-67045000D01*
X142098061Y-67045000D01*
X141900596Y-67084278D01*
X141899694Y-66364017D01*
X141903937Y-66359774D01*
X142017205Y-66190256D01*
X142095226Y-66001898D01*
X142095989Y-65998061D01*
X143265000Y-65998061D01*
X143265000Y-66201939D01*
X143304774Y-66401898D01*
X143382795Y-66590256D01*
X143496063Y-66759774D01*
X143640226Y-66903937D01*
X143809744Y-67017205D01*
X143998102Y-67095226D01*
X144198061Y-67135000D01*
X144401939Y-67135000D01*
X144601898Y-67095226D01*
X144790256Y-67017205D01*
X144959774Y-66903937D01*
X145103937Y-66759774D01*
X145217205Y-66590256D01*
X145295226Y-66401898D01*
X145335000Y-66201939D01*
X145335000Y-65998061D01*
X145295226Y-65798102D01*
X145217205Y-65609744D01*
X145103937Y-65440226D01*
X144959774Y-65296063D01*
X144790256Y-65182795D01*
X144601898Y-65104774D01*
X144401939Y-65065000D01*
X144198061Y-65065000D01*
X143998102Y-65104774D01*
X143809744Y-65182795D01*
X143640226Y-65296063D01*
X143496063Y-65440226D01*
X143382795Y-65609744D01*
X143304774Y-65798102D01*
X143265000Y-65998061D01*
X142095989Y-65998061D01*
X142135000Y-65801939D01*
X142135000Y-65598061D01*
X142095226Y-65398102D01*
X142017205Y-65209744D01*
X141903937Y-65040226D01*
X141898027Y-65034316D01*
X141888458Y-57398061D01*
X142165000Y-57398061D01*
X142165000Y-57601939D01*
X142204774Y-57801898D01*
X142282795Y-57990256D01*
X142322715Y-58050000D01*
X142282795Y-58109744D01*
X142204774Y-58298102D01*
X142165000Y-58498061D01*
X142165000Y-58701939D01*
X142204774Y-58901898D01*
X142282795Y-59090256D01*
X142396063Y-59259774D01*
X142540226Y-59403937D01*
X142709744Y-59517205D01*
X142898102Y-59595226D01*
X143098061Y-59635000D01*
X143301939Y-59635000D01*
X143501898Y-59595226D01*
X143690256Y-59517205D01*
X143750000Y-59477285D01*
X143771580Y-59491704D01*
X143690226Y-59546063D01*
X143546063Y-59690226D01*
X143432795Y-59859744D01*
X143354774Y-60048102D01*
X143315000Y-60248061D01*
X143315000Y-60451939D01*
X143354774Y-60651898D01*
X143432795Y-60840256D01*
X143546063Y-61009774D01*
X143690226Y-61153937D01*
X143859744Y-61267205D01*
X144048102Y-61345226D01*
X144248061Y-61385000D01*
X144451939Y-61385000D01*
X144651898Y-61345226D01*
X144840256Y-61267205D01*
X145009774Y-61153937D01*
X145153937Y-61009774D01*
X145267205Y-60840256D01*
X145345226Y-60651898D01*
X145385000Y-60451939D01*
X145385000Y-60248061D01*
X145345226Y-60048102D01*
X145267205Y-59859744D01*
X145153937Y-59690226D01*
X145031243Y-59567532D01*
X145098102Y-59595226D01*
X145298061Y-59635000D01*
X145501939Y-59635000D01*
X145701898Y-59595226D01*
X145890256Y-59517205D01*
X146059774Y-59403937D01*
X146203937Y-59259774D01*
X146317205Y-59090256D01*
X146395226Y-58901898D01*
X146435000Y-58701939D01*
X146435000Y-58498061D01*
X146395226Y-58298102D01*
X146317205Y-58109744D01*
X146277285Y-58050000D01*
X146317205Y-57990256D01*
X146395226Y-57801898D01*
X146435000Y-57601939D01*
X146435000Y-57398061D01*
X146395226Y-57198102D01*
X146317205Y-57009744D01*
X146203937Y-56840226D01*
X146059774Y-56696063D01*
X145890256Y-56582795D01*
X145701898Y-56504774D01*
X145501939Y-56465000D01*
X145298061Y-56465000D01*
X145098102Y-56504774D01*
X144909744Y-56582795D01*
X144850000Y-56622715D01*
X144790256Y-56582795D01*
X144601898Y-56504774D01*
X144401939Y-56465000D01*
X144198061Y-56465000D01*
X143998102Y-56504774D01*
X143809744Y-56582795D01*
X143750000Y-56622715D01*
X143690256Y-56582795D01*
X143501898Y-56504774D01*
X143301939Y-56465000D01*
X143098061Y-56465000D01*
X142898102Y-56504774D01*
X142709744Y-56582795D01*
X142540226Y-56696063D01*
X142396063Y-56840226D01*
X142282795Y-57009744D01*
X142204774Y-57198102D01*
X142165000Y-57398061D01*
X141888458Y-57398061D01*
X141881817Y-52098061D01*
X142265000Y-52098061D01*
X142265000Y-52301939D01*
X142304774Y-52501898D01*
X142382795Y-52690256D01*
X142389306Y-52700000D01*
X142382795Y-52709744D01*
X142304774Y-52898102D01*
X142265000Y-53098061D01*
X142265000Y-53301939D01*
X142304774Y-53501898D01*
X142382795Y-53690256D01*
X142496063Y-53859774D01*
X142640226Y-54003937D01*
X142809744Y-54117205D01*
X142998102Y-54195226D01*
X143198061Y-54235000D01*
X143401939Y-54235000D01*
X143601898Y-54195226D01*
X143790256Y-54117205D01*
X143850000Y-54077285D01*
X143909744Y-54117205D01*
X144098102Y-54195226D01*
X144298061Y-54235000D01*
X144501939Y-54235000D01*
X144701898Y-54195226D01*
X144890256Y-54117205D01*
X144950000Y-54077285D01*
X145009744Y-54117205D01*
X145198102Y-54195226D01*
X145398061Y-54235000D01*
X145601939Y-54235000D01*
X145801898Y-54195226D01*
X145990256Y-54117205D01*
X146159774Y-54003937D01*
X146303937Y-53859774D01*
X146417205Y-53690256D01*
X146495226Y-53501898D01*
X146535000Y-53301939D01*
X146535000Y-53098061D01*
X146495226Y-52898102D01*
X146417205Y-52709744D01*
X146410694Y-52700000D01*
X146417205Y-52690256D01*
X146495226Y-52501898D01*
X146535000Y-52301939D01*
X146535000Y-52098061D01*
X146495226Y-51898102D01*
X146417205Y-51709744D01*
X146303937Y-51540226D01*
X146159774Y-51396063D01*
X145990256Y-51282795D01*
X145801898Y-51204774D01*
X145601939Y-51165000D01*
X145398061Y-51165000D01*
X145198102Y-51204774D01*
X145072834Y-51256662D01*
X145117205Y-51190256D01*
X145195226Y-51001898D01*
X145235000Y-50801939D01*
X145235000Y-50598061D01*
X145195226Y-50398102D01*
X145117205Y-50209744D01*
X145003937Y-50040226D01*
X144859774Y-49896063D01*
X144690256Y-49782795D01*
X144501898Y-49704774D01*
X144301939Y-49665000D01*
X144098061Y-49665000D01*
X143898102Y-49704774D01*
X143709744Y-49782795D01*
X143540226Y-49896063D01*
X143396063Y-50040226D01*
X143282795Y-50209744D01*
X143204774Y-50398102D01*
X143165000Y-50598061D01*
X143165000Y-50801939D01*
X143204774Y-51001898D01*
X143272334Y-51165000D01*
X143198061Y-51165000D01*
X142998102Y-51204774D01*
X142809744Y-51282795D01*
X142640226Y-51396063D01*
X142496063Y-51540226D01*
X142382795Y-51709744D01*
X142304774Y-51898102D01*
X142265000Y-52098061D01*
X141881817Y-52098061D01*
X141877000Y-48254506D01*
X141874529Y-48229732D01*
X141867272Y-48205917D01*
X141855508Y-48183975D01*
X141839690Y-48164750D01*
X141820425Y-48148980D01*
X141798454Y-48137271D01*
X141774620Y-48130074D01*
X141750118Y-48127665D01*
X136735330Y-48123000D01*
X136710551Y-48125417D01*
X136686720Y-48132622D01*
X136664753Y-48144338D01*
X136645493Y-48160114D01*
X136629681Y-48179344D01*
X136617925Y-48201290D01*
X136610675Y-48225108D01*
X136608212Y-48250000D01*
X136608212Y-49823000D01*
X131962212Y-49823000D01*
X131962212Y-47350000D01*
X131959772Y-47325224D01*
X131952545Y-47301399D01*
X131940809Y-47279443D01*
X131925015Y-47260197D01*
X131905769Y-47244403D01*
X131883813Y-47232667D01*
X131859988Y-47225440D01*
X131835212Y-47223000D01*
X109662212Y-47223000D01*
X109662212Y-43877000D01*
X151208210Y-43877000D01*
X151207493Y-81854663D01*
G37*
X151207493Y-81854663D02*
X151209933Y-81879439D01*
X151213000Y-81889551D01*
X151213000Y-82154665D01*
X151215440Y-82179441D01*
X151222667Y-82203266D01*
X151234403Y-82225222D01*
X151250197Y-82244468D01*
X151269443Y-82260262D01*
X151291399Y-82271998D01*
X151315224Y-82279225D01*
X151340000Y-82281665D01*
X153907374Y-82281665D01*
X153907374Y-86282045D01*
X153835057Y-86521570D01*
X153529323Y-87096573D01*
X153117721Y-87601248D01*
X152615933Y-88016362D01*
X152043077Y-88326104D01*
X151420961Y-88518682D01*
X150761656Y-88587978D01*
X150101874Y-88523286D01*
X149478430Y-88335057D01*
X148903427Y-88029323D01*
X148398752Y-87617721D01*
X147983638Y-87115933D01*
X147673896Y-86543077D01*
X147481318Y-85920961D01*
X147412034Y-85261768D01*
X147413193Y-85250000D01*
X147400450Y-85120617D01*
X147362710Y-84996207D01*
X147301425Y-84881550D01*
X147218948Y-84781052D01*
X147118450Y-84698575D01*
X147003793Y-84637290D01*
X146879383Y-84599550D01*
X146782419Y-84590000D01*
X144717581Y-84590000D01*
X144620617Y-84599550D01*
X144496207Y-84637290D01*
X144381550Y-84698575D01*
X144281052Y-84781052D01*
X144198575Y-84881550D01*
X144137290Y-84996207D01*
X144099550Y-85120617D01*
X144086807Y-85250000D01*
X144086821Y-85250143D01*
X144023286Y-85898126D01*
X143835057Y-86521570D01*
X143529323Y-87096573D01*
X143117721Y-87601248D01*
X142615933Y-88016362D01*
X142595029Y-88027665D01*
X142470942Y-88027665D01*
X142825939Y-87790464D01*
X143290464Y-87325939D01*
X143655439Y-86779715D01*
X143906838Y-86172784D01*
X144035000Y-85528469D01*
X144035000Y-84871531D01*
X143906838Y-84227216D01*
X143655439Y-83620285D01*
X143290464Y-83074061D01*
X142825939Y-82609536D01*
X142279715Y-82244561D01*
X141919407Y-82095317D01*
X141918266Y-81185000D01*
X142101939Y-81185000D01*
X142301898Y-81145226D01*
X142490256Y-81067205D01*
X142550000Y-81027285D01*
X142609744Y-81067205D01*
X142798102Y-81145226D01*
X142998061Y-81185000D01*
X143201939Y-81185000D01*
X143401898Y-81145226D01*
X143590256Y-81067205D01*
X143650000Y-81027285D01*
X143709744Y-81067205D01*
X143898102Y-81145226D01*
X144098061Y-81185000D01*
X144301939Y-81185000D01*
X144501898Y-81145226D01*
X144690256Y-81067205D01*
X144750000Y-81027285D01*
X144809744Y-81067205D01*
X144998102Y-81145226D01*
X145198061Y-81185000D01*
X145401939Y-81185000D01*
X145601898Y-81145226D01*
X145790256Y-81067205D01*
X145959774Y-80953937D01*
X146103937Y-80809774D01*
X146217205Y-80640256D01*
X146295226Y-80451898D01*
X146335000Y-80251939D01*
X146335000Y-80048061D01*
X146295226Y-79848102D01*
X146217205Y-79659744D01*
X146210694Y-79650000D01*
X146217205Y-79640256D01*
X146295226Y-79451898D01*
X146335000Y-79251939D01*
X146335000Y-79048061D01*
X146295226Y-78848102D01*
X146217205Y-78659744D01*
X146103937Y-78490226D01*
X145959774Y-78346063D01*
X145790256Y-78232795D01*
X145601898Y-78154774D01*
X145401939Y-78115000D01*
X145198061Y-78115000D01*
X145008684Y-78152669D01*
X145117205Y-77990256D01*
X145195226Y-77801898D01*
X145235000Y-77601939D01*
X145235000Y-77398061D01*
X145195226Y-77198102D01*
X145117205Y-77009744D01*
X145003937Y-76840226D01*
X144859774Y-76696063D01*
X144690256Y-76582795D01*
X144501898Y-76504774D01*
X144301939Y-76465000D01*
X144098061Y-76465000D01*
X143898102Y-76504774D01*
X143709744Y-76582795D01*
X143540226Y-76696063D01*
X143396063Y-76840226D01*
X143282795Y-77009744D01*
X143204774Y-77198102D01*
X143165000Y-77398061D01*
X143165000Y-77601939D01*
X143204774Y-77801898D01*
X143282795Y-77990256D01*
X143391316Y-78152669D01*
X143201939Y-78115000D01*
X142998061Y-78115000D01*
X142798102Y-78154774D01*
X142609744Y-78232795D01*
X142550000Y-78272715D01*
X142490256Y-78232795D01*
X142301898Y-78154774D01*
X142101939Y-78115000D01*
X141981515Y-78115000D01*
X141917205Y-77959744D01*
X141914219Y-77955275D01*
X141914206Y-77944744D01*
X141917205Y-77940256D01*
X141995226Y-77751898D01*
X142035000Y-77551939D01*
X142035000Y-77348061D01*
X141995226Y-77148102D01*
X141917205Y-76959744D01*
X141912963Y-76953396D01*
X141905694Y-71152232D01*
X141990256Y-71117205D01*
X142159774Y-71003937D01*
X142303937Y-70859774D01*
X142417205Y-70690256D01*
X142495226Y-70501898D01*
X142535000Y-70301939D01*
X142535000Y-70098061D01*
X142495226Y-69898102D01*
X142417205Y-69709744D01*
X142303937Y-69540226D01*
X142159774Y-69396063D01*
X141990256Y-69282795D01*
X141903306Y-69246779D01*
X141903092Y-69076219D01*
X142098061Y-69115000D01*
X142301939Y-69115000D01*
X142501898Y-69075226D01*
X142690256Y-68997205D01*
X142859774Y-68883937D01*
X143003937Y-68739774D01*
X143081921Y-68623061D01*
X143240000Y-68623061D01*
X143240000Y-68826939D01*
X143279774Y-69026898D01*
X143357795Y-69215256D01*
X143471063Y-69384774D01*
X143615226Y-69528937D01*
X143784744Y-69642205D01*
X143973102Y-69720226D01*
X144173061Y-69760000D01*
X144376939Y-69760000D01*
X144576898Y-69720226D01*
X144765256Y-69642205D01*
X144934774Y-69528937D01*
X145078937Y-69384774D01*
X145192205Y-69215256D01*
X145270226Y-69026898D01*
X145310000Y-68826939D01*
X145310000Y-68623061D01*
X145270226Y-68423102D01*
X145192205Y-68234744D01*
X145078937Y-68065226D01*
X144934774Y-67921063D01*
X144765256Y-67807795D01*
X144576898Y-67729774D01*
X144376939Y-67690000D01*
X144173061Y-67690000D01*
X143973102Y-67729774D01*
X143784744Y-67807795D01*
X143615226Y-67921063D01*
X143471063Y-68065226D01*
X143357795Y-68234744D01*
X143279774Y-68423102D01*
X143240000Y-68623061D01*
X143081921Y-68623061D01*
X143117205Y-68570256D01*
X143195226Y-68381898D01*
X143235000Y-68181939D01*
X143235000Y-67978061D01*
X143195226Y-67778102D01*
X143117205Y-67589744D01*
X143003937Y-67420226D01*
X142859774Y-67276063D01*
X142690256Y-67162795D01*
X142501898Y-67084774D01*
X142301939Y-67045000D01*
X142098061Y-67045000D01*
X141900596Y-67084278D01*
X141899694Y-66364017D01*
X141903937Y-66359774D01*
X142017205Y-66190256D01*
X142095226Y-66001898D01*
X142095989Y-65998061D01*
X143265000Y-65998061D01*
X143265000Y-66201939D01*
X143304774Y-66401898D01*
X143382795Y-66590256D01*
X143496063Y-66759774D01*
X143640226Y-66903937D01*
X143809744Y-67017205D01*
X143998102Y-67095226D01*
X144198061Y-67135000D01*
X144401939Y-67135000D01*
X144601898Y-67095226D01*
X144790256Y-67017205D01*
X144959774Y-66903937D01*
X145103937Y-66759774D01*
X145217205Y-66590256D01*
X145295226Y-66401898D01*
X145335000Y-66201939D01*
X145335000Y-65998061D01*
X145295226Y-65798102D01*
X145217205Y-65609744D01*
X145103937Y-65440226D01*
X144959774Y-65296063D01*
X144790256Y-65182795D01*
X144601898Y-65104774D01*
X144401939Y-65065000D01*
X144198061Y-65065000D01*
X143998102Y-65104774D01*
X143809744Y-65182795D01*
X143640226Y-65296063D01*
X143496063Y-65440226D01*
X143382795Y-65609744D01*
X143304774Y-65798102D01*
X143265000Y-65998061D01*
X142095989Y-65998061D01*
X142135000Y-65801939D01*
X142135000Y-65598061D01*
X142095226Y-65398102D01*
X142017205Y-65209744D01*
X141903937Y-65040226D01*
X141898027Y-65034316D01*
X141888458Y-57398061D01*
X142165000Y-57398061D01*
X142165000Y-57601939D01*
X142204774Y-57801898D01*
X142282795Y-57990256D01*
X142322715Y-58050000D01*
X142282795Y-58109744D01*
X142204774Y-58298102D01*
X142165000Y-58498061D01*
X142165000Y-58701939D01*
X142204774Y-58901898D01*
X142282795Y-59090256D01*
X142396063Y-59259774D01*
X142540226Y-59403937D01*
X142709744Y-59517205D01*
X142898102Y-59595226D01*
X143098061Y-59635000D01*
X143301939Y-59635000D01*
X143501898Y-59595226D01*
X143690256Y-59517205D01*
X143750000Y-59477285D01*
X143771580Y-59491704D01*
X143690226Y-59546063D01*
X143546063Y-59690226D01*
X143432795Y-59859744D01*
X143354774Y-60048102D01*
X143315000Y-60248061D01*
X143315000Y-60451939D01*
X143354774Y-60651898D01*
X143432795Y-60840256D01*
X143546063Y-61009774D01*
X143690226Y-61153937D01*
X143859744Y-61267205D01*
X144048102Y-61345226D01*
X144248061Y-61385000D01*
X144451939Y-61385000D01*
X144651898Y-61345226D01*
X144840256Y-61267205D01*
X145009774Y-61153937D01*
X145153937Y-61009774D01*
X145267205Y-60840256D01*
X145345226Y-60651898D01*
X145385000Y-60451939D01*
X145385000Y-60248061D01*
X145345226Y-60048102D01*
X145267205Y-59859744D01*
X145153937Y-59690226D01*
X145031243Y-59567532D01*
X145098102Y-59595226D01*
X145298061Y-59635000D01*
X145501939Y-59635000D01*
X145701898Y-59595226D01*
X145890256Y-59517205D01*
X146059774Y-59403937D01*
X146203937Y-59259774D01*
X146317205Y-59090256D01*
X146395226Y-58901898D01*
X146435000Y-58701939D01*
X146435000Y-58498061D01*
X146395226Y-58298102D01*
X146317205Y-58109744D01*
X146277285Y-58050000D01*
X146317205Y-57990256D01*
X146395226Y-57801898D01*
X146435000Y-57601939D01*
X146435000Y-57398061D01*
X146395226Y-57198102D01*
X146317205Y-57009744D01*
X146203937Y-56840226D01*
X146059774Y-56696063D01*
X145890256Y-56582795D01*
X145701898Y-56504774D01*
X145501939Y-56465000D01*
X145298061Y-56465000D01*
X145098102Y-56504774D01*
X144909744Y-56582795D01*
X144850000Y-56622715D01*
X144790256Y-56582795D01*
X144601898Y-56504774D01*
X144401939Y-56465000D01*
X144198061Y-56465000D01*
X143998102Y-56504774D01*
X143809744Y-56582795D01*
X143750000Y-56622715D01*
X143690256Y-56582795D01*
X143501898Y-56504774D01*
X143301939Y-56465000D01*
X143098061Y-56465000D01*
X142898102Y-56504774D01*
X142709744Y-56582795D01*
X142540226Y-56696063D01*
X142396063Y-56840226D01*
X142282795Y-57009744D01*
X142204774Y-57198102D01*
X142165000Y-57398061D01*
X141888458Y-57398061D01*
X141881817Y-52098061D01*
X142265000Y-52098061D01*
X142265000Y-52301939D01*
X142304774Y-52501898D01*
X142382795Y-52690256D01*
X142389306Y-52700000D01*
X142382795Y-52709744D01*
X142304774Y-52898102D01*
X142265000Y-53098061D01*
X142265000Y-53301939D01*
X142304774Y-53501898D01*
X142382795Y-53690256D01*
X142496063Y-53859774D01*
X142640226Y-54003937D01*
X142809744Y-54117205D01*
X142998102Y-54195226D01*
X143198061Y-54235000D01*
X143401939Y-54235000D01*
X143601898Y-54195226D01*
X143790256Y-54117205D01*
X143850000Y-54077285D01*
X143909744Y-54117205D01*
X144098102Y-54195226D01*
X144298061Y-54235000D01*
X144501939Y-54235000D01*
X144701898Y-54195226D01*
X144890256Y-54117205D01*
X144950000Y-54077285D01*
X145009744Y-54117205D01*
X145198102Y-54195226D01*
X145398061Y-54235000D01*
X145601939Y-54235000D01*
X145801898Y-54195226D01*
X145990256Y-54117205D01*
X146159774Y-54003937D01*
X146303937Y-53859774D01*
X146417205Y-53690256D01*
X146495226Y-53501898D01*
X146535000Y-53301939D01*
X146535000Y-53098061D01*
X146495226Y-52898102D01*
X146417205Y-52709744D01*
X146410694Y-52700000D01*
X146417205Y-52690256D01*
X146495226Y-52501898D01*
X146535000Y-52301939D01*
X146535000Y-52098061D01*
X146495226Y-51898102D01*
X146417205Y-51709744D01*
X146303937Y-51540226D01*
X146159774Y-51396063D01*
X145990256Y-51282795D01*
X145801898Y-51204774D01*
X145601939Y-51165000D01*
X145398061Y-51165000D01*
X145198102Y-51204774D01*
X145072834Y-51256662D01*
X145117205Y-51190256D01*
X145195226Y-51001898D01*
X145235000Y-50801939D01*
X145235000Y-50598061D01*
X145195226Y-50398102D01*
X145117205Y-50209744D01*
X145003937Y-50040226D01*
X144859774Y-49896063D01*
X144690256Y-49782795D01*
X144501898Y-49704774D01*
X144301939Y-49665000D01*
X144098061Y-49665000D01*
X143898102Y-49704774D01*
X143709744Y-49782795D01*
X143540226Y-49896063D01*
X143396063Y-50040226D01*
X143282795Y-50209744D01*
X143204774Y-50398102D01*
X143165000Y-50598061D01*
X143165000Y-50801939D01*
X143204774Y-51001898D01*
X143272334Y-51165000D01*
X143198061Y-51165000D01*
X142998102Y-51204774D01*
X142809744Y-51282795D01*
X142640226Y-51396063D01*
X142496063Y-51540226D01*
X142382795Y-51709744D01*
X142304774Y-51898102D01*
X142265000Y-52098061D01*
X141881817Y-52098061D01*
X141877000Y-48254506D01*
X141874529Y-48229732D01*
X141867272Y-48205917D01*
X141855508Y-48183975D01*
X141839690Y-48164750D01*
X141820425Y-48148980D01*
X141798454Y-48137271D01*
X141774620Y-48130074D01*
X141750118Y-48127665D01*
X136735330Y-48123000D01*
X136710551Y-48125417D01*
X136686720Y-48132622D01*
X136664753Y-48144338D01*
X136645493Y-48160114D01*
X136629681Y-48179344D01*
X136617925Y-48201290D01*
X136610675Y-48225108D01*
X136608212Y-48250000D01*
X136608212Y-49823000D01*
X131962212Y-49823000D01*
X131962212Y-47350000D01*
X131959772Y-47325224D01*
X131952545Y-47301399D01*
X131940809Y-47279443D01*
X131925015Y-47260197D01*
X131905769Y-47244403D01*
X131883813Y-47232667D01*
X131859988Y-47225440D01*
X131835212Y-47223000D01*
X109662212Y-47223000D01*
X109662212Y-43877000D01*
X151208210Y-43877000D01*
X151207493Y-81854663D01*
%TD*%
M02*
