%TF.GenerationSoftware,KiCad,Pcbnew,(5.1.6)-1*%
%TF.CreationDate,2021-03-31T23:30:28+02:00*%
%TF.ProjectId,DRIVER_8323_based,44524956-4552-45f3-9833-32335f626173,rev?*%
%TF.SameCoordinates,Original*%
%TF.FileFunction,Copper,L4,Bot*%
%TF.FilePolarity,Positive*%
%FSLAX46Y46*%
G04 Gerber Fmt 4.6, Leading zero omitted, Abs format (unit mm)*
G04 Created by KiCad (PCBNEW (5.1.6)-1) date 2021-03-31 23:30:28*
%MOMM*%
%LPD*%
G01*
G04 APERTURE LIST*
%TA.AperFunction,ComponentPad*%
%ADD10O,1.700000X1.700000*%
%TD*%
%TA.AperFunction,ComponentPad*%
%ADD11R,1.700000X1.700000*%
%TD*%
%TA.AperFunction,ComponentPad*%
%ADD12C,3.800000*%
%TD*%
%TA.AperFunction,ComponentPad*%
%ADD13C,5.400000*%
%TD*%
%TA.AperFunction,Conductor*%
%ADD14R,4.150000X4.150000*%
%TD*%
%TA.AperFunction,ViaPad*%
%ADD15C,0.500000*%
%TD*%
%TA.AperFunction,ViaPad*%
%ADD16C,0.800000*%
%TD*%
%TA.AperFunction,ViaPad*%
%ADD17C,1.500000*%
%TD*%
%TA.AperFunction,Conductor*%
%ADD18C,0.250000*%
%TD*%
%TA.AperFunction,Conductor*%
%ADD19C,1.000000*%
%TD*%
%TA.AperFunction,Conductor*%
%ADD20C,0.500000*%
%TD*%
%TA.AperFunction,Conductor*%
%ADD21C,0.254000*%
%TD*%
G04 APERTURE END LIST*
%TO.P,C26,2*%
%TO.N,GND*%
%TA.AperFunction,SMDPad,CuDef*%
G36*
G01*
X146175000Y-51225000D02*
X146175000Y-52475000D01*
G75*
G02*
X145925000Y-52725000I-250000J0D01*
G01*
X145175000Y-52725000D01*
G75*
G02*
X144925000Y-52475000I0J250000D01*
G01*
X144925000Y-51225000D01*
G75*
G02*
X145175000Y-50975000I250000J0D01*
G01*
X145925000Y-50975000D01*
G75*
G02*
X146175000Y-51225000I0J-250000D01*
G01*
G37*
%TD.AperFunction*%
%TO.P,C26,1*%
%TO.N,+48V*%
%TA.AperFunction,SMDPad,CuDef*%
G36*
G01*
X148975000Y-51225000D02*
X148975000Y-52475000D01*
G75*
G02*
X148725000Y-52725000I-250000J0D01*
G01*
X147975000Y-52725000D01*
G75*
G02*
X147725000Y-52475000I0J250000D01*
G01*
X147725000Y-51225000D01*
G75*
G02*
X147975000Y-50975000I250000J0D01*
G01*
X148725000Y-50975000D01*
G75*
G02*
X148975000Y-51225000I0J-250000D01*
G01*
G37*
%TD.AperFunction*%
%TD*%
%TO.P,C25,2*%
%TO.N,GND*%
%TA.AperFunction,SMDPad,CuDef*%
G36*
G01*
X146125000Y-80475000D02*
X146125000Y-81725000D01*
G75*
G02*
X145875000Y-81975000I-250000J0D01*
G01*
X145125000Y-81975000D01*
G75*
G02*
X144875000Y-81725000I0J250000D01*
G01*
X144875000Y-80475000D01*
G75*
G02*
X145125000Y-80225000I250000J0D01*
G01*
X145875000Y-80225000D01*
G75*
G02*
X146125000Y-80475000I0J-250000D01*
G01*
G37*
%TD.AperFunction*%
%TO.P,C25,1*%
%TO.N,+48V*%
%TA.AperFunction,SMDPad,CuDef*%
G36*
G01*
X148925000Y-80475000D02*
X148925000Y-81725000D01*
G75*
G02*
X148675000Y-81975000I-250000J0D01*
G01*
X147925000Y-81975000D01*
G75*
G02*
X147675000Y-81725000I0J250000D01*
G01*
X147675000Y-80475000D01*
G75*
G02*
X147925000Y-80225000I250000J0D01*
G01*
X148675000Y-80225000D01*
G75*
G02*
X148925000Y-80475000I0J-250000D01*
G01*
G37*
%TD.AperFunction*%
%TD*%
%TO.P,C24,2*%
%TO.N,GND*%
%TA.AperFunction,SMDPad,CuDef*%
G36*
G01*
X146325000Y-57525000D02*
X146325000Y-58775000D01*
G75*
G02*
X146075000Y-59025000I-250000J0D01*
G01*
X145325000Y-59025000D01*
G75*
G02*
X145075000Y-58775000I0J250000D01*
G01*
X145075000Y-57525000D01*
G75*
G02*
X145325000Y-57275000I250000J0D01*
G01*
X146075000Y-57275000D01*
G75*
G02*
X146325000Y-57525000I0J-250000D01*
G01*
G37*
%TD.AperFunction*%
%TO.P,C24,1*%
%TO.N,+48V*%
%TA.AperFunction,SMDPad,CuDef*%
G36*
G01*
X149125000Y-57525000D02*
X149125000Y-58775000D01*
G75*
G02*
X148875000Y-59025000I-250000J0D01*
G01*
X148125000Y-59025000D01*
G75*
G02*
X147875000Y-58775000I0J250000D01*
G01*
X147875000Y-57525000D01*
G75*
G02*
X148125000Y-57275000I250000J0D01*
G01*
X148875000Y-57275000D01*
G75*
G02*
X149125000Y-57525000I0J-250000D01*
G01*
G37*
%TD.AperFunction*%
%TD*%
D10*
%TO.P,J6,2*%
%TO.N,GND*%
X84000000Y-64260000D03*
D11*
%TO.P,J6,1*%
%TO.N,+3V3*%
X84000000Y-66800000D03*
%TD*%
D10*
%TO.P,J2,2*%
%TO.N,USART1_TX*%
X84000000Y-70560000D03*
D11*
%TO.P,J2,1*%
%TO.N,USART1_RX*%
X84000000Y-73100000D03*
%TD*%
D10*
%TO.P,J5,10*%
%TO.N,NRST*%
X83990000Y-80640000D03*
%TO.P,J5,9*%
%TO.N,GND*%
X83990000Y-78100000D03*
%TO.P,J5,8*%
%TO.N,Net-(J5-Pad8)*%
X86530000Y-80640000D03*
%TO.P,J5,7*%
%TO.N,Net-(J5-Pad7)*%
X86530000Y-78100000D03*
%TO.P,J5,6*%
%TO.N,SWO*%
X89070000Y-80640000D03*
%TO.P,J5,5*%
%TO.N,GND*%
X89070000Y-78100000D03*
%TO.P,J5,4*%
%TO.N,SWCLK*%
X91610000Y-80640000D03*
%TO.P,J5,3*%
%TO.N,GND*%
X91610000Y-78100000D03*
%TO.P,J5,2*%
%TO.N,SWDIO*%
X94150000Y-80640000D03*
D11*
%TO.P,J5,1*%
%TO.N,+3V3*%
X94150000Y-78100000D03*
%TD*%
D10*
%TO.P,J3,4*%
%TO.N,GND*%
X98060000Y-80740000D03*
%TO.P,J3,3*%
%TO.N,i2c1_SCL*%
X98060000Y-78200000D03*
%TO.P,J3,2*%
%TO.N,+3V3*%
X100600000Y-80740000D03*
D11*
%TO.P,J3,1*%
%TO.N,i2c1_SDA*%
X100600000Y-78200000D03*
%TD*%
D10*
%TO.P,J1,4*%
%TO.N,GND*%
X123410000Y-80800000D03*
%TO.P,J1,3*%
%TO.N,encoder_1*%
X123410000Y-78260000D03*
%TO.P,J1,2*%
%TO.N,+12V*%
X125950000Y-80800000D03*
D11*
%TO.P,J1,1*%
%TO.N,encoder_2*%
X125950000Y-78260000D03*
%TD*%
D12*
%TO.P,H7,1*%
%TO.N,GND*%
X101100000Y-44600000D03*
%TD*%
%TO.P,H6,1*%
%TO.N,+12V*%
X93700000Y-44600000D03*
%TD*%
D13*
%TO.P,H5,1*%
%TO.N,SHC*%
X159000000Y-50250000D03*
%TD*%
%TO.P,H4,1*%
%TO.N,SHB*%
X159000000Y-62500000D03*
%TD*%
%TO.P,H3,1*%
%TO.N,SHA*%
X159000000Y-75000000D03*
%TD*%
%TO.P,H2,1*%
%TO.N,GND*%
X140700000Y-85200000D03*
%TD*%
%TO.P,H1,1*%
%TO.N,+48V*%
X150700000Y-85200000D03*
%TD*%
D14*
%TO.N,GND*%
%TO.C,U2*%
X129880000Y-66879216D03*
D15*
X130905000Y-65854216D03*
X130905000Y-66879216D03*
X130905000Y-67904216D03*
X129880000Y-65854216D03*
X129880000Y-66879216D03*
X129880000Y-67904216D03*
X128855000Y-65854216D03*
X128855000Y-66879216D03*
X128855000Y-67904216D03*
%TD*%
%TO.P,J14,1*%
%TO.N,SHC*%
%TA.AperFunction,SMDPad,CuDef*%
G36*
G01*
X150600000Y-47800000D02*
X150600000Y-45800000D01*
G75*
G02*
X151600000Y-44800000I1000000J0D01*
G01*
X153600000Y-44800000D01*
G75*
G02*
X154600000Y-45800000I0J-1000000D01*
G01*
X154600000Y-47800000D01*
G75*
G02*
X153600000Y-48800000I-1000000J0D01*
G01*
X151600000Y-48800000D01*
G75*
G02*
X150600000Y-47800000I0J1000000D01*
G01*
G37*
%TD.AperFunction*%
%TD*%
%TO.P,J13,1*%
%TO.N,SHB*%
%TA.AperFunction,SMDPad,CuDef*%
G36*
G01*
X150600000Y-66400000D02*
X150600000Y-64400000D01*
G75*
G02*
X151600000Y-63400000I1000000J0D01*
G01*
X153600000Y-63400000D01*
G75*
G02*
X154600000Y-64400000I0J-1000000D01*
G01*
X154600000Y-66400000D01*
G75*
G02*
X153600000Y-67400000I-1000000J0D01*
G01*
X151600000Y-67400000D01*
G75*
G02*
X150600000Y-66400000I0J1000000D01*
G01*
G37*
%TD.AperFunction*%
%TD*%
%TO.P,J12,1*%
%TO.N,SHA*%
%TA.AperFunction,SMDPad,CuDef*%
G36*
G01*
X150200000Y-73000000D02*
X150200000Y-71000000D01*
G75*
G02*
X151200000Y-70000000I1000000J0D01*
G01*
X153200000Y-70000000D01*
G75*
G02*
X154200000Y-71000000I0J-1000000D01*
G01*
X154200000Y-73000000D01*
G75*
G02*
X153200000Y-74000000I-1000000J0D01*
G01*
X151200000Y-74000000D01*
G75*
G02*
X150200000Y-73000000I0J1000000D01*
G01*
G37*
%TD.AperFunction*%
%TD*%
%TO.P,J11,1*%
%TO.N,+48V*%
%TA.AperFunction,SMDPad,CuDef*%
G36*
G01*
X148000000Y-54000000D02*
X148000000Y-52000000D01*
G75*
G02*
X149000000Y-51000000I1000000J0D01*
G01*
X151000000Y-51000000D01*
G75*
G02*
X152000000Y-52000000I0J-1000000D01*
G01*
X152000000Y-54000000D01*
G75*
G02*
X151000000Y-55000000I-1000000J0D01*
G01*
X149000000Y-55000000D01*
G75*
G02*
X148000000Y-54000000I0J1000000D01*
G01*
G37*
%TD.AperFunction*%
%TD*%
%TO.P,J10,1*%
%TO.N,+48V*%
%TA.AperFunction,SMDPad,CuDef*%
G36*
G01*
X151100000Y-80800000D02*
X149100000Y-80800000D01*
G75*
G02*
X148100000Y-79800000I0J1000000D01*
G01*
X148100000Y-77800000D01*
G75*
G02*
X149100000Y-76800000I1000000J0D01*
G01*
X151100000Y-76800000D01*
G75*
G02*
X152100000Y-77800000I0J-1000000D01*
G01*
X152100000Y-79800000D01*
G75*
G02*
X151100000Y-80800000I-1000000J0D01*
G01*
G37*
%TD.AperFunction*%
%TD*%
%TO.P,J9,1*%
%TO.N,+48V*%
%TA.AperFunction,SMDPad,CuDef*%
G36*
G01*
X148200000Y-60400000D02*
X148200000Y-58400000D01*
G75*
G02*
X149200000Y-57400000I1000000J0D01*
G01*
X151200000Y-57400000D01*
G75*
G02*
X152200000Y-58400000I0J-1000000D01*
G01*
X152200000Y-60400000D01*
G75*
G02*
X151200000Y-61400000I-1000000J0D01*
G01*
X149200000Y-61400000D01*
G75*
G02*
X148200000Y-60400000I0J1000000D01*
G01*
G37*
%TD.AperFunction*%
%TD*%
D16*
%TO.N,SHA*%
X153600000Y-72600000D03*
X153600000Y-71600000D03*
X153600000Y-70600000D03*
X153600000Y-73600000D03*
X152400000Y-70600000D03*
X152400000Y-71600000D03*
X152400000Y-72600000D03*
X152400000Y-73600000D03*
X158100000Y-70700000D03*
X156900000Y-70700000D03*
X155700000Y-70700000D03*
X155700000Y-72000000D03*
X155700000Y-73200000D03*
X156500000Y-78100000D03*
X155300000Y-78100000D03*
X155300000Y-79400000D03*
X156500000Y-79400000D03*
%TO.N,GND*%
X123800000Y-51000000D03*
X121800000Y-51100000D03*
X121800000Y-52500000D03*
X121800000Y-54100000D03*
X121800000Y-49300000D03*
X123800000Y-49300000D03*
X123800000Y-52500000D03*
X123800000Y-54100000D03*
X125800000Y-54100000D03*
X125800000Y-52500000D03*
X125800000Y-50900000D03*
X125900000Y-49300000D03*
X144400000Y-53200000D03*
X122244000Y-73652000D03*
X145500000Y-52200000D03*
X144400000Y-52200000D03*
X143300000Y-52200000D03*
X143300000Y-53200000D03*
X145500000Y-53200000D03*
X145400000Y-58600000D03*
X144300000Y-58600000D03*
X143200000Y-58600000D03*
X143200000Y-57500000D03*
X144300000Y-57500000D03*
X145400000Y-57500000D03*
X143100000Y-79150000D03*
X143100000Y-80150000D03*
X142000000Y-80150000D03*
X142000000Y-79150000D03*
X141000000Y-77450000D03*
X141000000Y-78450000D03*
X139900000Y-78450000D03*
X139900000Y-77450000D03*
X140024990Y-50900000D03*
X144200000Y-50700000D03*
X118800000Y-79200000D03*
X116400000Y-78000000D03*
X115200000Y-78000000D03*
X113200000Y-74000000D03*
X115000000Y-80200000D03*
X118600000Y-65400000D03*
X118600000Y-64200000D03*
X100950000Y-64950000D03*
X98650000Y-71950000D03*
X88550000Y-71050000D03*
X87250000Y-65350000D03*
X95000000Y-58450000D03*
D17*
X91200000Y-56600000D03*
D16*
X117700000Y-66500000D03*
X102450000Y-71850000D03*
X105550000Y-76850000D03*
X100100000Y-74180000D03*
X103020000Y-63300000D03*
X106650000Y-66070000D03*
X113030000Y-81280000D03*
X112200000Y-55000000D03*
X113700000Y-55000000D03*
X115200000Y-55000000D03*
X116700000Y-55000000D03*
X116700000Y-56500000D03*
X118200000Y-56500000D03*
X119000000Y-59300000D03*
X119000000Y-57800000D03*
X132200000Y-52500000D03*
X132200000Y-54100000D03*
X131000000Y-54100000D03*
X131000000Y-52500000D03*
X129800000Y-52500000D03*
X129800000Y-54100000D03*
X128500000Y-54100000D03*
X128500000Y-52500000D03*
X83600000Y-75700000D03*
X141500000Y-70200000D03*
X144200000Y-77500000D03*
X144200000Y-80150000D03*
X145300000Y-79150000D03*
X144200000Y-79150000D03*
X145300000Y-80150000D03*
X105600000Y-80500000D03*
X106900000Y-80550000D03*
X97400000Y-64000000D03*
X144350000Y-60350000D03*
X140600000Y-69354216D03*
X139900000Y-79500000D03*
X139900000Y-80500000D03*
X141000000Y-80500000D03*
X141000000Y-79500000D03*
X138600000Y-79400000D03*
X137500000Y-80400000D03*
X137500000Y-79400000D03*
X138600000Y-80400000D03*
%TO.N,+3V3*%
X105000000Y-78000000D03*
X94200000Y-64500000D03*
X92600000Y-64500000D03*
X91000000Y-64500000D03*
X89400000Y-64500000D03*
X94200000Y-65700000D03*
X92600000Y-65700000D03*
X91000000Y-65700000D03*
X89400000Y-65700000D03*
X89300000Y-68226000D03*
X94380000Y-68226000D03*
X119200000Y-75800000D03*
X115200000Y-64000000D03*
X100170000Y-72900000D03*
X102860000Y-65010000D03*
X94380000Y-66956000D03*
X89300000Y-66956000D03*
X120020000Y-63820000D03*
X108300000Y-79850000D03*
%TO.N,+48V*%
X129750000Y-44900000D03*
X129750000Y-46150000D03*
X150600000Y-77200000D03*
X150600000Y-77200000D03*
X150600000Y-78200000D03*
X150600000Y-79200000D03*
X150600000Y-80200000D03*
X149400000Y-80200000D03*
X148200000Y-80200000D03*
X148200000Y-79200000D03*
X148200000Y-78200000D03*
X148200000Y-77200000D03*
X149400000Y-78200000D03*
X149400000Y-79200000D03*
X148600000Y-57800000D03*
X149600000Y-57800000D03*
X150600000Y-57800000D03*
X150600000Y-58800000D03*
X149600000Y-58800000D03*
X148600000Y-58800000D03*
X148600000Y-59800000D03*
X149600000Y-59800000D03*
X150600000Y-59800000D03*
X150600000Y-51600000D03*
X149600000Y-51600000D03*
X148600000Y-51600000D03*
X148600000Y-52600000D03*
X149600000Y-52600000D03*
X150600000Y-52600000D03*
X150600000Y-53600000D03*
X149600000Y-53600000D03*
X148600000Y-53600000D03*
X148600000Y-60800000D03*
X150600000Y-60800000D03*
X150600000Y-54600000D03*
X149600000Y-54600000D03*
X148600000Y-54600000D03*
X115800000Y-44800000D03*
X114300000Y-44800000D03*
X112800000Y-44800000D03*
X111300000Y-44800000D03*
X110300000Y-46900000D03*
X110300000Y-45800000D03*
X110300000Y-44800000D03*
X132600000Y-44900000D03*
X131300000Y-44900000D03*
X131300000Y-46200000D03*
X132600000Y-46200000D03*
X132600000Y-47800000D03*
X132600000Y-49200000D03*
X134300000Y-49200000D03*
X135800000Y-49200000D03*
X149400000Y-77200000D03*
X149600000Y-60800000D03*
X128189000Y-74811000D03*
%TO.N,SHB*%
X154000000Y-64800000D03*
X154000000Y-63800000D03*
X153000000Y-63800000D03*
X153000000Y-66800000D03*
X154000000Y-66800000D03*
X154000000Y-65800000D03*
X153000000Y-65800000D03*
X141100000Y-65700000D03*
X153000000Y-64800000D03*
X142200000Y-68080000D03*
X155550000Y-59150000D03*
X156900000Y-59150000D03*
X155750000Y-65500000D03*
X155750000Y-66750000D03*
X155750000Y-68000000D03*
X158300000Y-59100000D03*
X155550000Y-60450000D03*
X155750000Y-64250000D03*
%TO.N,SPB*%
X144300000Y-66100000D03*
X144275000Y-68725000D03*
%TO.N,SHC*%
X153800000Y-46200000D03*
X152800000Y-45200000D03*
X152800000Y-46200000D03*
X153800000Y-45200000D03*
X153800000Y-48200000D03*
X152800000Y-47200000D03*
X152800000Y-48200000D03*
X153800000Y-47200000D03*
X155900000Y-45600000D03*
X157100000Y-45600000D03*
X158300000Y-45600000D03*
X155900000Y-46700000D03*
X158300000Y-46700000D03*
X157100000Y-46700000D03*
X155700000Y-53600000D03*
X156900000Y-53600000D03*
X158100000Y-53600000D03*
%TO.N,NRST*%
X105950000Y-69200000D03*
X98400000Y-74200000D03*
%TO.N,SWO*%
X109094309Y-72045068D03*
X102950000Y-75150000D03*
%TO.N,SWCLK*%
X109850000Y-72700000D03*
X100950000Y-75800000D03*
%TO.N,SWDIO*%
X110500000Y-73600000D03*
X102900000Y-76800000D03*
%TO.N,TIM1_CH3*%
X119600000Y-68000000D03*
X121800000Y-68150000D03*
%TO.N,TIM1_CH1*%
X118250000Y-69975000D03*
X118250000Y-68000000D03*
%TO.N,TIM1_CH2N*%
X121500000Y-69625000D03*
X123850000Y-67404216D03*
%TO.N,TIM1_CH1N*%
X125350000Y-66404216D03*
X122350799Y-70150493D03*
%TO.N,SOC*%
X114500000Y-61125000D03*
X109100000Y-70150000D03*
%TO.N,SOB*%
X107798055Y-70187622D03*
X112150000Y-61850000D03*
%TO.N,SOA*%
X106800000Y-70250000D03*
X110075000Y-62575000D03*
%TO.N,+12V*%
X84150000Y-57100000D03*
X109900000Y-50500000D03*
X109900000Y-51600000D03*
X109900000Y-52700000D03*
X109900000Y-53900000D03*
X109900000Y-55000000D03*
X96500000Y-47400000D03*
X94900000Y-47400000D03*
X93100000Y-47950000D03*
X90100000Y-47350000D03*
X90100000Y-49650000D03*
X83700000Y-45900000D03*
X83700000Y-47400000D03*
X83700000Y-48900000D03*
X83700000Y-50500000D03*
X93150000Y-50750000D03*
X90100000Y-50800000D03*
X93100000Y-49400000D03*
X90100000Y-48500000D03*
X85350000Y-45900000D03*
X85350000Y-47400000D03*
X85300000Y-48900000D03*
X85300000Y-50450000D03*
X110000000Y-57500000D03*
%TO.N,encoder_1*%
X119400000Y-81150000D03*
X110000000Y-80350000D03*
%TO.N,encoder_2*%
X119650000Y-80000000D03*
X109900000Y-78400000D03*
%TO.N,i2c1_SDA*%
X102400000Y-61200000D03*
%TO.N,i2c1_SCL*%
X101212653Y-61012653D03*
%TD*%
D18*
%TO.N,GND*%
X140024990Y-50900000D02*
X144000000Y-50900000D01*
X144000000Y-50900000D02*
X144200000Y-50700000D01*
X141500000Y-70200000D02*
X144200000Y-72900000D01*
X144200000Y-72900000D02*
X144200000Y-77500000D01*
X143831214Y-69354216D02*
X140600000Y-69354216D01*
X145025001Y-61025001D02*
X145025001Y-69048001D01*
X144623001Y-69450001D02*
X143926999Y-69450001D01*
X144350000Y-60350000D02*
X145025001Y-61025001D01*
X145025001Y-69048001D02*
X144623001Y-69450001D01*
X143926999Y-69450001D02*
X143831214Y-69354216D01*
D19*
%TO.N,+48V*%
X135800000Y-49200000D02*
X135800000Y-69450000D01*
X130439000Y-74811000D02*
X128189000Y-74811000D01*
X135800000Y-69450000D02*
X130439000Y-74811000D01*
D18*
%TO.N,SHB*%
X152800000Y-65000000D02*
X153000000Y-64800000D01*
X152574999Y-65374999D02*
X152600000Y-65400000D01*
X141100000Y-66980000D02*
X141100000Y-65700000D01*
X142200000Y-68080000D02*
X141100000Y-66980000D01*
%TO.N,SPB*%
X144300000Y-68700000D02*
X144275000Y-68725000D01*
X144300000Y-66100000D02*
X144300000Y-68700000D01*
%TO.N,NRST*%
X105950000Y-70750000D02*
X105950000Y-69200000D01*
X101700000Y-75000000D02*
X105950000Y-70750000D01*
X98400000Y-74200000D02*
X99200000Y-75000000D01*
X99200000Y-75000000D02*
X101700000Y-75000000D01*
%TO.N,SWO*%
X106054932Y-72045068D02*
X109094309Y-72045068D01*
X102950000Y-75150000D02*
X106054932Y-72045068D01*
%TO.N,SWCLK*%
X104024999Y-75875001D02*
X106750000Y-73150000D01*
X109400000Y-73150000D02*
X109850000Y-72700000D01*
X106750000Y-73150000D02*
X109400000Y-73150000D01*
X100950000Y-75800000D02*
X101350000Y-76200000D01*
X102751997Y-75875001D02*
X104024999Y-75875001D01*
X102426998Y-76200000D02*
X102751997Y-75875001D01*
X101350000Y-76200000D02*
X102426998Y-76200000D01*
%TO.N,SWDIO*%
X107726998Y-73600000D02*
X110500000Y-73600000D01*
X104526998Y-76800000D02*
X107726998Y-73600000D01*
X102900000Y-76800000D02*
X104526998Y-76800000D01*
%TO.N,TIM1_CH3*%
X119750000Y-68150000D02*
X119600000Y-68000000D01*
X121800000Y-68150000D02*
X119750000Y-68150000D01*
%TO.N,TIM1_CH1*%
X118250000Y-69975000D02*
X118250000Y-68000000D01*
%TO.N,TIM1_CH2N*%
X121500000Y-69625000D02*
X123720784Y-67404216D01*
X123720784Y-67404216D02*
X123850000Y-67404216D01*
%TO.N,TIM1_CH1N*%
X125350000Y-66404216D02*
X125350000Y-67151292D01*
X125350000Y-67151292D02*
X122350799Y-70150493D01*
%TO.N,SOC*%
X114500000Y-61125000D02*
X109100000Y-66525000D01*
X109100000Y-66525000D02*
X109100000Y-70150000D01*
%TO.N,SOB*%
X112150000Y-62838590D02*
X112150000Y-61850000D01*
X107798055Y-70187622D02*
X107798055Y-69401945D01*
X108649990Y-66338600D02*
X108694295Y-66294295D01*
X108649990Y-68550010D02*
X108649990Y-66338600D01*
X107798055Y-69401945D02*
X108649990Y-68550010D01*
X108694295Y-66294295D02*
X112150000Y-62838590D01*
%TO.N,SOA*%
X110075000Y-64095000D02*
X110075000Y-62575000D01*
X106800000Y-70250000D02*
X106800000Y-69200000D01*
X108185000Y-67815000D02*
X108185000Y-65985000D01*
X106800000Y-69200000D02*
X108185000Y-67815000D01*
X108185000Y-65985000D02*
X110075000Y-64095000D01*
D20*
%TO.N,+12V*%
X125950000Y-80800000D02*
X127200000Y-80800000D01*
X127200000Y-80800000D02*
X128000000Y-80000000D01*
X128000000Y-80000000D02*
X128000000Y-77000000D01*
X128000000Y-77000000D02*
X123000000Y-72000000D01*
X123000000Y-72000000D02*
X118000000Y-72000000D01*
X116050001Y-70050001D02*
X116050001Y-59550001D01*
X118000000Y-72000000D02*
X116050001Y-70050001D01*
X116050001Y-59550001D02*
X114000000Y-57500000D01*
X114000000Y-57500000D02*
X110000000Y-57500000D01*
D18*
%TO.N,encoder_1*%
X113173002Y-80350000D02*
X110000000Y-80350000D01*
X119400000Y-81150000D02*
X113973002Y-81150000D01*
X113973002Y-81150000D02*
X113173002Y-80350000D01*
%TO.N,encoder_2*%
X114273002Y-78400000D02*
X109900000Y-78400000D01*
X115873002Y-80000000D02*
X115636501Y-79763499D01*
X119650000Y-80000000D02*
X115873002Y-80000000D01*
X115725001Y-79851999D02*
X115636501Y-79763499D01*
X115636501Y-79763499D02*
X114273002Y-78400000D01*
%TO.N,i2c1_SDA*%
X97650028Y-74523030D02*
X97650009Y-73813599D01*
X100600000Y-78200000D02*
X100600000Y-77473002D01*
X100600000Y-77473002D02*
X97650028Y-74523030D01*
X97650009Y-73813599D02*
X96650010Y-72813600D01*
X96650010Y-72813600D02*
X96650010Y-65000000D01*
X96674999Y-64325001D02*
X96674999Y-62525001D01*
X96650010Y-65000000D02*
X96650010Y-64349990D01*
X96650010Y-64349990D02*
X96674999Y-64325001D01*
X101862346Y-61737654D02*
X102400000Y-61200000D01*
X96674999Y-62525001D02*
X97462346Y-61737654D01*
X97462346Y-61737654D02*
X101862346Y-61737654D01*
%TO.N,i2c1_SCL*%
X101212653Y-61012653D02*
X97387347Y-61012653D01*
X97387347Y-61012653D02*
X96200000Y-62200000D01*
X96200000Y-62200000D02*
X96200000Y-73000000D01*
X96200000Y-73000000D02*
X97200000Y-74000000D01*
X97200000Y-77340000D02*
X98060000Y-78200000D01*
X97200000Y-74000000D02*
X97200000Y-77340000D01*
%TD*%
D21*
%TO.N,+48V*%
G36*
X151174145Y-44225644D02*
G01*
X150973137Y-44286619D01*
X150689936Y-44437993D01*
X150441708Y-44641708D01*
X150237993Y-44889936D01*
X150086619Y-45173137D01*
X149993403Y-45480428D01*
X149961928Y-45800000D01*
X149961928Y-47800000D01*
X149993403Y-48119572D01*
X150086619Y-48426863D01*
X150237993Y-48710064D01*
X150441708Y-48958292D01*
X150689936Y-49162007D01*
X150973137Y-49313381D01*
X151185369Y-49377761D01*
X151214641Y-62813359D01*
X150973137Y-62886619D01*
X150689936Y-63037993D01*
X150441708Y-63241708D01*
X150237993Y-63489936D01*
X150086619Y-63773137D01*
X149993403Y-64080428D01*
X149961928Y-64400000D01*
X149961928Y-66400000D01*
X149993403Y-66719572D01*
X150086619Y-67026863D01*
X150237993Y-67310064D01*
X150441708Y-67558292D01*
X150689936Y-67762007D01*
X150973137Y-67913381D01*
X151225919Y-67990062D01*
X151228908Y-69361928D01*
X151200000Y-69361928D01*
X150880428Y-69393403D01*
X150573137Y-69486619D01*
X150289936Y-69637993D01*
X150041708Y-69841708D01*
X149837993Y-70089936D01*
X149686619Y-70373137D01*
X149593403Y-70680428D01*
X149561928Y-71000000D01*
X149561928Y-73000000D01*
X149593403Y-73319572D01*
X149686619Y-73626863D01*
X149837993Y-73910064D01*
X150041708Y-74158292D01*
X150289936Y-74362007D01*
X150573137Y-74513381D01*
X150880428Y-74606597D01*
X151200000Y-74638072D01*
X151240403Y-74638072D01*
X151270678Y-88534477D01*
X150761656Y-88587978D01*
X150101874Y-88523286D01*
X149478430Y-88335057D01*
X148903427Y-88029323D01*
X148398752Y-87617721D01*
X147983638Y-87115933D01*
X147727000Y-86641291D01*
X147727000Y-48150000D01*
X147724560Y-48125224D01*
X147717333Y-48101399D01*
X147705597Y-48079443D01*
X147689803Y-48060197D01*
X147670557Y-48044403D01*
X147648601Y-48032667D01*
X147624776Y-48025440D01*
X147600000Y-48023000D01*
X136800000Y-48023000D01*
X136775224Y-48025440D01*
X136751399Y-48032667D01*
X136729443Y-48044403D01*
X136710197Y-48060197D01*
X136694403Y-48079443D01*
X136682667Y-48101399D01*
X136675440Y-48125224D01*
X136673000Y-48150000D01*
X136673000Y-49773000D01*
X131975761Y-49773000D01*
X131951994Y-47348755D01*
X131949311Y-47324004D01*
X131941851Y-47300251D01*
X131929900Y-47278411D01*
X131913918Y-47259321D01*
X131894519Y-47243717D01*
X131872448Y-47232196D01*
X131848554Y-47225203D01*
X131825000Y-47223000D01*
X109701133Y-47223000D01*
X109677873Y-43827000D01*
X151173276Y-43827000D01*
X151174145Y-44225644D01*
G37*
X151174145Y-44225644D02*
X150973137Y-44286619D01*
X150689936Y-44437993D01*
X150441708Y-44641708D01*
X150237993Y-44889936D01*
X150086619Y-45173137D01*
X149993403Y-45480428D01*
X149961928Y-45800000D01*
X149961928Y-47800000D01*
X149993403Y-48119572D01*
X150086619Y-48426863D01*
X150237993Y-48710064D01*
X150441708Y-48958292D01*
X150689936Y-49162007D01*
X150973137Y-49313381D01*
X151185369Y-49377761D01*
X151214641Y-62813359D01*
X150973137Y-62886619D01*
X150689936Y-63037993D01*
X150441708Y-63241708D01*
X150237993Y-63489936D01*
X150086619Y-63773137D01*
X149993403Y-64080428D01*
X149961928Y-64400000D01*
X149961928Y-66400000D01*
X149993403Y-66719572D01*
X150086619Y-67026863D01*
X150237993Y-67310064D01*
X150441708Y-67558292D01*
X150689936Y-67762007D01*
X150973137Y-67913381D01*
X151225919Y-67990062D01*
X151228908Y-69361928D01*
X151200000Y-69361928D01*
X150880428Y-69393403D01*
X150573137Y-69486619D01*
X150289936Y-69637993D01*
X150041708Y-69841708D01*
X149837993Y-70089936D01*
X149686619Y-70373137D01*
X149593403Y-70680428D01*
X149561928Y-71000000D01*
X149561928Y-73000000D01*
X149593403Y-73319572D01*
X149686619Y-73626863D01*
X149837993Y-73910064D01*
X150041708Y-74158292D01*
X150289936Y-74362007D01*
X150573137Y-74513381D01*
X150880428Y-74606597D01*
X151200000Y-74638072D01*
X151240403Y-74638072D01*
X151270678Y-88534477D01*
X150761656Y-88587978D01*
X150101874Y-88523286D01*
X149478430Y-88335057D01*
X148903427Y-88029323D01*
X148398752Y-87617721D01*
X147983638Y-87115933D01*
X147727000Y-86641291D01*
X147727000Y-48150000D01*
X147724560Y-48125224D01*
X147717333Y-48101399D01*
X147705597Y-48079443D01*
X147689803Y-48060197D01*
X147670557Y-48044403D01*
X147648601Y-48032667D01*
X147624776Y-48025440D01*
X147600000Y-48023000D01*
X136800000Y-48023000D01*
X136775224Y-48025440D01*
X136751399Y-48032667D01*
X136729443Y-48044403D01*
X136710197Y-48060197D01*
X136694403Y-48079443D01*
X136682667Y-48101399D01*
X136675440Y-48125224D01*
X136673000Y-48150000D01*
X136673000Y-49773000D01*
X131975761Y-49773000D01*
X131951994Y-47348755D01*
X131949311Y-47324004D01*
X131941851Y-47300251D01*
X131929900Y-47278411D01*
X131913918Y-47259321D01*
X131894519Y-47243717D01*
X131872448Y-47232196D01*
X131848554Y-47225203D01*
X131825000Y-47223000D01*
X109701133Y-47223000D01*
X109677873Y-43827000D01*
X151173276Y-43827000D01*
X151174145Y-44225644D01*
G36*
X151273000Y-82100000D02*
G01*
X151275440Y-82124776D01*
X151282667Y-82148601D01*
X151294403Y-82170557D01*
X151310197Y-82189803D01*
X151329443Y-82205597D01*
X151351399Y-82217333D01*
X151375224Y-82224560D01*
X151400000Y-82227000D01*
X153873000Y-82227000D01*
X153873000Y-86395897D01*
X153835057Y-86521570D01*
X153529323Y-87096573D01*
X153117721Y-87601248D01*
X152615933Y-88016362D01*
X152043077Y-88326104D01*
X151420961Y-88518682D01*
X150761656Y-88587978D01*
X150101874Y-88523286D01*
X149478430Y-88335057D01*
X148903427Y-88029323D01*
X148398752Y-87617721D01*
X147983638Y-87115933D01*
X147727000Y-86641291D01*
X147727000Y-81927000D01*
X151273000Y-81927000D01*
X151273000Y-82100000D01*
G37*
X151273000Y-82100000D02*
X151275440Y-82124776D01*
X151282667Y-82148601D01*
X151294403Y-82170557D01*
X151310197Y-82189803D01*
X151329443Y-82205597D01*
X151351399Y-82217333D01*
X151375224Y-82224560D01*
X151400000Y-82227000D01*
X153873000Y-82227000D01*
X153873000Y-86395897D01*
X153835057Y-86521570D01*
X153529323Y-87096573D01*
X153117721Y-87601248D01*
X152615933Y-88016362D01*
X152043077Y-88326104D01*
X151420961Y-88518682D01*
X150761656Y-88587978D01*
X150101874Y-88523286D01*
X149478430Y-88335057D01*
X148903427Y-88029323D01*
X148398752Y-87617721D01*
X147983638Y-87115933D01*
X147727000Y-86641291D01*
X147727000Y-81927000D01*
X151273000Y-81927000D01*
X151273000Y-82100000D01*
%TO.N,SHA*%
G36*
X158340000Y-71532418D02*
G01*
X158349550Y-71629382D01*
X158387290Y-71753792D01*
X158448575Y-71868449D01*
X158531052Y-71968948D01*
X158631550Y-72051425D01*
X158746207Y-72112710D01*
X158870617Y-72150450D01*
X158935552Y-72156845D01*
X158935595Y-72156850D01*
X158936237Y-72156913D01*
X159000000Y-72163193D01*
X159000143Y-72163179D01*
X159599568Y-72221953D01*
X160176303Y-72396079D01*
X160708227Y-72678909D01*
X161175088Y-73059672D01*
X161559103Y-73523866D01*
X161845639Y-74053803D01*
X162023788Y-74629309D01*
X162086760Y-75228446D01*
X162032158Y-75828417D01*
X161862064Y-76406347D01*
X161582954Y-76940237D01*
X161205458Y-77409747D01*
X160743958Y-77796991D01*
X160216036Y-78087218D01*
X159641789Y-78269380D01*
X159021651Y-78338939D01*
X159000000Y-78336807D01*
X158870618Y-78349550D01*
X158746208Y-78387290D01*
X158631551Y-78448575D01*
X158531053Y-78531052D01*
X158448576Y-78631550D01*
X158387291Y-78746207D01*
X158349551Y-78870617D01*
X158340001Y-78967581D01*
X158340001Y-78999996D01*
X158340000Y-79000006D01*
X158340001Y-79000016D01*
X158340001Y-81073000D01*
X153777000Y-81073000D01*
X153777000Y-77727000D01*
X154600000Y-77727000D01*
X154624776Y-77724560D01*
X154648601Y-77717333D01*
X154670557Y-77705597D01*
X154689803Y-77689803D01*
X154705597Y-77670557D01*
X154717333Y-77648601D01*
X154724560Y-77624776D01*
X154727000Y-77600000D01*
X154727000Y-74400000D01*
X154724560Y-74375224D01*
X154717333Y-74351399D01*
X154705597Y-74329443D01*
X154689803Y-74310197D01*
X154670557Y-74294403D01*
X154648601Y-74282667D01*
X154624776Y-74275440D01*
X154600000Y-74273000D01*
X153727000Y-74273000D01*
X153727000Y-69927000D01*
X158340000Y-69927000D01*
X158340000Y-71532418D01*
G37*
X158340000Y-71532418D02*
X158349550Y-71629382D01*
X158387290Y-71753792D01*
X158448575Y-71868449D01*
X158531052Y-71968948D01*
X158631550Y-72051425D01*
X158746207Y-72112710D01*
X158870617Y-72150450D01*
X158935552Y-72156845D01*
X158935595Y-72156850D01*
X158936237Y-72156913D01*
X159000000Y-72163193D01*
X159000143Y-72163179D01*
X159599568Y-72221953D01*
X160176303Y-72396079D01*
X160708227Y-72678909D01*
X161175088Y-73059672D01*
X161559103Y-73523866D01*
X161845639Y-74053803D01*
X162023788Y-74629309D01*
X162086760Y-75228446D01*
X162032158Y-75828417D01*
X161862064Y-76406347D01*
X161582954Y-76940237D01*
X161205458Y-77409747D01*
X160743958Y-77796991D01*
X160216036Y-78087218D01*
X159641789Y-78269380D01*
X159021651Y-78338939D01*
X159000000Y-78336807D01*
X158870618Y-78349550D01*
X158746208Y-78387290D01*
X158631551Y-78448575D01*
X158531053Y-78531052D01*
X158448576Y-78631550D01*
X158387291Y-78746207D01*
X158349551Y-78870617D01*
X158340001Y-78967581D01*
X158340001Y-78999996D01*
X158340000Y-79000006D01*
X158340001Y-79000016D01*
X158340001Y-81073000D01*
X153777000Y-81073000D01*
X153777000Y-77727000D01*
X154600000Y-77727000D01*
X154624776Y-77724560D01*
X154648601Y-77717333D01*
X154670557Y-77705597D01*
X154689803Y-77689803D01*
X154705597Y-77670557D01*
X154717333Y-77648601D01*
X154724560Y-77624776D01*
X154727000Y-77600000D01*
X154727000Y-74400000D01*
X154724560Y-74375224D01*
X154717333Y-74351399D01*
X154705597Y-74329443D01*
X154689803Y-74310197D01*
X154670557Y-74294403D01*
X154648601Y-74282667D01*
X154624776Y-74275440D01*
X154600000Y-74273000D01*
X153727000Y-74273000D01*
X153727000Y-69927000D01*
X158340000Y-69927000D01*
X158340000Y-71532418D01*
%TO.N,SHB*%
G36*
X158340000Y-58782418D02*
G01*
X158349550Y-58879382D01*
X158387290Y-59003792D01*
X158448575Y-59118449D01*
X158531052Y-59218948D01*
X158631550Y-59301425D01*
X158746207Y-59362710D01*
X158870617Y-59400450D01*
X158935552Y-59406845D01*
X158935595Y-59406850D01*
X158936237Y-59406913D01*
X159000000Y-59413193D01*
X159000143Y-59413179D01*
X159599568Y-59471953D01*
X160176303Y-59646079D01*
X160708227Y-59928909D01*
X161175088Y-60309672D01*
X161559103Y-60773866D01*
X161845639Y-61303803D01*
X162023788Y-61879309D01*
X162086760Y-62478446D01*
X162032158Y-63078417D01*
X161862064Y-63656347D01*
X161582954Y-64190237D01*
X161205458Y-64659747D01*
X160743958Y-65046991D01*
X160216036Y-65337218D01*
X159641789Y-65519380D01*
X159021651Y-65588939D01*
X159000000Y-65586807D01*
X158870618Y-65599550D01*
X158746208Y-65637290D01*
X158631551Y-65698575D01*
X158531053Y-65781052D01*
X158448576Y-65881550D01*
X158387291Y-65996207D01*
X158349551Y-66120617D01*
X158340001Y-66217581D01*
X158340001Y-66249996D01*
X158340000Y-66250006D01*
X158340001Y-66250016D01*
X158340001Y-68673000D01*
X152527000Y-68673000D01*
X152527000Y-62727000D01*
X153200000Y-62727000D01*
X153224776Y-62724560D01*
X153248601Y-62717333D01*
X153270557Y-62705597D01*
X153289803Y-62689803D01*
X153305597Y-62670557D01*
X153317333Y-62648601D01*
X153324560Y-62624776D01*
X153327000Y-62600000D01*
X153327000Y-58327000D01*
X158340000Y-58327000D01*
X158340000Y-58782418D01*
G37*
X158340000Y-58782418D02*
X158349550Y-58879382D01*
X158387290Y-59003792D01*
X158448575Y-59118449D01*
X158531052Y-59218948D01*
X158631550Y-59301425D01*
X158746207Y-59362710D01*
X158870617Y-59400450D01*
X158935552Y-59406845D01*
X158935595Y-59406850D01*
X158936237Y-59406913D01*
X159000000Y-59413193D01*
X159000143Y-59413179D01*
X159599568Y-59471953D01*
X160176303Y-59646079D01*
X160708227Y-59928909D01*
X161175088Y-60309672D01*
X161559103Y-60773866D01*
X161845639Y-61303803D01*
X162023788Y-61879309D01*
X162086760Y-62478446D01*
X162032158Y-63078417D01*
X161862064Y-63656347D01*
X161582954Y-64190237D01*
X161205458Y-64659747D01*
X160743958Y-65046991D01*
X160216036Y-65337218D01*
X159641789Y-65519380D01*
X159021651Y-65588939D01*
X159000000Y-65586807D01*
X158870618Y-65599550D01*
X158746208Y-65637290D01*
X158631551Y-65698575D01*
X158531053Y-65781052D01*
X158448576Y-65881550D01*
X158387291Y-65996207D01*
X158349551Y-66120617D01*
X158340001Y-66217581D01*
X158340001Y-66249996D01*
X158340000Y-66250006D01*
X158340001Y-66250016D01*
X158340001Y-68673000D01*
X152527000Y-68673000D01*
X152527000Y-62727000D01*
X153200000Y-62727000D01*
X153224776Y-62724560D01*
X153248601Y-62717333D01*
X153270557Y-62705597D01*
X153289803Y-62689803D01*
X153305597Y-62670557D01*
X153317333Y-62648601D01*
X153324560Y-62624776D01*
X153327000Y-62600000D01*
X153327000Y-58327000D01*
X158340000Y-58327000D01*
X158340000Y-58782418D01*
%TO.N,SHC*%
G36*
X158289106Y-44780113D02*
G01*
X158340001Y-45264353D01*
X158340000Y-46532418D01*
X158349550Y-46629382D01*
X158387290Y-46753792D01*
X158448575Y-46868449D01*
X158531052Y-46968948D01*
X158631550Y-47051425D01*
X158746207Y-47112710D01*
X158870617Y-47150450D01*
X158935552Y-47156845D01*
X158935595Y-47156850D01*
X158936237Y-47156913D01*
X159000000Y-47163193D01*
X159000143Y-47163179D01*
X159599568Y-47221953D01*
X160176303Y-47396079D01*
X160708227Y-47678909D01*
X161175088Y-48059672D01*
X161559103Y-48523866D01*
X161845639Y-49053803D01*
X162023788Y-49629309D01*
X162086760Y-50228446D01*
X162032158Y-50828417D01*
X161862064Y-51406347D01*
X161582954Y-51940237D01*
X161205458Y-52409747D01*
X160743958Y-52796991D01*
X160216036Y-53087218D01*
X159641789Y-53269380D01*
X159021651Y-53338939D01*
X159000000Y-53336807D01*
X158870618Y-53349550D01*
X158746208Y-53387290D01*
X158631551Y-53448575D01*
X158531053Y-53531052D01*
X158448576Y-53631550D01*
X158387291Y-53746207D01*
X158349551Y-53870617D01*
X158340001Y-53967581D01*
X158340001Y-53999996D01*
X158340000Y-54000006D01*
X158340001Y-54000016D01*
X158340001Y-55373000D01*
X153375249Y-55373000D01*
X153328776Y-52027000D01*
X155050000Y-52027000D01*
X155074776Y-52024560D01*
X155098601Y-52017333D01*
X155120557Y-52005597D01*
X155139803Y-51989803D01*
X155155597Y-51970557D01*
X155167333Y-51948601D01*
X155174560Y-51924776D01*
X155177000Y-51900000D01*
X155177000Y-49200000D01*
X155174560Y-49175224D01*
X155167333Y-49151399D01*
X155155597Y-49129443D01*
X155139803Y-49110197D01*
X155120557Y-49094403D01*
X155098601Y-49082667D01*
X155074776Y-49075440D01*
X155050000Y-49073000D01*
X153527000Y-49073000D01*
X153527000Y-44627000D01*
X158241709Y-44627000D01*
X158289106Y-44780113D01*
G37*
X158289106Y-44780113D02*
X158340001Y-45264353D01*
X158340000Y-46532418D01*
X158349550Y-46629382D01*
X158387290Y-46753792D01*
X158448575Y-46868449D01*
X158531052Y-46968948D01*
X158631550Y-47051425D01*
X158746207Y-47112710D01*
X158870617Y-47150450D01*
X158935552Y-47156845D01*
X158935595Y-47156850D01*
X158936237Y-47156913D01*
X159000000Y-47163193D01*
X159000143Y-47163179D01*
X159599568Y-47221953D01*
X160176303Y-47396079D01*
X160708227Y-47678909D01*
X161175088Y-48059672D01*
X161559103Y-48523866D01*
X161845639Y-49053803D01*
X162023788Y-49629309D01*
X162086760Y-50228446D01*
X162032158Y-50828417D01*
X161862064Y-51406347D01*
X161582954Y-51940237D01*
X161205458Y-52409747D01*
X160743958Y-52796991D01*
X160216036Y-53087218D01*
X159641789Y-53269380D01*
X159021651Y-53338939D01*
X159000000Y-53336807D01*
X158870618Y-53349550D01*
X158746208Y-53387290D01*
X158631551Y-53448575D01*
X158531053Y-53531052D01*
X158448576Y-53631550D01*
X158387291Y-53746207D01*
X158349551Y-53870617D01*
X158340001Y-53967581D01*
X158340001Y-53999996D01*
X158340000Y-54000006D01*
X158340001Y-54000016D01*
X158340001Y-55373000D01*
X153375249Y-55373000D01*
X153328776Y-52027000D01*
X155050000Y-52027000D01*
X155074776Y-52024560D01*
X155098601Y-52017333D01*
X155120557Y-52005597D01*
X155139803Y-51989803D01*
X155155597Y-51970557D01*
X155167333Y-51948601D01*
X155174560Y-51924776D01*
X155177000Y-51900000D01*
X155177000Y-49200000D01*
X155174560Y-49175224D01*
X155167333Y-49151399D01*
X155155597Y-49129443D01*
X155139803Y-49110197D01*
X155120557Y-49094403D01*
X155098601Y-49082667D01*
X155074776Y-49075440D01*
X155050000Y-49073000D01*
X153527000Y-49073000D01*
X153527000Y-44627000D01*
X158241709Y-44627000D01*
X158289106Y-44780113D01*
%TO.N,GND*%
G36*
X146273000Y-84590000D02*
G01*
X144717581Y-84590000D01*
X144620617Y-84599550D01*
X144496207Y-84637290D01*
X144381550Y-84698575D01*
X144281052Y-84781052D01*
X144198575Y-84881550D01*
X144137290Y-84996207D01*
X144099550Y-85120617D01*
X144086807Y-85250000D01*
X144086821Y-85250143D01*
X144023286Y-85898126D01*
X143835057Y-86521570D01*
X143529323Y-87096573D01*
X143117721Y-87601248D01*
X142615933Y-88016362D01*
X142043077Y-88326104D01*
X141420961Y-88518682D01*
X140761656Y-88587978D01*
X140101874Y-88523286D01*
X139478430Y-88335057D01*
X138903427Y-88029323D01*
X138398752Y-87617721D01*
X137983638Y-87115933D01*
X137673896Y-86543077D01*
X137481318Y-85920961D01*
X137410000Y-85242417D01*
X137410000Y-83217581D01*
X137407251Y-83189671D01*
X137407272Y-83186693D01*
X137406373Y-83177522D01*
X137401311Y-83129360D01*
X137400450Y-83120617D01*
X137400362Y-83120325D01*
X137396173Y-83080473D01*
X137384140Y-83021854D01*
X137372936Y-82963116D01*
X137370272Y-82954294D01*
X137341416Y-82861075D01*
X137318238Y-82805937D01*
X137295825Y-82750463D01*
X137291498Y-82742327D01*
X137245085Y-82656489D01*
X137211645Y-82606913D01*
X137178881Y-82556844D01*
X137173057Y-82549703D01*
X137110855Y-82474514D01*
X137068406Y-82432361D01*
X137026561Y-82389629D01*
X137019460Y-82383755D01*
X136943839Y-82322079D01*
X136894034Y-82288988D01*
X136844650Y-82255174D01*
X136836544Y-82250792D01*
X136750383Y-82204980D01*
X136727000Y-82195343D01*
X136727000Y-76727000D01*
X146273000Y-76727000D01*
X146273000Y-84590000D01*
G37*
X146273000Y-84590000D02*
X144717581Y-84590000D01*
X144620617Y-84599550D01*
X144496207Y-84637290D01*
X144381550Y-84698575D01*
X144281052Y-84781052D01*
X144198575Y-84881550D01*
X144137290Y-84996207D01*
X144099550Y-85120617D01*
X144086807Y-85250000D01*
X144086821Y-85250143D01*
X144023286Y-85898126D01*
X143835057Y-86521570D01*
X143529323Y-87096573D01*
X143117721Y-87601248D01*
X142615933Y-88016362D01*
X142043077Y-88326104D01*
X141420961Y-88518682D01*
X140761656Y-88587978D01*
X140101874Y-88523286D01*
X139478430Y-88335057D01*
X138903427Y-88029323D01*
X138398752Y-87617721D01*
X137983638Y-87115933D01*
X137673896Y-86543077D01*
X137481318Y-85920961D01*
X137410000Y-85242417D01*
X137410000Y-83217581D01*
X137407251Y-83189671D01*
X137407272Y-83186693D01*
X137406373Y-83177522D01*
X137401311Y-83129360D01*
X137400450Y-83120617D01*
X137400362Y-83120325D01*
X137396173Y-83080473D01*
X137384140Y-83021854D01*
X137372936Y-82963116D01*
X137370272Y-82954294D01*
X137341416Y-82861075D01*
X137318238Y-82805937D01*
X137295825Y-82750463D01*
X137291498Y-82742327D01*
X137245085Y-82656489D01*
X137211645Y-82606913D01*
X137178881Y-82556844D01*
X137173057Y-82549703D01*
X137110855Y-82474514D01*
X137068406Y-82432361D01*
X137026561Y-82389629D01*
X137019460Y-82383755D01*
X136943839Y-82322079D01*
X136894034Y-82288988D01*
X136844650Y-82255174D01*
X136836544Y-82250792D01*
X136750383Y-82204980D01*
X136727000Y-82195343D01*
X136727000Y-76727000D01*
X146273000Y-76727000D01*
X146273000Y-84590000D01*
%TD*%
M02*
